<?xml version="1.0" encoding="UTF-8" standalone="no"?>
<!DOCTYPE svg PUBLIC "-//W3C//DTD SVG 1.1//EN"
 "http://www.w3.org/Graphics/SVG/1.1/DTD/svg11.dtd">
<!-- Generated by graphviz version 2.26.3 (20100126.1600)
 -->
<!-- Title: controllers_diagram Pages: 1 -->
<svg width="1299pt" height="1221pt"
 viewBox="0.00 0.00 1299.00 1221.00" xmlns="http://www.w3.org/2000/svg" xmlns:xlink="http://www.w3.org/1999/xlink">
<g id="graph1" class="graph" transform="scale(1 1) rotate(0) translate(4 1217)">
<title>controllers_diagram</title>
<polygon fill="white" stroke="white" points="-4,5 -4,-1217 1296,-1217 1296,5 -4,5"/>
<!-- _diagram_info -->
<g id="node1" class="node"><title>_diagram_info</title>
<text text-anchor="start" x="234" y="-128.3" font-family="Times Roman,serif" font-size="13.00">Controllers diagram</text>
<text text-anchor="start" x="234" y="-111.3" font-family="Times Roman,serif" font-size="13.00">Date: Aug 15 2011 &#45; 21:14</text>
<text text-anchor="start" x="234" y="-94.3" font-family="Times Roman,serif" font-size="13.00">Migration version: 20110816000925</text>
<text text-anchor="start" x="234" y="-77.3" font-family="Times Roman,serif" font-size="13.00">Generated by RailRoady 1.0.2</text>
<text text-anchor="start" x="234" y="-60.3" font-family="Times Roman,serif" font-size="13.00">http://railroady.prestonlee.com</text>
</g>
<!-- Taxe::ValuesController -->
<g id="node2" class="node"><title>Taxe::ValuesController</title>
<polyline fill="none" stroke="black" points="1063,-126.5 1209,-126.5 "/>
<path fill="none" stroke="black" d="M1209,-126.5C1215,-126.5 1221,-132.5 1221,-138.5"/>
<polyline fill="none" stroke="black" points="1221,-138.5 1221,-324.5 "/>
<path fill="none" stroke="black" d="M1221,-324.5C1221,-330.5 1215,-336.5 1209,-336.5"/>
<polyline fill="none" stroke="black" points="1209,-336.5 1063,-336.5 "/>
<path fill="none" stroke="black" d="M1063,-336.5C1057,-336.5 1051,-330.5 1051,-324.5"/>
<polyline fill="none" stroke="black" points="1051,-324.5 1051,-138.5 "/>
<path fill="none" stroke="black" d="M1051,-138.5C1051,-132.5 1057,-126.5 1063,-126.5"/>
<text text-anchor="middle" x="1136" y="-319.9" font-family="Times Roman,serif" font-size="14.00">Taxe::ValuesController</text>
<polyline fill="none" stroke="black" points="1051,-310.5 1221,-310.5 "/>
<text text-anchor="start" x="1059" y="-293.9" font-family="Times Roman,serif" font-size="14.00">create</text>
<text text-anchor="start" x="1059" y="-275.9" font-family="Times Roman,serif" font-size="14.00">destroy</text>
<text text-anchor="start" x="1059" y="-257.9" font-family="Times Roman,serif" font-size="14.00">edit</text>
<text text-anchor="start" x="1059" y="-239.9" font-family="Times Roman,serif" font-size="14.00">index</text>
<text text-anchor="start" x="1059" y="-221.9" font-family="Times Roman,serif" font-size="14.00">new</text>
<text text-anchor="start" x="1059" y="-203.9" font-family="Times Roman,serif" font-size="14.00">show</text>
<text text-anchor="start" x="1059" y="-185.9" font-family="Times Roman,serif" font-size="14.00">update</text>
<polyline fill="none" stroke="black" points="1051,-176.5 1221,-176.5 "/>
<polyline fill="none" stroke="black" points="1051,-152.5 1221,-152.5 "/>
<text text-anchor="start" x="1059" y="-135.9" font-family="Times Roman,serif" font-size="14.00">_layout</text>
</g>
<!-- Taxe::GroupsController -->
<g id="node3" class="node"><title>Taxe::GroupsController</title>
<polyline fill="none" stroke="black" points="1063,-626.5 1214,-626.5 "/>
<path fill="none" stroke="black" d="M1214,-626.5C1220,-626.5 1226,-632.5 1226,-638.5"/>
<polyline fill="none" stroke="black" points="1226,-638.5 1226,-824.5 "/>
<path fill="none" stroke="black" d="M1226,-824.5C1226,-830.5 1220,-836.5 1214,-836.5"/>
<polyline fill="none" stroke="black" points="1214,-836.5 1063,-836.5 "/>
<path fill="none" stroke="black" d="M1063,-836.5C1057,-836.5 1051,-830.5 1051,-824.5"/>
<polyline fill="none" stroke="black" points="1051,-824.5 1051,-638.5 "/>
<path fill="none" stroke="black" d="M1051,-638.5C1051,-632.5 1057,-626.5 1063,-626.5"/>
<text text-anchor="middle" x="1138.5" y="-819.9" font-family="Times Roman,serif" font-size="14.00">Taxe::GroupsController</text>
<polyline fill="none" stroke="black" points="1051,-810.5 1226,-810.5 "/>
<text text-anchor="start" x="1059" y="-793.9" font-family="Times Roman,serif" font-size="14.00">create</text>
<text text-anchor="start" x="1059" y="-775.9" font-family="Times Roman,serif" font-size="14.00">destroy</text>
<text text-anchor="start" x="1059" y="-757.9" font-family="Times Roman,serif" font-size="14.00">edit</text>
<text text-anchor="start" x="1059" y="-739.9" font-family="Times Roman,serif" font-size="14.00">index</text>
<text text-anchor="start" x="1059" y="-721.9" font-family="Times Roman,serif" font-size="14.00">new</text>
<text text-anchor="start" x="1059" y="-703.9" font-family="Times Roman,serif" font-size="14.00">show</text>
<text text-anchor="start" x="1059" y="-685.9" font-family="Times Roman,serif" font-size="14.00">update</text>
<polyline fill="none" stroke="black" points="1051,-676.5 1226,-676.5 "/>
<polyline fill="none" stroke="black" points="1051,-652.5 1226,-652.5 "/>
<text text-anchor="start" x="1059" y="-635.9" font-family="Times Roman,serif" font-size="14.00">_layout</text>
</g>
<!-- Taxe::TypesController -->
<g id="node4" class="node"><title>Taxe::TypesController</title>
<polyline fill="none" stroke="black" points="1138,-376.5 1278,-376.5 "/>
<path fill="none" stroke="black" d="M1278,-376.5C1284,-376.5 1290,-382.5 1290,-388.5"/>
<polyline fill="none" stroke="black" points="1290,-388.5 1290,-574.5 "/>
<path fill="none" stroke="black" d="M1290,-574.5C1290,-580.5 1284,-586.5 1278,-586.5"/>
<polyline fill="none" stroke="black" points="1278,-586.5 1138,-586.5 "/>
<path fill="none" stroke="black" d="M1138,-586.5C1132,-586.5 1126,-580.5 1126,-574.5"/>
<polyline fill="none" stroke="black" points="1126,-574.5 1126,-388.5 "/>
<path fill="none" stroke="black" d="M1126,-388.5C1126,-382.5 1132,-376.5 1138,-376.5"/>
<text text-anchor="middle" x="1208" y="-569.9" font-family="Times Roman,serif" font-size="14.00">Taxe::TypesController</text>
<polyline fill="none" stroke="black" points="1126,-560.5 1290,-560.5 "/>
<text text-anchor="start" x="1134" y="-543.9" font-family="Times Roman,serif" font-size="14.00">create</text>
<text text-anchor="start" x="1134" y="-525.9" font-family="Times Roman,serif" font-size="14.00">destroy</text>
<text text-anchor="start" x="1134" y="-507.9" font-family="Times Roman,serif" font-size="14.00">edit</text>
<text text-anchor="start" x="1134" y="-489.9" font-family="Times Roman,serif" font-size="14.00">index</text>
<text text-anchor="start" x="1134" y="-471.9" font-family="Times Roman,serif" font-size="14.00">new</text>
<text text-anchor="start" x="1134" y="-453.9" font-family="Times Roman,serif" font-size="14.00">show</text>
<text text-anchor="start" x="1134" y="-435.9" font-family="Times Roman,serif" font-size="14.00">update</text>
<polyline fill="none" stroke="black" points="1126,-426.5 1290,-426.5 "/>
<polyline fill="none" stroke="black" points="1126,-402.5 1290,-402.5 "/>
<text text-anchor="start" x="1134" y="-385.9" font-family="Times Roman,serif" font-size="14.00">_layout</text>
</g>
<!-- ApplicationController -->
<g id="node5" class="node"><title>ApplicationController</title>
<polyline fill="none" stroke="black" points="538,-26.5 743,-26.5 "/>
<path fill="none" stroke="black" d="M743,-26.5C749,-26.5 755,-32.5 755,-38.5"/>
<polyline fill="none" stroke="black" points="755,-38.5 755,-134.5 "/>
<path fill="none" stroke="black" d="M755,-134.5C755,-140.5 749,-146.5 743,-146.5"/>
<polyline fill="none" stroke="black" points="743,-146.5 538,-146.5 "/>
<path fill="none" stroke="black" d="M538,-146.5C532,-146.5 526,-140.5 526,-134.5"/>
<polyline fill="none" stroke="black" points="526,-134.5 526,-38.5 "/>
<path fill="none" stroke="black" d="M526,-38.5C526,-32.5 532,-26.5 538,-26.5"/>
<text text-anchor="middle" x="640.5" y="-129.9" font-family="Times Roman,serif" font-size="14.00">ApplicationController</text>
<polyline fill="none" stroke="black" points="526,-120.5 755,-120.5 "/>
<text text-anchor="start" x="534" y="-103.9" font-family="Times Roman,serif" font-size="14.00">_one_time_conditions_valid_8?</text>
<polyline fill="none" stroke="black" points="526,-94.5 755,-94.5 "/>
<polyline fill="none" stroke="black" points="526,-70.5 755,-70.5 "/>
<text text-anchor="start" x="534" y="-53.9" font-family="Times Roman,serif" font-size="14.00">_layout</text>
<text text-anchor="start" x="534" y="-35.9" font-family="Times Roman,serif" font-size="14.00">_run_process_action_callbacks</text>
</g>
<!-- Transaction::RecordsController -->
<g id="node6" class="node"><title>Transaction::RecordsController</title>
<polyline fill="none" stroke="black" points="538,-201.5 741,-201.5 "/>
<path fill="none" stroke="black" d="M741,-201.5C747,-201.5 753,-207.5 753,-213.5"/>
<polyline fill="none" stroke="black" points="753,-213.5 753,-399.5 "/>
<path fill="none" stroke="black" d="M753,-399.5C753,-405.5 747,-411.5 741,-411.5"/>
<polyline fill="none" stroke="black" points="741,-411.5 538,-411.5 "/>
<path fill="none" stroke="black" d="M538,-411.5C532,-411.5 526,-405.5 526,-399.5"/>
<polyline fill="none" stroke="black" points="526,-399.5 526,-213.5 "/>
<path fill="none" stroke="black" d="M526,-213.5C526,-207.5 532,-201.5 538,-201.5"/>
<text text-anchor="middle" x="639.5" y="-394.9" font-family="Times Roman,serif" font-size="14.00">Transaction::RecordsController</text>
<polyline fill="none" stroke="black" points="526,-385.5 753,-385.5 "/>
<text text-anchor="start" x="534" y="-368.9" font-family="Times Roman,serif" font-size="14.00">create</text>
<text text-anchor="start" x="534" y="-350.9" font-family="Times Roman,serif" font-size="14.00">destroy</text>
<text text-anchor="start" x="534" y="-332.9" font-family="Times Roman,serif" font-size="14.00">edit</text>
<text text-anchor="start" x="534" y="-314.9" font-family="Times Roman,serif" font-size="14.00">index</text>
<text text-anchor="start" x="534" y="-296.9" font-family="Times Roman,serif" font-size="14.00">new</text>
<text text-anchor="start" x="534" y="-278.9" font-family="Times Roman,serif" font-size="14.00">show</text>
<text text-anchor="start" x="534" y="-260.9" font-family="Times Roman,serif" font-size="14.00">update</text>
<polyline fill="none" stroke="black" points="526,-251.5 753,-251.5 "/>
<polyline fill="none" stroke="black" points="526,-227.5 753,-227.5 "/>
<text text-anchor="start" x="534" y="-210.9" font-family="Times Roman,serif" font-size="14.00">_layout</text>
</g>
<!-- Transaction::RecordTaxesController -->
<g id="node7" class="node"><title>Transaction::RecordTaxesController</title>
<polyline fill="none" stroke="black" points="438,-751.5 671,-751.5 "/>
<path fill="none" stroke="black" d="M671,-751.5C677,-751.5 683,-757.5 683,-763.5"/>
<polyline fill="none" stroke="black" points="683,-763.5 683,-949.5 "/>
<path fill="none" stroke="black" d="M683,-949.5C683,-955.5 677,-961.5 671,-961.5"/>
<polyline fill="none" stroke="black" points="671,-961.5 438,-961.5 "/>
<path fill="none" stroke="black" d="M438,-961.5C432,-961.5 426,-955.5 426,-949.5"/>
<polyline fill="none" stroke="black" points="426,-949.5 426,-763.5 "/>
<path fill="none" stroke="black" d="M426,-763.5C426,-757.5 432,-751.5 438,-751.5"/>
<text text-anchor="middle" x="554.5" y="-944.9" font-family="Times Roman,serif" font-size="14.00">Transaction::RecordTaxesController</text>
<polyline fill="none" stroke="black" points="426,-935.5 683,-935.5 "/>
<text text-anchor="start" x="434" y="-918.9" font-family="Times Roman,serif" font-size="14.00">create</text>
<text text-anchor="start" x="434" y="-900.9" font-family="Times Roman,serif" font-size="14.00">destroy</text>
<text text-anchor="start" x="434" y="-882.9" font-family="Times Roman,serif" font-size="14.00">edit</text>
<text text-anchor="start" x="434" y="-864.9" font-family="Times Roman,serif" font-size="14.00">index</text>
<text text-anchor="start" x="434" y="-846.9" font-family="Times Roman,serif" font-size="14.00">new</text>
<text text-anchor="start" x="434" y="-828.9" font-family="Times Roman,serif" font-size="14.00">show</text>
<text text-anchor="start" x="434" y="-810.9" font-family="Times Roman,serif" font-size="14.00">update</text>
<polyline fill="none" stroke="black" points="426,-801.5 683,-801.5 "/>
<polyline fill="none" stroke="black" points="426,-777.5 683,-777.5 "/>
<text text-anchor="start" x="434" y="-760.9" font-family="Times Roman,serif" font-size="14.00">_layout</text>
</g>
<!-- Transaction::ItemTaxesController -->
<g id="node8" class="node"><title>Transaction::ItemTaxesController</title>
<polyline fill="none" stroke="black" points="988,-951.5 1206,-951.5 "/>
<path fill="none" stroke="black" d="M1206,-951.5C1212,-951.5 1218,-957.5 1218,-963.5"/>
<polyline fill="none" stroke="black" points="1218,-963.5 1218,-1149.5 "/>
<path fill="none" stroke="black" d="M1218,-1149.5C1218,-1155.5 1212,-1161.5 1206,-1161.5"/>
<polyline fill="none" stroke="black" points="1206,-1161.5 988,-1161.5 "/>
<path fill="none" stroke="black" d="M988,-1161.5C982,-1161.5 976,-1155.5 976,-1149.5"/>
<polyline fill="none" stroke="black" points="976,-1149.5 976,-963.5 "/>
<path fill="none" stroke="black" d="M976,-963.5C976,-957.5 982,-951.5 988,-951.5"/>
<text text-anchor="middle" x="1097" y="-1144.9" font-family="Times Roman,serif" font-size="14.00">Transaction::ItemTaxesController</text>
<polyline fill="none" stroke="black" points="976,-1135.5 1218,-1135.5 "/>
<text text-anchor="start" x="984" y="-1118.9" font-family="Times Roman,serif" font-size="14.00">create</text>
<text text-anchor="start" x="984" y="-1100.9" font-family="Times Roman,serif" font-size="14.00">destroy</text>
<text text-anchor="start" x="984" y="-1082.9" font-family="Times Roman,serif" font-size="14.00">edit</text>
<text text-anchor="start" x="984" y="-1064.9" font-family="Times Roman,serif" font-size="14.00">index</text>
<text text-anchor="start" x="984" y="-1046.9" font-family="Times Roman,serif" font-size="14.00">new</text>
<text text-anchor="start" x="984" y="-1028.9" font-family="Times Roman,serif" font-size="14.00">show</text>
<text text-anchor="start" x="984" y="-1010.9" font-family="Times Roman,serif" font-size="14.00">update</text>
<polyline fill="none" stroke="black" points="976,-1001.5 1218,-1001.5 "/>
<polyline fill="none" stroke="black" points="976,-977.5 1218,-977.5 "/>
<text text-anchor="start" x="984" y="-960.9" font-family="Times Roman,serif" font-size="14.00">_layout</text>
</g>
<!-- Transaction::ItemsController -->
<g id="node9" class="node"><title>Transaction::ItemsController</title>
<polyline fill="none" stroke="black" points="213,-501.5 401,-501.5 "/>
<path fill="none" stroke="black" d="M401,-501.5C407,-501.5 413,-507.5 413,-513.5"/>
<polyline fill="none" stroke="black" points="413,-513.5 413,-699.5 "/>
<path fill="none" stroke="black" d="M413,-699.5C413,-705.5 407,-711.5 401,-711.5"/>
<polyline fill="none" stroke="black" points="401,-711.5 213,-711.5 "/>
<path fill="none" stroke="black" d="M213,-711.5C207,-711.5 201,-705.5 201,-699.5"/>
<polyline fill="none" stroke="black" points="201,-699.5 201,-513.5 "/>
<path fill="none" stroke="black" d="M201,-513.5C201,-507.5 207,-501.5 213,-501.5"/>
<text text-anchor="middle" x="307" y="-694.9" font-family="Times Roman,serif" font-size="14.00">Transaction::ItemsController</text>
<polyline fill="none" stroke="black" points="201,-685.5 413,-685.5 "/>
<text text-anchor="start" x="209" y="-668.9" font-family="Times Roman,serif" font-size="14.00">create</text>
<text text-anchor="start" x="209" y="-650.9" font-family="Times Roman,serif" font-size="14.00">destroy</text>
<text text-anchor="start" x="209" y="-632.9" font-family="Times Roman,serif" font-size="14.00">edit</text>
<text text-anchor="start" x="209" y="-614.9" font-family="Times Roman,serif" font-size="14.00">index</text>
<text text-anchor="start" x="209" y="-596.9" font-family="Times Roman,serif" font-size="14.00">new</text>
<text text-anchor="start" x="209" y="-578.9" font-family="Times Roman,serif" font-size="14.00">show</text>
<text text-anchor="start" x="209" y="-560.9" font-family="Times Roman,serif" font-size="14.00">update</text>
<polyline fill="none" stroke="black" points="201,-551.5 413,-551.5 "/>
<polyline fill="none" stroke="black" points="201,-527.5 413,-527.5 "/>
<text text-anchor="start" x="209" y="-510.9" font-family="Times Roman,serif" font-size="14.00">_layout</text>
</g>
<!-- Transaction::ParticipantsController -->
<g id="node10" class="node"><title>Transaction::ParticipantsController</title>
<polyline fill="none" stroke="black" points="238,-201.5 468,-201.5 "/>
<path fill="none" stroke="black" d="M468,-201.5C474,-201.5 480,-207.5 480,-213.5"/>
<polyline fill="none" stroke="black" points="480,-213.5 480,-399.5 "/>
<path fill="none" stroke="black" d="M480,-399.5C480,-405.5 474,-411.5 468,-411.5"/>
<polyline fill="none" stroke="black" points="468,-411.5 238,-411.5 "/>
<path fill="none" stroke="black" d="M238,-411.5C232,-411.5 226,-405.5 226,-399.5"/>
<polyline fill="none" stroke="black" points="226,-399.5 226,-213.5 "/>
<path fill="none" stroke="black" d="M226,-213.5C226,-207.5 232,-201.5 238,-201.5"/>
<text text-anchor="middle" x="353" y="-394.9" font-family="Times Roman,serif" font-size="14.00">Transaction::ParticipantsController</text>
<polyline fill="none" stroke="black" points="226,-385.5 480,-385.5 "/>
<text text-anchor="start" x="234" y="-368.9" font-family="Times Roman,serif" font-size="14.00">create</text>
<text text-anchor="start" x="234" y="-350.9" font-family="Times Roman,serif" font-size="14.00">destroy</text>
<text text-anchor="start" x="234" y="-332.9" font-family="Times Roman,serif" font-size="14.00">edit</text>
<text text-anchor="start" x="234" y="-314.9" font-family="Times Roman,serif" font-size="14.00">index</text>
<text text-anchor="start" x="234" y="-296.9" font-family="Times Roman,serif" font-size="14.00">new</text>
<text text-anchor="start" x="234" y="-278.9" font-family="Times Roman,serif" font-size="14.00">show</text>
<text text-anchor="start" x="234" y="-260.9" font-family="Times Roman,serif" font-size="14.00">update</text>
<polyline fill="none" stroke="black" points="226,-251.5 480,-251.5 "/>
<polyline fill="none" stroke="black" points="226,-227.5 480,-227.5 "/>
<text text-anchor="start" x="234" y="-210.9" font-family="Times Roman,serif" font-size="14.00">_layout</text>
</g>
<!-- Transaction::FinanciersController -->
<g id="node11" class="node"><title>Transaction::FinanciersController</title>
<polyline fill="none" stroke="black" points="688,-1001.5 906,-1001.5 "/>
<path fill="none" stroke="black" d="M906,-1001.5C912,-1001.5 918,-1007.5 918,-1013.5"/>
<polyline fill="none" stroke="black" points="918,-1013.5 918,-1199.5 "/>
<path fill="none" stroke="black" d="M918,-1199.5C918,-1205.5 912,-1211.5 906,-1211.5"/>
<polyline fill="none" stroke="black" points="906,-1211.5 688,-1211.5 "/>
<path fill="none" stroke="black" d="M688,-1211.5C682,-1211.5 676,-1205.5 676,-1199.5"/>
<polyline fill="none" stroke="black" points="676,-1199.5 676,-1013.5 "/>
<path fill="none" stroke="black" d="M676,-1013.5C676,-1007.5 682,-1001.5 688,-1001.5"/>
<text text-anchor="middle" x="797" y="-1194.9" font-family="Times Roman,serif" font-size="14.00">Transaction::FinanciersController</text>
<polyline fill="none" stroke="black" points="676,-1185.5 918,-1185.5 "/>
<text text-anchor="start" x="684" y="-1168.9" font-family="Times Roman,serif" font-size="14.00">create</text>
<text text-anchor="start" x="684" y="-1150.9" font-family="Times Roman,serif" font-size="14.00">destroy</text>
<text text-anchor="start" x="684" y="-1132.9" font-family="Times Roman,serif" font-size="14.00">edit</text>
<text text-anchor="start" x="684" y="-1114.9" font-family="Times Roman,serif" font-size="14.00">index</text>
<text text-anchor="start" x="684" y="-1096.9" font-family="Times Roman,serif" font-size="14.00">new</text>
<text text-anchor="start" x="684" y="-1078.9" font-family="Times Roman,serif" font-size="14.00">show</text>
<text text-anchor="start" x="684" y="-1060.9" font-family="Times Roman,serif" font-size="14.00">update</text>
<polyline fill="none" stroke="black" points="676,-1051.5 918,-1051.5 "/>
<polyline fill="none" stroke="black" points="676,-1027.5 918,-1027.5 "/>
<text text-anchor="start" x="684" y="-1010.9" font-family="Times Roman,serif" font-size="14.00">_layout</text>
</g>
<!-- Address::PlacesController -->
<g id="node12" class="node"><title>Address::PlacesController</title>
<polyline fill="none" stroke="black" points="188,-1001.5 355,-1001.5 "/>
<path fill="none" stroke="black" d="M355,-1001.5C361,-1001.5 367,-1007.5 367,-1013.5"/>
<polyline fill="none" stroke="black" points="367,-1013.5 367,-1199.5 "/>
<path fill="none" stroke="black" d="M367,-1199.5C367,-1205.5 361,-1211.5 355,-1211.5"/>
<polyline fill="none" stroke="black" points="355,-1211.5 188,-1211.5 "/>
<path fill="none" stroke="black" d="M188,-1211.5C182,-1211.5 176,-1205.5 176,-1199.5"/>
<polyline fill="none" stroke="black" points="176,-1199.5 176,-1013.5 "/>
<path fill="none" stroke="black" d="M176,-1013.5C176,-1007.5 182,-1001.5 188,-1001.5"/>
<text text-anchor="middle" x="271.5" y="-1194.9" font-family="Times Roman,serif" font-size="14.00">Address::PlacesController</text>
<polyline fill="none" stroke="black" points="176,-1185.5 367,-1185.5 "/>
<text text-anchor="start" x="184" y="-1168.9" font-family="Times Roman,serif" font-size="14.00">create</text>
<text text-anchor="start" x="184" y="-1150.9" font-family="Times Roman,serif" font-size="14.00">destroy</text>
<text text-anchor="start" x="184" y="-1132.9" font-family="Times Roman,serif" font-size="14.00">edit</text>
<text text-anchor="start" x="184" y="-1114.9" font-family="Times Roman,serif" font-size="14.00">index</text>
<text text-anchor="start" x="184" y="-1096.9" font-family="Times Roman,serif" font-size="14.00">new</text>
<text text-anchor="start" x="184" y="-1078.9" font-family="Times Roman,serif" font-size="14.00">show</text>
<text text-anchor="start" x="184" y="-1060.9" font-family="Times Roman,serif" font-size="14.00">update</text>
<polyline fill="none" stroke="black" points="176,-1051.5 367,-1051.5 "/>
<polyline fill="none" stroke="black" points="176,-1027.5 367,-1027.5 "/>
<text text-anchor="start" x="184" y="-1010.9" font-family="Times Roman,serif" font-size="14.00">_layout</text>
</g>
<!-- Financier::NotesController -->
<g id="node13" class="node"><title>Financier::NotesController</title>
<polyline fill="none" stroke="black" points="188,-751.5 361,-751.5 "/>
<path fill="none" stroke="black" d="M361,-751.5C367,-751.5 373,-757.5 373,-763.5"/>
<polyline fill="none" stroke="black" points="373,-763.5 373,-949.5 "/>
<path fill="none" stroke="black" d="M373,-949.5C373,-955.5 367,-961.5 361,-961.5"/>
<polyline fill="none" stroke="black" points="361,-961.5 188,-961.5 "/>
<path fill="none" stroke="black" d="M188,-961.5C182,-961.5 176,-955.5 176,-949.5"/>
<polyline fill="none" stroke="black" points="176,-949.5 176,-763.5 "/>
<path fill="none" stroke="black" d="M176,-763.5C176,-757.5 182,-751.5 188,-751.5"/>
<text text-anchor="middle" x="274.5" y="-944.9" font-family="Times Roman,serif" font-size="14.00">Financier::NotesController</text>
<polyline fill="none" stroke="black" points="176,-935.5 373,-935.5 "/>
<text text-anchor="start" x="184" y="-918.9" font-family="Times Roman,serif" font-size="14.00">create</text>
<text text-anchor="start" x="184" y="-900.9" font-family="Times Roman,serif" font-size="14.00">destroy</text>
<text text-anchor="start" x="184" y="-882.9" font-family="Times Roman,serif" font-size="14.00">edit</text>
<text text-anchor="start" x="184" y="-864.9" font-family="Times Roman,serif" font-size="14.00">index</text>
<text text-anchor="start" x="184" y="-846.9" font-family="Times Roman,serif" font-size="14.00">new</text>
<text text-anchor="start" x="184" y="-828.9" font-family="Times Roman,serif" font-size="14.00">show</text>
<text text-anchor="start" x="184" y="-810.9" font-family="Times Roman,serif" font-size="14.00">update</text>
<polyline fill="none" stroke="black" points="176,-801.5 373,-801.5 "/>
<polyline fill="none" stroke="black" points="176,-777.5 373,-777.5 "/>
<text text-anchor="start" x="184" y="-760.9" font-family="Times Roman,serif" font-size="14.00">_layout</text>
</g>
<!-- Participant::PeopleController -->
<g id="node14" class="node"><title>Participant::PeopleController</title>
<polyline fill="none" stroke="black" points="438,-1001.5 628,-1001.5 "/>
<path fill="none" stroke="black" d="M628,-1001.5C634,-1001.5 640,-1007.5 640,-1013.5"/>
<polyline fill="none" stroke="black" points="640,-1013.5 640,-1199.5 "/>
<path fill="none" stroke="black" d="M640,-1199.5C640,-1205.5 634,-1211.5 628,-1211.5"/>
<polyline fill="none" stroke="black" points="628,-1211.5 438,-1211.5 "/>
<path fill="none" stroke="black" d="M438,-1211.5C432,-1211.5 426,-1205.5 426,-1199.5"/>
<polyline fill="none" stroke="black" points="426,-1199.5 426,-1013.5 "/>
<path fill="none" stroke="black" d="M426,-1013.5C426,-1007.5 432,-1001.5 438,-1001.5"/>
<text text-anchor="middle" x="533" y="-1194.9" font-family="Times Roman,serif" font-size="14.00">Participant::PeopleController</text>
<polyline fill="none" stroke="black" points="426,-1185.5 640,-1185.5 "/>
<text text-anchor="start" x="434" y="-1168.9" font-family="Times Roman,serif" font-size="14.00">create</text>
<text text-anchor="start" x="434" y="-1150.9" font-family="Times Roman,serif" font-size="14.00">destroy</text>
<text text-anchor="start" x="434" y="-1132.9" font-family="Times Roman,serif" font-size="14.00">edit</text>
<text text-anchor="start" x="434" y="-1114.9" font-family="Times Roman,serif" font-size="14.00">index</text>
<text text-anchor="start" x="434" y="-1096.9" font-family="Times Roman,serif" font-size="14.00">new</text>
<text text-anchor="start" x="434" y="-1078.9" font-family="Times Roman,serif" font-size="14.00">show</text>
<text text-anchor="start" x="434" y="-1060.9" font-family="Times Roman,serif" font-size="14.00">update</text>
<polyline fill="none" stroke="black" points="426,-1051.5 640,-1051.5 "/>
<polyline fill="none" stroke="black" points="426,-1027.5 640,-1027.5 "/>
<text text-anchor="start" x="434" y="-1010.9" font-family="Times Roman,serif" font-size="14.00">_layout</text>
</g>
<!-- Participant::Contact::AddressesController -->
<g id="node15" class="node"><title>Participant::Contact::AddressesController</title>
<polyline fill="none" stroke="black" points="463,-451.5 740,-451.5 "/>
<path fill="none" stroke="black" d="M740,-451.5C746,-451.5 752,-457.5 752,-463.5"/>
<polyline fill="none" stroke="black" points="752,-463.5 752,-649.5 "/>
<path fill="none" stroke="black" d="M752,-649.5C752,-655.5 746,-661.5 740,-661.5"/>
<polyline fill="none" stroke="black" points="740,-661.5 463,-661.5 "/>
<path fill="none" stroke="black" d="M463,-661.5C457,-661.5 451,-655.5 451,-649.5"/>
<polyline fill="none" stroke="black" points="451,-649.5 451,-463.5 "/>
<path fill="none" stroke="black" d="M451,-463.5C451,-457.5 457,-451.5 463,-451.5"/>
<text text-anchor="middle" x="601.5" y="-644.9" font-family="Times Roman,serif" font-size="14.00">Participant::Contact::AddressesController</text>
<polyline fill="none" stroke="black" points="451,-635.5 752,-635.5 "/>
<text text-anchor="start" x="459" y="-618.9" font-family="Times Roman,serif" font-size="14.00">create</text>
<text text-anchor="start" x="459" y="-600.9" font-family="Times Roman,serif" font-size="14.00">destroy</text>
<text text-anchor="start" x="459" y="-582.9" font-family="Times Roman,serif" font-size="14.00">edit</text>
<text text-anchor="start" x="459" y="-564.9" font-family="Times Roman,serif" font-size="14.00">index</text>
<text text-anchor="start" x="459" y="-546.9" font-family="Times Roman,serif" font-size="14.00">new</text>
<text text-anchor="start" x="459" y="-528.9" font-family="Times Roman,serif" font-size="14.00">show</text>
<text text-anchor="start" x="459" y="-510.9" font-family="Times Roman,serif" font-size="14.00">update</text>
<polyline fill="none" stroke="black" points="451,-501.5 752,-501.5 "/>
<polyline fill="none" stroke="black" points="451,-477.5 752,-477.5 "/>
<text text-anchor="start" x="459" y="-460.9" font-family="Times Roman,serif" font-size="14.00">_layout</text>
</g>
<!-- Participant::Contact::TypesController -->
<g id="node16" class="node"><title>Participant::Contact::TypesController</title>
<polyline fill="none" stroke="black" points="738,-701.5 984,-701.5 "/>
<path fill="none" stroke="black" d="M984,-701.5C990,-701.5 996,-707.5 996,-713.5"/>
<polyline fill="none" stroke="black" points="996,-713.5 996,-899.5 "/>
<path fill="none" stroke="black" d="M996,-899.5C996,-905.5 990,-911.5 984,-911.5"/>
<polyline fill="none" stroke="black" points="984,-911.5 738,-911.5 "/>
<path fill="none" stroke="black" d="M738,-911.5C732,-911.5 726,-905.5 726,-899.5"/>
<polyline fill="none" stroke="black" points="726,-899.5 726,-713.5 "/>
<path fill="none" stroke="black" d="M726,-713.5C726,-707.5 732,-701.5 738,-701.5"/>
<text text-anchor="middle" x="861" y="-894.9" font-family="Times Roman,serif" font-size="14.00">Participant::Contact::TypesController</text>
<polyline fill="none" stroke="black" points="726,-885.5 996,-885.5 "/>
<text text-anchor="start" x="734" y="-868.9" font-family="Times Roman,serif" font-size="14.00">create</text>
<text text-anchor="start" x="734" y="-850.9" font-family="Times Roman,serif" font-size="14.00">destroy</text>
<text text-anchor="start" x="734" y="-832.9" font-family="Times Roman,serif" font-size="14.00">edit</text>
<text text-anchor="start" x="734" y="-814.9" font-family="Times Roman,serif" font-size="14.00">index</text>
<text text-anchor="start" x="734" y="-796.9" font-family="Times Roman,serif" font-size="14.00">new</text>
<text text-anchor="start" x="734" y="-778.9" font-family="Times Roman,serif" font-size="14.00">show</text>
<text text-anchor="start" x="734" y="-760.9" font-family="Times Roman,serif" font-size="14.00">update</text>
<polyline fill="none" stroke="black" points="726,-751.5 996,-751.5 "/>
<polyline fill="none" stroke="black" points="726,-727.5 996,-727.5 "/>
<text text-anchor="start" x="734" y="-710.9" font-family="Times Roman,serif" font-size="14.00">_layout</text>
</g>
<!-- Participant::Contact::EmailsController -->
<g id="node17" class="node"><title>Participant::Contact::EmailsController</title>
<polyline fill="none" stroke="black" points="813,-376.5 1065,-376.5 "/>
<path fill="none" stroke="black" d="M1065,-376.5C1071,-376.5 1077,-382.5 1077,-388.5"/>
<polyline fill="none" stroke="black" points="1077,-388.5 1077,-574.5 "/>
<path fill="none" stroke="black" d="M1077,-574.5C1077,-580.5 1071,-586.5 1065,-586.5"/>
<polyline fill="none" stroke="black" points="1065,-586.5 813,-586.5 "/>
<path fill="none" stroke="black" d="M813,-586.5C807,-586.5 801,-580.5 801,-574.5"/>
<polyline fill="none" stroke="black" points="801,-574.5 801,-388.5 "/>
<path fill="none" stroke="black" d="M801,-388.5C801,-382.5 807,-376.5 813,-376.5"/>
<text text-anchor="middle" x="939" y="-569.9" font-family="Times Roman,serif" font-size="14.00">Participant::Contact::EmailsController</text>
<polyline fill="none" stroke="black" points="801,-560.5 1077,-560.5 "/>
<text text-anchor="start" x="809" y="-543.9" font-family="Times Roman,serif" font-size="14.00">create</text>
<text text-anchor="start" x="809" y="-525.9" font-family="Times Roman,serif" font-size="14.00">destroy</text>
<text text-anchor="start" x="809" y="-507.9" font-family="Times Roman,serif" font-size="14.00">edit</text>
<text text-anchor="start" x="809" y="-489.9" font-family="Times Roman,serif" font-size="14.00">index</text>
<text text-anchor="start" x="809" y="-471.9" font-family="Times Roman,serif" font-size="14.00">new</text>
<text text-anchor="start" x="809" y="-453.9" font-family="Times Roman,serif" font-size="14.00">show</text>
<text text-anchor="start" x="809" y="-435.9" font-family="Times Roman,serif" font-size="14.00">update</text>
<polyline fill="none" stroke="black" points="801,-426.5 1077,-426.5 "/>
<polyline fill="none" stroke="black" points="801,-402.5 1077,-402.5 "/>
<text text-anchor="start" x="809" y="-385.9" font-family="Times Roman,serif" font-size="14.00">_layout</text>
</g>
<!-- Goods::ItemsController -->
<g id="node18" class="node"><title>Goods::ItemsController</title>
<polyline fill="none" stroke="black" points="13,-251.5 165,-251.5 "/>
<path fill="none" stroke="black" d="M165,-251.5C171,-251.5 177,-257.5 177,-263.5"/>
<polyline fill="none" stroke="black" points="177,-263.5 177,-449.5 "/>
<path fill="none" stroke="black" d="M177,-449.5C177,-455.5 171,-461.5 165,-461.5"/>
<polyline fill="none" stroke="black" points="165,-461.5 13,-461.5 "/>
<path fill="none" stroke="black" d="M13,-461.5C7,-461.5 1,-455.5 1,-449.5"/>
<polyline fill="none" stroke="black" points="1,-449.5 1,-263.5 "/>
<path fill="none" stroke="black" d="M1,-263.5C1,-257.5 7,-251.5 13,-251.5"/>
<text text-anchor="middle" x="89" y="-444.9" font-family="Times Roman,serif" font-size="14.00">Goods::ItemsController</text>
<polyline fill="none" stroke="black" points="1,-435.5 177,-435.5 "/>
<text text-anchor="start" x="9" y="-418.9" font-family="Times Roman,serif" font-size="14.00">create</text>
<text text-anchor="start" x="9" y="-400.9" font-family="Times Roman,serif" font-size="14.00">destroy</text>
<text text-anchor="start" x="9" y="-382.9" font-family="Times Roman,serif" font-size="14.00">edit</text>
<text text-anchor="start" x="9" y="-364.9" font-family="Times Roman,serif" font-size="14.00">index</text>
<text text-anchor="start" x="9" y="-346.9" font-family="Times Roman,serif" font-size="14.00">new</text>
<text text-anchor="start" x="9" y="-328.9" font-family="Times Roman,serif" font-size="14.00">show</text>
<text text-anchor="start" x="9" y="-310.9" font-family="Times Roman,serif" font-size="14.00">update</text>
<polyline fill="none" stroke="black" points="1,-301.5 177,-301.5 "/>
<polyline fill="none" stroke="black" points="1,-277.5 177,-277.5 "/>
<text text-anchor="start" x="9" y="-260.9" font-family="Times Roman,serif" font-size="14.00">_layout</text>
</g>
<!-- Email::UsersController -->
<g id="node19" class="node"><title>Email::UsersController</title>
<polyline fill="none" stroke="black" points="13,-1.5 159,-1.5 "/>
<path fill="none" stroke="black" d="M159,-1.5C165,-1.5 171,-7.5 171,-13.5"/>
<polyline fill="none" stroke="black" points="171,-13.5 171,-199.5 "/>
<path fill="none" stroke="black" d="M171,-199.5C171,-205.5 165,-211.5 159,-211.5"/>
<polyline fill="none" stroke="black" points="159,-211.5 13,-211.5 "/>
<path fill="none" stroke="black" d="M13,-211.5C7,-211.5 1,-205.5 1,-199.5"/>
<polyline fill="none" stroke="black" points="1,-199.5 1,-13.5 "/>
<path fill="none" stroke="black" d="M1,-13.5C1,-7.5 7,-1.5 13,-1.5"/>
<text text-anchor="middle" x="86" y="-194.9" font-family="Times Roman,serif" font-size="14.00">Email::UsersController</text>
<polyline fill="none" stroke="black" points="1,-185.5 171,-185.5 "/>
<text text-anchor="start" x="9" y="-168.9" font-family="Times Roman,serif" font-size="14.00">create</text>
<text text-anchor="start" x="9" y="-150.9" font-family="Times Roman,serif" font-size="14.00">destroy</text>
<text text-anchor="start" x="9" y="-132.9" font-family="Times Roman,serif" font-size="14.00">edit</text>
<text text-anchor="start" x="9" y="-114.9" font-family="Times Roman,serif" font-size="14.00">index</text>
<text text-anchor="start" x="9" y="-96.9" font-family="Times Roman,serif" font-size="14.00">new</text>
<text text-anchor="start" x="9" y="-78.9" font-family="Times Roman,serif" font-size="14.00">show</text>
<text text-anchor="start" x="9" y="-60.9" font-family="Times Roman,serif" font-size="14.00">update</text>
<polyline fill="none" stroke="black" points="1,-51.5 171,-51.5 "/>
<polyline fill="none" stroke="black" points="1,-27.5 171,-27.5 "/>
<text text-anchor="start" x="9" y="-10.9" font-family="Times Roman,serif" font-size="14.00">_layout</text>
</g>
<!-- Email::DomainsController -->
<g id="node20" class="node"><title>Email::DomainsController</title>
<polyline fill="none" stroke="black" points="813,-126.5 981,-126.5 "/>
<path fill="none" stroke="black" d="M981,-126.5C987,-126.5 993,-132.5 993,-138.5"/>
<polyline fill="none" stroke="black" points="993,-138.5 993,-324.5 "/>
<path fill="none" stroke="black" d="M993,-324.5C993,-330.5 987,-336.5 981,-336.5"/>
<polyline fill="none" stroke="black" points="981,-336.5 813,-336.5 "/>
<path fill="none" stroke="black" d="M813,-336.5C807,-336.5 801,-330.5 801,-324.5"/>
<polyline fill="none" stroke="black" points="801,-324.5 801,-138.5 "/>
<path fill="none" stroke="black" d="M801,-138.5C801,-132.5 807,-126.5 813,-126.5"/>
<text text-anchor="middle" x="897" y="-319.9" font-family="Times Roman,serif" font-size="14.00">Email::DomainsController</text>
<polyline fill="none" stroke="black" points="801,-310.5 993,-310.5 "/>
<text text-anchor="start" x="809" y="-293.9" font-family="Times Roman,serif" font-size="14.00">create</text>
<text text-anchor="start" x="809" y="-275.9" font-family="Times Roman,serif" font-size="14.00">destroy</text>
<text text-anchor="start" x="809" y="-257.9" font-family="Times Roman,serif" font-size="14.00">edit</text>
<text text-anchor="start" x="809" y="-239.9" font-family="Times Roman,serif" font-size="14.00">index</text>
<text text-anchor="start" x="809" y="-221.9" font-family="Times Roman,serif" font-size="14.00">new</text>
<text text-anchor="start" x="809" y="-203.9" font-family="Times Roman,serif" font-size="14.00">show</text>
<text text-anchor="start" x="809" y="-185.9" font-family="Times Roman,serif" font-size="14.00">update</text>
<polyline fill="none" stroke="black" points="801,-176.5 993,-176.5 "/>
<polyline fill="none" stroke="black" points="801,-152.5 993,-152.5 "/>
<text text-anchor="start" x="809" y="-135.9" font-family="Times Roman,serif" font-size="14.00">_layout</text>
</g>
</g>
</svg>
