<?xml version="1.0" encoding="UTF-8" standalone="no"?>
<!DOCTYPE svg PUBLIC "-//W3C//DTD SVG 1.1//EN"
 "http://www.w3.org/Graphics/SVG/1.1/DTD/svg11.dtd">
<!-- Generated by graphviz version 2.26.3 (20100126.1600)
 -->
<!-- Title: controllers_diagram Pages: 1 -->
<svg width="570pt" height="788pt"
 viewBox="0.00 0.00 570.00 788.00" xmlns="http://www.w3.org/2000/svg" xmlns:xlink="http://www.w3.org/1999/xlink">
<g id="graph1" class="graph" transform="scale(1 1) rotate(0) translate(4 784)">
<title>controllers_diagram</title>
<polygon fill="white" stroke="white" points="-4,5 -4,-784 567,-784 567,5 -4,5"/>
<!-- _diagram_info -->
<g id="node1" class="node"><title>_diagram_info</title>
<text text-anchor="start" x="114" y="-519.3" font-family="Times Roman,serif" font-size="13.00">Controllers diagram</text>
<text text-anchor="start" x="114" y="-502.3" font-family="Times Roman,serif" font-size="13.00">Date: Aug 02 2011 &#45; 13:18</text>
<text text-anchor="start" x="114" y="-485.3" font-family="Times Roman,serif" font-size="13.00">Migration version: 20110802014239</text>
<text text-anchor="start" x="114" y="-468.3" font-family="Times Roman,serif" font-size="13.00">Generated by RailRoady 1.0.2</text>
<text text-anchor="start" x="114" y="-451.3" font-family="Times Roman,serif" font-size="13.00">http://railroady.prestonlee.com</text>
</g>
<!-- PersonTypesController -->
<g id="node2" class="node"><title>PersonTypesController</title>
<polyline fill="none" stroke="black" points="202,-169.5 348,-169.5 "/>
<path fill="none" stroke="black" d="M348,-169.5C354,-169.5 360,-175.5 360,-181.5"/>
<polyline fill="none" stroke="black" points="360,-181.5 360,-367.5 "/>
<path fill="none" stroke="black" d="M360,-367.5C360,-373.5 354,-379.5 348,-379.5"/>
<polyline fill="none" stroke="black" points="348,-379.5 202,-379.5 "/>
<path fill="none" stroke="black" d="M202,-379.5C196,-379.5 190,-373.5 190,-367.5"/>
<polyline fill="none" stroke="black" points="190,-367.5 190,-181.5 "/>
<path fill="none" stroke="black" d="M190,-181.5C190,-175.5 196,-169.5 202,-169.5"/>
<text text-anchor="middle" x="275" y="-362.9" font-family="Times Roman,serif" font-size="14.00">PersonTypesController</text>
<polyline fill="none" stroke="black" points="190,-353.5 360,-353.5 "/>
<text text-anchor="start" x="198" y="-336.9" font-family="Times Roman,serif" font-size="14.00">create</text>
<text text-anchor="start" x="198" y="-318.9" font-family="Times Roman,serif" font-size="14.00">destroy</text>
<text text-anchor="start" x="198" y="-300.9" font-family="Times Roman,serif" font-size="14.00">edit</text>
<text text-anchor="start" x="198" y="-282.9" font-family="Times Roman,serif" font-size="14.00">index</text>
<text text-anchor="start" x="198" y="-264.9" font-family="Times Roman,serif" font-size="14.00">new</text>
<text text-anchor="start" x="198" y="-246.9" font-family="Times Roman,serif" font-size="14.00">show</text>
<text text-anchor="start" x="198" y="-228.9" font-family="Times Roman,serif" font-size="14.00">update</text>
<polyline fill="none" stroke="black" points="190,-219.5 360,-219.5 "/>
<polyline fill="none" stroke="black" points="190,-195.5 360,-195.5 "/>
<text text-anchor="start" x="198" y="-178.9" font-family="Times Roman,serif" font-size="14.00">_layout</text>
</g>
<!-- PeopleController -->
<g id="node3" class="node"><title>PeopleController</title>
<polyline fill="none" stroke="black" points="34,-190.5 141,-190.5 "/>
<path fill="none" stroke="black" d="M141,-190.5C147,-190.5 153,-196.5 153,-202.5"/>
<polyline fill="none" stroke="black" points="153,-202.5 153,-388.5 "/>
<path fill="none" stroke="black" d="M153,-388.5C153,-394.5 147,-400.5 141,-400.5"/>
<polyline fill="none" stroke="black" points="141,-400.5 34,-400.5 "/>
<path fill="none" stroke="black" d="M34,-400.5C28,-400.5 22,-394.5 22,-388.5"/>
<polyline fill="none" stroke="black" points="22,-388.5 22,-202.5 "/>
<path fill="none" stroke="black" d="M22,-202.5C22,-196.5 28,-190.5 34,-190.5"/>
<text text-anchor="middle" x="87.5" y="-383.9" font-family="Times Roman,serif" font-size="14.00">PeopleController</text>
<polyline fill="none" stroke="black" points="22,-374.5 153,-374.5 "/>
<text text-anchor="start" x="30" y="-357.9" font-family="Times Roman,serif" font-size="14.00">create</text>
<text text-anchor="start" x="30" y="-339.9" font-family="Times Roman,serif" font-size="14.00">destroy</text>
<text text-anchor="start" x="30" y="-321.9" font-family="Times Roman,serif" font-size="14.00">edit</text>
<text text-anchor="start" x="30" y="-303.9" font-family="Times Roman,serif" font-size="14.00">index</text>
<text text-anchor="start" x="30" y="-285.9" font-family="Times Roman,serif" font-size="14.00">new</text>
<text text-anchor="start" x="30" y="-267.9" font-family="Times Roman,serif" font-size="14.00">show</text>
<text text-anchor="start" x="30" y="-249.9" font-family="Times Roman,serif" font-size="14.00">update</text>
<polyline fill="none" stroke="black" points="22,-240.5 153,-240.5 "/>
<polyline fill="none" stroke="black" points="22,-216.5 153,-216.5 "/>
<text text-anchor="start" x="30" y="-199.9" font-family="Times Roman,serif" font-size="14.00">_layout</text>
</g>
<!-- ApplicationController -->
<g id="node4" class="node"><title>ApplicationController</title>
<polyline fill="none" stroke="black" points="13,-1.5 218,-1.5 "/>
<path fill="none" stroke="black" d="M218,-1.5C224,-1.5 230,-7.5 230,-13.5"/>
<polyline fill="none" stroke="black" points="230,-13.5 230,-109.5 "/>
<path fill="none" stroke="black" d="M230,-109.5C230,-115.5 224,-121.5 218,-121.5"/>
<polyline fill="none" stroke="black" points="218,-121.5 13,-121.5 "/>
<path fill="none" stroke="black" d="M13,-121.5C7,-121.5 1,-115.5 1,-109.5"/>
<polyline fill="none" stroke="black" points="1,-109.5 1,-13.5 "/>
<path fill="none" stroke="black" d="M1,-13.5C1,-7.5 7,-1.5 13,-1.5"/>
<text text-anchor="middle" x="115.5" y="-104.9" font-family="Times Roman,serif" font-size="14.00">ApplicationController</text>
<polyline fill="none" stroke="black" points="1,-95.5 230,-95.5 "/>
<text text-anchor="start" x="9" y="-78.9" font-family="Times Roman,serif" font-size="14.00">_one_time_conditions_valid_8?</text>
<polyline fill="none" stroke="black" points="1,-69.5 230,-69.5 "/>
<polyline fill="none" stroke="black" points="1,-45.5 230,-45.5 "/>
<text text-anchor="start" x="9" y="-28.9" font-family="Times Roman,serif" font-size="14.00">_layout</text>
<text text-anchor="start" x="9" y="-10.9" font-family="Times Roman,serif" font-size="14.00">_run_process_action_callbacks</text>
</g>
<!-- EmailTypesController -->
<g id="node5" class="node"><title>EmailTypesController</title>
<polyline fill="none" stroke="black" points="412,-148.5 549,-148.5 "/>
<path fill="none" stroke="black" d="M549,-148.5C555,-148.5 561,-154.5 561,-160.5"/>
<polyline fill="none" stroke="black" points="561,-160.5 561,-346.5 "/>
<path fill="none" stroke="black" d="M561,-346.5C561,-352.5 555,-358.5 549,-358.5"/>
<polyline fill="none" stroke="black" points="549,-358.5 412,-358.5 "/>
<path fill="none" stroke="black" d="M412,-358.5C406,-358.5 400,-352.5 400,-346.5"/>
<polyline fill="none" stroke="black" points="400,-346.5 400,-160.5 "/>
<path fill="none" stroke="black" d="M400,-160.5C400,-154.5 406,-148.5 412,-148.5"/>
<text text-anchor="middle" x="480.5" y="-341.9" font-family="Times Roman,serif" font-size="14.00">EmailTypesController</text>
<polyline fill="none" stroke="black" points="400,-332.5 561,-332.5 "/>
<text text-anchor="start" x="408" y="-315.9" font-family="Times Roman,serif" font-size="14.00">create</text>
<text text-anchor="start" x="408" y="-297.9" font-family="Times Roman,serif" font-size="14.00">destroy</text>
<text text-anchor="start" x="408" y="-279.9" font-family="Times Roman,serif" font-size="14.00">edit</text>
<text text-anchor="start" x="408" y="-261.9" font-family="Times Roman,serif" font-size="14.00">index</text>
<text text-anchor="start" x="408" y="-243.9" font-family="Times Roman,serif" font-size="14.00">new</text>
<text text-anchor="start" x="408" y="-225.9" font-family="Times Roman,serif" font-size="14.00">show</text>
<text text-anchor="start" x="408" y="-207.9" font-family="Times Roman,serif" font-size="14.00">update</text>
<polyline fill="none" stroke="black" points="400,-198.5 561,-198.5 "/>
<polyline fill="none" stroke="black" points="400,-174.5 561,-174.5 "/>
<text text-anchor="start" x="408" y="-157.9" font-family="Times Roman,serif" font-size="14.00">_layout</text>
</g>
<!-- PlaceTypesController -->
<g id="node6" class="node"><title>PlaceTypesController</title>
<polyline fill="none" stroke="black" points="412,-400.5 548,-400.5 "/>
<path fill="none" stroke="black" d="M548,-400.5C554,-400.5 560,-406.5 560,-412.5"/>
<polyline fill="none" stroke="black" points="560,-412.5 560,-598.5 "/>
<path fill="none" stroke="black" d="M560,-598.5C560,-604.5 554,-610.5 548,-610.5"/>
<polyline fill="none" stroke="black" points="548,-610.5 412,-610.5 "/>
<path fill="none" stroke="black" d="M412,-610.5C406,-610.5 400,-604.5 400,-598.5"/>
<polyline fill="none" stroke="black" points="400,-598.5 400,-412.5 "/>
<path fill="none" stroke="black" d="M400,-412.5C400,-406.5 406,-400.5 412,-400.5"/>
<text text-anchor="middle" x="480" y="-593.9" font-family="Times Roman,serif" font-size="14.00">PlaceTypesController</text>
<polyline fill="none" stroke="black" points="400,-584.5 560,-584.5 "/>
<text text-anchor="start" x="408" y="-567.9" font-family="Times Roman,serif" font-size="14.00">create</text>
<text text-anchor="start" x="408" y="-549.9" font-family="Times Roman,serif" font-size="14.00">destroy</text>
<text text-anchor="start" x="408" y="-531.9" font-family="Times Roman,serif" font-size="14.00">edit</text>
<text text-anchor="start" x="408" y="-513.9" font-family="Times Roman,serif" font-size="14.00">index</text>
<text text-anchor="start" x="408" y="-495.9" font-family="Times Roman,serif" font-size="14.00">new</text>
<text text-anchor="start" x="408" y="-477.9" font-family="Times Roman,serif" font-size="14.00">show</text>
<text text-anchor="start" x="408" y="-459.9" font-family="Times Roman,serif" font-size="14.00">update</text>
<polyline fill="none" stroke="black" points="400,-450.5 560,-450.5 "/>
<polyline fill="none" stroke="black" points="400,-426.5 560,-426.5 "/>
<text text-anchor="start" x="408" y="-409.9" font-family="Times Roman,serif" font-size="14.00">_layout</text>
</g>
<!-- EmailsController -->
<g id="node7" class="node"><title>EmailsController</title>
<polyline fill="none" stroke="black" points="244,-568.5 350,-568.5 "/>
<path fill="none" stroke="black" d="M350,-568.5C356,-568.5 362,-574.5 362,-580.5"/>
<polyline fill="none" stroke="black" points="362,-580.5 362,-766.5 "/>
<path fill="none" stroke="black" d="M362,-766.5C362,-772.5 356,-778.5 350,-778.5"/>
<polyline fill="none" stroke="black" points="350,-778.5 244,-778.5 "/>
<path fill="none" stroke="black" d="M244,-778.5C238,-778.5 232,-772.5 232,-766.5"/>
<polyline fill="none" stroke="black" points="232,-766.5 232,-580.5 "/>
<path fill="none" stroke="black" d="M232,-580.5C232,-574.5 238,-568.5 244,-568.5"/>
<text text-anchor="middle" x="297" y="-761.9" font-family="Times Roman,serif" font-size="14.00">EmailsController</text>
<polyline fill="none" stroke="black" points="232,-752.5 362,-752.5 "/>
<text text-anchor="start" x="240" y="-735.9" font-family="Times Roman,serif" font-size="14.00">create</text>
<text text-anchor="start" x="240" y="-717.9" font-family="Times Roman,serif" font-size="14.00">destroy</text>
<text text-anchor="start" x="240" y="-699.9" font-family="Times Roman,serif" font-size="14.00">edit</text>
<text text-anchor="start" x="240" y="-681.9" font-family="Times Roman,serif" font-size="14.00">index</text>
<text text-anchor="start" x="240" y="-663.9" font-family="Times Roman,serif" font-size="14.00">new</text>
<text text-anchor="start" x="240" y="-645.9" font-family="Times Roman,serif" font-size="14.00">show</text>
<text text-anchor="start" x="240" y="-627.9" font-family="Times Roman,serif" font-size="14.00">update</text>
<polyline fill="none" stroke="black" points="232,-618.5 362,-618.5 "/>
<polyline fill="none" stroke="black" points="232,-594.5 362,-594.5 "/>
<text text-anchor="start" x="240" y="-577.9" font-family="Times Roman,serif" font-size="14.00">_layout</text>
</g>
<!-- PlacesController -->
<g id="node8" class="node"><title>PlacesController</title>
<polyline fill="none" stroke="black" points="76,-568.5 180,-568.5 "/>
<path fill="none" stroke="black" d="M180,-568.5C186,-568.5 192,-574.5 192,-580.5"/>
<polyline fill="none" stroke="black" points="192,-580.5 192,-766.5 "/>
<path fill="none" stroke="black" d="M192,-766.5C192,-772.5 186,-778.5 180,-778.5"/>
<polyline fill="none" stroke="black" points="180,-778.5 76,-778.5 "/>
<path fill="none" stroke="black" d="M76,-778.5C70,-778.5 64,-772.5 64,-766.5"/>
<polyline fill="none" stroke="black" points="64,-766.5 64,-580.5 "/>
<path fill="none" stroke="black" d="M64,-580.5C64,-574.5 70,-568.5 76,-568.5"/>
<text text-anchor="middle" x="128" y="-761.9" font-family="Times Roman,serif" font-size="14.00">PlacesController</text>
<polyline fill="none" stroke="black" points="64,-752.5 192,-752.5 "/>
<text text-anchor="start" x="72" y="-735.9" font-family="Times Roman,serif" font-size="14.00">create</text>
<text text-anchor="start" x="72" y="-717.9" font-family="Times Roman,serif" font-size="14.00">destroy</text>
<text text-anchor="start" x="72" y="-699.9" font-family="Times Roman,serif" font-size="14.00">edit</text>
<text text-anchor="start" x="72" y="-681.9" font-family="Times Roman,serif" font-size="14.00">index</text>
<text text-anchor="start" x="72" y="-663.9" font-family="Times Roman,serif" font-size="14.00">new</text>
<text text-anchor="start" x="72" y="-645.9" font-family="Times Roman,serif" font-size="14.00">show</text>
<text text-anchor="start" x="72" y="-627.9" font-family="Times Roman,serif" font-size="14.00">update</text>
<polyline fill="none" stroke="black" points="64,-618.5 192,-618.5 "/>
<polyline fill="none" stroke="black" points="64,-594.5 192,-594.5 "/>
<text text-anchor="start" x="72" y="-577.9" font-family="Times Roman,serif" font-size="14.00">_layout</text>
</g>
</g>
</svg>
