<?xml version="1.0" encoding="UTF-8" standalone="no"?>
<!DOCTYPE svg PUBLIC "-//W3C//DTD SVG 1.1//EN"
 "http://www.w3.org/Graphics/SVG/1.1/DTD/svg11.dtd">
<!-- Generated by graphviz version 2.26.3 (20100126.1600)
 -->
<!-- Title: controllers_diagram Pages: 1 -->
<svg width="739pt" height="701pt"
 viewBox="0.00 0.00 739.00 701.00" xmlns="http://www.w3.org/2000/svg" xmlns:xlink="http://www.w3.org/1999/xlink">
<g id="graph1" class="graph" transform="scale(1 1) rotate(0) translate(4 697)">
<title>controllers_diagram</title>
<polygon fill="white" stroke="white" points="-4,5 -4,-697 736,-697 736,5 -4,5"/>
<!-- _diagram_info -->
<g id="node1" class="node"><title>_diagram_info</title>
<text text-anchor="start" x="369" y="-438.3" font-family="Times Roman,serif" font-size="13.00">Controllers diagram</text>
<text text-anchor="start" x="369" y="-421.3" font-family="Times Roman,serif" font-size="13.00">Date: Aug 03 2011 &#45; 21:48</text>
<text text-anchor="start" x="369" y="-404.3" font-family="Times Roman,serif" font-size="13.00">Migration version: 20110803231238</text>
<text text-anchor="start" x="369" y="-387.3" font-family="Times Roman,serif" font-size="13.00">Generated by RailRoady 1.0.2</text>
<text text-anchor="start" x="369" y="-370.3" font-family="Times Roman,serif" font-size="13.00">http://railroady.prestonlee.com</text>
</g>
<!-- PhonesController -->
<g id="node2" class="node"><title>PhonesController</title>
<polyline fill="none" stroke="black" points="193,-361.5 305,-361.5 "/>
<path fill="none" stroke="black" d="M305,-361.5C311,-361.5 317,-367.5 317,-373.5"/>
<polyline fill="none" stroke="black" points="317,-373.5 317,-559.5 "/>
<path fill="none" stroke="black" d="M317,-559.5C317,-565.5 311,-571.5 305,-571.5"/>
<polyline fill="none" stroke="black" points="305,-571.5 193,-571.5 "/>
<path fill="none" stroke="black" d="M193,-571.5C187,-571.5 181,-565.5 181,-559.5"/>
<polyline fill="none" stroke="black" points="181,-559.5 181,-373.5 "/>
<path fill="none" stroke="black" d="M181,-373.5C181,-367.5 187,-361.5 193,-361.5"/>
<text text-anchor="middle" x="249" y="-554.9" font-family="Times Roman,serif" font-size="14.00">PhonesController</text>
<polyline fill="none" stroke="black" points="181,-545.5 317,-545.5 "/>
<text text-anchor="start" x="189" y="-528.9" font-family="Times Roman,serif" font-size="14.00">create</text>
<text text-anchor="start" x="189" y="-510.9" font-family="Times Roman,serif" font-size="14.00">destroy</text>
<text text-anchor="start" x="189" y="-492.9" font-family="Times Roman,serif" font-size="14.00">edit</text>
<text text-anchor="start" x="189" y="-474.9" font-family="Times Roman,serif" font-size="14.00">index</text>
<text text-anchor="start" x="189" y="-456.9" font-family="Times Roman,serif" font-size="14.00">new</text>
<text text-anchor="start" x="189" y="-438.9" font-family="Times Roman,serif" font-size="14.00">show</text>
<text text-anchor="start" x="189" y="-420.9" font-family="Times Roman,serif" font-size="14.00">update</text>
<polyline fill="none" stroke="black" points="181,-411.5 317,-411.5 "/>
<polyline fill="none" stroke="black" points="181,-387.5 317,-387.5 "/>
<text text-anchor="start" x="189" y="-370.9" font-family="Times Roman,serif" font-size="14.00">_layout</text>
</g>
<!-- PeopleController -->
<g id="node3" class="node"><title>PeopleController</title>
<polyline fill="none" stroke="black" points="13,-481.5 120,-481.5 "/>
<path fill="none" stroke="black" d="M120,-481.5C126,-481.5 132,-487.5 132,-493.5"/>
<polyline fill="none" stroke="black" points="132,-493.5 132,-679.5 "/>
<path fill="none" stroke="black" d="M132,-679.5C132,-685.5 126,-691.5 120,-691.5"/>
<polyline fill="none" stroke="black" points="120,-691.5 13,-691.5 "/>
<path fill="none" stroke="black" d="M13,-691.5C7,-691.5 1,-685.5 1,-679.5"/>
<polyline fill="none" stroke="black" points="1,-679.5 1,-493.5 "/>
<path fill="none" stroke="black" d="M1,-493.5C1,-487.5 7,-481.5 13,-481.5"/>
<text text-anchor="middle" x="66.5" y="-674.9" font-family="Times Roman,serif" font-size="14.00">PeopleController</text>
<polyline fill="none" stroke="black" points="1,-665.5 132,-665.5 "/>
<text text-anchor="start" x="9" y="-648.9" font-family="Times Roman,serif" font-size="14.00">create</text>
<text text-anchor="start" x="9" y="-630.9" font-family="Times Roman,serif" font-size="14.00">destroy</text>
<text text-anchor="start" x="9" y="-612.9" font-family="Times Roman,serif" font-size="14.00">edit</text>
<text text-anchor="start" x="9" y="-594.9" font-family="Times Roman,serif" font-size="14.00">index</text>
<text text-anchor="start" x="9" y="-576.9" font-family="Times Roman,serif" font-size="14.00">new</text>
<text text-anchor="start" x="9" y="-558.9" font-family="Times Roman,serif" font-size="14.00">show</text>
<text text-anchor="start" x="9" y="-540.9" font-family="Times Roman,serif" font-size="14.00">update</text>
<polyline fill="none" stroke="black" points="1,-531.5 132,-531.5 "/>
<polyline fill="none" stroke="black" points="1,-507.5 132,-507.5 "/>
<text text-anchor="start" x="9" y="-490.9" font-family="Times Roman,serif" font-size="14.00">_layout</text>
</g>
<!-- ApplicationController -->
<g id="node4" class="node"><title>ApplicationController</title>
<polyline fill="none" stroke="black" points="513,-501.5 718,-501.5 "/>
<path fill="none" stroke="black" d="M718,-501.5C724,-501.5 730,-507.5 730,-513.5"/>
<polyline fill="none" stroke="black" points="730,-513.5 730,-609.5 "/>
<path fill="none" stroke="black" d="M730,-609.5C730,-615.5 724,-621.5 718,-621.5"/>
<polyline fill="none" stroke="black" points="718,-621.5 513,-621.5 "/>
<path fill="none" stroke="black" d="M513,-621.5C507,-621.5 501,-615.5 501,-609.5"/>
<polyline fill="none" stroke="black" points="501,-609.5 501,-513.5 "/>
<path fill="none" stroke="black" d="M501,-513.5C501,-507.5 507,-501.5 513,-501.5"/>
<text text-anchor="middle" x="615.5" y="-604.9" font-family="Times Roman,serif" font-size="14.00">ApplicationController</text>
<polyline fill="none" stroke="black" points="501,-595.5 730,-595.5 "/>
<text text-anchor="start" x="509" y="-578.9" font-family="Times Roman,serif" font-size="14.00">_one_time_conditions_valid_8?</text>
<polyline fill="none" stroke="black" points="501,-569.5 730,-569.5 "/>
<polyline fill="none" stroke="black" points="501,-545.5 730,-545.5 "/>
<text text-anchor="start" x="509" y="-528.9" font-family="Times Roman,serif" font-size="14.00">_layout</text>
<text text-anchor="start" x="509" y="-510.9" font-family="Times Roman,serif" font-size="14.00">_run_process_action_callbacks</text>
</g>
<!-- EmailTypesController -->
<g id="node5" class="node"><title>EmailTypesController</title>
<polyline fill="none" stroke="black" points="173,-121.5 310,-121.5 "/>
<path fill="none" stroke="black" d="M310,-121.5C316,-121.5 322,-127.5 322,-133.5"/>
<polyline fill="none" stroke="black" points="322,-133.5 322,-319.5 "/>
<path fill="none" stroke="black" d="M322,-319.5C322,-325.5 316,-331.5 310,-331.5"/>
<polyline fill="none" stroke="black" points="310,-331.5 173,-331.5 "/>
<path fill="none" stroke="black" d="M173,-331.5C167,-331.5 161,-325.5 161,-319.5"/>
<polyline fill="none" stroke="black" points="161,-319.5 161,-133.5 "/>
<path fill="none" stroke="black" d="M161,-133.5C161,-127.5 167,-121.5 173,-121.5"/>
<text text-anchor="middle" x="241.5" y="-314.9" font-family="Times Roman,serif" font-size="14.00">EmailTypesController</text>
<polyline fill="none" stroke="black" points="161,-305.5 322,-305.5 "/>
<text text-anchor="start" x="169" y="-288.9" font-family="Times Roman,serif" font-size="14.00">create</text>
<text text-anchor="start" x="169" y="-270.9" font-family="Times Roman,serif" font-size="14.00">destroy</text>
<text text-anchor="start" x="169" y="-252.9" font-family="Times Roman,serif" font-size="14.00">edit</text>
<text text-anchor="start" x="169" y="-234.9" font-family="Times Roman,serif" font-size="14.00">index</text>
<text text-anchor="start" x="169" y="-216.9" font-family="Times Roman,serif" font-size="14.00">new</text>
<text text-anchor="start" x="169" y="-198.9" font-family="Times Roman,serif" font-size="14.00">show</text>
<text text-anchor="start" x="169" y="-180.9" font-family="Times Roman,serif" font-size="14.00">update</text>
<polyline fill="none" stroke="black" points="161,-171.5 322,-171.5 "/>
<polyline fill="none" stroke="black" points="161,-147.5 322,-147.5 "/>
<text text-anchor="start" x="169" y="-130.9" font-family="Times Roman,serif" font-size="14.00">_layout</text>
</g>
<!-- AdressesController -->
<g id="node6" class="node"><title>AdressesController</title>
<polyline fill="none" stroke="black" points="373,-121.5 495,-121.5 "/>
<path fill="none" stroke="black" d="M495,-121.5C501,-121.5 507,-127.5 507,-133.5"/>
<polyline fill="none" stroke="black" points="507,-133.5 507,-319.5 "/>
<path fill="none" stroke="black" d="M507,-319.5C507,-325.5 501,-331.5 495,-331.5"/>
<polyline fill="none" stroke="black" points="495,-331.5 373,-331.5 "/>
<path fill="none" stroke="black" d="M373,-331.5C367,-331.5 361,-325.5 361,-319.5"/>
<polyline fill="none" stroke="black" points="361,-319.5 361,-133.5 "/>
<path fill="none" stroke="black" d="M361,-133.5C361,-127.5 367,-121.5 373,-121.5"/>
<text text-anchor="middle" x="434" y="-314.9" font-family="Times Roman,serif" font-size="14.00">AdressesController</text>
<polyline fill="none" stroke="black" points="361,-305.5 507,-305.5 "/>
<text text-anchor="start" x="369" y="-288.9" font-family="Times Roman,serif" font-size="14.00">create</text>
<text text-anchor="start" x="369" y="-270.9" font-family="Times Roman,serif" font-size="14.00">destroy</text>
<text text-anchor="start" x="369" y="-252.9" font-family="Times Roman,serif" font-size="14.00">edit</text>
<text text-anchor="start" x="369" y="-234.9" font-family="Times Roman,serif" font-size="14.00">index</text>
<text text-anchor="start" x="369" y="-216.9" font-family="Times Roman,serif" font-size="14.00">new</text>
<text text-anchor="start" x="369" y="-198.9" font-family="Times Roman,serif" font-size="14.00">show</text>
<text text-anchor="start" x="369" y="-180.9" font-family="Times Roman,serif" font-size="14.00">update</text>
<polyline fill="none" stroke="black" points="361,-171.5 507,-171.5 "/>
<polyline fill="none" stroke="black" points="361,-147.5 507,-147.5 "/>
<text text-anchor="start" x="369" y="-130.9" font-family="Times Roman,serif" font-size="14.00">_layout</text>
</g>
<!-- EmailsController -->
<g id="node7" class="node"><title>EmailsController</title>
<polyline fill="none" stroke="black" points="13,-241.5 119,-241.5 "/>
<path fill="none" stroke="black" d="M119,-241.5C125,-241.5 131,-247.5 131,-253.5"/>
<polyline fill="none" stroke="black" points="131,-253.5 131,-439.5 "/>
<path fill="none" stroke="black" d="M131,-439.5C131,-445.5 125,-451.5 119,-451.5"/>
<polyline fill="none" stroke="black" points="119,-451.5 13,-451.5 "/>
<path fill="none" stroke="black" d="M13,-451.5C7,-451.5 1,-445.5 1,-439.5"/>
<polyline fill="none" stroke="black" points="1,-439.5 1,-253.5 "/>
<path fill="none" stroke="black" d="M1,-253.5C1,-247.5 7,-241.5 13,-241.5"/>
<text text-anchor="middle" x="66" y="-434.9" font-family="Times Roman,serif" font-size="14.00">EmailsController</text>
<polyline fill="none" stroke="black" points="1,-425.5 131,-425.5 "/>
<text text-anchor="start" x="9" y="-408.9" font-family="Times Roman,serif" font-size="14.00">create</text>
<text text-anchor="start" x="9" y="-390.9" font-family="Times Roman,serif" font-size="14.00">destroy</text>
<text text-anchor="start" x="9" y="-372.9" font-family="Times Roman,serif" font-size="14.00">edit</text>
<text text-anchor="start" x="9" y="-354.9" font-family="Times Roman,serif" font-size="14.00">index</text>
<text text-anchor="start" x="9" y="-336.9" font-family="Times Roman,serif" font-size="14.00">new</text>
<text text-anchor="start" x="9" y="-318.9" font-family="Times Roman,serif" font-size="14.00">show</text>
<text text-anchor="start" x="9" y="-300.9" font-family="Times Roman,serif" font-size="14.00">update</text>
<polyline fill="none" stroke="black" points="1,-291.5 131,-291.5 "/>
<polyline fill="none" stroke="black" points="1,-267.5 131,-267.5 "/>
<text text-anchor="start" x="9" y="-250.9" font-family="Times Roman,serif" font-size="14.00">_layout</text>
</g>
<!-- PlacesController -->
<g id="node8" class="node"><title>PlacesController</title>
<polyline fill="none" stroke="black" points="13,-1.5 117,-1.5 "/>
<path fill="none" stroke="black" d="M117,-1.5C123,-1.5 129,-7.5 129,-13.5"/>
<polyline fill="none" stroke="black" points="129,-13.5 129,-199.5 "/>
<path fill="none" stroke="black" d="M129,-199.5C129,-205.5 123,-211.5 117,-211.5"/>
<polyline fill="none" stroke="black" points="117,-211.5 13,-211.5 "/>
<path fill="none" stroke="black" d="M13,-211.5C7,-211.5 1,-205.5 1,-199.5"/>
<polyline fill="none" stroke="black" points="1,-199.5 1,-13.5 "/>
<path fill="none" stroke="black" d="M1,-13.5C1,-7.5 7,-1.5 13,-1.5"/>
<text text-anchor="middle" x="65" y="-194.9" font-family="Times Roman,serif" font-size="14.00">PlacesController</text>
<polyline fill="none" stroke="black" points="1,-185.5 129,-185.5 "/>
<text text-anchor="start" x="9" y="-168.9" font-family="Times Roman,serif" font-size="14.00">create</text>
<text text-anchor="start" x="9" y="-150.9" font-family="Times Roman,serif" font-size="14.00">destroy</text>
<text text-anchor="start" x="9" y="-132.9" font-family="Times Roman,serif" font-size="14.00">edit</text>
<text text-anchor="start" x="9" y="-114.9" font-family="Times Roman,serif" font-size="14.00">index</text>
<text text-anchor="start" x="9" y="-96.9" font-family="Times Roman,serif" font-size="14.00">new</text>
<text text-anchor="start" x="9" y="-78.9" font-family="Times Roman,serif" font-size="14.00">show</text>
<text text-anchor="start" x="9" y="-60.9" font-family="Times Roman,serif" font-size="14.00">update</text>
<polyline fill="none" stroke="black" points="1,-51.5 129,-51.5 "/>
<polyline fill="none" stroke="black" points="1,-27.5 129,-27.5 "/>
<text text-anchor="start" x="9" y="-10.9" font-family="Times Roman,serif" font-size="14.00">_layout</text>
</g>
</g>
</svg>
