<?xml version="1.0" encoding="UTF-8" standalone="no"?>
<!DOCTYPE svg PUBLIC "-//W3C//DTD SVG 1.1//EN"
 "http://www.w3.org/Graphics/SVG/1.1/DTD/svg11.dtd">
<!-- Generated by graphviz version 2.26.3 (20100126.1600)
 -->
<!-- Title: controllers_diagram Pages: 1 -->
<svg width="1335pt" height="1196pt"
 viewBox="0.00 0.00 1335.00 1196.00" xmlns="http://www.w3.org/2000/svg" xmlns:xlink="http://www.w3.org/1999/xlink">
<g id="graph1" class="graph" transform="scale(1 1) rotate(0) translate(4 1192)">
<title>controllers_diagram</title>
<polygon fill="white" stroke="white" points="-4,5 -4,-1192 1332,-1192 1332,5 -4,5"/>
<!-- _diagram_info -->
<g id="node1" class="node"><title>_diagram_info</title>
<text text-anchor="start" x="1084" y="-428.3" font-family="Times Roman,serif" font-size="13.00">Controllers diagram</text>
<text text-anchor="start" x="1084" y="-411.3" font-family="Times Roman,serif" font-size="13.00">Date: Aug 14 2011 &#45; 22:55</text>
<text text-anchor="start" x="1084" y="-394.3" font-family="Times Roman,serif" font-size="13.00">Migration version: 20110815014628</text>
<text text-anchor="start" x="1084" y="-377.3" font-family="Times Roman,serif" font-size="13.00">Generated by RailRoady 1.0.2</text>
<text text-anchor="start" x="1084" y="-360.3" font-family="Times Roman,serif" font-size="13.00">http://railroady.prestonlee.com</text>
</g>
<!-- Taxe::ValuesController -->
<g id="node2" class="node"><title>Taxe::ValuesController</title>
<polyline fill="none" stroke="black" points="163,-726.5 309,-726.5 "/>
<path fill="none" stroke="black" d="M309,-726.5C315,-726.5 321,-732.5 321,-738.5"/>
<polyline fill="none" stroke="black" points="321,-738.5 321,-924.5 "/>
<path fill="none" stroke="black" d="M321,-924.5C321,-930.5 315,-936.5 309,-936.5"/>
<polyline fill="none" stroke="black" points="309,-936.5 163,-936.5 "/>
<path fill="none" stroke="black" d="M163,-936.5C157,-936.5 151,-930.5 151,-924.5"/>
<polyline fill="none" stroke="black" points="151,-924.5 151,-738.5 "/>
<path fill="none" stroke="black" d="M151,-738.5C151,-732.5 157,-726.5 163,-726.5"/>
<text text-anchor="middle" x="236" y="-919.9" font-family="Times Roman,serif" font-size="14.00">Taxe::ValuesController</text>
<polyline fill="none" stroke="black" points="151,-910.5 321,-910.5 "/>
<text text-anchor="start" x="159" y="-893.9" font-family="Times Roman,serif" font-size="14.00">create</text>
<text text-anchor="start" x="159" y="-875.9" font-family="Times Roman,serif" font-size="14.00">destroy</text>
<text text-anchor="start" x="159" y="-857.9" font-family="Times Roman,serif" font-size="14.00">edit</text>
<text text-anchor="start" x="159" y="-839.9" font-family="Times Roman,serif" font-size="14.00">index</text>
<text text-anchor="start" x="159" y="-821.9" font-family="Times Roman,serif" font-size="14.00">new</text>
<text text-anchor="start" x="159" y="-803.9" font-family="Times Roman,serif" font-size="14.00">show</text>
<text text-anchor="start" x="159" y="-785.9" font-family="Times Roman,serif" font-size="14.00">update</text>
<polyline fill="none" stroke="black" points="151,-776.5 321,-776.5 "/>
<polyline fill="none" stroke="black" points="151,-752.5 321,-752.5 "/>
<text text-anchor="start" x="159" y="-735.9" font-family="Times Roman,serif" font-size="14.00">_layout</text>
</g>
<!-- Taxe::GroupsController -->
<g id="node3" class="node"><title>Taxe::GroupsController</title>
<polyline fill="none" stroke="black" points="713,-101.5 864,-101.5 "/>
<path fill="none" stroke="black" d="M864,-101.5C870,-101.5 876,-107.5 876,-113.5"/>
<polyline fill="none" stroke="black" points="876,-113.5 876,-299.5 "/>
<path fill="none" stroke="black" d="M876,-299.5C876,-305.5 870,-311.5 864,-311.5"/>
<polyline fill="none" stroke="black" points="864,-311.5 713,-311.5 "/>
<path fill="none" stroke="black" d="M713,-311.5C707,-311.5 701,-305.5 701,-299.5"/>
<polyline fill="none" stroke="black" points="701,-299.5 701,-113.5 "/>
<path fill="none" stroke="black" d="M701,-113.5C701,-107.5 707,-101.5 713,-101.5"/>
<text text-anchor="middle" x="788.5" y="-294.9" font-family="Times Roman,serif" font-size="14.00">Taxe::GroupsController</text>
<polyline fill="none" stroke="black" points="701,-285.5 876,-285.5 "/>
<text text-anchor="start" x="709" y="-268.9" font-family="Times Roman,serif" font-size="14.00">create</text>
<text text-anchor="start" x="709" y="-250.9" font-family="Times Roman,serif" font-size="14.00">destroy</text>
<text text-anchor="start" x="709" y="-232.9" font-family="Times Roman,serif" font-size="14.00">edit</text>
<text text-anchor="start" x="709" y="-214.9" font-family="Times Roman,serif" font-size="14.00">index</text>
<text text-anchor="start" x="709" y="-196.9" font-family="Times Roman,serif" font-size="14.00">new</text>
<text text-anchor="start" x="709" y="-178.9" font-family="Times Roman,serif" font-size="14.00">show</text>
<text text-anchor="start" x="709" y="-160.9" font-family="Times Roman,serif" font-size="14.00">update</text>
<polyline fill="none" stroke="black" points="701,-151.5 876,-151.5 "/>
<polyline fill="none" stroke="black" points="701,-127.5 876,-127.5 "/>
<text text-anchor="start" x="709" y="-110.9" font-family="Times Roman,serif" font-size="14.00">_layout</text>
</g>
<!-- Taxe::TypesController -->
<g id="node4" class="node"><title>Taxe::TypesController</title>
<polyline fill="none" stroke="black" points="938,-101.5 1078,-101.5 "/>
<path fill="none" stroke="black" d="M1078,-101.5C1084,-101.5 1090,-107.5 1090,-113.5"/>
<polyline fill="none" stroke="black" points="1090,-113.5 1090,-299.5 "/>
<path fill="none" stroke="black" d="M1090,-299.5C1090,-305.5 1084,-311.5 1078,-311.5"/>
<polyline fill="none" stroke="black" points="1078,-311.5 938,-311.5 "/>
<path fill="none" stroke="black" d="M938,-311.5C932,-311.5 926,-305.5 926,-299.5"/>
<polyline fill="none" stroke="black" points="926,-299.5 926,-113.5 "/>
<path fill="none" stroke="black" d="M926,-113.5C926,-107.5 932,-101.5 938,-101.5"/>
<text text-anchor="middle" x="1008" y="-294.9" font-family="Times Roman,serif" font-size="14.00">Taxe::TypesController</text>
<polyline fill="none" stroke="black" points="926,-285.5 1090,-285.5 "/>
<text text-anchor="start" x="934" y="-268.9" font-family="Times Roman,serif" font-size="14.00">create</text>
<text text-anchor="start" x="934" y="-250.9" font-family="Times Roman,serif" font-size="14.00">destroy</text>
<text text-anchor="start" x="934" y="-232.9" font-family="Times Roman,serif" font-size="14.00">edit</text>
<text text-anchor="start" x="934" y="-214.9" font-family="Times Roman,serif" font-size="14.00">index</text>
<text text-anchor="start" x="934" y="-196.9" font-family="Times Roman,serif" font-size="14.00">new</text>
<text text-anchor="start" x="934" y="-178.9" font-family="Times Roman,serif" font-size="14.00">show</text>
<text text-anchor="start" x="934" y="-160.9" font-family="Times Roman,serif" font-size="14.00">update</text>
<polyline fill="none" stroke="black" points="926,-151.5 1090,-151.5 "/>
<polyline fill="none" stroke="black" points="926,-127.5 1090,-127.5 "/>
<text text-anchor="start" x="934" y="-110.9" font-family="Times Roman,serif" font-size="14.00">_layout</text>
</g>
<!-- ApplicationController -->
<g id="node5" class="node"><title>ApplicationController</title>
<polyline fill="none" stroke="black" points="13,-1.5 218,-1.5 "/>
<path fill="none" stroke="black" d="M218,-1.5C224,-1.5 230,-7.5 230,-13.5"/>
<polyline fill="none" stroke="black" points="230,-13.5 230,-109.5 "/>
<path fill="none" stroke="black" d="M230,-109.5C230,-115.5 224,-121.5 218,-121.5"/>
<polyline fill="none" stroke="black" points="218,-121.5 13,-121.5 "/>
<path fill="none" stroke="black" d="M13,-121.5C7,-121.5 1,-115.5 1,-109.5"/>
<polyline fill="none" stroke="black" points="1,-109.5 1,-13.5 "/>
<path fill="none" stroke="black" d="M1,-13.5C1,-7.5 7,-1.5 13,-1.5"/>
<text text-anchor="middle" x="115.5" y="-104.9" font-family="Times Roman,serif" font-size="14.00">ApplicationController</text>
<polyline fill="none" stroke="black" points="1,-95.5 230,-95.5 "/>
<text text-anchor="start" x="9" y="-78.9" font-family="Times Roman,serif" font-size="14.00">_one_time_conditions_valid_8?</text>
<polyline fill="none" stroke="black" points="1,-69.5 230,-69.5 "/>
<polyline fill="none" stroke="black" points="1,-45.5 230,-45.5 "/>
<text text-anchor="start" x="9" y="-28.9" font-family="Times Roman,serif" font-size="14.00">_layout</text>
<text text-anchor="start" x="9" y="-10.9" font-family="Times Roman,serif" font-size="14.00">_run_process_action_callbacks</text>
</g>
<!-- Transaction::RecordsController -->
<g id="node6" class="node"><title>Transaction::RecordsController</title>
<polyline fill="none" stroke="black" points="188,-176.5 391,-176.5 "/>
<path fill="none" stroke="black" d="M391,-176.5C397,-176.5 403,-182.5 403,-188.5"/>
<polyline fill="none" stroke="black" points="403,-188.5 403,-374.5 "/>
<path fill="none" stroke="black" d="M403,-374.5C403,-380.5 397,-386.5 391,-386.5"/>
<polyline fill="none" stroke="black" points="391,-386.5 188,-386.5 "/>
<path fill="none" stroke="black" d="M188,-386.5C182,-386.5 176,-380.5 176,-374.5"/>
<polyline fill="none" stroke="black" points="176,-374.5 176,-188.5 "/>
<path fill="none" stroke="black" d="M176,-188.5C176,-182.5 182,-176.5 188,-176.5"/>
<text text-anchor="middle" x="289.5" y="-369.9" font-family="Times Roman,serif" font-size="14.00">Transaction::RecordsController</text>
<polyline fill="none" stroke="black" points="176,-360.5 403,-360.5 "/>
<text text-anchor="start" x="184" y="-343.9" font-family="Times Roman,serif" font-size="14.00">create</text>
<text text-anchor="start" x="184" y="-325.9" font-family="Times Roman,serif" font-size="14.00">destroy</text>
<text text-anchor="start" x="184" y="-307.9" font-family="Times Roman,serif" font-size="14.00">edit</text>
<text text-anchor="start" x="184" y="-289.9" font-family="Times Roman,serif" font-size="14.00">index</text>
<text text-anchor="start" x="184" y="-271.9" font-family="Times Roman,serif" font-size="14.00">new</text>
<text text-anchor="start" x="184" y="-253.9" font-family="Times Roman,serif" font-size="14.00">show</text>
<text text-anchor="start" x="184" y="-235.9" font-family="Times Roman,serif" font-size="14.00">update</text>
<polyline fill="none" stroke="black" points="176,-226.5 403,-226.5 "/>
<polyline fill="none" stroke="black" points="176,-202.5 403,-202.5 "/>
<text text-anchor="start" x="184" y="-185.9" font-family="Times Roman,serif" font-size="14.00">_layout</text>
</g>
<!-- Transaction::TaxesController -->
<g id="node7" class="node"><title>Transaction::TaxesController</title>
<polyline fill="none" stroke="black" points="688,-926.5 875,-926.5 "/>
<path fill="none" stroke="black" d="M875,-926.5C881,-926.5 887,-932.5 887,-938.5"/>
<polyline fill="none" stroke="black" points="887,-938.5 887,-1124.5 "/>
<path fill="none" stroke="black" d="M887,-1124.5C887,-1130.5 881,-1136.5 875,-1136.5"/>
<polyline fill="none" stroke="black" points="875,-1136.5 688,-1136.5 "/>
<path fill="none" stroke="black" d="M688,-1136.5C682,-1136.5 676,-1130.5 676,-1124.5"/>
<polyline fill="none" stroke="black" points="676,-1124.5 676,-938.5 "/>
<path fill="none" stroke="black" d="M676,-938.5C676,-932.5 682,-926.5 688,-926.5"/>
<text text-anchor="middle" x="781.5" y="-1119.9" font-family="Times Roman,serif" font-size="14.00">Transaction::TaxesController</text>
<polyline fill="none" stroke="black" points="676,-1110.5 887,-1110.5 "/>
<text text-anchor="start" x="684" y="-1093.9" font-family="Times Roman,serif" font-size="14.00">create</text>
<text text-anchor="start" x="684" y="-1075.9" font-family="Times Roman,serif" font-size="14.00">destroy</text>
<text text-anchor="start" x="684" y="-1057.9" font-family="Times Roman,serif" font-size="14.00">edit</text>
<text text-anchor="start" x="684" y="-1039.9" font-family="Times Roman,serif" font-size="14.00">index</text>
<text text-anchor="start" x="684" y="-1021.9" font-family="Times Roman,serif" font-size="14.00">new</text>
<text text-anchor="start" x="684" y="-1003.9" font-family="Times Roman,serif" font-size="14.00">show</text>
<text text-anchor="start" x="684" y="-985.9" font-family="Times Roman,serif" font-size="14.00">update</text>
<polyline fill="none" stroke="black" points="676,-976.5 887,-976.5 "/>
<polyline fill="none" stroke="black" points="676,-952.5 887,-952.5 "/>
<text text-anchor="start" x="684" y="-935.9" font-family="Times Roman,serif" font-size="14.00">_layout</text>
</g>
<!-- Transaction::ParticipantsController -->
<g id="node8" class="node"><title>Transaction::ParticipantsController</title>
<polyline fill="none" stroke="black" points="388,-726.5 618,-726.5 "/>
<path fill="none" stroke="black" d="M618,-726.5C624,-726.5 630,-732.5 630,-738.5"/>
<polyline fill="none" stroke="black" points="630,-738.5 630,-924.5 "/>
<path fill="none" stroke="black" d="M630,-924.5C630,-930.5 624,-936.5 618,-936.5"/>
<polyline fill="none" stroke="black" points="618,-936.5 388,-936.5 "/>
<path fill="none" stroke="black" d="M388,-936.5C382,-936.5 376,-930.5 376,-924.5"/>
<polyline fill="none" stroke="black" points="376,-924.5 376,-738.5 "/>
<path fill="none" stroke="black" d="M376,-738.5C376,-732.5 382,-726.5 388,-726.5"/>
<text text-anchor="middle" x="503" y="-919.9" font-family="Times Roman,serif" font-size="14.00">Transaction::ParticipantsController</text>
<polyline fill="none" stroke="black" points="376,-910.5 630,-910.5 "/>
<text text-anchor="start" x="384" y="-893.9" font-family="Times Roman,serif" font-size="14.00">create</text>
<text text-anchor="start" x="384" y="-875.9" font-family="Times Roman,serif" font-size="14.00">destroy</text>
<text text-anchor="start" x="384" y="-857.9" font-family="Times Roman,serif" font-size="14.00">edit</text>
<text text-anchor="start" x="384" y="-839.9" font-family="Times Roman,serif" font-size="14.00">index</text>
<text text-anchor="start" x="384" y="-821.9" font-family="Times Roman,serif" font-size="14.00">new</text>
<text text-anchor="start" x="384" y="-803.9" font-family="Times Roman,serif" font-size="14.00">show</text>
<text text-anchor="start" x="384" y="-785.9" font-family="Times Roman,serif" font-size="14.00">update</text>
<polyline fill="none" stroke="black" points="376,-776.5 630,-776.5 "/>
<polyline fill="none" stroke="black" points="376,-752.5 630,-752.5 "/>
<text text-anchor="start" x="384" y="-735.9" font-family="Times Roman,serif" font-size="14.00">_layout</text>
</g>
<!-- Transaction::FinanciersController -->
<g id="node9" class="node"><title>Transaction::FinanciersController</title>
<polyline fill="none" stroke="black" points="938,-926.5 1156,-926.5 "/>
<path fill="none" stroke="black" d="M1156,-926.5C1162,-926.5 1168,-932.5 1168,-938.5"/>
<polyline fill="none" stroke="black" points="1168,-938.5 1168,-1124.5 "/>
<path fill="none" stroke="black" d="M1168,-1124.5C1168,-1130.5 1162,-1136.5 1156,-1136.5"/>
<polyline fill="none" stroke="black" points="1156,-1136.5 938,-1136.5 "/>
<path fill="none" stroke="black" d="M938,-1136.5C932,-1136.5 926,-1130.5 926,-1124.5"/>
<polyline fill="none" stroke="black" points="926,-1124.5 926,-938.5 "/>
<path fill="none" stroke="black" d="M926,-938.5C926,-932.5 932,-926.5 938,-926.5"/>
<text text-anchor="middle" x="1047" y="-1119.9" font-family="Times Roman,serif" font-size="14.00">Transaction::FinanciersController</text>
<polyline fill="none" stroke="black" points="926,-1110.5 1168,-1110.5 "/>
<text text-anchor="start" x="934" y="-1093.9" font-family="Times Roman,serif" font-size="14.00">create</text>
<text text-anchor="start" x="934" y="-1075.9" font-family="Times Roman,serif" font-size="14.00">destroy</text>
<text text-anchor="start" x="934" y="-1057.9" font-family="Times Roman,serif" font-size="14.00">edit</text>
<text text-anchor="start" x="934" y="-1039.9" font-family="Times Roman,serif" font-size="14.00">index</text>
<text text-anchor="start" x="934" y="-1021.9" font-family="Times Roman,serif" font-size="14.00">new</text>
<text text-anchor="start" x="934" y="-1003.9" font-family="Times Roman,serif" font-size="14.00">show</text>
<text text-anchor="start" x="934" y="-985.9" font-family="Times Roman,serif" font-size="14.00">update</text>
<polyline fill="none" stroke="black" points="926,-976.5 1168,-976.5 "/>
<polyline fill="none" stroke="black" points="926,-952.5 1168,-952.5 "/>
<text text-anchor="start" x="934" y="-935.9" font-family="Times Roman,serif" font-size="14.00">_layout</text>
</g>
<!-- Address::PlacesController -->
<g id="node10" class="node"><title>Address::PlacesController</title>
<polyline fill="none" stroke="black" points="163,-476.5 330,-476.5 "/>
<path fill="none" stroke="black" d="M330,-476.5C336,-476.5 342,-482.5 342,-488.5"/>
<polyline fill="none" stroke="black" points="342,-488.5 342,-674.5 "/>
<path fill="none" stroke="black" d="M342,-674.5C342,-680.5 336,-686.5 330,-686.5"/>
<polyline fill="none" stroke="black" points="330,-686.5 163,-686.5 "/>
<path fill="none" stroke="black" d="M163,-686.5C157,-686.5 151,-680.5 151,-674.5"/>
<polyline fill="none" stroke="black" points="151,-674.5 151,-488.5 "/>
<path fill="none" stroke="black" d="M151,-488.5C151,-482.5 157,-476.5 163,-476.5"/>
<text text-anchor="middle" x="246.5" y="-669.9" font-family="Times Roman,serif" font-size="14.00">Address::PlacesController</text>
<polyline fill="none" stroke="black" points="151,-660.5 342,-660.5 "/>
<text text-anchor="start" x="159" y="-643.9" font-family="Times Roman,serif" font-size="14.00">create</text>
<text text-anchor="start" x="159" y="-625.9" font-family="Times Roman,serif" font-size="14.00">destroy</text>
<text text-anchor="start" x="159" y="-607.9" font-family="Times Roman,serif" font-size="14.00">edit</text>
<text text-anchor="start" x="159" y="-589.9" font-family="Times Roman,serif" font-size="14.00">index</text>
<text text-anchor="start" x="159" y="-571.9" font-family="Times Roman,serif" font-size="14.00">new</text>
<text text-anchor="start" x="159" y="-553.9" font-family="Times Roman,serif" font-size="14.00">show</text>
<text text-anchor="start" x="159" y="-535.9" font-family="Times Roman,serif" font-size="14.00">update</text>
<polyline fill="none" stroke="black" points="151,-526.5 342,-526.5 "/>
<polyline fill="none" stroke="black" points="151,-502.5 342,-502.5 "/>
<text text-anchor="start" x="159" y="-485.9" font-family="Times Roman,serif" font-size="14.00">_layout</text>
</g>
<!-- Financier::NotesController -->
<g id="node11" class="node"><title>Financier::NotesController</title>
<polyline fill="none" stroke="black" points="438,-976.5 611,-976.5 "/>
<path fill="none" stroke="black" d="M611,-976.5C617,-976.5 623,-982.5 623,-988.5"/>
<polyline fill="none" stroke="black" points="623,-988.5 623,-1174.5 "/>
<path fill="none" stroke="black" d="M623,-1174.5C623,-1180.5 617,-1186.5 611,-1186.5"/>
<polyline fill="none" stroke="black" points="611,-1186.5 438,-1186.5 "/>
<path fill="none" stroke="black" d="M438,-1186.5C432,-1186.5 426,-1180.5 426,-1174.5"/>
<polyline fill="none" stroke="black" points="426,-1174.5 426,-988.5 "/>
<path fill="none" stroke="black" d="M426,-988.5C426,-982.5 432,-976.5 438,-976.5"/>
<text text-anchor="middle" x="524.5" y="-1169.9" font-family="Times Roman,serif" font-size="14.00">Financier::NotesController</text>
<polyline fill="none" stroke="black" points="426,-1160.5 623,-1160.5 "/>
<text text-anchor="start" x="434" y="-1143.9" font-family="Times Roman,serif" font-size="14.00">create</text>
<text text-anchor="start" x="434" y="-1125.9" font-family="Times Roman,serif" font-size="14.00">destroy</text>
<text text-anchor="start" x="434" y="-1107.9" font-family="Times Roman,serif" font-size="14.00">edit</text>
<text text-anchor="start" x="434" y="-1089.9" font-family="Times Roman,serif" font-size="14.00">index</text>
<text text-anchor="start" x="434" y="-1071.9" font-family="Times Roman,serif" font-size="14.00">new</text>
<text text-anchor="start" x="434" y="-1053.9" font-family="Times Roman,serif" font-size="14.00">show</text>
<text text-anchor="start" x="434" y="-1035.9" font-family="Times Roman,serif" font-size="14.00">update</text>
<polyline fill="none" stroke="black" points="426,-1026.5 623,-1026.5 "/>
<polyline fill="none" stroke="black" points="426,-1002.5 623,-1002.5 "/>
<text text-anchor="start" x="434" y="-985.9" font-family="Times Roman,serif" font-size="14.00">_layout</text>
</g>
<!-- Participant::PeopleController -->
<g id="node12" class="node"><title>Participant::PeopleController</title>
<polyline fill="none" stroke="black" points="463,-176.5 653,-176.5 "/>
<path fill="none" stroke="black" d="M653,-176.5C659,-176.5 665,-182.5 665,-188.5"/>
<polyline fill="none" stroke="black" points="665,-188.5 665,-374.5 "/>
<path fill="none" stroke="black" d="M665,-374.5C665,-380.5 659,-386.5 653,-386.5"/>
<polyline fill="none" stroke="black" points="653,-386.5 463,-386.5 "/>
<path fill="none" stroke="black" d="M463,-386.5C457,-386.5 451,-380.5 451,-374.5"/>
<polyline fill="none" stroke="black" points="451,-374.5 451,-188.5 "/>
<path fill="none" stroke="black" d="M451,-188.5C451,-182.5 457,-176.5 463,-176.5"/>
<text text-anchor="middle" x="558" y="-369.9" font-family="Times Roman,serif" font-size="14.00">Participant::PeopleController</text>
<polyline fill="none" stroke="black" points="451,-360.5 665,-360.5 "/>
<text text-anchor="start" x="459" y="-343.9" font-family="Times Roman,serif" font-size="14.00">create</text>
<text text-anchor="start" x="459" y="-325.9" font-family="Times Roman,serif" font-size="14.00">destroy</text>
<text text-anchor="start" x="459" y="-307.9" font-family="Times Roman,serif" font-size="14.00">edit</text>
<text text-anchor="start" x="459" y="-289.9" font-family="Times Roman,serif" font-size="14.00">index</text>
<text text-anchor="start" x="459" y="-271.9" font-family="Times Roman,serif" font-size="14.00">new</text>
<text text-anchor="start" x="459" y="-253.9" font-family="Times Roman,serif" font-size="14.00">show</text>
<text text-anchor="start" x="459" y="-235.9" font-family="Times Roman,serif" font-size="14.00">update</text>
<polyline fill="none" stroke="black" points="451,-226.5 665,-226.5 "/>
<polyline fill="none" stroke="black" points="451,-202.5 665,-202.5 "/>
<text text-anchor="start" x="459" y="-185.9" font-family="Times Roman,serif" font-size="14.00">_layout</text>
</g>
<!-- Participant::Contact::AddressesController -->
<g id="node13" class="node"><title>Participant::Contact::AddressesController</title>
<polyline fill="none" stroke="black" points="413,-426.5 690,-426.5 "/>
<path fill="none" stroke="black" d="M690,-426.5C696,-426.5 702,-432.5 702,-438.5"/>
<polyline fill="none" stroke="black" points="702,-438.5 702,-624.5 "/>
<path fill="none" stroke="black" d="M702,-624.5C702,-630.5 696,-636.5 690,-636.5"/>
<polyline fill="none" stroke="black" points="690,-636.5 413,-636.5 "/>
<path fill="none" stroke="black" d="M413,-636.5C407,-636.5 401,-630.5 401,-624.5"/>
<polyline fill="none" stroke="black" points="401,-624.5 401,-438.5 "/>
<path fill="none" stroke="black" d="M401,-438.5C401,-432.5 407,-426.5 413,-426.5"/>
<text text-anchor="middle" x="551.5" y="-619.9" font-family="Times Roman,serif" font-size="14.00">Participant::Contact::AddressesController</text>
<polyline fill="none" stroke="black" points="401,-610.5 702,-610.5 "/>
<text text-anchor="start" x="409" y="-593.9" font-family="Times Roman,serif" font-size="14.00">create</text>
<text text-anchor="start" x="409" y="-575.9" font-family="Times Roman,serif" font-size="14.00">destroy</text>
<text text-anchor="start" x="409" y="-557.9" font-family="Times Roman,serif" font-size="14.00">edit</text>
<text text-anchor="start" x="409" y="-539.9" font-family="Times Roman,serif" font-size="14.00">index</text>
<text text-anchor="start" x="409" y="-521.9" font-family="Times Roman,serif" font-size="14.00">new</text>
<text text-anchor="start" x="409" y="-503.9" font-family="Times Roman,serif" font-size="14.00">show</text>
<text text-anchor="start" x="409" y="-485.9" font-family="Times Roman,serif" font-size="14.00">update</text>
<polyline fill="none" stroke="black" points="401,-476.5 702,-476.5 "/>
<polyline fill="none" stroke="black" points="401,-452.5 702,-452.5 "/>
<text text-anchor="start" x="409" y="-435.9" font-family="Times Roman,serif" font-size="14.00">_layout</text>
</g>
<!-- Participant::Contact::TypesController -->
<g id="node14" class="node"><title>Participant::Contact::TypesController</title>
<polyline fill="none" stroke="black" points="688,-676.5 934,-676.5 "/>
<path fill="none" stroke="black" d="M934,-676.5C940,-676.5 946,-682.5 946,-688.5"/>
<polyline fill="none" stroke="black" points="946,-688.5 946,-874.5 "/>
<path fill="none" stroke="black" d="M946,-874.5C946,-880.5 940,-886.5 934,-886.5"/>
<polyline fill="none" stroke="black" points="934,-886.5 688,-886.5 "/>
<path fill="none" stroke="black" d="M688,-886.5C682,-886.5 676,-880.5 676,-874.5"/>
<polyline fill="none" stroke="black" points="676,-874.5 676,-688.5 "/>
<path fill="none" stroke="black" d="M676,-688.5C676,-682.5 682,-676.5 688,-676.5"/>
<text text-anchor="middle" x="811" y="-869.9" font-family="Times Roman,serif" font-size="14.00">Participant::Contact::TypesController</text>
<polyline fill="none" stroke="black" points="676,-860.5 946,-860.5 "/>
<text text-anchor="start" x="684" y="-843.9" font-family="Times Roman,serif" font-size="14.00">create</text>
<text text-anchor="start" x="684" y="-825.9" font-family="Times Roman,serif" font-size="14.00">destroy</text>
<text text-anchor="start" x="684" y="-807.9" font-family="Times Roman,serif" font-size="14.00">edit</text>
<text text-anchor="start" x="684" y="-789.9" font-family="Times Roman,serif" font-size="14.00">index</text>
<text text-anchor="start" x="684" y="-771.9" font-family="Times Roman,serif" font-size="14.00">new</text>
<text text-anchor="start" x="684" y="-753.9" font-family="Times Roman,serif" font-size="14.00">show</text>
<text text-anchor="start" x="684" y="-735.9" font-family="Times Roman,serif" font-size="14.00">update</text>
<polyline fill="none" stroke="black" points="676,-726.5 946,-726.5 "/>
<polyline fill="none" stroke="black" points="676,-702.5 946,-702.5 "/>
<text text-anchor="start" x="684" y="-685.9" font-family="Times Roman,serif" font-size="14.00">_layout</text>
</g>
<!-- Participant::Contact::EmailsController -->
<g id="node15" class="node"><title>Participant::Contact::EmailsController</title>
<polyline fill="none" stroke="black" points="763,-351.5 1015,-351.5 "/>
<path fill="none" stroke="black" d="M1015,-351.5C1021,-351.5 1027,-357.5 1027,-363.5"/>
<polyline fill="none" stroke="black" points="1027,-363.5 1027,-549.5 "/>
<path fill="none" stroke="black" d="M1027,-549.5C1027,-555.5 1021,-561.5 1015,-561.5"/>
<polyline fill="none" stroke="black" points="1015,-561.5 763,-561.5 "/>
<path fill="none" stroke="black" d="M763,-561.5C757,-561.5 751,-555.5 751,-549.5"/>
<polyline fill="none" stroke="black" points="751,-549.5 751,-363.5 "/>
<path fill="none" stroke="black" d="M751,-363.5C751,-357.5 757,-351.5 763,-351.5"/>
<text text-anchor="middle" x="889" y="-544.9" font-family="Times Roman,serif" font-size="14.00">Participant::Contact::EmailsController</text>
<polyline fill="none" stroke="black" points="751,-535.5 1027,-535.5 "/>
<text text-anchor="start" x="759" y="-518.9" font-family="Times Roman,serif" font-size="14.00">create</text>
<text text-anchor="start" x="759" y="-500.9" font-family="Times Roman,serif" font-size="14.00">destroy</text>
<text text-anchor="start" x="759" y="-482.9" font-family="Times Roman,serif" font-size="14.00">edit</text>
<text text-anchor="start" x="759" y="-464.9" font-family="Times Roman,serif" font-size="14.00">index</text>
<text text-anchor="start" x="759" y="-446.9" font-family="Times Roman,serif" font-size="14.00">new</text>
<text text-anchor="start" x="759" y="-428.9" font-family="Times Roman,serif" font-size="14.00">show</text>
<text text-anchor="start" x="759" y="-410.9" font-family="Times Roman,serif" font-size="14.00">update</text>
<polyline fill="none" stroke="black" points="751,-401.5 1027,-401.5 "/>
<polyline fill="none" stroke="black" points="751,-377.5 1027,-377.5 "/>
<text text-anchor="start" x="759" y="-360.9" font-family="Times Roman,serif" font-size="14.00">_layout</text>
</g>
<!-- Email::UsersController -->
<g id="node16" class="node"><title>Email::UsersController</title>
<polyline fill="none" stroke="black" points="1013,-601.5 1159,-601.5 "/>
<path fill="none" stroke="black" d="M1159,-601.5C1165,-601.5 1171,-607.5 1171,-613.5"/>
<polyline fill="none" stroke="black" points="1171,-613.5 1171,-799.5 "/>
<path fill="none" stroke="black" d="M1171,-799.5C1171,-805.5 1165,-811.5 1159,-811.5"/>
<polyline fill="none" stroke="black" points="1159,-811.5 1013,-811.5 "/>
<path fill="none" stroke="black" d="M1013,-811.5C1007,-811.5 1001,-805.5 1001,-799.5"/>
<polyline fill="none" stroke="black" points="1001,-799.5 1001,-613.5 "/>
<path fill="none" stroke="black" d="M1001,-613.5C1001,-607.5 1007,-601.5 1013,-601.5"/>
<text text-anchor="middle" x="1086" y="-794.9" font-family="Times Roman,serif" font-size="14.00">Email::UsersController</text>
<polyline fill="none" stroke="black" points="1001,-785.5 1171,-785.5 "/>
<text text-anchor="start" x="1009" y="-768.9" font-family="Times Roman,serif" font-size="14.00">create</text>
<text text-anchor="start" x="1009" y="-750.9" font-family="Times Roman,serif" font-size="14.00">destroy</text>
<text text-anchor="start" x="1009" y="-732.9" font-family="Times Roman,serif" font-size="14.00">edit</text>
<text text-anchor="start" x="1009" y="-714.9" font-family="Times Roman,serif" font-size="14.00">index</text>
<text text-anchor="start" x="1009" y="-696.9" font-family="Times Roman,serif" font-size="14.00">new</text>
<text text-anchor="start" x="1009" y="-678.9" font-family="Times Roman,serif" font-size="14.00">show</text>
<text text-anchor="start" x="1009" y="-660.9" font-family="Times Roman,serif" font-size="14.00">update</text>
<polyline fill="none" stroke="black" points="1001,-651.5 1171,-651.5 "/>
<polyline fill="none" stroke="black" points="1001,-627.5 1171,-627.5 "/>
<text text-anchor="start" x="1009" y="-610.9" font-family="Times Roman,serif" font-size="14.00">_layout</text>
</g>
<!-- Email::DomainsController -->
<g id="node17" class="node"><title>Email::DomainsController</title>
<polyline fill="none" stroke="black" points="188,-976.5 356,-976.5 "/>
<path fill="none" stroke="black" d="M356,-976.5C362,-976.5 368,-982.5 368,-988.5"/>
<polyline fill="none" stroke="black" points="368,-988.5 368,-1174.5 "/>
<path fill="none" stroke="black" d="M368,-1174.5C368,-1180.5 362,-1186.5 356,-1186.5"/>
<polyline fill="none" stroke="black" points="356,-1186.5 188,-1186.5 "/>
<path fill="none" stroke="black" d="M188,-1186.5C182,-1186.5 176,-1180.5 176,-1174.5"/>
<polyline fill="none" stroke="black" points="176,-1174.5 176,-988.5 "/>
<path fill="none" stroke="black" d="M176,-988.5C176,-982.5 182,-976.5 188,-976.5"/>
<text text-anchor="middle" x="272" y="-1169.9" font-family="Times Roman,serif" font-size="14.00">Email::DomainsController</text>
<polyline fill="none" stroke="black" points="176,-1160.5 368,-1160.5 "/>
<text text-anchor="start" x="184" y="-1143.9" font-family="Times Roman,serif" font-size="14.00">create</text>
<text text-anchor="start" x="184" y="-1125.9" font-family="Times Roman,serif" font-size="14.00">destroy</text>
<text text-anchor="start" x="184" y="-1107.9" font-family="Times Roman,serif" font-size="14.00">edit</text>
<text text-anchor="start" x="184" y="-1089.9" font-family="Times Roman,serif" font-size="14.00">index</text>
<text text-anchor="start" x="184" y="-1071.9" font-family="Times Roman,serif" font-size="14.00">new</text>
<text text-anchor="start" x="184" y="-1053.9" font-family="Times Roman,serif" font-size="14.00">show</text>
<text text-anchor="start" x="184" y="-1035.9" font-family="Times Roman,serif" font-size="14.00">update</text>
<polyline fill="none" stroke="black" points="176,-1026.5 368,-1026.5 "/>
<polyline fill="none" stroke="black" points="176,-1002.5 368,-1002.5 "/>
<text text-anchor="start" x="184" y="-985.9" font-family="Times Roman,serif" font-size="14.00">_layout</text>
</g>
</g>
</svg>
