<?xml version="1.0" encoding="UTF-8" standalone="no"?>
<!DOCTYPE svg PUBLIC "-//W3C//DTD SVG 1.1//EN"
 "http://www.w3.org/Graphics/SVG/1.1/DTD/svg11.dtd">
<!-- Generated by graphviz version 2.26.3 (20100126.1600)
 -->
<!-- Title: controllers_diagram Pages: 1 -->
<svg width="828pt" height="859pt"
 viewBox="0.00 0.00 828.00 859.00" xmlns="http://www.w3.org/2000/svg" xmlns:xlink="http://www.w3.org/1999/xlink">
<g id="graph1" class="graph" transform="scale(1 1) rotate(0) translate(4 855)">
<title>controllers_diagram</title>
<polygon fill="white" stroke="white" points="-4,5 -4,-855 825,-855 825,5 -4,5"/>
<!-- _diagram_info -->
<g id="node1" class="node"><title>_diagram_info</title>
<text text-anchor="start" x="97" y="-122.3" font-family="Times Roman,serif" font-size="13.00">Controllers diagram</text>
<text text-anchor="start" x="97" y="-105.3" font-family="Times Roman,serif" font-size="13.00">Date: Aug 04 2011 &#45; 23:50</text>
<text text-anchor="start" x="97" y="-88.3" font-family="Times Roman,serif" font-size="13.00">Migration version: 20110805024527</text>
<text text-anchor="start" x="97" y="-71.3" font-family="Times Roman,serif" font-size="13.00">Generated by RailRoady 1.0.2</text>
<text text-anchor="start" x="97" y="-54.3" font-family="Times Roman,serif" font-size="13.00">http://railroady.prestonlee.com</text>
</g>
<!-- PhonesController -->
<g id="node2" class="node"><title>PhonesController</title>
<polyline fill="none" stroke="black" points="695,-397.5 807,-397.5 "/>
<path fill="none" stroke="black" d="M807,-397.5C813,-397.5 819,-403.5 819,-409.5"/>
<polyline fill="none" stroke="black" points="819,-409.5 819,-595.5 "/>
<path fill="none" stroke="black" d="M819,-595.5C819,-601.5 813,-607.5 807,-607.5"/>
<polyline fill="none" stroke="black" points="807,-607.5 695,-607.5 "/>
<path fill="none" stroke="black" d="M695,-607.5C689,-607.5 683,-601.5 683,-595.5"/>
<polyline fill="none" stroke="black" points="683,-595.5 683,-409.5 "/>
<path fill="none" stroke="black" d="M683,-409.5C683,-403.5 689,-397.5 695,-397.5"/>
<text text-anchor="middle" x="751" y="-590.9" font-family="Times Roman,serif" font-size="14.00">PhonesController</text>
<polyline fill="none" stroke="black" points="683,-581.5 819,-581.5 "/>
<text text-anchor="start" x="691" y="-564.9" font-family="Times Roman,serif" font-size="14.00">create</text>
<text text-anchor="start" x="691" y="-546.9" font-family="Times Roman,serif" font-size="14.00">destroy</text>
<text text-anchor="start" x="691" y="-528.9" font-family="Times Roman,serif" font-size="14.00">edit</text>
<text text-anchor="start" x="691" y="-510.9" font-family="Times Roman,serif" font-size="14.00">index</text>
<text text-anchor="start" x="691" y="-492.9" font-family="Times Roman,serif" font-size="14.00">new</text>
<text text-anchor="start" x="691" y="-474.9" font-family="Times Roman,serif" font-size="14.00">show</text>
<text text-anchor="start" x="691" y="-456.9" font-family="Times Roman,serif" font-size="14.00">update</text>
<polyline fill="none" stroke="black" points="683,-447.5 819,-447.5 "/>
<polyline fill="none" stroke="black" points="683,-423.5 819,-423.5 "/>
<text text-anchor="start" x="691" y="-406.9" font-family="Times Roman,serif" font-size="14.00">_layout</text>
</g>
<!-- Taxe::ValuesController -->
<g id="node3" class="node"><title>Taxe::ValuesController</title>
<polyline fill="none" stroke="black" points="475,-397.5 621,-397.5 "/>
<path fill="none" stroke="black" d="M621,-397.5C627,-397.5 633,-403.5 633,-409.5"/>
<polyline fill="none" stroke="black" points="633,-409.5 633,-595.5 "/>
<path fill="none" stroke="black" d="M633,-595.5C633,-601.5 627,-607.5 621,-607.5"/>
<polyline fill="none" stroke="black" points="621,-607.5 475,-607.5 "/>
<path fill="none" stroke="black" d="M475,-607.5C469,-607.5 463,-601.5 463,-595.5"/>
<polyline fill="none" stroke="black" points="463,-595.5 463,-409.5 "/>
<path fill="none" stroke="black" d="M463,-409.5C463,-403.5 469,-397.5 475,-397.5"/>
<text text-anchor="middle" x="548" y="-590.9" font-family="Times Roman,serif" font-size="14.00">Taxe::ValuesController</text>
<polyline fill="none" stroke="black" points="463,-581.5 633,-581.5 "/>
<text text-anchor="start" x="471" y="-564.9" font-family="Times Roman,serif" font-size="14.00">create</text>
<text text-anchor="start" x="471" y="-546.9" font-family="Times Roman,serif" font-size="14.00">destroy</text>
<text text-anchor="start" x="471" y="-528.9" font-family="Times Roman,serif" font-size="14.00">edit</text>
<text text-anchor="start" x="471" y="-510.9" font-family="Times Roman,serif" font-size="14.00">index</text>
<text text-anchor="start" x="471" y="-492.9" font-family="Times Roman,serif" font-size="14.00">new</text>
<text text-anchor="start" x="471" y="-474.9" font-family="Times Roman,serif" font-size="14.00">show</text>
<text text-anchor="start" x="471" y="-456.9" font-family="Times Roman,serif" font-size="14.00">update</text>
<polyline fill="none" stroke="black" points="463,-447.5 633,-447.5 "/>
<polyline fill="none" stroke="black" points="463,-423.5 633,-423.5 "/>
<text text-anchor="start" x="471" y="-406.9" font-family="Times Roman,serif" font-size="14.00">_layout</text>
</g>
<!-- Taxe::GroupsController -->
<g id="node4" class="node"><title>Taxe::GroupsController</title>
<polyline fill="none" stroke="black" points="255,-419.5 406,-419.5 "/>
<path fill="none" stroke="black" d="M406,-419.5C412,-419.5 418,-425.5 418,-431.5"/>
<polyline fill="none" stroke="black" points="418,-431.5 418,-617.5 "/>
<path fill="none" stroke="black" d="M418,-617.5C418,-623.5 412,-629.5 406,-629.5"/>
<polyline fill="none" stroke="black" points="406,-629.5 255,-629.5 "/>
<path fill="none" stroke="black" d="M255,-629.5C249,-629.5 243,-623.5 243,-617.5"/>
<polyline fill="none" stroke="black" points="243,-617.5 243,-431.5 "/>
<path fill="none" stroke="black" d="M243,-431.5C243,-425.5 249,-419.5 255,-419.5"/>
<text text-anchor="middle" x="330.5" y="-612.9" font-family="Times Roman,serif" font-size="14.00">Taxe::GroupsController</text>
<polyline fill="none" stroke="black" points="243,-603.5 418,-603.5 "/>
<text text-anchor="start" x="251" y="-586.9" font-family="Times Roman,serif" font-size="14.00">create</text>
<text text-anchor="start" x="251" y="-568.9" font-family="Times Roman,serif" font-size="14.00">destroy</text>
<text text-anchor="start" x="251" y="-550.9" font-family="Times Roman,serif" font-size="14.00">edit</text>
<text text-anchor="start" x="251" y="-532.9" font-family="Times Roman,serif" font-size="14.00">index</text>
<text text-anchor="start" x="251" y="-514.9" font-family="Times Roman,serif" font-size="14.00">new</text>
<text text-anchor="start" x="251" y="-496.9" font-family="Times Roman,serif" font-size="14.00">show</text>
<text text-anchor="start" x="251" y="-478.9" font-family="Times Roman,serif" font-size="14.00">update</text>
<polyline fill="none" stroke="black" points="243,-469.5 418,-469.5 "/>
<polyline fill="none" stroke="black" points="243,-445.5 418,-445.5 "/>
<text text-anchor="start" x="251" y="-428.9" font-family="Times Roman,serif" font-size="14.00">_layout</text>
</g>
<!-- Taxe::TypesController -->
<g id="node5" class="node"><title>Taxe::TypesController</title>
<polyline fill="none" stroke="black" points="57,-573.5 197,-573.5 "/>
<path fill="none" stroke="black" d="M197,-573.5C203,-573.5 209,-579.5 209,-585.5"/>
<polyline fill="none" stroke="black" points="209,-585.5 209,-771.5 "/>
<path fill="none" stroke="black" d="M209,-771.5C209,-777.5 203,-783.5 197,-783.5"/>
<polyline fill="none" stroke="black" points="197,-783.5 57,-783.5 "/>
<path fill="none" stroke="black" d="M57,-783.5C51,-783.5 45,-777.5 45,-771.5"/>
<polyline fill="none" stroke="black" points="45,-771.5 45,-585.5 "/>
<path fill="none" stroke="black" d="M45,-585.5C45,-579.5 51,-573.5 57,-573.5"/>
<text text-anchor="middle" x="127" y="-766.9" font-family="Times Roman,serif" font-size="14.00">Taxe::TypesController</text>
<polyline fill="none" stroke="black" points="45,-757.5 209,-757.5 "/>
<text text-anchor="start" x="53" y="-740.9" font-family="Times Roman,serif" font-size="14.00">create</text>
<text text-anchor="start" x="53" y="-722.9" font-family="Times Roman,serif" font-size="14.00">destroy</text>
<text text-anchor="start" x="53" y="-704.9" font-family="Times Roman,serif" font-size="14.00">edit</text>
<text text-anchor="start" x="53" y="-686.9" font-family="Times Roman,serif" font-size="14.00">index</text>
<text text-anchor="start" x="53" y="-668.9" font-family="Times Roman,serif" font-size="14.00">new</text>
<text text-anchor="start" x="53" y="-650.9" font-family="Times Roman,serif" font-size="14.00">show</text>
<text text-anchor="start" x="53" y="-632.9" font-family="Times Roman,serif" font-size="14.00">update</text>
<polyline fill="none" stroke="black" points="45,-623.5 209,-623.5 "/>
<polyline fill="none" stroke="black" points="45,-599.5 209,-599.5 "/>
<text text-anchor="start" x="53" y="-582.9" font-family="Times Roman,serif" font-size="14.00">_layout</text>
</g>
<!-- ContactTypesController -->
<g id="node6" class="node"><title>ContactTypesController</title>
<polyline fill="none" stroke="black" points="13,-287.5 167,-287.5 "/>
<path fill="none" stroke="black" d="M167,-287.5C173,-287.5 179,-293.5 179,-299.5"/>
<polyline fill="none" stroke="black" points="179,-299.5 179,-485.5 "/>
<path fill="none" stroke="black" d="M179,-485.5C179,-491.5 173,-497.5 167,-497.5"/>
<polyline fill="none" stroke="black" points="167,-497.5 13,-497.5 "/>
<path fill="none" stroke="black" d="M13,-497.5C7,-497.5 1,-491.5 1,-485.5"/>
<polyline fill="none" stroke="black" points="1,-485.5 1,-299.5 "/>
<path fill="none" stroke="black" d="M1,-299.5C1,-293.5 7,-287.5 13,-287.5"/>
<text text-anchor="middle" x="90" y="-480.9" font-family="Times Roman,serif" font-size="14.00">ContactTypesController</text>
<polyline fill="none" stroke="black" points="1,-471.5 179,-471.5 "/>
<text text-anchor="start" x="9" y="-454.9" font-family="Times Roman,serif" font-size="14.00">create</text>
<text text-anchor="start" x="9" y="-436.9" font-family="Times Roman,serif" font-size="14.00">destroy</text>
<text text-anchor="start" x="9" y="-418.9" font-family="Times Roman,serif" font-size="14.00">edit</text>
<text text-anchor="start" x="9" y="-400.9" font-family="Times Roman,serif" font-size="14.00">index</text>
<text text-anchor="start" x="9" y="-382.9" font-family="Times Roman,serif" font-size="14.00">new</text>
<text text-anchor="start" x="9" y="-364.9" font-family="Times Roman,serif" font-size="14.00">show</text>
<text text-anchor="start" x="9" y="-346.9" font-family="Times Roman,serif" font-size="14.00">update</text>
<polyline fill="none" stroke="black" points="1,-337.5 179,-337.5 "/>
<polyline fill="none" stroke="black" points="1,-313.5 179,-313.5 "/>
<text text-anchor="start" x="9" y="-296.9" font-family="Times Roman,serif" font-size="14.00">_layout</text>
</g>
<!-- PeopleController -->
<g id="node7" class="node"><title>PeopleController</title>
<polyline fill="none" stroke="black" points="695,-639.5 802,-639.5 "/>
<path fill="none" stroke="black" d="M802,-639.5C808,-639.5 814,-645.5 814,-651.5"/>
<polyline fill="none" stroke="black" points="814,-651.5 814,-837.5 "/>
<path fill="none" stroke="black" d="M814,-837.5C814,-843.5 808,-849.5 802,-849.5"/>
<polyline fill="none" stroke="black" points="802,-849.5 695,-849.5 "/>
<path fill="none" stroke="black" d="M695,-849.5C689,-849.5 683,-843.5 683,-837.5"/>
<polyline fill="none" stroke="black" points="683,-837.5 683,-651.5 "/>
<path fill="none" stroke="black" d="M683,-651.5C683,-645.5 689,-639.5 695,-639.5"/>
<text text-anchor="middle" x="748.5" y="-832.9" font-family="Times Roman,serif" font-size="14.00">PeopleController</text>
<polyline fill="none" stroke="black" points="683,-823.5 814,-823.5 "/>
<text text-anchor="start" x="691" y="-806.9" font-family="Times Roman,serif" font-size="14.00">create</text>
<text text-anchor="start" x="691" y="-788.9" font-family="Times Roman,serif" font-size="14.00">destroy</text>
<text text-anchor="start" x="691" y="-770.9" font-family="Times Roman,serif" font-size="14.00">edit</text>
<text text-anchor="start" x="691" y="-752.9" font-family="Times Roman,serif" font-size="14.00">index</text>
<text text-anchor="start" x="691" y="-734.9" font-family="Times Roman,serif" font-size="14.00">new</text>
<text text-anchor="start" x="691" y="-716.9" font-family="Times Roman,serif" font-size="14.00">show</text>
<text text-anchor="start" x="691" y="-698.9" font-family="Times Roman,serif" font-size="14.00">update</text>
<polyline fill="none" stroke="black" points="683,-689.5 814,-689.5 "/>
<polyline fill="none" stroke="black" points="683,-665.5 814,-665.5 "/>
<text text-anchor="start" x="691" y="-648.9" font-family="Times Roman,serif" font-size="14.00">_layout</text>
</g>
<!-- ApplicationController -->
<g id="node8" class="node"><title>ApplicationController</title>
<polyline fill="none" stroke="black" points="387,-1.5 592,-1.5 "/>
<path fill="none" stroke="black" d="M592,-1.5C598,-1.5 604,-7.5 604,-13.5"/>
<polyline fill="none" stroke="black" points="604,-13.5 604,-109.5 "/>
<path fill="none" stroke="black" d="M604,-109.5C604,-115.5 598,-121.5 592,-121.5"/>
<polyline fill="none" stroke="black" points="592,-121.5 387,-121.5 "/>
<path fill="none" stroke="black" d="M387,-121.5C381,-121.5 375,-115.5 375,-109.5"/>
<polyline fill="none" stroke="black" points="375,-109.5 375,-13.5 "/>
<path fill="none" stroke="black" d="M375,-13.5C375,-7.5 381,-1.5 387,-1.5"/>
<text text-anchor="middle" x="489.5" y="-104.9" font-family="Times Roman,serif" font-size="14.00">ApplicationController</text>
<polyline fill="none" stroke="black" points="375,-95.5 604,-95.5 "/>
<text text-anchor="start" x="383" y="-78.9" font-family="Times Roman,serif" font-size="14.00">_one_time_conditions_valid_8?</text>
<polyline fill="none" stroke="black" points="375,-69.5 604,-69.5 "/>
<polyline fill="none" stroke="black" points="375,-45.5 604,-45.5 "/>
<text text-anchor="start" x="383" y="-28.9" font-family="Times Roman,serif" font-size="14.00">_layout</text>
<text text-anchor="start" x="383" y="-10.9" font-family="Times Roman,serif" font-size="14.00">_run_process_action_callbacks</text>
</g>
<!-- Address::PlacesController -->
<g id="node9" class="node"><title>Address::PlacesController</title>
<polyline fill="none" stroke="black" points="233,-177.5 400,-177.5 "/>
<path fill="none" stroke="black" d="M400,-177.5C406,-177.5 412,-183.5 412,-189.5"/>
<polyline fill="none" stroke="black" points="412,-189.5 412,-375.5 "/>
<path fill="none" stroke="black" d="M412,-375.5C412,-381.5 406,-387.5 400,-387.5"/>
<polyline fill="none" stroke="black" points="400,-387.5 233,-387.5 "/>
<path fill="none" stroke="black" d="M233,-387.5C227,-387.5 221,-381.5 221,-375.5"/>
<polyline fill="none" stroke="black" points="221,-375.5 221,-189.5 "/>
<path fill="none" stroke="black" d="M221,-189.5C221,-183.5 227,-177.5 233,-177.5"/>
<text text-anchor="middle" x="316.5" y="-370.9" font-family="Times Roman,serif" font-size="14.00">Address::PlacesController</text>
<polyline fill="none" stroke="black" points="221,-361.5 412,-361.5 "/>
<text text-anchor="start" x="229" y="-344.9" font-family="Times Roman,serif" font-size="14.00">create</text>
<text text-anchor="start" x="229" y="-326.9" font-family="Times Roman,serif" font-size="14.00">destroy</text>
<text text-anchor="start" x="229" y="-308.9" font-family="Times Roman,serif" font-size="14.00">edit</text>
<text text-anchor="start" x="229" y="-290.9" font-family="Times Roman,serif" font-size="14.00">index</text>
<text text-anchor="start" x="229" y="-272.9" font-family="Times Roman,serif" font-size="14.00">new</text>
<text text-anchor="start" x="229" y="-254.9" font-family="Times Roman,serif" font-size="14.00">show</text>
<text text-anchor="start" x="229" y="-236.9" font-family="Times Roman,serif" font-size="14.00">update</text>
<polyline fill="none" stroke="black" points="221,-227.5 412,-227.5 "/>
<polyline fill="none" stroke="black" points="221,-203.5 412,-203.5 "/>
<text text-anchor="start" x="229" y="-186.9" font-family="Times Roman,serif" font-size="14.00">_layout</text>
</g>
<!-- Financier::NotesController -->
<g id="node10" class="node"><title>Financier::NotesController</title>
<polyline fill="none" stroke="black" points="475,-155.5 648,-155.5 "/>
<path fill="none" stroke="black" d="M648,-155.5C654,-155.5 660,-161.5 660,-167.5"/>
<polyline fill="none" stroke="black" points="660,-167.5 660,-353.5 "/>
<path fill="none" stroke="black" d="M660,-353.5C660,-359.5 654,-365.5 648,-365.5"/>
<polyline fill="none" stroke="black" points="648,-365.5 475,-365.5 "/>
<path fill="none" stroke="black" d="M475,-365.5C469,-365.5 463,-359.5 463,-353.5"/>
<polyline fill="none" stroke="black" points="463,-353.5 463,-167.5 "/>
<path fill="none" stroke="black" d="M463,-167.5C463,-161.5 469,-155.5 475,-155.5"/>
<text text-anchor="middle" x="561.5" y="-348.9" font-family="Times Roman,serif" font-size="14.00">Financier::NotesController</text>
<polyline fill="none" stroke="black" points="463,-339.5 660,-339.5 "/>
<text text-anchor="start" x="471" y="-322.9" font-family="Times Roman,serif" font-size="14.00">create</text>
<text text-anchor="start" x="471" y="-304.9" font-family="Times Roman,serif" font-size="14.00">destroy</text>
<text text-anchor="start" x="471" y="-286.9" font-family="Times Roman,serif" font-size="14.00">edit</text>
<text text-anchor="start" x="471" y="-268.9" font-family="Times Roman,serif" font-size="14.00">index</text>
<text text-anchor="start" x="471" y="-250.9" font-family="Times Roman,serif" font-size="14.00">new</text>
<text text-anchor="start" x="471" y="-232.9" font-family="Times Roman,serif" font-size="14.00">show</text>
<text text-anchor="start" x="471" y="-214.9" font-family="Times Roman,serif" font-size="14.00">update</text>
<polyline fill="none" stroke="black" points="463,-205.5 660,-205.5 "/>
<polyline fill="none" stroke="black" points="463,-181.5 660,-181.5 "/>
<text text-anchor="start" x="471" y="-164.9" font-family="Times Roman,serif" font-size="14.00">_layout</text>
</g>
<!-- EmailsController -->
<g id="node11" class="node"><title>EmailsController</title>
<polyline fill="none" stroke="black" points="519,-639.5 625,-639.5 "/>
<path fill="none" stroke="black" d="M625,-639.5C631,-639.5 637,-645.5 637,-651.5"/>
<polyline fill="none" stroke="black" points="637,-651.5 637,-837.5 "/>
<path fill="none" stroke="black" d="M637,-837.5C637,-843.5 631,-849.5 625,-849.5"/>
<polyline fill="none" stroke="black" points="625,-849.5 519,-849.5 "/>
<path fill="none" stroke="black" d="M519,-849.5C513,-849.5 507,-843.5 507,-837.5"/>
<polyline fill="none" stroke="black" points="507,-837.5 507,-651.5 "/>
<path fill="none" stroke="black" d="M507,-651.5C507,-645.5 513,-639.5 519,-639.5"/>
<text text-anchor="middle" x="572" y="-832.9" font-family="Times Roman,serif" font-size="14.00">EmailsController</text>
<polyline fill="none" stroke="black" points="507,-823.5 637,-823.5 "/>
<text text-anchor="start" x="515" y="-806.9" font-family="Times Roman,serif" font-size="14.00">create</text>
<text text-anchor="start" x="515" y="-788.9" font-family="Times Roman,serif" font-size="14.00">destroy</text>
<text text-anchor="start" x="515" y="-770.9" font-family="Times Roman,serif" font-size="14.00">edit</text>
<text text-anchor="start" x="515" y="-752.9" font-family="Times Roman,serif" font-size="14.00">index</text>
<text text-anchor="start" x="515" y="-734.9" font-family="Times Roman,serif" font-size="14.00">new</text>
<text text-anchor="start" x="515" y="-716.9" font-family="Times Roman,serif" font-size="14.00">show</text>
<text text-anchor="start" x="515" y="-698.9" font-family="Times Roman,serif" font-size="14.00">update</text>
<polyline fill="none" stroke="black" points="507,-689.5 637,-689.5 "/>
<polyline fill="none" stroke="black" points="507,-665.5 637,-665.5 "/>
<text text-anchor="start" x="515" y="-648.9" font-family="Times Roman,serif" font-size="14.00">_layout</text>
</g>
</g>
</svg>
