<?xml version="1.0" encoding="UTF-8" standalone="no"?>
<!DOCTYPE svg PUBLIC "-//W3C//DTD SVG 1.1//EN"
 "http://www.w3.org/Graphics/SVG/1.1/DTD/svg11.dtd">
<!-- Generated by graphviz version 2.26.3 (20100126.1600)
 -->
<!-- Title: controllers_diagram Pages: 1 -->
<svg width="1124pt" height="1061pt"
 viewBox="0.00 0.00 1124.00 1061.00" xmlns="http://www.w3.org/2000/svg" xmlns:xlink="http://www.w3.org/1999/xlink">
<g id="graph1" class="graph" transform="scale(1 1) rotate(0) translate(4 1057)">
<title>controllers_diagram</title>
<polygon fill="white" stroke="white" points="-4,5 -4,-1057 1121,-1057 1121,5 -4,5"/>
<!-- _diagram_info -->
<g id="node1" class="node"><title>_diagram_info</title>
<text text-anchor="start" x="873" y="-606.3" font-family="Times Roman,serif" font-size="13.00">Controllers diagram</text>
<text text-anchor="start" x="873" y="-589.3" font-family="Times Roman,serif" font-size="13.00">Date: Aug 12 2011 &#45; 23:38</text>
<text text-anchor="start" x="873" y="-572.3" font-family="Times Roman,serif" font-size="13.00">Migration version: 20110813022628</text>
<text text-anchor="start" x="873" y="-555.3" font-family="Times Roman,serif" font-size="13.00">Generated by RailRoady 1.0.2</text>
<text text-anchor="start" x="873" y="-538.3" font-family="Times Roman,serif" font-size="13.00">http://railroady.prestonlee.com</text>
</g>
<!-- Taxe::ValuesController -->
<g id="node2" class="node"><title>Taxe::ValuesController</title>
<polyline fill="none" stroke="black" points="373,-841.5 519,-841.5 "/>
<path fill="none" stroke="black" d="M519,-841.5C525,-841.5 531,-847.5 531,-853.5"/>
<polyline fill="none" stroke="black" points="531,-853.5 531,-1039.5 "/>
<path fill="none" stroke="black" d="M531,-1039.5C531,-1045.5 525,-1051.5 519,-1051.5"/>
<polyline fill="none" stroke="black" points="519,-1051.5 373,-1051.5 "/>
<path fill="none" stroke="black" d="M373,-1051.5C367,-1051.5 361,-1045.5 361,-1039.5"/>
<polyline fill="none" stroke="black" points="361,-1039.5 361,-853.5 "/>
<path fill="none" stroke="black" d="M361,-853.5C361,-847.5 367,-841.5 373,-841.5"/>
<text text-anchor="middle" x="446" y="-1034.9" font-family="Times Roman,serif" font-size="14.00">Taxe::ValuesController</text>
<polyline fill="none" stroke="black" points="361,-1025.5 531,-1025.5 "/>
<text text-anchor="start" x="369" y="-1008.9" font-family="Times Roman,serif" font-size="14.00">create</text>
<text text-anchor="start" x="369" y="-990.9" font-family="Times Roman,serif" font-size="14.00">destroy</text>
<text text-anchor="start" x="369" y="-972.9" font-family="Times Roman,serif" font-size="14.00">edit</text>
<text text-anchor="start" x="369" y="-954.9" font-family="Times Roman,serif" font-size="14.00">index</text>
<text text-anchor="start" x="369" y="-936.9" font-family="Times Roman,serif" font-size="14.00">new</text>
<text text-anchor="start" x="369" y="-918.9" font-family="Times Roman,serif" font-size="14.00">show</text>
<text text-anchor="start" x="369" y="-900.9" font-family="Times Roman,serif" font-size="14.00">update</text>
<polyline fill="none" stroke="black" points="361,-891.5 531,-891.5 "/>
<polyline fill="none" stroke="black" points="361,-867.5 531,-867.5 "/>
<text text-anchor="start" x="369" y="-850.9" font-family="Times Roman,serif" font-size="14.00">_layout</text>
</g>
<!-- Taxe::GroupsController -->
<g id="node3" class="node"><title>Taxe::GroupsController</title>
<polyline fill="none" stroke="black" points="61,-793.5 212,-793.5 "/>
<path fill="none" stroke="black" d="M212,-793.5C218,-793.5 224,-799.5 224,-805.5"/>
<polyline fill="none" stroke="black" points="224,-805.5 224,-991.5 "/>
<path fill="none" stroke="black" d="M224,-991.5C224,-997.5 218,-1003.5 212,-1003.5"/>
<polyline fill="none" stroke="black" points="212,-1003.5 61,-1003.5 "/>
<path fill="none" stroke="black" d="M61,-1003.5C55,-1003.5 49,-997.5 49,-991.5"/>
<polyline fill="none" stroke="black" points="49,-991.5 49,-805.5 "/>
<path fill="none" stroke="black" d="M49,-805.5C49,-799.5 55,-793.5 61,-793.5"/>
<text text-anchor="middle" x="136.5" y="-986.9" font-family="Times Roman,serif" font-size="14.00">Taxe::GroupsController</text>
<polyline fill="none" stroke="black" points="49,-977.5 224,-977.5 "/>
<text text-anchor="start" x="57" y="-960.9" font-family="Times Roman,serif" font-size="14.00">create</text>
<text text-anchor="start" x="57" y="-942.9" font-family="Times Roman,serif" font-size="14.00">destroy</text>
<text text-anchor="start" x="57" y="-924.9" font-family="Times Roman,serif" font-size="14.00">edit</text>
<text text-anchor="start" x="57" y="-906.9" font-family="Times Roman,serif" font-size="14.00">index</text>
<text text-anchor="start" x="57" y="-888.9" font-family="Times Roman,serif" font-size="14.00">new</text>
<text text-anchor="start" x="57" y="-870.9" font-family="Times Roman,serif" font-size="14.00">show</text>
<text text-anchor="start" x="57" y="-852.9" font-family="Times Roman,serif" font-size="14.00">update</text>
<polyline fill="none" stroke="black" points="49,-843.5 224,-843.5 "/>
<polyline fill="none" stroke="black" points="49,-819.5 224,-819.5 "/>
<text text-anchor="start" x="57" y="-802.9" font-family="Times Roman,serif" font-size="14.00">_layout</text>
</g>
<!-- Taxe::TypesController -->
<g id="node4" class="node"><title>Taxe::TypesController</title>
<polyline fill="none" stroke="black" points="565,-1.5 705,-1.5 "/>
<path fill="none" stroke="black" d="M705,-1.5C711,-1.5 717,-7.5 717,-13.5"/>
<polyline fill="none" stroke="black" points="717,-13.5 717,-199.5 "/>
<path fill="none" stroke="black" d="M717,-199.5C717,-205.5 711,-211.5 705,-211.5"/>
<polyline fill="none" stroke="black" points="705,-211.5 565,-211.5 "/>
<path fill="none" stroke="black" d="M565,-211.5C559,-211.5 553,-205.5 553,-199.5"/>
<polyline fill="none" stroke="black" points="553,-199.5 553,-13.5 "/>
<path fill="none" stroke="black" d="M553,-13.5C553,-7.5 559,-1.5 565,-1.5"/>
<text text-anchor="middle" x="635" y="-194.9" font-family="Times Roman,serif" font-size="14.00">Taxe::TypesController</text>
<polyline fill="none" stroke="black" points="553,-185.5 717,-185.5 "/>
<text text-anchor="start" x="561" y="-168.9" font-family="Times Roman,serif" font-size="14.00">create</text>
<text text-anchor="start" x="561" y="-150.9" font-family="Times Roman,serif" font-size="14.00">destroy</text>
<text text-anchor="start" x="561" y="-132.9" font-family="Times Roman,serif" font-size="14.00">edit</text>
<text text-anchor="start" x="561" y="-114.9" font-family="Times Roman,serif" font-size="14.00">index</text>
<text text-anchor="start" x="561" y="-96.9" font-family="Times Roman,serif" font-size="14.00">new</text>
<text text-anchor="start" x="561" y="-78.9" font-family="Times Roman,serif" font-size="14.00">show</text>
<text text-anchor="start" x="561" y="-60.9" font-family="Times Roman,serif" font-size="14.00">update</text>
<polyline fill="none" stroke="black" points="553,-51.5 717,-51.5 "/>
<polyline fill="none" stroke="black" points="553,-27.5 717,-27.5 "/>
<text text-anchor="start" x="561" y="-10.9" font-family="Times Roman,serif" font-size="14.00">_layout</text>
</g>
<!-- ApplicationController -->
<g id="node5" class="node"><title>ApplicationController</title>
<polyline fill="none" stroke="black" points="877,-673.5 1082,-673.5 "/>
<path fill="none" stroke="black" d="M1082,-673.5C1088,-673.5 1094,-679.5 1094,-685.5"/>
<polyline fill="none" stroke="black" points="1094,-685.5 1094,-781.5 "/>
<path fill="none" stroke="black" d="M1094,-781.5C1094,-787.5 1088,-793.5 1082,-793.5"/>
<polyline fill="none" stroke="black" points="1082,-793.5 877,-793.5 "/>
<path fill="none" stroke="black" d="M877,-793.5C871,-793.5 865,-787.5 865,-781.5"/>
<polyline fill="none" stroke="black" points="865,-781.5 865,-685.5 "/>
<path fill="none" stroke="black" d="M865,-685.5C865,-679.5 871,-673.5 877,-673.5"/>
<text text-anchor="middle" x="979.5" y="-776.9" font-family="Times Roman,serif" font-size="14.00">ApplicationController</text>
<polyline fill="none" stroke="black" points="865,-767.5 1094,-767.5 "/>
<text text-anchor="start" x="873" y="-750.9" font-family="Times Roman,serif" font-size="14.00">_one_time_conditions_valid_8?</text>
<polyline fill="none" stroke="black" points="865,-741.5 1094,-741.5 "/>
<polyline fill="none" stroke="black" points="865,-717.5 1094,-717.5 "/>
<text text-anchor="start" x="873" y="-700.9" font-family="Times Roman,serif" font-size="14.00">_layout</text>
<text text-anchor="start" x="873" y="-682.9" font-family="Times Roman,serif" font-size="14.00">_run_process_action_callbacks</text>
</g>
<!-- Transaction::RecordsController -->
<g id="node6" class="node"><title>Transaction::RecordsController</title>
<polyline fill="none" stroke="black" points="37,-49.5 240,-49.5 "/>
<path fill="none" stroke="black" d="M240,-49.5C246,-49.5 252,-55.5 252,-61.5"/>
<polyline fill="none" stroke="black" points="252,-61.5 252,-247.5 "/>
<path fill="none" stroke="black" d="M252,-247.5C252,-253.5 246,-259.5 240,-259.5"/>
<polyline fill="none" stroke="black" points="240,-259.5 37,-259.5 "/>
<path fill="none" stroke="black" d="M37,-259.5C31,-259.5 25,-253.5 25,-247.5"/>
<polyline fill="none" stroke="black" points="25,-247.5 25,-61.5 "/>
<path fill="none" stroke="black" d="M25,-61.5C25,-55.5 31,-49.5 37,-49.5"/>
<text text-anchor="middle" x="138.5" y="-242.9" font-family="Times Roman,serif" font-size="14.00">Transaction::RecordsController</text>
<polyline fill="none" stroke="black" points="25,-233.5 252,-233.5 "/>
<text text-anchor="start" x="33" y="-216.9" font-family="Times Roman,serif" font-size="14.00">create</text>
<text text-anchor="start" x="33" y="-198.9" font-family="Times Roman,serif" font-size="14.00">destroy</text>
<text text-anchor="start" x="33" y="-180.9" font-family="Times Roman,serif" font-size="14.00">edit</text>
<text text-anchor="start" x="33" y="-162.9" font-family="Times Roman,serif" font-size="14.00">index</text>
<text text-anchor="start" x="33" y="-144.9" font-family="Times Roman,serif" font-size="14.00">new</text>
<text text-anchor="start" x="33" y="-126.9" font-family="Times Roman,serif" font-size="14.00">show</text>
<text text-anchor="start" x="33" y="-108.9" font-family="Times Roman,serif" font-size="14.00">update</text>
<polyline fill="none" stroke="black" points="25,-99.5 252,-99.5 "/>
<polyline fill="none" stroke="black" points="25,-75.5 252,-75.5 "/>
<text text-anchor="start" x="33" y="-58.9" font-family="Times Roman,serif" font-size="14.00">_layout</text>
</g>
<!-- Transaction::ParticipantsController -->
<g id="node7" class="node"><title>Transaction::ParticipantsController</title>
<polyline fill="none" stroke="black" points="277,-577.5 507,-577.5 "/>
<path fill="none" stroke="black" d="M507,-577.5C513,-577.5 519,-583.5 519,-589.5"/>
<polyline fill="none" stroke="black" points="519,-589.5 519,-775.5 "/>
<path fill="none" stroke="black" d="M519,-775.5C519,-781.5 513,-787.5 507,-787.5"/>
<polyline fill="none" stroke="black" points="507,-787.5 277,-787.5 "/>
<path fill="none" stroke="black" d="M277,-787.5C271,-787.5 265,-781.5 265,-775.5"/>
<polyline fill="none" stroke="black" points="265,-775.5 265,-589.5 "/>
<path fill="none" stroke="black" d="M265,-589.5C265,-583.5 271,-577.5 277,-577.5"/>
<text text-anchor="middle" x="392" y="-770.9" font-family="Times Roman,serif" font-size="14.00">Transaction::ParticipantsController</text>
<polyline fill="none" stroke="black" points="265,-761.5 519,-761.5 "/>
<text text-anchor="start" x="273" y="-744.9" font-family="Times Roman,serif" font-size="14.00">create</text>
<text text-anchor="start" x="273" y="-726.9" font-family="Times Roman,serif" font-size="14.00">destroy</text>
<text text-anchor="start" x="273" y="-708.9" font-family="Times Roman,serif" font-size="14.00">edit</text>
<text text-anchor="start" x="273" y="-690.9" font-family="Times Roman,serif" font-size="14.00">index</text>
<text text-anchor="start" x="273" y="-672.9" font-family="Times Roman,serif" font-size="14.00">new</text>
<text text-anchor="start" x="273" y="-654.9" font-family="Times Roman,serif" font-size="14.00">show</text>
<text text-anchor="start" x="273" y="-636.9" font-family="Times Roman,serif" font-size="14.00">update</text>
<polyline fill="none" stroke="black" points="265,-627.5 519,-627.5 "/>
<polyline fill="none" stroke="black" points="265,-603.5 519,-603.5 "/>
<text text-anchor="start" x="273" y="-586.9" font-family="Times Roman,serif" font-size="14.00">_layout</text>
</g>
<!-- Address::PlacesController -->
<g id="node8" class="node"><title>Address::PlacesController</title>
<polyline fill="none" stroke="black" points="13,-433.5 180,-433.5 "/>
<path fill="none" stroke="black" d="M180,-433.5C186,-433.5 192,-439.5 192,-445.5"/>
<polyline fill="none" stroke="black" points="192,-445.5 192,-631.5 "/>
<path fill="none" stroke="black" d="M192,-631.5C192,-637.5 186,-643.5 180,-643.5"/>
<polyline fill="none" stroke="black" points="180,-643.5 13,-643.5 "/>
<path fill="none" stroke="black" d="M13,-643.5C7,-643.5 1,-637.5 1,-631.5"/>
<polyline fill="none" stroke="black" points="1,-631.5 1,-445.5 "/>
<path fill="none" stroke="black" d="M1,-445.5C1,-439.5 7,-433.5 13,-433.5"/>
<text text-anchor="middle" x="96.5" y="-626.9" font-family="Times Roman,serif" font-size="14.00">Address::PlacesController</text>
<polyline fill="none" stroke="black" points="1,-617.5 192,-617.5 "/>
<text text-anchor="start" x="9" y="-600.9" font-family="Times Roman,serif" font-size="14.00">create</text>
<text text-anchor="start" x="9" y="-582.9" font-family="Times Roman,serif" font-size="14.00">destroy</text>
<text text-anchor="start" x="9" y="-564.9" font-family="Times Roman,serif" font-size="14.00">edit</text>
<text text-anchor="start" x="9" y="-546.9" font-family="Times Roman,serif" font-size="14.00">index</text>
<text text-anchor="start" x="9" y="-528.9" font-family="Times Roman,serif" font-size="14.00">new</text>
<text text-anchor="start" x="9" y="-510.9" font-family="Times Roman,serif" font-size="14.00">show</text>
<text text-anchor="start" x="9" y="-492.9" font-family="Times Roman,serif" font-size="14.00">update</text>
<polyline fill="none" stroke="black" points="1,-483.5 192,-483.5 "/>
<polyline fill="none" stroke="black" points="1,-459.5 192,-459.5 "/>
<text text-anchor="start" x="9" y="-442.9" font-family="Times Roman,serif" font-size="14.00">_layout</text>
</g>
<!-- Financier::NotesController -->
<g id="node9" class="node"><title>Financier::NotesController</title>
<polyline fill="none" stroke="black" points="829,-841.5 1002,-841.5 "/>
<path fill="none" stroke="black" d="M1002,-841.5C1008,-841.5 1014,-847.5 1014,-853.5"/>
<polyline fill="none" stroke="black" points="1014,-853.5 1014,-1039.5 "/>
<path fill="none" stroke="black" d="M1014,-1039.5C1014,-1045.5 1008,-1051.5 1002,-1051.5"/>
<polyline fill="none" stroke="black" points="1002,-1051.5 829,-1051.5 "/>
<path fill="none" stroke="black" d="M829,-1051.5C823,-1051.5 817,-1045.5 817,-1039.5"/>
<polyline fill="none" stroke="black" points="817,-1039.5 817,-853.5 "/>
<path fill="none" stroke="black" d="M817,-853.5C817,-847.5 823,-841.5 829,-841.5"/>
<text text-anchor="middle" x="915.5" y="-1034.9" font-family="Times Roman,serif" font-size="14.00">Financier::NotesController</text>
<polyline fill="none" stroke="black" points="817,-1025.5 1014,-1025.5 "/>
<text text-anchor="start" x="825" y="-1008.9" font-family="Times Roman,serif" font-size="14.00">create</text>
<text text-anchor="start" x="825" y="-990.9" font-family="Times Roman,serif" font-size="14.00">destroy</text>
<text text-anchor="start" x="825" y="-972.9" font-family="Times Roman,serif" font-size="14.00">edit</text>
<text text-anchor="start" x="825" y="-954.9" font-family="Times Roman,serif" font-size="14.00">index</text>
<text text-anchor="start" x="825" y="-936.9" font-family="Times Roman,serif" font-size="14.00">new</text>
<text text-anchor="start" x="825" y="-918.9" font-family="Times Roman,serif" font-size="14.00">show</text>
<text text-anchor="start" x="825" y="-900.9" font-family="Times Roman,serif" font-size="14.00">update</text>
<polyline fill="none" stroke="black" points="817,-891.5 1014,-891.5 "/>
<polyline fill="none" stroke="black" points="817,-867.5 1014,-867.5 "/>
<text text-anchor="start" x="825" y="-850.9" font-family="Times Roman,serif" font-size="14.00">_layout</text>
</g>
<!-- Participant::PeopleController -->
<g id="node10" class="node"><title>Participant::PeopleController</title>
<polyline fill="none" stroke="black" points="301,-49.5 491,-49.5 "/>
<path fill="none" stroke="black" d="M491,-49.5C497,-49.5 503,-55.5 503,-61.5"/>
<polyline fill="none" stroke="black" points="503,-61.5 503,-247.5 "/>
<path fill="none" stroke="black" d="M503,-247.5C503,-253.5 497,-259.5 491,-259.5"/>
<polyline fill="none" stroke="black" points="491,-259.5 301,-259.5 "/>
<path fill="none" stroke="black" d="M301,-259.5C295,-259.5 289,-253.5 289,-247.5"/>
<polyline fill="none" stroke="black" points="289,-247.5 289,-61.5 "/>
<path fill="none" stroke="black" d="M289,-61.5C289,-55.5 295,-49.5 301,-49.5"/>
<text text-anchor="middle" x="396" y="-242.9" font-family="Times Roman,serif" font-size="14.00">Participant::PeopleController</text>
<polyline fill="none" stroke="black" points="289,-233.5 503,-233.5 "/>
<text text-anchor="start" x="297" y="-216.9" font-family="Times Roman,serif" font-size="14.00">create</text>
<text text-anchor="start" x="297" y="-198.9" font-family="Times Roman,serif" font-size="14.00">destroy</text>
<text text-anchor="start" x="297" y="-180.9" font-family="Times Roman,serif" font-size="14.00">edit</text>
<text text-anchor="start" x="297" y="-162.9" font-family="Times Roman,serif" font-size="14.00">index</text>
<text text-anchor="start" x="297" y="-144.9" font-family="Times Roman,serif" font-size="14.00">new</text>
<text text-anchor="start" x="297" y="-126.9" font-family="Times Roman,serif" font-size="14.00">show</text>
<text text-anchor="start" x="297" y="-108.9" font-family="Times Roman,serif" font-size="14.00">update</text>
<polyline fill="none" stroke="black" points="289,-99.5 503,-99.5 "/>
<polyline fill="none" stroke="black" points="289,-75.5 503,-75.5 "/>
<text text-anchor="start" x="297" y="-58.9" font-family="Times Roman,serif" font-size="14.00">_layout</text>
</g>
<!-- Participant::Contact::AddressesController -->
<g id="node11" class="node"><title>Participant::Contact::AddressesController</title>
<polyline fill="none" stroke="black" points="253,-313.5 530,-313.5 "/>
<path fill="none" stroke="black" d="M530,-313.5C536,-313.5 542,-319.5 542,-325.5"/>
<polyline fill="none" stroke="black" points="542,-325.5 542,-511.5 "/>
<path fill="none" stroke="black" d="M542,-511.5C542,-517.5 536,-523.5 530,-523.5"/>
<polyline fill="none" stroke="black" points="530,-523.5 253,-523.5 "/>
<path fill="none" stroke="black" d="M253,-523.5C247,-523.5 241,-517.5 241,-511.5"/>
<polyline fill="none" stroke="black" points="241,-511.5 241,-325.5 "/>
<path fill="none" stroke="black" d="M241,-325.5C241,-319.5 247,-313.5 253,-313.5"/>
<text text-anchor="middle" x="391.5" y="-506.9" font-family="Times Roman,serif" font-size="14.00">Participant::Contact::AddressesController</text>
<polyline fill="none" stroke="black" points="241,-497.5 542,-497.5 "/>
<text text-anchor="start" x="249" y="-480.9" font-family="Times Roman,serif" font-size="14.00">create</text>
<text text-anchor="start" x="249" y="-462.9" font-family="Times Roman,serif" font-size="14.00">destroy</text>
<text text-anchor="start" x="249" y="-444.9" font-family="Times Roman,serif" font-size="14.00">edit</text>
<text text-anchor="start" x="249" y="-426.9" font-family="Times Roman,serif" font-size="14.00">index</text>
<text text-anchor="start" x="249" y="-408.9" font-family="Times Roman,serif" font-size="14.00">new</text>
<text text-anchor="start" x="249" y="-390.9" font-family="Times Roman,serif" font-size="14.00">show</text>
<text text-anchor="start" x="249" y="-372.9" font-family="Times Roman,serif" font-size="14.00">update</text>
<polyline fill="none" stroke="black" points="241,-363.5 542,-363.5 "/>
<polyline fill="none" stroke="black" points="241,-339.5 542,-339.5 "/>
<text text-anchor="start" x="249" y="-322.9" font-family="Times Roman,serif" font-size="14.00">_layout</text>
</g>
<!-- Participant::Contact::TypesController -->
<g id="node12" class="node"><title>Participant::Contact::TypesController</title>
<polyline fill="none" stroke="black" points="589,-265.5 835,-265.5 "/>
<path fill="none" stroke="black" d="M835,-265.5C841,-265.5 847,-271.5 847,-277.5"/>
<polyline fill="none" stroke="black" points="847,-277.5 847,-463.5 "/>
<path fill="none" stroke="black" d="M847,-463.5C847,-469.5 841,-475.5 835,-475.5"/>
<polyline fill="none" stroke="black" points="835,-475.5 589,-475.5 "/>
<path fill="none" stroke="black" d="M589,-475.5C583,-475.5 577,-469.5 577,-463.5"/>
<polyline fill="none" stroke="black" points="577,-463.5 577,-277.5 "/>
<path fill="none" stroke="black" d="M577,-277.5C577,-271.5 583,-265.5 589,-265.5"/>
<text text-anchor="middle" x="712" y="-458.9" font-family="Times Roman,serif" font-size="14.00">Participant::Contact::TypesController</text>
<polyline fill="none" stroke="black" points="577,-449.5 847,-449.5 "/>
<text text-anchor="start" x="585" y="-432.9" font-family="Times Roman,serif" font-size="14.00">create</text>
<text text-anchor="start" x="585" y="-414.9" font-family="Times Roman,serif" font-size="14.00">destroy</text>
<text text-anchor="start" x="585" y="-396.9" font-family="Times Roman,serif" font-size="14.00">edit</text>
<text text-anchor="start" x="585" y="-378.9" font-family="Times Roman,serif" font-size="14.00">index</text>
<text text-anchor="start" x="585" y="-360.9" font-family="Times Roman,serif" font-size="14.00">new</text>
<text text-anchor="start" x="585" y="-342.9" font-family="Times Roman,serif" font-size="14.00">show</text>
<text text-anchor="start" x="585" y="-324.9" font-family="Times Roman,serif" font-size="14.00">update</text>
<polyline fill="none" stroke="black" points="577,-315.5 847,-315.5 "/>
<polyline fill="none" stroke="black" points="577,-291.5 847,-291.5 "/>
<text text-anchor="start" x="585" y="-274.9" font-family="Times Roman,serif" font-size="14.00">_layout</text>
</g>
<!-- Participant::Contact::EmailsController -->
<g id="node13" class="node"><title>Participant::Contact::EmailsController</title>
<polyline fill="none" stroke="black" points="565,-577.5 817,-577.5 "/>
<path fill="none" stroke="black" d="M817,-577.5C823,-577.5 829,-583.5 829,-589.5"/>
<polyline fill="none" stroke="black" points="829,-589.5 829,-775.5 "/>
<path fill="none" stroke="black" d="M829,-775.5C829,-781.5 823,-787.5 817,-787.5"/>
<polyline fill="none" stroke="black" points="817,-787.5 565,-787.5 "/>
<path fill="none" stroke="black" d="M565,-787.5C559,-787.5 553,-781.5 553,-775.5"/>
<polyline fill="none" stroke="black" points="553,-775.5 553,-589.5 "/>
<path fill="none" stroke="black" d="M553,-589.5C553,-583.5 559,-577.5 565,-577.5"/>
<text text-anchor="middle" x="691" y="-770.9" font-family="Times Roman,serif" font-size="14.00">Participant::Contact::EmailsController</text>
<polyline fill="none" stroke="black" points="553,-761.5 829,-761.5 "/>
<text text-anchor="start" x="561" y="-744.9" font-family="Times Roman,serif" font-size="14.00">create</text>
<text text-anchor="start" x="561" y="-726.9" font-family="Times Roman,serif" font-size="14.00">destroy</text>
<text text-anchor="start" x="561" y="-708.9" font-family="Times Roman,serif" font-size="14.00">edit</text>
<text text-anchor="start" x="561" y="-690.9" font-family="Times Roman,serif" font-size="14.00">index</text>
<text text-anchor="start" x="561" y="-672.9" font-family="Times Roman,serif" font-size="14.00">new</text>
<text text-anchor="start" x="561" y="-654.9" font-family="Times Roman,serif" font-size="14.00">show</text>
<text text-anchor="start" x="561" y="-636.9" font-family="Times Roman,serif" font-size="14.00">update</text>
<polyline fill="none" stroke="black" points="553,-627.5 829,-627.5 "/>
<polyline fill="none" stroke="black" points="553,-603.5 829,-603.5 "/>
<text text-anchor="start" x="561" y="-586.9" font-family="Times Roman,serif" font-size="14.00">_layout</text>
</g>
<!-- Email::UsersController -->
<g id="node14" class="node"><title>Email::UsersController</title>
<polyline fill="none" stroke="black" points="781,-1.5 927,-1.5 "/>
<path fill="none" stroke="black" d="M927,-1.5C933,-1.5 939,-7.5 939,-13.5"/>
<polyline fill="none" stroke="black" points="939,-13.5 939,-199.5 "/>
<path fill="none" stroke="black" d="M939,-199.5C939,-205.5 933,-211.5 927,-211.5"/>
<polyline fill="none" stroke="black" points="927,-211.5 781,-211.5 "/>
<path fill="none" stroke="black" d="M781,-211.5C775,-211.5 769,-205.5 769,-199.5"/>
<polyline fill="none" stroke="black" points="769,-199.5 769,-13.5 "/>
<path fill="none" stroke="black" d="M769,-13.5C769,-7.5 775,-1.5 781,-1.5"/>
<text text-anchor="middle" x="854" y="-194.9" font-family="Times Roman,serif" font-size="14.00">Email::UsersController</text>
<polyline fill="none" stroke="black" points="769,-185.5 939,-185.5 "/>
<text text-anchor="start" x="777" y="-168.9" font-family="Times Roman,serif" font-size="14.00">create</text>
<text text-anchor="start" x="777" y="-150.9" font-family="Times Roman,serif" font-size="14.00">destroy</text>
<text text-anchor="start" x="777" y="-132.9" font-family="Times Roman,serif" font-size="14.00">edit</text>
<text text-anchor="start" x="777" y="-114.9" font-family="Times Roman,serif" font-size="14.00">index</text>
<text text-anchor="start" x="777" y="-96.9" font-family="Times Roman,serif" font-size="14.00">new</text>
<text text-anchor="start" x="777" y="-78.9" font-family="Times Roman,serif" font-size="14.00">show</text>
<text text-anchor="start" x="777" y="-60.9" font-family="Times Roman,serif" font-size="14.00">update</text>
<polyline fill="none" stroke="black" points="769,-51.5 939,-51.5 "/>
<polyline fill="none" stroke="black" points="769,-27.5 939,-27.5 "/>
<text text-anchor="start" x="777" y="-10.9" font-family="Times Roman,serif" font-size="14.00">_layout</text>
</g>
<!-- Email::DomainsController -->
<g id="node15" class="node"><title>Email::DomainsController</title>
<polyline fill="none" stroke="black" points="589,-841.5 757,-841.5 "/>
<path fill="none" stroke="black" d="M757,-841.5C763,-841.5 769,-847.5 769,-853.5"/>
<polyline fill="none" stroke="black" points="769,-853.5 769,-1039.5 "/>
<path fill="none" stroke="black" d="M769,-1039.5C769,-1045.5 763,-1051.5 757,-1051.5"/>
<polyline fill="none" stroke="black" points="757,-1051.5 589,-1051.5 "/>
<path fill="none" stroke="black" d="M589,-1051.5C583,-1051.5 577,-1045.5 577,-1039.5"/>
<polyline fill="none" stroke="black" points="577,-1039.5 577,-853.5 "/>
<path fill="none" stroke="black" d="M577,-853.5C577,-847.5 583,-841.5 589,-841.5"/>
<text text-anchor="middle" x="673" y="-1034.9" font-family="Times Roman,serif" font-size="14.00">Email::DomainsController</text>
<polyline fill="none" stroke="black" points="577,-1025.5 769,-1025.5 "/>
<text text-anchor="start" x="585" y="-1008.9" font-family="Times Roman,serif" font-size="14.00">create</text>
<text text-anchor="start" x="585" y="-990.9" font-family="Times Roman,serif" font-size="14.00">destroy</text>
<text text-anchor="start" x="585" y="-972.9" font-family="Times Roman,serif" font-size="14.00">edit</text>
<text text-anchor="start" x="585" y="-954.9" font-family="Times Roman,serif" font-size="14.00">index</text>
<text text-anchor="start" x="585" y="-936.9" font-family="Times Roman,serif" font-size="14.00">new</text>
<text text-anchor="start" x="585" y="-918.9" font-family="Times Roman,serif" font-size="14.00">show</text>
<text text-anchor="start" x="585" y="-900.9" font-family="Times Roman,serif" font-size="14.00">update</text>
<polyline fill="none" stroke="black" points="577,-891.5 769,-891.5 "/>
<polyline fill="none" stroke="black" points="577,-867.5 769,-867.5 "/>
<text text-anchor="start" x="585" y="-850.9" font-family="Times Roman,serif" font-size="14.00">_layout</text>
</g>
</g>
</svg>
