<?xml version="1.0" encoding="UTF-8" standalone="no"?>
<!DOCTYPE svg PUBLIC "-//W3C//DTD SVG 1.1//EN"
 "http://www.w3.org/Graphics/SVG/1.1/DTD/svg11.dtd">
<!-- Generated by graphviz version 2.26.3 (20100126.1600)
 -->
<!-- Title: controllers_diagram Pages: 1 -->
<svg width="806pt" height="893pt"
 viewBox="0.00 0.00 806.00 893.00" xmlns="http://www.w3.org/2000/svg" xmlns:xlink="http://www.w3.org/1999/xlink">
<g id="graph1" class="graph" transform="scale(1 1) rotate(0) translate(4 889)">
<title>controllers_diagram</title>
<polygon fill="white" stroke="white" points="-4,5 -4,-889 803,-889 803,5 -4,5"/>
<!-- _diagram_info -->
<g id="node1" class="node"><title>_diagram_info</title>
<text text-anchor="start" x="282" y="-141.3" font-family="Times Roman,serif" font-size="13.00">Controllers diagram</text>
<text text-anchor="start" x="282" y="-124.3" font-family="Times Roman,serif" font-size="13.00">Date: Aug 04 2011 &#45; 00:17</text>
<text text-anchor="start" x="282" y="-107.3" font-family="Times Roman,serif" font-size="13.00">Migration version: 20110804031428</text>
<text text-anchor="start" x="282" y="-90.3" font-family="Times Roman,serif" font-size="13.00">Generated by RailRoady 1.0.2</text>
<text text-anchor="start" x="282" y="-73.3" font-family="Times Roman,serif" font-size="13.00">http://railroady.prestonlee.com</text>
</g>
<!-- PhonesController -->
<g id="node2" class="node"><title>PhonesController</title>
<polyline fill="none" stroke="black" points="13,-295.5 125,-295.5 "/>
<path fill="none" stroke="black" d="M125,-295.5C131,-295.5 137,-301.5 137,-307.5"/>
<polyline fill="none" stroke="black" points="137,-307.5 137,-493.5 "/>
<path fill="none" stroke="black" d="M137,-493.5C137,-499.5 131,-505.5 125,-505.5"/>
<polyline fill="none" stroke="black" points="125,-505.5 13,-505.5 "/>
<path fill="none" stroke="black" d="M13,-505.5C7,-505.5 1,-499.5 1,-493.5"/>
<polyline fill="none" stroke="black" points="1,-493.5 1,-307.5 "/>
<path fill="none" stroke="black" d="M1,-307.5C1,-301.5 7,-295.5 13,-295.5"/>
<text text-anchor="middle" x="69" y="-488.9" font-family="Times Roman,serif" font-size="14.00">PhonesController</text>
<polyline fill="none" stroke="black" points="1,-479.5 137,-479.5 "/>
<text text-anchor="start" x="9" y="-462.9" font-family="Times Roman,serif" font-size="14.00">create</text>
<text text-anchor="start" x="9" y="-444.9" font-family="Times Roman,serif" font-size="14.00">destroy</text>
<text text-anchor="start" x="9" y="-426.9" font-family="Times Roman,serif" font-size="14.00">edit</text>
<text text-anchor="start" x="9" y="-408.9" font-family="Times Roman,serif" font-size="14.00">index</text>
<text text-anchor="start" x="9" y="-390.9" font-family="Times Roman,serif" font-size="14.00">new</text>
<text text-anchor="start" x="9" y="-372.9" font-family="Times Roman,serif" font-size="14.00">show</text>
<text text-anchor="start" x="9" y="-354.9" font-family="Times Roman,serif" font-size="14.00">update</text>
<polyline fill="none" stroke="black" points="1,-345.5 137,-345.5 "/>
<polyline fill="none" stroke="black" points="1,-321.5 137,-321.5 "/>
<text text-anchor="start" x="9" y="-304.9" font-family="Times Roman,serif" font-size="14.00">_layout</text>
</g>
<!-- Taxe::ValuesController -->
<g id="node3" class="node"><title>Taxe::ValuesController</title>
<polyline fill="none" stroke="black" points="433,-442.5 579,-442.5 "/>
<path fill="none" stroke="black" d="M579,-442.5C585,-442.5 591,-448.5 591,-454.5"/>
<polyline fill="none" stroke="black" points="591,-454.5 591,-640.5 "/>
<path fill="none" stroke="black" d="M591,-640.5C591,-646.5 585,-652.5 579,-652.5"/>
<polyline fill="none" stroke="black" points="579,-652.5 433,-652.5 "/>
<path fill="none" stroke="black" d="M433,-652.5C427,-652.5 421,-646.5 421,-640.5"/>
<polyline fill="none" stroke="black" points="421,-640.5 421,-454.5 "/>
<path fill="none" stroke="black" d="M421,-454.5C421,-448.5 427,-442.5 433,-442.5"/>
<text text-anchor="middle" x="506" y="-635.9" font-family="Times Roman,serif" font-size="14.00">Taxe::ValuesController</text>
<polyline fill="none" stroke="black" points="421,-626.5 591,-626.5 "/>
<text text-anchor="start" x="429" y="-609.9" font-family="Times Roman,serif" font-size="14.00">create</text>
<text text-anchor="start" x="429" y="-591.9" font-family="Times Roman,serif" font-size="14.00">destroy</text>
<text text-anchor="start" x="429" y="-573.9" font-family="Times Roman,serif" font-size="14.00">edit</text>
<text text-anchor="start" x="429" y="-555.9" font-family="Times Roman,serif" font-size="14.00">index</text>
<text text-anchor="start" x="429" y="-537.9" font-family="Times Roman,serif" font-size="14.00">new</text>
<text text-anchor="start" x="429" y="-519.9" font-family="Times Roman,serif" font-size="14.00">show</text>
<text text-anchor="start" x="429" y="-501.9" font-family="Times Roman,serif" font-size="14.00">update</text>
<polyline fill="none" stroke="black" points="421,-492.5 591,-492.5 "/>
<polyline fill="none" stroke="black" points="421,-468.5 591,-468.5 "/>
<text text-anchor="start" x="429" y="-451.9" font-family="Times Roman,serif" font-size="14.00">_layout</text>
</g>
<!-- Taxe::GroupsController -->
<g id="node4" class="node"><title>Taxe::GroupsController</title>
<polyline fill="none" stroke="black" points="181,-190.5 332,-190.5 "/>
<path fill="none" stroke="black" d="M332,-190.5C338,-190.5 344,-196.5 344,-202.5"/>
<polyline fill="none" stroke="black" points="344,-202.5 344,-388.5 "/>
<path fill="none" stroke="black" d="M344,-388.5C344,-394.5 338,-400.5 332,-400.5"/>
<polyline fill="none" stroke="black" points="332,-400.5 181,-400.5 "/>
<path fill="none" stroke="black" d="M181,-400.5C175,-400.5 169,-394.5 169,-388.5"/>
<polyline fill="none" stroke="black" points="169,-388.5 169,-202.5 "/>
<path fill="none" stroke="black" d="M169,-202.5C169,-196.5 175,-190.5 181,-190.5"/>
<text text-anchor="middle" x="256.5" y="-383.9" font-family="Times Roman,serif" font-size="14.00">Taxe::GroupsController</text>
<polyline fill="none" stroke="black" points="169,-374.5 344,-374.5 "/>
<text text-anchor="start" x="177" y="-357.9" font-family="Times Roman,serif" font-size="14.00">create</text>
<text text-anchor="start" x="177" y="-339.9" font-family="Times Roman,serif" font-size="14.00">destroy</text>
<text text-anchor="start" x="177" y="-321.9" font-family="Times Roman,serif" font-size="14.00">edit</text>
<text text-anchor="start" x="177" y="-303.9" font-family="Times Roman,serif" font-size="14.00">index</text>
<text text-anchor="start" x="177" y="-285.9" font-family="Times Roman,serif" font-size="14.00">new</text>
<text text-anchor="start" x="177" y="-267.9" font-family="Times Roman,serif" font-size="14.00">show</text>
<text text-anchor="start" x="177" y="-249.9" font-family="Times Roman,serif" font-size="14.00">update</text>
<polyline fill="none" stroke="black" points="169,-240.5 344,-240.5 "/>
<polyline fill="none" stroke="black" points="169,-216.5 344,-216.5 "/>
<text text-anchor="start" x="177" y="-199.9" font-family="Times Roman,serif" font-size="14.00">_layout</text>
</g>
<!-- Taxe::TypesController -->
<g id="node5" class="node"><title>Taxe::TypesController</title>
<polyline fill="none" stroke="black" points="223,-442.5 363,-442.5 "/>
<path fill="none" stroke="black" d="M363,-442.5C369,-442.5 375,-448.5 375,-454.5"/>
<polyline fill="none" stroke="black" points="375,-454.5 375,-640.5 "/>
<path fill="none" stroke="black" d="M375,-640.5C375,-646.5 369,-652.5 363,-652.5"/>
<polyline fill="none" stroke="black" points="363,-652.5 223,-652.5 "/>
<path fill="none" stroke="black" d="M223,-652.5C217,-652.5 211,-646.5 211,-640.5"/>
<polyline fill="none" stroke="black" points="211,-640.5 211,-454.5 "/>
<path fill="none" stroke="black" d="M211,-454.5C211,-448.5 217,-442.5 223,-442.5"/>
<text text-anchor="middle" x="293" y="-635.9" font-family="Times Roman,serif" font-size="14.00">Taxe::TypesController</text>
<polyline fill="none" stroke="black" points="211,-626.5 375,-626.5 "/>
<text text-anchor="start" x="219" y="-609.9" font-family="Times Roman,serif" font-size="14.00">create</text>
<text text-anchor="start" x="219" y="-591.9" font-family="Times Roman,serif" font-size="14.00">destroy</text>
<text text-anchor="start" x="219" y="-573.9" font-family="Times Roman,serif" font-size="14.00">edit</text>
<text text-anchor="start" x="219" y="-555.9" font-family="Times Roman,serif" font-size="14.00">index</text>
<text text-anchor="start" x="219" y="-537.9" font-family="Times Roman,serif" font-size="14.00">new</text>
<text text-anchor="start" x="219" y="-519.9" font-family="Times Roman,serif" font-size="14.00">show</text>
<text text-anchor="start" x="219" y="-501.9" font-family="Times Roman,serif" font-size="14.00">update</text>
<polyline fill="none" stroke="black" points="211,-492.5 375,-492.5 "/>
<polyline fill="none" stroke="black" points="211,-468.5 375,-468.5 "/>
<text text-anchor="start" x="219" y="-451.9" font-family="Times Roman,serif" font-size="14.00">_layout</text>
</g>
<!-- AddressesController -->
<g id="node6" class="node"><title>AddressesController</title>
<polyline fill="none" stroke="black" points="34,-547.5 165,-547.5 "/>
<path fill="none" stroke="black" d="M165,-547.5C171,-547.5 177,-553.5 177,-559.5"/>
<polyline fill="none" stroke="black" points="177,-559.5 177,-745.5 "/>
<path fill="none" stroke="black" d="M177,-745.5C177,-751.5 171,-757.5 165,-757.5"/>
<polyline fill="none" stroke="black" points="165,-757.5 34,-757.5 "/>
<path fill="none" stroke="black" d="M34,-757.5C28,-757.5 22,-751.5 22,-745.5"/>
<polyline fill="none" stroke="black" points="22,-745.5 22,-559.5 "/>
<path fill="none" stroke="black" d="M22,-559.5C22,-553.5 28,-547.5 34,-547.5"/>
<text text-anchor="middle" x="99.5" y="-740.9" font-family="Times Roman,serif" font-size="14.00">AddressesController</text>
<polyline fill="none" stroke="black" points="22,-731.5 177,-731.5 "/>
<text text-anchor="start" x="30" y="-714.9" font-family="Times Roman,serif" font-size="14.00">create</text>
<text text-anchor="start" x="30" y="-696.9" font-family="Times Roman,serif" font-size="14.00">destroy</text>
<text text-anchor="start" x="30" y="-678.9" font-family="Times Roman,serif" font-size="14.00">edit</text>
<text text-anchor="start" x="30" y="-660.9" font-family="Times Roman,serif" font-size="14.00">index</text>
<text text-anchor="start" x="30" y="-642.9" font-family="Times Roman,serif" font-size="14.00">new</text>
<text text-anchor="start" x="30" y="-624.9" font-family="Times Roman,serif" font-size="14.00">show</text>
<text text-anchor="start" x="30" y="-606.9" font-family="Times Roman,serif" font-size="14.00">update</text>
<polyline fill="none" stroke="black" points="22,-597.5 177,-597.5 "/>
<polyline fill="none" stroke="black" points="22,-573.5 177,-573.5 "/>
<text text-anchor="start" x="30" y="-556.9" font-family="Times Roman,serif" font-size="14.00">_layout</text>
</g>
<!-- ContactTypesController -->
<g id="node7" class="node"><title>ContactTypesController</title>
<polyline fill="none" stroke="black" points="391,-190.5 545,-190.5 "/>
<path fill="none" stroke="black" d="M545,-190.5C551,-190.5 557,-196.5 557,-202.5"/>
<polyline fill="none" stroke="black" points="557,-202.5 557,-388.5 "/>
<path fill="none" stroke="black" d="M557,-388.5C557,-394.5 551,-400.5 545,-400.5"/>
<polyline fill="none" stroke="black" points="545,-400.5 391,-400.5 "/>
<path fill="none" stroke="black" d="M391,-400.5C385,-400.5 379,-394.5 379,-388.5"/>
<polyline fill="none" stroke="black" points="379,-388.5 379,-202.5 "/>
<path fill="none" stroke="black" d="M379,-202.5C379,-196.5 385,-190.5 391,-190.5"/>
<text text-anchor="middle" x="468" y="-383.9" font-family="Times Roman,serif" font-size="14.00">ContactTypesController</text>
<polyline fill="none" stroke="black" points="379,-374.5 557,-374.5 "/>
<text text-anchor="start" x="387" y="-357.9" font-family="Times Roman,serif" font-size="14.00">create</text>
<text text-anchor="start" x="387" y="-339.9" font-family="Times Roman,serif" font-size="14.00">destroy</text>
<text text-anchor="start" x="387" y="-321.9" font-family="Times Roman,serif" font-size="14.00">edit</text>
<text text-anchor="start" x="387" y="-303.9" font-family="Times Roman,serif" font-size="14.00">index</text>
<text text-anchor="start" x="387" y="-285.9" font-family="Times Roman,serif" font-size="14.00">new</text>
<text text-anchor="start" x="387" y="-267.9" font-family="Times Roman,serif" font-size="14.00">show</text>
<text text-anchor="start" x="387" y="-249.9" font-family="Times Roman,serif" font-size="14.00">update</text>
<polyline fill="none" stroke="black" points="379,-240.5 557,-240.5 "/>
<polyline fill="none" stroke="black" points="379,-216.5 557,-216.5 "/>
<text text-anchor="start" x="387" y="-199.9" font-family="Times Roman,serif" font-size="14.00">_layout</text>
</g>
<!-- TaxesController -->
<g id="node8" class="node"><title>TaxesController</title>
<polyline fill="none" stroke="black" points="643,-421.5 742,-421.5 "/>
<path fill="none" stroke="black" d="M742,-421.5C748,-421.5 754,-427.5 754,-433.5"/>
<polyline fill="none" stroke="black" points="754,-433.5 754,-619.5 "/>
<path fill="none" stroke="black" d="M754,-619.5C754,-625.5 748,-631.5 742,-631.5"/>
<polyline fill="none" stroke="black" points="742,-631.5 643,-631.5 "/>
<path fill="none" stroke="black" d="M643,-631.5C637,-631.5 631,-625.5 631,-619.5"/>
<polyline fill="none" stroke="black" points="631,-619.5 631,-433.5 "/>
<path fill="none" stroke="black" d="M631,-433.5C631,-427.5 637,-421.5 643,-421.5"/>
<text text-anchor="middle" x="692.5" y="-614.9" font-family="Times Roman,serif" font-size="14.00">TaxesController</text>
<polyline fill="none" stroke="black" points="631,-605.5 754,-605.5 "/>
<text text-anchor="start" x="639" y="-588.9" font-family="Times Roman,serif" font-size="14.00">create</text>
<text text-anchor="start" x="639" y="-570.9" font-family="Times Roman,serif" font-size="14.00">destroy</text>
<text text-anchor="start" x="639" y="-552.9" font-family="Times Roman,serif" font-size="14.00">edit</text>
<text text-anchor="start" x="639" y="-534.9" font-family="Times Roman,serif" font-size="14.00">index</text>
<text text-anchor="start" x="639" y="-516.9" font-family="Times Roman,serif" font-size="14.00">new</text>
<text text-anchor="start" x="639" y="-498.9" font-family="Times Roman,serif" font-size="14.00">show</text>
<text text-anchor="start" x="639" y="-480.9" font-family="Times Roman,serif" font-size="14.00">update</text>
<polyline fill="none" stroke="black" points="631,-471.5 754,-471.5 "/>
<polyline fill="none" stroke="black" points="631,-447.5 754,-447.5 "/>
<text text-anchor="start" x="639" y="-430.9" font-family="Times Roman,serif" font-size="14.00">_layout</text>
</g>
<!-- PeopleController -->
<g id="node9" class="node"><title>PeopleController</title>
<polyline fill="none" stroke="black" points="13,-43.5 120,-43.5 "/>
<path fill="none" stroke="black" d="M120,-43.5C126,-43.5 132,-49.5 132,-55.5"/>
<polyline fill="none" stroke="black" points="132,-55.5 132,-241.5 "/>
<path fill="none" stroke="black" d="M132,-241.5C132,-247.5 126,-253.5 120,-253.5"/>
<polyline fill="none" stroke="black" points="120,-253.5 13,-253.5 "/>
<path fill="none" stroke="black" d="M13,-253.5C7,-253.5 1,-247.5 1,-241.5"/>
<polyline fill="none" stroke="black" points="1,-241.5 1,-55.5 "/>
<path fill="none" stroke="black" d="M1,-55.5C1,-49.5 7,-43.5 13,-43.5"/>
<text text-anchor="middle" x="66.5" y="-236.9" font-family="Times Roman,serif" font-size="14.00">PeopleController</text>
<polyline fill="none" stroke="black" points="1,-227.5 132,-227.5 "/>
<text text-anchor="start" x="9" y="-210.9" font-family="Times Roman,serif" font-size="14.00">create</text>
<text text-anchor="start" x="9" y="-192.9" font-family="Times Roman,serif" font-size="14.00">destroy</text>
<text text-anchor="start" x="9" y="-174.9" font-family="Times Roman,serif" font-size="14.00">edit</text>
<text text-anchor="start" x="9" y="-156.9" font-family="Times Roman,serif" font-size="14.00">index</text>
<text text-anchor="start" x="9" y="-138.9" font-family="Times Roman,serif" font-size="14.00">new</text>
<text text-anchor="start" x="9" y="-120.9" font-family="Times Roman,serif" font-size="14.00">show</text>
<text text-anchor="start" x="9" y="-102.9" font-family="Times Roman,serif" font-size="14.00">update</text>
<polyline fill="none" stroke="black" points="1,-93.5 132,-93.5 "/>
<polyline fill="none" stroke="black" points="1,-69.5 132,-69.5 "/>
<text text-anchor="start" x="9" y="-52.9" font-family="Times Roman,serif" font-size="14.00">_layout</text>
</g>
<!-- ApplicationController -->
<g id="node10" class="node"><title>ApplicationController</title>
<polyline fill="none" stroke="black" points="580,-1.5 785,-1.5 "/>
<path fill="none" stroke="black" d="M785,-1.5C791,-1.5 797,-7.5 797,-13.5"/>
<polyline fill="none" stroke="black" points="797,-13.5 797,-109.5 "/>
<path fill="none" stroke="black" d="M797,-109.5C797,-115.5 791,-121.5 785,-121.5"/>
<polyline fill="none" stroke="black" points="785,-121.5 580,-121.5 "/>
<path fill="none" stroke="black" d="M580,-121.5C574,-121.5 568,-115.5 568,-109.5"/>
<polyline fill="none" stroke="black" points="568,-109.5 568,-13.5 "/>
<path fill="none" stroke="black" d="M568,-13.5C568,-7.5 574,-1.5 580,-1.5"/>
<text text-anchor="middle" x="682.5" y="-104.9" font-family="Times Roman,serif" font-size="14.00">ApplicationController</text>
<polyline fill="none" stroke="black" points="568,-95.5 797,-95.5 "/>
<text text-anchor="start" x="576" y="-78.9" font-family="Times Roman,serif" font-size="14.00">_one_time_conditions_valid_8?</text>
<polyline fill="none" stroke="black" points="568,-69.5 797,-69.5 "/>
<polyline fill="none" stroke="black" points="568,-45.5 797,-45.5 "/>
<text text-anchor="start" x="576" y="-28.9" font-family="Times Roman,serif" font-size="14.00">_layout</text>
<text text-anchor="start" x="576" y="-10.9" font-family="Times Roman,serif" font-size="14.00">_run_process_action_callbacks</text>
</g>
<!-- EmailsController -->
<g id="node11" class="node"><title>EmailsController</title>
<polyline fill="none" stroke="black" points="601,-169.5 707,-169.5 "/>
<path fill="none" stroke="black" d="M707,-169.5C713,-169.5 719,-175.5 719,-181.5"/>
<polyline fill="none" stroke="black" points="719,-181.5 719,-367.5 "/>
<path fill="none" stroke="black" d="M719,-367.5C719,-373.5 713,-379.5 707,-379.5"/>
<polyline fill="none" stroke="black" points="707,-379.5 601,-379.5 "/>
<path fill="none" stroke="black" d="M601,-379.5C595,-379.5 589,-373.5 589,-367.5"/>
<polyline fill="none" stroke="black" points="589,-367.5 589,-181.5 "/>
<path fill="none" stroke="black" d="M589,-181.5C589,-175.5 595,-169.5 601,-169.5"/>
<text text-anchor="middle" x="654" y="-362.9" font-family="Times Roman,serif" font-size="14.00">EmailsController</text>
<polyline fill="none" stroke="black" points="589,-353.5 719,-353.5 "/>
<text text-anchor="start" x="597" y="-336.9" font-family="Times Roman,serif" font-size="14.00">create</text>
<text text-anchor="start" x="597" y="-318.9" font-family="Times Roman,serif" font-size="14.00">destroy</text>
<text text-anchor="start" x="597" y="-300.9" font-family="Times Roman,serif" font-size="14.00">edit</text>
<text text-anchor="start" x="597" y="-282.9" font-family="Times Roman,serif" font-size="14.00">index</text>
<text text-anchor="start" x="597" y="-264.9" font-family="Times Roman,serif" font-size="14.00">new</text>
<text text-anchor="start" x="597" y="-246.9" font-family="Times Roman,serif" font-size="14.00">show</text>
<text text-anchor="start" x="597" y="-228.9" font-family="Times Roman,serif" font-size="14.00">update</text>
<polyline fill="none" stroke="black" points="589,-219.5 719,-219.5 "/>
<polyline fill="none" stroke="black" points="589,-195.5 719,-195.5 "/>
<text text-anchor="start" x="597" y="-178.9" font-family="Times Roman,serif" font-size="14.00">_layout</text>
</g>
<!-- PlacesController -->
<g id="node12" class="node"><title>PlacesController</title>
<polyline fill="none" stroke="black" points="664,-673.5 768,-673.5 "/>
<path fill="none" stroke="black" d="M768,-673.5C774,-673.5 780,-679.5 780,-685.5"/>
<polyline fill="none" stroke="black" points="780,-685.5 780,-871.5 "/>
<path fill="none" stroke="black" d="M780,-871.5C780,-877.5 774,-883.5 768,-883.5"/>
<polyline fill="none" stroke="black" points="768,-883.5 664,-883.5 "/>
<path fill="none" stroke="black" d="M664,-883.5C658,-883.5 652,-877.5 652,-871.5"/>
<polyline fill="none" stroke="black" points="652,-871.5 652,-685.5 "/>
<path fill="none" stroke="black" d="M652,-685.5C652,-679.5 658,-673.5 664,-673.5"/>
<text text-anchor="middle" x="716" y="-866.9" font-family="Times Roman,serif" font-size="14.00">PlacesController</text>
<polyline fill="none" stroke="black" points="652,-857.5 780,-857.5 "/>
<text text-anchor="start" x="660" y="-840.9" font-family="Times Roman,serif" font-size="14.00">create</text>
<text text-anchor="start" x="660" y="-822.9" font-family="Times Roman,serif" font-size="14.00">destroy</text>
<text text-anchor="start" x="660" y="-804.9" font-family="Times Roman,serif" font-size="14.00">edit</text>
<text text-anchor="start" x="660" y="-786.9" font-family="Times Roman,serif" font-size="14.00">index</text>
<text text-anchor="start" x="660" y="-768.9" font-family="Times Roman,serif" font-size="14.00">new</text>
<text text-anchor="start" x="660" y="-750.9" font-family="Times Roman,serif" font-size="14.00">show</text>
<text text-anchor="start" x="660" y="-732.9" font-family="Times Roman,serif" font-size="14.00">update</text>
<polyline fill="none" stroke="black" points="652,-723.5 780,-723.5 "/>
<polyline fill="none" stroke="black" points="652,-699.5 780,-699.5 "/>
<text text-anchor="start" x="660" y="-682.9" font-family="Times Roman,serif" font-size="14.00">_layout</text>
</g>
</g>
</svg>
