<?xml version="1.0" encoding="UTF-8" standalone="no"?>
<!DOCTYPE svg PUBLIC "-//W3C//DTD SVG 1.1//EN"
 "http://www.w3.org/Graphics/SVG/1.1/DTD/svg11.dtd">
<!-- Generated by graphviz version 2.26.3 (20100126.1600)
 -->
<!-- Title: controllers_diagram Pages: 1 -->
<svg width="1031pt" height="1013pt"
 viewBox="0.00 0.00 1031.00 1013.00" xmlns="http://www.w3.org/2000/svg" xmlns:xlink="http://www.w3.org/1999/xlink">
<g id="graph1" class="graph" transform="scale(1 1) rotate(0) translate(4 1009)">
<title>controllers_diagram</title>
<polygon fill="white" stroke="white" points="-4,5 -4,-1009 1028,-1009 1028,5 -4,5"/>
<!-- _diagram_info -->
<g id="node1" class="node"><title>_diagram_info</title>
<text text-anchor="start" x="513" y="-150.3" font-family="Times Roman,serif" font-size="13.00">Controllers diagram</text>
<text text-anchor="start" x="513" y="-133.3" font-family="Times Roman,serif" font-size="13.00">Date: Aug 08 2011 &#45; 00:19</text>
<text text-anchor="start" x="513" y="-116.3" font-family="Times Roman,serif" font-size="13.00">Migration version: 20110808010409</text>
<text text-anchor="start" x="513" y="-99.3" font-family="Times Roman,serif" font-size="13.00">Generated by RailRoady 1.0.2</text>
<text text-anchor="start" x="513" y="-82.3" font-family="Times Roman,serif" font-size="13.00">http://railroady.prestonlee.com</text>
</g>
<!-- Taxe::ValuesController -->
<g id="node2" class="node"><title>Taxe::ValuesController</title>
<polyline fill="none" stroke="black" points="829,-793.5 975,-793.5 "/>
<path fill="none" stroke="black" d="M975,-793.5C981,-793.5 987,-799.5 987,-805.5"/>
<polyline fill="none" stroke="black" points="987,-805.5 987,-991.5 "/>
<path fill="none" stroke="black" d="M987,-991.5C987,-997.5 981,-1003.5 975,-1003.5"/>
<polyline fill="none" stroke="black" points="975,-1003.5 829,-1003.5 "/>
<path fill="none" stroke="black" d="M829,-1003.5C823,-1003.5 817,-997.5 817,-991.5"/>
<polyline fill="none" stroke="black" points="817,-991.5 817,-805.5 "/>
<path fill="none" stroke="black" d="M817,-805.5C817,-799.5 823,-793.5 829,-793.5"/>
<text text-anchor="middle" x="902" y="-986.9" font-family="Times Roman,serif" font-size="14.00">Taxe::ValuesController</text>
<polyline fill="none" stroke="black" points="817,-977.5 987,-977.5 "/>
<text text-anchor="start" x="825" y="-960.9" font-family="Times Roman,serif" font-size="14.00">create</text>
<text text-anchor="start" x="825" y="-942.9" font-family="Times Roman,serif" font-size="14.00">destroy</text>
<text text-anchor="start" x="825" y="-924.9" font-family="Times Roman,serif" font-size="14.00">edit</text>
<text text-anchor="start" x="825" y="-906.9" font-family="Times Roman,serif" font-size="14.00">index</text>
<text text-anchor="start" x="825" y="-888.9" font-family="Times Roman,serif" font-size="14.00">new</text>
<text text-anchor="start" x="825" y="-870.9" font-family="Times Roman,serif" font-size="14.00">show</text>
<text text-anchor="start" x="825" y="-852.9" font-family="Times Roman,serif" font-size="14.00">update</text>
<polyline fill="none" stroke="black" points="817,-843.5 987,-843.5 "/>
<polyline fill="none" stroke="black" points="817,-819.5 987,-819.5 "/>
<text text-anchor="start" x="825" y="-802.9" font-family="Times Roman,serif" font-size="14.00">_layout</text>
</g>
<!-- Taxe::GroupsController -->
<g id="node3" class="node"><title>Taxe::GroupsController</title>
<polyline fill="none" stroke="black" points="85,-721.5 236,-721.5 "/>
<path fill="none" stroke="black" d="M236,-721.5C242,-721.5 248,-727.5 248,-733.5"/>
<polyline fill="none" stroke="black" points="248,-733.5 248,-919.5 "/>
<path fill="none" stroke="black" d="M248,-919.5C248,-925.5 242,-931.5 236,-931.5"/>
<polyline fill="none" stroke="black" points="236,-931.5 85,-931.5 "/>
<path fill="none" stroke="black" d="M85,-931.5C79,-931.5 73,-925.5 73,-919.5"/>
<polyline fill="none" stroke="black" points="73,-919.5 73,-733.5 "/>
<path fill="none" stroke="black" d="M73,-733.5C73,-727.5 79,-721.5 85,-721.5"/>
<text text-anchor="middle" x="160.5" y="-914.9" font-family="Times Roman,serif" font-size="14.00">Taxe::GroupsController</text>
<polyline fill="none" stroke="black" points="73,-905.5 248,-905.5 "/>
<text text-anchor="start" x="81" y="-888.9" font-family="Times Roman,serif" font-size="14.00">create</text>
<text text-anchor="start" x="81" y="-870.9" font-family="Times Roman,serif" font-size="14.00">destroy</text>
<text text-anchor="start" x="81" y="-852.9" font-family="Times Roman,serif" font-size="14.00">edit</text>
<text text-anchor="start" x="81" y="-834.9" font-family="Times Roman,serif" font-size="14.00">index</text>
<text text-anchor="start" x="81" y="-816.9" font-family="Times Roman,serif" font-size="14.00">new</text>
<text text-anchor="start" x="81" y="-798.9" font-family="Times Roman,serif" font-size="14.00">show</text>
<text text-anchor="start" x="81" y="-780.9" font-family="Times Roman,serif" font-size="14.00">update</text>
<polyline fill="none" stroke="black" points="73,-771.5 248,-771.5 "/>
<polyline fill="none" stroke="black" points="73,-747.5 248,-747.5 "/>
<text text-anchor="start" x="81" y="-730.9" font-family="Times Roman,serif" font-size="14.00">_layout</text>
</g>
<!-- Taxe::TypesController -->
<g id="node4" class="node"><title>Taxe::TypesController</title>
<polyline fill="none" stroke="black" points="613,-793.5 753,-793.5 "/>
<path fill="none" stroke="black" d="M753,-793.5C759,-793.5 765,-799.5 765,-805.5"/>
<polyline fill="none" stroke="black" points="765,-805.5 765,-991.5 "/>
<path fill="none" stroke="black" d="M765,-991.5C765,-997.5 759,-1003.5 753,-1003.5"/>
<polyline fill="none" stroke="black" points="753,-1003.5 613,-1003.5 "/>
<path fill="none" stroke="black" d="M613,-1003.5C607,-1003.5 601,-997.5 601,-991.5"/>
<polyline fill="none" stroke="black" points="601,-991.5 601,-805.5 "/>
<path fill="none" stroke="black" d="M601,-805.5C601,-799.5 607,-793.5 613,-793.5"/>
<text text-anchor="middle" x="683" y="-986.9" font-family="Times Roman,serif" font-size="14.00">Taxe::TypesController</text>
<polyline fill="none" stroke="black" points="601,-977.5 765,-977.5 "/>
<text text-anchor="start" x="609" y="-960.9" font-family="Times Roman,serif" font-size="14.00">create</text>
<text text-anchor="start" x="609" y="-942.9" font-family="Times Roman,serif" font-size="14.00">destroy</text>
<text text-anchor="start" x="609" y="-924.9" font-family="Times Roman,serif" font-size="14.00">edit</text>
<text text-anchor="start" x="609" y="-906.9" font-family="Times Roman,serif" font-size="14.00">index</text>
<text text-anchor="start" x="609" y="-888.9" font-family="Times Roman,serif" font-size="14.00">new</text>
<text text-anchor="start" x="609" y="-870.9" font-family="Times Roman,serif" font-size="14.00">show</text>
<text text-anchor="start" x="609" y="-852.9" font-family="Times Roman,serif" font-size="14.00">update</text>
<polyline fill="none" stroke="black" points="601,-843.5 765,-843.5 "/>
<polyline fill="none" stroke="black" points="601,-819.5 765,-819.5 "/>
<text text-anchor="start" x="609" y="-802.9" font-family="Times Roman,serif" font-size="14.00">_layout</text>
</g>
<!-- ApplicationController -->
<g id="node5" class="node"><title>ApplicationController</title>
<polyline fill="none" stroke="black" points="805,-1.5 1010,-1.5 "/>
<path fill="none" stroke="black" d="M1010,-1.5C1016,-1.5 1022,-7.5 1022,-13.5"/>
<polyline fill="none" stroke="black" points="1022,-13.5 1022,-109.5 "/>
<path fill="none" stroke="black" d="M1022,-109.5C1022,-115.5 1016,-121.5 1010,-121.5"/>
<polyline fill="none" stroke="black" points="1010,-121.5 805,-121.5 "/>
<path fill="none" stroke="black" d="M805,-121.5C799,-121.5 793,-115.5 793,-109.5"/>
<polyline fill="none" stroke="black" points="793,-109.5 793,-13.5 "/>
<path fill="none" stroke="black" d="M793,-13.5C793,-7.5 799,-1.5 805,-1.5"/>
<text text-anchor="middle" x="907.5" y="-104.9" font-family="Times Roman,serif" font-size="14.00">ApplicationController</text>
<polyline fill="none" stroke="black" points="793,-95.5 1022,-95.5 "/>
<text text-anchor="start" x="801" y="-78.9" font-family="Times Roman,serif" font-size="14.00">_one_time_conditions_valid_8?</text>
<polyline fill="none" stroke="black" points="793,-69.5 1022,-69.5 "/>
<polyline fill="none" stroke="black" points="793,-45.5 1022,-45.5 "/>
<text text-anchor="start" x="801" y="-28.9" font-family="Times Roman,serif" font-size="14.00">_layout</text>
<text text-anchor="start" x="801" y="-10.9" font-family="Times Roman,serif" font-size="14.00">_run_process_action_callbacks</text>
</g>
<!-- Address::PlacesController -->
<g id="node6" class="node"><title>Address::PlacesController</title>
<polyline fill="none" stroke="black" points="37,-1.5 204,-1.5 "/>
<path fill="none" stroke="black" d="M204,-1.5C210,-1.5 216,-7.5 216,-13.5"/>
<polyline fill="none" stroke="black" points="216,-13.5 216,-199.5 "/>
<path fill="none" stroke="black" d="M216,-199.5C216,-205.5 210,-211.5 204,-211.5"/>
<polyline fill="none" stroke="black" points="204,-211.5 37,-211.5 "/>
<path fill="none" stroke="black" d="M37,-211.5C31,-211.5 25,-205.5 25,-199.5"/>
<polyline fill="none" stroke="black" points="25,-199.5 25,-13.5 "/>
<path fill="none" stroke="black" d="M25,-13.5C25,-7.5 31,-1.5 37,-1.5"/>
<text text-anchor="middle" x="120.5" y="-194.9" font-family="Times Roman,serif" font-size="14.00">Address::PlacesController</text>
<polyline fill="none" stroke="black" points="25,-185.5 216,-185.5 "/>
<text text-anchor="start" x="33" y="-168.9" font-family="Times Roman,serif" font-size="14.00">create</text>
<text text-anchor="start" x="33" y="-150.9" font-family="Times Roman,serif" font-size="14.00">destroy</text>
<text text-anchor="start" x="33" y="-132.9" font-family="Times Roman,serif" font-size="14.00">edit</text>
<text text-anchor="start" x="33" y="-114.9" font-family="Times Roman,serif" font-size="14.00">index</text>
<text text-anchor="start" x="33" y="-96.9" font-family="Times Roman,serif" font-size="14.00">new</text>
<text text-anchor="start" x="33" y="-78.9" font-family="Times Roman,serif" font-size="14.00">show</text>
<text text-anchor="start" x="33" y="-60.9" font-family="Times Roman,serif" font-size="14.00">update</text>
<polyline fill="none" stroke="black" points="25,-51.5 216,-51.5 "/>
<polyline fill="none" stroke="black" points="25,-27.5 216,-27.5 "/>
<text text-anchor="start" x="33" y="-10.9" font-family="Times Roman,serif" font-size="14.00">_layout</text>
</g>
<!-- Financier::NotesController -->
<g id="node7" class="node"><title>Financier::NotesController</title>
<polyline fill="none" stroke="black" points="277,-1.5 450,-1.5 "/>
<path fill="none" stroke="black" d="M450,-1.5C456,-1.5 462,-7.5 462,-13.5"/>
<polyline fill="none" stroke="black" points="462,-13.5 462,-199.5 "/>
<path fill="none" stroke="black" d="M462,-199.5C462,-205.5 456,-211.5 450,-211.5"/>
<polyline fill="none" stroke="black" points="450,-211.5 277,-211.5 "/>
<path fill="none" stroke="black" d="M277,-211.5C271,-211.5 265,-205.5 265,-199.5"/>
<polyline fill="none" stroke="black" points="265,-199.5 265,-13.5 "/>
<path fill="none" stroke="black" d="M265,-13.5C265,-7.5 271,-1.5 277,-1.5"/>
<text text-anchor="middle" x="363.5" y="-194.9" font-family="Times Roman,serif" font-size="14.00">Financier::NotesController</text>
<polyline fill="none" stroke="black" points="265,-185.5 462,-185.5 "/>
<text text-anchor="start" x="273" y="-168.9" font-family="Times Roman,serif" font-size="14.00">create</text>
<text text-anchor="start" x="273" y="-150.9" font-family="Times Roman,serif" font-size="14.00">destroy</text>
<text text-anchor="start" x="273" y="-132.9" font-family="Times Roman,serif" font-size="14.00">edit</text>
<text text-anchor="start" x="273" y="-114.9" font-family="Times Roman,serif" font-size="14.00">index</text>
<text text-anchor="start" x="273" y="-96.9" font-family="Times Roman,serif" font-size="14.00">new</text>
<text text-anchor="start" x="273" y="-78.9" font-family="Times Roman,serif" font-size="14.00">show</text>
<text text-anchor="start" x="273" y="-60.9" font-family="Times Roman,serif" font-size="14.00">update</text>
<polyline fill="none" stroke="black" points="265,-51.5 462,-51.5 "/>
<polyline fill="none" stroke="black" points="265,-27.5 462,-27.5 "/>
<text text-anchor="start" x="273" y="-10.9" font-family="Times Roman,serif" font-size="14.00">_layout</text>
</g>
<!-- Participant::PeopleController -->
<g id="node8" class="node"><title>Participant::PeopleController</title>
<polyline fill="none" stroke="black" points="301,-529.5 491,-529.5 "/>
<path fill="none" stroke="black" d="M491,-529.5C497,-529.5 503,-535.5 503,-541.5"/>
<polyline fill="none" stroke="black" points="503,-541.5 503,-727.5 "/>
<path fill="none" stroke="black" d="M503,-727.5C503,-733.5 497,-739.5 491,-739.5"/>
<polyline fill="none" stroke="black" points="491,-739.5 301,-739.5 "/>
<path fill="none" stroke="black" d="M301,-739.5C295,-739.5 289,-733.5 289,-727.5"/>
<polyline fill="none" stroke="black" points="289,-727.5 289,-541.5 "/>
<path fill="none" stroke="black" d="M289,-541.5C289,-535.5 295,-529.5 301,-529.5"/>
<text text-anchor="middle" x="396" y="-722.9" font-family="Times Roman,serif" font-size="14.00">Participant::PeopleController</text>
<polyline fill="none" stroke="black" points="289,-713.5 503,-713.5 "/>
<text text-anchor="start" x="297" y="-696.9" font-family="Times Roman,serif" font-size="14.00">create</text>
<text text-anchor="start" x="297" y="-678.9" font-family="Times Roman,serif" font-size="14.00">destroy</text>
<text text-anchor="start" x="297" y="-660.9" font-family="Times Roman,serif" font-size="14.00">edit</text>
<text text-anchor="start" x="297" y="-642.9" font-family="Times Roman,serif" font-size="14.00">index</text>
<text text-anchor="start" x="297" y="-624.9" font-family="Times Roman,serif" font-size="14.00">new</text>
<text text-anchor="start" x="297" y="-606.9" font-family="Times Roman,serif" font-size="14.00">show</text>
<text text-anchor="start" x="297" y="-588.9" font-family="Times Roman,serif" font-size="14.00">update</text>
<polyline fill="none" stroke="black" points="289,-579.5 503,-579.5 "/>
<polyline fill="none" stroke="black" points="289,-555.5 503,-555.5 "/>
<text text-anchor="start" x="297" y="-538.9" font-family="Times Roman,serif" font-size="14.00">_layout</text>
</g>
<!-- Participant::Contact::AddressesController -->
<g id="node9" class="node"><title>Participant::Contact::AddressesController</title>
<polyline fill="none" stroke="black" points="253,-265.5 530,-265.5 "/>
<path fill="none" stroke="black" d="M530,-265.5C536,-265.5 542,-271.5 542,-277.5"/>
<polyline fill="none" stroke="black" points="542,-277.5 542,-463.5 "/>
<path fill="none" stroke="black" d="M542,-463.5C542,-469.5 536,-475.5 530,-475.5"/>
<polyline fill="none" stroke="black" points="530,-475.5 253,-475.5 "/>
<path fill="none" stroke="black" d="M253,-475.5C247,-475.5 241,-469.5 241,-463.5"/>
<polyline fill="none" stroke="black" points="241,-463.5 241,-277.5 "/>
<path fill="none" stroke="black" d="M241,-277.5C241,-271.5 247,-265.5 253,-265.5"/>
<text text-anchor="middle" x="391.5" y="-458.9" font-family="Times Roman,serif" font-size="14.00">Participant::Contact::AddressesController</text>
<polyline fill="none" stroke="black" points="241,-449.5 542,-449.5 "/>
<text text-anchor="start" x="249" y="-432.9" font-family="Times Roman,serif" font-size="14.00">create</text>
<text text-anchor="start" x="249" y="-414.9" font-family="Times Roman,serif" font-size="14.00">destroy</text>
<text text-anchor="start" x="249" y="-396.9" font-family="Times Roman,serif" font-size="14.00">edit</text>
<text text-anchor="start" x="249" y="-378.9" font-family="Times Roman,serif" font-size="14.00">index</text>
<text text-anchor="start" x="249" y="-360.9" font-family="Times Roman,serif" font-size="14.00">new</text>
<text text-anchor="start" x="249" y="-342.9" font-family="Times Roman,serif" font-size="14.00">show</text>
<text text-anchor="start" x="249" y="-324.9" font-family="Times Roman,serif" font-size="14.00">update</text>
<polyline fill="none" stroke="black" points="241,-315.5 542,-315.5 "/>
<polyline fill="none" stroke="black" points="241,-291.5 542,-291.5 "/>
<text text-anchor="start" x="249" y="-274.9" font-family="Times Roman,serif" font-size="14.00">_layout</text>
</g>
<!-- Participant::Contact::TypesController -->
<g id="node10" class="node"><title>Participant::Contact::TypesController</title>
<polyline fill="none" stroke="black" points="589,-217.5 835,-217.5 "/>
<path fill="none" stroke="black" d="M835,-217.5C841,-217.5 847,-223.5 847,-229.5"/>
<polyline fill="none" stroke="black" points="847,-229.5 847,-415.5 "/>
<path fill="none" stroke="black" d="M847,-415.5C847,-421.5 841,-427.5 835,-427.5"/>
<polyline fill="none" stroke="black" points="835,-427.5 589,-427.5 "/>
<path fill="none" stroke="black" d="M589,-427.5C583,-427.5 577,-421.5 577,-415.5"/>
<polyline fill="none" stroke="black" points="577,-415.5 577,-229.5 "/>
<path fill="none" stroke="black" d="M577,-229.5C577,-223.5 583,-217.5 589,-217.5"/>
<text text-anchor="middle" x="712" y="-410.9" font-family="Times Roman,serif" font-size="14.00">Participant::Contact::TypesController</text>
<polyline fill="none" stroke="black" points="577,-401.5 847,-401.5 "/>
<text text-anchor="start" x="585" y="-384.9" font-family="Times Roman,serif" font-size="14.00">create</text>
<text text-anchor="start" x="585" y="-366.9" font-family="Times Roman,serif" font-size="14.00">destroy</text>
<text text-anchor="start" x="585" y="-348.9" font-family="Times Roman,serif" font-size="14.00">edit</text>
<text text-anchor="start" x="585" y="-330.9" font-family="Times Roman,serif" font-size="14.00">index</text>
<text text-anchor="start" x="585" y="-312.9" font-family="Times Roman,serif" font-size="14.00">new</text>
<text text-anchor="start" x="585" y="-294.9" font-family="Times Roman,serif" font-size="14.00">show</text>
<text text-anchor="start" x="585" y="-276.9" font-family="Times Roman,serif" font-size="14.00">update</text>
<polyline fill="none" stroke="black" points="577,-267.5 847,-267.5 "/>
<polyline fill="none" stroke="black" points="577,-243.5 847,-243.5 "/>
<text text-anchor="start" x="585" y="-226.9" font-family="Times Roman,serif" font-size="14.00">_layout</text>
</g>
<!-- Participant::Contact::EmailsController -->
<g id="node11" class="node"><title>Participant::Contact::EmailsController</title>
<polyline fill="none" stroke="black" points="565,-529.5 817,-529.5 "/>
<path fill="none" stroke="black" d="M817,-529.5C823,-529.5 829,-535.5 829,-541.5"/>
<polyline fill="none" stroke="black" points="829,-541.5 829,-727.5 "/>
<path fill="none" stroke="black" d="M829,-727.5C829,-733.5 823,-739.5 817,-739.5"/>
<polyline fill="none" stroke="black" points="817,-739.5 565,-739.5 "/>
<path fill="none" stroke="black" d="M565,-739.5C559,-739.5 553,-733.5 553,-727.5"/>
<polyline fill="none" stroke="black" points="553,-727.5 553,-541.5 "/>
<path fill="none" stroke="black" d="M553,-541.5C553,-535.5 559,-529.5 565,-529.5"/>
<text text-anchor="middle" x="691" y="-722.9" font-family="Times Roman,serif" font-size="14.00">Participant::Contact::EmailsController</text>
<polyline fill="none" stroke="black" points="553,-713.5 829,-713.5 "/>
<text text-anchor="start" x="561" y="-696.9" font-family="Times Roman,serif" font-size="14.00">create</text>
<text text-anchor="start" x="561" y="-678.9" font-family="Times Roman,serif" font-size="14.00">destroy</text>
<text text-anchor="start" x="561" y="-660.9" font-family="Times Roman,serif" font-size="14.00">edit</text>
<text text-anchor="start" x="561" y="-642.9" font-family="Times Roman,serif" font-size="14.00">index</text>
<text text-anchor="start" x="561" y="-624.9" font-family="Times Roman,serif" font-size="14.00">new</text>
<text text-anchor="start" x="561" y="-606.9" font-family="Times Roman,serif" font-size="14.00">show</text>
<text text-anchor="start" x="561" y="-588.9" font-family="Times Roman,serif" font-size="14.00">update</text>
<polyline fill="none" stroke="black" points="553,-579.5 829,-579.5 "/>
<polyline fill="none" stroke="black" points="553,-555.5 829,-555.5 "/>
<text text-anchor="start" x="561" y="-538.9" font-family="Times Roman,serif" font-size="14.00">_layout</text>
</g>
<!-- Email::UsersController -->
<g id="node12" class="node"><title>Email::UsersController</title>
<polyline fill="none" stroke="black" points="397,-793.5 543,-793.5 "/>
<path fill="none" stroke="black" d="M543,-793.5C549,-793.5 555,-799.5 555,-805.5"/>
<polyline fill="none" stroke="black" points="555,-805.5 555,-991.5 "/>
<path fill="none" stroke="black" d="M555,-991.5C555,-997.5 549,-1003.5 543,-1003.5"/>
<polyline fill="none" stroke="black" points="543,-1003.5 397,-1003.5 "/>
<path fill="none" stroke="black" d="M397,-1003.5C391,-1003.5 385,-997.5 385,-991.5"/>
<polyline fill="none" stroke="black" points="385,-991.5 385,-805.5 "/>
<path fill="none" stroke="black" d="M385,-805.5C385,-799.5 391,-793.5 397,-793.5"/>
<text text-anchor="middle" x="470" y="-986.9" font-family="Times Roman,serif" font-size="14.00">Email::UsersController</text>
<polyline fill="none" stroke="black" points="385,-977.5 555,-977.5 "/>
<text text-anchor="start" x="393" y="-960.9" font-family="Times Roman,serif" font-size="14.00">create</text>
<text text-anchor="start" x="393" y="-942.9" font-family="Times Roman,serif" font-size="14.00">destroy</text>
<text text-anchor="start" x="393" y="-924.9" font-family="Times Roman,serif" font-size="14.00">edit</text>
<text text-anchor="start" x="393" y="-906.9" font-family="Times Roman,serif" font-size="14.00">index</text>
<text text-anchor="start" x="393" y="-888.9" font-family="Times Roman,serif" font-size="14.00">new</text>
<text text-anchor="start" x="393" y="-870.9" font-family="Times Roman,serif" font-size="14.00">show</text>
<text text-anchor="start" x="393" y="-852.9" font-family="Times Roman,serif" font-size="14.00">update</text>
<polyline fill="none" stroke="black" points="385,-843.5 555,-843.5 "/>
<polyline fill="none" stroke="black" points="385,-819.5 555,-819.5 "/>
<text text-anchor="start" x="393" y="-802.9" font-family="Times Roman,serif" font-size="14.00">_layout</text>
</g>
<!-- Email::DomainsController -->
<g id="node13" class="node"><title>Email::DomainsController</title>
<polyline fill="none" stroke="black" points="13,-385.5 181,-385.5 "/>
<path fill="none" stroke="black" d="M181,-385.5C187,-385.5 193,-391.5 193,-397.5"/>
<polyline fill="none" stroke="black" points="193,-397.5 193,-583.5 "/>
<path fill="none" stroke="black" d="M193,-583.5C193,-589.5 187,-595.5 181,-595.5"/>
<polyline fill="none" stroke="black" points="181,-595.5 13,-595.5 "/>
<path fill="none" stroke="black" d="M13,-595.5C7,-595.5 1,-589.5 1,-583.5"/>
<polyline fill="none" stroke="black" points="1,-583.5 1,-397.5 "/>
<path fill="none" stroke="black" d="M1,-397.5C1,-391.5 7,-385.5 13,-385.5"/>
<text text-anchor="middle" x="97" y="-578.9" font-family="Times Roman,serif" font-size="14.00">Email::DomainsController</text>
<polyline fill="none" stroke="black" points="1,-569.5 193,-569.5 "/>
<text text-anchor="start" x="9" y="-552.9" font-family="Times Roman,serif" font-size="14.00">create</text>
<text text-anchor="start" x="9" y="-534.9" font-family="Times Roman,serif" font-size="14.00">destroy</text>
<text text-anchor="start" x="9" y="-516.9" font-family="Times Roman,serif" font-size="14.00">edit</text>
<text text-anchor="start" x="9" y="-498.9" font-family="Times Roman,serif" font-size="14.00">index</text>
<text text-anchor="start" x="9" y="-480.9" font-family="Times Roman,serif" font-size="14.00">new</text>
<text text-anchor="start" x="9" y="-462.9" font-family="Times Roman,serif" font-size="14.00">show</text>
<text text-anchor="start" x="9" y="-444.9" font-family="Times Roman,serif" font-size="14.00">update</text>
<polyline fill="none" stroke="black" points="1,-435.5 193,-435.5 "/>
<polyline fill="none" stroke="black" points="1,-411.5 193,-411.5 "/>
<text text-anchor="start" x="9" y="-394.9" font-family="Times Roman,serif" font-size="14.00">_layout</text>
</g>
</g>
</svg>
