<?xml version="1.0" encoding="UTF-8" standalone="no"?>
<!DOCTYPE svg PUBLIC "-//W3C//DTD SVG 1.1//EN"
 "http://www.w3.org/Graphics/SVG/1.1/DTD/svg11.dtd">
<!-- Generated by graphviz version 2.26.3 (20100126.1600)
 -->
<!-- Title: models_diagram Pages: 1 -->
<svg width="456pt" height="546pt"
 viewBox="0.00 0.00 456.00 546.00" xmlns="http://www.w3.org/2000/svg" xmlns:xlink="http://www.w3.org/1999/xlink">
<g id="graph1" class="graph" transform="scale(1 1) rotate(0) translate(4 542)">
<title>models_diagram</title>
<polygon fill="white" stroke="white" points="-4,5 -4,-542 453,-542 453,5 -4,5"/>
<!-- _diagram_info -->
<g id="node1" class="node"><title>_diagram_info</title>
<text text-anchor="start" x="8" y="-521.8" font-family="Times Roman,serif" font-size="13.00">Models diagram</text>
<text text-anchor="start" x="8" y="-504.8" font-family="Times Roman,serif" font-size="13.00">Date: Aug 03 2011 &#45; 21:48</text>
<text text-anchor="start" x="8" y="-487.8" font-family="Times Roman,serif" font-size="13.00">Migration version: 20110803231238</text>
<text text-anchor="start" x="8" y="-470.8" font-family="Times Roman,serif" font-size="13.00">Generated by RailRoady 1.0.2</text>
<text text-anchor="start" x="8" y="-453.8" font-family="Times Roman,serif" font-size="13.00">http://railroady.prestonlee.com</text>
</g>
<!-- Street -->
<g id="node2" class="node"><title>Street</title>
<ellipse fill="none" stroke="black" cx="196" cy="-93" rx="41.9273" ry="18.3848"/>
<text text-anchor="middle" x="196" y="-89.4" font-family="Times Roman,serif" font-size="14.00">Street</text>
</g>
<!-- Adres -->
<g id="node14" class="node"><title>Adres</title>
<ellipse fill="none" stroke="black" cx="193" cy="-19" rx="39.0967" ry="18.3848"/>
<text text-anchor="middle" x="193" y="-15.4" font-family="Times Roman,serif" font-size="14.00">Adres</text>
</g>
<!-- Street&#45;&gt;Adres -->
<g id="edge2" class="edge"><title>Street&#45;&gt;Adres</title>
<path fill="none" stroke="black" d="M194.836,-64.2819C194.615,-58.8362 194.384,-53.1382 194.163,-47.6933"/>
<polygon fill="black" stroke="black" points="194.838,-64.3349 190.747,-74.509 195.04,-69.3308 195.243,-74.3267 195.243,-74.3267 195.243,-74.3267 195.04,-69.3308 199.739,-74.1443 194.838,-64.3349 194.838,-64.3349"/>
<polygon fill="black" stroke="black" points="194.162,-47.6591 198.253,-37.485 193.959,-42.6632 193.757,-37.6674 193.757,-37.6674 193.757,-37.6674 193.959,-42.6632 189.26,-37.8497 194.162,-47.6591 194.162,-47.6591"/>
</g>
<!-- State -->
<g id="node3" class="node"><title>State</title>
<ellipse fill="none" stroke="black" cx="305" cy="-315" rx="38.1838" ry="18.3848"/>
<text text-anchor="middle" x="305" y="-311.4" font-family="Times Roman,serif" font-size="14.00">State</text>
</g>
<!-- City -->
<g id="node4" class="node"><title>City</title>
<ellipse fill="none" stroke="black" cx="334" cy="-241" rx="31.1127" ry="18.3848"/>
<text text-anchor="middle" x="334" y="-237.4" font-family="Times Roman,serif" font-size="14.00">City</text>
</g>
<!-- State&#45;&gt;City -->
<g id="edge6" class="edge"><title>State&#45;&gt;City</title>
<path fill="none" stroke="black" d="M315.159,-289.076C317.767,-282.422 320.581,-275.241 323.219,-268.509"/>
<ellipse fill="none" stroke="black" cx="313.628" cy="-292.984" rx="4.00001" ry="4.00001"/>
<polygon fill="black" stroke="black" points="323.265,-268.392 331.104,-260.724 325.09,-263.737 326.914,-259.082 326.914,-259.082 326.914,-259.082 325.09,-263.737 322.724,-257.44 323.265,-268.392 323.265,-268.392"/>
</g>
<!-- Neighborhood -->
<g id="node12" class="node"><title>Neighborhood</title>
<ellipse fill="none" stroke="black" cx="334" cy="-167" rx="79.9031" ry="18.3848"/>
<text text-anchor="middle" x="334" y="-163.4" font-family="Times Roman,serif" font-size="14.00">Neighborhood</text>
</g>
<!-- City&#45;&gt;Neighborhood -->
<g id="edge10" class="edge"><title>City&#45;&gt;Neighborhood</title>
<path fill="none" stroke="black" d="M334,-214.309C334,-208.377 334,-202.061 334,-196.04"/>
<ellipse fill="none" stroke="black" cx="334" cy="-218.327" rx="4" ry="4"/>
<polygon fill="black" stroke="black" points="334,-195.667 338.5,-185.667 334,-190.667 334,-185.667 334,-185.667 334,-185.667 334,-190.667 329.5,-185.667 334,-195.667 334,-195.667"/>
</g>
<!-- Phone -->
<g id="node5" class="node"><title>Phone</title>
<ellipse fill="none" stroke="black" cx="92" cy="-19" rx="41.9273" ry="18.3848"/>
<text text-anchor="middle" x="92" y="-15.4" font-family="Times Roman,serif" font-size="14.00">Phone</text>
</g>
<!-- Email -->
<g id="node6" class="node"><title>Email</title>
<ellipse fill="none" stroke="black" cx="92" cy="-167" rx="38.1838" ry="18.3848"/>
<text text-anchor="middle" x="92" y="-163.4" font-family="Times Roman,serif" font-size="14.00">Email</text>
</g>
<!-- Person -->
<g id="node11" class="node"><title>Person</title>
<ellipse fill="none" stroke="black" cx="92" cy="-93" rx="44.0472" ry="18.3848"/>
<text text-anchor="middle" x="92" y="-89.4" font-family="Times Roman,serif" font-size="14.00">Person</text>
</g>
<!-- Email&#45;&gt;Person -->
<g id="edge14" class="edge"><title>Email&#45;&gt;Person</title>
<path fill="none" stroke="black" d="M92,-140.309C92,-133.635 92,-126.476 92,-119.797"/>
<ellipse fill="none" stroke="black" cx="92" cy="-144.327" rx="4" ry="4"/>
<ellipse fill="black" stroke="black" cx="92" cy="-115.667" rx="4" ry="4"/>
</g>
<!-- Country -->
<g id="node7" class="node"><title>Country</title>
<ellipse fill="none" stroke="black" cx="305" cy="-389" rx="51.1176" ry="18.3848"/>
<text text-anchor="middle" x="305" y="-385.4" font-family="Times Roman,serif" font-size="14.00">Country</text>
</g>
<!-- Country&#45;&gt;State -->
<g id="edge16" class="edge"><title>Country&#45;&gt;State</title>
<path fill="none" stroke="black" d="M305,-362.309C305,-356.377 305,-350.061 305,-344.04"/>
<ellipse fill="none" stroke="black" cx="305" cy="-366.327" rx="4" ry="4"/>
<polygon fill="black" stroke="black" points="305,-343.667 309.5,-333.667 305,-338.667 305,-333.667 305,-333.667 305,-333.667 305,-338.667 300.5,-333.667 305,-343.667 305,-343.667"/>
</g>
<!-- Place -->
<g id="node8" class="node"><title>Place</title>
<ellipse fill="none" stroke="black" cx="305" cy="-491" rx="36.977" ry="18.3848"/>
<text text-anchor="middle" x="305" y="-487.4" font-family="Times Roman,serif" font-size="14.00">Place</text>
</g>
<!-- Place&#45;&gt;Street -->
<g id="edge4" class="edge"><title>Place&#45;&gt;Street</title>
<path fill="none" stroke="black" d="M289.944,-473.863C258.344,-437.175 188,-351.416 188,-315 188,-315 188,-315 188,-241 188,-194.425 191.999,-139.726 194.342,-111.673"/>
</g>
<!-- Place&#45;&gt;State -->
<g id="edge8" class="edge"><title>Place&#45;&gt;State</title>
<path fill="none" stroke="black" d="M288.03,-474.378C273.431,-458.796 253.43,-434.052 245,-408 239.8,-391.931 238.199,-385.459 245,-370 252.397,-353.185 267.754,-339.265 281.079,-329.635"/>
</g>
<!-- Place&#45;&gt;City -->
<g id="edge12" class="edge"><title>Place&#45;&gt;City</title>
<path fill="none" stroke="black" d="M321.97,-474.378C336.569,-458.796 356.57,-434.052 365,-408 382.068,-355.255 357.349,-289.915 343.013,-258.925"/>
</g>
<!-- Place&#45;&gt;Country -->
<g id="edge18" class="edge"><title>Place&#45;&gt;Country</title>
<path fill="none" stroke="black" d="M305,-472.292C305,-453.888 305,-425.953 305,-407.59"/>
</g>
<!-- Place&#45;&gt;Neighborhood -->
<g id="edge28" class="edge"><title>Place&#45;&gt;Neighborhood</title>
<path fill="none" stroke="black" d="M321.715,-474.097C343.132,-452.238 377.886,-416.013 381,-408 393.731,-375.244 413.509,-334.393 374,-222 369.223,-208.411 359.915,-195.283 351.479,-185.262"/>
</g>
<!-- Adress -->
<g id="node9" class="node"><title>Adress</title>
<ellipse fill="none" stroke="black" cx="404" cy="-491" rx="43.8406" ry="18.3848"/>
<text text-anchor="middle" x="404" y="-487.4" font-family="Times Roman,serif" font-size="14.00">Adress</text>
</g>
<!-- EmailType -->
<g id="node10" class="node"><title>EmailType</title>
<ellipse fill="none" stroke="black" cx="92" cy="-241" rx="60.8112" ry="18.3848"/>
<text text-anchor="middle" x="92" y="-237.4" font-family="Times Roman,serif" font-size="14.00">EmailType</text>
</g>
<!-- EmailType&#45;&gt;Email -->
<g id="edge20" class="edge"><title>EmailType&#45;&gt;Email</title>
<path fill="none" stroke="black" d="M92,-214.309C92,-208.377 92,-202.061 92,-196.04"/>
<ellipse fill="none" stroke="black" cx="92" cy="-218.327" rx="4" ry="4"/>
<polygon fill="black" stroke="black" points="92.0001,-195.667 96.5,-185.667 92,-190.667 92,-185.667 92,-185.667 92,-185.667 92,-190.667 87.5,-185.667 92.0001,-195.667 92.0001,-195.667"/>
</g>
<!-- Person&#45;&gt;Phone -->
<g id="edge22" class="edge"><title>Person&#45;&gt;Phone</title>
<path fill="none" stroke="black" d="M92,-66.309C92,-60.3769 92,-54.0606 92,-48.0396"/>
<ellipse fill="none" stroke="black" cx="92" cy="-70.3267" rx="4" ry="4"/>
<polygon fill="black" stroke="black" points="92.0001,-47.6674 96.5,-37.6673 92,-42.6674 92,-37.6674 92,-37.6674 92,-37.6674 92,-42.6674 87.5,-37.6674 92.0001,-47.6674 92.0001,-47.6674"/>
</g>
<!-- Person&#45;&gt;Adres -->
<g id="edge24" class="edge"><title>Person&#45;&gt;Adres</title>
<path fill="none" stroke="black" d="M122.336,-70.7734C135.324,-61.2574 150.442,-50.1814 163.353,-40.7217"/>
<polygon fill="black" stroke="black" points="121.982,-71.0329 111.256,-73.3131 117.949,-73.988 113.915,-76.9431 113.915,-76.9431 113.915,-76.9431 117.949,-73.988 116.575,-80.5731 121.982,-71.0329 121.982,-71.0329"/>
<polygon fill="black" stroke="black" points="163.408,-40.6816 174.134,-38.4013 167.441,-37.7264 171.474,-34.7713 171.474,-34.7713 171.474,-34.7713 167.441,-37.7264 168.815,-31.1414 163.408,-40.6816 163.408,-40.6816"/>
</g>
<!-- Neighborhood&#45;&gt;Street -->
<g id="edge26" class="edge"><title>Neighborhood&#45;&gt;Street</title>
<path fill="none" stroke="black" d="M294.722,-145.938C274.923,-135.321 251.087,-122.54 231.797,-112.196"/>
<ellipse fill="none" stroke="black" cx="298.468" cy="-147.947" rx="4.00002" ry="4.00002"/>
<polygon fill="black" stroke="black" points="231.543,-112.06 224.857,-103.368 227.137,-109.697 222.73,-107.334 222.73,-107.334 222.73,-107.334 227.137,-109.697 220.604,-111.3 231.543,-112.06 231.543,-112.06"/>
</g>
</g>
</svg>
