<?xml version="1.0" encoding="UTF-8" standalone="no"?>
<!DOCTYPE svg PUBLIC "-//W3C//DTD SVG 1.1//EN"
 "http://www.w3.org/Graphics/SVG/1.1/DTD/svg11.dtd">
<!-- Generated by graphviz version 2.26.3 (20100126.1600)
 -->
<!-- Title: models_diagram Pages: 1 -->
<svg width="2192pt" height="498pt"
 viewBox="0.00 0.00 2192.00 498.00" xmlns="http://www.w3.org/2000/svg" xmlns:xlink="http://www.w3.org/1999/xlink">
<g id="graph1" class="graph" transform="scale(1 1) rotate(0) translate(4 494)">
<title>models_diagram</title>
<polygon fill="white" stroke="white" points="-4,5 -4,-494 2189,-494 2189,5 -4,5"/>
<!-- _diagram_info -->
<g id="node1" class="node"><title>_diagram_info</title>
<text text-anchor="start" x="8" y="-473.8" font-family="Times Roman,serif" font-size="13.00">Models diagram</text>
<text text-anchor="start" x="8" y="-456.8" font-family="Times Roman,serif" font-size="13.00">Date: Aug 08 2011 &#45; 00:19</text>
<text text-anchor="start" x="8" y="-439.8" font-family="Times Roman,serif" font-size="13.00">Migration version: 20110808010409</text>
<text text-anchor="start" x="8" y="-422.8" font-family="Times Roman,serif" font-size="13.00">Generated by RailRoady 1.0.2</text>
<text text-anchor="start" x="8" y="-405.8" font-family="Times Roman,serif" font-size="13.00">http://railroady.prestonlee.com</text>
</g>
<!-- Taxe::Group -->
<g id="node2" class="node"><title>Taxe::Group</title>
<ellipse fill="none" stroke="black" cx="338" cy="-443" rx="70.0036" ry="18.3848"/>
<text text-anchor="middle" x="338" y="-439.4" font-family="Times Roman,serif" font-size="14.00">Taxe::Group</text>
</g>
<!-- Taxe::Type -->
<g id="node4" class="node"><title>Taxe::Type</title>
<ellipse fill="none" stroke="black" cx="338" cy="-323" rx="62.2254" ry="18.3848"/>
<text text-anchor="middle" x="338" y="-319.4" font-family="Times Roman,serif" font-size="14.00">Taxe::Type</text>
</g>
<!-- Taxe::Group&#45;&gt;Taxe::Type -->
<g id="edge2" class="edge"><title>Taxe::Group&#45;&gt;Taxe::Type</title>
<path fill="none" stroke="black" d="M338,-416.053C338,-396.923 338,-371.278 338,-351.755"/>
<ellipse fill="none" stroke="black" cx="338" cy="-420.25" rx="4" ry="4"/>
<polygon fill="black" stroke="black" points="338,-351.618 342.5,-341.618 338,-346.618 338,-341.618 338,-341.618 338,-341.618 338,-346.618 333.5,-341.618 338,-351.618 338,-351.618"/>
</g>
<!-- Taxe::Value -->
<g id="node3" class="node"><title>Taxe::Value</title>
<ellipse fill="none" stroke="black" cx="338" cy="-247" rx="67.1751" ry="18.3848"/>
<text text-anchor="middle" x="338" y="-243.4" font-family="Times Roman,serif" font-size="14.00">Taxe::Value</text>
</g>
<!-- Taxe::Type&#45;&gt;Taxe::Value -->
<g id="edge4" class="edge"><title>Taxe::Type&#45;&gt;Taxe::Value</title>
<path fill="none" stroke="black" d="M338,-296.073C338,-289.449 338,-282.332 338,-275.63"/>
<ellipse fill="none" stroke="black" cx="338" cy="-300.213" rx="4" ry="4"/>
<polygon fill="black" stroke="black" points="338,-275.57 342.5,-265.57 338,-270.57 338,-265.57 338,-265.57 338,-265.57 338,-270.57 333.5,-265.57 338,-275.57 338,-275.57"/>
</g>
<!-- Email -->
<g id="node5" class="node"><title>Email</title>
<polygon fill="none" stroke="black" stroke-dasharray="1,5" points="480,-461 426,-461 426,-425 480,-425 480,-461"/>
<text text-anchor="middle" x="453" y="-439.4" font-family="Times Roman,serif" font-size="14.00">Email</text>
</g>
<!-- Address::Street -->
<g id="node6" class="node"><title>Address::Street</title>
<ellipse fill="none" stroke="black" cx="548" cy="-19" rx="86.9741" ry="18.3848"/>
<text text-anchor="middle" x="548" y="-15.4" font-family="Times Roman,serif" font-size="14.00">Address::Street</text>
</g>
<!-- Address::State -->
<g id="node7" class="node"><title>Address::State</title>
<ellipse fill="none" stroke="black" cx="668" cy="-247" rx="82.2301" ry="18.3848"/>
<text text-anchor="middle" x="668" y="-243.4" font-family="Times Roman,serif" font-size="14.00">Address::State</text>
</g>
<!-- Address::City -->
<g id="node8" class="node"><title>Address::City</title>
<ellipse fill="none" stroke="black" cx="668" cy="-171" rx="75.1594" ry="18.3848"/>
<text text-anchor="middle" x="668" y="-167.4" font-family="Times Roman,serif" font-size="14.00">Address::City</text>
</g>
<!-- Address::State&#45;&gt;Address::City -->
<g id="edge8" class="edge"><title>Address::State&#45;&gt;Address::City</title>
<path fill="none" stroke="black" d="M668,-220.073C668,-213.449 668,-206.332 668,-199.63"/>
<ellipse fill="none" stroke="black" cx="668" cy="-224.213" rx="4" ry="4"/>
<polygon fill="black" stroke="black" points="668,-199.57 672.5,-189.57 668,-194.57 668,-189.57 668,-189.57 668,-189.57 668,-194.57 663.5,-189.57 668,-199.57 668,-199.57"/>
</g>
<!-- Address::Neighborhood -->
<g id="node11" class="node"><title>Address::Neighborhood</title>
<ellipse fill="none" stroke="black" cx="656" cy="-95" rx="123.951" ry="18.3848"/>
<text text-anchor="middle" x="656" y="-91.4" font-family="Times Roman,serif" font-size="14.00">Address::Neighborhood</text>
</g>
<!-- Address::City&#45;&gt;Address::Neighborhood -->
<g id="edge12" class="edge"><title>Address::City&#45;&gt;Address::Neighborhood</title>
<path fill="none" stroke="black" d="M663.748,-144.073C662.702,-137.449 661.579,-130.332 660.521,-123.63"/>
<ellipse fill="none" stroke="black" cx="664.41" cy="-148.262" rx="4.00001" ry="4.00001"/>
<polygon fill="black" stroke="black" points="660.492,-123.448 663.377,-112.869 659.712,-118.509 658.932,-113.57 658.932,-113.57 658.932,-113.57 659.712,-118.509 654.487,-114.272 660.492,-123.448 660.492,-123.448"/>
</g>
<!-- Address::Country -->
<g id="node9" class="node"><title>Address::Country</title>
<ellipse fill="none" stroke="black" cx="704" cy="-323" rx="96.1665" ry="18.3848"/>
<text text-anchor="middle" x="704" y="-319.4" font-family="Times Roman,serif" font-size="14.00">Address::Country</text>
</g>
<!-- Address::Country&#45;&gt;Address::State -->
<g id="edge16" class="edge"><title>Address::Country&#45;&gt;Address::State</title>
<path fill="none" stroke="black" d="M691.674,-296.978C688.312,-289.881 684.656,-282.162 681.245,-274.961"/>
<ellipse fill="none" stroke="black" cx="693.389" cy="-300.599" rx="4.00002" ry="4.00002"/>
<polygon fill="black" stroke="black" points="681.077,-274.608 680.863,-263.644 678.937,-270.089 676.797,-265.57 676.797,-265.57 676.797,-265.57 678.937,-270.089 672.73,-267.497 681.077,-274.608 681.077,-274.608"/>
</g>
<!-- Address::Place -->
<g id="node10" class="node"><title>Address::Place</title>
<ellipse fill="none" stroke="black" cx="580" cy="-443" rx="82.0244" ry="18.3848"/>
<text text-anchor="middle" x="580" y="-439.4" font-family="Times Roman,serif" font-size="14.00">Address::Place</text>
</g>
<!-- Address::Place&#45;&gt;Address::Street -->
<g id="edge6" class="edge"><title>Address::Place&#45;&gt;Address::Street</title>
<path fill="none" stroke="black" d="M559.233,-424.896C536.73,-403.162 504,-364.429 504,-323 504,-323 504,-323 504,-95 504,-73.0455 517.922,-51.7429 530.104,-37.3054"/>
</g>
<!-- Address::Place&#45;&gt;Address::State -->
<g id="edge10" class="edge"><title>Address::Place&#45;&gt;Address::State</title>
<path fill="none" stroke="black" d="M578.414,-424.117C576.935,-396.053 577.552,-342.516 599,-304 608.071,-287.71 623.799,-274.167 637.95,-264.376"/>
</g>
<!-- Address::Place&#45;&gt;Address::City -->
<g id="edge14" class="edge"><title>Address::Place&#45;&gt;Address::City</title>
<path fill="none" stroke="black" d="M611.191,-425.871C628.579,-416.582 650.749,-405.162 671,-396 731.006,-368.852 771.871,-396.399 809,-342 849.889,-282.092 754.115,-217.695 700.767,-187.901"/>
</g>
<!-- Address::Place&#45;&gt;Address::Country -->
<g id="edge18" class="edge"><title>Address::Place&#45;&gt;Address::Country</title>
<path fill="none" stroke="black" d="M598.833,-424.775C622.139,-402.22 661.602,-364.03 684.99,-341.397"/>
</g>
<!-- Address::Place&#45;&gt;Address::Neighborhood -->
<g id="edge22" class="edge"><title>Address::Place&#45;&gt;Address::Neighborhood</title>
<path fill="none" stroke="black" d="M570.214,-424.456C558.955,-401.357 542,-360.369 542,-323 542,-323 542,-323 542,-171 542,-141.505 568.747,-122.752 596.329,-111.255"/>
</g>
<!-- Address::Neighborhood&#45;&gt;Address::Street -->
<g id="edge20" class="edge"><title>Address::Neighborhood&#45;&gt;Address::Street</title>
<path fill="none" stroke="black" d="M623.445,-72.091C610.252,-62.8071 595.02,-52.0883 581.712,-42.7232"/>
<ellipse fill="none" stroke="black" cx="626.86" cy="-74.4941" rx="4.00002" ry="4.00002"/>
<polygon fill="black" stroke="black" points="581.463,-42.5481 575.875,-33.113 577.374,-39.6706 573.285,-36.7931 573.285,-36.7931 573.285,-36.7931 577.374,-39.6706 570.695,-40.4733 581.463,-42.5481 581.463,-42.5481"/>
</g>
<!-- Taxe -->
<g id="node12" class="node"><title>Taxe</title>
<polygon fill="none" stroke="black" stroke-dasharray="1,5" points="734,-461 680,-461 680,-425 734,-425 734,-461"/>
<text text-anchor="middle" x="707" y="-439.4" font-family="Times Roman,serif" font-size="14.00">Taxe</text>
</g>
<!-- Financier::Note -->
<g id="node13" class="node"><title>Financier::Note</title>
<ellipse fill="none" stroke="black" cx="837" cy="-443" rx="85.0596" ry="18.3848"/>
<text text-anchor="middle" x="837" y="-439.4" font-family="Times Roman,serif" font-size="14.00">Financier::Note</text>
</g>
<!-- Participant -->
<g id="node14" class="node"><title>Participant</title>
<polygon fill="none" stroke="black" stroke-dasharray="1,5" points="1030,-461 940,-461 940,-425 1030,-425 1030,-461"/>
<text text-anchor="middle" x="985" y="-439.4" font-family="Times Roman,serif" font-size="14.00">Participant</text>
</g>
<!-- Financier -->
<g id="node15" class="node"><title>Financier</title>
<polygon fill="none" stroke="black" stroke-dasharray="1,5" points="1126,-461 1048,-461 1048,-425 1126,-425 1126,-461"/>
<text text-anchor="middle" x="1087" y="-439.4" font-family="Times Roman,serif" font-size="14.00">Financier</text>
</g>
<!-- Participant::Contact -->
<g id="node16" class="node"><title>Participant::Contact</title>
<polygon fill="none" stroke="black" stroke-dasharray="1,5" points="1298,-461 1144,-461 1144,-425 1298,-425 1298,-461"/>
<text text-anchor="middle" x="1221" y="-439.4" font-family="Times Roman,serif" font-size="14.00">Participant::Contact</text>
</g>
<!-- Participant::Contact::Email -->
<g id="node17" class="node"><title>Participant::Contact::Email</title>
<ellipse fill="none" stroke="black" cx="1302" cy="-323" rx="140.922" ry="18.3848"/>
<text text-anchor="middle" x="1302" y="-319.4" font-family="Times Roman,serif" font-size="14.00">Participant::Contact::Email</text>
</g>
<!-- Participant::Contact::Type -->
<g id="node18" class="node"><title>Participant::Contact::Type</title>
<ellipse fill="none" stroke="black" cx="1453" cy="-443" rx="137.179" ry="18.3848"/>
<text text-anchor="middle" x="1453" y="-439.4" font-family="Times Roman,serif" font-size="14.00">Participant::Contact::Type</text>
</g>
<!-- Participant::Contact::Type&#45;&gt;Participant::Contact::Email -->
<g id="edge24" class="edge"><title>Participant::Contact::Type&#45;&gt;Participant::Contact::Email</title>
<path fill="none" stroke="black" d="M1423.46,-419.524C1397.34,-398.77 1359.39,-368.604 1332.88,-347.537"/>
<ellipse fill="none" stroke="black" cx="1426.61" cy="-422.024" rx="4.00002" ry="4.00002"/>
<polygon fill="black" stroke="black" points="1332.87,-347.533 1327.84,-337.788 1328.96,-344.422 1325.04,-341.311 1325.04,-341.311 1325.04,-341.311 1328.96,-344.422 1322.24,-344.834 1332.87,-347.533 1332.87,-347.533"/>
</g>
<!-- Participant::Contact::Addre -->
<g id="node36" class="node"><title>Participant::Contact::Addre</title>
<ellipse fill="none" stroke="black" cx="1604" cy="-323" rx="143.043" ry="18.3848"/>
<text text-anchor="middle" x="1604" y="-319.4" font-family="Times Roman,serif" font-size="14.00">Participant::Contact::Addre</text>
</g>
<!-- Participant::Contact::Type&#45;&gt;Participant::Contact::Addre -->
<g id="edge26" class="edge"><title>Participant::Contact::Type&#45;&gt;Participant::Contact::Addre</title>
<path fill="none" stroke="black" d="M1482.54,-419.524C1508.66,-398.77 1546.61,-368.604 1573.12,-347.537"/>
<ellipse fill="none" stroke="black" cx="1479.39" cy="-422.024" rx="4.00002" ry="4.00002"/>
<polygon fill="black" stroke="black" points="1573.13,-347.533 1583.76,-344.834 1577.04,-344.422 1580.96,-341.311 1580.96,-341.311 1580.96,-341.311 1577.04,-344.422 1578.16,-337.788 1573.13,-347.533 1573.13,-347.533"/>
<text text-anchor="middle" x="1582.5" y="-365.4" font-family="Times Roman,serif" font-size="14.00">Address</text>
</g>
<!-- Participant::Contact::Address -->
<g id="node19" class="node"><title>Participant::Contact::Address</title>
<ellipse fill="none" stroke="black" cx="1761" cy="-443" rx="152.942" ry="18.3848"/>
<text text-anchor="middle" x="1761" y="-439.4" font-family="Times Roman,serif" font-size="14.00">Participant::Contact::Address</text>
</g>
<!-- Email::Domain -->
<g id="node20" class="node"><title>Email::Domain</title>
<ellipse fill="none" stroke="black" cx="2014" cy="-443" rx="82.0244" ry="18.3848"/>
<text text-anchor="middle" x="2014" y="-439.4" font-family="Times Roman,serif" font-size="14.00">Email::Domain</text>
</g>
<!-- Email::User -->
<g id="node21" class="node"><title>Email::User</title>
<ellipse fill="none" stroke="black" cx="2014" cy="-323" rx="67.1751" ry="18.3848"/>
<text text-anchor="middle" x="2014" y="-319.4" font-family="Times Roman,serif" font-size="14.00">Email::User</text>
</g>
<!-- Email::Domain&#45;&gt;Email::User -->
<g id="edge28" class="edge"><title>Email::Domain&#45;&gt;Email::User</title>
<path fill="none" stroke="black" d="M2014,-416.053C2014,-396.923 2014,-371.278 2014,-351.755"/>
<ellipse fill="none" stroke="black" cx="2014" cy="-420.25" rx="4" ry="4"/>
<polygon fill="black" stroke="black" points="2014,-351.618 2018.5,-341.618 2014,-346.618 2014,-341.618 2014,-341.618 2014,-341.618 2014,-346.618 2009.5,-341.618 2014,-351.618 2014,-351.618"/>
</g>
<!-- Address -->
<g id="node22" class="node"><title>Address</title>
<polygon fill="none" stroke="black" stroke-dasharray="1,5" points="2184,-461 2114,-461 2114,-425 2184,-425 2184,-461"/>
<text text-anchor="middle" x="2149" y="-439.4" font-family="Times Roman,serif" font-size="14.00">Address</text>
</g>
</g>
</svg>
