<?xml version="1.0" encoding="UTF-8" standalone="no"?>
<!DOCTYPE svg PUBLIC "-//W3C//DTD SVG 1.1//EN"
 "http://www.w3.org/Graphics/SVG/1.1/DTD/svg11.dtd">
<!-- Generated by graphviz version 2.26.3 (20100126.1600)
 -->
<!-- Title: models_diagram Pages: 1 -->
<svg width="1246pt" height="1494pt"
 viewBox="0.00 0.00 1246.00 1494.00" xmlns="http://www.w3.org/2000/svg" xmlns:xlink="http://www.w3.org/1999/xlink">
<g id="graph1" class="graph" transform="scale(1 1) rotate(0) translate(4 1490)">
<title>models_diagram</title>
<polygon fill="white" stroke="white" points="-4,5 -4,-1490 1243,-1490 1243,5 -4,5"/>
<!-- _diagram_info -->
<g id="node1" class="node"><title>_diagram_info</title>
<text text-anchor="start" x="8" y="-1426.8" font-family="Times Roman,serif" font-size="13.00">Models diagram</text>
<text text-anchor="start" x="8" y="-1409.8" font-family="Times Roman,serif" font-size="13.00">Date: Aug 04 2011 &#45; 00:16</text>
<text text-anchor="start" x="8" y="-1392.8" font-family="Times Roman,serif" font-size="13.00">Migration version: 20110804031428</text>
<text text-anchor="start" x="8" y="-1375.8" font-family="Times Roman,serif" font-size="13.00">Generated by RailRoady 1.0.2</text>
<text text-anchor="start" x="8" y="-1358.8" font-family="Times Roman,serif" font-size="13.00">http://railroady.prestonlee.com</text>
</g>
<!-- Street -->
<g id="node2" class="node"><title>Street</title>
<polyline fill="none" stroke="black" points="317,-208 463,-208 "/>
<path fill="none" stroke="black" d="M463,-208C469,-208 475,-214 475,-220"/>
<polyline fill="none" stroke="black" points="475,-220 475,-374 "/>
<path fill="none" stroke="black" d="M475,-374C475,-380 469,-386 463,-386"/>
<polyline fill="none" stroke="black" points="463,-386 317,-386 "/>
<path fill="none" stroke="black" d="M317,-386C311,-386 305,-380 305,-374"/>
<polyline fill="none" stroke="black" points="305,-374 305,-220 "/>
<path fill="none" stroke="black" d="M305,-220C305,-214 311,-208 317,-208"/>
<text text-anchor="middle" x="390" y="-369.4" font-family="Times Roman,serif" font-size="14.00">Street</text>
<polyline fill="none" stroke="black" points="305,-360 475,-360 "/>
<text text-anchor="start" x="313" y="-343.4" font-family="Times Roman,serif" font-size="14.00">phone_number :string</text>
<text text-anchor="start" x="313" y="-325.4" font-family="Times Roman,serif" font-size="14.00">adress_number :string</text>
<text text-anchor="start" x="313" y="-307.4" font-family="Times Roman,serif" font-size="14.00">name :string</text>
<text text-anchor="start" x="313" y="-289.4" font-family="Times Roman,serif" font-size="14.00">remark :string</text>
<text text-anchor="start" x="313" y="-271.4" font-family="Times Roman,serif" font-size="14.00">active :boolean</text>
<text text-anchor="start" x="313" y="-253.4" font-family="Times Roman,serif" font-size="14.00">acronym :string</text>
<text text-anchor="start" x="313" y="-235.4" font-family="Times Roman,serif" font-size="14.00">created_at :datetime</text>
<text text-anchor="start" x="313" y="-217.4" font-family="Times Roman,serif" font-size="14.00">updated_at :datetime</text>
</g>
<!-- State -->
<g id="node3" class="node"><title>State</title>
<polyline fill="none" stroke="black" points="393,-871 539,-871 "/>
<path fill="none" stroke="black" d="M539,-871C545,-871 551,-877 551,-883"/>
<polyline fill="none" stroke="black" points="551,-883 551,-1037 "/>
<path fill="none" stroke="black" d="M551,-1037C551,-1043 545,-1049 539,-1049"/>
<polyline fill="none" stroke="black" points="539,-1049 393,-1049 "/>
<path fill="none" stroke="black" d="M393,-1049C387,-1049 381,-1043 381,-1037"/>
<polyline fill="none" stroke="black" points="381,-1037 381,-883 "/>
<path fill="none" stroke="black" d="M381,-883C381,-877 387,-871 393,-871"/>
<text text-anchor="middle" x="466" y="-1032.4" font-family="Times Roman,serif" font-size="14.00">State</text>
<polyline fill="none" stroke="black" points="381,-1023 551,-1023 "/>
<text text-anchor="start" x="389" y="-1006.4" font-family="Times Roman,serif" font-size="14.00">phone_number :string</text>
<text text-anchor="start" x="389" y="-988.4" font-family="Times Roman,serif" font-size="14.00">adress_number :string</text>
<text text-anchor="start" x="389" y="-970.4" font-family="Times Roman,serif" font-size="14.00">name :string</text>
<text text-anchor="start" x="389" y="-952.4" font-family="Times Roman,serif" font-size="14.00">remark :string</text>
<text text-anchor="start" x="389" y="-934.4" font-family="Times Roman,serif" font-size="14.00">active :boolean</text>
<text text-anchor="start" x="389" y="-916.4" font-family="Times Roman,serif" font-size="14.00">acronym :string</text>
<text text-anchor="start" x="389" y="-898.4" font-family="Times Roman,serif" font-size="14.00">created_at :datetime</text>
<text text-anchor="start" x="389" y="-880.4" font-family="Times Roman,serif" font-size="14.00">updated_at :datetime</text>
</g>
<!-- City -->
<g id="node7" class="node"><title>City</title>
<polyline fill="none" stroke="black" points="355,-653 501,-653 "/>
<path fill="none" stroke="black" d="M501,-653C507,-653 513,-659 513,-665"/>
<polyline fill="none" stroke="black" points="513,-665 513,-819 "/>
<path fill="none" stroke="black" d="M513,-819C513,-825 507,-831 501,-831"/>
<polyline fill="none" stroke="black" points="501,-831 355,-831 "/>
<path fill="none" stroke="black" d="M355,-831C349,-831 343,-825 343,-819"/>
<polyline fill="none" stroke="black" points="343,-819 343,-665 "/>
<path fill="none" stroke="black" d="M343,-665C343,-659 349,-653 355,-653"/>
<text text-anchor="middle" x="428" y="-814.4" font-family="Times Roman,serif" font-size="14.00">City</text>
<polyline fill="none" stroke="black" points="343,-805 513,-805 "/>
<text text-anchor="start" x="351" y="-788.4" font-family="Times Roman,serif" font-size="14.00">phone_number :string</text>
<text text-anchor="start" x="351" y="-770.4" font-family="Times Roman,serif" font-size="14.00">adress_number :string</text>
<text text-anchor="start" x="351" y="-752.4" font-family="Times Roman,serif" font-size="14.00">name :string</text>
<text text-anchor="start" x="351" y="-734.4" font-family="Times Roman,serif" font-size="14.00">remark :string</text>
<text text-anchor="start" x="351" y="-716.4" font-family="Times Roman,serif" font-size="14.00">active :boolean</text>
<text text-anchor="start" x="351" y="-698.4" font-family="Times Roman,serif" font-size="14.00">acronym :string</text>
<text text-anchor="start" x="351" y="-680.4" font-family="Times Roman,serif" font-size="14.00">created_at :datetime</text>
<text text-anchor="start" x="351" y="-662.4" font-family="Times Roman,serif" font-size="14.00">updated_at :datetime</text>
</g>
<!-- State&#45;&gt;City -->
<g id="edge4" class="edge"><title>State&#45;&gt;City</title>
<path fill="none" stroke="black" d="M449.041,-862.707C447.811,-855.651 446.569,-848.53 445.337,-841.462"/>
<ellipse fill="none" stroke="black" cx="449.747" cy="-866.761" rx="4.00001" ry="4.00001"/>
<polygon fill="black" stroke="black" points="445.259,-841.011 447.975,-830.386 444.4,-836.085 443.541,-831.159 443.541,-831.159 443.541,-831.159 444.4,-836.085 439.108,-831.932 445.259,-841.011 445.259,-841.011"/>
</g>
<!-- Taxe::Group -->
<g id="node4" class="node"><title>Taxe::Group</title>
<polyline fill="none" stroke="black" points="467.5,-1334 608.5,-1334 "/>
<path fill="none" stroke="black" d="M608.5,-1334C614.5,-1334 620.5,-1340 620.5,-1346"/>
<polyline fill="none" stroke="black" points="620.5,-1346 620.5,-1446 "/>
<path fill="none" stroke="black" d="M620.5,-1446C620.5,-1452 614.5,-1458 608.5,-1458"/>
<polyline fill="none" stroke="black" points="608.5,-1458 467.5,-1458 "/>
<path fill="none" stroke="black" d="M467.5,-1458C461.5,-1458 455.5,-1452 455.5,-1446"/>
<polyline fill="none" stroke="black" points="455.5,-1446 455.5,-1346 "/>
<path fill="none" stroke="black" d="M455.5,-1346C455.5,-1340 461.5,-1334 467.5,-1334"/>
<text text-anchor="middle" x="538" y="-1441.4" font-family="Times Roman,serif" font-size="14.00">Taxe::Group</text>
<polyline fill="none" stroke="black" points="455.5,-1432 620.5,-1432 "/>
<text text-anchor="start" x="463.5" y="-1415.4" font-family="Times Roman,serif" font-size="14.00">name :string</text>
<text text-anchor="start" x="463.5" y="-1397.4" font-family="Times Roman,serif" font-size="14.00">remark :text</text>
<text text-anchor="start" x="463.5" y="-1379.4" font-family="Times Roman,serif" font-size="14.00">active :boolean</text>
<text text-anchor="start" x="463.5" y="-1361.4" font-family="Times Roman,serif" font-size="14.00">created_at :datetime</text>
<text text-anchor="start" x="463.5" y="-1343.4" font-family="Times Roman,serif" font-size="14.00">updated_at :datetime</text>
</g>
<!-- Taxe::Value -->
<g id="node5" class="node"><title>Taxe::Value</title>
<polyline fill="none" stroke="black" points="649.5,-1334 790.5,-1334 "/>
<path fill="none" stroke="black" d="M790.5,-1334C796.5,-1334 802.5,-1340 802.5,-1346"/>
<polyline fill="none" stroke="black" points="802.5,-1346 802.5,-1446 "/>
<path fill="none" stroke="black" d="M802.5,-1446C802.5,-1452 796.5,-1458 790.5,-1458"/>
<polyline fill="none" stroke="black" points="790.5,-1458 649.5,-1458 "/>
<path fill="none" stroke="black" d="M649.5,-1458C643.5,-1458 637.5,-1452 637.5,-1446"/>
<polyline fill="none" stroke="black" points="637.5,-1446 637.5,-1346 "/>
<path fill="none" stroke="black" d="M637.5,-1346C637.5,-1340 643.5,-1334 649.5,-1334"/>
<text text-anchor="middle" x="720" y="-1441.4" font-family="Times Roman,serif" font-size="14.00">Taxe::Value</text>
<polyline fill="none" stroke="black" points="637.5,-1432 802.5,-1432 "/>
<text text-anchor="start" x="645.5" y="-1415.4" font-family="Times Roman,serif" font-size="14.00">percentage :integer</text>
<text text-anchor="start" x="645.5" y="-1397.4" font-family="Times Roman,serif" font-size="14.00">basis :integer</text>
<text text-anchor="start" x="645.5" y="-1379.4" font-family="Times Roman,serif" font-size="14.00">value :integer</text>
<text text-anchor="start" x="645.5" y="-1361.4" font-family="Times Roman,serif" font-size="14.00">created_at :datetime</text>
<text text-anchor="start" x="645.5" y="-1343.4" font-family="Times Roman,serif" font-size="14.00">updated_at :datetime</text>
</g>
<!-- Taxe::Type -->
<g id="node6" class="node"><title>Taxe::Type</title>
<polyline fill="none" stroke="black" points="831.5,-1334 972.5,-1334 "/>
<path fill="none" stroke="black" d="M972.5,-1334C978.5,-1334 984.5,-1340 984.5,-1346"/>
<polyline fill="none" stroke="black" points="984.5,-1346 984.5,-1446 "/>
<path fill="none" stroke="black" d="M984.5,-1446C984.5,-1452 978.5,-1458 972.5,-1458"/>
<polyline fill="none" stroke="black" points="972.5,-1458 831.5,-1458 "/>
<path fill="none" stroke="black" d="M831.5,-1458C825.5,-1458 819.5,-1452 819.5,-1446"/>
<polyline fill="none" stroke="black" points="819.5,-1446 819.5,-1346 "/>
<path fill="none" stroke="black" d="M819.5,-1346C819.5,-1340 825.5,-1334 831.5,-1334"/>
<text text-anchor="middle" x="902" y="-1441.4" font-family="Times Roman,serif" font-size="14.00">Taxe::Type</text>
<polyline fill="none" stroke="black" points="819.5,-1432 984.5,-1432 "/>
<text text-anchor="start" x="827.5" y="-1415.4" font-family="Times Roman,serif" font-size="14.00">name :string</text>
<text text-anchor="start" x="827.5" y="-1397.4" font-family="Times Roman,serif" font-size="14.00">remark :text</text>
<text text-anchor="start" x="827.5" y="-1379.4" font-family="Times Roman,serif" font-size="14.00">active :boolean</text>
<text text-anchor="start" x="827.5" y="-1361.4" font-family="Times Roman,serif" font-size="14.00">created_at :datetime</text>
<text text-anchor="start" x="827.5" y="-1343.4" font-family="Times Roman,serif" font-size="14.00">updated_at :datetime</text>
</g>
<!-- Neighborhood -->
<g id="node16" class="node"><title>Neighborhood</title>
<polyline fill="none" stroke="black" points="317,-435 463,-435 "/>
<path fill="none" stroke="black" d="M463,-435C469,-435 475,-441 475,-447"/>
<polyline fill="none" stroke="black" points="475,-447 475,-601 "/>
<path fill="none" stroke="black" d="M475,-601C475,-607 469,-613 463,-613"/>
<polyline fill="none" stroke="black" points="463,-613 317,-613 "/>
<path fill="none" stroke="black" d="M317,-613C311,-613 305,-607 305,-601"/>
<polyline fill="none" stroke="black" points="305,-601 305,-447 "/>
<path fill="none" stroke="black" d="M305,-447C305,-441 311,-435 317,-435"/>
<text text-anchor="middle" x="390" y="-596.4" font-family="Times Roman,serif" font-size="14.00">Neighborhood</text>
<polyline fill="none" stroke="black" points="305,-587 475,-587 "/>
<text text-anchor="start" x="313" y="-570.4" font-family="Times Roman,serif" font-size="14.00">phone_number :string</text>
<text text-anchor="start" x="313" y="-552.4" font-family="Times Roman,serif" font-size="14.00">adress_number :string</text>
<text text-anchor="start" x="313" y="-534.4" font-family="Times Roman,serif" font-size="14.00">name :string</text>
<text text-anchor="start" x="313" y="-516.4" font-family="Times Roman,serif" font-size="14.00">remark :string</text>
<text text-anchor="start" x="313" y="-498.4" font-family="Times Roman,serif" font-size="14.00">active :boolean</text>
<text text-anchor="start" x="313" y="-480.4" font-family="Times Roman,serif" font-size="14.00">acronym :string</text>
<text text-anchor="start" x="313" y="-462.4" font-family="Times Roman,serif" font-size="14.00">created_at :datetime</text>
<text text-anchor="start" x="313" y="-444.4" font-family="Times Roman,serif" font-size="14.00">updated_at :datetime</text>
</g>
<!-- City&#45;&gt;Neighborhood -->
<g id="edge8" class="edge"><title>City&#45;&gt;Neighborhood</title>
<path fill="none" stroke="black" d="M411.041,-644.707C409.811,-637.651 408.569,-630.53 407.337,-623.462"/>
<ellipse fill="none" stroke="black" cx="411.747" cy="-648.761" rx="4.00001" ry="4.00001"/>
<polygon fill="black" stroke="black" points="407.259,-623.011 409.975,-612.386 406.4,-618.085 405.541,-613.159 405.541,-613.159 405.541,-613.159 406.4,-618.085 401.108,-613.932 407.259,-623.011 407.259,-623.011"/>
</g>
<!-- Phone -->
<g id="node8" class="node"><title>Phone</title>
<polyline fill="none" stroke="black" points="504.5,-1 645.5,-1 "/>
<path fill="none" stroke="black" d="M645.5,-1C651.5,-1 657.5,-7 657.5,-13"/>
<polyline fill="none" stroke="black" points="657.5,-13 657.5,-131 "/>
<path fill="none" stroke="black" d="M657.5,-131C657.5,-137 651.5,-143 645.5,-143"/>
<polyline fill="none" stroke="black" points="645.5,-143 504.5,-143 "/>
<path fill="none" stroke="black" d="M504.5,-143C498.5,-143 492.5,-137 492.5,-131"/>
<polyline fill="none" stroke="black" points="492.5,-131 492.5,-13 "/>
<path fill="none" stroke="black" d="M492.5,-13C492.5,-7 498.5,-1 504.5,-1"/>
<text text-anchor="middle" x="575" y="-126.4" font-family="Times Roman,serif" font-size="14.00">Phone</text>
<polyline fill="none" stroke="black" points="492.5,-117 657.5,-117 "/>
<text text-anchor="start" x="500.5" y="-100.4" font-family="Times Roman,serif" font-size="14.00">number :integer</text>
<text text-anchor="start" x="500.5" y="-82.4" font-family="Times Roman,serif" font-size="14.00">remark :text</text>
<text text-anchor="start" x="500.5" y="-64.4" font-family="Times Roman,serif" font-size="14.00">extension :integer</text>
<text text-anchor="start" x="500.5" y="-46.4" font-family="Times Roman,serif" font-size="14.00">active :boolean</text>
<text text-anchor="start" x="500.5" y="-28.4" font-family="Times Roman,serif" font-size="14.00">created_at :datetime</text>
<text text-anchor="start" x="500.5" y="-10.4" font-family="Times Roman,serif" font-size="14.00">updated_at :datetime</text>
</g>
<!-- Email -->
<g id="node9" class="node"><title>Email</title>
<polyline fill="none" stroke="black" points="784.5,-1 925.5,-1 "/>
<path fill="none" stroke="black" d="M925.5,-1C931.5,-1 937.5,-7 937.5,-13"/>
<polyline fill="none" stroke="black" points="937.5,-13 937.5,-131 "/>
<path fill="none" stroke="black" d="M937.5,-131C937.5,-137 931.5,-143 925.5,-143"/>
<polyline fill="none" stroke="black" points="925.5,-143 784.5,-143 "/>
<path fill="none" stroke="black" d="M784.5,-143C778.5,-143 772.5,-137 772.5,-131"/>
<polyline fill="none" stroke="black" points="772.5,-131 772.5,-13 "/>
<path fill="none" stroke="black" d="M772.5,-13C772.5,-7 778.5,-1 784.5,-1"/>
<text text-anchor="middle" x="855" y="-126.4" font-family="Times Roman,serif" font-size="14.00">Email</text>
<polyline fill="none" stroke="black" points="772.5,-117 937.5,-117 "/>
<text text-anchor="start" x="780.5" y="-100.4" font-family="Times Roman,serif" font-size="14.00">domain :string</text>
<text text-anchor="start" x="780.5" y="-82.4" font-family="Times Roman,serif" font-size="14.00">name :string</text>
<text text-anchor="start" x="780.5" y="-64.4" font-family="Times Roman,serif" font-size="14.00">remark :text</text>
<text text-anchor="start" x="780.5" y="-46.4" font-family="Times Roman,serif" font-size="14.00">active :boolean</text>
<text text-anchor="start" x="780.5" y="-28.4" font-family="Times Roman,serif" font-size="14.00">created_at :datetime</text>
<text text-anchor="start" x="780.5" y="-10.4" font-family="Times Roman,serif" font-size="14.00">updated_at :datetime</text>
</g>
<!-- ContactType -->
<g id="node10" class="node"><title>ContactType</title>
<polyline fill="none" stroke="black" points="686.5,-235 827.5,-235 "/>
<path fill="none" stroke="black" d="M827.5,-235C833.5,-235 839.5,-241 839.5,-247"/>
<polyline fill="none" stroke="black" points="839.5,-247 839.5,-347 "/>
<path fill="none" stroke="black" d="M839.5,-347C839.5,-353 833.5,-359 827.5,-359"/>
<polyline fill="none" stroke="black" points="827.5,-359 686.5,-359 "/>
<path fill="none" stroke="black" d="M686.5,-359C680.5,-359 674.5,-353 674.5,-347"/>
<polyline fill="none" stroke="black" points="674.5,-347 674.5,-247 "/>
<path fill="none" stroke="black" d="M674.5,-247C674.5,-241 680.5,-235 686.5,-235"/>
<text text-anchor="middle" x="757" y="-342.4" font-family="Times Roman,serif" font-size="14.00">ContactType</text>
<polyline fill="none" stroke="black" points="674.5,-333 839.5,-333 "/>
<text text-anchor="start" x="682.5" y="-316.4" font-family="Times Roman,serif" font-size="14.00">name :string</text>
<text text-anchor="start" x="682.5" y="-298.4" font-family="Times Roman,serif" font-size="14.00">remark :text</text>
<text text-anchor="start" x="682.5" y="-280.4" font-family="Times Roman,serif" font-size="14.00">active :boolean</text>
<text text-anchor="start" x="682.5" y="-262.4" font-family="Times Roman,serif" font-size="14.00">created_at :datetime</text>
<text text-anchor="start" x="682.5" y="-244.4" font-family="Times Roman,serif" font-size="14.00">updated_at :datetime</text>
</g>
<!-- ContactType&#45;&gt;Phone -->
<g id="edge12" class="edge"><title>ContactType&#45;&gt;Phone</title>
<path fill="none" stroke="black" d="M736.387,-227.088C727.266,-204.477 714.724,-180.493 698,-162 687.055,-149.897 679.551,-153.09 666,-144 665.914,-143.942 665.827,-143.884 665.741,-143.826"/>
<ellipse fill="none" stroke="black" cx="737.898" cy="-230.967" rx="4.00001" ry="4.00001"/>
<polygon fill="black" stroke="black" points="665.909,-143.941 660.214,-134.57 661.788,-141.11 657.666,-138.279 657.666,-138.279 657.666,-138.279 661.788,-141.11 655.118,-141.988 665.909,-143.941 665.909,-143.941"/>
</g>
<!-- ContactType&#45;&gt;Email -->
<g id="edge14" class="edge"><title>ContactType&#45;&gt;Email</title>
<path fill="none" stroke="black" d="M787.287,-227.464C797.648,-203.676 809.322,-176.873 820.022,-152.307"/>
<ellipse fill="none" stroke="black" cx="785.636" cy="-231.255" rx="4.00002" ry="4.00002"/>
<polygon fill="black" stroke="black" points="820.077,-152.18 828.196,-144.809 822.074,-147.596 824.07,-143.012 824.07,-143.012 824.07,-143.012 822.074,-147.596 819.945,-141.215 820.077,-152.18 820.077,-152.18"/>
</g>
<!-- Addre -->
<g id="node26" class="node"><title>Addre</title>
<ellipse fill="none" stroke="black" cx="715" cy="-72" rx="39.8075" ry="18.3848"/>
<text text-anchor="middle" x="715" y="-68.4" font-family="Times Roman,serif" font-size="14.00">Addre</text>
</g>
<!-- ContactType&#45;&gt;Addre -->
<g id="edge16" class="edge"><title>ContactType&#45;&gt;Addre</title>
<path fill="none" stroke="black" d="M743.897,-226.807C735.933,-184.141 726.195,-131.973 720.301,-100.399"/>
<ellipse fill="none" stroke="black" cx="744.678" cy="-230.99" rx="4.00001" ry="4.00001"/>
<polygon fill="black" stroke="black" points="720.293,-100.355 722.882,-89.699 719.375,-95.4399 718.458,-90.5248 718.458,-90.5248 718.458,-90.5248 719.375,-95.4399 714.034,-91.3505 720.293,-100.355 720.293,-100.355"/>
<text text-anchor="middle" x="761.5" y="-167.4" font-family="Times Roman,serif" font-size="14.00">Address</text>
</g>
<!-- Country -->
<g id="node11" class="node"><title>Country</title>
<polyline fill="none" stroke="black" points="393,-1089 539,-1089 "/>
<path fill="none" stroke="black" d="M539,-1089C545,-1089 551,-1095 551,-1101"/>
<polyline fill="none" stroke="black" points="551,-1101 551,-1255 "/>
<path fill="none" stroke="black" d="M551,-1255C551,-1261 545,-1267 539,-1267"/>
<polyline fill="none" stroke="black" points="539,-1267 393,-1267 "/>
<path fill="none" stroke="black" d="M393,-1267C387,-1267 381,-1261 381,-1255"/>
<polyline fill="none" stroke="black" points="381,-1255 381,-1101 "/>
<path fill="none" stroke="black" d="M381,-1101C381,-1095 387,-1089 393,-1089"/>
<text text-anchor="middle" x="466" y="-1250.4" font-family="Times Roman,serif" font-size="14.00">Country</text>
<polyline fill="none" stroke="black" points="381,-1241 551,-1241 "/>
<text text-anchor="start" x="389" y="-1224.4" font-family="Times Roman,serif" font-size="14.00">phone_number :string</text>
<text text-anchor="start" x="389" y="-1206.4" font-family="Times Roman,serif" font-size="14.00">adress_number :string</text>
<text text-anchor="start" x="389" y="-1188.4" font-family="Times Roman,serif" font-size="14.00">name :string</text>
<text text-anchor="start" x="389" y="-1170.4" font-family="Times Roman,serif" font-size="14.00">remark :string</text>
<text text-anchor="start" x="389" y="-1152.4" font-family="Times Roman,serif" font-size="14.00">active :boolean</text>
<text text-anchor="start" x="389" y="-1134.4" font-family="Times Roman,serif" font-size="14.00">acronym :string</text>
<text text-anchor="start" x="389" y="-1116.4" font-family="Times Roman,serif" font-size="14.00">created_at :datetime</text>
<text text-anchor="start" x="389" y="-1098.4" font-family="Times Roman,serif" font-size="14.00">updated_at :datetime</text>
</g>
<!-- Country&#45;&gt;State -->
<g id="edge18" class="edge"><title>Country&#45;&gt;State</title>
<path fill="none" stroke="black" d="M466,-1080.4C466,-1073.41 466,-1066.36 466,-1059.36"/>
<ellipse fill="none" stroke="black" cx="466" cy="-1084.7" rx="4" ry="4"/>
<polygon fill="black" stroke="black" points="466,-1059.16 470.5,-1049.16 466,-1054.16 466,-1049.16 466,-1049.16 466,-1049.16 466,-1054.16 461.5,-1049.16 466,-1059.16 466,-1059.16"/>
</g>
<!-- Place -->
<g id="node12" class="node"><title>Place</title>
<polyline fill="none" stroke="black" points="280,-1307 426,-1307 "/>
<path fill="none" stroke="black" d="M426,-1307C432,-1307 438,-1313 438,-1319"/>
<polyline fill="none" stroke="black" points="438,-1319 438,-1473 "/>
<path fill="none" stroke="black" d="M438,-1473C438,-1479 432,-1485 426,-1485"/>
<polyline fill="none" stroke="black" points="426,-1485 280,-1485 "/>
<path fill="none" stroke="black" d="M280,-1485C274,-1485 268,-1479 268,-1473"/>
<polyline fill="none" stroke="black" points="268,-1473 268,-1319 "/>
<path fill="none" stroke="black" d="M268,-1319C268,-1313 274,-1307 280,-1307"/>
<text text-anchor="middle" x="353" y="-1468.4" font-family="Times Roman,serif" font-size="14.00">Place</text>
<polyline fill="none" stroke="black" points="268,-1459 438,-1459 "/>
<text text-anchor="start" x="276" y="-1442.4" font-family="Times Roman,serif" font-size="14.00">phone_number :string</text>
<text text-anchor="start" x="276" y="-1424.4" font-family="Times Roman,serif" font-size="14.00">adress_number :string</text>
<text text-anchor="start" x="276" y="-1406.4" font-family="Times Roman,serif" font-size="14.00">name :string</text>
<text text-anchor="start" x="276" y="-1388.4" font-family="Times Roman,serif" font-size="14.00">remark :string</text>
<text text-anchor="start" x="276" y="-1370.4" font-family="Times Roman,serif" font-size="14.00">active :boolean</text>
<text text-anchor="start" x="276" y="-1352.4" font-family="Times Roman,serif" font-size="14.00">acronym :string</text>
<text text-anchor="start" x="276" y="-1334.4" font-family="Times Roman,serif" font-size="14.00">created_at :datetime</text>
<text text-anchor="start" x="276" y="-1316.4" font-family="Times Roman,serif" font-size="14.00">updated_at :datetime</text>
</g>
<!-- Place&#45;&gt;Street -->
<g id="edge2" class="edge"><title>Place&#45;&gt;Street</title>
<path fill="none" stroke="black" d="M306.928,-1306.92C290.968,-1268.33 277,-1221.99 277,-1178 277,-1178 277,-1178 277,-524 277,-483.118 279.903,-471.579 296,-434 302.928,-417.826 311.892,-401.581 321.527,-386.218"/>
</g>
<!-- Place&#45;&gt;State -->
<g id="edge6" class="edge"><title>Place&#45;&gt;State</title>
<path fill="none" stroke="black" d="M438.074,-1311.75C441.025,-1309.74 444.004,-1307.81 447,-1306 492.336,-1278.57 529.076,-1311.03 560,-1268 606.691,-1203.04 584.916,-1164.02 560,-1088 555.621,-1074.64 549.256,-1061.52 541.87,-1049.08"/>
</g>
<!-- Place&#45;&gt;City -->
<g id="edge10" class="edge"><title>Place&#45;&gt;City</title>
<path fill="none" stroke="black" d="M346.167,-1306.74C340.369,-1201.03 337.708,-1020.34 372,-870 374.94,-857.112 379.166,-843.91 383.997,-831.112"/>
</g>
<!-- Place&#45;&gt;Country -->
<g id="edge20" class="edge"><title>Place&#45;&gt;Country</title>
<path fill="none" stroke="black" d="M399.287,-1306.7C406.053,-1293.65 413.02,-1280.21 419.785,-1267.16"/>
</g>
<!-- Place&#45;&gt;Neighborhood -->
<g id="edge28" class="edge"><title>Place&#45;&gt;Neighborhood</title>
<path fill="none" stroke="black" d="M330.347,-1306.98C322.209,-1267.71 315,-1220.84 315,-1178 315,-1178 315,-1178 315,-742 315,-698.073 328.784,-651.743 344.534,-613.144"/>
</g>
<!-- Taxe -->
<g id="node13" class="node"><title>Taxe</title>
<polygon fill="none" stroke="black" stroke-dasharray="1,5" points="1056,-1414 1002,-1414 1002,-1378 1056,-1378 1056,-1414"/>
<text text-anchor="middle" x="1029" y="-1392.4" font-family="Times Roman,serif" font-size="14.00">Taxe</text>
</g>
<!-- Participant -->
<g id="node14" class="node"><title>Participant</title>
<polyline fill="none" stroke="black" points="1085.5,-1334 1226.5,-1334 "/>
<path fill="none" stroke="black" d="M1226.5,-1334C1232.5,-1334 1238.5,-1340 1238.5,-1346"/>
<polyline fill="none" stroke="black" points="1238.5,-1346 1238.5,-1446 "/>
<path fill="none" stroke="black" d="M1238.5,-1446C1238.5,-1452 1232.5,-1458 1226.5,-1458"/>
<polyline fill="none" stroke="black" points="1226.5,-1458 1085.5,-1458 "/>
<path fill="none" stroke="black" d="M1085.5,-1458C1079.5,-1458 1073.5,-1452 1073.5,-1446"/>
<polyline fill="none" stroke="black" points="1073.5,-1446 1073.5,-1346 "/>
<path fill="none" stroke="black" d="M1073.5,-1346C1073.5,-1340 1079.5,-1334 1085.5,-1334"/>
<text text-anchor="middle" x="1156" y="-1441.4" font-family="Times Roman,serif" font-size="14.00">Participant</text>
<polyline fill="none" stroke="black" points="1073.5,-1432 1238.5,-1432 "/>
<text text-anchor="start" x="1081.5" y="-1415.4" font-family="Times Roman,serif" font-size="14.00">name :string</text>
<text text-anchor="start" x="1081.5" y="-1397.4" font-family="Times Roman,serif" font-size="14.00">remark :text</text>
<text text-anchor="start" x="1081.5" y="-1379.4" font-family="Times Roman,serif" font-size="14.00">active :boolean</text>
<text text-anchor="start" x="1081.5" y="-1361.4" font-family="Times Roman,serif" font-size="14.00">created_at :datetime</text>
<text text-anchor="start" x="1081.5" y="-1343.4" font-family="Times Roman,serif" font-size="14.00">updated_at :datetime</text>
</g>
<!-- Person -->
<g id="node15" class="node"><title>Person</title>
<polyline fill="none" stroke="black" points="504.5,-199 645.5,-199 "/>
<path fill="none" stroke="black" d="M645.5,-199C651.5,-199 657.5,-205 657.5,-211"/>
<polyline fill="none" stroke="black" points="657.5,-211 657.5,-383 "/>
<path fill="none" stroke="black" d="M657.5,-383C657.5,-389 651.5,-395 645.5,-395"/>
<polyline fill="none" stroke="black" points="645.5,-395 504.5,-395 "/>
<path fill="none" stroke="black" d="M504.5,-395C498.5,-395 492.5,-389 492.5,-383"/>
<polyline fill="none" stroke="black" points="492.5,-383 492.5,-211 "/>
<path fill="none" stroke="black" d="M492.5,-211C492.5,-205 498.5,-199 504.5,-199"/>
<text text-anchor="middle" x="575" y="-378.4" font-family="Times Roman,serif" font-size="14.00">Person</text>
<polyline fill="none" stroke="black" points="492.5,-369 657.5,-369 "/>
<text text-anchor="start" x="500.5" y="-352.4" font-family="Times Roman,serif" font-size="14.00">first_name :string</text>
<text text-anchor="start" x="500.5" y="-334.4" font-family="Times Roman,serif" font-size="14.00">last_name :string</text>
<text text-anchor="start" x="500.5" y="-316.4" font-family="Times Roman,serif" font-size="14.00">nickname :string</text>
<text text-anchor="start" x="500.5" y="-298.4" font-family="Times Roman,serif" font-size="14.00">birthday :date</text>
<text text-anchor="start" x="500.5" y="-280.4" font-family="Times Roman,serif" font-size="14.00">code :string</text>
<text text-anchor="start" x="500.5" y="-262.4" font-family="Times Roman,serif" font-size="14.00">remark :string</text>
<text text-anchor="start" x="500.5" y="-244.4" font-family="Times Roman,serif" font-size="14.00">active :boolean</text>
<text text-anchor="start" x="500.5" y="-226.4" font-family="Times Roman,serif" font-size="14.00">created_at :datetime</text>
<text text-anchor="start" x="500.5" y="-208.4" font-family="Times Roman,serif" font-size="14.00">updated_at :datetime</text>
</g>
<!-- Person&#45;&gt;Phone -->
<g id="edge22" class="edge"><title>Person&#45;&gt;Phone</title>
<path fill="none" stroke="black" d="M575,-190.605C575,-178.081 575,-165.455 575,-153.352"/>
<ellipse fill="none" stroke="black" cx="575" cy="-194.966" rx="4" ry="4"/>
<polygon fill="black" stroke="black" points="575,-153.322 579.5,-143.322 575,-148.322 575,-143.322 575,-143.322 575,-143.322 575,-148.322 570.5,-143.322 575,-153.322 575,-153.322"/>
</g>
<!-- Person&#45;&gt;Addre -->
<g id="edge24" class="edge"><title>Person&#45;&gt;Addre</title>
<path fill="none" stroke="black" d="M640.52,-191.699C661.951,-157.257 683.944,-121.912 698.42,-98.6462"/>
<ellipse fill="none" stroke="black" cx="638.112" cy="-195.57" rx="4.00002" ry="4.00002"/>
<polygon fill="black" stroke="black" points="698.486,-98.5407 707.59,-92.4275 701.127,-94.2954 703.769,-90.0501 703.769,-90.0501 703.769,-90.0501 701.127,-94.2954 699.948,-87.6727 698.486,-98.5407 698.486,-98.5407"/>
<text text-anchor="middle" x="684.5" y="-167.4" font-family="Times Roman,serif" font-size="14.00">Address</text>
</g>
<!-- Neighborhood&#45;&gt;Street -->
<g id="edge26" class="edge"><title>Neighborhood&#45;&gt;Street</title>
<path fill="none" stroke="black" d="M390,-426.62C390,-416.547 390,-406.302 390,-396.21"/>
<ellipse fill="none" stroke="black" cx="390" cy="-430.935" rx="4" ry="4"/>
<polygon fill="black" stroke="black" points="390,-396.181 394.5,-386.181 390,-391.181 390,-386.181 390,-386.181 390,-386.181 390,-391.181 385.5,-386.181 390,-396.181 390,-396.181"/>
</g>
<!-- Address -->
<g id="node17" class="node"><title>Address</title>
<polyline fill="none" stroke="black" points="504.5,-480 645.5,-480 "/>
<path fill="none" stroke="black" d="M645.5,-480C651.5,-480 657.5,-486 657.5,-492"/>
<polyline fill="none" stroke="black" points="657.5,-492 657.5,-556 "/>
<path fill="none" stroke="black" d="M657.5,-556C657.5,-562 651.5,-568 645.5,-568"/>
<polyline fill="none" stroke="black" points="645.5,-568 504.5,-568 "/>
<path fill="none" stroke="black" d="M504.5,-568C498.5,-568 492.5,-562 492.5,-556"/>
<polyline fill="none" stroke="black" points="492.5,-556 492.5,-492 "/>
<path fill="none" stroke="black" d="M492.5,-492C492.5,-486 498.5,-480 504.5,-480"/>
<text text-anchor="middle" x="575" y="-551.4" font-family="Times Roman,serif" font-size="14.00">Address</text>
<polyline fill="none" stroke="black" points="492.5,-542 657.5,-542 "/>
<text text-anchor="start" x="500.5" y="-525.4" font-family="Times Roman,serif" font-size="14.00">active :boolean</text>
<text text-anchor="start" x="500.5" y="-507.4" font-family="Times Roman,serif" font-size="14.00">created_at :datetime</text>
<text text-anchor="start" x="500.5" y="-489.4" font-family="Times Roman,serif" font-size="14.00">updated_at :datetime</text>
</g>
<!-- Address&#45;&gt;Street -->
<g id="edge32" class="edge"><title>Address&#45;&gt;Street</title>
<path fill="none" stroke="black" d="M533.893,-473.561C514.39,-449.63 490.422,-420.22 467.68,-392.316"/>
<ellipse fill="none" stroke="black" cx="536.584" cy="-476.862" rx="4.00002" ry="4.00002"/>
<ellipse fill="black" stroke="black" cx="465.071" cy="-389.114" rx="4.00002" ry="4.00002"/>
</g>
<!-- Address&#45;&gt;ContactType -->
<g id="edge34" class="edge"><title>Address&#45;&gt;ContactType</title>
<path fill="none" stroke="black" d="M615.587,-473.377C641.007,-441.673 674.093,-400.406 701.87,-365.761"/>
<ellipse fill="none" stroke="black" cx="612.809" cy="-476.842" rx="4.00002" ry="4.00002"/>
<ellipse fill="black" stroke="black" cx="704.49" cy="-362.493" rx="4.00002" ry="4.00002"/>
</g>
<!-- Address&#45;&gt;Person -->
<g id="edge30" class="edge"><title>Address&#45;&gt;Person</title>
<path fill="none" stroke="black" d="M575,-471.819C575,-451.415 575,-427.234 575,-403.466"/>
<ellipse fill="none" stroke="black" cx="575" cy="-475.963" rx="4" ry="4"/>
<ellipse fill="black" stroke="black" cx="575" cy="-399.428" rx="4" ry="4"/>
</g>
</g>
</svg>
