<?xml version="1.0" encoding="UTF-8" standalone="no"?>
<!DOCTYPE svg PUBLIC "-//W3C//DTD SVG 1.1//EN"
 "http://www.w3.org/Graphics/SVG/1.1/DTD/svg11.dtd">
<!-- Generated by graphviz version 2.26.3 (20100126.1600)
 -->
<!-- Title: models_diagram Pages: 1 -->
<svg width="1020pt" height="574pt"
 viewBox="0.00 0.00 1020.00 574.00" xmlns="http://www.w3.org/2000/svg" xmlns:xlink="http://www.w3.org/1999/xlink">
<g id="graph1" class="graph" transform="scale(1 1) rotate(0) translate(4 570)">
<title>models_diagram</title>
<polygon fill="white" stroke="white" points="-4,5 -4,-570 1017,-570 1017,5 -4,5"/>
<!-- _diagram_info -->
<g id="node1" class="node"><title>_diagram_info</title>
<text text-anchor="start" x="8" y="-549.8" font-family="Times Roman,serif" font-size="13.00">Models diagram</text>
<text text-anchor="start" x="8" y="-532.8" font-family="Times Roman,serif" font-size="13.00">Date: Aug 04 2011 &#45; 00:16</text>
<text text-anchor="start" x="8" y="-515.8" font-family="Times Roman,serif" font-size="13.00">Migration version: 20110804031428</text>
<text text-anchor="start" x="8" y="-498.8" font-family="Times Roman,serif" font-size="13.00">Generated by RailRoady 1.0.2</text>
<text text-anchor="start" x="8" y="-481.8" font-family="Times Roman,serif" font-size="13.00">http://railroady.prestonlee.com</text>
</g>
<!-- Street -->
<g id="node2" class="node"><title>Street</title>
<ellipse fill="none" stroke="black" cx="332" cy="-111" rx="41.9273" ry="18.3848"/>
<text text-anchor="middle" x="332" y="-107.4" font-family="Times Roman,serif" font-size="14.00">Street</text>
</g>
<!-- State -->
<g id="node3" class="node"><title>State</title>
<ellipse fill="none" stroke="black" cx="384" cy="-339" rx="38.1838" ry="18.3848"/>
<text text-anchor="middle" x="384" y="-335.4" font-family="Times Roman,serif" font-size="14.00">State</text>
</g>
<!-- City -->
<g id="node7" class="node"><title>City</title>
<ellipse fill="none" stroke="black" cx="332" cy="-263" rx="31.1127" ry="18.3848"/>
<text text-anchor="middle" x="332" y="-259.4" font-family="Times Roman,serif" font-size="14.00">City</text>
</g>
<!-- State&#45;&gt;City -->
<g id="edge4" class="edge"><title>State&#45;&gt;City</title>
<path fill="none" stroke="black" d="M367.358,-314.677C361.669,-306.363 355.291,-297.041 349.535,-288.628"/>
<ellipse fill="none" stroke="black" cx="369.681" cy="-318.072" rx="4.00002" ry="4.00002"/>
<polygon fill="black" stroke="black" points="349.463,-288.522 347.53,-277.728 346.639,-284.396 343.816,-280.269 343.816,-280.269 343.816,-280.269 346.639,-284.396 340.102,-282.81 349.463,-288.522 349.463,-288.522"/>
</g>
<!-- Taxe::Group -->
<g id="node4" class="node"><title>Taxe::Group</title>
<ellipse fill="none" stroke="black" cx="430" cy="-519" rx="70.0036" ry="18.3848"/>
<text text-anchor="middle" x="430" y="-515.4" font-family="Times Roman,serif" font-size="14.00">Taxe::Group</text>
</g>
<!-- Taxe::Value -->
<g id="node5" class="node"><title>Taxe::Value</title>
<ellipse fill="none" stroke="black" cx="585" cy="-519" rx="67.1751" ry="18.3848"/>
<text text-anchor="middle" x="585" y="-515.4" font-family="Times Roman,serif" font-size="14.00">Taxe::Value</text>
</g>
<!-- Taxe::Type -->
<g id="node6" class="node"><title>Taxe::Type</title>
<ellipse fill="none" stroke="black" cx="732" cy="-519" rx="62.2254" ry="18.3848"/>
<text text-anchor="middle" x="732" y="-515.4" font-family="Times Roman,serif" font-size="14.00">Taxe::Type</text>
</g>
<!-- Neighborhood -->
<g id="node16" class="node"><title>Neighborhood</title>
<ellipse fill="none" stroke="black" cx="332" cy="-187" rx="79.9031" ry="18.3848"/>
<text text-anchor="middle" x="332" y="-183.4" font-family="Times Roman,serif" font-size="14.00">Neighborhood</text>
</g>
<!-- City&#45;&gt;Neighborhood -->
<g id="edge8" class="edge"><title>City&#45;&gt;Neighborhood</title>
<path fill="none" stroke="black" d="M332,-236.073C332,-229.449 332,-222.332 332,-215.63"/>
<ellipse fill="none" stroke="black" cx="332" cy="-240.213" rx="4" ry="4"/>
<polygon fill="black" stroke="black" points="332,-215.57 336.5,-205.57 332,-210.57 332,-205.57 332,-205.57 332,-205.57 332,-210.57 327.5,-205.57 332,-215.57 332,-215.57"/>
</g>
<!-- Phone -->
<g id="node8" class="node"><title>Phone</title>
<ellipse fill="none" stroke="black" cx="450" cy="-19" rx="41.9273" ry="18.3848"/>
<text text-anchor="middle" x="450" y="-15.4" font-family="Times Roman,serif" font-size="14.00">Phone</text>
</g>
<!-- Email -->
<g id="node9" class="node"><title>Email</title>
<ellipse fill="none" stroke="black" cx="654" cy="-19" rx="38.1838" ry="18.3848"/>
<text text-anchor="middle" x="654" y="-15.4" font-family="Times Roman,serif" font-size="14.00">Email</text>
</g>
<!-- ContactType -->
<g id="node10" class="node"><title>ContactType</title>
<ellipse fill="none" stroke="black" cx="584" cy="-111" rx="72.1249" ry="18.3848"/>
<text text-anchor="middle" x="584" y="-107.4" font-family="Times Roman,serif" font-size="14.00">ContactType</text>
</g>
<!-- ContactType&#45;&gt;Phone -->
<g id="edge12" class="edge"><title>ContactType&#45;&gt;Phone</title>
<path fill="none" stroke="black" d="M566.788,-86.1469C558.675,-75.7976 548.298,-64.288 537,-56 524.204,-46.6134 508.663,-39.0393 494.277,-33.2475"/>
<ellipse fill="none" stroke="black" cx="569.364" cy="-89.5465" rx="4.00002" ry="4.00002"/>
<polygon fill="black" stroke="black" points="493.888,-33.0985 486.159,-25.3198 489.218,-31.3103 484.549,-29.5221 484.549,-29.5221 484.549,-29.5221 489.218,-31.3103 482.94,-33.7245 493.888,-33.0985 493.888,-33.0985"/>
</g>
<!-- ContactType&#45;&gt;Email -->
<g id="edge14" class="edge"><title>ContactType&#45;&gt;Email</title>
<path fill="none" stroke="black" d="M617.382,-88.2639C622.357,-83.9195 627.111,-79.1154 631,-74 637.072,-66.0128 641.843,-56.1884 645.428,-47.0633"/>
<ellipse fill="none" stroke="black" cx="614.1" cy="-90.9671" rx="4.00002" ry="4.00002"/>
<polygon fill="black" stroke="black" points="645.464,-46.9626 653.091,-39.0834 647.161,-42.2594 648.858,-37.5561 648.858,-37.5561 648.858,-37.5561 647.161,-42.2594 644.625,-36.0289 645.464,-46.9626 645.464,-46.9626"/>
</g>
<!-- Addre -->
<g id="node26" class="node"><title>Addre</title>
<ellipse fill="none" stroke="black" cx="555" cy="-19" rx="39.8075" ry="18.3848"/>
<text text-anchor="middle" x="555" y="-15.4" font-family="Times Roman,serif" font-size="14.00">Addre</text>
</g>
<!-- ContactType&#45;&gt;Addre -->
<g id="edge16" class="edge"><title>ContactType&#45;&gt;Addre</title>
<path fill="none" stroke="black" d="M575.63,-84.4467C571.971,-72.8405 567.675,-59.21 563.953,-47.4014"/>
<ellipse fill="none" stroke="black" cx="576.929" cy="-88.5675" rx="4.00001" ry="4.00001"/>
<polygon fill="black" stroke="black" points="563.866,-47.1273 565.152,-36.237 562.363,-42.3586 560.86,-37.5899 560.86,-37.5899 560.86,-37.5899 562.363,-42.3586 556.568,-38.9428 563.866,-47.1273 563.866,-47.1273"/>
<text text-anchor="middle" x="599.5" y="-61.4" font-family="Times Roman,serif" font-size="14.00">Address</text>
</g>
<!-- Country -->
<g id="node11" class="node"><title>Country</title>
<ellipse fill="none" stroke="black" cx="384" cy="-415" rx="51.1176" ry="18.3848"/>
<text text-anchor="middle" x="384" y="-411.4" font-family="Times Roman,serif" font-size="14.00">Country</text>
</g>
<!-- Country&#45;&gt;State -->
<g id="edge18" class="edge"><title>Country&#45;&gt;State</title>
<path fill="none" stroke="black" d="M384,-388.073C384,-381.449 384,-374.332 384,-367.63"/>
<ellipse fill="none" stroke="black" cx="384" cy="-392.213" rx="4" ry="4"/>
<polygon fill="black" stroke="black" points="384,-367.57 388.5,-357.57 384,-362.57 384,-357.57 384,-357.57 384,-357.57 384,-362.57 379.5,-357.57 384,-367.57 384,-367.57"/>
</g>
<!-- Place -->
<g id="node12" class="node"><title>Place</title>
<ellipse fill="none" stroke="black" cx="305" cy="-519" rx="36.977" ry="18.3848"/>
<text text-anchor="middle" x="305" y="-515.4" font-family="Times Roman,serif" font-size="14.00">Place</text>
</g>
<!-- Place&#45;&gt;Street -->
<g id="edge2" class="edge"><title>Place&#45;&gt;Street</title>
<path fill="none" stroke="black" d="M287.822,-502.39C264.045,-478.646 224,-435.597 224,-415 224,-415 224,-415 224,-187 224,-151.234 264.104,-130.836 295.436,-120.358"/>
</g>
<!-- Place&#45;&gt;State -->
<g id="edge6" class="edge"><title>Place&#45;&gt;State</title>
<path fill="none" stroke="black" d="M318.905,-501.617C327.373,-491.905 338.873,-480.155 351,-472 388.052,-447.083 419.104,-471.066 444,-434 453.417,-419.98 450.663,-411.519 444,-396 436.518,-378.573 420.8,-363.963 407.328,-353.898"/>
</g>
<!-- Place&#45;&gt;City -->
<g id="edge10" class="edge"><title>Place&#45;&gt;City</title>
<path fill="none" stroke="black" d="M306.985,-500.176C311.991,-452.718 325.079,-328.62 330.048,-281.507"/>
</g>
<!-- Place&#45;&gt;Country -->
<g id="edge20" class="edge"><title>Place&#45;&gt;Country</title>
<path fill="none" stroke="black" d="M318.401,-501.358C332.84,-482.349 355.701,-452.254 370.267,-433.078"/>
</g>
<!-- Place&#45;&gt;Neighborhood -->
<g id="edge28" class="edge"><title>Place&#45;&gt;Neighborhood</title>
<path fill="none" stroke="black" d="M294.009,-500.942C282.786,-480.753 267,-446.718 267,-415 267,-415 267,-415 267,-263 267,-238.52 286.718,-217.951 304.434,-204.411"/>
</g>
<!-- Taxe -->
<g id="node13" class="node"><title>Taxe</title>
<polygon fill="none" stroke="black" stroke-dasharray="1,5" points="866,-537 812,-537 812,-501 866,-501 866,-537"/>
<text text-anchor="middle" x="839" y="-515.4" font-family="Times Roman,serif" font-size="14.00">Taxe</text>
</g>
<!-- Participant -->
<g id="node14" class="node"><title>Participant</title>
<ellipse fill="none" stroke="black" cx="948" cy="-519" rx="63.8479" ry="18.3848"/>
<text text-anchor="middle" x="948" y="-515.4" font-family="Times Roman,serif" font-size="14.00">Participant</text>
</g>
<!-- Person -->
<g id="node15" class="node"><title>Person</title>
<ellipse fill="none" stroke="black" cx="450" cy="-111" rx="44.0472" ry="18.3848"/>
<text text-anchor="middle" x="450" y="-107.4" font-family="Times Roman,serif" font-size="14.00">Person</text>
</g>
<!-- Person&#45;&gt;Phone -->
<g id="edge22" class="edge"><title>Person&#45;&gt;Phone</title>
<path fill="none" stroke="black" d="M450,-84.029C450,-72.5994 450,-59.2671 450,-47.6601"/>
<ellipse fill="none" stroke="black" cx="450" cy="-88.3824" rx="4" ry="4"/>
<polygon fill="black" stroke="black" points="450,-47.5899 454.5,-37.5898 450,-42.5899 450,-37.5899 450,-37.5899 450,-37.5899 450,-42.5899 445.5,-37.5899 450,-47.5899 450,-47.5899"/>
</g>
<!-- Person&#45;&gt;Addre -->
<g id="edge24" class="edge"><title>Person&#45;&gt;Addre</title>
<path fill="none" stroke="black" d="M472.745,-87.9278C482.97,-77.8527 495.34,-66.0655 507,-56 512.804,-50.9896 519.194,-45.8335 525.365,-41.0206"/>
<ellipse fill="none" stroke="black" cx="469.833" cy="-90.8183" rx="4.00002" ry="4.00002"/>
<polygon fill="black" stroke="black" points="525.64,-40.8094 536.311,-38.2845 529.604,-37.7628 533.569,-34.7163 533.569,-34.7163 533.569,-34.7163 529.604,-37.7628 530.827,-31.1481 525.64,-40.8094 525.64,-40.8094"/>
<text text-anchor="middle" x="534.5" y="-61.4" font-family="Times Roman,serif" font-size="14.00">Address</text>
</g>
<!-- Neighborhood&#45;&gt;Street -->
<g id="edge26" class="edge"><title>Neighborhood&#45;&gt;Street</title>
<path fill="none" stroke="black" d="M332,-160.073C332,-153.449 332,-146.332 332,-139.63"/>
<ellipse fill="none" stroke="black" cx="332" cy="-164.213" rx="4" ry="4"/>
<polygon fill="black" stroke="black" points="332,-139.57 336.5,-129.57 332,-134.57 332,-129.57 332,-129.57 332,-129.57 332,-134.57 327.5,-129.57 332,-139.57 332,-139.57"/>
</g>
<!-- Address -->
<g id="node17" class="node"><title>Address</title>
<ellipse fill="none" stroke="black" cx="480" cy="-187" rx="50.2046" ry="18.3848"/>
<text text-anchor="middle" x="480" y="-183.4" font-family="Times Roman,serif" font-size="14.00">Address</text>
</g>
<!-- Address&#45;&gt;Street -->
<g id="edge32" class="edge"><title>Address&#45;&gt;Street</title>
<path fill="none" stroke="black" d="M443.352,-168.181C419.99,-156.184 389.895,-140.73 366.883,-128.913"/>
<ellipse fill="none" stroke="black" cx="447.202" cy="-170.158" rx="4.00002" ry="4.00002"/>
<ellipse fill="black" stroke="black" cx="363.236" cy="-127.04" rx="4.00002" ry="4.00002"/>
</g>
<!-- Address&#45;&gt;ContactType -->
<g id="edge34" class="edge"><title>Address&#45;&gt;ContactType</title>
<path fill="none" stroke="black" d="M509.407,-165.51C523.085,-155.514 539.353,-143.627 553.2,-133.508"/>
<ellipse fill="none" stroke="black" cx="506.053" cy="-167.961" rx="4.00002" ry="4.00002"/>
<ellipse fill="black" stroke="black" cx="556.552" cy="-131.058" rx="4.00002" ry="4.00002"/>
</g>
<!-- Address&#45;&gt;Person -->
<g id="edge30" class="edge"><title>Address&#45;&gt;Person</title>
<path fill="none" stroke="black" d="M469.736,-160.999C466.67,-153.231 463.309,-144.717 460.244,-136.952"/>
<ellipse fill="none" stroke="black" cx="471.269" cy="-164.882" rx="4.00001" ry="4.00001"/>
<ellipse fill="black" stroke="black" cx="458.768" cy="-133.212" rx="4.00001" ry="4.00001"/>
</g>
</g>
</svg>
