<?xml version="1.0" encoding="UTF-8" standalone="no"?>
<!DOCTYPE svg PUBLIC "-//W3C//DTD SVG 1.1//EN"
 "http://www.w3.org/Graphics/SVG/1.1/DTD/svg11.dtd">
<!-- Generated by graphviz version 2.26.3 (20100126.1600)
 -->
<!-- Title: models_diagram Pages: 1 -->
<svg width="3514pt" height="582pt"
 viewBox="0.00 0.00 3514.00 582.00" xmlns="http://www.w3.org/2000/svg" xmlns:xlink="http://www.w3.org/1999/xlink">
<g id="graph1" class="graph" transform="scale(1 1) rotate(0) translate(4 578)">
<title>models_diagram</title>
<polygon fill="white" stroke="white" points="-4,5 -4,-578 3511,-578 3511,5 -4,5"/>
<!-- _diagram_info -->
<g id="node1" class="node"><title>_diagram_info</title>
<text text-anchor="start" x="573" y="-557.8" font-family="Times Roman,serif" font-size="13.00">Models diagram</text>
<text text-anchor="start" x="573" y="-540.8" font-family="Times Roman,serif" font-size="13.00">Date: Aug 22 2011 &#45; 21:47</text>
<text text-anchor="start" x="573" y="-523.8" font-family="Times Roman,serif" font-size="13.00">Migration version: 20110823002613</text>
<text text-anchor="start" x="573" y="-506.8" font-family="Times Roman,serif" font-size="13.00">Generated by RailRoady 1.0.2</text>
<text text-anchor="start" x="573" y="-489.8" font-family="Times Roman,serif" font-size="13.00">http://railroady.prestonlee.com</text>
</g>
<!-- Taxe::Group -->
<g id="node2" class="node"><title>Taxe::Group</title>
<ellipse fill="none" stroke="black" cx="70" cy="-407" rx="70.0036" ry="18.3848"/>
<text text-anchor="middle" x="70" y="-403.4" font-family="Times Roman,serif" font-size="14.00">Taxe::Group</text>
</g>
<!-- Taxe::Type -->
<g id="node4" class="node"><title>Taxe::Type</title>
<ellipse fill="none" stroke="black" cx="70" cy="-295" rx="62.2254" ry="18.3848"/>
<text text-anchor="middle" x="70" y="-291.4" font-family="Times Roman,serif" font-size="14.00">Taxe::Type</text>
</g>
<!-- Taxe::Group&#45;&gt;Taxe::Type -->
<g id="edge2" class="edge"><title>Taxe::Group&#45;&gt;Taxe::Type</title>
<path fill="none" stroke="black" d="M70,-380.242C70,-363.273 70,-341.325 70,-323.95"/>
<ellipse fill="none" stroke="black" cx="70" cy="-384.254" rx="4" ry="4"/>
<polygon fill="black" stroke="black" points="70.0001,-323.807 74.5,-313.807 70,-318.807 70,-313.807 70,-313.807 70,-313.807 70,-318.807 65.5,-313.807 70.0001,-323.807 70.0001,-323.807"/>
<text text-anchor="middle" x="86" y="-347.4" font-family="Times Roman,serif" font-size="14.00">Type</text>
</g>
<!-- Taxe::Value -->
<g id="node3" class="node"><title>Taxe::Value</title>
<ellipse fill="none" stroke="black" cx="168" cy="-203" rx="67.1751" ry="18.3848"/>
<text text-anchor="middle" x="168" y="-199.4" font-family="Times Roman,serif" font-size="14.00">Taxe::Value</text>
</g>
<!-- Taxe::Type&#45;&gt;Taxe::Value -->
<g id="edge4" class="edge"><title>Taxe::Type&#45;&gt;Taxe::Value</title>
<path fill="none" stroke="black" d="M84.3325,-269.712C90.7517,-259.732 98.9238,-248.616 108,-240 113.804,-234.49 120.558,-229.381 127.397,-224.828"/>
<ellipse fill="none" stroke="black" cx="82.0889" cy="-273.328" rx="4.00002" ry="4.00002"/>
<polygon fill="black" stroke="black" points="127.586,-224.708 138.444,-223.173 131.814,-222.038 136.041,-219.369 136.041,-219.369 136.041,-219.369 131.814,-222.038 133.638,-215.564 127.586,-224.708 127.586,-224.708"/>
<text text-anchor="middle" x="131" y="-245.4" font-family="Times Roman,serif" font-size="14.00">Values</text>
</g>
<!-- Goods -->
<g id="node5" class="node"><title>Goods</title>
<polygon fill="none" stroke="black" stroke-dasharray="1,5" points="2118,-545 2060,-545 2060,-509 2118,-509 2118,-545"/>
<text text-anchor="middle" x="2089" y="-523.4" font-family="Times Roman,serif" font-size="14.00">Goods</text>
</g>
<!-- Email -->
<g id="node6" class="node"><title>Email</title>
<polygon fill="none" stroke="black" stroke-dasharray="1,5" points="2190,-545 2136,-545 2136,-509 2190,-509 2190,-545"/>
<text text-anchor="middle" x="2163" y="-523.4" font-family="Times Roman,serif" font-size="14.00">Email</text>
</g>
<!-- Transaction::Goods -->
<g id="node7" class="node"><title>Transaction::Goods</title>
<polygon fill="none" stroke="black" stroke-dasharray="1,5" points="2354,-545 2208,-545 2208,-509 2354,-509 2354,-545"/>
<text text-anchor="middle" x="2281" y="-523.4" font-family="Times Roman,serif" font-size="14.00">Transaction::Goods</text>
</g>
<!-- Transaction::Xml -->
<g id="node8" class="node"><title>Transaction::Xml</title>
<ellipse fill="none" stroke="black" cx="543" cy="-407" rx="92.1303" ry="18.3848"/>
<text text-anchor="middle" x="543" y="-403.4" font-family="Times Roman,serif" font-size="14.00">Transaction::Xml</text>
</g>
<!-- Transaction::Record -->
<g id="node9" class="node"><title>Transaction::Record</title>
<polygon fill="none" stroke="black" stroke-dasharray="1,5" points="2522,-545 2372,-545 2372,-509 2522,-509 2522,-545"/>
<text text-anchor="middle" x="2447" y="-523.4" font-family="Times Roman,serif" font-size="14.00">Transaction::Record</text>
</g>
<!-- Transaction::Participant -->
<g id="node10" class="node"><title>Transaction::Participant</title>
<ellipse fill="none" stroke="black" cx="1431" cy="-407" rx="126.072" ry="18.3848"/>
<text text-anchor="middle" x="1431" y="-403.4" font-family="Times Roman,serif" font-size="14.00">Transaction::Participant</text>
</g>
<!-- Participant::Sender -->
<g id="node30" class="node"><title>Participant::Sender</title>
<ellipse fill="none" stroke="black" cx="1451" cy="-295" rx="104.86" ry="18.3848"/>
<text text-anchor="middle" x="1451" y="-291.4" font-family="Times Roman,serif" font-size="14.00">Participant::Sender</text>
</g>
<!-- Transaction::Participant&#45;&gt;Participant::Sender -->
<g id="edge8" class="edge"><title>Transaction::Participant&#45;&gt;Participant::Sender</title>
<path fill="none" stroke="black" d="M1433.69,-380.382C1435.36,-365.983 1437.8,-347.933 1441,-332 1441.68,-328.624 1442.49,-325.101 1443.36,-321.628"/>
<ellipse fill="none" stroke="black" cx="1433.24" cy="-384.419" rx="4.00001" ry="4.00001"/>
<ellipse fill="black" stroke="black" cx="1444.42" cy="-317.579" rx="4.00001" ry="4.00001"/>
<text text-anchor="middle" x="1465.5" y="-347.4" font-family="Times Roman,serif" font-size="14.00">Sender</text>
</g>
<!-- Participant::Issuer -->
<g id="node31" class="node"><title>Participant::Issuer</title>
<ellipse fill="none" stroke="black" cx="1673" cy="-295" rx="99.201" ry="18.3848"/>
<text text-anchor="middle" x="1673" y="-291.4" font-family="Times Roman,serif" font-size="14.00">Participant::Issuer</text>
</g>
<!-- Transaction::Participant&#45;&gt;Participant::Issuer -->
<g id="edge6" class="edge"><title>Transaction::Participant&#45;&gt;Participant::Issuer</title>
<path fill="none" stroke="black" d="M1467.4,-384.596C1474.92,-379.85 1482.75,-374.817 1490,-370 1514.44,-353.754 1517.53,-344.666 1544,-332 1561.64,-323.56 1581.58,-316.676 1600.42,-311.237"/>
<ellipse fill="none" stroke="black" cx="1463.99" cy="-386.734" rx="4.00002" ry="4.00002"/>
<ellipse fill="black" stroke="black" cx="1604.28" cy="-310.152" rx="4.00001" ry="4.00001"/>
<text text-anchor="middle" x="1565" y="-347.4" font-family="Times Roman,serif" font-size="14.00">Issuer</text>
</g>
<!-- Participant::Delivery -->
<g id="node32" class="node"><title>Participant::Delivery</title>
<ellipse fill="none" stroke="black" cx="1901" cy="-295" rx="111.222" ry="18.3848"/>
<text text-anchor="middle" x="1901" y="-291.4" font-family="Times Roman,serif" font-size="14.00">Participant::Delivery</text>
</g>
<!-- Transaction::Participant&#45;&gt;Participant::Delivery -->
<g id="edge10" class="edge"><title>Transaction::Participant&#45;&gt;Participant::Delivery</title>
<path fill="none" stroke="black" d="M1508.29,-389.635C1533.19,-383.751 1560.84,-376.912 1586,-370 1640.76,-354.954 1652.91,-345.813 1708,-332 1742.47,-323.358 1780.83,-315.623 1814.22,-309.489"/>
<ellipse fill="none" stroke="black" cx="1504.21" cy="-390.595" rx="4.00001" ry="4.00001"/>
<ellipse fill="black" stroke="black" cx="1818.22" cy="-308.761" rx="4.00001" ry="4.00001"/>
<text text-anchor="middle" x="1737" y="-347.4" font-family="Times Roman,serif" font-size="14.00">Delivery</text>
</g>
<!-- Transaction::Financier -->
<g id="node11" class="node"><title>Transaction::Financier</title>
<ellipse fill="none" stroke="black" cx="1957" cy="-407" rx="118.087" ry="18.3848"/>
<text text-anchor="middle" x="1957" y="-403.4" font-family="Times Roman,serif" font-size="14.00">Transaction::Financier</text>
</g>
<!-- Transaction::Goods::Additional -->
<g id="node12" class="node"><title>Transaction::Goods::Additional</title>
<ellipse fill="none" stroke="black" cx="824" cy="-295" rx="159.099" ry="18.3848"/>
<text text-anchor="middle" x="824" y="-291.4" font-family="Times Roman,serif" font-size="14.00">Transaction::Goods::Additional</text>
</g>
<!-- Goods::Additional::Value -->
<g id="node39" class="node"><title>Goods::Additional::Value</title>
<ellipse fill="none" stroke="black" cx="1127" cy="-203" rx="130.815" ry="18.3848"/>
<text text-anchor="middle" x="1127" y="-199.4" font-family="Times Roman,serif" font-size="14.00">Goods::Additional::Value</text>
</g>
<!-- Transaction::Goods::Additional&#45;&gt;Goods::Additional::Value -->
<g id="edge12" class="edge"><title>Transaction::Goods::Additional&#45;&gt;Goods::Additional::Value</title>
<path fill="none" stroke="black" d="M888.844,-275.311C939.915,-259.805 1010.78,-238.288 1061.91,-222.763"/>
<ellipse fill="none" stroke="black" cx="884.819" cy="-276.533" rx="4.00001" ry="4.00001"/>
<polygon fill="black" stroke="black" points="1061.97,-222.744 1072.85,-224.145 1066.76,-221.291 1071.54,-219.839 1071.54,-219.839 1071.54,-219.839 1066.76,-221.291 1070.23,-215.533 1061.97,-222.744 1061.97,-222.744"/>
<text text-anchor="middle" x="1022.5" y="-245.4" font-family="Times Roman,serif" font-size="14.00">Value</text>
</g>
<!-- Transaction::Goods::Taxe -->
<g id="node13" class="node"><title>Transaction::Goods::Taxe</title>
<ellipse fill="none" stroke="black" cx="357" cy="-295" rx="132.229" ry="18.3848"/>
<text text-anchor="middle" x="357" y="-291.4" font-family="Times Roman,serif" font-size="14.00">Transaction::Goods::Taxe</text>
</g>
<!-- Transaction::Goods::Taxe&#45;&gt;Taxe::Value -->
<g id="edge14" class="edge"><title>Transaction::Goods::Taxe&#45;&gt;Taxe::Value</title>
<path fill="none" stroke="black" d="M312.603,-273.389C281.199,-258.102 239.41,-237.76 208.833,-222.877"/>
<ellipse fill="none" stroke="black" cx="316.514" cy="-275.292" rx="4.00002" ry="4.00002"/>
<ellipse fill="black" stroke="black" cx="204.911" cy="-220.967" rx="4.00002" ry="4.00002"/>
<text text-anchor="middle" x="299.5" y="-245.4" font-family="Times Roman,serif" font-size="14.00">Value</text>
</g>
<!-- Transaction::Goods::Item -->
<g id="node14" class="node"><title>Transaction::Goods::Item</title>
<ellipse fill="none" stroke="black" cx="824" cy="-407" rx="132.936" ry="18.3848"/>
<text text-anchor="middle" x="824" y="-403.4" font-family="Times Roman,serif" font-size="14.00">Transaction::Goods::Item</text>
</g>
<!-- Transaction::Goods::Item&#45;&gt;Transaction::Goods::Additional -->
<g id="edge16" class="edge"><title>Transaction::Goods::Item&#45;&gt;Transaction::Goods::Additional</title>
<path fill="none" stroke="black" d="M824,-380.242C824,-363.273 824,-341.325 824,-323.95"/>
<ellipse fill="none" stroke="black" cx="824" cy="-384.254" rx="4" ry="4"/>
<polygon fill="black" stroke="black" points="824,-323.807 828.5,-313.807 824,-318.807 824,-313.807 824,-313.807 824,-313.807 824,-318.807 819.5,-313.807 824,-323.807 824,-323.807"/>
<text text-anchor="middle" x="859" y="-347.4" font-family="Times Roman,serif" font-size="14.00">Additional</text>
</g>
<!-- Transaction::Goods::Item&#45;&gt;Transaction::Goods::Taxe -->
<g id="edge18" class="edge"><title>Transaction::Goods::Item&#45;&gt;Transaction::Goods::Taxe</title>
<path fill="none" stroke="black" d="M731.525,-391.05C698.995,-385.017 662.263,-377.728 629,-370 557.77,-353.451 477.118,-330.698 422.256,-314.605"/>
<ellipse fill="none" stroke="black" cx="735.767" cy="-391.831" rx="4.00001" ry="4.00001"/>
<polygon fill="black" stroke="black" points="422.253,-314.604 413.931,-307.464 417.457,-313.193 412.66,-311.781 412.66,-311.781 412.66,-311.781 417.457,-313.193 411.39,-316.098 422.253,-314.604 422.253,-314.604"/>
<text text-anchor="middle" x="644.5" y="-347.4" font-family="Times Roman,serif" font-size="14.00">Taxe</text>
</g>
<!-- Goods::Item -->
<g id="node41" class="node"><title>Goods::Item</title>
<ellipse fill="none" stroke="black" cx="577" cy="-295" rx="70.2092" ry="18.3848"/>
<text text-anchor="middle" x="577" y="-291.4" font-family="Times Roman,serif" font-size="14.00">Goods::Item</text>
</g>
<!-- Transaction::Goods::Item&#45;&gt;Goods::Item -->
<g id="edge20" class="edge"><title>Transaction::Goods::Item&#45;&gt;Goods::Item</title>
<path fill="none" stroke="black" d="M777.392,-385.866C732.041,-365.302 663.716,-334.321 619.733,-314.377"/>
<ellipse fill="none" stroke="black" cx="781.219" cy="-387.601" rx="4.00002" ry="4.00002"/>
<ellipse fill="black" stroke="black" cx="615.996" cy="-312.682" rx="4.00002" ry="4.00002"/>
<text text-anchor="middle" x="754" y="-347.4" font-family="Times Roman,serif" font-size="14.00">Item</text>
</g>
<!-- Transaction::Record::Record -->
<g id="node15" class="node"><title>Transaction::Record::Record</title>
<ellipse fill="none" stroke="black" cx="978" cy="-527" rx="145.163" ry="18.3848"/>
<text text-anchor="middle" x="978" y="-523.4" font-family="Times Roman,serif" font-size="14.00">Transaction::Record::Record</text>
</g>
<!-- Transaction::Record::Record&#45;&gt;Transaction::Xml -->
<g id="edge24" class="edge"><title>Transaction::Record::Record&#45;&gt;Transaction::Xml</title>
<path fill="none" stroke="black" d="M922.52,-506.963C893.534,-497.291 857.258,-486.419 824,-480 731.587,-462.164 700.559,-496.52 613,-462 595.454,-455.083 578.73,-442.262 566.031,-430.739"/>
<ellipse fill="none" stroke="black" cx="926.319" cy="-508.244" rx="4.00001" ry="4.00001"/>
<ellipse fill="black" stroke="black" cx="563.054" cy="-427.952" rx="4.00002" ry="4.00002"/>
<text text-anchor="middle" x="627" y="-449.4" font-family="Times Roman,serif" font-size="14.00">Xml</text>
</g>
<!-- Transaction::Record::Record&#45;&gt;Transaction::Participant -->
<g id="edge32" class="edge"><title>Transaction::Record::Record&#45;&gt;Transaction::Participant</title>
<path fill="none" stroke="black" d="M1048.8,-508.245C1133.6,-485.78 1274.84,-448.368 1359.81,-425.858"/>
<ellipse fill="none" stroke="black" cx="1044.85" cy="-509.29" rx="4.00001" ry="4.00001"/>
<polygon fill="black" stroke="black" points="1359.97,-425.817 1370.79,-427.606 1364.8,-424.536 1369.63,-423.256 1369.63,-423.256 1369.63,-423.256 1364.8,-424.536 1368.48,-418.906 1359.97,-425.817 1359.97,-425.817"/>
<text text-anchor="middle" x="1322.5" y="-449.4" font-family="Times Roman,serif" font-size="14.00">Participant</text>
</g>
<!-- Transaction::Record::Record&#45;&gt;Transaction::Financier -->
<g id="edge26" class="edge"><title>Transaction::Record::Record&#45;&gt;Transaction::Financier</title>
<path fill="none" stroke="black" d="M1096.65,-514.092C1261.39,-495.905 1568.67,-461.029 1830,-426 1840.57,-424.583 1851.63,-423.031 1862.62,-421.446"/>
<ellipse fill="none" stroke="black" cx="1092.4" cy="-514.56" rx="4.00001" ry="4.00001"/>
<polygon fill="black" stroke="black" points="1862.79,-421.422 1873.33,-424.436 1867.74,-420.702 1872.68,-419.983 1872.68,-419.983 1872.68,-419.983 1867.74,-420.702 1872.04,-415.529 1862.79,-421.422 1862.79,-421.422"/>
<text text-anchor="middle" x="1722.5" y="-449.4" font-family="Times Roman,serif" font-size="14.00">Financier</text>
</g>
<!-- Transaction::Record::Record&#45;&gt;Transaction::Goods::Item -->
<g id="edge28" class="edge"><title>Transaction::Record::Record&#45;&gt;Transaction::Goods::Item</title>
<path fill="none" stroke="black" d="M947.873,-503.524C921.238,-482.77 882.525,-452.604 855.489,-431.537"/>
<ellipse fill="none" stroke="black" cx="951.12" cy="-506.054" rx="4.00002" ry="4.00002"/>
<polygon fill="black" stroke="black" points="855.387,-431.458 850.265,-421.761 851.443,-428.384 847.499,-425.311 847.499,-425.311 847.499,-425.311 851.443,-428.384 844.733,-428.861 855.387,-431.458 855.387,-431.458"/>
<text text-anchor="middle" x="908" y="-449.4" font-family="Times Roman,serif" font-size="14.00">Item</text>
</g>
<!-- Transaction::Record::Taxe -->
<g id="node16" class="node"><title>Transaction::Record::Taxe</title>
<ellipse fill="none" stroke="black" cx="273" cy="-351" rx="135.057" ry="18.3848"/>
<text text-anchor="middle" x="273" y="-347.4" font-family="Times Roman,serif" font-size="14.00">Transaction::Record::Taxe</text>
</g>
<!-- Transaction::Record::Record&#45;&gt;Transaction::Record::Taxe -->
<g id="edge22" class="edge"><title>Transaction::Record::Record&#45;&gt;Transaction::Record::Taxe</title>
<path fill="none" stroke="black" d="M915.718,-507.412C835.05,-481.786 702.314,-438.655 682,-426 661.727,-413.371 665.585,-398.225 644,-388 638.289,-385.295 501.408,-372.114 395.564,-362.25"/>
<ellipse fill="none" stroke="black" cx="919.544" cy="-508.626" rx="4.00001" ry="4.00001"/>
<polygon fill="black" stroke="black" points="395.38,-362.233 385.84,-356.825 390.402,-361.769 385.423,-361.306 385.423,-361.306 385.423,-361.306 390.402,-361.769 385.006,-365.787 395.38,-362.233 395.38,-362.233"/>
<text text-anchor="middle" x="791.5" y="-449.4" font-family="Times Roman,serif" font-size="14.00">Taxe</text>
</g>
<!-- Transaction::Record::Tot -->
<g id="node17" class="node"><title>Transaction::Record::Tot</title>
<ellipse fill="none" stroke="black" cx="1275" cy="-351" rx="127.986" ry="18.3848"/>
<text text-anchor="middle" x="1275" y="-347.4" font-family="Times Roman,serif" font-size="14.00">Transaction::Record::Tot</text>
</g>
<!-- Transaction::Record::Record&#45;&gt;Transaction::Record::Tot -->
<g id="edge30" class="edge"><title>Transaction::Record::Record&#45;&gt;Transaction::Record::Tot</title>
<path fill="none" stroke="black" d="M1015.64,-504.694C1072.12,-471.223 1178.29,-408.31 1235.72,-374.278"/>
<ellipse fill="none" stroke="black" cx="1012.11" cy="-506.789" rx="4.00002" ry="4.00002"/>
<polygon fill="black" stroke="black" points="1235.9,-374.171 1246.8,-372.945 1240.2,-371.622 1244.5,-369.073 1244.5,-369.073 1244.5,-369.073 1240.2,-371.622 1242.21,-365.202 1235.9,-374.171 1235.9,-374.171"/>
<text text-anchor="middle" x="1125" y="-449.4" font-family="Times Roman,serif" font-size="14.00">Tot</text>
</g>
<!-- Transaction::Record::Taxe&#45;&gt;Taxe::Value -->
<g id="edge34" class="edge"><title>Transaction::Record::Taxe&#45;&gt;Taxe::Value</title>
<path fill="none" stroke="black" d="M195.684,-330.8C188.511,-326.285 182.053,-320.76 177,-314 158.982,-289.897 159.547,-254.07 162.759,-229.686"/>
<ellipse fill="none" stroke="black" cx="199.589" cy="-333.015" rx="4.00002" ry="4.00002"/>
<ellipse fill="black" stroke="black" cx="163.384" cy="-225.532" rx="4.00001" ry="4.00001"/>
<text text-anchor="middle" x="196.5" y="-291.4" font-family="Times Roman,serif" font-size="14.00">Value</text>
</g>
<!-- Transaction::Record::Tot&#45;&gt;Goods::Additional::Value -->
<g id="edge36" class="edge"><title>Transaction::Record::Tot&#45;&gt;Goods::Additional::Value</title>
<path fill="none" stroke="black" d="M1275.93,-324.192C1275.18,-308.805 1271.96,-289.851 1262,-276 1244.82,-252.109 1217.34,-235.245 1191.64,-223.792"/>
<ellipse fill="none" stroke="black" cx="1276.02" cy="-328.32" rx="4" ry="4"/>
<polygon fill="black" stroke="black" points="1191.48,-223.724 1184.04,-215.672 1186.88,-221.769 1182.28,-219.814 1182.28,-219.814 1182.28,-219.814 1186.88,-221.769 1180.52,-223.956 1191.48,-223.724 1191.48,-223.724"/>
<text text-anchor="middle" x="1294.5" y="-291.4" font-family="Times Roman,serif" font-size="14.00">Value</text>
</g>
<!-- Address::Street -->
<g id="node18" class="node"><title>Address::Street</title>
<ellipse fill="none" stroke="black" cx="2698" cy="-19" rx="86.9741" ry="18.3848"/>
<text text-anchor="middle" x="2698" y="-15.4" font-family="Times Roman,serif" font-size="14.00">Address::Street</text>
</g>
<!-- Address::State -->
<g id="node19" class="node"><title>Address::State</title>
<ellipse fill="none" stroke="black" cx="2728" cy="-295" rx="82.2301" ry="18.3848"/>
<text text-anchor="middle" x="2728" y="-291.4" font-family="Times Roman,serif" font-size="14.00">Address::State</text>
</g>
<!-- Address::City -->
<g id="node20" class="node"><title>Address::City</title>
<ellipse fill="none" stroke="black" cx="2728" cy="-203" rx="75.1594" ry="18.3848"/>
<text text-anchor="middle" x="2728" y="-199.4" font-family="Times Roman,serif" font-size="14.00">Address::City</text>
</g>
<!-- Address::State&#45;&gt;Address::City -->
<g id="edge40" class="edge"><title>Address::State&#45;&gt;Address::City</title>
<path fill="none" stroke="black" d="M2728,-268.029C2728,-256.599 2728,-243.267 2728,-231.66"/>
<ellipse fill="none" stroke="black" cx="2728" cy="-272.382" rx="4" ry="4"/>
<polygon fill="black" stroke="black" points="2728,-231.59 2732.5,-221.59 2728,-226.59 2728,-221.59 2728,-221.59 2728,-221.59 2728,-226.59 2723.5,-221.59 2728,-231.59 2728,-231.59"/>
</g>
<!-- Address::Neighborhood -->
<g id="node23" class="node"><title>Address::Neighborhood</title>
<ellipse fill="none" stroke="black" cx="2698" cy="-111" rx="123.951" ry="18.3848"/>
<text text-anchor="middle" x="2698" y="-107.4" font-family="Times Roman,serif" font-size="14.00">Address::Neighborhood</text>
</g>
<!-- Address::City&#45;&gt;Address::Neighborhood -->
<g id="edge44" class="edge"><title>Address::City&#45;&gt;Address::Neighborhood</title>
<path fill="none" stroke="black" d="M2719.34,-176.447C2715.56,-164.84 2711.11,-151.21 2707.26,-139.401"/>
<ellipse fill="none" stroke="black" cx="2720.69" cy="-180.58" rx="4.00001" ry="4.00001"/>
<polygon fill="black" stroke="black" points="2707.16,-139.097 2708.34,-128.195 2705.61,-134.344 2704.06,-129.59 2704.06,-129.59 2704.06,-129.59 2705.61,-134.344 2699.78,-130.985 2707.16,-139.097 2707.16,-139.097"/>
</g>
<!-- Address::Country -->
<g id="node21" class="node"><title>Address::Country</title>
<ellipse fill="none" stroke="black" cx="2746" cy="-407" rx="96.1665" ry="18.3848"/>
<text text-anchor="middle" x="2746" y="-403.4" font-family="Times Roman,serif" font-size="14.00">Address::Country</text>
</g>
<!-- Address::Country&#45;&gt;Address::State -->
<g id="edge48" class="edge"><title>Address::Country&#45;&gt;Address::State</title>
<path fill="none" stroke="black" d="M2741.73,-380.452C2738.99,-363.378 2735.42,-341.198 2732.61,-323.714"/>
<ellipse fill="none" stroke="black" cx="2742.39" cy="-384.556" rx="4.00001" ry="4.00001"/>
<polygon fill="black" stroke="black" points="2732.56,-323.395 2735.42,-312.808 2731.77,-318.459 2730.98,-313.522 2730.98,-313.522 2730.98,-313.522 2731.77,-318.459 2726.53,-314.236 2732.56,-323.395 2732.56,-323.395"/>
</g>
<!-- Address::Place -->
<g id="node22" class="node"><title>Address::Place</title>
<ellipse fill="none" stroke="black" cx="2622" cy="-527" rx="82.0244" ry="18.3848"/>
<text text-anchor="middle" x="2622" y="-523.4" font-family="Times Roman,serif" font-size="14.00">Address::Place</text>
</g>
<!-- Address::Place&#45;&gt;Address::Street -->
<g id="edge38" class="edge"><title>Address::Place&#45;&gt;Address::Street</title>
<path fill="none" stroke="black" d="M2601.23,-508.896C2578.73,-487.162 2546,-448.429 2546,-407 2546,-407 2546,-407 2546,-111 2546,-67.3527 2592.44,-43.8487 2633.98,-31.5552"/>
</g>
<!-- Address::Place&#45;&gt;Address::State -->
<g id="edge42" class="edge"><title>Address::Place&#45;&gt;Address::State</title>
<path fill="none" stroke="black" d="M2621.06,-508.45C2620.41,-480.812 2622.06,-427.811 2641,-388 2655.62,-357.252 2684.14,-329.843 2704.54,-312.883"/>
</g>
<!-- Address::Place&#45;&gt;Address::City -->
<g id="edge46" class="edge"><title>Address::Place&#45;&gt;Address::City</title>
<path fill="none" stroke="black" d="M2653.19,-509.871C2670.58,-500.582 2692.75,-489.162 2713,-480 2773.01,-452.852 2813.87,-480.399 2851,-426 2875.12,-390.656 2845.64,-316.087 2819,-276 2803.42,-252.552 2777.93,-233.046 2757.89,-220.113"/>
</g>
<!-- Address::Place&#45;&gt;Address::Country -->
<g id="edge50" class="edge"><title>Address::Place&#45;&gt;Address::Country</title>
<path fill="none" stroke="black" d="M2640.83,-508.775C2664.14,-486.22 2703.6,-448.03 2726.99,-425.397"/>
</g>
<!-- Address::Place&#45;&gt;Address::Neighborhood -->
<g id="edge54" class="edge"><title>Address::Place&#45;&gt;Address::Neighborhood</title>
<path fill="none" stroke="black" d="M2612.21,-508.456C2600.95,-485.357 2584,-444.369 2584,-407 2584,-407 2584,-407 2584,-203 2584,-167.013 2618.83,-142.701 2649.98,-128.152"/>
</g>
<!-- Address::Neighborhood&#45;&gt;Address::Street -->
<g id="edge52" class="edge"><title>Address::Neighborhood&#45;&gt;Address::Street</title>
<path fill="none" stroke="black" d="M2698,-84.029C2698,-72.5994 2698,-59.2671 2698,-47.6601"/>
<ellipse fill="none" stroke="black" cx="2698" cy="-88.3824" rx="4" ry="4"/>
<polygon fill="black" stroke="black" points="2698,-47.5899 2702.5,-37.5898 2698,-42.5899 2698,-37.5899 2698,-37.5899 2698,-37.5899 2698,-42.5899 2693.5,-37.5899 2698,-47.5899 2698,-47.5899"/>
</g>
<!-- Taxe -->
<g id="node24" class="node"><title>Taxe</title>
<polygon fill="none" stroke="black" stroke-dasharray="1,5" points="2776,-545 2722,-545 2722,-509 2776,-509 2776,-545"/>
<text text-anchor="middle" x="2749" y="-523.4" font-family="Times Roman,serif" font-size="14.00">Taxe</text>
</g>
<!-- Financier::Note -->
<g id="node25" class="node"><title>Financier::Note</title>
<ellipse fill="none" stroke="black" cx="1957" cy="-527" rx="85.0596" ry="18.3848"/>
<text text-anchor="middle" x="1957" y="-523.4" font-family="Times Roman,serif" font-size="14.00">Financier::Note</text>
</g>
<!-- Financier::Note&#45;&gt;Transaction::Financier -->
<g id="edge56" class="edge"><title>Financier::Note&#45;&gt;Transaction::Financier</title>
<path fill="none" stroke="black" d="M1957,-500.053C1957,-480.303 1957,-453.609 1957,-433.876"/>
<ellipse fill="none" stroke="black" cx="1957" cy="-504.25" rx="4" ry="4"/>
<ellipse fill="black" stroke="black" cx="1957" cy="-429.618" rx="4" ry="4"/>
<text text-anchor="middle" x="1988.5" y="-449.4" font-family="Times Roman,serif" font-size="14.00">Financier</text>
</g>
<!-- Participant -->
<g id="node26" class="node"><title>Participant</title>
<polygon fill="none" stroke="black" stroke-dasharray="1,5" points="2884,-545 2794,-545 2794,-509 2884,-509 2884,-545"/>
<text text-anchor="middle" x="2839" y="-523.4" font-family="Times Roman,serif" font-size="14.00">Participant</text>
</g>
<!-- Financier -->
<g id="node27" class="node"><title>Financier</title>
<polygon fill="none" stroke="black" stroke-dasharray="1,5" points="2980,-545 2902,-545 2902,-509 2980,-509 2980,-545"/>
<text text-anchor="middle" x="2941" y="-523.4" font-family="Times Roman,serif" font-size="14.00">Financier</text>
</g>
<!-- Transaction -->
<g id="node28" class="node"><title>Transaction</title>
<polygon fill="none" stroke="black" stroke-dasharray="1,5" points="3092,-545 2998,-545 2998,-509 3092,-509 3092,-545"/>
<text text-anchor="middle" x="3045" y="-523.4" font-family="Times Roman,serif" font-size="14.00">Transaction</text>
</g>
<!-- Participant::Contact -->
<g id="node29" class="node"><title>Participant::Contact</title>
<polygon fill="none" stroke="black" stroke-dasharray="1,5" points="3264,-545 3110,-545 3110,-509 3264,-509 3264,-545"/>
<text text-anchor="middle" x="3187" y="-523.4" font-family="Times Roman,serif" font-size="14.00">Participant::Contact</text>
</g>
<!-- Participant::Person -->
<g id="node34" class="node"><title>Participant::Person</title>
<ellipse fill="none" stroke="black" cx="1673" cy="-203" rx="103.238" ry="18.3848"/>
<text text-anchor="middle" x="1673" y="-199.4" font-family="Times Roman,serif" font-size="14.00">Participant::Person</text>
</g>
<!-- Participant::Sender&#45;&gt;Participant::Person -->
<g id="edge58" class="edge"><title>Participant::Sender&#45;&gt;Participant::Person</title>
<path fill="none" stroke="black" d="M1499.94,-274.719C1536.91,-259.397 1587.42,-238.466 1624.33,-223.171"/>
<ellipse fill="none" stroke="black" cx="1495.93" cy="-276.38" rx="4.00001" ry="4.00001"/>
<ellipse fill="black" stroke="black" cx="1628.29" cy="-221.529" rx="4.00001" ry="4.00001"/>
<text text-anchor="middle" x="1605.5" y="-245.4" font-family="Times Roman,serif" font-size="14.00">Person</text>
</g>
<!-- Participant::Issuer&#45;&gt;Participant::Person -->
<g id="edge62" class="edge"><title>Participant::Issuer&#45;&gt;Participant::Person</title>
<path fill="none" stroke="black" d="M1673,-268.029C1673,-256.016 1673,-241.902 1673,-229.898"/>
<ellipse fill="none" stroke="black" cx="1673" cy="-272.382" rx="4" ry="4"/>
<ellipse fill="black" stroke="black" cx="1673" cy="-225.59" rx="4" ry="4"/>
<text text-anchor="middle" x="1696.5" y="-245.4" font-family="Times Roman,serif" font-size="14.00">Person</text>
</g>
<!-- Participant::Delivery&#45;&gt;Participant::Person -->
<g id="edge66" class="edge"><title>Participant::Delivery&#45;&gt;Participant::Person</title>
<path fill="none" stroke="black" d="M1850.72,-274.712C1812.72,-259.377 1760.8,-238.427 1722.89,-223.131"/>
<ellipse fill="none" stroke="black" cx="1854.67" cy="-276.307" rx="4.00001" ry="4.00001"/>
<ellipse fill="black" stroke="black" cx="1718.73" cy="-221.454" rx="4.00001" ry="4.00001"/>
<text text-anchor="middle" x="1831.5" y="-245.4" font-family="Times Roman,serif" font-size="14.00">Person</text>
</g>
<!-- Participant::Participant -->
<g id="node33" class="node"><title>Participant::Participant</title>
<ellipse fill="none" stroke="black" cx="1698" cy="-407" rx="123.037" ry="18.3848"/>
<text text-anchor="middle" x="1698" y="-403.4" font-family="Times Roman,serif" font-size="14.00">Participant::Participant</text>
</g>
<!-- Participant::Participant&#45;&gt;Participant::Sender -->
<g id="edge60" class="edge"><title>Participant::Participant&#45;&gt;Participant::Sender</title>
<path fill="none" stroke="black" d="M1629.43,-391.551C1614.29,-386.232 1598.93,-379.208 1586,-370 1568.7,-357.673 1574.2,-344.471 1557,-332 1543.98,-322.56 1528.35,-315.362 1513.13,-309.941"/>
</g>
<!-- Participant::Participant&#45;&gt;Participant::Issuer -->
<g id="edge64" class="edge"><title>Participant::Participant&#45;&gt;Participant::Issuer</title>
<path fill="none" stroke="black" d="M1693.87,-388.505C1689.24,-367.754 1681.77,-334.285 1677.13,-313.522"/>
</g>
<!-- Participant::Participant&#45;&gt;Participant::Delivery -->
<g id="edge68" class="edge"><title>Participant::Participant&#45;&gt;Participant::Delivery</title>
<path fill="none" stroke="black" d="M1730.62,-389.005C1768.61,-368.043 1830.99,-333.629 1868.8,-312.765"/>
</g>
<!-- Participant::Contact::Email -->
<g id="node35" class="node"><title>Participant::Contact::Email</title>
<ellipse fill="none" stroke="black" cx="2028" cy="-111" rx="140.922" ry="18.3848"/>
<text text-anchor="middle" x="2028" y="-107.4" font-family="Times Roman,serif" font-size="14.00">Participant::Contact::Email</text>
</g>
<!-- Participant::Person&#45;&gt;Participant::Contact::Email -->
<g id="edge72" class="edge"><title>Participant::Person&#45;&gt;Participant::Contact::Email</title>
<path fill="none" stroke="black" d="M1717.96,-182.291C1744.54,-170.756 1779.14,-156.958 1811,-148 1844.74,-138.515 1882.15,-131.078 1916.27,-125.438"/>
<ellipse fill="none" stroke="black" cx="1713.99" cy="-184.028" rx="4.00002" ry="4.00002"/>
<polygon fill="black" stroke="black" points="1916.4,-125.417 1926.99,-128.263 1921.34,-124.619 1926.27,-123.821 1926.27,-123.821 1926.27,-123.821 1921.34,-124.619 1925.55,-119.378 1916.4,-125.417 1916.4,-125.417"/>
<text text-anchor="middle" x="1830" y="-153.4" font-family="Times Roman,serif" font-size="14.00">Email</text>
</g>
<!-- Participant::Contact::Addres -->
<g id="node80" class="node"><title>Participant::Contact::Addres</title>
<ellipse fill="none" stroke="black" cx="1539" cy="-111" rx="147.992" ry="18.3848"/>
<text text-anchor="middle" x="1539" y="-107.4" font-family="Times Roman,serif" font-size="14.00">Participant::Contact::Addres</text>
</g>
<!-- Participant::Person&#45;&gt;Participant::Contact::Addres -->
<g id="edge70" class="edge"><title>Participant::Person&#45;&gt;Participant::Contact::Addres</title>
<path fill="none" stroke="black" d="M1639.98,-180.33C1619.92,-166.558 1594.34,-148.993 1573.94,-134.988"/>
<ellipse fill="none" stroke="black" cx="1643.55" cy="-182.779" rx="4.00002" ry="4.00002"/>
<polygon fill="black" stroke="black" points="1573.79,-134.886 1568.09,-125.516 1569.67,-132.056 1565.55,-129.226 1565.55,-129.226 1565.55,-129.226 1569.67,-132.056 1563,-132.936 1573.79,-134.886 1573.79,-134.886"/>
<text text-anchor="middle" x="1646.5" y="-153.4" font-family="Times Roman,serif" font-size="14.00">Address</text>
</g>
<!-- Email::User -->
<g id="node43" class="node"><title>Email::User</title>
<ellipse fill="none" stroke="black" cx="1861" cy="-19" rx="67.1751" ry="18.3848"/>
<text text-anchor="middle" x="1861" y="-15.4" font-family="Times Roman,serif" font-size="14.00">Email::User</text>
</g>
<!-- Participant::Contact::Email&#45;&gt;Email::User -->
<g id="edge74" class="edge"><title>Participant::Contact::Email&#45;&gt;Email::User</title>
<path fill="none" stroke="black" d="M1987.68,-88.7858C1960.49,-73.8104 1924.89,-54.1951 1898.35,-39.5753"/>
<ellipse fill="none" stroke="black" cx="1991.5" cy="-90.8936" rx="4.00002" ry="4.00002"/>
<ellipse fill="black" stroke="black" cx="1894.62" cy="-37.5224" rx="4.00002" ry="4.00002"/>
<text text-anchor="middle" x="1976" y="-61.4" font-family="Times Roman,serif" font-size="14.00">User</text>
</g>
<!-- Participant::Contact::Type -->
<g id="node36" class="node"><title>Participant::Contact::Type</title>
<ellipse fill="none" stroke="black" cx="1970" cy="-203" rx="137.179" ry="18.3848"/>
<text text-anchor="middle" x="1970" y="-199.4" font-family="Times Roman,serif" font-size="14.00">Participant::Contact::Type</text>
</g>
<!-- Participant::Contact::Type&#45;&gt;Participant::Contact::Email -->
<g id="edge78" class="edge"><title>Participant::Contact::Type&#45;&gt;Participant::Contact::Email</title>
<path fill="none" stroke="black" d="M1986.22,-177.277C1993.9,-165.083 2003.09,-150.513 2010.89,-138.143"/>
<ellipse fill="none" stroke="black" cx="1983.87" cy="-180.999" rx="4.00002" ry="4.00002"/>
<polygon fill="black" stroke="black" points="2010.95,-138.049 2020.09,-131.99 2013.61,-133.82 2016.28,-129.59 2016.28,-129.59 2016.28,-129.59 2013.61,-133.82 2012.47,-127.19 2010.95,-138.049 2010.95,-138.049"/>
<text text-anchor="middle" x="2024" y="-153.4" font-family="Times Roman,serif" font-size="14.00">Email</text>
</g>
<!-- Participant::Contact::Type&#45;&gt;Participant::Contact::Addres -->
<g id="edge76" class="edge"><title>Participant::Contact::Type&#45;&gt;Participant::Contact::Addres</title>
<path fill="none" stroke="black" d="M1930.42,-181.236C1907.34,-169.516 1877.28,-155.884 1849,-148 1783.05,-129.614 1763.99,-138.113 1696,-130 1682.84,-128.429 1669.06,-126.775 1655.36,-125.125"/>
<ellipse fill="none" stroke="black" cx="1934.1" cy="-183.133" rx="4.00002" ry="4.00002"/>
<polygon fill="black" stroke="black" points="1655.33,-125.122 1645.94,-119.458 1650.37,-124.524 1645.4,-123.925 1645.4,-123.925 1645.4,-123.925 1650.37,-124.524 1644.87,-128.393 1655.33,-125.122 1655.33,-125.122"/>
<text text-anchor="middle" x="1924.5" y="-153.4" font-family="Times Roman,serif" font-size="14.00">Address</text>
</g>
<!-- Participant::Contact::Address -->
<g id="node37" class="node"><title>Participant::Contact::Address</title>
<ellipse fill="none" stroke="black" cx="2993" cy="-111" rx="152.942" ry="18.3848"/>
<text text-anchor="middle" x="2993" y="-107.4" font-family="Times Roman,serif" font-size="14.00">Participant::Contact::Address</text>
</g>
<!-- Participant::Contact::Address&#45;&gt;Address::Street -->
<g id="edge80" class="edge"><title>Participant::Contact::Address&#45;&gt;Address::Street</title>
<path fill="none" stroke="black" d="M2929.63,-91.2386C2877.83,-75.0841 2805.24,-52.4428 2755.19,-36.8348"/>
<ellipse fill="none" stroke="black" cx="2933.69" cy="-92.5046" rx="4.00001" ry="4.00001"/>
<ellipse fill="black" stroke="black" cx="2751.17" cy="-35.5832" rx="4.00001" ry="4.00001"/>
<text text-anchor="middle" x="2893" y="-61.4" font-family="Times Roman,serif" font-size="14.00">Street</text>
</g>
<!-- Goods::Additional -->
<g id="node38" class="node"><title>Goods::Additional</title>
<polygon fill="none" stroke="black" stroke-dasharray="1,5" points="3418,-545 3282,-545 3282,-509 3418,-509 3418,-545"/>
<text text-anchor="middle" x="3350" y="-523.4" font-family="Times Roman,serif" font-size="14.00">Goods::Additional</text>
</g>
<!-- Goods::Additional::Type -->
<g id="node40" class="node"><title>Goods::Additional::Type</title>
<ellipse fill="none" stroke="black" cx="1127" cy="-295" rx="125.865" ry="18.3848"/>
<text text-anchor="middle" x="1127" y="-291.4" font-family="Times Roman,serif" font-size="14.00">Goods::Additional::Type</text>
</g>
<!-- Goods::Additional::Type&#45;&gt;Goods::Additional::Value -->
<g id="edge82" class="edge"><title>Goods::Additional::Type&#45;&gt;Goods::Additional::Value</title>
<path fill="none" stroke="black" d="M1127,-268.029C1127,-256.599 1127,-243.267 1127,-231.66"/>
<ellipse fill="none" stroke="black" cx="1127" cy="-272.382" rx="4" ry="4"/>
<polygon fill="black" stroke="black" points="1127,-231.59 1131.5,-221.59 1127,-226.59 1127,-221.59 1127,-221.59 1127,-221.59 1127,-226.59 1122.5,-221.59 1127,-231.59 1127,-231.59"/>
<text text-anchor="middle" x="1146.5" y="-245.4" font-family="Times Roman,serif" font-size="14.00">Value</text>
</g>
<!-- Email::Domain -->
<g id="node42" class="node"><title>Email::Domain</title>
<ellipse fill="none" stroke="black" cx="1787" cy="-111" rx="82.0244" ry="18.3848"/>
<text text-anchor="middle" x="1787" y="-107.4" font-family="Times Roman,serif" font-size="14.00">Email::Domain</text>
</g>
<!-- Email::Domain&#45;&gt;Email::User -->
<g id="edge84" class="edge"><title>Email::Domain&#45;&gt;Email::User</title>
<path fill="none" stroke="black" d="M1807.06,-86.0566C1817.22,-73.4253 1829.56,-58.093 1839.86,-45.2791"/>
<ellipse fill="none" stroke="black" cx="1804.48" cy="-89.2656" rx="4.00002" ry="4.00002"/>
<polygon fill="black" stroke="black" points="1840.03,-45.0681 1849.81,-40.0963 1843.17,-41.172 1846.3,-37.2759 1846.3,-37.2759 1846.3,-37.2759 1843.17,-41.172 1842.79,-34.4555 1840.03,-45.0681 1840.03,-45.0681"/>
<text text-anchor="middle" x="1847" y="-61.4" font-family="Times Roman,serif" font-size="14.00">User</text>
</g>
<!-- Address -->
<g id="node44" class="node"><title>Address</title>
<polygon fill="none" stroke="black" stroke-dasharray="1,5" points="3506,-545 3436,-545 3436,-509 3506,-509 3506,-545"/>
<text text-anchor="middle" x="3471" y="-523.4" font-family="Times Roman,serif" font-size="14.00">Address</text>
</g>
</g>
</svg>
