<?xml version="1.0" encoding="UTF-8" standalone="no"?>
<!DOCTYPE svg PUBLIC "-//W3C//DTD SVG 1.1//EN"
 "http://www.w3.org/Graphics/SVG/1.1/DTD/svg11.dtd">
<!-- Generated by graphviz version 2.26.3 (20100126.1600)
 -->
<!-- Title: models_diagram Pages: 1 -->
<svg width="991pt" height="1070pt"
 viewBox="0.00 0.00 991.00 1070.00" xmlns="http://www.w3.org/2000/svg" xmlns:xlink="http://www.w3.org/1999/xlink">
<g id="graph1" class="graph" transform="scale(1 1) rotate(0) translate(4 1066)">
<title>models_diagram</title>
<polygon fill="white" stroke="white" points="-4,5 -4,-1066 988,-1066 988,5 -4,5"/>
<!-- _diagram_info -->
<g id="node1" class="node"><title>_diagram_info</title>
<text text-anchor="start" x="189" y="-1002.8" font-family="Times Roman,serif" font-size="13.00">Models diagram</text>
<text text-anchor="start" x="189" y="-985.8" font-family="Times Roman,serif" font-size="13.00">Date: Aug 02 2011 &#45; 13:18</text>
<text text-anchor="start" x="189" y="-968.8" font-family="Times Roman,serif" font-size="13.00">Migration version: 20110802014239</text>
<text text-anchor="start" x="189" y="-951.8" font-family="Times Roman,serif" font-size="13.00">Generated by RailRoady 1.0.2</text>
<text text-anchor="start" x="189" y="-934.8" font-family="Times Roman,serif" font-size="13.00">http://railroady.prestonlee.com</text>
</g>
<!-- Street -->
<g id="node2" class="node"><title>Street</title>
<polyline fill="none" stroke="black" points="461,-883 607,-883 "/>
<path fill="none" stroke="black" d="M607,-883C613,-883 619,-889 619,-895"/>
<polyline fill="none" stroke="black" points="619,-895 619,-1049 "/>
<path fill="none" stroke="black" d="M619,-1049C619,-1055 613,-1061 607,-1061"/>
<polyline fill="none" stroke="black" points="607,-1061 461,-1061 "/>
<path fill="none" stroke="black" d="M461,-1061C455,-1061 449,-1055 449,-1049"/>
<polyline fill="none" stroke="black" points="449,-1049 449,-895 "/>
<path fill="none" stroke="black" d="M449,-895C449,-889 455,-883 461,-883"/>
<text text-anchor="middle" x="534" y="-1044.4" font-family="Times Roman,serif" font-size="14.00">Street</text>
<polyline fill="none" stroke="black" points="449,-1035 619,-1035 "/>
<text text-anchor="start" x="457" y="-1018.4" font-family="Times Roman,serif" font-size="14.00">phone_number :string</text>
<text text-anchor="start" x="457" y="-1000.4" font-family="Times Roman,serif" font-size="14.00">adress_number :string</text>
<text text-anchor="start" x="457" y="-982.4" font-family="Times Roman,serif" font-size="14.00">name :string</text>
<text text-anchor="start" x="457" y="-964.4" font-family="Times Roman,serif" font-size="14.00">remark :string</text>
<text text-anchor="start" x="457" y="-946.4" font-family="Times Roman,serif" font-size="14.00">active :boolean</text>
<text text-anchor="start" x="457" y="-928.4" font-family="Times Roman,serif" font-size="14.00">acronym :string</text>
<text text-anchor="start" x="457" y="-910.4" font-family="Times Roman,serif" font-size="14.00">created_at :datetime</text>
<text text-anchor="start" x="457" y="-892.4" font-family="Times Roman,serif" font-size="14.00">updated_at :datetime</text>
</g>
<!-- Place -->
<g id="node8" class="node"><title>Place</title>
<polyline fill="none" stroke="black" points="259,-658 405,-658 "/>
<path fill="none" stroke="black" d="M405,-658C411,-658 417,-664 417,-670"/>
<polyline fill="none" stroke="black" points="417,-670 417,-824 "/>
<path fill="none" stroke="black" d="M417,-824C417,-830 411,-836 405,-836"/>
<polyline fill="none" stroke="black" points="405,-836 259,-836 "/>
<path fill="none" stroke="black" d="M259,-836C253,-836 247,-830 247,-824"/>
<polyline fill="none" stroke="black" points="247,-824 247,-670 "/>
<path fill="none" stroke="black" d="M247,-670C247,-664 253,-658 259,-658"/>
<text text-anchor="middle" x="332" y="-819.4" font-family="Times Roman,serif" font-size="14.00">Place</text>
<polyline fill="none" stroke="black" points="247,-810 417,-810 "/>
<text text-anchor="start" x="255" y="-793.4" font-family="Times Roman,serif" font-size="14.00">phone_number :string</text>
<text text-anchor="start" x="255" y="-775.4" font-family="Times Roman,serif" font-size="14.00">adress_number :string</text>
<text text-anchor="start" x="255" y="-757.4" font-family="Times Roman,serif" font-size="14.00">name :string</text>
<text text-anchor="start" x="255" y="-739.4" font-family="Times Roman,serif" font-size="14.00">remark :string</text>
<text text-anchor="start" x="255" y="-721.4" font-family="Times Roman,serif" font-size="14.00">active :boolean</text>
<text text-anchor="start" x="255" y="-703.4" font-family="Times Roman,serif" font-size="14.00">acronym :string</text>
<text text-anchor="start" x="255" y="-685.4" font-family="Times Roman,serif" font-size="14.00">created_at :datetime</text>
<text text-anchor="start" x="255" y="-667.4" font-family="Times Roman,serif" font-size="14.00">updated_at :datetime</text>
</g>
<!-- Street&#45;&gt;Place -->
<g id="edge2" class="edge"><title>Street&#45;&gt;Place</title>
<path fill="none" stroke="black" d="M443.315,-878.412C432.54,-866.531 421.608,-854.36 411.013,-842.451"/>
<ellipse fill="none" stroke="black" cx="446.032" cy="-881.404" rx="4.00002" ry="4.00002"/>
<ellipse fill="black" stroke="black" cx="408.162" cy="-839.24" rx="4.00002" ry="4.00002"/>
</g>
<!-- Neighborhood -->
<g id="node12" class="node"><title>Neighborhood</title>
<polyline fill="none" stroke="black" points="438,-1 584,-1 "/>
<path fill="none" stroke="black" d="M584,-1C590,-1 596,-7 596,-13"/>
<polyline fill="none" stroke="black" points="596,-13 596,-167 "/>
<path fill="none" stroke="black" d="M596,-167C596,-173 590,-179 584,-179"/>
<polyline fill="none" stroke="black" points="584,-179 438,-179 "/>
<path fill="none" stroke="black" d="M438,-179C432,-179 426,-173 426,-167"/>
<polyline fill="none" stroke="black" points="426,-167 426,-13 "/>
<path fill="none" stroke="black" d="M426,-13C426,-7 432,-1 438,-1"/>
<text text-anchor="middle" x="511" y="-162.4" font-family="Times Roman,serif" font-size="14.00">Neighborhood</text>
<polyline fill="none" stroke="black" points="426,-153 596,-153 "/>
<text text-anchor="start" x="434" y="-136.4" font-family="Times Roman,serif" font-size="14.00">phone_number :string</text>
<text text-anchor="start" x="434" y="-118.4" font-family="Times Roman,serif" font-size="14.00">adress_number :string</text>
<text text-anchor="start" x="434" y="-100.4" font-family="Times Roman,serif" font-size="14.00">name :string</text>
<text text-anchor="start" x="434" y="-82.4" font-family="Times Roman,serif" font-size="14.00">remark :string</text>
<text text-anchor="start" x="434" y="-64.4" font-family="Times Roman,serif" font-size="14.00">active :boolean</text>
<text text-anchor="start" x="434" y="-46.4" font-family="Times Roman,serif" font-size="14.00">acronym :string</text>
<text text-anchor="start" x="434" y="-28.4" font-family="Times Roman,serif" font-size="14.00">created_at :datetime</text>
<text text-anchor="start" x="434" y="-10.4" font-family="Times Roman,serif" font-size="14.00">updated_at :datetime</text>
</g>
<!-- Street&#45;&gt;Neighborhood -->
<g id="edge4" class="edge"><title>Street&#45;&gt;Neighborhood</title>
<path fill="none" stroke="black" d="M538.153,-874.746C547.885,-730.326 565.256,-450.939 535,-216 533.793,-206.626 532.1,-196.954 530.152,-187.332"/>
<ellipse fill="none" stroke="black" cx="537.88" cy="-878.8" rx="4" ry="4"/>
<ellipse fill="black" stroke="black" cx="529.282" cy="-183.183" rx="4.00001" ry="4.00001"/>
</g>
<!-- State -->
<g id="node3" class="node"><title>State</title>
<polyline fill="none" stroke="black" points="78,-433 224,-433 "/>
<path fill="none" stroke="black" d="M224,-433C230,-433 236,-439 236,-445"/>
<polyline fill="none" stroke="black" points="236,-445 236,-599 "/>
<path fill="none" stroke="black" d="M236,-599C236,-605 230,-611 224,-611"/>
<polyline fill="none" stroke="black" points="224,-611 78,-611 "/>
<path fill="none" stroke="black" d="M78,-611C72,-611 66,-605 66,-599"/>
<polyline fill="none" stroke="black" points="66,-599 66,-445 "/>
<path fill="none" stroke="black" d="M66,-445C66,-439 72,-433 78,-433"/>
<text text-anchor="middle" x="151" y="-594.4" font-family="Times Roman,serif" font-size="14.00">State</text>
<polyline fill="none" stroke="black" points="66,-585 236,-585 "/>
<text text-anchor="start" x="74" y="-568.4" font-family="Times Roman,serif" font-size="14.00">phone_number :string</text>
<text text-anchor="start" x="74" y="-550.4" font-family="Times Roman,serif" font-size="14.00">adress_number :string</text>
<text text-anchor="start" x="74" y="-532.4" font-family="Times Roman,serif" font-size="14.00">name :string</text>
<text text-anchor="start" x="74" y="-514.4" font-family="Times Roman,serif" font-size="14.00">remark :string</text>
<text text-anchor="start" x="74" y="-496.4" font-family="Times Roman,serif" font-size="14.00">active :boolean</text>
<text text-anchor="start" x="74" y="-478.4" font-family="Times Roman,serif" font-size="14.00">acronym :string</text>
<text text-anchor="start" x="74" y="-460.4" font-family="Times Roman,serif" font-size="14.00">created_at :datetime</text>
<text text-anchor="start" x="74" y="-442.4" font-family="Times Roman,serif" font-size="14.00">updated_at :datetime</text>
</g>
<!-- City -->
<g id="node5" class="node"><title>City</title>
<polyline fill="none" stroke="black" points="12,-217 158,-217 "/>
<path fill="none" stroke="black" d="M158,-217C164,-217 170,-223 170,-229"/>
<polyline fill="none" stroke="black" points="170,-229 170,-383 "/>
<path fill="none" stroke="black" d="M170,-383C170,-389 164,-395 158,-395"/>
<polyline fill="none" stroke="black" points="158,-395 12,-395 "/>
<path fill="none" stroke="black" d="M12,-395C6,-395 0,-389 0,-383"/>
<polyline fill="none" stroke="black" points="0,-383 0,-229 "/>
<path fill="none" stroke="black" d="M0,-229C0,-223 6,-217 12,-217"/>
<text text-anchor="middle" x="85" y="-378.4" font-family="Times Roman,serif" font-size="14.00">City</text>
<polyline fill="none" stroke="black" points="0,-369 170,-369 "/>
<text text-anchor="start" x="8" y="-352.4" font-family="Times Roman,serif" font-size="14.00">phone_number :string</text>
<text text-anchor="start" x="8" y="-334.4" font-family="Times Roman,serif" font-size="14.00">adress_number :string</text>
<text text-anchor="start" x="8" y="-316.4" font-family="Times Roman,serif" font-size="14.00">name :string</text>
<text text-anchor="start" x="8" y="-298.4" font-family="Times Roman,serif" font-size="14.00">remark :string</text>
<text text-anchor="start" x="8" y="-280.4" font-family="Times Roman,serif" font-size="14.00">active :boolean</text>
<text text-anchor="start" x="8" y="-262.4" font-family="Times Roman,serif" font-size="14.00">acronym :string</text>
<text text-anchor="start" x="8" y="-244.4" font-family="Times Roman,serif" font-size="14.00">created_at :datetime</text>
<text text-anchor="start" x="8" y="-226.4" font-family="Times Roman,serif" font-size="14.00">updated_at :datetime</text>
</g>
<!-- State&#45;&gt;City -->
<g id="edge12" class="edge"><title>State&#45;&gt;City</title>
<path fill="none" stroke="black" d="M114.639,-424.989C112.568,-418.336 110.515,-411.627 108.51,-404.964"/>
<ellipse fill="none" stroke="black" cx="115.921" cy="-429.08" rx="4.00001" ry="4.00001"/>
<polygon fill="black" stroke="black" points="108.47,-404.829 109.923,-393.96 107.04,-400.038 105.611,-395.246 105.611,-395.246 105.611,-395.246 107.04,-400.038 101.299,-396.533 108.47,-404.829 108.47,-404.829"/>
</g>
<!-- Country -->
<g id="node7" class="node"><title>Country</title>
<polyline fill="none" stroke="black" points="200,-217 346,-217 "/>
<path fill="none" stroke="black" d="M346,-217C352,-217 358,-223 358,-229"/>
<polyline fill="none" stroke="black" points="358,-229 358,-383 "/>
<path fill="none" stroke="black" d="M358,-383C358,-389 352,-395 346,-395"/>
<polyline fill="none" stroke="black" points="346,-395 200,-395 "/>
<path fill="none" stroke="black" d="M200,-395C194,-395 188,-389 188,-383"/>
<polyline fill="none" stroke="black" points="188,-383 188,-229 "/>
<path fill="none" stroke="black" d="M188,-229C188,-223 194,-217 200,-217"/>
<text text-anchor="middle" x="273" y="-378.4" font-family="Times Roman,serif" font-size="14.00">Country</text>
<polyline fill="none" stroke="black" points="188,-369 358,-369 "/>
<text text-anchor="start" x="196" y="-352.4" font-family="Times Roman,serif" font-size="14.00">phone_number :string</text>
<text text-anchor="start" x="196" y="-334.4" font-family="Times Roman,serif" font-size="14.00">adress_number :string</text>
<text text-anchor="start" x="196" y="-316.4" font-family="Times Roman,serif" font-size="14.00">name :string</text>
<text text-anchor="start" x="196" y="-298.4" font-family="Times Roman,serif" font-size="14.00">remark :string</text>
<text text-anchor="start" x="196" y="-280.4" font-family="Times Roman,serif" font-size="14.00">active :boolean</text>
<text text-anchor="start" x="196" y="-262.4" font-family="Times Roman,serif" font-size="14.00">acronym :string</text>
<text text-anchor="start" x="196" y="-244.4" font-family="Times Roman,serif" font-size="14.00">created_at :datetime</text>
<text text-anchor="start" x="196" y="-226.4" font-family="Times Roman,serif" font-size="14.00">updated_at :datetime</text>
</g>
<!-- State&#45;&gt;Country -->
<g id="edge10" class="edge"><title>State&#45;&gt;Country</title>
<path fill="none" stroke="black" d="M198.581,-425.871C202.939,-418.071 207.392,-410.186 211.846,-402.384"/>
<ellipse fill="none" stroke="black" cx="196.615" cy="-429.403" rx="4.00002" ry="4.00002"/>
<ellipse fill="black" stroke="black" cx="213.946" cy="-398.717" rx="4.00002" ry="4.00002"/>
</g>
<!-- State&#45;&gt;Place -->
<g id="edge8" class="edge"><title>State&#45;&gt;Place</title>
<path fill="none" stroke="black" d="M234.382,-617.348C243.501,-628.569 252.716,-640.022 261.656,-651.248"/>
<ellipse fill="none" stroke="black" cx="231.854" cy="-614.243" rx="4.00002" ry="4.00002"/>
<ellipse fill="black" stroke="black" cx="264.335" cy="-654.619" rx="4.00002" ry="4.00002"/>
</g>
<!-- PersonType -->
<g id="node4" class="node"><title>PersonType</title>
<polyline fill="none" stroke="black" points="648.5,-910 789.5,-910 "/>
<path fill="none" stroke="black" d="M789.5,-910C795.5,-910 801.5,-916 801.5,-922"/>
<polyline fill="none" stroke="black" points="801.5,-922 801.5,-1022 "/>
<path fill="none" stroke="black" d="M801.5,-1022C801.5,-1028 795.5,-1034 789.5,-1034"/>
<polyline fill="none" stroke="black" points="789.5,-1034 648.5,-1034 "/>
<path fill="none" stroke="black" d="M648.5,-1034C642.5,-1034 636.5,-1028 636.5,-1022"/>
<polyline fill="none" stroke="black" points="636.5,-1022 636.5,-922 "/>
<path fill="none" stroke="black" d="M636.5,-922C636.5,-916 642.5,-910 648.5,-910"/>
<text text-anchor="middle" x="719" y="-1017.4" font-family="Times Roman,serif" font-size="14.00">PersonType</text>
<polyline fill="none" stroke="black" points="636.5,-1008 801.5,-1008 "/>
<text text-anchor="start" x="644.5" y="-991.4" font-family="Times Roman,serif" font-size="14.00">name :string</text>
<text text-anchor="start" x="644.5" y="-973.4" font-family="Times Roman,serif" font-size="14.00">active :boolean</text>
<text text-anchor="start" x="644.5" y="-955.4" font-family="Times Roman,serif" font-size="14.00">remark :text</text>
<text text-anchor="start" x="644.5" y="-937.4" font-family="Times Roman,serif" font-size="14.00">created_at :datetime</text>
<text text-anchor="start" x="644.5" y="-919.4" font-family="Times Roman,serif" font-size="14.00">updated_at :datetime</text>
</g>
<!-- Person -->
<g id="node11" class="node"><title>Person</title>
<polyline fill="none" stroke="black" points="648.5,-649 789.5,-649 "/>
<path fill="none" stroke="black" d="M789.5,-649C795.5,-649 801.5,-655 801.5,-661"/>
<polyline fill="none" stroke="black" points="801.5,-661 801.5,-833 "/>
<path fill="none" stroke="black" d="M801.5,-833C801.5,-839 795.5,-845 789.5,-845"/>
<polyline fill="none" stroke="black" points="789.5,-845 648.5,-845 "/>
<path fill="none" stroke="black" d="M648.5,-845C642.5,-845 636.5,-839 636.5,-833"/>
<polyline fill="none" stroke="black" points="636.5,-833 636.5,-661 "/>
<path fill="none" stroke="black" d="M636.5,-661C636.5,-655 642.5,-649 648.5,-649"/>
<text text-anchor="middle" x="719" y="-828.4" font-family="Times Roman,serif" font-size="14.00">Person</text>
<polyline fill="none" stroke="black" points="636.5,-819 801.5,-819 "/>
<text text-anchor="start" x="644.5" y="-802.4" font-family="Times Roman,serif" font-size="14.00">first_name :string</text>
<text text-anchor="start" x="644.5" y="-784.4" font-family="Times Roman,serif" font-size="14.00">last_name :string</text>
<text text-anchor="start" x="644.5" y="-766.4" font-family="Times Roman,serif" font-size="14.00">nickname :string</text>
<text text-anchor="start" x="644.5" y="-748.4" font-family="Times Roman,serif" font-size="14.00">birthday :date</text>
<text text-anchor="start" x="644.5" y="-730.4" font-family="Times Roman,serif" font-size="14.00">code :string</text>
<text text-anchor="start" x="644.5" y="-712.4" font-family="Times Roman,serif" font-size="14.00">remark :string</text>
<text text-anchor="start" x="644.5" y="-694.4" font-family="Times Roman,serif" font-size="14.00">active :boolean</text>
<text text-anchor="start" x="644.5" y="-676.4" font-family="Times Roman,serif" font-size="14.00">created_at :datetime</text>
<text text-anchor="start" x="644.5" y="-658.4" font-family="Times Roman,serif" font-size="14.00">updated_at :datetime</text>
</g>
<!-- PersonType&#45;&gt;Person -->
<g id="edge16" class="edge"><title>PersonType&#45;&gt;Person</title>
<path fill="none" stroke="black" d="M719,-901.807C719,-887.092 719,-871.246 719,-855.506"/>
<ellipse fill="none" stroke="black" cx="719" cy="-905.922" rx="4" ry="4"/>
<polygon fill="black" stroke="black" points="719,-855.19 723.5,-845.19 719,-850.19 719,-845.19 719,-845.19 719,-845.19 719,-850.19 714.5,-845.19 719,-855.19 719,-855.19"/>
</g>
<!-- City&#45;&gt;State -->
<g id="edge22" class="edge"><title>City&#45;&gt;State</title>
<path fill="none" stroke="black" d="M121.39,-403.105C123.654,-410.378 125.896,-417.717 128.077,-424.989"/>
<ellipse fill="none" stroke="black" cx="120.124" cy="-399.063" rx="4.00001" ry="4.00001"/>
<ellipse fill="black" stroke="black" cx="129.29" cy="-429.064" rx="4.00001" ry="4.00001"/>
</g>
<!-- City&#45;&gt;Place -->
<g id="edge18" class="edge"><title>City&#45;&gt;Place</title>
<path fill="none" stroke="black" d="M54.9125,-403.164C38.033,-467.115 27.4474,-550.127 66,-612 104.031,-673.037 178.608,-707.259 239.188,-725.964"/>
<ellipse fill="none" stroke="black" cx="56.0621" cy="-398.926" rx="4.00001" ry="4.00001"/>
<ellipse fill="black" stroke="black" cx="243.05" cy="-727.126" rx="4.00001" ry="4.00001"/>
</g>
<!-- City&#45;&gt;Neighborhood -->
<g id="edge20" class="edge"><title>City&#45;&gt;Neighborhood</title>
<path fill="none" stroke="black" d="M177.059,-217.242C177.705,-216.823 178.352,-216.409 179,-216 252.907,-169.335 346.781,-135.712 415.837,-114.998"/>
<ellipse fill="none" stroke="black" cx="173.482" cy="-219.66" rx="4.00002" ry="4.00002"/>
<polygon fill="black" stroke="black" points="416.252,-114.875 427.119,-116.35 421.047,-113.455 425.841,-112.035 425.841,-112.035 425.841,-112.035 421.047,-113.455 424.563,-107.72 416.252,-114.875 416.252,-114.875"/>
</g>
<!-- Email -->
<g id="node6" class="node"><title>Email</title>
<polyline fill="none" stroke="black" points="830.5,-676 971.5,-676 "/>
<path fill="none" stroke="black" d="M971.5,-676C977.5,-676 983.5,-682 983.5,-688"/>
<polyline fill="none" stroke="black" points="983.5,-688 983.5,-806 "/>
<path fill="none" stroke="black" d="M983.5,-806C983.5,-812 977.5,-818 971.5,-818"/>
<polyline fill="none" stroke="black" points="971.5,-818 830.5,-818 "/>
<path fill="none" stroke="black" d="M830.5,-818C824.5,-818 818.5,-812 818.5,-806"/>
<polyline fill="none" stroke="black" points="818.5,-806 818.5,-688 "/>
<path fill="none" stroke="black" d="M818.5,-688C818.5,-682 824.5,-676 830.5,-676"/>
<text text-anchor="middle" x="901" y="-801.4" font-family="Times Roman,serif" font-size="14.00">Email</text>
<polyline fill="none" stroke="black" points="818.5,-792 983.5,-792 "/>
<text text-anchor="start" x="826.5" y="-775.4" font-family="Times Roman,serif" font-size="14.00">domain :string</text>
<text text-anchor="start" x="826.5" y="-757.4" font-family="Times Roman,serif" font-size="14.00">name :string</text>
<text text-anchor="start" x="826.5" y="-739.4" font-family="Times Roman,serif" font-size="14.00">active :boolean</text>
<text text-anchor="start" x="826.5" y="-721.4" font-family="Times Roman,serif" font-size="14.00">remark :text</text>
<text text-anchor="start" x="826.5" y="-703.4" font-family="Times Roman,serif" font-size="14.00">created_at :datetime</text>
<text text-anchor="start" x="826.5" y="-685.4" font-family="Times Roman,serif" font-size="14.00">updated_at :datetime</text>
</g>
<!-- Country&#45;&gt;State -->
<g id="edge28" class="edge"><title>Country&#45;&gt;State</title>
<path fill="none" stroke="black" d="M225.255,-402.421C221.231,-409.623 217.126,-416.895 213.015,-424.106"/>
<ellipse fill="none" stroke="black" cx="227.305" cy="-398.741" rx="4.00002" ry="4.00002"/>
<polygon fill="black" stroke="black" points="212.951,-424.219 204.078,-430.662 210.468,-428.558 207.984,-432.897 207.984,-432.897 207.984,-432.897 210.468,-428.558 211.889,-435.133 212.951,-424.219 212.951,-424.219"/>
</g>
<!-- Country&#45;&gt;Place -->
<g id="edge26" class="edge"><title>Country&#45;&gt;Place</title>
<path fill="none" stroke="black" d="M286.309,-403.119C291.808,-463.484 298.901,-542.554 310,-612 311.964,-624.29 314.401,-637.13 316.966,-649.793"/>
<ellipse fill="none" stroke="black" cx="285.941" cy="-399.088" rx="4" ry="4"/>
<ellipse fill="black" stroke="black" cx="317.772" cy="-653.73" rx="4.00001" ry="4.00001"/>
</g>
<!-- Place&#45;&gt;Street -->
<g id="edge6" class="edge"><title>Place&#45;&gt;Street</title>
<path fill="none" stroke="black" d="M417.311,-834.671C431.672,-850.454 446.464,-866.924 460.494,-882.751"/>
</g>
<!-- Place&#45;&gt;State -->
<g id="edge14" class="edge"><title>Place&#45;&gt;State</title>
<path fill="none" stroke="black" d="M253.584,-657.751C241.073,-642.414 228.251,-626.475 216.09,-611.141"/>
</g>
<!-- Place&#45;&gt;City -->
<g id="edge24" class="edge"><title>Place&#45;&gt;City</title>
<path fill="none" stroke="black" d="M246.77,-732.233C179.684,-715.341 90.752,-680.613 48,-612 7.79851,-547.48 21.0283,-459.975 42.2141,-395.066"/>
</g>
<!-- Place&#45;&gt;Country -->
<g id="edge30" class="edge"><title>Place&#45;&gt;Country</title>
<path fill="none" stroke="black" d="M300.837,-657.648C297.434,-642.483 294.372,-626.841 292,-612 280.403,-539.436 273.179,-456.365 270.382,-395.104"/>
</g>
<!-- PlaceType -->
<g id="node9" class="node"><title>PlaceType</title>
<polyline fill="none" stroke="black" points="321.5,-460 462.5,-460 "/>
<path fill="none" stroke="black" d="M462.5,-460C468.5,-460 474.5,-466 474.5,-472"/>
<polyline fill="none" stroke="black" points="474.5,-472 474.5,-572 "/>
<path fill="none" stroke="black" d="M474.5,-572C474.5,-578 468.5,-584 462.5,-584"/>
<polyline fill="none" stroke="black" points="462.5,-584 321.5,-584 "/>
<path fill="none" stroke="black" d="M321.5,-584C315.5,-584 309.5,-578 309.5,-572"/>
<polyline fill="none" stroke="black" points="309.5,-572 309.5,-472 "/>
<path fill="none" stroke="black" d="M309.5,-472C309.5,-466 315.5,-460 321.5,-460"/>
<text text-anchor="middle" x="392" y="-567.4" font-family="Times Roman,serif" font-size="14.00">PlaceType</text>
<polyline fill="none" stroke="black" points="309.5,-558 474.5,-558 "/>
<text text-anchor="start" x="317.5" y="-541.4" font-family="Times Roman,serif" font-size="14.00">name :string</text>
<text text-anchor="start" x="317.5" y="-523.4" font-family="Times Roman,serif" font-size="14.00">active :boolean</text>
<text text-anchor="start" x="317.5" y="-505.4" font-family="Times Roman,serif" font-size="14.00">remark :text</text>
<text text-anchor="start" x="317.5" y="-487.4" font-family="Times Roman,serif" font-size="14.00">created_at :datetime</text>
<text text-anchor="start" x="317.5" y="-469.4" font-family="Times Roman,serif" font-size="14.00">updated_at :datetime</text>
</g>
<!-- Place&#45;&gt;PlaceType -->
<g id="edge32" class="edge"><title>Place&#45;&gt;PlaceType</title>
<path fill="none" stroke="black" d="M351.199,-649.902C356.26,-630.386 361.763,-610.239 367.068,-591.872"/>
<ellipse fill="none" stroke="black" cx="350.176" cy="-653.877" rx="4.00001" ry="4.00001"/>
<ellipse fill="black" stroke="black" cx="368.209" cy="-587.956" rx="4.00001" ry="4.00001"/>
</g>
<!-- Place&#45;&gt;Neighborhood -->
<g id="edge42" class="edge"><title>Place&#45;&gt;Neighborhood</title>
<path fill="none" stroke="black" d="M417.358,-683.539C439.582,-663.446 460.916,-639.265 474,-612 540.948,-472.495 531.139,-287.268 519.779,-179.103"/>
</g>
<!-- PlaceType&#45;&gt;Place -->
<g id="edge34" class="edge"><title>PlaceType&#45;&gt;Place</title>
<path fill="none" stroke="black" d="M379.609,-592.108C375.288,-609.77 370.277,-629.064 365.146,-647.854"/>
<ellipse fill="none" stroke="black" cx="380.603" cy="-588.003" rx="4.00001" ry="4.00001"/>
<polygon fill="black" stroke="black" points="365.076,-648.11 358.082,-656.556 363.748,-652.93 362.42,-657.751 362.42,-657.751 362.42,-657.751 363.748,-652.93 366.758,-658.946 365.076,-648.11 365.076,-648.11"/>
</g>
<!-- EmailType -->
<g id="node10" class="node"><title>EmailType</title>
<polyline fill="none" stroke="black" points="830.5,-910 971.5,-910 "/>
<path fill="none" stroke="black" d="M971.5,-910C977.5,-910 983.5,-916 983.5,-922"/>
<polyline fill="none" stroke="black" points="983.5,-922 983.5,-1022 "/>
<path fill="none" stroke="black" d="M983.5,-1022C983.5,-1028 977.5,-1034 971.5,-1034"/>
<polyline fill="none" stroke="black" points="971.5,-1034 830.5,-1034 "/>
<path fill="none" stroke="black" d="M830.5,-1034C824.5,-1034 818.5,-1028 818.5,-1022"/>
<polyline fill="none" stroke="black" points="818.5,-1022 818.5,-922 "/>
<path fill="none" stroke="black" d="M818.5,-922C818.5,-916 824.5,-910 830.5,-910"/>
<text text-anchor="middle" x="901" y="-1017.4" font-family="Times Roman,serif" font-size="14.00">EmailType</text>
<polyline fill="none" stroke="black" points="818.5,-1008 983.5,-1008 "/>
<text text-anchor="start" x="826.5" y="-991.4" font-family="Times Roman,serif" font-size="14.00">name :string</text>
<text text-anchor="start" x="826.5" y="-973.4" font-family="Times Roman,serif" font-size="14.00">active :boolean</text>
<text text-anchor="start" x="826.5" y="-955.4" font-family="Times Roman,serif" font-size="14.00">remark :text</text>
<text text-anchor="start" x="826.5" y="-937.4" font-family="Times Roman,serif" font-size="14.00">created_at :datetime</text>
<text text-anchor="start" x="826.5" y="-919.4" font-family="Times Roman,serif" font-size="14.00">updated_at :datetime</text>
</g>
<!-- EmailType&#45;&gt;Email -->
<g id="edge36" class="edge"><title>EmailType&#45;&gt;Email</title>
<path fill="none" stroke="black" d="M901,-901.775C901,-878.446 901,-852.279 901,-828.193"/>
<ellipse fill="none" stroke="black" cx="901" cy="-905.922" rx="4" ry="4"/>
<polygon fill="black" stroke="black" points="901,-828.012 905.5,-818.012 901,-823.012 901,-818.012 901,-818.012 901,-818.012 901,-823.012 896.5,-818.012 901,-828.012 901,-828.012"/>
</g>
<!-- Neighborhood&#45;&gt;Street -->
<g id="edge40" class="edge"><title>Neighborhood&#45;&gt;Street</title>
<path fill="none" stroke="black" d="M548.074,-187.332C550.1,-196.954 551.793,-206.626 553,-216 583.105,-449.77 566.057,-727.547 550.087,-872.58"/>
<ellipse fill="none" stroke="black" cx="547.157" cy="-183.174" rx="4.00001" ry="4.00001"/>
<polygon fill="black" stroke="black" points="550.057,-872.854 544.468,-882.289 549.498,-877.822 548.94,-882.791 548.94,-882.791 548.94,-882.791 549.498,-877.822 553.412,-883.294 550.057,-872.854 550.057,-872.854"/>
</g>
<!-- Neighborhood&#45;&gt;Place -->
<g id="edge38" class="edge"><title>Neighborhood&#45;&gt;Place</title>
<path fill="none" stroke="black" d="M533.669,-187.161C549.573,-296.285 557.314,-475.901 492,-612 476.859,-643.551 450.669,-670.974 423.781,-692.709"/>
<ellipse fill="none" stroke="black" cx="533.054" cy="-183.059" rx="4.00001" ry="4.00001"/>
<ellipse fill="black" stroke="black" cx="420.444" cy="-695.346" rx="4.00002" ry="4.00002"/>
</g>
</g>
</svg>
