<?xml version="1.0" encoding="UTF-8" standalone="no"?>
<!DOCTYPE svg PUBLIC "-//W3C//DTD SVG 1.1//EN"
 "http://www.w3.org/Graphics/SVG/1.1/DTD/svg11.dtd">
<!-- Generated by graphviz version 2.26.3 (20100126.1600)
 -->
<!-- Title: models_diagram Pages: 1 -->
<svg width="2052pt" height="1294pt"
 viewBox="0.00 0.00 2052.00 1294.00" xmlns="http://www.w3.org/2000/svg" xmlns:xlink="http://www.w3.org/1999/xlink">
<g id="graph1" class="graph" transform="scale(1 1) rotate(0) translate(4 1290)">
<title>models_diagram</title>
<polygon fill="white" stroke="white" points="-4,5 -4,-1290 2049,-1290 2049,5 -4,5"/>
<!-- _diagram_info -->
<g id="node1" class="node"><title>_diagram_info</title>
<text text-anchor="start" x="8" y="-1226.8" font-family="Times Roman,serif" font-size="13.00">Models diagram</text>
<text text-anchor="start" x="8" y="-1209.8" font-family="Times Roman,serif" font-size="13.00">Date: Aug 08 2011 &#45; 00:19</text>
<text text-anchor="start" x="8" y="-1192.8" font-family="Times Roman,serif" font-size="13.00">Migration version: 20110808010409</text>
<text text-anchor="start" x="8" y="-1175.8" font-family="Times Roman,serif" font-size="13.00">Generated by RailRoady 1.0.2</text>
<text text-anchor="start" x="8" y="-1158.8" font-family="Times Roman,serif" font-size="13.00">http://railroady.prestonlee.com</text>
</g>
<!-- Taxe::Group -->
<g id="node2" class="node"><title>Taxe::Group</title>
<polyline fill="none" stroke="black" points="279.5,-1134 420.5,-1134 "/>
<path fill="none" stroke="black" d="M420.5,-1134C426.5,-1134 432.5,-1140 432.5,-1146"/>
<polyline fill="none" stroke="black" points="432.5,-1146 432.5,-1246 "/>
<path fill="none" stroke="black" d="M432.5,-1246C432.5,-1252 426.5,-1258 420.5,-1258"/>
<polyline fill="none" stroke="black" points="420.5,-1258 279.5,-1258 "/>
<path fill="none" stroke="black" d="M279.5,-1258C273.5,-1258 267.5,-1252 267.5,-1246"/>
<polyline fill="none" stroke="black" points="267.5,-1246 267.5,-1146 "/>
<path fill="none" stroke="black" d="M267.5,-1146C267.5,-1140 273.5,-1134 279.5,-1134"/>
<text text-anchor="middle" x="350" y="-1241.4" font-family="Times Roman,serif" font-size="14.00">Taxe::Group</text>
<polyline fill="none" stroke="black" points="267.5,-1232 432.5,-1232 "/>
<text text-anchor="start" x="275.5" y="-1215.4" font-family="Times Roman,serif" font-size="14.00">name :string</text>
<text text-anchor="start" x="275.5" y="-1197.4" font-family="Times Roman,serif" font-size="14.00">remark :text</text>
<text text-anchor="start" x="275.5" y="-1179.4" font-family="Times Roman,serif" font-size="14.00">active :boolean</text>
<text text-anchor="start" x="275.5" y="-1161.4" font-family="Times Roman,serif" font-size="14.00">created_at :datetime</text>
<text text-anchor="start" x="275.5" y="-1143.4" font-family="Times Roman,serif" font-size="14.00">updated_at :datetime</text>
</g>
<!-- Taxe::Type -->
<g id="node4" class="node"><title>Taxe::Type</title>
<polyline fill="none" stroke="black" points="279.5,-900 420.5,-900 "/>
<path fill="none" stroke="black" d="M420.5,-900C426.5,-900 432.5,-906 432.5,-912"/>
<polyline fill="none" stroke="black" points="432.5,-912 432.5,-1012 "/>
<path fill="none" stroke="black" d="M432.5,-1012C432.5,-1018 426.5,-1024 420.5,-1024"/>
<polyline fill="none" stroke="black" points="420.5,-1024 279.5,-1024 "/>
<path fill="none" stroke="black" d="M279.5,-1024C273.5,-1024 267.5,-1018 267.5,-1012"/>
<polyline fill="none" stroke="black" points="267.5,-1012 267.5,-912 "/>
<path fill="none" stroke="black" d="M267.5,-912C267.5,-906 273.5,-900 279.5,-900"/>
<text text-anchor="middle" x="350" y="-1007.4" font-family="Times Roman,serif" font-size="14.00">Taxe::Type</text>
<polyline fill="none" stroke="black" points="267.5,-998 432.5,-998 "/>
<text text-anchor="start" x="275.5" y="-981.4" font-family="Times Roman,serif" font-size="14.00">name :string</text>
<text text-anchor="start" x="275.5" y="-963.4" font-family="Times Roman,serif" font-size="14.00">remark :text</text>
<text text-anchor="start" x="275.5" y="-945.4" font-family="Times Roman,serif" font-size="14.00">active :boolean</text>
<text text-anchor="start" x="275.5" y="-927.4" font-family="Times Roman,serif" font-size="14.00">created_at :datetime</text>
<text text-anchor="start" x="275.5" y="-909.4" font-family="Times Roman,serif" font-size="14.00">updated_at :datetime</text>
</g>
<!-- Taxe::Group&#45;&gt;Taxe::Type -->
<g id="edge2" class="edge"><title>Taxe::Group&#45;&gt;Taxe::Type</title>
<path fill="none" stroke="black" d="M350,-1125.84C350,-1096.98 350,-1063.57 350,-1034.48"/>
<ellipse fill="none" stroke="black" cx="350" cy="-1129.91" rx="4" ry="4"/>
<polygon fill="black" stroke="black" points="350,-1034.38 354.5,-1024.38 350,-1029.38 350,-1024.38 350,-1024.38 350,-1024.38 350,-1029.38 345.5,-1024.38 350,-1034.38 350,-1034.38"/>
</g>
<!-- Taxe::Value -->
<g id="node3" class="node"><title>Taxe::Value</title>
<polyline fill="none" stroke="black" points="279.5,-682 420.5,-682 "/>
<path fill="none" stroke="black" d="M420.5,-682C426.5,-682 432.5,-688 432.5,-694"/>
<polyline fill="none" stroke="black" points="432.5,-694 432.5,-794 "/>
<path fill="none" stroke="black" d="M432.5,-794C432.5,-800 426.5,-806 420.5,-806"/>
<polyline fill="none" stroke="black" points="420.5,-806 279.5,-806 "/>
<path fill="none" stroke="black" d="M279.5,-806C273.5,-806 267.5,-800 267.5,-794"/>
<polyline fill="none" stroke="black" points="267.5,-794 267.5,-694 "/>
<path fill="none" stroke="black" d="M267.5,-694C267.5,-688 273.5,-682 279.5,-682"/>
<text text-anchor="middle" x="350" y="-789.4" font-family="Times Roman,serif" font-size="14.00">Taxe::Value</text>
<polyline fill="none" stroke="black" points="267.5,-780 432.5,-780 "/>
<text text-anchor="start" x="275.5" y="-763.4" font-family="Times Roman,serif" font-size="14.00">percentage :integer</text>
<text text-anchor="start" x="275.5" y="-745.4" font-family="Times Roman,serif" font-size="14.00">basis :integer</text>
<text text-anchor="start" x="275.5" y="-727.4" font-family="Times Roman,serif" font-size="14.00">value :integer</text>
<text text-anchor="start" x="275.5" y="-709.4" font-family="Times Roman,serif" font-size="14.00">created_at :datetime</text>
<text text-anchor="start" x="275.5" y="-691.4" font-family="Times Roman,serif" font-size="14.00">updated_at :datetime</text>
</g>
<!-- Taxe::Type&#45;&gt;Taxe::Value -->
<g id="edge4" class="edge"><title>Taxe::Type&#45;&gt;Taxe::Value</title>
<path fill="none" stroke="black" d="M350,-891.791C350,-867.712 350,-840.728 350,-816.473"/>
<ellipse fill="none" stroke="black" cx="350" cy="-895.822" rx="4" ry="4"/>
<polygon fill="black" stroke="black" points="350,-816.261 354.5,-806.261 350,-811.261 350,-806.261 350,-806.261 350,-806.261 350,-811.261 345.5,-806.261 350,-816.261 350,-816.261"/>
</g>
<!-- Email -->
<g id="node5" class="node"><title>Email</title>
<polygon fill="none" stroke="black" stroke-dasharray="1,5" points="504,-1214 450,-1214 450,-1178 504,-1178 504,-1214"/>
<text text-anchor="middle" x="477" y="-1192.4" font-family="Times Roman,serif" font-size="14.00">Email</text>
</g>
<!-- Address::Street -->
<g id="node6" class="node"><title>Address::Street</title>
<polyline fill="none" stroke="black" points="493,-1 639,-1 "/>
<path fill="none" stroke="black" d="M639,-1C645,-1 651,-7 651,-13"/>
<polyline fill="none" stroke="black" points="651,-13 651,-167 "/>
<path fill="none" stroke="black" d="M651,-167C651,-173 645,-179 639,-179"/>
<polyline fill="none" stroke="black" points="639,-179 493,-179 "/>
<path fill="none" stroke="black" d="M493,-179C487,-179 481,-173 481,-167"/>
<polyline fill="none" stroke="black" points="481,-167 481,-13 "/>
<path fill="none" stroke="black" d="M481,-13C481,-7 487,-1 493,-1"/>
<text text-anchor="middle" x="566" y="-162.4" font-family="Times Roman,serif" font-size="14.00">Address::Street</text>
<polyline fill="none" stroke="black" points="481,-153 651,-153 "/>
<text text-anchor="start" x="489" y="-136.4" font-family="Times Roman,serif" font-size="14.00">phone_number :string</text>
<text text-anchor="start" x="489" y="-118.4" font-family="Times Roman,serif" font-size="14.00">adress_number :string</text>
<text text-anchor="start" x="489" y="-100.4" font-family="Times Roman,serif" font-size="14.00">name :string</text>
<text text-anchor="start" x="489" y="-82.4" font-family="Times Roman,serif" font-size="14.00">remark :string</text>
<text text-anchor="start" x="489" y="-64.4" font-family="Times Roman,serif" font-size="14.00">active :boolean</text>
<text text-anchor="start" x="489" y="-46.4" font-family="Times Roman,serif" font-size="14.00">acronym :string</text>
<text text-anchor="start" x="489" y="-28.4" font-family="Times Roman,serif" font-size="14.00">created_at :datetime</text>
<text text-anchor="start" x="489" y="-10.4" font-family="Times Roman,serif" font-size="14.00">updated_at :datetime</text>
</g>
<!-- Address::State -->
<g id="node7" class="node"><title>Address::State</title>
<polyline fill="none" stroke="black" points="628,-655 774,-655 "/>
<path fill="none" stroke="black" d="M774,-655C780,-655 786,-661 786,-667"/>
<polyline fill="none" stroke="black" points="786,-667 786,-821 "/>
<path fill="none" stroke="black" d="M786,-821C786,-827 780,-833 774,-833"/>
<polyline fill="none" stroke="black" points="774,-833 628,-833 "/>
<path fill="none" stroke="black" d="M628,-833C622,-833 616,-827 616,-821"/>
<polyline fill="none" stroke="black" points="616,-821 616,-667 "/>
<path fill="none" stroke="black" d="M616,-667C616,-661 622,-655 628,-655"/>
<text text-anchor="middle" x="701" y="-816.4" font-family="Times Roman,serif" font-size="14.00">Address::State</text>
<polyline fill="none" stroke="black" points="616,-807 786,-807 "/>
<text text-anchor="start" x="624" y="-790.4" font-family="Times Roman,serif" font-size="14.00">phone_number :string</text>
<text text-anchor="start" x="624" y="-772.4" font-family="Times Roman,serif" font-size="14.00">adress_number :string</text>
<text text-anchor="start" x="624" y="-754.4" font-family="Times Roman,serif" font-size="14.00">name :string</text>
<text text-anchor="start" x="624" y="-736.4" font-family="Times Roman,serif" font-size="14.00">remark :string</text>
<text text-anchor="start" x="624" y="-718.4" font-family="Times Roman,serif" font-size="14.00">active :boolean</text>
<text text-anchor="start" x="624" y="-700.4" font-family="Times Roman,serif" font-size="14.00">acronym :string</text>
<text text-anchor="start" x="624" y="-682.4" font-family="Times Roman,serif" font-size="14.00">created_at :datetime</text>
<text text-anchor="start" x="624" y="-664.4" font-family="Times Roman,serif" font-size="14.00">updated_at :datetime</text>
</g>
<!-- Address::City -->
<g id="node8" class="node"><title>Address::City</title>
<polyline fill="none" stroke="black" points="628,-437 774,-437 "/>
<path fill="none" stroke="black" d="M774,-437C780,-437 786,-443 786,-449"/>
<polyline fill="none" stroke="black" points="786,-449 786,-603 "/>
<path fill="none" stroke="black" d="M786,-603C786,-609 780,-615 774,-615"/>
<polyline fill="none" stroke="black" points="774,-615 628,-615 "/>
<path fill="none" stroke="black" d="M628,-615C622,-615 616,-609 616,-603"/>
<polyline fill="none" stroke="black" points="616,-603 616,-449 "/>
<path fill="none" stroke="black" d="M616,-449C616,-443 622,-437 628,-437"/>
<text text-anchor="middle" x="701" y="-598.4" font-family="Times Roman,serif" font-size="14.00">Address::City</text>
<polyline fill="none" stroke="black" points="616,-589 786,-589 "/>
<text text-anchor="start" x="624" y="-572.4" font-family="Times Roman,serif" font-size="14.00">phone_number :string</text>
<text text-anchor="start" x="624" y="-554.4" font-family="Times Roman,serif" font-size="14.00">adress_number :string</text>
<text text-anchor="start" x="624" y="-536.4" font-family="Times Roman,serif" font-size="14.00">name :string</text>
<text text-anchor="start" x="624" y="-518.4" font-family="Times Roman,serif" font-size="14.00">remark :string</text>
<text text-anchor="start" x="624" y="-500.4" font-family="Times Roman,serif" font-size="14.00">active :boolean</text>
<text text-anchor="start" x="624" y="-482.4" font-family="Times Roman,serif" font-size="14.00">acronym :string</text>
<text text-anchor="start" x="624" y="-464.4" font-family="Times Roman,serif" font-size="14.00">created_at :datetime</text>
<text text-anchor="start" x="624" y="-446.4" font-family="Times Roman,serif" font-size="14.00">updated_at :datetime</text>
</g>
<!-- Address::State&#45;&gt;Address::City -->
<g id="edge8" class="edge"><title>Address::State&#45;&gt;Address::City</title>
<path fill="none" stroke="black" d="M701,-646.398C701,-639.41 701,-632.358 701,-625.36"/>
<ellipse fill="none" stroke="black" cx="701" cy="-650.702" rx="4" ry="4"/>
<polygon fill="black" stroke="black" points="701,-625.159 705.5,-615.159 701,-620.159 701,-615.159 701,-615.159 701,-615.159 701,-620.159 696.5,-615.159 701,-625.159 701,-625.159"/>
</g>
<!-- Address::Neighborhood -->
<g id="node11" class="node"><title>Address::Neighborhood</title>
<polyline fill="none" stroke="black" points="571,-219 723,-219 "/>
<path fill="none" stroke="black" d="M723,-219C729,-219 735,-225 735,-231"/>
<polyline fill="none" stroke="black" points="735,-231 735,-385 "/>
<path fill="none" stroke="black" d="M735,-385C735,-391 729,-397 723,-397"/>
<polyline fill="none" stroke="black" points="723,-397 571,-397 "/>
<path fill="none" stroke="black" d="M571,-397C565,-397 559,-391 559,-385"/>
<polyline fill="none" stroke="black" points="559,-385 559,-231 "/>
<path fill="none" stroke="black" d="M559,-231C559,-225 565,-219 571,-219"/>
<text text-anchor="middle" x="647" y="-380.4" font-family="Times Roman,serif" font-size="14.00">Address::Neighborhood</text>
<polyline fill="none" stroke="black" points="559,-371 735,-371 "/>
<text text-anchor="start" x="567" y="-354.4" font-family="Times Roman,serif" font-size="14.00">phone_number :string</text>
<text text-anchor="start" x="567" y="-336.4" font-family="Times Roman,serif" font-size="14.00">adress_number :string</text>
<text text-anchor="start" x="567" y="-318.4" font-family="Times Roman,serif" font-size="14.00">name :string</text>
<text text-anchor="start" x="567" y="-300.4" font-family="Times Roman,serif" font-size="14.00">remark :string</text>
<text text-anchor="start" x="567" y="-282.4" font-family="Times Roman,serif" font-size="14.00">active :boolean</text>
<text text-anchor="start" x="567" y="-264.4" font-family="Times Roman,serif" font-size="14.00">acronym :string</text>
<text text-anchor="start" x="567" y="-246.4" font-family="Times Roman,serif" font-size="14.00">created_at :datetime</text>
<text text-anchor="start" x="567" y="-228.4" font-family="Times Roman,serif" font-size="14.00">updated_at :datetime</text>
</g>
<!-- Address::City&#45;&gt;Address::Neighborhood -->
<g id="edge12" class="edge"><title>Address::City&#45;&gt;Address::Neighborhood</title>
<path fill="none" stroke="black" d="M676.9,-428.707C675.112,-421.487 673.306,-414.198 671.515,-406.969"/>
<ellipse fill="none" stroke="black" cx="677.919" cy="-432.819" rx="4.00001" ry="4.00001"/>
<polygon fill="black" stroke="black" points="671.49,-406.866 673.453,-396.077 670.288,-402.012 669.085,-397.159 669.085,-397.159 669.085,-397.159 670.288,-402.012 664.717,-398.241 671.49,-406.866 671.49,-406.866"/>
</g>
<!-- Address::Country -->
<g id="node9" class="node"><title>Address::Country</title>
<polyline fill="none" stroke="black" points="647,-873 793,-873 "/>
<path fill="none" stroke="black" d="M793,-873C799,-873 805,-879 805,-885"/>
<polyline fill="none" stroke="black" points="805,-885 805,-1039 "/>
<path fill="none" stroke="black" d="M805,-1039C805,-1045 799,-1051 793,-1051"/>
<polyline fill="none" stroke="black" points="793,-1051 647,-1051 "/>
<path fill="none" stroke="black" d="M647,-1051C641,-1051 635,-1045 635,-1039"/>
<polyline fill="none" stroke="black" points="635,-1039 635,-885 "/>
<path fill="none" stroke="black" d="M635,-885C635,-879 641,-873 647,-873"/>
<text text-anchor="middle" x="720" y="-1034.4" font-family="Times Roman,serif" font-size="14.00">Address::Country</text>
<polyline fill="none" stroke="black" points="635,-1025 805,-1025 "/>
<text text-anchor="start" x="643" y="-1008.4" font-family="Times Roman,serif" font-size="14.00">phone_number :string</text>
<text text-anchor="start" x="643" y="-990.4" font-family="Times Roman,serif" font-size="14.00">adress_number :string</text>
<text text-anchor="start" x="643" y="-972.4" font-family="Times Roman,serif" font-size="14.00">name :string</text>
<text text-anchor="start" x="643" y="-954.4" font-family="Times Roman,serif" font-size="14.00">remark :string</text>
<text text-anchor="start" x="643" y="-936.4" font-family="Times Roman,serif" font-size="14.00">active :boolean</text>
<text text-anchor="start" x="643" y="-918.4" font-family="Times Roman,serif" font-size="14.00">acronym :string</text>
<text text-anchor="start" x="643" y="-900.4" font-family="Times Roman,serif" font-size="14.00">created_at :datetime</text>
<text text-anchor="start" x="643" y="-882.4" font-family="Times Roman,serif" font-size="14.00">updated_at :datetime</text>
</g>
<!-- Address::Country&#45;&gt;Address::State -->
<g id="edge16" class="edge"><title>Address::Country&#45;&gt;Address::State</title>
<path fill="none" stroke="black" d="M711.52,-864.707C710.905,-857.651 710.285,-850.53 709.669,-843.462"/>
<ellipse fill="none" stroke="black" cx="711.87" cy="-868.717" rx="4" ry="4"/>
<polygon fill="black" stroke="black" points="709.639,-843.121 713.254,-832.768 709.205,-838.14 708.771,-833.159 708.771,-833.159 708.771,-833.159 709.205,-838.14 704.288,-833.55 709.639,-843.121 709.639,-843.121"/>
</g>
<!-- Address::Place -->
<g id="node10" class="node"><title>Address::Place</title>
<polyline fill="none" stroke="black" points="534,-1107 680,-1107 "/>
<path fill="none" stroke="black" d="M680,-1107C686,-1107 692,-1113 692,-1119"/>
<polyline fill="none" stroke="black" points="692,-1119 692,-1273 "/>
<path fill="none" stroke="black" d="M692,-1273C692,-1279 686,-1285 680,-1285"/>
<polyline fill="none" stroke="black" points="680,-1285 534,-1285 "/>
<path fill="none" stroke="black" d="M534,-1285C528,-1285 522,-1279 522,-1273"/>
<polyline fill="none" stroke="black" points="522,-1273 522,-1119 "/>
<path fill="none" stroke="black" d="M522,-1119C522,-1113 528,-1107 534,-1107"/>
<text text-anchor="middle" x="607" y="-1268.4" font-family="Times Roman,serif" font-size="14.00">Address::Place</text>
<polyline fill="none" stroke="black" points="522,-1259 692,-1259 "/>
<text text-anchor="start" x="530" y="-1242.4" font-family="Times Roman,serif" font-size="14.00">phone_number :string</text>
<text text-anchor="start" x="530" y="-1224.4" font-family="Times Roman,serif" font-size="14.00">adress_number :string</text>
<text text-anchor="start" x="530" y="-1206.4" font-family="Times Roman,serif" font-size="14.00">name :string</text>
<text text-anchor="start" x="530" y="-1188.4" font-family="Times Roman,serif" font-size="14.00">remark :string</text>
<text text-anchor="start" x="530" y="-1170.4" font-family="Times Roman,serif" font-size="14.00">active :boolean</text>
<text text-anchor="start" x="530" y="-1152.4" font-family="Times Roman,serif" font-size="14.00">acronym :string</text>
<text text-anchor="start" x="530" y="-1134.4" font-family="Times Roman,serif" font-size="14.00">created_at :datetime</text>
<text text-anchor="start" x="530" y="-1116.4" font-family="Times Roman,serif" font-size="14.00">updated_at :datetime</text>
</g>
<!-- Address::Place&#45;&gt;Address::Street -->
<g id="edge6" class="edge"><title>Address::Place&#45;&gt;Address::Street</title>
<path fill="none" stroke="black" d="M563.562,-1106.77C546.537,-1064.01 531,-1011.44 531,-962 531,-962 531,-962 531,-308 531,-265.26 537.64,-218.396 545.135,-179.108"/>
</g>
<!-- Address::Place&#45;&gt;Address::State -->
<g id="edge10" class="edge"><title>Address::Place&#45;&gt;Address::State</title>
<path fill="none" stroke="black" d="M601.158,-1106.72C599.461,-1040.53 602.71,-948.842 626,-872 629.96,-858.936 635.494,-845.795 641.782,-833.169"/>
</g>
<!-- Address::Place&#45;&gt;Address::City -->
<g id="edge14" class="edge"><title>Address::Place&#45;&gt;Address::City</title>
<path fill="none" stroke="black" d="M692.103,-1112.43C695.057,-1110.21 698.026,-1108.06 701,-1106 746.791,-1074.35 784.315,-1099.09 814,-1052 908.443,-902.195 857.414,-819.727 795,-654 789.996,-640.712 783.201,-627.59 775.538,-615.106"/>
</g>
<!-- Address::Place&#45;&gt;Address::Country -->
<g id="edge18" class="edge"><title>Address::Place&#45;&gt;Address::Country</title>
<path fill="none" stroke="black" d="M650.043,-1106.87C658.837,-1088.66 668.093,-1069.49 676.89,-1051.27"/>
</g>
<!-- Address::Place&#45;&gt;Address::Neighborhood -->
<g id="edge22" class="edge"><title>Address::Place&#45;&gt;Address::Neighborhood</title>
<path fill="none" stroke="black" d="M585.612,-1106.82C576.971,-1063.4 569,-1010.26 569,-962 569,-962 569,-962 569,-526 569,-481.984 583.271,-435.738 599.604,-397.223"/>
</g>
<!-- Address::Neighborhood&#45;&gt;Address::Street -->
<g id="edge20" class="edge"><title>Address::Neighborhood&#45;&gt;Address::Street</title>
<path fill="none" stroke="black" d="M610.965,-211.016C608.195,-203.562 605.397,-196.032 602.624,-188.568"/>
<ellipse fill="none" stroke="black" cx="612.427" cy="-214.953" rx="4.00001" ry="4.00001"/>
<polygon fill="black" stroke="black" points="602.611,-188.533 603.346,-177.592 600.869,-183.846 599.128,-179.159 599.128,-179.159 599.128,-179.159 600.869,-183.846 594.91,-180.726 602.611,-188.533 602.611,-188.533"/>
</g>
<!-- Taxe -->
<g id="node12" class="node"><title>Taxe</title>
<polygon fill="none" stroke="black" stroke-dasharray="1,5" points="764,-1214 710,-1214 710,-1178 764,-1178 764,-1214"/>
<text text-anchor="middle" x="737" y="-1192.4" font-family="Times Roman,serif" font-size="14.00">Taxe</text>
</g>
<!-- Financier::Note -->
<g id="node13" class="node"><title>Financier::Note</title>
<polyline fill="none" stroke="black" points="793.5,-1116 940.5,-1116 "/>
<path fill="none" stroke="black" d="M940.5,-1116C946.5,-1116 952.5,-1122 952.5,-1128"/>
<polyline fill="none" stroke="black" points="952.5,-1128 952.5,-1264 "/>
<path fill="none" stroke="black" d="M952.5,-1264C952.5,-1270 946.5,-1276 940.5,-1276"/>
<polyline fill="none" stroke="black" points="940.5,-1276 793.5,-1276 "/>
<path fill="none" stroke="black" d="M793.5,-1276C787.5,-1276 781.5,-1270 781.5,-1264"/>
<polyline fill="none" stroke="black" points="781.5,-1264 781.5,-1128 "/>
<path fill="none" stroke="black" d="M781.5,-1128C781.5,-1122 787.5,-1116 793.5,-1116"/>
<text text-anchor="middle" x="867" y="-1259.4" font-family="Times Roman,serif" font-size="14.00">Financier::Note</text>
<polyline fill="none" stroke="black" points="781.5,-1250 952.5,-1250 "/>
<text text-anchor="start" x="789.5" y="-1233.4" font-family="Times Roman,serif" font-size="14.00">original_value :integer</text>
<text text-anchor="start" x="789.5" y="-1215.4" font-family="Times Roman,serif" font-size="14.00">expiration_date :date</text>
<text text-anchor="start" x="789.5" y="-1197.4" font-family="Times Roman,serif" font-size="14.00">creation_date :date</text>
<text text-anchor="start" x="789.5" y="-1179.4" font-family="Times Roman,serif" font-size="14.00">name :string</text>
<text text-anchor="start" x="789.5" y="-1161.4" font-family="Times Roman,serif" font-size="14.00">number :integer</text>
<text text-anchor="start" x="789.5" y="-1143.4" font-family="Times Roman,serif" font-size="14.00">created_at :datetime</text>
<text text-anchor="start" x="789.5" y="-1125.4" font-family="Times Roman,serif" font-size="14.00">updated_at :datetime</text>
</g>
<!-- Participant -->
<g id="node14" class="node"><title>Participant</title>
<polygon fill="none" stroke="black" stroke-dasharray="1,5" points="1060,-1214 970,-1214 970,-1178 1060,-1178 1060,-1214"/>
<text text-anchor="middle" x="1015" y="-1192.4" font-family="Times Roman,serif" font-size="14.00">Participant</text>
</g>
<!-- Financier -->
<g id="node15" class="node"><title>Financier</title>
<polygon fill="none" stroke="black" stroke-dasharray="1,5" points="1156,-1214 1078,-1214 1078,-1178 1156,-1178 1156,-1214"/>
<text text-anchor="middle" x="1117" y="-1192.4" font-family="Times Roman,serif" font-size="14.00">Financier</text>
</g>
<!-- Participant::Contact -->
<g id="node16" class="node"><title>Participant::Contact</title>
<polygon fill="none" stroke="black" stroke-dasharray="1,5" points="1328,-1214 1174,-1214 1174,-1178 1328,-1178 1328,-1214"/>
<text text-anchor="middle" x="1251" y="-1192.4" font-family="Times Roman,serif" font-size="14.00">Participant::Contact</text>
</g>
<!-- Participant::Contact::Email -->
<g id="node17" class="node"><title>Participant::Contact::Email</title>
<polyline fill="none" stroke="black" points="1188,-909 1364,-909 "/>
<path fill="none" stroke="black" d="M1364,-909C1370,-909 1376,-915 1376,-921"/>
<polyline fill="none" stroke="black" points="1376,-921 1376,-1003 "/>
<path fill="none" stroke="black" d="M1376,-1003C1376,-1009 1370,-1015 1364,-1015"/>
<polyline fill="none" stroke="black" points="1364,-1015 1188,-1015 "/>
<path fill="none" stroke="black" d="M1188,-1015C1182,-1015 1176,-1009 1176,-1003"/>
<polyline fill="none" stroke="black" points="1176,-1003 1176,-921 "/>
<path fill="none" stroke="black" d="M1176,-921C1176,-915 1182,-909 1188,-909"/>
<text text-anchor="middle" x="1276" y="-998.4" font-family="Times Roman,serif" font-size="14.00">Participant::Contact::Email</text>
<polyline fill="none" stroke="black" points="1176,-989 1376,-989 "/>
<text text-anchor="start" x="1184" y="-972.4" font-family="Times Roman,serif" font-size="14.00">active :boolean</text>
<text text-anchor="start" x="1184" y="-954.4" font-family="Times Roman,serif" font-size="14.00">remark :text</text>
<text text-anchor="start" x="1184" y="-936.4" font-family="Times Roman,serif" font-size="14.00">created_at :datetime</text>
<text text-anchor="start" x="1184" y="-918.4" font-family="Times Roman,serif" font-size="14.00">updated_at :datetime</text>
</g>
<!-- Participant::Contact::Type -->
<g id="node18" class="node"><title>Participant::Contact::Type</title>
<polyline fill="none" stroke="black" points="1358,-1134 1528,-1134 "/>
<path fill="none" stroke="black" d="M1528,-1134C1534,-1134 1540,-1140 1540,-1146"/>
<polyline fill="none" stroke="black" points="1540,-1146 1540,-1246 "/>
<path fill="none" stroke="black" d="M1540,-1246C1540,-1252 1534,-1258 1528,-1258"/>
<polyline fill="none" stroke="black" points="1528,-1258 1358,-1258 "/>
<path fill="none" stroke="black" d="M1358,-1258C1352,-1258 1346,-1252 1346,-1246"/>
<polyline fill="none" stroke="black" points="1346,-1246 1346,-1146 "/>
<path fill="none" stroke="black" d="M1346,-1146C1346,-1140 1352,-1134 1358,-1134"/>
<text text-anchor="middle" x="1443" y="-1241.4" font-family="Times Roman,serif" font-size="14.00">Participant::Contact::Type</text>
<polyline fill="none" stroke="black" points="1346,-1232 1540,-1232 "/>
<text text-anchor="start" x="1354" y="-1215.4" font-family="Times Roman,serif" font-size="14.00">name :string</text>
<text text-anchor="start" x="1354" y="-1197.4" font-family="Times Roman,serif" font-size="14.00">remark :text</text>
<text text-anchor="start" x="1354" y="-1179.4" font-family="Times Roman,serif" font-size="14.00">active :boolean</text>
<text text-anchor="start" x="1354" y="-1161.4" font-family="Times Roman,serif" font-size="14.00">created_at :datetime</text>
<text text-anchor="start" x="1354" y="-1143.4" font-family="Times Roman,serif" font-size="14.00">updated_at :datetime</text>
</g>
<!-- Participant::Contact::Type&#45;&gt;Participant::Contact::Email -->
<g id="edge24" class="edge"><title>Participant::Contact::Type&#45;&gt;Participant::Contact::Email</title>
<path fill="none" stroke="black" d="M1393.98,-1127.32C1370.54,-1094.48 1342.71,-1055.48 1319.97,-1023.6"/>
<ellipse fill="none" stroke="black" cx="1396.36" cy="-1130.65" rx="4.00002" ry="4.00002"/>
<polygon fill="black" stroke="black" points="1319.81,-1023.38 1317.66,-1012.63 1316.9,-1019.31 1314,-1015.24 1314,-1015.24 1314,-1015.24 1316.9,-1019.31 1310.33,-1017.86 1319.81,-1023.38 1319.81,-1023.38"/>
</g>
<!-- Participant::Contact::Addre -->
<g id="node36" class="node"><title>Participant::Contact::Addre</title>
<ellipse fill="none" stroke="black" cx="1537" cy="-962" rx="143.043" ry="18.3848"/>
<text text-anchor="middle" x="1537" y="-958.4" font-family="Times Roman,serif" font-size="14.00">Participant::Contact::Addre</text>
</g>
<!-- Participant::Contact::Type&#45;&gt;Participant::Contact::Addre -->
<g id="edge26" class="edge"><title>Participant::Contact::Type&#45;&gt;Participant::Contact::Addre</title>
<path fill="none" stroke="black" d="M1471,-1126.29C1489.29,-1080.76 1512.2,-1023.74 1525.65,-990.245"/>
<ellipse fill="none" stroke="black" cx="1469.43" cy="-1130.19" rx="4.00001" ry="4.00001"/>
<polygon fill="black" stroke="black" points="1525.78,-989.924 1533.69,-982.322 1527.65,-985.284 1529.51,-980.645 1529.51,-980.645 1529.51,-980.645 1527.65,-985.284 1525.33,-978.967 1525.78,-989.924 1525.78,-989.924"/>
<text text-anchor="middle" x="1519.5" y="-1075.4" font-family="Times Roman,serif" font-size="14.00">Address</text>
</g>
<!-- Participant::Contact::Address -->
<g id="node19" class="node"><title>Participant::Contact::Address</title>
<polyline fill="none" stroke="black" points="1569.5,-1143 1762.5,-1143 "/>
<path fill="none" stroke="black" d="M1762.5,-1143C1768.5,-1143 1774.5,-1149 1774.5,-1155"/>
<polyline fill="none" stroke="black" points="1774.5,-1155 1774.5,-1237 "/>
<path fill="none" stroke="black" d="M1774.5,-1237C1774.5,-1243 1768.5,-1249 1762.5,-1249"/>
<polyline fill="none" stroke="black" points="1762.5,-1249 1569.5,-1249 "/>
<path fill="none" stroke="black" d="M1569.5,-1249C1563.5,-1249 1557.5,-1243 1557.5,-1237"/>
<polyline fill="none" stroke="black" points="1557.5,-1237 1557.5,-1155 "/>
<path fill="none" stroke="black" d="M1557.5,-1155C1557.5,-1149 1563.5,-1143 1569.5,-1143"/>
<text text-anchor="middle" x="1666" y="-1232.4" font-family="Times Roman,serif" font-size="14.00">Participant::Contact::Address</text>
<polyline fill="none" stroke="black" points="1557.5,-1223 1774.5,-1223 "/>
<text text-anchor="start" x="1565.5" y="-1206.4" font-family="Times Roman,serif" font-size="14.00">active :boolean</text>
<text text-anchor="start" x="1565.5" y="-1188.4" font-family="Times Roman,serif" font-size="14.00">remark :text</text>
<text text-anchor="start" x="1565.5" y="-1170.4" font-family="Times Roman,serif" font-size="14.00">created_at :datetime</text>
<text text-anchor="start" x="1565.5" y="-1152.4" font-family="Times Roman,serif" font-size="14.00">updated_at :datetime</text>
</g>
<!-- Email::Domain -->
<g id="node20" class="node"><title>Email::Domain</title>
<polyline fill="none" stroke="black" points="1803.5,-1134 1944.5,-1134 "/>
<path fill="none" stroke="black" d="M1944.5,-1134C1950.5,-1134 1956.5,-1140 1956.5,-1146"/>
<polyline fill="none" stroke="black" points="1956.5,-1146 1956.5,-1246 "/>
<path fill="none" stroke="black" d="M1956.5,-1246C1956.5,-1252 1950.5,-1258 1944.5,-1258"/>
<polyline fill="none" stroke="black" points="1944.5,-1258 1803.5,-1258 "/>
<path fill="none" stroke="black" d="M1803.5,-1258C1797.5,-1258 1791.5,-1252 1791.5,-1246"/>
<polyline fill="none" stroke="black" points="1791.5,-1246 1791.5,-1146 "/>
<path fill="none" stroke="black" d="M1791.5,-1146C1791.5,-1140 1797.5,-1134 1803.5,-1134"/>
<text text-anchor="middle" x="1874" y="-1241.4" font-family="Times Roman,serif" font-size="14.00">Email::Domain</text>
<polyline fill="none" stroke="black" points="1791.5,-1232 1956.5,-1232 "/>
<text text-anchor="start" x="1799.5" y="-1215.4" font-family="Times Roman,serif" font-size="14.00">name :string</text>
<text text-anchor="start" x="1799.5" y="-1197.4" font-family="Times Roman,serif" font-size="14.00">remark :text</text>
<text text-anchor="start" x="1799.5" y="-1179.4" font-family="Times Roman,serif" font-size="14.00">active :boolean</text>
<text text-anchor="start" x="1799.5" y="-1161.4" font-family="Times Roman,serif" font-size="14.00">created_at :datetime</text>
<text text-anchor="start" x="1799.5" y="-1143.4" font-family="Times Roman,serif" font-size="14.00">updated_at :datetime</text>
</g>
<!-- Email::User -->
<g id="node21" class="node"><title>Email::User</title>
<polyline fill="none" stroke="black" points="1803.5,-891 1944.5,-891 "/>
<path fill="none" stroke="black" d="M1944.5,-891C1950.5,-891 1956.5,-897 1956.5,-903"/>
<polyline fill="none" stroke="black" points="1956.5,-903 1956.5,-1021 "/>
<path fill="none" stroke="black" d="M1956.5,-1021C1956.5,-1027 1950.5,-1033 1944.5,-1033"/>
<polyline fill="none" stroke="black" points="1944.5,-1033 1803.5,-1033 "/>
<path fill="none" stroke="black" d="M1803.5,-1033C1797.5,-1033 1791.5,-1027 1791.5,-1021"/>
<polyline fill="none" stroke="black" points="1791.5,-1021 1791.5,-903 "/>
<path fill="none" stroke="black" d="M1791.5,-903C1791.5,-897 1797.5,-891 1803.5,-891"/>
<text text-anchor="middle" x="1874" y="-1016.4" font-family="Times Roman,serif" font-size="14.00">Email::User</text>
<polyline fill="none" stroke="black" points="1791.5,-1007 1956.5,-1007 "/>
<text text-anchor="start" x="1799.5" y="-990.4" font-family="Times Roman,serif" font-size="14.00">name :string</text>
<text text-anchor="start" x="1799.5" y="-972.4" font-family="Times Roman,serif" font-size="14.00">remark :text</text>
<text text-anchor="start" x="1799.5" y="-954.4" font-family="Times Roman,serif" font-size="14.00">active :boolean</text>
<text text-anchor="start" x="1799.5" y="-936.4" font-family="Times Roman,serif" font-size="14.00">password :string</text>
<text text-anchor="start" x="1799.5" y="-918.4" font-family="Times Roman,serif" font-size="14.00">created_at :datetime</text>
<text text-anchor="start" x="1799.5" y="-900.4" font-family="Times Roman,serif" font-size="14.00">updated_at :datetime</text>
</g>
<!-- Email::Domain&#45;&gt;Email::User -->
<g id="edge28" class="edge"><title>Email::Domain&#45;&gt;Email::User</title>
<path fill="none" stroke="black" d="M1874,-1125.77C1874,-1099.79 1874,-1070.12 1874,-1043.24"/>
<ellipse fill="none" stroke="black" cx="1874" cy="-1129.91" rx="4" ry="4"/>
<polygon fill="black" stroke="black" points="1874,-1043.08 1878.5,-1033.08 1874,-1038.08 1874,-1033.08 1874,-1033.08 1874,-1033.08 1874,-1038.08 1869.5,-1033.08 1874,-1043.08 1874,-1043.08"/>
</g>
<!-- Address -->
<g id="node22" class="node"><title>Address</title>
<polygon fill="none" stroke="black" stroke-dasharray="1,5" points="2044,-1214 1974,-1214 1974,-1178 2044,-1178 2044,-1214"/>
<text text-anchor="middle" x="2009" y="-1192.4" font-family="Times Roman,serif" font-size="14.00">Address</text>
</g>
</g>
</svg>
