<?xml version="1.0" encoding="UTF-8" standalone="no"?>
<!DOCTYPE svg PUBLIC "-//W3C//DTD SVG 1.1//EN"
 "http://www.w3.org/Graphics/SVG/1.1/DTD/svg11.dtd">
<!-- Generated by graphviz version 2.26.3 (20100126.1600)
 -->
<!-- Title: models_diagram Pages: 1 -->
<svg width="2717pt" height="582pt"
 viewBox="0.00 0.00 2717.00 582.00" xmlns="http://www.w3.org/2000/svg" xmlns:xlink="http://www.w3.org/1999/xlink">
<g id="graph1" class="graph" transform="scale(1 1) rotate(0) translate(4 578)">
<title>models_diagram</title>
<polygon fill="white" stroke="white" points="-4,5 -4,-578 2714,-578 2714,5 -4,5"/>
<!-- _diagram_info -->
<g id="node1" class="node"><title>_diagram_info</title>
<text text-anchor="start" x="8" y="-557.8" font-family="Times Roman,serif" font-size="13.00">Models diagram</text>
<text text-anchor="start" x="8" y="-540.8" font-family="Times Roman,serif" font-size="13.00">Date: Aug 15 2011 &#45; 21:14</text>
<text text-anchor="start" x="8" y="-523.8" font-family="Times Roman,serif" font-size="13.00">Migration version: 20110816000925</text>
<text text-anchor="start" x="8" y="-506.8" font-family="Times Roman,serif" font-size="13.00">Generated by RailRoady 1.0.2</text>
<text text-anchor="start" x="8" y="-489.8" font-family="Times Roman,serif" font-size="13.00">http://railroady.prestonlee.com</text>
</g>
<!-- Taxe::Group -->
<g id="node2" class="node"><title>Taxe::Group</title>
<ellipse fill="none" stroke="black" cx="559" cy="-407" rx="70.0036" ry="18.3848"/>
<text text-anchor="middle" x="559" y="-403.4" font-family="Times Roman,serif" font-size="14.00">Taxe::Group</text>
</g>
<!-- Taxe::Type -->
<g id="node4" class="node"><title>Taxe::Type</title>
<ellipse fill="none" stroke="black" cx="542" cy="-295" rx="62.2254" ry="18.3848"/>
<text text-anchor="middle" x="542" y="-291.4" font-family="Times Roman,serif" font-size="14.00">Taxe::Type</text>
</g>
<!-- Taxe::Group&#45;&gt;Taxe::Type -->
<g id="edge2" class="edge"><title>Taxe::Group&#45;&gt;Taxe::Type</title>
<path fill="none" stroke="black" d="M554.97,-380.452C552.379,-363.378 549.012,-341.198 546.358,-323.714"/>
<ellipse fill="none" stroke="black" cx="555.592" cy="-384.551" rx="4.00001" ry="4.00001"/>
<polygon fill="black" stroke="black" points="546.312,-323.409 549.26,-312.847 545.562,-318.465 544.811,-313.522 544.811,-313.522 544.811,-313.522 545.562,-318.465 540.362,-314.197 546.312,-323.409 546.312,-323.409"/>
<text text-anchor="middle" x="570" y="-347.4" font-family="Times Roman,serif" font-size="14.00">Type</text>
</g>
<!-- Taxe::Value -->
<g id="node3" class="node"><title>Taxe::Value</title>
<ellipse fill="none" stroke="black" cx="898" cy="-203" rx="67.1751" ry="18.3848"/>
<text text-anchor="middle" x="898" y="-199.4" font-family="Times Roman,serif" font-size="14.00">Taxe::Value</text>
</g>
<!-- Taxe::Type&#45;&gt;Taxe::Value -->
<g id="edge4" class="edge"><title>Taxe::Type&#45;&gt;Taxe::Value</title>
<path fill="none" stroke="black" d="M595.99,-280.487C601.73,-278.964 607.484,-277.444 613,-276 690.842,-255.616 780.809,-232.675 838.499,-218.043"/>
<ellipse fill="none" stroke="black" cx="592.059" cy="-281.533" rx="4.00001" ry="4.00001"/>
<polygon fill="black" stroke="black" points="838.838,-217.957 849.637,-219.862 843.685,-216.728 848.531,-215.5 848.531,-215.5 848.531,-215.5 843.685,-216.728 847.425,-211.138 838.838,-217.957 838.838,-217.957"/>
<text text-anchor="middle" x="769" y="-245.4" font-family="Times Roman,serif" font-size="14.00">Values</text>
</g>
<!-- Goods -->
<g id="node5" class="node"><title>Goods</title>
<polygon fill="none" stroke="black" stroke-dasharray="1,5" points="1641,-545 1583,-545 1583,-509 1641,-509 1641,-545"/>
<text text-anchor="middle" x="1612" y="-523.4" font-family="Times Roman,serif" font-size="14.00">Goods</text>
</g>
<!-- Email -->
<g id="node6" class="node"><title>Email</title>
<polygon fill="none" stroke="black" stroke-dasharray="1,5" points="1796,-545 1742,-545 1742,-509 1796,-509 1796,-545"/>
<text text-anchor="middle" x="1769" y="-523.4" font-family="Times Roman,serif" font-size="14.00">Email</text>
</g>
<!-- Transaction::RecordTaxe -->
<g id="node7" class="node"><title>Transaction::RecordTaxe</title>
<ellipse fill="none" stroke="black" cx="1016" cy="-351" rx="128.193" ry="18.3848"/>
<text text-anchor="middle" x="1016" y="-347.4" font-family="Times Roman,serif" font-size="14.00">Transaction::RecordTaxe</text>
</g>
<!-- Transaction::RecordTaxe&#45;&gt;Taxe::Value -->
<g id="edge6" class="edge"><title>Transaction::RecordTaxe&#45;&gt;Taxe::Value</title>
<path fill="none" stroke="black" d="M1026.78,-324.485C1031.15,-309.353 1033.42,-290.558 1025,-276 1009.22,-248.737 978.987,-230.767 951.973,-219.479"/>
<ellipse fill="none" stroke="black" cx="1025.43" cy="-328.661" rx="4.00001" ry="4.00001"/>
<ellipse fill="black" stroke="black" cx="948.168" cy="-217.956" rx="4.00001" ry="4.00001"/>
<text text-anchor="middle" x="1050.5" y="-291.4" font-family="Times Roman,serif" font-size="14.00">Value</text>
</g>
<!-- Transaction::Sender -->
<g id="node8" class="node"><title>Transaction::Sender</title>
<ellipse fill="none" stroke="black" cx="1502" cy="-407" rx="108.187" ry="18.3848"/>
<text text-anchor="middle" x="1502" y="-403.4" font-family="Times Roman,serif" font-size="14.00">Transaction::Sender</text>
</g>
<!-- Participant::Person -->
<g id="node28" class="node"><title>Participant::Person</title>
<ellipse fill="none" stroke="black" cx="1273" cy="-295" rx="103.238" ry="18.3848"/>
<text text-anchor="middle" x="1273" y="-291.4" font-family="Times Roman,serif" font-size="14.00">Participant::Person</text>
</g>
<!-- Transaction::Sender&#45;&gt;Participant::Person -->
<g id="edge8" class="edge"><title>Transaction::Sender&#45;&gt;Participant::Person</title>
<path fill="none" stroke="black" d="M1458.91,-385.926C1417.98,-365.909 1356.79,-335.98 1315.92,-315.989"/>
<ellipse fill="none" stroke="black" cx="1462.63" cy="-387.743" rx="4.00002" ry="4.00002"/>
<ellipse fill="black" stroke="black" cx="1312.12" cy="-314.135" rx="4.00002" ry="4.00002"/>
<text text-anchor="middle" x="1445.5" y="-347.4" font-family="Times Roman,serif" font-size="14.00">Person</text>
</g>
<!-- Transaction::Issuer -->
<g id="node9" class="node"><title>Transaction::Issuer</title>
<ellipse fill="none" stroke="black" cx="1273" cy="-407" rx="103.238" ry="18.3848"/>
<text text-anchor="middle" x="1273" y="-403.4" font-family="Times Roman,serif" font-size="14.00">Transaction::Issuer</text>
</g>
<!-- Transaction::Issuer&#45;&gt;Participant::Person -->
<g id="edge12" class="edge"><title>Transaction::Issuer&#45;&gt;Participant::Person</title>
<path fill="none" stroke="black" d="M1273,-380.242C1273,-362.632 1273,-339.661 1273,-322.003"/>
<ellipse fill="none" stroke="black" cx="1273" cy="-384.254" rx="4" ry="4"/>
<ellipse fill="black" stroke="black" cx="1273" cy="-317.807" rx="4" ry="4"/>
<text text-anchor="middle" x="1296.5" y="-347.4" font-family="Times Roman,serif" font-size="14.00">Person</text>
</g>
<!-- Transaction::ItemTaxe -->
<g id="node10" class="node"><title>Transaction::ItemTaxe</title>
<ellipse fill="none" stroke="black" cx="898" cy="-295" rx="118.087" ry="18.3848"/>
<text text-anchor="middle" x="898" y="-291.4" font-family="Times Roman,serif" font-size="14.00">Transaction::ItemTaxe</text>
</g>
<!-- Transaction::ItemTaxe&#45;&gt;Taxe::Value -->
<g id="edge16" class="edge"><title>Transaction::ItemTaxe&#45;&gt;Taxe::Value</title>
<path fill="none" stroke="black" d="M898,-268.029C898,-256.016 898,-241.902 898,-229.898"/>
<ellipse fill="none" stroke="black" cx="898" cy="-272.382" rx="4" ry="4"/>
<ellipse fill="black" stroke="black" cx="898" cy="-225.59" rx="4" ry="4"/>
<text text-anchor="middle" x="917.5" y="-245.4" font-family="Times Roman,serif" font-size="14.00">Value</text>
</g>
<!-- Transaction::Delivery -->
<g id="node11" class="node"><title>Transaction::Delivery</title>
<ellipse fill="none" stroke="black" cx="1038" cy="-407" rx="114.051" ry="18.3848"/>
<text text-anchor="middle" x="1038" y="-403.4" font-family="Times Roman,serif" font-size="14.00">Transaction::Delivery</text>
</g>
<!-- Transaction::Delivery&#45;&gt;Participant::Person -->
<g id="edge18" class="edge"><title>Transaction::Delivery&#45;&gt;Participant::Person</title>
<path fill="none" stroke="black" d="M1104.8,-388.591C1120.88,-383.322 1137.8,-377.063 1153,-370 1184.63,-355.302 1218.09,-333.837 1241.62,-317.633"/>
<ellipse fill="none" stroke="black" cx="1100.79" cy="-389.876" rx="4.00001" ry="4.00001"/>
<ellipse fill="black" stroke="black" cx="1245" cy="-315.282" rx="4.00002" ry="4.00002"/>
<text text-anchor="middle" x="1243.5" y="-347.4" font-family="Times Roman,serif" font-size="14.00">Person</text>
</g>
<!-- Transaction::Record -->
<g id="node12" class="node"><title>Transaction::Record</title>
<ellipse fill="none" stroke="black" cx="953" cy="-527" rx="106.773" ry="18.3848"/>
<text text-anchor="middle" x="953" y="-523.4" font-family="Times Roman,serif" font-size="14.00">Transaction::Record</text>
</g>
<!-- Transaction::Record&#45;&gt;Transaction::RecordTaxe -->
<g id="edge28" class="edge"><title>Transaction::Record&#45;&gt;Transaction::RecordTaxe</title>
<path fill="none" stroke="black" d="M934.253,-501.492C914.957,-471.837 890.858,-422.555 915,-388 919.321,-381.815 930.976,-375.849 944.905,-370.579"/>
<ellipse fill="none" stroke="black" cx="936.544" cy="-504.906" rx="4.00002" ry="4.00002"/>
<polygon fill="black" stroke="black" points="944.912,-370.576 955.842,-371.46 949.622,-368.899 954.332,-367.221 954.332,-367.221 954.332,-367.221 949.622,-368.899 952.822,-362.982 944.912,-370.576 944.912,-370.576"/>
<text text-anchor="middle" x="952" y="-449.4" font-family="Times Roman,serif" font-size="14.00">RecordTaxe</text>
</g>
<!-- Transaction::Record&#45;&gt;Transaction::Sender -->
<g id="edge22" class="edge"><title>Transaction::Record&#45;&gt;Transaction::Sender</title>
<path fill="none" stroke="black" d="M1018.97,-509.371C1054.19,-500.18 1098.34,-489.008 1138,-480 1234.72,-458.029 1346.7,-436.094 1420.63,-422.09"/>
<ellipse fill="none" stroke="black" cx="1015.01" cy="-510.408" rx="4.00001" ry="4.00001"/>
<ellipse fill="black" stroke="black" cx="1424.63" cy="-421.335" rx="4.00001" ry="4.00001"/>
<text text-anchor="middle" x="1332.5" y="-449.4" font-family="Times Roman,serif" font-size="14.00">Sender</text>
</g>
<!-- Transaction::Record&#45;&gt;Transaction::Issuer -->
<g id="edge24" class="edge"><title>Transaction::Record&#45;&gt;Transaction::Issuer</title>
<path fill="none" stroke="black" d="M995.692,-506.059C1033.34,-488.1 1090,-462.301 1141,-444 1161.36,-436.694 1183.9,-429.912 1204.51,-424.203"/>
<ellipse fill="none" stroke="black" cx="992.03" cy="-507.814" rx="4.00002" ry="4.00002"/>
<ellipse fill="black" stroke="black" cx="1208.45" cy="-423.125" rx="4.00001" ry="4.00001"/>
<text text-anchor="middle" x="1162" y="-449.4" font-family="Times Roman,serif" font-size="14.00">Issuer</text>
</g>
<!-- Transaction::Record&#45;&gt;Transaction::Delivery -->
<g id="edge30" class="edge"><title>Transaction::Record&#45;&gt;Transaction::Delivery</title>
<path fill="none" stroke="black" d="M970.841,-501.812C985.304,-481.394 1005.59,-452.752 1020.08,-432.303"/>
<ellipse fill="none" stroke="black" cx="968.407" cy="-505.249" rx="4.00002" ry="4.00002"/>
<ellipse fill="black" stroke="black" cx="1022.44" cy="-428.97" rx="4.00002" ry="4.00002"/>
<text text-anchor="middle" x="1040" y="-449.4" font-family="Times Roman,serif" font-size="14.00">Delivery</text>
</g>
<!-- Transaction::Financier -->
<g id="node14" class="node"><title>Transaction::Financier</title>
<ellipse fill="none" stroke="black" cx="353" cy="-407" rx="118.087" ry="18.3848"/>
<text text-anchor="middle" x="353" y="-403.4" font-family="Times Roman,serif" font-size="14.00">Transaction::Financier</text>
</g>
<!-- Transaction::Record&#45;&gt;Transaction::Financier -->
<g id="edge26" class="edge"><title>Transaction::Record&#45;&gt;Transaction::Financier</title>
<path fill="none" stroke="black" d="M875.114,-511.423C761.662,-488.732 551.86,-446.772 435.734,-423.547"/>
<ellipse fill="none" stroke="black" cx="879.076" cy="-512.215" rx="4.00001" ry="4.00001"/>
<polygon fill="black" stroke="black" points="435.629,-423.526 426.706,-417.152 430.726,-422.545 425.823,-421.565 425.823,-421.565 425.823,-421.565 430.726,-422.545 424.941,-425.977 435.629,-423.526 435.629,-423.526"/>
<text text-anchor="middle" x="649.5" y="-449.4" font-family="Times Roman,serif" font-size="14.00">Financier</text>
</g>
<!-- Transaction::Item -->
<g id="node15" class="node"><title>Transaction::Item</title>
<ellipse fill="none" stroke="black" cx="772" cy="-407" rx="96.1665" ry="18.3848"/>
<text text-anchor="middle" x="772" y="-403.4" font-family="Times Roman,serif" font-size="14.00">Transaction::Item</text>
</g>
<!-- Transaction::Record&#45;&gt;Transaction::Item -->
<g id="edge32" class="edge"><title>Transaction::Record&#45;&gt;Transaction::Item</title>
<path fill="none" stroke="black" d="M913.147,-505.405C891.639,-493.32 864.885,-477.585 842,-462 828.299,-452.67 813.792,-441.504 801.559,-431.678"/>
<ellipse fill="none" stroke="black" cx="916.734" cy="-507.407" rx="4.00002" ry="4.00002"/>
<polygon fill="black" stroke="black" points="801.255,-431.431 796.327,-421.635 797.373,-428.28 793.491,-425.129 793.491,-425.129 793.491,-425.129 797.373,-428.28 790.655,-428.623 801.255,-431.431 801.255,-431.431"/>
<text text-anchor="middle" x="858" y="-449.4" font-family="Times Roman,serif" font-size="14.00">Item</text>
</g>
<!-- Transaction::Participant -->
<g id="node13" class="node"><title>Transaction::Participant</title>
<ellipse fill="none" stroke="black" cx="1273" cy="-527" rx="126.072" ry="18.3848"/>
<text text-anchor="middle" x="1273" y="-523.4" font-family="Times Roman,serif" font-size="14.00">Transaction::Participant</text>
</g>
<!-- Transaction::Participant&#45;&gt;Transaction::Sender -->
<g id="edge10" class="edge"><title>Transaction::Participant&#45;&gt;Transaction::Sender</title>
<path fill="none" stroke="black" d="M1307.28,-509.035C1350.7,-486.282 1425.05,-447.321 1468.23,-424.696"/>
</g>
<!-- Transaction::Participant&#45;&gt;Transaction::Issuer -->
<g id="edge14" class="edge"><title>Transaction::Participant&#45;&gt;Transaction::Issuer</title>
<path fill="none" stroke="black" d="M1273,-508.25C1273,-485.706 1273,-448.103 1273,-425.618"/>
</g>
<!-- Transaction::Participant&#45;&gt;Transaction::Delivery -->
<g id="edge20" class="edge"><title>Transaction::Participant&#45;&gt;Transaction::Delivery</title>
<path fill="none" stroke="black" d="M1250.14,-508.744C1226.28,-490.393 1187.23,-462.277 1150,-444 1133.18,-435.743 1114.08,-428.662 1096.47,-422.971"/>
</g>
<!-- Transaction::Item&#45;&gt;Transaction::ItemTaxe -->
<g id="edge34" class="edge"><title>Transaction::Item&#45;&gt;Transaction::ItemTaxe</title>
<path fill="none" stroke="black" d="M782.335,-381.063C789.739,-365.2 801.043,-345.441 816,-332 822.74,-325.944 830.636,-320.732 838.818,-316.293"/>
<ellipse fill="none" stroke="black" cx="780.647" cy="-384.841" rx="4.00002" ry="4.00002"/>
<polygon fill="black" stroke="black" points="838.841,-316.282 849.796,-315.794 843.305,-314.03 847.769,-311.777 847.769,-311.777 847.769,-311.777 843.305,-314.03 845.741,-307.759 838.841,-316.282 838.841,-316.282"/>
<text text-anchor="middle" x="847.5" y="-347.4" font-family="Times Roman,serif" font-size="14.00">ItemTaxe</text>
</g>
<!-- Goods::Item -->
<g id="node32" class="node"><title>Goods::Item</title>
<ellipse fill="none" stroke="black" cx="692" cy="-295" rx="70.2092" ry="18.3848"/>
<text text-anchor="middle" x="692" y="-291.4" font-family="Times Roman,serif" font-size="14.00">Goods::Item</text>
</g>
<!-- Transaction::Item&#45;&gt;Goods::Item -->
<g id="edge36" class="edge"><title>Transaction::Item&#45;&gt;Goods::Item</title>
<path fill="none" stroke="black" d="M742.225,-383.356C737.843,-379.167 733.599,-374.649 730,-370 718.51,-355.158 708.976,-336.304 702.331,-321.213"/>
<ellipse fill="none" stroke="black" cx="745.286" cy="-386.15" rx="4.00002" ry="4.00002"/>
<ellipse fill="black" stroke="black" cx="700.696" cy="-317.384" rx="4.00002" ry="4.00002"/>
<text text-anchor="middle" x="746" y="-347.4" font-family="Times Roman,serif" font-size="14.00">Item</text>
</g>
<!-- Address::Street -->
<g id="node16" class="node"><title>Address::Street</title>
<ellipse fill="none" stroke="black" cx="2055" cy="-19" rx="86.9741" ry="18.3848"/>
<text text-anchor="middle" x="2055" y="-15.4" font-family="Times Roman,serif" font-size="14.00">Address::Street</text>
</g>
<!-- Address::State -->
<g id="node17" class="node"><title>Address::State</title>
<ellipse fill="none" stroke="black" cx="2085" cy="-295" rx="82.2301" ry="18.3848"/>
<text text-anchor="middle" x="2085" y="-291.4" font-family="Times Roman,serif" font-size="14.00">Address::State</text>
</g>
<!-- Address::City -->
<g id="node18" class="node"><title>Address::City</title>
<ellipse fill="none" stroke="black" cx="2085" cy="-203" rx="75.1594" ry="18.3848"/>
<text text-anchor="middle" x="2085" y="-199.4" font-family="Times Roman,serif" font-size="14.00">Address::City</text>
</g>
<!-- Address::State&#45;&gt;Address::City -->
<g id="edge40" class="edge"><title>Address::State&#45;&gt;Address::City</title>
<path fill="none" stroke="black" d="M2085,-268.029C2085,-256.599 2085,-243.267 2085,-231.66"/>
<ellipse fill="none" stroke="black" cx="2085" cy="-272.382" rx="4" ry="4"/>
<polygon fill="black" stroke="black" points="2085,-231.59 2089.5,-221.59 2085,-226.59 2085,-221.59 2085,-221.59 2085,-221.59 2085,-226.59 2080.5,-221.59 2085,-231.59 2085,-231.59"/>
</g>
<!-- Address::Neighborhood -->
<g id="node21" class="node"><title>Address::Neighborhood</title>
<ellipse fill="none" stroke="black" cx="2055" cy="-111" rx="123.951" ry="18.3848"/>
<text text-anchor="middle" x="2055" y="-107.4" font-family="Times Roman,serif" font-size="14.00">Address::Neighborhood</text>
</g>
<!-- Address::City&#45;&gt;Address::Neighborhood -->
<g id="edge44" class="edge"><title>Address::City&#45;&gt;Address::Neighborhood</title>
<path fill="none" stroke="black" d="M2076.34,-176.447C2072.56,-164.84 2068.11,-151.21 2064.26,-139.401"/>
<ellipse fill="none" stroke="black" cx="2077.69" cy="-180.58" rx="4.00001" ry="4.00001"/>
<polygon fill="black" stroke="black" points="2064.16,-139.097 2065.34,-128.195 2062.61,-134.344 2061.06,-129.59 2061.06,-129.59 2061.06,-129.59 2062.61,-134.344 2056.78,-130.985 2064.16,-139.097 2064.16,-139.097"/>
</g>
<!-- Address::Country -->
<g id="node19" class="node"><title>Address::Country</title>
<ellipse fill="none" stroke="black" cx="2103" cy="-407" rx="96.1665" ry="18.3848"/>
<text text-anchor="middle" x="2103" y="-403.4" font-family="Times Roman,serif" font-size="14.00">Address::Country</text>
</g>
<!-- Address::Country&#45;&gt;Address::State -->
<g id="edge48" class="edge"><title>Address::Country&#45;&gt;Address::State</title>
<path fill="none" stroke="black" d="M2098.73,-380.452C2095.99,-363.378 2092.42,-341.198 2089.61,-323.714"/>
<ellipse fill="none" stroke="black" cx="2099.39" cy="-384.556" rx="4.00001" ry="4.00001"/>
<polygon fill="black" stroke="black" points="2089.56,-323.395 2092.42,-312.808 2088.77,-318.459 2087.98,-313.522 2087.98,-313.522 2087.98,-313.522 2088.77,-318.459 2083.53,-314.236 2089.56,-323.395 2089.56,-323.395"/>
</g>
<!-- Address::Place -->
<g id="node20" class="node"><title>Address::Place</title>
<ellipse fill="none" stroke="black" cx="1979" cy="-527" rx="82.0244" ry="18.3848"/>
<text text-anchor="middle" x="1979" y="-523.4" font-family="Times Roman,serif" font-size="14.00">Address::Place</text>
</g>
<!-- Address::Place&#45;&gt;Address::Street -->
<g id="edge38" class="edge"><title>Address::Place&#45;&gt;Address::Street</title>
<path fill="none" stroke="black" d="M1958.23,-508.896C1935.73,-487.162 1903,-448.429 1903,-407 1903,-407 1903,-407 1903,-111 1903,-67.3527 1949.44,-43.8487 1990.98,-31.5552"/>
</g>
<!-- Address::Place&#45;&gt;Address::State -->
<g id="edge42" class="edge"><title>Address::Place&#45;&gt;Address::State</title>
<path fill="none" stroke="black" d="M1978.06,-508.45C1977.41,-480.812 1979.06,-427.811 1998,-388 2012.62,-357.252 2041.14,-329.843 2061.54,-312.883"/>
</g>
<!-- Address::Place&#45;&gt;Address::City -->
<g id="edge46" class="edge"><title>Address::Place&#45;&gt;Address::City</title>
<path fill="none" stroke="black" d="M2010.19,-509.871C2027.58,-500.582 2049.75,-489.162 2070,-480 2130.01,-452.852 2170.87,-480.399 2208,-426 2232.12,-390.656 2202.64,-316.087 2176,-276 2160.42,-252.552 2134.93,-233.046 2114.89,-220.113"/>
</g>
<!-- Address::Place&#45;&gt;Address::Country -->
<g id="edge50" class="edge"><title>Address::Place&#45;&gt;Address::Country</title>
<path fill="none" stroke="black" d="M1997.83,-508.775C2021.14,-486.22 2060.6,-448.03 2083.99,-425.397"/>
</g>
<!-- Address::Place&#45;&gt;Address::Neighborhood -->
<g id="edge54" class="edge"><title>Address::Place&#45;&gt;Address::Neighborhood</title>
<path fill="none" stroke="black" d="M1969.21,-508.456C1957.95,-485.357 1941,-444.369 1941,-407 1941,-407 1941,-407 1941,-203 1941,-167.013 1975.83,-142.701 2006.98,-128.152"/>
</g>
<!-- Address::Neighborhood&#45;&gt;Address::Street -->
<g id="edge52" class="edge"><title>Address::Neighborhood&#45;&gt;Address::Street</title>
<path fill="none" stroke="black" d="M2055,-84.029C2055,-72.5994 2055,-59.2671 2055,-47.6601"/>
<ellipse fill="none" stroke="black" cx="2055" cy="-88.3824" rx="4" ry="4"/>
<polygon fill="black" stroke="black" points="2055,-47.5899 2059.5,-37.5898 2055,-42.5899 2055,-37.5899 2055,-37.5899 2055,-37.5899 2055,-42.5899 2050.5,-37.5899 2055,-47.5899 2055,-47.5899"/>
</g>
<!-- Taxe -->
<g id="node22" class="node"><title>Taxe</title>
<polygon fill="none" stroke="black" stroke-dasharray="1,5" points="2133,-545 2079,-545 2079,-509 2133,-509 2133,-545"/>
<text text-anchor="middle" x="2106" y="-523.4" font-family="Times Roman,serif" font-size="14.00">Taxe</text>
</g>
<!-- Financier::Note -->
<g id="node23" class="node"><title>Financier::Note</title>
<ellipse fill="none" stroke="black" cx="353" cy="-527" rx="85.0596" ry="18.3848"/>
<text text-anchor="middle" x="353" y="-523.4" font-family="Times Roman,serif" font-size="14.00">Financier::Note</text>
</g>
<!-- Financier::Note&#45;&gt;Transaction::Financier -->
<g id="edge56" class="edge"><title>Financier::Note&#45;&gt;Transaction::Financier</title>
<path fill="none" stroke="black" d="M353,-500.053C353,-480.303 353,-453.609 353,-433.876"/>
<ellipse fill="none" stroke="black" cx="353" cy="-504.25" rx="4" ry="4"/>
<ellipse fill="black" stroke="black" cx="353" cy="-429.618" rx="4" ry="4"/>
<text text-anchor="middle" x="384.5" y="-449.4" font-family="Times Roman,serif" font-size="14.00">Financier</text>
</g>
<!-- Participant -->
<g id="node24" class="node"><title>Participant</title>
<polygon fill="none" stroke="black" stroke-dasharray="1,5" points="2241,-545 2151,-545 2151,-509 2241,-509 2241,-545"/>
<text text-anchor="middle" x="2196" y="-523.4" font-family="Times Roman,serif" font-size="14.00">Participant</text>
</g>
<!-- Financier -->
<g id="node25" class="node"><title>Financier</title>
<polygon fill="none" stroke="black" stroke-dasharray="1,5" points="2337,-545 2259,-545 2259,-509 2337,-509 2337,-545"/>
<text text-anchor="middle" x="2298" y="-523.4" font-family="Times Roman,serif" font-size="14.00">Financier</text>
</g>
<!-- Transaction -->
<g id="node26" class="node"><title>Transaction</title>
<polygon fill="none" stroke="black" stroke-dasharray="1,5" points="2449,-545 2355,-545 2355,-509 2449,-509 2449,-545"/>
<text text-anchor="middle" x="2402" y="-523.4" font-family="Times Roman,serif" font-size="14.00">Transaction</text>
</g>
<!-- Participant::Contact -->
<g id="node27" class="node"><title>Participant::Contact</title>
<polygon fill="none" stroke="black" stroke-dasharray="1,5" points="2621,-545 2467,-545 2467,-509 2621,-509 2621,-545"/>
<text text-anchor="middle" x="2544" y="-523.4" font-family="Times Roman,serif" font-size="14.00">Participant::Contact</text>
</g>
<!-- Participant::Contact::Email -->
<g id="node29" class="node"><title>Participant::Contact::Email</title>
<ellipse fill="none" stroke="black" cx="1552" cy="-203" rx="140.922" ry="18.3848"/>
<text text-anchor="middle" x="1552" y="-199.4" font-family="Times Roman,serif" font-size="14.00">Participant::Contact::Email</text>
</g>
<!-- Participant::Person&#45;&gt;Participant::Contact::Email -->
<g id="edge58" class="edge"><title>Participant::Person&#45;&gt;Participant::Contact::Email</title>
<path fill="none" stroke="black" d="M1313.51,-273.746C1336.14,-262.526 1365.11,-249.213 1392,-240 1414.09,-232.433 1438.41,-225.921 1461.29,-220.564"/>
<ellipse fill="none" stroke="black" cx="1309.67" cy="-275.67" rx="4.00002" ry="4.00002"/>
<polygon fill="black" stroke="black" points="1461.59,-220.495 1472.34,-222.648 1466.46,-219.378 1471.33,-218.262 1471.33,-218.262 1471.33,-218.262 1466.46,-219.378 1470.33,-213.875 1461.59,-220.495 1461.59,-220.495"/>
<text text-anchor="middle" x="1411" y="-245.4" font-family="Times Roman,serif" font-size="14.00">Email</text>
</g>
<!-- Participant::Contact::Addres -->
<g id="node66" class="node"><title>Participant::Contact::Addres</title>
<ellipse fill="none" stroke="black" cx="1245" cy="-203" rx="147.992" ry="18.3848"/>
<text text-anchor="middle" x="1245" y="-199.4" font-family="Times Roman,serif" font-size="14.00">Participant::Contact::Addres</text>
</g>
<!-- Participant::Person&#45;&gt;Participant::Contact::Addres -->
<g id="edge60" class="edge"><title>Participant::Person&#45;&gt;Participant::Contact::Addres</title>
<path fill="none" stroke="black" d="M1264.92,-268.447C1261.39,-256.84 1257.24,-243.21 1253.64,-231.401"/>
<ellipse fill="none" stroke="black" cx="1266.17" cy="-272.556" rx="4.00001" ry="4.00001"/>
<polygon fill="black" stroke="black" points="1253.57,-231.157 1254.96,-220.28 1252.11,-226.373 1250.66,-221.59 1250.66,-221.59 1250.66,-221.59 1252.11,-226.373 1246.35,-222.9 1253.57,-231.157 1253.57,-231.157"/>
<text text-anchor="middle" x="1289.5" y="-245.4" font-family="Times Roman,serif" font-size="14.00">Address</text>
</g>
<!-- Email::User -->
<g id="node34" class="node"><title>Email::User</title>
<ellipse fill="none" stroke="black" cx="1672" cy="-111" rx="67.1751" ry="18.3848"/>
<text text-anchor="middle" x="1672" y="-107.4" font-family="Times Roman,serif" font-size="14.00">Email::User</text>
</g>
<!-- Participant::Contact::Email&#45;&gt;Email::User -->
<g id="edge62" class="edge"><title>Participant::Contact::Email&#45;&gt;Email::User</title>
<path fill="none" stroke="black" d="M1582.5,-179.613C1601.02,-165.42 1624.52,-147.404 1642.79,-133.395"/>
<ellipse fill="none" stroke="black" cx="1579.17" cy="-182.17" rx="4.00002" ry="4.00002"/>
<ellipse fill="black" stroke="black" cx="1646.09" cy="-130.863" rx="4.00002" ry="4.00002"/>
<text text-anchor="middle" x="1638" y="-153.4" font-family="Times Roman,serif" font-size="14.00">User</text>
</g>
<!-- Participant::Contact::Type -->
<g id="node30" class="node"><title>Participant::Contact::Type</title>
<ellipse fill="none" stroke="black" cx="1534" cy="-295" rx="137.179" ry="18.3848"/>
<text text-anchor="middle" x="1534" y="-291.4" font-family="Times Roman,serif" font-size="14.00">Participant::Contact::Type</text>
</g>
<!-- Participant::Contact::Type&#45;&gt;Participant::Contact::Email -->
<g id="edge64" class="edge"><title>Participant::Contact::Type&#45;&gt;Participant::Contact::Email</title>
<path fill="none" stroke="black" d="M1539.2,-268.447C1541.44,-256.958 1544.08,-243.485 1546.37,-231.76"/>
<ellipse fill="none" stroke="black" cx="1538.41" cy="-272.457" rx="4.00001" ry="4.00001"/>
<polygon fill="black" stroke="black" points="1546.44,-231.404 1552.78,-222.454 1547.4,-226.497 1548.36,-221.59 1548.36,-221.59 1548.36,-221.59 1547.4,-226.497 1543.95,-220.726 1546.44,-231.404 1546.44,-231.404"/>
<text text-anchor="middle" x="1563" y="-245.4" font-family="Times Roman,serif" font-size="14.00">Email</text>
</g>
<!-- Participant::Contact::Type&#45;&gt;Participant::Contact::Addres -->
<g id="edge66" class="edge"><title>Participant::Contact::Type&#45;&gt;Participant::Contact::Addres</title>
<path fill="none" stroke="black" d="M1498.08,-272.685C1478.56,-261.43 1453.65,-248.417 1430,-240 1405.37,-231.235 1378.12,-224.34 1352.28,-218.999"/>
<ellipse fill="none" stroke="black" cx="1501.55" cy="-274.72" rx="4.00002" ry="4.00002"/>
<polygon fill="black" stroke="black" points="1352.25,-218.995 1343.33,-212.616 1347.35,-218.011 1342.45,-217.028 1342.45,-217.028 1342.45,-217.028 1347.35,-218.011 1341.56,-221.44 1352.25,-218.995 1352.25,-218.995"/>
<text text-anchor="middle" x="1495.5" y="-245.4" font-family="Times Roman,serif" font-size="14.00">Address</text>
</g>
<!-- Participant::Contact::Address -->
<g id="node31" class="node"><title>Participant::Contact::Address</title>
<ellipse fill="none" stroke="black" cx="2350" cy="-111" rx="152.942" ry="18.3848"/>
<text text-anchor="middle" x="2350" y="-107.4" font-family="Times Roman,serif" font-size="14.00">Participant::Contact::Address</text>
</g>
<!-- Participant::Contact::Address&#45;&gt;Address::Street -->
<g id="edge68" class="edge"><title>Participant::Contact::Address&#45;&gt;Address::Street</title>
<path fill="none" stroke="black" d="M2286.63,-91.2386C2234.83,-75.0841 2162.24,-52.4428 2112.19,-36.8348"/>
<ellipse fill="none" stroke="black" cx="2290.69" cy="-92.5046" rx="4.00001" ry="4.00001"/>
<ellipse fill="black" stroke="black" cx="2108.17" cy="-35.5832" rx="4.00001" ry="4.00001"/>
<text text-anchor="middle" x="2250" y="-61.4" font-family="Times Roman,serif" font-size="14.00">Street</text>
</g>
<!-- Email::Domain -->
<g id="node33" class="node"><title>Email::Domain</title>
<ellipse fill="none" stroke="black" cx="1793" cy="-203" rx="82.0244" ry="18.3848"/>
<text text-anchor="middle" x="1793" y="-199.4" font-family="Times Roman,serif" font-size="14.00">Email::Domain</text>
</g>
<!-- Email::Domain&#45;&gt;Email::User -->
<g id="edge70" class="edge"><title>Email::Domain&#45;&gt;Email::User</title>
<path fill="none" stroke="black" d="M1763.12,-180.282C1744.95,-166.47 1721.79,-148.854 1703.36,-134.842"/>
<ellipse fill="none" stroke="black" cx="1766.49" cy="-182.84" rx="4.00002" ry="4.00002"/>
<polygon fill="black" stroke="black" points="1703.22,-134.737 1697.98,-125.102 1699.24,-131.71 1695.26,-128.684 1695.26,-128.684 1695.26,-128.684 1699.24,-131.71 1692.53,-132.266 1703.22,-134.737 1703.22,-134.737"/>
<text text-anchor="middle" x="1759" y="-153.4" font-family="Times Roman,serif" font-size="14.00">User</text>
</g>
<!-- Address -->
<g id="node35" class="node"><title>Address</title>
<polygon fill="none" stroke="black" stroke-dasharray="1,5" points="2709,-545 2639,-545 2639,-509 2709,-509 2709,-545"/>
<text text-anchor="middle" x="2674" y="-523.4" font-family="Times Roman,serif" font-size="14.00">Address</text>
</g>
</g>
</svg>
