<?xml version="1.0" encoding="UTF-8" standalone="no"?>
<!DOCTYPE svg PUBLIC "-//W3C//DTD SVG 1.1//EN"
 "http://www.w3.org/Graphics/SVG/1.1/DTD/svg11.dtd">
<!-- Generated by graphviz version 2.26.3 (20100126.1600)
 -->
<!-- Title: models_diagram Pages: 1 -->
<svg width="1983pt" height="1312pt"
 viewBox="0.00 0.00 1983.00 1312.00" xmlns="http://www.w3.org/2000/svg" xmlns:xlink="http://www.w3.org/1999/xlink">
<g id="graph1" class="graph" transform="scale(1 1) rotate(0) translate(4 1308)">
<title>models_diagram</title>
<polygon fill="white" stroke="white" points="-4,5 -4,-1308 1980,-1308 1980,5 -4,5"/>
<!-- _diagram_info -->
<g id="node1" class="node"><title>_diagram_info</title>
<text text-anchor="start" x="8" y="-1235.8" font-family="Times Roman,serif" font-size="13.00">Models diagram</text>
<text text-anchor="start" x="8" y="-1218.8" font-family="Times Roman,serif" font-size="13.00">Date: Aug 04 2011 &#45; 23:50</text>
<text text-anchor="start" x="8" y="-1201.8" font-family="Times Roman,serif" font-size="13.00">Migration version: 20110805024527</text>
<text text-anchor="start" x="8" y="-1184.8" font-family="Times Roman,serif" font-size="13.00">Generated by RailRoady 1.0.2</text>
<text text-anchor="start" x="8" y="-1167.8" font-family="Times Roman,serif" font-size="13.00">http://railroady.prestonlee.com</text>
</g>
<!-- Taxe::Group -->
<g id="node2" class="node"><title>Taxe::Group</title>
<polyline fill="none" stroke="black" points="279.5,-1143 420.5,-1143 "/>
<path fill="none" stroke="black" d="M420.5,-1143C426.5,-1143 432.5,-1149 432.5,-1155"/>
<polyline fill="none" stroke="black" points="432.5,-1155 432.5,-1255 "/>
<path fill="none" stroke="black" d="M432.5,-1255C432.5,-1261 426.5,-1267 420.5,-1267"/>
<polyline fill="none" stroke="black" points="420.5,-1267 279.5,-1267 "/>
<path fill="none" stroke="black" d="M279.5,-1267C273.5,-1267 267.5,-1261 267.5,-1255"/>
<polyline fill="none" stroke="black" points="267.5,-1255 267.5,-1155 "/>
<path fill="none" stroke="black" d="M267.5,-1155C267.5,-1149 273.5,-1143 279.5,-1143"/>
<text text-anchor="middle" x="350" y="-1250.4" font-family="Times Roman,serif" font-size="14.00">Taxe::Group</text>
<polyline fill="none" stroke="black" points="267.5,-1241 432.5,-1241 "/>
<text text-anchor="start" x="275.5" y="-1224.4" font-family="Times Roman,serif" font-size="14.00">name :string</text>
<text text-anchor="start" x="275.5" y="-1206.4" font-family="Times Roman,serif" font-size="14.00">remark :text</text>
<text text-anchor="start" x="275.5" y="-1188.4" font-family="Times Roman,serif" font-size="14.00">active :boolean</text>
<text text-anchor="start" x="275.5" y="-1170.4" font-family="Times Roman,serif" font-size="14.00">created_at :datetime</text>
<text text-anchor="start" x="275.5" y="-1152.4" font-family="Times Roman,serif" font-size="14.00">updated_at :datetime</text>
</g>
<!-- Taxe::Value -->
<g id="node3" class="node"><title>Taxe::Value</title>
<polyline fill="none" stroke="black" points="461.5,-1143 602.5,-1143 "/>
<path fill="none" stroke="black" d="M602.5,-1143C608.5,-1143 614.5,-1149 614.5,-1155"/>
<polyline fill="none" stroke="black" points="614.5,-1155 614.5,-1255 "/>
<path fill="none" stroke="black" d="M614.5,-1255C614.5,-1261 608.5,-1267 602.5,-1267"/>
<polyline fill="none" stroke="black" points="602.5,-1267 461.5,-1267 "/>
<path fill="none" stroke="black" d="M461.5,-1267C455.5,-1267 449.5,-1261 449.5,-1255"/>
<polyline fill="none" stroke="black" points="449.5,-1255 449.5,-1155 "/>
<path fill="none" stroke="black" d="M449.5,-1155C449.5,-1149 455.5,-1143 461.5,-1143"/>
<text text-anchor="middle" x="532" y="-1250.4" font-family="Times Roman,serif" font-size="14.00">Taxe::Value</text>
<polyline fill="none" stroke="black" points="449.5,-1241 614.5,-1241 "/>
<text text-anchor="start" x="457.5" y="-1224.4" font-family="Times Roman,serif" font-size="14.00">percentage :integer</text>
<text text-anchor="start" x="457.5" y="-1206.4" font-family="Times Roman,serif" font-size="14.00">basis :integer</text>
<text text-anchor="start" x="457.5" y="-1188.4" font-family="Times Roman,serif" font-size="14.00">value :integer</text>
<text text-anchor="start" x="457.5" y="-1170.4" font-family="Times Roman,serif" font-size="14.00">created_at :datetime</text>
<text text-anchor="start" x="457.5" y="-1152.4" font-family="Times Roman,serif" font-size="14.00">updated_at :datetime</text>
</g>
<!-- Taxe::Type -->
<g id="node4" class="node"><title>Taxe::Type</title>
<polyline fill="none" stroke="black" points="643.5,-1143 784.5,-1143 "/>
<path fill="none" stroke="black" d="M784.5,-1143C790.5,-1143 796.5,-1149 796.5,-1155"/>
<polyline fill="none" stroke="black" points="796.5,-1155 796.5,-1255 "/>
<path fill="none" stroke="black" d="M796.5,-1255C796.5,-1261 790.5,-1267 784.5,-1267"/>
<polyline fill="none" stroke="black" points="784.5,-1267 643.5,-1267 "/>
<path fill="none" stroke="black" d="M643.5,-1267C637.5,-1267 631.5,-1261 631.5,-1255"/>
<polyline fill="none" stroke="black" points="631.5,-1255 631.5,-1155 "/>
<path fill="none" stroke="black" d="M631.5,-1155C631.5,-1149 637.5,-1143 643.5,-1143"/>
<text text-anchor="middle" x="714" y="-1250.4" font-family="Times Roman,serif" font-size="14.00">Taxe::Type</text>
<polyline fill="none" stroke="black" points="631.5,-1241 796.5,-1241 "/>
<text text-anchor="start" x="639.5" y="-1224.4" font-family="Times Roman,serif" font-size="14.00">name :string</text>
<text text-anchor="start" x="639.5" y="-1206.4" font-family="Times Roman,serif" font-size="14.00">remark :text</text>
<text text-anchor="start" x="639.5" y="-1188.4" font-family="Times Roman,serif" font-size="14.00">active :boolean</text>
<text text-anchor="start" x="639.5" y="-1170.4" font-family="Times Roman,serif" font-size="14.00">created_at :datetime</text>
<text text-anchor="start" x="639.5" y="-1152.4" font-family="Times Roman,serif" font-size="14.00">updated_at :datetime</text>
</g>
<!-- Phone -->
<g id="node5" class="node"><title>Phone</title>
<polyline fill="none" stroke="black" points="1007.5,-891 1148.5,-891 "/>
<path fill="none" stroke="black" d="M1148.5,-891C1154.5,-891 1160.5,-897 1160.5,-903"/>
<polyline fill="none" stroke="black" points="1160.5,-903 1160.5,-1021 "/>
<path fill="none" stroke="black" d="M1160.5,-1021C1160.5,-1027 1154.5,-1033 1148.5,-1033"/>
<polyline fill="none" stroke="black" points="1148.5,-1033 1007.5,-1033 "/>
<path fill="none" stroke="black" d="M1007.5,-1033C1001.5,-1033 995.5,-1027 995.5,-1021"/>
<polyline fill="none" stroke="black" points="995.5,-1021 995.5,-903 "/>
<path fill="none" stroke="black" d="M995.5,-903C995.5,-897 1001.5,-891 1007.5,-891"/>
<text text-anchor="middle" x="1078" y="-1016.4" font-family="Times Roman,serif" font-size="14.00">Phone</text>
<polyline fill="none" stroke="black" points="995.5,-1007 1160.5,-1007 "/>
<text text-anchor="start" x="1003.5" y="-990.4" font-family="Times Roman,serif" font-size="14.00">number :integer</text>
<text text-anchor="start" x="1003.5" y="-972.4" font-family="Times Roman,serif" font-size="14.00">remark :text</text>
<text text-anchor="start" x="1003.5" y="-954.4" font-family="Times Roman,serif" font-size="14.00">extension :integer</text>
<text text-anchor="start" x="1003.5" y="-936.4" font-family="Times Roman,serif" font-size="14.00">active :boolean</text>
<text text-anchor="start" x="1003.5" y="-918.4" font-family="Times Roman,serif" font-size="14.00">created_at :datetime</text>
<text text-anchor="start" x="1003.5" y="-900.4" font-family="Times Roman,serif" font-size="14.00">updated_at :datetime</text>
</g>
<!-- Email -->
<g id="node6" class="node"><title>Email</title>
<polyline fill="none" stroke="black" points="727.5,-891 868.5,-891 "/>
<path fill="none" stroke="black" d="M868.5,-891C874.5,-891 880.5,-897 880.5,-903"/>
<polyline fill="none" stroke="black" points="880.5,-903 880.5,-1021 "/>
<path fill="none" stroke="black" d="M880.5,-1021C880.5,-1027 874.5,-1033 868.5,-1033"/>
<polyline fill="none" stroke="black" points="868.5,-1033 727.5,-1033 "/>
<path fill="none" stroke="black" d="M727.5,-1033C721.5,-1033 715.5,-1027 715.5,-1021"/>
<polyline fill="none" stroke="black" points="715.5,-1021 715.5,-903 "/>
<path fill="none" stroke="black" d="M715.5,-903C715.5,-897 721.5,-891 727.5,-891"/>
<text text-anchor="middle" x="798" y="-1016.4" font-family="Times Roman,serif" font-size="14.00">Email</text>
<polyline fill="none" stroke="black" points="715.5,-1007 880.5,-1007 "/>
<text text-anchor="start" x="723.5" y="-990.4" font-family="Times Roman,serif" font-size="14.00">domain :string</text>
<text text-anchor="start" x="723.5" y="-972.4" font-family="Times Roman,serif" font-size="14.00">name :string</text>
<text text-anchor="start" x="723.5" y="-954.4" font-family="Times Roman,serif" font-size="14.00">remark :text</text>
<text text-anchor="start" x="723.5" y="-936.4" font-family="Times Roman,serif" font-size="14.00">active :boolean</text>
<text text-anchor="start" x="723.5" y="-918.4" font-family="Times Roman,serif" font-size="14.00">created_at :datetime</text>
<text text-anchor="start" x="723.5" y="-900.4" font-family="Times Roman,serif" font-size="14.00">updated_at :datetime</text>
</g>
<!-- ContactType -->
<g id="node7" class="node"><title>ContactType</title>
<polyline fill="none" stroke="black" points="825.5,-1143 966.5,-1143 "/>
<path fill="none" stroke="black" d="M966.5,-1143C972.5,-1143 978.5,-1149 978.5,-1155"/>
<polyline fill="none" stroke="black" points="978.5,-1155 978.5,-1255 "/>
<path fill="none" stroke="black" d="M978.5,-1255C978.5,-1261 972.5,-1267 966.5,-1267"/>
<polyline fill="none" stroke="black" points="966.5,-1267 825.5,-1267 "/>
<path fill="none" stroke="black" d="M825.5,-1267C819.5,-1267 813.5,-1261 813.5,-1255"/>
<polyline fill="none" stroke="black" points="813.5,-1255 813.5,-1155 "/>
<path fill="none" stroke="black" d="M813.5,-1155C813.5,-1149 819.5,-1143 825.5,-1143"/>
<text text-anchor="middle" x="896" y="-1250.4" font-family="Times Roman,serif" font-size="14.00">ContactType</text>
<polyline fill="none" stroke="black" points="813.5,-1241 978.5,-1241 "/>
<text text-anchor="start" x="821.5" y="-1224.4" font-family="Times Roman,serif" font-size="14.00">name :string</text>
<text text-anchor="start" x="821.5" y="-1206.4" font-family="Times Roman,serif" font-size="14.00">remark :text</text>
<text text-anchor="start" x="821.5" y="-1188.4" font-family="Times Roman,serif" font-size="14.00">active :boolean</text>
<text text-anchor="start" x="821.5" y="-1170.4" font-family="Times Roman,serif" font-size="14.00">created_at :datetime</text>
<text text-anchor="start" x="821.5" y="-1152.4" font-family="Times Roman,serif" font-size="14.00">updated_at :datetime</text>
</g>
<!-- ContactType&#45;&gt;Phone -->
<g id="edge4" class="edge"><title>ContactType&#45;&gt;Phone</title>
<path fill="none" stroke="black" d="M945.844,-1136.4C961.48,-1115.06 978.87,-1091.48 995,-1070 1001.99,-1060.69 1009.36,-1050.97 1016.7,-1041.34"/>
<ellipse fill="none" stroke="black" cx="943.414" cy="-1139.73" rx="4.00002" ry="4.00002"/>
<polygon fill="black" stroke="black" points="1016.79,-1041.23 1026.43,-1036.01 1019.82,-1037.26 1022.86,-1033.28 1022.86,-1033.28 1022.86,-1033.28 1019.82,-1037.26 1019.28,-1030.55 1016.79,-1041.23 1016.79,-1041.23"/>
</g>
<!-- ContactType&#45;&gt;Email -->
<g id="edge6" class="edge"><title>ContactType&#45;&gt;Email</title>
<path fill="none" stroke="black" d="M867.834,-1135.16C856.189,-1106.28 842.615,-1072.63 830.547,-1042.7"/>
<ellipse fill="none" stroke="black" cx="869.394" cy="-1139.03" rx="4.00001" ry="4.00001"/>
<polygon fill="black" stroke="black" points="830.426,-1042.4 830.859,-1031.45 828.556,-1037.77 826.686,-1033.13 826.686,-1033.13 826.686,-1033.13 828.556,-1037.77 822.512,-1034.81 830.426,-1042.4 830.426,-1042.4"/>
</g>
<!-- Addre -->
<g id="node21" class="node"><title>Addre</title>
<ellipse fill="none" stroke="black" cx="938" cy="-962" rx="39.8075" ry="18.3848"/>
<text text-anchor="middle" x="938" y="-958.4" font-family="Times Roman,serif" font-size="14.00">Addre</text>
</g>
<!-- ContactType&#45;&gt;Addre -->
<g id="edge2" class="edge"><title>ContactType&#45;&gt;Addre</title>
<path fill="none" stroke="black" d="M895.446,-1134.55C896.271,-1113.63 898.154,-1090.77 902,-1070 907.188,-1041.98 917.95,-1011.27 926.362,-989.783"/>
<ellipse fill="none" stroke="black" cx="895.305" cy="-1138.76" rx="4" ry="4"/>
<polygon fill="black" stroke="black" points="926.435,-989.6 934.329,-981.988 928.293,-984.958 930.151,-980.316 930.151,-980.316 930.151,-980.316 928.293,-984.958 925.973,-978.644 926.435,-989.6 926.435,-989.6"/>
<text text-anchor="middle" x="929.5" y="-1075.4" font-family="Times Roman,serif" font-size="14.00">Address</text>
</g>
<!-- Address::Street -->
<g id="node8" class="node"><title>Address::Street</title>
<polyline fill="none" stroke="black" points="1150,-1 1296,-1 "/>
<path fill="none" stroke="black" d="M1296,-1C1302,-1 1308,-7 1308,-13"/>
<polyline fill="none" stroke="black" points="1308,-13 1308,-167 "/>
<path fill="none" stroke="black" d="M1308,-167C1308,-173 1302,-179 1296,-179"/>
<polyline fill="none" stroke="black" points="1296,-179 1150,-179 "/>
<path fill="none" stroke="black" d="M1150,-179C1144,-179 1138,-173 1138,-167"/>
<polyline fill="none" stroke="black" points="1138,-167 1138,-13 "/>
<path fill="none" stroke="black" d="M1138,-13C1138,-7 1144,-1 1150,-1"/>
<text text-anchor="middle" x="1223" y="-162.4" font-family="Times Roman,serif" font-size="14.00">Address::Street</text>
<polyline fill="none" stroke="black" points="1138,-153 1308,-153 "/>
<text text-anchor="start" x="1146" y="-136.4" font-family="Times Roman,serif" font-size="14.00">phone_number :string</text>
<text text-anchor="start" x="1146" y="-118.4" font-family="Times Roman,serif" font-size="14.00">adress_number :string</text>
<text text-anchor="start" x="1146" y="-100.4" font-family="Times Roman,serif" font-size="14.00">name :string</text>
<text text-anchor="start" x="1146" y="-82.4" font-family="Times Roman,serif" font-size="14.00">remark :string</text>
<text text-anchor="start" x="1146" y="-64.4" font-family="Times Roman,serif" font-size="14.00">active :boolean</text>
<text text-anchor="start" x="1146" y="-46.4" font-family="Times Roman,serif" font-size="14.00">acronym :string</text>
<text text-anchor="start" x="1146" y="-28.4" font-family="Times Roman,serif" font-size="14.00">created_at :datetime</text>
<text text-anchor="start" x="1146" y="-10.4" font-family="Times Roman,serif" font-size="14.00">updated_at :datetime</text>
</g>
<!-- Address::State -->
<g id="node9" class="node"><title>Address::State</title>
<polyline fill="none" stroke="black" points="1285,-655 1431,-655 "/>
<path fill="none" stroke="black" d="M1431,-655C1437,-655 1443,-661 1443,-667"/>
<polyline fill="none" stroke="black" points="1443,-667 1443,-821 "/>
<path fill="none" stroke="black" d="M1443,-821C1443,-827 1437,-833 1431,-833"/>
<polyline fill="none" stroke="black" points="1431,-833 1285,-833 "/>
<path fill="none" stroke="black" d="M1285,-833C1279,-833 1273,-827 1273,-821"/>
<polyline fill="none" stroke="black" points="1273,-821 1273,-667 "/>
<path fill="none" stroke="black" d="M1273,-667C1273,-661 1279,-655 1285,-655"/>
<text text-anchor="middle" x="1358" y="-816.4" font-family="Times Roman,serif" font-size="14.00">Address::State</text>
<polyline fill="none" stroke="black" points="1273,-807 1443,-807 "/>
<text text-anchor="start" x="1281" y="-790.4" font-family="Times Roman,serif" font-size="14.00">phone_number :string</text>
<text text-anchor="start" x="1281" y="-772.4" font-family="Times Roman,serif" font-size="14.00">adress_number :string</text>
<text text-anchor="start" x="1281" y="-754.4" font-family="Times Roman,serif" font-size="14.00">name :string</text>
<text text-anchor="start" x="1281" y="-736.4" font-family="Times Roman,serif" font-size="14.00">remark :string</text>
<text text-anchor="start" x="1281" y="-718.4" font-family="Times Roman,serif" font-size="14.00">active :boolean</text>
<text text-anchor="start" x="1281" y="-700.4" font-family="Times Roman,serif" font-size="14.00">acronym :string</text>
<text text-anchor="start" x="1281" y="-682.4" font-family="Times Roman,serif" font-size="14.00">created_at :datetime</text>
<text text-anchor="start" x="1281" y="-664.4" font-family="Times Roman,serif" font-size="14.00">updated_at :datetime</text>
</g>
<!-- Address::City -->
<g id="node10" class="node"><title>Address::City</title>
<polyline fill="none" stroke="black" points="1285,-437 1431,-437 "/>
<path fill="none" stroke="black" d="M1431,-437C1437,-437 1443,-443 1443,-449"/>
<polyline fill="none" stroke="black" points="1443,-449 1443,-603 "/>
<path fill="none" stroke="black" d="M1443,-603C1443,-609 1437,-615 1431,-615"/>
<polyline fill="none" stroke="black" points="1431,-615 1285,-615 "/>
<path fill="none" stroke="black" d="M1285,-615C1279,-615 1273,-609 1273,-603"/>
<polyline fill="none" stroke="black" points="1273,-603 1273,-449 "/>
<path fill="none" stroke="black" d="M1273,-449C1273,-443 1279,-437 1285,-437"/>
<text text-anchor="middle" x="1358" y="-598.4" font-family="Times Roman,serif" font-size="14.00">Address::City</text>
<polyline fill="none" stroke="black" points="1273,-589 1443,-589 "/>
<text text-anchor="start" x="1281" y="-572.4" font-family="Times Roman,serif" font-size="14.00">phone_number :string</text>
<text text-anchor="start" x="1281" y="-554.4" font-family="Times Roman,serif" font-size="14.00">adress_number :string</text>
<text text-anchor="start" x="1281" y="-536.4" font-family="Times Roman,serif" font-size="14.00">name :string</text>
<text text-anchor="start" x="1281" y="-518.4" font-family="Times Roman,serif" font-size="14.00">remark :string</text>
<text text-anchor="start" x="1281" y="-500.4" font-family="Times Roman,serif" font-size="14.00">active :boolean</text>
<text text-anchor="start" x="1281" y="-482.4" font-family="Times Roman,serif" font-size="14.00">acronym :string</text>
<text text-anchor="start" x="1281" y="-464.4" font-family="Times Roman,serif" font-size="14.00">created_at :datetime</text>
<text text-anchor="start" x="1281" y="-446.4" font-family="Times Roman,serif" font-size="14.00">updated_at :datetime</text>
</g>
<!-- Address::State&#45;&gt;Address::City -->
<g id="edge10" class="edge"><title>Address::State&#45;&gt;Address::City</title>
<path fill="none" stroke="black" d="M1358,-646.398C1358,-639.41 1358,-632.358 1358,-625.36"/>
<ellipse fill="none" stroke="black" cx="1358" cy="-650.702" rx="4" ry="4"/>
<polygon fill="black" stroke="black" points="1358,-625.159 1362.5,-615.159 1358,-620.159 1358,-615.159 1358,-615.159 1358,-615.159 1358,-620.159 1353.5,-615.159 1358,-625.159 1358,-625.159"/>
</g>
<!-- Address::Neighborhood -->
<g id="node13" class="node"><title>Address::Neighborhood</title>
<polyline fill="none" stroke="black" points="1228,-219 1380,-219 "/>
<path fill="none" stroke="black" d="M1380,-219C1386,-219 1392,-225 1392,-231"/>
<polyline fill="none" stroke="black" points="1392,-231 1392,-385 "/>
<path fill="none" stroke="black" d="M1392,-385C1392,-391 1386,-397 1380,-397"/>
<polyline fill="none" stroke="black" points="1380,-397 1228,-397 "/>
<path fill="none" stroke="black" d="M1228,-397C1222,-397 1216,-391 1216,-385"/>
<polyline fill="none" stroke="black" points="1216,-385 1216,-231 "/>
<path fill="none" stroke="black" d="M1216,-231C1216,-225 1222,-219 1228,-219"/>
<text text-anchor="middle" x="1304" y="-380.4" font-family="Times Roman,serif" font-size="14.00">Address::Neighborhood</text>
<polyline fill="none" stroke="black" points="1216,-371 1392,-371 "/>
<text text-anchor="start" x="1224" y="-354.4" font-family="Times Roman,serif" font-size="14.00">phone_number :string</text>
<text text-anchor="start" x="1224" y="-336.4" font-family="Times Roman,serif" font-size="14.00">adress_number :string</text>
<text text-anchor="start" x="1224" y="-318.4" font-family="Times Roman,serif" font-size="14.00">name :string</text>
<text text-anchor="start" x="1224" y="-300.4" font-family="Times Roman,serif" font-size="14.00">remark :string</text>
<text text-anchor="start" x="1224" y="-282.4" font-family="Times Roman,serif" font-size="14.00">active :boolean</text>
<text text-anchor="start" x="1224" y="-264.4" font-family="Times Roman,serif" font-size="14.00">acronym :string</text>
<text text-anchor="start" x="1224" y="-246.4" font-family="Times Roman,serif" font-size="14.00">created_at :datetime</text>
<text text-anchor="start" x="1224" y="-228.4" font-family="Times Roman,serif" font-size="14.00">updated_at :datetime</text>
</g>
<!-- Address::City&#45;&gt;Address::Neighborhood -->
<g id="edge14" class="edge"><title>Address::City&#45;&gt;Address::Neighborhood</title>
<path fill="none" stroke="black" d="M1333.9,-428.707C1332.11,-421.487 1330.31,-414.198 1328.52,-406.969"/>
<ellipse fill="none" stroke="black" cx="1334.92" cy="-432.819" rx="4.00001" ry="4.00001"/>
<polygon fill="black" stroke="black" points="1328.49,-406.866 1330.45,-396.077 1327.29,-402.012 1326.09,-397.159 1326.09,-397.159 1326.09,-397.159 1327.29,-402.012 1321.72,-398.241 1328.49,-406.866 1328.49,-406.866"/>
</g>
<!-- Address::Country -->
<g id="node11" class="node"><title>Address::Country</title>
<polyline fill="none" stroke="black" points="1304,-873 1450,-873 "/>
<path fill="none" stroke="black" d="M1450,-873C1456,-873 1462,-879 1462,-885"/>
<polyline fill="none" stroke="black" points="1462,-885 1462,-1039 "/>
<path fill="none" stroke="black" d="M1462,-1039C1462,-1045 1456,-1051 1450,-1051"/>
<polyline fill="none" stroke="black" points="1450,-1051 1304,-1051 "/>
<path fill="none" stroke="black" d="M1304,-1051C1298,-1051 1292,-1045 1292,-1039"/>
<polyline fill="none" stroke="black" points="1292,-1039 1292,-885 "/>
<path fill="none" stroke="black" d="M1292,-885C1292,-879 1298,-873 1304,-873"/>
<text text-anchor="middle" x="1377" y="-1034.4" font-family="Times Roman,serif" font-size="14.00">Address::Country</text>
<polyline fill="none" stroke="black" points="1292,-1025 1462,-1025 "/>
<text text-anchor="start" x="1300" y="-1008.4" font-family="Times Roman,serif" font-size="14.00">phone_number :string</text>
<text text-anchor="start" x="1300" y="-990.4" font-family="Times Roman,serif" font-size="14.00">adress_number :string</text>
<text text-anchor="start" x="1300" y="-972.4" font-family="Times Roman,serif" font-size="14.00">name :string</text>
<text text-anchor="start" x="1300" y="-954.4" font-family="Times Roman,serif" font-size="14.00">remark :string</text>
<text text-anchor="start" x="1300" y="-936.4" font-family="Times Roman,serif" font-size="14.00">active :boolean</text>
<text text-anchor="start" x="1300" y="-918.4" font-family="Times Roman,serif" font-size="14.00">acronym :string</text>
<text text-anchor="start" x="1300" y="-900.4" font-family="Times Roman,serif" font-size="14.00">created_at :datetime</text>
<text text-anchor="start" x="1300" y="-882.4" font-family="Times Roman,serif" font-size="14.00">updated_at :datetime</text>
</g>
<!-- Address::Country&#45;&gt;Address::State -->
<g id="edge18" class="edge"><title>Address::Country&#45;&gt;Address::State</title>
<path fill="none" stroke="black" d="M1368.52,-864.707C1367.91,-857.651 1367.28,-850.53 1366.67,-843.462"/>
<ellipse fill="none" stroke="black" cx="1368.87" cy="-868.717" rx="4" ry="4"/>
<polygon fill="black" stroke="black" points="1366.64,-843.121 1370.25,-832.768 1366.2,-838.14 1365.77,-833.159 1365.77,-833.159 1365.77,-833.159 1366.2,-838.14 1361.29,-833.55 1366.64,-843.121 1366.64,-843.121"/>
</g>
<!-- Address::Place -->
<g id="node12" class="node"><title>Address::Place</title>
<polyline fill="none" stroke="black" points="1191,-1116 1337,-1116 "/>
<path fill="none" stroke="black" d="M1337,-1116C1343,-1116 1349,-1122 1349,-1128"/>
<polyline fill="none" stroke="black" points="1349,-1128 1349,-1282 "/>
<path fill="none" stroke="black" d="M1349,-1282C1349,-1288 1343,-1294 1337,-1294"/>
<polyline fill="none" stroke="black" points="1337,-1294 1191,-1294 "/>
<path fill="none" stroke="black" d="M1191,-1294C1185,-1294 1179,-1288 1179,-1282"/>
<polyline fill="none" stroke="black" points="1179,-1282 1179,-1128 "/>
<path fill="none" stroke="black" d="M1179,-1128C1179,-1122 1185,-1116 1191,-1116"/>
<text text-anchor="middle" x="1264" y="-1277.4" font-family="Times Roman,serif" font-size="14.00">Address::Place</text>
<polyline fill="none" stroke="black" points="1179,-1268 1349,-1268 "/>
<text text-anchor="start" x="1187" y="-1251.4" font-family="Times Roman,serif" font-size="14.00">phone_number :string</text>
<text text-anchor="start" x="1187" y="-1233.4" font-family="Times Roman,serif" font-size="14.00">adress_number :string</text>
<text text-anchor="start" x="1187" y="-1215.4" font-family="Times Roman,serif" font-size="14.00">name :string</text>
<text text-anchor="start" x="1187" y="-1197.4" font-family="Times Roman,serif" font-size="14.00">remark :string</text>
<text text-anchor="start" x="1187" y="-1179.4" font-family="Times Roman,serif" font-size="14.00">active :boolean</text>
<text text-anchor="start" x="1187" y="-1161.4" font-family="Times Roman,serif" font-size="14.00">acronym :string</text>
<text text-anchor="start" x="1187" y="-1143.4" font-family="Times Roman,serif" font-size="14.00">created_at :datetime</text>
<text text-anchor="start" x="1187" y="-1125.4" font-family="Times Roman,serif" font-size="14.00">updated_at :datetime</text>
</g>
<!-- Address::Place&#45;&gt;Address::Street -->
<g id="edge8" class="edge"><title>Address::Place&#45;&gt;Address::Street</title>
<path fill="none" stroke="black" d="M1222,-1115.9C1204.42,-1070.81 1188,-1014.6 1188,-962 1188,-962 1188,-962 1188,-308 1188,-265.26 1194.64,-218.396 1202.13,-179.108"/>
</g>
<!-- Address::Place&#45;&gt;Address::State -->
<g id="edge12" class="edge"><title>Address::Place&#45;&gt;Address::State</title>
<path fill="none" stroke="black" d="M1257.89,-1115.74C1255.87,-1047.54 1258.83,-951.958 1283,-872 1286.95,-858.933 1292.48,-845.79 1298.76,-833.163"/>
</g>
<!-- Address::Place&#45;&gt;Address::City -->
<g id="edge16" class="edge"><title>Address::Place&#45;&gt;Address::City</title>
<path fill="none" stroke="black" d="M1345.18,-1115.99C1349.41,-1112.48 1353.69,-1109.14 1358,-1106 1403.02,-1073.27 1441.32,-1099.09 1471,-1052 1565.44,-902.195 1514.41,-819.727 1452,-654 1447,-640.712 1440.2,-627.59 1432.54,-615.106"/>
</g>
<!-- Address::Place&#45;&gt;Address::Country -->
<g id="edge20" class="edge"><title>Address::Place&#45;&gt;Address::Country</title>
<path fill="none" stroke="black" d="M1305.44,-1115.9C1315.26,-1094.76 1325.74,-1072.22 1335.57,-1051.09"/>
</g>
<!-- Address::Place&#45;&gt;Address::Neighborhood -->
<g id="edge24" class="edge"><title>Address::Place&#45;&gt;Address::Neighborhood</title>
<path fill="none" stroke="black" d="M1243.28,-1115.79C1234.38,-1070.07 1226,-1013.35 1226,-962 1226,-962 1226,-962 1226,-526 1226,-481.984 1240.27,-435.738 1256.6,-397.223"/>
</g>
<!-- Address::Neighborhood&#45;&gt;Address::Street -->
<g id="edge22" class="edge"><title>Address::Neighborhood&#45;&gt;Address::Street</title>
<path fill="none" stroke="black" d="M1267.96,-211.016C1265.19,-203.562 1262.4,-196.032 1259.62,-188.568"/>
<ellipse fill="none" stroke="black" cx="1269.43" cy="-214.953" rx="4.00001" ry="4.00001"/>
<polygon fill="black" stroke="black" points="1259.61,-188.533 1260.35,-177.592 1257.87,-183.846 1256.13,-179.159 1256.13,-179.159 1256.13,-179.159 1257.87,-183.846 1251.91,-180.726 1259.61,-188.533 1259.61,-188.533"/>
</g>
<!-- Taxe -->
<g id="node14" class="node"><title>Taxe</title>
<polygon fill="none" stroke="black" stroke-dasharray="1,5" points="1421,-1223 1367,-1223 1367,-1187 1421,-1187 1421,-1223"/>
<text text-anchor="middle" x="1394" y="-1201.4" font-family="Times Roman,serif" font-size="14.00">Taxe</text>
</g>
<!-- Financier::Note -->
<g id="node15" class="node"><title>Financier::Note</title>
<polyline fill="none" stroke="black" points="1450.5,-1125 1597.5,-1125 "/>
<path fill="none" stroke="black" d="M1597.5,-1125C1603.5,-1125 1609.5,-1131 1609.5,-1137"/>
<polyline fill="none" stroke="black" points="1609.5,-1137 1609.5,-1273 "/>
<path fill="none" stroke="black" d="M1609.5,-1273C1609.5,-1279 1603.5,-1285 1597.5,-1285"/>
<polyline fill="none" stroke="black" points="1597.5,-1285 1450.5,-1285 "/>
<path fill="none" stroke="black" d="M1450.5,-1285C1444.5,-1285 1438.5,-1279 1438.5,-1273"/>
<polyline fill="none" stroke="black" points="1438.5,-1273 1438.5,-1137 "/>
<path fill="none" stroke="black" d="M1438.5,-1137C1438.5,-1131 1444.5,-1125 1450.5,-1125"/>
<text text-anchor="middle" x="1524" y="-1268.4" font-family="Times Roman,serif" font-size="14.00">Financier::Note</text>
<polyline fill="none" stroke="black" points="1438.5,-1259 1609.5,-1259 "/>
<text text-anchor="start" x="1446.5" y="-1242.4" font-family="Times Roman,serif" font-size="14.00">original_value :integer</text>
<text text-anchor="start" x="1446.5" y="-1224.4" font-family="Times Roman,serif" font-size="14.00">expiration_date :date</text>
<text text-anchor="start" x="1446.5" y="-1206.4" font-family="Times Roman,serif" font-size="14.00">creation_date :date</text>
<text text-anchor="start" x="1446.5" y="-1188.4" font-family="Times Roman,serif" font-size="14.00">name :string</text>
<text text-anchor="start" x="1446.5" y="-1170.4" font-family="Times Roman,serif" font-size="14.00">number :integer</text>
<text text-anchor="start" x="1446.5" y="-1152.4" font-family="Times Roman,serif" font-size="14.00">created_at :datetime</text>
<text text-anchor="start" x="1446.5" y="-1134.4" font-family="Times Roman,serif" font-size="14.00">updated_at :datetime</text>
</g>
<!-- Participant -->
<g id="node16" class="node"><title>Participant</title>
<polyline fill="none" stroke="black" points="1638.5,-1143 1779.5,-1143 "/>
<path fill="none" stroke="black" d="M1779.5,-1143C1785.5,-1143 1791.5,-1149 1791.5,-1155"/>
<polyline fill="none" stroke="black" points="1791.5,-1155 1791.5,-1255 "/>
<path fill="none" stroke="black" d="M1791.5,-1255C1791.5,-1261 1785.5,-1267 1779.5,-1267"/>
<polyline fill="none" stroke="black" points="1779.5,-1267 1638.5,-1267 "/>
<path fill="none" stroke="black" d="M1638.5,-1267C1632.5,-1267 1626.5,-1261 1626.5,-1255"/>
<polyline fill="none" stroke="black" points="1626.5,-1255 1626.5,-1155 "/>
<path fill="none" stroke="black" d="M1626.5,-1155C1626.5,-1149 1632.5,-1143 1638.5,-1143"/>
<text text-anchor="middle" x="1709" y="-1250.4" font-family="Times Roman,serif" font-size="14.00">Participant</text>
<polyline fill="none" stroke="black" points="1626.5,-1241 1791.5,-1241 "/>
<text text-anchor="start" x="1634.5" y="-1224.4" font-family="Times Roman,serif" font-size="14.00">name :string</text>
<text text-anchor="start" x="1634.5" y="-1206.4" font-family="Times Roman,serif" font-size="14.00">remark :text</text>
<text text-anchor="start" x="1634.5" y="-1188.4" font-family="Times Roman,serif" font-size="14.00">active :boolean</text>
<text text-anchor="start" x="1634.5" y="-1170.4" font-family="Times Roman,serif" font-size="14.00">created_at :datetime</text>
<text text-anchor="start" x="1634.5" y="-1152.4" font-family="Times Roman,serif" font-size="14.00">updated_at :datetime</text>
</g>
<!-- Person -->
<g id="node17" class="node"><title>Person</title>
<polyline fill="none" stroke="black" points="1007.5,-1107 1148.5,-1107 "/>
<path fill="none" stroke="black" d="M1148.5,-1107C1154.5,-1107 1160.5,-1113 1160.5,-1119"/>
<polyline fill="none" stroke="black" points="1160.5,-1119 1160.5,-1291 "/>
<path fill="none" stroke="black" d="M1160.5,-1291C1160.5,-1297 1154.5,-1303 1148.5,-1303"/>
<polyline fill="none" stroke="black" points="1148.5,-1303 1007.5,-1303 "/>
<path fill="none" stroke="black" d="M1007.5,-1303C1001.5,-1303 995.5,-1297 995.5,-1291"/>
<polyline fill="none" stroke="black" points="995.5,-1291 995.5,-1119 "/>
<path fill="none" stroke="black" d="M995.5,-1119C995.5,-1113 1001.5,-1107 1007.5,-1107"/>
<text text-anchor="middle" x="1078" y="-1286.4" font-family="Times Roman,serif" font-size="14.00">Person</text>
<polyline fill="none" stroke="black" points="995.5,-1277 1160.5,-1277 "/>
<text text-anchor="start" x="1003.5" y="-1260.4" font-family="Times Roman,serif" font-size="14.00">first_name :string</text>
<text text-anchor="start" x="1003.5" y="-1242.4" font-family="Times Roman,serif" font-size="14.00">last_name :string</text>
<text text-anchor="start" x="1003.5" y="-1224.4" font-family="Times Roman,serif" font-size="14.00">nickname :string</text>
<text text-anchor="start" x="1003.5" y="-1206.4" font-family="Times Roman,serif" font-size="14.00">birthday :date</text>
<text text-anchor="start" x="1003.5" y="-1188.4" font-family="Times Roman,serif" font-size="14.00">code :string</text>
<text text-anchor="start" x="1003.5" y="-1170.4" font-family="Times Roman,serif" font-size="14.00">remark :string</text>
<text text-anchor="start" x="1003.5" y="-1152.4" font-family="Times Roman,serif" font-size="14.00">active :boolean</text>
<text text-anchor="start" x="1003.5" y="-1134.4" font-family="Times Roman,serif" font-size="14.00">created_at :datetime</text>
<text text-anchor="start" x="1003.5" y="-1116.4" font-family="Times Roman,serif" font-size="14.00">updated_at :datetime</text>
</g>
<!-- Person&#45;&gt;Phone -->
<g id="edge28" class="edge"><title>Person&#45;&gt;Phone</title>
<path fill="none" stroke="black" d="M1078,-1098.74C1078,-1080.22 1078,-1061.22 1078,-1043.5"/>
<ellipse fill="none" stroke="black" cx="1078" cy="-1102.86" rx="4" ry="4"/>
<polygon fill="black" stroke="black" points="1078,-1043.23 1082.5,-1033.23 1078,-1038.23 1078,-1033.23 1078,-1033.23 1078,-1033.23 1078,-1038.23 1073.5,-1033.23 1078,-1043.23 1078,-1043.23"/>
</g>
<!-- Person&#45;&gt;Addre -->
<g id="edge26" class="edge"><title>Person&#45;&gt;Addre</title>
<path fill="none" stroke="black" d="M1014.65,-1099.68C1005.28,-1083.76 995.818,-1067.49 987,-1052 975.117,-1031.13 962.14,-1007.24 952.528,-989.324"/>
<ellipse fill="none" stroke="black" cx="1016.92" cy="-1103.52" rx="4.00002" ry="4.00002"/>
<polygon fill="black" stroke="black" points="952.279,-988.858 951.53,-977.918 949.921,-984.45 947.562,-980.041 947.562,-980.041 947.562,-980.041 949.921,-984.45 943.594,-982.163 952.279,-988.858 952.279,-988.858"/>
<text text-anchor="middle" x="1033.5" y="-1075.4" font-family="Times Roman,serif" font-size="14.00">Address</text>
</g>
<!-- Financier -->
<g id="node18" class="node"><title>Financier</title>
<polygon fill="none" stroke="black" stroke-dasharray="1,5" points="1887,-1223 1809,-1223 1809,-1187 1887,-1187 1887,-1223"/>
<text text-anchor="middle" x="1848" y="-1201.4" font-family="Times Roman,serif" font-size="14.00">Financier</text>
</g>
<!-- Address -->
<g id="node19" class="node"><title>Address</title>
<polygon fill="none" stroke="black" stroke-dasharray="1,5" points="1975,-1223 1905,-1223 1905,-1187 1975,-1187 1975,-1223"/>
<text text-anchor="middle" x="1940" y="-1201.4" font-family="Times Roman,serif" font-size="14.00">Address</text>
</g>
</g>
</svg>
