<?xml version="1.0" encoding="UTF-8" standalone="no"?>
<!DOCTYPE svg PUBLIC "-//W3C//DTD SVG 1.1//EN"
 "http://www.w3.org/Graphics/SVG/1.1/DTD/svg11.dtd">
<!-- Generated by graphviz version 2.26.3 (20100126.1600)
 -->
<!-- Title: models_diagram Pages: 1 -->
<svg width="955pt" height="1286pt"
 viewBox="0.00 0.00 955.00 1286.00" xmlns="http://www.w3.org/2000/svg" xmlns:xlink="http://www.w3.org/1999/xlink">
<g id="graph1" class="graph" transform="scale(1 1) rotate(0) translate(4 1282)">
<title>models_diagram</title>
<polygon fill="white" stroke="white" points="-4,5 -4,-1282 952,-1282 952,5 -4,5"/>
<!-- _diagram_info -->
<g id="node1" class="node"><title>_diagram_info</title>
<text text-anchor="start" x="8" y="-1218.8" font-family="Times Roman,serif" font-size="13.00">Models diagram</text>
<text text-anchor="start" x="8" y="-1201.8" font-family="Times Roman,serif" font-size="13.00">Date: Aug 02 2011 &#45; 21:46</text>
<text text-anchor="start" x="8" y="-1184.8" font-family="Times Roman,serif" font-size="13.00">Migration version: 20110802014239</text>
<text text-anchor="start" x="8" y="-1167.8" font-family="Times Roman,serif" font-size="13.00">Generated by RailRoady 1.0.2</text>
<text text-anchor="start" x="8" y="-1150.8" font-family="Times Roman,serif" font-size="13.00">http://railroady.prestonlee.com</text>
</g>
<!-- Street -->
<g id="node2" class="node"><title>Street</title>
<polyline fill="none" stroke="black" points="129,-874 275,-874 "/>
<path fill="none" stroke="black" d="M275,-874C281,-874 287,-880 287,-886"/>
<polyline fill="none" stroke="black" points="287,-886 287,-1040 "/>
<path fill="none" stroke="black" d="M287,-1040C287,-1046 281,-1052 275,-1052"/>
<polyline fill="none" stroke="black" points="275,-1052 129,-1052 "/>
<path fill="none" stroke="black" d="M129,-1052C123,-1052 117,-1046 117,-1040"/>
<polyline fill="none" stroke="black" points="117,-1040 117,-886 "/>
<path fill="none" stroke="black" d="M117,-886C117,-880 123,-874 129,-874"/>
<text text-anchor="middle" x="202" y="-1035.4" font-family="Times Roman,serif" font-size="14.00">Street</text>
<polyline fill="none" stroke="black" points="117,-1026 287,-1026 "/>
<text text-anchor="start" x="125" y="-1009.4" font-family="Times Roman,serif" font-size="14.00">phone_number :string</text>
<text text-anchor="start" x="125" y="-991.4" font-family="Times Roman,serif" font-size="14.00">adress_number :string</text>
<text text-anchor="start" x="125" y="-973.4" font-family="Times Roman,serif" font-size="14.00">name :string</text>
<text text-anchor="start" x="125" y="-955.4" font-family="Times Roman,serif" font-size="14.00">remark :string</text>
<text text-anchor="start" x="125" y="-937.4" font-family="Times Roman,serif" font-size="14.00">active :boolean</text>
<text text-anchor="start" x="125" y="-919.4" font-family="Times Roman,serif" font-size="14.00">acronym :string</text>
<text text-anchor="start" x="125" y="-901.4" font-family="Times Roman,serif" font-size="14.00">created_at :datetime</text>
<text text-anchor="start" x="125" y="-883.4" font-family="Times Roman,serif" font-size="14.00">updated_at :datetime</text>
</g>
<!-- Neighborhood -->
<g id="node12" class="node"><title>Neighborhood</title>
<polyline fill="none" stroke="black" points="129,-649 275,-649 "/>
<path fill="none" stroke="black" d="M275,-649C281,-649 287,-655 287,-661"/>
<polyline fill="none" stroke="black" points="287,-661 287,-815 "/>
<path fill="none" stroke="black" d="M287,-815C287,-821 281,-827 275,-827"/>
<polyline fill="none" stroke="black" points="275,-827 129,-827 "/>
<path fill="none" stroke="black" d="M129,-827C123,-827 117,-821 117,-815"/>
<polyline fill="none" stroke="black" points="117,-815 117,-661 "/>
<path fill="none" stroke="black" d="M117,-661C117,-655 123,-649 129,-649"/>
<text text-anchor="middle" x="202" y="-810.4" font-family="Times Roman,serif" font-size="14.00">Neighborhood</text>
<polyline fill="none" stroke="black" points="117,-801 287,-801 "/>
<text text-anchor="start" x="125" y="-784.4" font-family="Times Roman,serif" font-size="14.00">phone_number :string</text>
<text text-anchor="start" x="125" y="-766.4" font-family="Times Roman,serif" font-size="14.00">adress_number :string</text>
<text text-anchor="start" x="125" y="-748.4" font-family="Times Roman,serif" font-size="14.00">name :string</text>
<text text-anchor="start" x="125" y="-730.4" font-family="Times Roman,serif" font-size="14.00">remark :string</text>
<text text-anchor="start" x="125" y="-712.4" font-family="Times Roman,serif" font-size="14.00">active :boolean</text>
<text text-anchor="start" x="125" y="-694.4" font-family="Times Roman,serif" font-size="14.00">acronym :string</text>
<text text-anchor="start" x="125" y="-676.4" font-family="Times Roman,serif" font-size="14.00">created_at :datetime</text>
<text text-anchor="start" x="125" y="-658.4" font-family="Times Roman,serif" font-size="14.00">updated_at :datetime</text>
</g>
<!-- Street&#45;&gt;Neighborhood -->
<g id="edge2" class="edge"><title>Street&#45;&gt;Neighborhood</title>
<path fill="none" stroke="black" d="M195.303,-865.432C195.231,-855.39 195.232,-845.187 195.306,-835.149"/>
<ellipse fill="none" stroke="black" cx="195.343" cy="-869.751" rx="4" ry="4"/>
<ellipse fill="black" stroke="black" cx="195.344" cy="-831.141" rx="4" ry="4"/>
</g>
<!-- State -->
<g id="node3" class="node"><title>State</title>
<polyline fill="none" stroke="black" points="224,-217 370,-217 "/>
<path fill="none" stroke="black" d="M370,-217C376,-217 382,-223 382,-229"/>
<polyline fill="none" stroke="black" points="382,-229 382,-383 "/>
<path fill="none" stroke="black" d="M382,-383C382,-389 376,-395 370,-395"/>
<polyline fill="none" stroke="black" points="370,-395 224,-395 "/>
<path fill="none" stroke="black" d="M224,-395C218,-395 212,-389 212,-383"/>
<polyline fill="none" stroke="black" points="212,-383 212,-229 "/>
<path fill="none" stroke="black" d="M212,-229C212,-223 218,-217 224,-217"/>
<text text-anchor="middle" x="297" y="-378.4" font-family="Times Roman,serif" font-size="14.00">State</text>
<polyline fill="none" stroke="black" points="212,-369 382,-369 "/>
<text text-anchor="start" x="220" y="-352.4" font-family="Times Roman,serif" font-size="14.00">phone_number :string</text>
<text text-anchor="start" x="220" y="-334.4" font-family="Times Roman,serif" font-size="14.00">adress_number :string</text>
<text text-anchor="start" x="220" y="-316.4" font-family="Times Roman,serif" font-size="14.00">name :string</text>
<text text-anchor="start" x="220" y="-298.4" font-family="Times Roman,serif" font-size="14.00">remark :string</text>
<text text-anchor="start" x="220" y="-280.4" font-family="Times Roman,serif" font-size="14.00">active :boolean</text>
<text text-anchor="start" x="220" y="-262.4" font-family="Times Roman,serif" font-size="14.00">acronym :string</text>
<text text-anchor="start" x="220" y="-244.4" font-family="Times Roman,serif" font-size="14.00">created_at :datetime</text>
<text text-anchor="start" x="220" y="-226.4" font-family="Times Roman,serif" font-size="14.00">updated_at :datetime</text>
</g>
<!-- City -->
<g id="node5" class="node"><title>City</title>
<polyline fill="none" stroke="black" points="167,-433 313,-433 "/>
<path fill="none" stroke="black" d="M313,-433C319,-433 325,-439 325,-445"/>
<polyline fill="none" stroke="black" points="325,-445 325,-599 "/>
<path fill="none" stroke="black" d="M325,-599C325,-605 319,-611 313,-611"/>
<polyline fill="none" stroke="black" points="313,-611 167,-611 "/>
<path fill="none" stroke="black" d="M167,-611C161,-611 155,-605 155,-599"/>
<polyline fill="none" stroke="black" points="155,-599 155,-445 "/>
<path fill="none" stroke="black" d="M155,-445C155,-439 161,-433 167,-433"/>
<text text-anchor="middle" x="240" y="-594.4" font-family="Times Roman,serif" font-size="14.00">City</text>
<polyline fill="none" stroke="black" points="155,-585 325,-585 "/>
<text text-anchor="start" x="163" y="-568.4" font-family="Times Roman,serif" font-size="14.00">phone_number :string</text>
<text text-anchor="start" x="163" y="-550.4" font-family="Times Roman,serif" font-size="14.00">adress_number :string</text>
<text text-anchor="start" x="163" y="-532.4" font-family="Times Roman,serif" font-size="14.00">name :string</text>
<text text-anchor="start" x="163" y="-514.4" font-family="Times Roman,serif" font-size="14.00">remark :string</text>
<text text-anchor="start" x="163" y="-496.4" font-family="Times Roman,serif" font-size="14.00">active :boolean</text>
<text text-anchor="start" x="163" y="-478.4" font-family="Times Roman,serif" font-size="14.00">acronym :string</text>
<text text-anchor="start" x="163" y="-460.4" font-family="Times Roman,serif" font-size="14.00">created_at :datetime</text>
<text text-anchor="start" x="163" y="-442.4" font-family="Times Roman,serif" font-size="14.00">updated_at :datetime</text>
</g>
<!-- State&#45;&gt;City -->
<g id="edge6" class="edge"><title>State&#45;&gt;City</title>
<path fill="none" stroke="black" d="M278.103,-403.073C276.374,-409.768 274.595,-416.519 272.794,-423.223"/>
<ellipse fill="none" stroke="black" cx="279.115" cy="-399.121" rx="4.00001" ry="4.00001"/>
<polygon fill="black" stroke="black" points="272.788,-423.246 265.827,-431.72 271.479,-428.072 270.17,-432.897 270.17,-432.897 270.17,-432.897 271.479,-428.072 274.514,-434.075 272.788,-423.246 272.788,-423.246"/>
</g>
<!-- Country -->
<g id="node7" class="node"><title>Country</title>
<polyline fill="none" stroke="black" points="224,-1 370,-1 "/>
<path fill="none" stroke="black" d="M370,-1C376,-1 382,-7 382,-13"/>
<polyline fill="none" stroke="black" points="382,-13 382,-167 "/>
<path fill="none" stroke="black" d="M382,-167C382,-173 376,-179 370,-179"/>
<polyline fill="none" stroke="black" points="370,-179 224,-179 "/>
<path fill="none" stroke="black" d="M224,-179C218,-179 212,-173 212,-167"/>
<polyline fill="none" stroke="black" points="212,-167 212,-13 "/>
<path fill="none" stroke="black" d="M212,-13C212,-7 218,-1 224,-1"/>
<text text-anchor="middle" x="297" y="-162.4" font-family="Times Roman,serif" font-size="14.00">Country</text>
<polyline fill="none" stroke="black" points="212,-153 382,-153 "/>
<text text-anchor="start" x="220" y="-136.4" font-family="Times Roman,serif" font-size="14.00">phone_number :string</text>
<text text-anchor="start" x="220" y="-118.4" font-family="Times Roman,serif" font-size="14.00">adress_number :string</text>
<text text-anchor="start" x="220" y="-100.4" font-family="Times Roman,serif" font-size="14.00">name :string</text>
<text text-anchor="start" x="220" y="-82.4" font-family="Times Roman,serif" font-size="14.00">remark :string</text>
<text text-anchor="start" x="220" y="-64.4" font-family="Times Roman,serif" font-size="14.00">active :boolean</text>
<text text-anchor="start" x="220" y="-46.4" font-family="Times Roman,serif" font-size="14.00">acronym :string</text>
<text text-anchor="start" x="220" y="-28.4" font-family="Times Roman,serif" font-size="14.00">created_at :datetime</text>
<text text-anchor="start" x="220" y="-10.4" font-family="Times Roman,serif" font-size="14.00">updated_at :datetime</text>
</g>
<!-- State&#45;&gt;Country -->
<g id="edge8" class="edge"><title>State&#45;&gt;Country</title>
<path fill="none" stroke="black" d="M290.28,-208.695C290.241,-201.646 290.24,-194.537 290.279,-187.487"/>
<ellipse fill="none" stroke="black" cx="290.312" cy="-212.898" rx="4" ry="4"/>
<ellipse fill="black" stroke="black" cx="290.311" cy="-183.246" rx="4" ry="4"/>
</g>
<!-- PersonType -->
<g id="node4" class="node"><title>PersonType</title>
<polyline fill="none" stroke="black" points="612.5,-1126 753.5,-1126 "/>
<path fill="none" stroke="black" d="M753.5,-1126C759.5,-1126 765.5,-1132 765.5,-1138"/>
<polyline fill="none" stroke="black" points="765.5,-1138 765.5,-1238 "/>
<path fill="none" stroke="black" d="M765.5,-1238C765.5,-1244 759.5,-1250 753.5,-1250"/>
<polyline fill="none" stroke="black" points="753.5,-1250 612.5,-1250 "/>
<path fill="none" stroke="black" d="M612.5,-1250C606.5,-1250 600.5,-1244 600.5,-1238"/>
<polyline fill="none" stroke="black" points="600.5,-1238 600.5,-1138 "/>
<path fill="none" stroke="black" d="M600.5,-1138C600.5,-1132 606.5,-1126 612.5,-1126"/>
<text text-anchor="middle" x="683" y="-1233.4" font-family="Times Roman,serif" font-size="14.00">PersonType</text>
<polyline fill="none" stroke="black" points="600.5,-1224 765.5,-1224 "/>
<text text-anchor="start" x="608.5" y="-1207.4" font-family="Times Roman,serif" font-size="14.00">name :string</text>
<text text-anchor="start" x="608.5" y="-1189.4" font-family="Times Roman,serif" font-size="14.00">active :boolean</text>
<text text-anchor="start" x="608.5" y="-1171.4" font-family="Times Roman,serif" font-size="14.00">remark :text</text>
<text text-anchor="start" x="608.5" y="-1153.4" font-family="Times Roman,serif" font-size="14.00">created_at :datetime</text>
<text text-anchor="start" x="608.5" y="-1135.4" font-family="Times Roman,serif" font-size="14.00">updated_at :datetime</text>
</g>
<!-- Person -->
<g id="node11" class="node"><title>Person</title>
<polyline fill="none" stroke="black" points="612.5,-865 753.5,-865 "/>
<path fill="none" stroke="black" d="M753.5,-865C759.5,-865 765.5,-871 765.5,-877"/>
<polyline fill="none" stroke="black" points="765.5,-877 765.5,-1049 "/>
<path fill="none" stroke="black" d="M765.5,-1049C765.5,-1055 759.5,-1061 753.5,-1061"/>
<polyline fill="none" stroke="black" points="753.5,-1061 612.5,-1061 "/>
<path fill="none" stroke="black" d="M612.5,-1061C606.5,-1061 600.5,-1055 600.5,-1049"/>
<polyline fill="none" stroke="black" points="600.5,-1049 600.5,-877 "/>
<path fill="none" stroke="black" d="M600.5,-877C600.5,-871 606.5,-865 612.5,-865"/>
<text text-anchor="middle" x="683" y="-1044.4" font-family="Times Roman,serif" font-size="14.00">Person</text>
<polyline fill="none" stroke="black" points="600.5,-1035 765.5,-1035 "/>
<text text-anchor="start" x="608.5" y="-1018.4" font-family="Times Roman,serif" font-size="14.00">first_name :string</text>
<text text-anchor="start" x="608.5" y="-1000.4" font-family="Times Roman,serif" font-size="14.00">last_name :string</text>
<text text-anchor="start" x="608.5" y="-982.4" font-family="Times Roman,serif" font-size="14.00">nickname :string</text>
<text text-anchor="start" x="608.5" y="-964.4" font-family="Times Roman,serif" font-size="14.00">birthday :date</text>
<text text-anchor="start" x="608.5" y="-946.4" font-family="Times Roman,serif" font-size="14.00">code :string</text>
<text text-anchor="start" x="608.5" y="-928.4" font-family="Times Roman,serif" font-size="14.00">remark :string</text>
<text text-anchor="start" x="608.5" y="-910.4" font-family="Times Roman,serif" font-size="14.00">active :boolean</text>
<text text-anchor="start" x="608.5" y="-892.4" font-family="Times Roman,serif" font-size="14.00">created_at :datetime</text>
<text text-anchor="start" x="608.5" y="-874.4" font-family="Times Roman,serif" font-size="14.00">updated_at :datetime</text>
</g>
<!-- PersonType&#45;&gt;Person -->
<g id="edge12" class="edge"><title>PersonType&#45;&gt;Person</title>
<path fill="none" stroke="black" d="M683,-1117.81C683,-1103.09 683,-1087.25 683,-1071.51"/>
<ellipse fill="none" stroke="black" cx="683" cy="-1121.92" rx="4" ry="4"/>
<polygon fill="black" stroke="black" points="683,-1071.19 687.5,-1061.19 683,-1066.19 683,-1061.19 683,-1061.19 683,-1061.19 683,-1066.19 678.5,-1061.19 683,-1071.19 683,-1071.19"/>
</g>
<!-- City&#45;&gt;State -->
<g id="edge16" class="edge"><title>City&#45;&gt;State</title>
<path fill="none" stroke="black" d="M258.881,-424.989C260.759,-417.717 262.695,-410.378 264.656,-403.105"/>
<ellipse fill="none" stroke="black" cx="257.848" cy="-429.023" rx="4.00001" ry="4.00001"/>
<ellipse fill="black" stroke="black" cx="265.742" cy="-399.107" rx="4.00001" ry="4.00001"/>
</g>
<!-- City&#45;&gt;Neighborhood -->
<g id="edge14" class="edge"><title>City&#45;&gt;Neighborhood</title>
<path fill="none" stroke="black" d="M229.582,-619.423C228.477,-625.905 227.33,-632.438 226.159,-638.929"/>
<ellipse fill="none" stroke="black" cx="230.294" cy="-615.191" rx="4.00001" ry="4.00001"/>
<polygon fill="black" stroke="black" points="226.134,-639.061 219.906,-648.087 225.234,-643.979 224.333,-648.897 224.333,-648.897 224.333,-648.897 225.234,-643.979 228.759,-649.708 226.134,-639.061 226.134,-639.061"/>
</g>
<!-- Email -->
<g id="node6" class="node"><title>Email</title>
<polyline fill="none" stroke="black" points="794.5,-892 935.5,-892 "/>
<path fill="none" stroke="black" d="M935.5,-892C941.5,-892 947.5,-898 947.5,-904"/>
<polyline fill="none" stroke="black" points="947.5,-904 947.5,-1022 "/>
<path fill="none" stroke="black" d="M947.5,-1022C947.5,-1028 941.5,-1034 935.5,-1034"/>
<polyline fill="none" stroke="black" points="935.5,-1034 794.5,-1034 "/>
<path fill="none" stroke="black" d="M794.5,-1034C788.5,-1034 782.5,-1028 782.5,-1022"/>
<polyline fill="none" stroke="black" points="782.5,-1022 782.5,-904 "/>
<path fill="none" stroke="black" d="M782.5,-904C782.5,-898 788.5,-892 794.5,-892"/>
<text text-anchor="middle" x="865" y="-1017.4" font-family="Times Roman,serif" font-size="14.00">Email</text>
<polyline fill="none" stroke="black" points="782.5,-1008 947.5,-1008 "/>
<text text-anchor="start" x="790.5" y="-991.4" font-family="Times Roman,serif" font-size="14.00">domain :string</text>
<text text-anchor="start" x="790.5" y="-973.4" font-family="Times Roman,serif" font-size="14.00">name :string</text>
<text text-anchor="start" x="790.5" y="-955.4" font-family="Times Roman,serif" font-size="14.00">active :boolean</text>
<text text-anchor="start" x="790.5" y="-937.4" font-family="Times Roman,serif" font-size="14.00">remark :text</text>
<text text-anchor="start" x="790.5" y="-919.4" font-family="Times Roman,serif" font-size="14.00">created_at :datetime</text>
<text text-anchor="start" x="790.5" y="-901.4" font-family="Times Roman,serif" font-size="14.00">updated_at :datetime</text>
</g>
<!-- Country&#45;&gt;State -->
<g id="edge20" class="edge"><title>Country&#45;&gt;State</title>
<path fill="none" stroke="black" d="M303.721,-187.335C303.756,-193.748 303.759,-200.212 303.731,-206.634"/>
<ellipse fill="none" stroke="black" cx="303.689" cy="-183.246" rx="4" ry="4"/>
<polygon fill="black" stroke="black" points="303.729,-206.898 299.157,-216.865 303.693,-211.898 303.657,-216.897 303.657,-216.897 303.657,-216.897 303.693,-211.898 308.157,-216.93 303.729,-206.898 303.729,-206.898"/>
</g>
<!-- Place -->
<g id="node8" class="node"><title>Place</title>
<polyline fill="none" stroke="black" points="280,-1099 426,-1099 "/>
<path fill="none" stroke="black" d="M426,-1099C432,-1099 438,-1105 438,-1111"/>
<polyline fill="none" stroke="black" points="438,-1111 438,-1265 "/>
<path fill="none" stroke="black" d="M438,-1265C438,-1271 432,-1277 426,-1277"/>
<polyline fill="none" stroke="black" points="426,-1277 280,-1277 "/>
<path fill="none" stroke="black" d="M280,-1277C274,-1277 268,-1271 268,-1265"/>
<polyline fill="none" stroke="black" points="268,-1265 268,-1111 "/>
<path fill="none" stroke="black" d="M268,-1111C268,-1105 274,-1099 280,-1099"/>
<text text-anchor="middle" x="353" y="-1260.4" font-family="Times Roman,serif" font-size="14.00">Place</text>
<polyline fill="none" stroke="black" points="268,-1251 438,-1251 "/>
<text text-anchor="start" x="276" y="-1234.4" font-family="Times Roman,serif" font-size="14.00">phone_number :string</text>
<text text-anchor="start" x="276" y="-1216.4" font-family="Times Roman,serif" font-size="14.00">adress_number :string</text>
<text text-anchor="start" x="276" y="-1198.4" font-family="Times Roman,serif" font-size="14.00">name :string</text>
<text text-anchor="start" x="276" y="-1180.4" font-family="Times Roman,serif" font-size="14.00">remark :string</text>
<text text-anchor="start" x="276" y="-1162.4" font-family="Times Roman,serif" font-size="14.00">active :boolean</text>
<text text-anchor="start" x="276" y="-1144.4" font-family="Times Roman,serif" font-size="14.00">acronym :string</text>
<text text-anchor="start" x="276" y="-1126.4" font-family="Times Roman,serif" font-size="14.00">created_at :datetime</text>
<text text-anchor="start" x="276" y="-1108.4" font-family="Times Roman,serif" font-size="14.00">updated_at :datetime</text>
</g>
<!-- Place&#45;&gt;Street -->
<g id="edge4" class="edge"><title>Place&#45;&gt;Street</title>
<path fill="none" stroke="black" d="M293.104,-1098.75C282.811,-1083.41 272.114,-1067.47 261.824,-1052.14"/>
</g>
<!-- Place&#45;&gt;State -->
<g id="edge10" class="edge"><title>Place&#45;&gt;State</title>
<path fill="none" stroke="black" d="M358.208,-1098.87C364.844,-956.8 371.384,-670.666 334,-432 332.112,-419.95 329.398,-407.433 326.284,-395.171"/>
</g>
<!-- Place&#45;&gt;City -->
<g id="edge18" class="edge"><title>Place&#45;&gt;City</title>
<path fill="none" stroke="black" d="M343.016,-1098.87C341.653,-1086.49 340.282,-1073.93 339,-1062 319.23,-878.07 343.711,-826.731 296,-648 292.759,-635.858 288.492,-623.396 283.756,-611.258"/>
</g>
<!-- Place&#45;&gt;Country -->
<g id="edge22" class="edge"><title>Place&#45;&gt;Country</title>
<path fill="none" stroke="black" d="M438.224,-1156.73C480.583,-1136.5 528.132,-1105.68 554,-1062 590.754,-999.944 573,-810.124 573,-738 573,-738 573,-738 573,-522 573,-378.265 463.157,-243.954 382.061,-164.381"/>
</g>
<!-- PlaceType -->
<g id="node9" class="node"><title>PlaceType</title>
<polyline fill="none" stroke="black" points="392.5,-901 533.5,-901 "/>
<path fill="none" stroke="black" d="M533.5,-901C539.5,-901 545.5,-907 545.5,-913"/>
<polyline fill="none" stroke="black" points="545.5,-913 545.5,-1013 "/>
<path fill="none" stroke="black" d="M545.5,-1013C545.5,-1019 539.5,-1025 533.5,-1025"/>
<polyline fill="none" stroke="black" points="533.5,-1025 392.5,-1025 "/>
<path fill="none" stroke="black" d="M392.5,-1025C386.5,-1025 380.5,-1019 380.5,-1013"/>
<polyline fill="none" stroke="black" points="380.5,-1013 380.5,-913 "/>
<path fill="none" stroke="black" d="M380.5,-913C380.5,-907 386.5,-901 392.5,-901"/>
<text text-anchor="middle" x="463" y="-1008.4" font-family="Times Roman,serif" font-size="14.00">PlaceType</text>
<polyline fill="none" stroke="black" points="380.5,-999 545.5,-999 "/>
<text text-anchor="start" x="388.5" y="-982.4" font-family="Times Roman,serif" font-size="14.00">name :string</text>
<text text-anchor="start" x="388.5" y="-964.4" font-family="Times Roman,serif" font-size="14.00">active :boolean</text>
<text text-anchor="start" x="388.5" y="-946.4" font-family="Times Roman,serif" font-size="14.00">remark :text</text>
<text text-anchor="start" x="388.5" y="-928.4" font-family="Times Roman,serif" font-size="14.00">created_at :datetime</text>
<text text-anchor="start" x="388.5" y="-910.4" font-family="Times Roman,serif" font-size="14.00">updated_at :datetime</text>
</g>
<!-- Place&#45;&gt;PlaceType -->
<g id="edge24" class="edge"><title>Place&#45;&gt;PlaceType</title>
<path fill="none" stroke="black" d="M393.496,-1091.49C403.047,-1071.64 413.216,-1051.11 422.76,-1032.44"/>
<ellipse fill="none" stroke="black" cx="391.742" cy="-1095.14" rx="4.00002" ry="4.00002"/>
<ellipse fill="black" stroke="black" cx="424.696" cy="-1028.67" rx="4.00002" ry="4.00002"/>
</g>
<!-- Place&#45;&gt;Neighborhood -->
<g id="edge34" class="edge"><title>Place&#45;&gt;Neighborhood</title>
<path fill="none" stroke="black" d="M267.843,-1103.2C264.926,-1101.36 261.976,-1099.62 259,-1098 198.416,-1064.99 150.755,-1116.15 108,-1062 53.4652,-992.935 80.2782,-947.519 108,-864 112.213,-851.308 118.257,-838.858 125.276,-827.023"/>
</g>
<!-- PlaceType&#45;&gt;Place -->
<g id="edge26" class="edge"><title>PlaceType&#45;&gt;Place</title>
<path fill="none" stroke="black" d="M435.204,-1032.73C426.787,-1050.77 417.261,-1070.53 407.744,-1089.73"/>
<ellipse fill="none" stroke="black" cx="437.056" cy="-1028.74" rx="4.00002" ry="4.00002"/>
<polygon fill="black" stroke="black" points="407.71,-1089.8 399.225,-1096.75 405.482,-1094.28 403.253,-1098.75 403.253,-1098.75 403.253,-1098.75 405.482,-1094.28 407.281,-1100.76 407.71,-1089.8 407.71,-1089.8"/>
</g>
<!-- EmailType -->
<g id="node10" class="node"><title>EmailType</title>
<polyline fill="none" stroke="black" points="794.5,-1126 935.5,-1126 "/>
<path fill="none" stroke="black" d="M935.5,-1126C941.5,-1126 947.5,-1132 947.5,-1138"/>
<polyline fill="none" stroke="black" points="947.5,-1138 947.5,-1238 "/>
<path fill="none" stroke="black" d="M947.5,-1238C947.5,-1244 941.5,-1250 935.5,-1250"/>
<polyline fill="none" stroke="black" points="935.5,-1250 794.5,-1250 "/>
<path fill="none" stroke="black" d="M794.5,-1250C788.5,-1250 782.5,-1244 782.5,-1238"/>
<polyline fill="none" stroke="black" points="782.5,-1238 782.5,-1138 "/>
<path fill="none" stroke="black" d="M782.5,-1138C782.5,-1132 788.5,-1126 794.5,-1126"/>
<text text-anchor="middle" x="865" y="-1233.4" font-family="Times Roman,serif" font-size="14.00">EmailType</text>
<polyline fill="none" stroke="black" points="782.5,-1224 947.5,-1224 "/>
<text text-anchor="start" x="790.5" y="-1207.4" font-family="Times Roman,serif" font-size="14.00">name :string</text>
<text text-anchor="start" x="790.5" y="-1189.4" font-family="Times Roman,serif" font-size="14.00">active :boolean</text>
<text text-anchor="start" x="790.5" y="-1171.4" font-family="Times Roman,serif" font-size="14.00">remark :text</text>
<text text-anchor="start" x="790.5" y="-1153.4" font-family="Times Roman,serif" font-size="14.00">created_at :datetime</text>
<text text-anchor="start" x="790.5" y="-1135.4" font-family="Times Roman,serif" font-size="14.00">updated_at :datetime</text>
</g>
<!-- EmailType&#45;&gt;Email -->
<g id="edge28" class="edge"><title>EmailType&#45;&gt;Email</title>
<path fill="none" stroke="black" d="M865,-1117.78C865,-1094.45 865,-1068.28 865,-1044.19"/>
<ellipse fill="none" stroke="black" cx="865" cy="-1121.92" rx="4" ry="4"/>
<polygon fill="black" stroke="black" points="865,-1044.01 869.5,-1034.01 865,-1039.01 865,-1034.01 865,-1034.01 865,-1034.01 865,-1039.01 860.5,-1034.01 865,-1044.01 865,-1044.01"/>
</g>
<!-- Neighborhood&#45;&gt;Street -->
<g id="edge32" class="edge"><title>Neighborhood&#45;&gt;Street</title>
<path fill="none" stroke="black" d="M208.695,-835.334C208.763,-844.706 208.768,-854.221 208.709,-863.612"/>
<ellipse fill="none" stroke="black" cx="208.656" cy="-831.141" rx="4" ry="4"/>
<polygon fill="black" stroke="black" points="208.708,-863.751 204.12,-873.711 208.664,-868.751 208.62,-873.751 208.62,-873.751 208.62,-873.751 208.664,-868.751 213.12,-873.79 208.708,-863.751 208.708,-863.751"/>
</g>
<!-- Neighborhood&#45;&gt;City -->
<g id="edge30" class="edge"><title>Neighborhood&#45;&gt;City</title>
<path fill="none" stroke="black" d="M212.348,-640.989C213.56,-633.872 214.822,-626.69 216.113,-619.57"/>
<ellipse fill="none" stroke="black" cx="211.681" cy="-644.953" rx="4.00001" ry="4.00001"/>
<ellipse fill="black" stroke="black" cx="216.918" cy="-615.181" rx="4.00001" ry="4.00001"/>
</g>
</g>
</svg>
