<?xml version="1.0" encoding="UTF-8" standalone="no"?>
<!DOCTYPE svg PUBLIC "-//W3C//DTD SVG 1.1//EN"
 "http://www.w3.org/Graphics/SVG/1.1/DTD/svg11.dtd">
<!-- Generated by graphviz version 2.26.3 (20100126.1600)
 -->
<!-- Title: models_diagram Pages: 1 -->
<svg width="2443pt" height="562pt"
 viewBox="0.00 0.00 2443.00 562.00" xmlns="http://www.w3.org/2000/svg" xmlns:xlink="http://www.w3.org/1999/xlink">
<g id="graph1" class="graph" transform="scale(1 1) rotate(0) translate(4 558)">
<title>models_diagram</title>
<polygon fill="white" stroke="white" points="-4,5 -4,-558 2440,-558 2440,5 -4,5"/>
<!-- _diagram_info -->
<g id="node1" class="node"><title>_diagram_info</title>
<text text-anchor="start" x="8" y="-537.8" font-family="Times Roman,serif" font-size="13.00">Models diagram</text>
<text text-anchor="start" x="8" y="-520.8" font-family="Times Roman,serif" font-size="13.00">Date: Aug 14 2011 &#45; 22:54</text>
<text text-anchor="start" x="8" y="-503.8" font-family="Times Roman,serif" font-size="13.00">Migration version: 20110815014628</text>
<text text-anchor="start" x="8" y="-486.8" font-family="Times Roman,serif" font-size="13.00">Generated by RailRoady 1.0.2</text>
<text text-anchor="start" x="8" y="-469.8" font-family="Times Roman,serif" font-size="13.00">http://railroady.prestonlee.com</text>
</g>
<!-- Taxe::Group -->
<g id="node2" class="node"><title>Taxe::Group</title>
<ellipse fill="none" stroke="black" cx="338" cy="-507" rx="70.0036" ry="18.3848"/>
<text text-anchor="middle" x="338" y="-503.4" font-family="Times Roman,serif" font-size="14.00">Taxe::Group</text>
</g>
<!-- Taxe::Type -->
<g id="node4" class="node"><title>Taxe::Type</title>
<ellipse fill="none" stroke="black" cx="338" cy="-387" rx="62.2254" ry="18.3848"/>
<text text-anchor="middle" x="338" y="-383.4" font-family="Times Roman,serif" font-size="14.00">Taxe::Type</text>
</g>
<!-- Taxe::Group&#45;&gt;Taxe::Type -->
<g id="edge2" class="edge"><title>Taxe::Group&#45;&gt;Taxe::Type</title>
<path fill="none" stroke="black" d="M338,-480.053C338,-460.923 338,-435.278 338,-415.755"/>
<ellipse fill="none" stroke="black" cx="338" cy="-484.25" rx="4" ry="4"/>
<polygon fill="black" stroke="black" points="338,-415.618 342.5,-405.618 338,-410.618 338,-405.618 338,-405.618 338,-405.618 338,-410.618 333.5,-405.618 338,-415.618 338,-415.618"/>
</g>
<!-- Taxe::Value -->
<g id="node3" class="node"><title>Taxe::Value</title>
<ellipse fill="none" stroke="black" cx="416" cy="-295" rx="67.1751" ry="18.3848"/>
<text text-anchor="middle" x="416" y="-291.4" font-family="Times Roman,serif" font-size="14.00">Taxe::Value</text>
</g>
<!-- Taxe::Type&#45;&gt;Taxe::Value -->
<g id="edge4" class="edge"><title>Taxe::Type&#45;&gt;Taxe::Value</title>
<path fill="none" stroke="black" d="M358.805,-362.461C369.695,-349.616 383.026,-333.892 394.078,-320.857"/>
<ellipse fill="none" stroke="black" cx="355.997" cy="-365.773" rx="4.00002" ry="4.00002"/>
<polygon fill="black" stroke="black" points="394.155,-320.766 404.054,-316.049 397.388,-316.952 400.622,-313.138 400.622,-313.138 400.622,-313.138 397.388,-316.952 397.189,-310.228 394.155,-320.766 394.155,-320.766"/>
</g>
<!-- Email -->
<g id="node5" class="node"><title>Email</title>
<polygon fill="none" stroke="black" stroke-dasharray="1,5" points="1605,-525 1551,-525 1551,-489 1605,-489 1605,-525"/>
<text text-anchor="middle" x="1578" y="-503.4" font-family="Times Roman,serif" font-size="14.00">Email</text>
</g>
<!-- Transaction::Sender -->
<g id="node6" class="node"><title>Transaction::Sender</title>
<ellipse fill="none" stroke="black" cx="958" cy="-387" rx="108.187" ry="18.3848"/>
<text text-anchor="middle" x="958" y="-383.4" font-family="Times Roman,serif" font-size="14.00">Transaction::Sender</text>
</g>
<!-- Participant::Person -->
<g id="node25" class="node"><title>Participant::Person</title>
<ellipse fill="none" stroke="black" cx="958" cy="-295" rx="103.238" ry="18.3848"/>
<text text-anchor="middle" x="958" y="-291.4" font-family="Times Roman,serif" font-size="14.00">Participant::Person</text>
</g>
<!-- Transaction::Sender&#45;&gt;Participant::Person -->
<g id="edge6" class="edge"><title>Transaction::Sender&#45;&gt;Participant::Person</title>
<path fill="none" stroke="black" d="M958,-360.029C958,-348.016 958,-333.902 958,-321.898"/>
<ellipse fill="none" stroke="black" cx="958" cy="-364.382" rx="4" ry="4"/>
<ellipse fill="black" stroke="black" cx="958" cy="-317.59" rx="4" ry="4"/>
<text text-anchor="middle" x="981.5" y="-337.4" font-family="Times Roman,serif" font-size="14.00">Person</text>
</g>
<!-- Transaction::Issuer -->
<g id="node7" class="node"><title>Transaction::Issuer</title>
<ellipse fill="none" stroke="black" cx="729" cy="-387" rx="103.238" ry="18.3848"/>
<text text-anchor="middle" x="729" y="-383.4" font-family="Times Roman,serif" font-size="14.00">Transaction::Issuer</text>
</g>
<!-- Transaction::Issuer&#45;&gt;Participant::Person -->
<g id="edge10" class="edge"><title>Transaction::Issuer&#45;&gt;Participant::Person</title>
<path fill="none" stroke="black" d="M778.701,-367.033C817.015,-351.64 869.759,-330.45 908.119,-315.04"/>
<ellipse fill="none" stroke="black" cx="774.981" cy="-368.527" rx="4.00002" ry="4.00002"/>
<ellipse fill="black" stroke="black" cx="911.878" cy="-313.529" rx="4.00001" ry="4.00001"/>
<text text-anchor="middle" x="888.5" y="-337.4" font-family="Times Roman,serif" font-size="14.00">Person</text>
</g>
<!-- Transaction::Delivery -->
<g id="node8" class="node"><title>Transaction::Delivery</title>
<ellipse fill="none" stroke="black" cx="1198" cy="-387" rx="114.051" ry="18.3848"/>
<text text-anchor="middle" x="1198" y="-383.4" font-family="Times Roman,serif" font-size="14.00">Transaction::Delivery</text>
</g>
<!-- Transaction::Delivery&#45;&gt;Participant::Person -->
<g id="edge14" class="edge"><title>Transaction::Delivery&#45;&gt;Participant::Person</title>
<path fill="none" stroke="black" d="M1145.87,-367.016C1105.46,-351.528 1049.77,-330.177 1009.52,-314.748"/>
<ellipse fill="none" stroke="black" cx="1149.69" cy="-368.479" rx="4.00001" ry="4.00001"/>
<ellipse fill="black" stroke="black" cx="1005.67" cy="-313.274" rx="4.00001" ry="4.00001"/>
<text text-anchor="middle" x="1123.5" y="-337.4" font-family="Times Roman,serif" font-size="14.00">Person</text>
</g>
<!-- Transaction::Record -->
<g id="node9" class="node"><title>Transaction::Record</title>
<ellipse fill="none" stroke="black" cx="1144" cy="-507" rx="106.773" ry="18.3848"/>
<text text-anchor="middle" x="1144" y="-503.4" font-family="Times Roman,serif" font-size="14.00">Transaction::Record</text>
</g>
<!-- Transaction::Record&#45;&gt;Transaction::Sender -->
<g id="edge18" class="edge"><title>Transaction::Record&#45;&gt;Transaction::Sender</title>
<path fill="none" stroke="black" d="M1109.28,-484.6C1075.94,-463.09 1025.86,-430.78 992.569,-409.303"/>
<ellipse fill="none" stroke="black" cx="1112.79" cy="-486.866" rx="4.00002" ry="4.00002"/>
<ellipse fill="black" stroke="black" cx="989.093" cy="-407.06" rx="4.00002" ry="4.00002"/>
<text text-anchor="middle" x="1064.5" y="-429.4" font-family="Times Roman,serif" font-size="14.00">Sender</text>
</g>
<!-- Transaction::Record&#45;&gt;Transaction::Issuer -->
<g id="edge24" class="edge"><title>Transaction::Record&#45;&gt;Transaction::Issuer</title>
<path fill="none" stroke="black" d="M1097.79,-486.474C1076.76,-477.603 1051.39,-467.549 1028,-460 953.662,-436.006 866.724,-415.611 805.817,-402.528"/>
<ellipse fill="none" stroke="black" cx="1101.65" cy="-488.116" rx="4.00002" ry="4.00002"/>
<ellipse fill="black" stroke="black" cx="801.686" cy="-401.646" rx="4.00001" ry="4.00001"/>
<text text-anchor="middle" x="985" y="-429.4" font-family="Times Roman,serif" font-size="14.00">Issuer</text>
</g>
<!-- Transaction::Record&#45;&gt;Transaction::Delivery -->
<g id="edge20" class="edge"><title>Transaction::Record&#45;&gt;Transaction::Delivery</title>
<path fill="none" stroke="black" d="M1155.73,-480.925C1164.79,-460.807 1177.25,-433.108 1186.3,-413.006"/>
<ellipse fill="none" stroke="black" cx="1153.96" cy="-484.865" rx="4.00002" ry="4.00002"/>
<ellipse fill="black" stroke="black" cx="1187.94" cy="-409.353" rx="4.00002" ry="4.00002"/>
<text text-anchor="middle" x="1210" y="-429.4" font-family="Times Roman,serif" font-size="14.00">Delivery</text>
</g>
<!-- Transaction::Taxe -->
<g id="node10" class="node"><title>Transaction::Taxe</title>
<ellipse fill="none" stroke="black" cx="513" cy="-387" rx="94.9596" ry="18.3848"/>
<text text-anchor="middle" x="513" y="-383.4" font-family="Times Roman,serif" font-size="14.00">Transaction::Taxe</text>
</g>
<!-- Transaction::Record&#45;&gt;Transaction::Taxe -->
<g id="edge22" class="edge"><title>Transaction::Record&#45;&gt;Transaction::Taxe</title>
<path fill="none" stroke="black" d="M1100.67,-486.191C1079.26,-476.757 1052.77,-466.322 1028,-460 960.375,-442.738 941.226,-450.879 872,-442 758.473,-427.439 729.987,-424.289 617,-406 608.731,-404.661 600.104,-403.196 591.511,-401.692"/>
<ellipse fill="none" stroke="black" cx="1104.37" cy="-487.845" rx="4.00002" ry="4.00002"/>
<polygon fill="black" stroke="black" points="591.308,-401.656 582.246,-395.483 586.385,-400.785 581.461,-399.914 581.461,-399.914 581.461,-399.914 586.385,-400.785 580.677,-404.345 591.308,-401.656 591.308,-401.656"/>
<text text-anchor="middle" x="887.5" y="-429.4" font-family="Times Roman,serif" font-size="14.00">Taxe</text>
</g>
<!-- Transaction::Financier -->
<g id="node12" class="node"><title>Transaction::Financier</title>
<ellipse fill="none" stroke="black" cx="1448" cy="-387" rx="118.087" ry="18.3848"/>
<text text-anchor="middle" x="1448" y="-383.4" font-family="Times Roman,serif" font-size="14.00">Transaction::Financier</text>
</g>
<!-- Transaction::Record&#45;&gt;Transaction::Financier -->
<g id="edge26" class="edge"><title>Transaction::Record&#45;&gt;Transaction::Financier</title>
<path fill="none" stroke="black" d="M1194.91,-486.905C1250.38,-465.009 1338.71,-430.142 1394.99,-407.925"/>
<ellipse fill="none" stroke="black" cx="1190.95" cy="-488.466" rx="4.00001" ry="4.00001"/>
<polygon fill="black" stroke="black" points="1395.12,-407.873 1406.08,-408.387 1399.77,-406.037 1404.42,-404.201 1404.42,-404.201 1404.42,-404.201 1399.77,-406.037 1402.77,-400.015 1395.12,-407.873 1395.12,-407.873"/>
<text text-anchor="middle" x="1381.5" y="-429.4" font-family="Times Roman,serif" font-size="14.00">Financier</text>
</g>
<!-- Transaction::Taxe&#45;&gt;Taxe::Value -->
<g id="edge28" class="edge"><title>Transaction::Taxe&#45;&gt;Taxe::Value</title>
<path fill="none" stroke="black" d="M487.96,-363.251C473.437,-349.477 455.218,-332.196 440.746,-318.47"/>
<ellipse fill="none" stroke="black" cx="490.934" cy="-366.071" rx="4.00002" ry="4.00002"/>
<ellipse fill="black" stroke="black" cx="437.696" cy="-315.578" rx="4.00002" ry="4.00002"/>
<text text-anchor="middle" x="493.5" y="-337.4" font-family="Times Roman,serif" font-size="14.00">Value</text>
</g>
<!-- Transaction::Participant -->
<g id="node11" class="node"><title>Transaction::Participant</title>
<ellipse fill="none" stroke="black" cx="893" cy="-507" rx="126.072" ry="18.3848"/>
<text text-anchor="middle" x="893" y="-503.4" font-family="Times Roman,serif" font-size="14.00">Transaction::Participant</text>
</g>
<!-- Transaction::Participant&#45;&gt;Transaction::Sender -->
<g id="edge8" class="edge"><title>Transaction::Participant&#45;&gt;Transaction::Sender</title>
<path fill="none" stroke="black" d="M896.676,-488.464C900.732,-470.908 908.411,-444.287 921,-424 925.119,-417.362 930.647,-411.008 936.171,-405.497"/>
</g>
<!-- Transaction::Participant&#45;&gt;Transaction::Issuer -->
<g id="edge12" class="edge"><title>Transaction::Participant&#45;&gt;Transaction::Issuer</title>
<path fill="none" stroke="black" d="M868.092,-488.775C837.088,-466.089 784.467,-427.586 753.605,-405.004"/>
</g>
<!-- Transaction::Participant&#45;&gt;Transaction::Delivery -->
<g id="edge16" class="edge"><title>Transaction::Participant&#45;&gt;Transaction::Delivery</title>
<path fill="none" stroke="black" d="M920.16,-488.845C949.201,-470.171 997.148,-441.425 1042,-424 1067.17,-414.222 1095.66,-406.542 1121.34,-400.774"/>
</g>
<!-- Address::Street -->
<g id="node13" class="node"><title>Address::Street</title>
<ellipse fill="none" stroke="black" cx="1781" cy="-19" rx="86.9741" ry="18.3848"/>
<text text-anchor="middle" x="1781" y="-15.4" font-family="Times Roman,serif" font-size="14.00">Address::Street</text>
</g>
<!-- Address::State -->
<g id="node14" class="node"><title>Address::State</title>
<ellipse fill="none" stroke="black" cx="1811" cy="-295" rx="82.2301" ry="18.3848"/>
<text text-anchor="middle" x="1811" y="-291.4" font-family="Times Roman,serif" font-size="14.00">Address::State</text>
</g>
<!-- Address::City -->
<g id="node15" class="node"><title>Address::City</title>
<ellipse fill="none" stroke="black" cx="1811" cy="-203" rx="75.1594" ry="18.3848"/>
<text text-anchor="middle" x="1811" y="-199.4" font-family="Times Roman,serif" font-size="14.00">Address::City</text>
</g>
<!-- Address::State&#45;&gt;Address::City -->
<g id="edge32" class="edge"><title>Address::State&#45;&gt;Address::City</title>
<path fill="none" stroke="black" d="M1811,-268.029C1811,-256.599 1811,-243.267 1811,-231.66"/>
<ellipse fill="none" stroke="black" cx="1811" cy="-272.382" rx="4" ry="4"/>
<polygon fill="black" stroke="black" points="1811,-231.59 1815.5,-221.59 1811,-226.59 1811,-221.59 1811,-221.59 1811,-221.59 1811,-226.59 1806.5,-221.59 1811,-231.59 1811,-231.59"/>
</g>
<!-- Address::Neighborhood -->
<g id="node18" class="node"><title>Address::Neighborhood</title>
<ellipse fill="none" stroke="black" cx="1781" cy="-111" rx="123.951" ry="18.3848"/>
<text text-anchor="middle" x="1781" y="-107.4" font-family="Times Roman,serif" font-size="14.00">Address::Neighborhood</text>
</g>
<!-- Address::City&#45;&gt;Address::Neighborhood -->
<g id="edge36" class="edge"><title>Address::City&#45;&gt;Address::Neighborhood</title>
<path fill="none" stroke="black" d="M1802.34,-176.447C1798.56,-164.84 1794.11,-151.21 1790.26,-139.401"/>
<ellipse fill="none" stroke="black" cx="1803.69" cy="-180.58" rx="4.00001" ry="4.00001"/>
<polygon fill="black" stroke="black" points="1790.16,-139.097 1791.34,-128.195 1788.61,-134.344 1787.06,-129.59 1787.06,-129.59 1787.06,-129.59 1788.61,-134.344 1782.78,-130.985 1790.16,-139.097 1790.16,-139.097"/>
</g>
<!-- Address::Country -->
<g id="node16" class="node"><title>Address::Country</title>
<ellipse fill="none" stroke="black" cx="1829" cy="-387" rx="96.1665" ry="18.3848"/>
<text text-anchor="middle" x="1829" y="-383.4" font-family="Times Roman,serif" font-size="14.00">Address::Country</text>
</g>
<!-- Address::Country&#45;&gt;Address::State -->
<g id="edge40" class="edge"><title>Address::Country&#45;&gt;Address::State</title>
<path fill="none" stroke="black" d="M1823.8,-360.447C1821.56,-348.958 1818.92,-335.485 1816.63,-323.76"/>
<ellipse fill="none" stroke="black" cx="1824.59" cy="-364.457" rx="4.00001" ry="4.00001"/>
<polygon fill="black" stroke="black" points="1816.56,-323.404 1819.05,-312.726 1815.6,-318.497 1814.64,-313.59 1814.64,-313.59 1814.64,-313.59 1815.6,-318.497 1810.22,-314.454 1816.56,-323.404 1816.56,-323.404"/>
</g>
<!-- Address::Place -->
<g id="node17" class="node"><title>Address::Place</title>
<ellipse fill="none" stroke="black" cx="1705" cy="-507" rx="82.0244" ry="18.3848"/>
<text text-anchor="middle" x="1705" y="-503.4" font-family="Times Roman,serif" font-size="14.00">Address::Place</text>
</g>
<!-- Address::Place&#45;&gt;Address::Street -->
<g id="edge30" class="edge"><title>Address::Place&#45;&gt;Address::Street</title>
<path fill="none" stroke="black" d="M1684.23,-488.896C1661.73,-467.162 1629,-428.429 1629,-387 1629,-387 1629,-387 1629,-111 1629,-67.3527 1675.44,-43.8487 1716.98,-31.5552"/>
</g>
<!-- Address::Place&#45;&gt;Address::State -->
<g id="edge34" class="edge"><title>Address::Place&#45;&gt;Address::State</title>
<path fill="none" stroke="black" d="M1703.45,-488.138C1702.02,-460.101 1702.7,-406.598 1724,-368 1737.05,-344.35 1761.05,-325.106 1780.54,-312.326"/>
</g>
<!-- Address::Place&#45;&gt;Address::City -->
<g id="edge38" class="edge"><title>Address::Place&#45;&gt;Address::City</title>
<path fill="none" stroke="black" d="M1736.19,-489.871C1753.58,-480.582 1775.75,-469.162 1796,-460 1856.01,-432.852 1896.87,-460.399 1934,-406 1957.09,-372.176 1912.96,-291.526 1902,-276 1885.65,-252.836 1859.96,-233.175 1840.05,-220.114"/>
</g>
<!-- Address::Place&#45;&gt;Address::Country -->
<g id="edge42" class="edge"><title>Address::Place&#45;&gt;Address::Country</title>
<path fill="none" stroke="black" d="M1723.83,-488.775C1747.14,-466.22 1786.6,-428.03 1809.99,-405.397"/>
</g>
<!-- Address::Place&#45;&gt;Address::Neighborhood -->
<g id="edge46" class="edge"><title>Address::Place&#45;&gt;Address::Neighborhood</title>
<path fill="none" stroke="black" d="M1695.21,-488.456C1683.95,-465.357 1667,-424.369 1667,-387 1667,-387 1667,-387 1667,-203 1667,-167.013 1701.83,-142.701 1732.98,-128.152"/>
</g>
<!-- Address::Neighborhood&#45;&gt;Address::Street -->
<g id="edge44" class="edge"><title>Address::Neighborhood&#45;&gt;Address::Street</title>
<path fill="none" stroke="black" d="M1781,-84.029C1781,-72.5994 1781,-59.2671 1781,-47.6601"/>
<ellipse fill="none" stroke="black" cx="1781" cy="-88.3824" rx="4" ry="4"/>
<polygon fill="black" stroke="black" points="1781,-47.5899 1785.5,-37.5898 1781,-42.5899 1781,-37.5899 1781,-37.5899 1781,-37.5899 1781,-42.5899 1776.5,-37.5899 1781,-47.5899 1781,-47.5899"/>
</g>
<!-- Taxe -->
<g id="node19" class="node"><title>Taxe</title>
<polygon fill="none" stroke="black" stroke-dasharray="1,5" points="1859,-525 1805,-525 1805,-489 1859,-489 1859,-525"/>
<text text-anchor="middle" x="1832" y="-503.4" font-family="Times Roman,serif" font-size="14.00">Taxe</text>
</g>
<!-- Financier::Note -->
<g id="node20" class="node"><title>Financier::Note</title>
<ellipse fill="none" stroke="black" cx="1448" cy="-507" rx="85.0596" ry="18.3848"/>
<text text-anchor="middle" x="1448" y="-503.4" font-family="Times Roman,serif" font-size="14.00">Financier::Note</text>
</g>
<!-- Financier::Note&#45;&gt;Transaction::Financier -->
<g id="edge48" class="edge"><title>Financier::Note&#45;&gt;Transaction::Financier</title>
<path fill="none" stroke="black" d="M1448,-480.053C1448,-460.303 1448,-433.609 1448,-413.876"/>
<ellipse fill="none" stroke="black" cx="1448" cy="-484.25" rx="4" ry="4"/>
<ellipse fill="black" stroke="black" cx="1448" cy="-409.618" rx="4" ry="4"/>
<text text-anchor="middle" x="1479.5" y="-429.4" font-family="Times Roman,serif" font-size="14.00">Financier</text>
</g>
<!-- Participant -->
<g id="node21" class="node"><title>Participant</title>
<polygon fill="none" stroke="black" stroke-dasharray="1,5" points="1967,-525 1877,-525 1877,-489 1967,-489 1967,-525"/>
<text text-anchor="middle" x="1922" y="-503.4" font-family="Times Roman,serif" font-size="14.00">Participant</text>
</g>
<!-- Financier -->
<g id="node22" class="node"><title>Financier</title>
<polygon fill="none" stroke="black" stroke-dasharray="1,5" points="2063,-525 1985,-525 1985,-489 2063,-489 2063,-525"/>
<text text-anchor="middle" x="2024" y="-503.4" font-family="Times Roman,serif" font-size="14.00">Financier</text>
</g>
<!-- Transaction -->
<g id="node23" class="node"><title>Transaction</title>
<polygon fill="none" stroke="black" stroke-dasharray="1,5" points="2175,-525 2081,-525 2081,-489 2175,-489 2175,-525"/>
<text text-anchor="middle" x="2128" y="-503.4" font-family="Times Roman,serif" font-size="14.00">Transaction</text>
</g>
<!-- Participant::Contact -->
<g id="node24" class="node"><title>Participant::Contact</title>
<polygon fill="none" stroke="black" stroke-dasharray="1,5" points="2347,-525 2193,-525 2193,-489 2347,-489 2347,-525"/>
<text text-anchor="middle" x="2270" y="-503.4" font-family="Times Roman,serif" font-size="14.00">Participant::Contact</text>
</g>
<!-- Participant::Contact::Email -->
<g id="node26" class="node"><title>Participant::Contact::Email</title>
<ellipse fill="none" stroke="black" cx="1313" cy="-203" rx="140.922" ry="18.3848"/>
<text text-anchor="middle" x="1313" y="-199.4" font-family="Times Roman,serif" font-size="14.00">Participant::Contact::Email</text>
</g>
<!-- Participant::Person&#45;&gt;Participant::Contact::Email -->
<g id="edge52" class="edge"><title>Participant::Person&#45;&gt;Participant::Contact::Email</title>
<path fill="none" stroke="black" d="M991.18,-272.559C1009.76,-261.041 1033.81,-247.822 1057,-240 1071.09,-235.249 1139.09,-225.513 1201.47,-217.221"/>
<ellipse fill="none" stroke="black" cx="987.464" cy="-274.904" rx="4.00002" ry="4.00002"/>
<polygon fill="black" stroke="black" points="1201.51,-217.216 1212.01,-220.365 1206.47,-216.56 1211.42,-215.904 1211.42,-215.904 1211.42,-215.904 1206.47,-216.56 1210.83,-211.443 1201.51,-217.216 1201.51,-217.216"/>
<text text-anchor="middle" x="1076" y="-245.4" font-family="Times Roman,serif" font-size="14.00">Email</text>
</g>
<!-- Participant::Contact::Addres -->
<g id="node57" class="node"><title>Participant::Contact::Addres</title>
<ellipse fill="none" stroke="black" cx="824" cy="-203" rx="147.992" ry="18.3848"/>
<text text-anchor="middle" x="824" y="-199.4" font-family="Times Roman,serif" font-size="14.00">Participant::Contact::Addres</text>
</g>
<!-- Participant::Person&#45;&gt;Participant::Contact::Addres -->
<g id="edge50" class="edge"><title>Participant::Person&#45;&gt;Participant::Contact::Addres</title>
<path fill="none" stroke="black" d="M924.98,-272.33C904.922,-258.558 879.337,-240.993 858.94,-226.988"/>
<ellipse fill="none" stroke="black" cx="928.548" cy="-274.779" rx="4.00002" ry="4.00002"/>
<polygon fill="black" stroke="black" points="858.791,-226.886 853.094,-217.516 854.669,-224.056 850.547,-221.226 850.547,-221.226 850.547,-221.226 854.669,-224.056 848,-224.936 858.791,-226.886 858.791,-226.886"/>
<text text-anchor="middle" x="931.5" y="-245.4" font-family="Times Roman,serif" font-size="14.00">Address</text>
</g>
<!-- Email::User -->
<g id="node30" class="node"><title>Email::User</title>
<ellipse fill="none" stroke="black" cx="1192" cy="-111" rx="67.1751" ry="18.3848"/>
<text text-anchor="middle" x="1192" y="-107.4" font-family="Times Roman,serif" font-size="14.00">Email::User</text>
</g>
<!-- Participant::Contact::Email&#45;&gt;Email::User -->
<g id="edge54" class="edge"><title>Participant::Contact::Email&#45;&gt;Email::User</title>
<path fill="none" stroke="black" d="M1282.24,-179.613C1263.57,-165.42 1239.88,-147.404 1221.45,-133.395"/>
<ellipse fill="none" stroke="black" cx="1285.62" cy="-182.183" rx="4.00002" ry="4.00002"/>
<ellipse fill="black" stroke="black" cx="1218.11" cy="-130.851" rx="4.00002" ry="4.00002"/>
<text text-anchor="middle" x="1280" y="-153.4" font-family="Times Roman,serif" font-size="14.00">User</text>
</g>
<!-- Participant::Contact::Type -->
<g id="node27" class="node"><title>Participant::Contact::Type</title>
<ellipse fill="none" stroke="black" cx="1255" cy="-295" rx="137.179" ry="18.3848"/>
<text text-anchor="middle" x="1255" y="-291.4" font-family="Times Roman,serif" font-size="14.00">Participant::Contact::Type</text>
</g>
<!-- Participant::Contact::Type&#45;&gt;Participant::Contact::Email -->
<g id="edge58" class="edge"><title>Participant::Contact::Type&#45;&gt;Participant::Contact::Email</title>
<path fill="none" stroke="black" d="M1271.22,-269.277C1278.9,-257.083 1288.09,-242.513 1295.89,-230.143"/>
<ellipse fill="none" stroke="black" cx="1268.87" cy="-272.999" rx="4.00002" ry="4.00002"/>
<polygon fill="black" stroke="black" points="1295.95,-230.049 1305.09,-223.99 1298.61,-225.82 1301.28,-221.59 1301.28,-221.59 1301.28,-221.59 1298.61,-225.82 1297.47,-219.19 1295.95,-230.049 1295.95,-230.049"/>
<text text-anchor="middle" x="1309" y="-245.4" font-family="Times Roman,serif" font-size="14.00">Email</text>
</g>
<!-- Participant::Contact::Type&#45;&gt;Participant::Contact::Addres -->
<g id="edge56" class="edge"><title>Participant::Contact::Type&#45;&gt;Participant::Contact::Addres</title>
<path fill="none" stroke="black" d="M1203.53,-274.434C1172.53,-262.774 1132.01,-248.799 1095,-240 1079.43,-236.298 1005.09,-226.232 938.201,-217.533"/>
<ellipse fill="none" stroke="black" cx="1207.46" cy="-275.925" rx="4.00001" ry="4.00001"/>
<polygon fill="black" stroke="black" points="937.885,-217.492 928.547,-211.742 932.927,-216.849 927.968,-216.205 927.968,-216.205 927.968,-216.205 932.927,-216.849 927.389,-220.668 937.885,-217.492 937.885,-217.492"/>
<text text-anchor="middle" x="1181.5" y="-245.4" font-family="Times Roman,serif" font-size="14.00">Address</text>
</g>
<!-- Participant::Contact::Address -->
<g id="node28" class="node"><title>Participant::Contact::Address</title>
<ellipse fill="none" stroke="black" cx="2076" cy="-111" rx="152.942" ry="18.3848"/>
<text text-anchor="middle" x="2076" y="-107.4" font-family="Times Roman,serif" font-size="14.00">Participant::Contact::Address</text>
</g>
<!-- Participant::Contact::Address&#45;&gt;Address::Street -->
<g id="edge60" class="edge"><title>Participant::Contact::Address&#45;&gt;Address::Street</title>
<path fill="none" stroke="black" d="M2012.63,-91.2386C1960.83,-75.0841 1888.24,-52.4428 1838.19,-36.8348"/>
<ellipse fill="none" stroke="black" cx="2016.69" cy="-92.5046" rx="4.00001" ry="4.00001"/>
<ellipse fill="black" stroke="black" cx="1834.17" cy="-35.5832" rx="4.00001" ry="4.00001"/>
<text text-anchor="middle" x="1976" y="-61.4" font-family="Times Roman,serif" font-size="14.00">Street</text>
</g>
<!-- Email::Domain -->
<g id="node29" class="node"><title>Email::Domain</title>
<ellipse fill="none" stroke="black" cx="1072" cy="-203" rx="82.0244" ry="18.3848"/>
<text text-anchor="middle" x="1072" y="-199.4" font-family="Times Roman,serif" font-size="14.00">Email::Domain</text>
</g>
<!-- Email::Domain&#45;&gt;Email::User -->
<g id="edge62" class="edge"><title>Email::Domain&#45;&gt;Email::User</title>
<path fill="none" stroke="black" d="M1101.92,-180.06C1119.94,-166.244 1142.84,-148.686 1161.05,-134.731"/>
<ellipse fill="none" stroke="black" cx="1098.6" cy="-182.609" rx="4.00002" ry="4.00002"/>
<polygon fill="black" stroke="black" points="1161.11,-134.683 1171.78,-132.17 1165.08,-131.641 1169.04,-128.599 1169.04,-128.599 1169.04,-128.599 1165.08,-131.641 1166.31,-125.028 1161.11,-134.683 1161.11,-134.683"/>
<text text-anchor="middle" x="1159" y="-153.4" font-family="Times Roman,serif" font-size="14.00">User</text>
</g>
<!-- Address -->
<g id="node31" class="node"><title>Address</title>
<polygon fill="none" stroke="black" stroke-dasharray="1,5" points="2435,-525 2365,-525 2365,-489 2435,-489 2435,-525"/>
<text text-anchor="middle" x="2400" y="-503.4" font-family="Times Roman,serif" font-size="14.00">Address</text>
</g>
</g>
</svg>
