<?xml version="1.0" encoding="UTF-8" standalone="no"?>
<!DOCTYPE svg PUBLIC "-//W3C//DTD SVG 1.1//EN"
 "http://www.w3.org/Graphics/SVG/1.1/DTD/svg11.dtd">
<!-- Generated by graphviz version 2.26.3 (20100126.1600)
 -->
<!-- Title: models_diagram Pages: 1 -->
<svg width="2065pt" height="1376pt"
 viewBox="0.00 0.00 2065.00 1376.00" xmlns="http://www.w3.org/2000/svg" xmlns:xlink="http://www.w3.org/1999/xlink">
<g id="graph1" class="graph" transform="scale(1 1) rotate(0) translate(4 1372)">
<title>models_diagram</title>
<polygon fill="white" stroke="white" points="-4,5 -4,-1372 2062,-1372 2062,5 -4,5"/>
<!-- _diagram_info -->
<g id="node1" class="node"><title>_diagram_info</title>
<text text-anchor="start" x="8" y="-1308.8" font-family="Times Roman,serif" font-size="13.00">Models diagram</text>
<text text-anchor="start" x="8" y="-1291.8" font-family="Times Roman,serif" font-size="13.00">Date: Aug 12 2011 &#45; 23:38</text>
<text text-anchor="start" x="8" y="-1274.8" font-family="Times Roman,serif" font-size="13.00">Migration version: 20110813022628</text>
<text text-anchor="start" x="8" y="-1257.8" font-family="Times Roman,serif" font-size="13.00">Generated by RailRoady 1.0.2</text>
<text text-anchor="start" x="8" y="-1240.8" font-family="Times Roman,serif" font-size="13.00">http://railroady.prestonlee.com</text>
</g>
<!-- Taxe::Group -->
<g id="node2" class="node"><title>Taxe::Group</title>
<polyline fill="none" stroke="black" points="279.5,-1216 420.5,-1216 "/>
<path fill="none" stroke="black" d="M420.5,-1216C426.5,-1216 432.5,-1222 432.5,-1228"/>
<polyline fill="none" stroke="black" points="432.5,-1228 432.5,-1328 "/>
<path fill="none" stroke="black" d="M432.5,-1328C432.5,-1334 426.5,-1340 420.5,-1340"/>
<polyline fill="none" stroke="black" points="420.5,-1340 279.5,-1340 "/>
<path fill="none" stroke="black" d="M279.5,-1340C273.5,-1340 267.5,-1334 267.5,-1328"/>
<polyline fill="none" stroke="black" points="267.5,-1328 267.5,-1228 "/>
<path fill="none" stroke="black" d="M267.5,-1228C267.5,-1222 273.5,-1216 279.5,-1216"/>
<text text-anchor="middle" x="350" y="-1323.4" font-family="Times Roman,serif" font-size="14.00">Taxe::Group</text>
<polyline fill="none" stroke="black" points="267.5,-1314 432.5,-1314 "/>
<text text-anchor="start" x="275.5" y="-1297.4" font-family="Times Roman,serif" font-size="14.00">name :string</text>
<text text-anchor="start" x="275.5" y="-1279.4" font-family="Times Roman,serif" font-size="14.00">remark :text</text>
<text text-anchor="start" x="275.5" y="-1261.4" font-family="Times Roman,serif" font-size="14.00">active :boolean</text>
<text text-anchor="start" x="275.5" y="-1243.4" font-family="Times Roman,serif" font-size="14.00">created_at :datetime</text>
<text text-anchor="start" x="275.5" y="-1225.4" font-family="Times Roman,serif" font-size="14.00">updated_at :datetime</text>
</g>
<!-- Taxe::Type -->
<g id="node4" class="node"><title>Taxe::Type</title>
<polyline fill="none" stroke="black" points="279.5,-973 420.5,-973 "/>
<path fill="none" stroke="black" d="M420.5,-973C426.5,-973 432.5,-979 432.5,-985"/>
<polyline fill="none" stroke="black" points="432.5,-985 432.5,-1103 "/>
<path fill="none" stroke="black" d="M432.5,-1103C432.5,-1109 426.5,-1115 420.5,-1115"/>
<polyline fill="none" stroke="black" points="420.5,-1115 279.5,-1115 "/>
<path fill="none" stroke="black" d="M279.5,-1115C273.5,-1115 267.5,-1109 267.5,-1103"/>
<polyline fill="none" stroke="black" points="267.5,-1103 267.5,-985 "/>
<path fill="none" stroke="black" d="M267.5,-985C267.5,-979 273.5,-973 279.5,-973"/>
<text text-anchor="middle" x="350" y="-1098.4" font-family="Times Roman,serif" font-size="14.00">Taxe::Type</text>
<polyline fill="none" stroke="black" points="267.5,-1089 432.5,-1089 "/>
<text text-anchor="start" x="275.5" y="-1072.4" font-family="Times Roman,serif" font-size="14.00">name :string</text>
<text text-anchor="start" x="275.5" y="-1054.4" font-family="Times Roman,serif" font-size="14.00">remark :text</text>
<text text-anchor="start" x="275.5" y="-1036.4" font-family="Times Roman,serif" font-size="14.00">active :boolean</text>
<text text-anchor="start" x="275.5" y="-1018.4" font-family="Times Roman,serif" font-size="14.00">code :string</text>
<text text-anchor="start" x="275.5" y="-1000.4" font-family="Times Roman,serif" font-size="14.00">created_at :datetime</text>
<text text-anchor="start" x="275.5" y="-982.4" font-family="Times Roman,serif" font-size="14.00">updated_at :datetime</text>
</g>
<!-- Taxe::Group&#45;&gt;Taxe::Type -->
<g id="edge2" class="edge"><title>Taxe::Group&#45;&gt;Taxe::Type</title>
<path fill="none" stroke="black" d="M350,-1207.77C350,-1181.79 350,-1152.12 350,-1125.24"/>
<ellipse fill="none" stroke="black" cx="350" cy="-1211.91" rx="4" ry="4"/>
<polygon fill="black" stroke="black" points="350,-1125.08 354.5,-1115.08 350,-1120.08 350,-1115.08 350,-1115.08 350,-1115.08 350,-1120.08 345.5,-1115.08 350,-1125.08 350,-1125.08"/>
</g>
<!-- Taxe::Value -->
<g id="node3" class="node"><title>Taxe::Value</title>
<polyline fill="none" stroke="black" points="279.5,-739 420.5,-739 "/>
<path fill="none" stroke="black" d="M420.5,-739C426.5,-739 432.5,-745 432.5,-751"/>
<polyline fill="none" stroke="black" points="432.5,-751 432.5,-851 "/>
<path fill="none" stroke="black" d="M432.5,-851C432.5,-857 426.5,-863 420.5,-863"/>
<polyline fill="none" stroke="black" points="420.5,-863 279.5,-863 "/>
<path fill="none" stroke="black" d="M279.5,-863C273.5,-863 267.5,-857 267.5,-851"/>
<polyline fill="none" stroke="black" points="267.5,-851 267.5,-751 "/>
<path fill="none" stroke="black" d="M267.5,-751C267.5,-745 273.5,-739 279.5,-739"/>
<text text-anchor="middle" x="350" y="-846.4" font-family="Times Roman,serif" font-size="14.00">Taxe::Value</text>
<polyline fill="none" stroke="black" points="267.5,-837 432.5,-837 "/>
<text text-anchor="start" x="275.5" y="-820.4" font-family="Times Roman,serif" font-size="14.00">percentage :integer</text>
<text text-anchor="start" x="275.5" y="-802.4" font-family="Times Roman,serif" font-size="14.00">basis :integer</text>
<text text-anchor="start" x="275.5" y="-784.4" font-family="Times Roman,serif" font-size="14.00">value :integer</text>
<text text-anchor="start" x="275.5" y="-766.4" font-family="Times Roman,serif" font-size="14.00">created_at :datetime</text>
<text text-anchor="start" x="275.5" y="-748.4" font-family="Times Roman,serif" font-size="14.00">updated_at :datetime</text>
</g>
<!-- Taxe::Type&#45;&gt;Taxe::Value -->
<g id="edge4" class="edge"><title>Taxe::Type&#45;&gt;Taxe::Value</title>
<path fill="none" stroke="black" d="M350,-964.479C350,-935.184 350,-902.177 350,-873.531"/>
<ellipse fill="none" stroke="black" cx="350" cy="-968.734" rx="4" ry="4"/>
<polygon fill="black" stroke="black" points="350,-873.189 354.5,-863.189 350,-868.189 350,-863.189 350,-863.189 350,-863.189 350,-868.189 345.5,-863.189 350,-873.189 350,-873.189"/>
</g>
<!-- Email -->
<g id="node5" class="node"><title>Email</title>
<polygon fill="none" stroke="black" stroke-dasharray="1,5" points="504,-1296 450,-1296 450,-1260 504,-1260 504,-1296"/>
<text text-anchor="middle" x="477" y="-1274.4" font-family="Times Roman,serif" font-size="14.00">Email</text>
</g>
<!-- Transaction::Record -->
<g id="node6" class="node"><title>Transaction::Record</title>
<polyline fill="none" stroke="black" points="533.5,-1198 674.5,-1198 "/>
<path fill="none" stroke="black" d="M674.5,-1198C680.5,-1198 686.5,-1204 686.5,-1210"/>
<polyline fill="none" stroke="black" points="686.5,-1210 686.5,-1346 "/>
<path fill="none" stroke="black" d="M686.5,-1346C686.5,-1352 680.5,-1358 674.5,-1358"/>
<polyline fill="none" stroke="black" points="674.5,-1358 533.5,-1358 "/>
<path fill="none" stroke="black" d="M533.5,-1358C527.5,-1358 521.5,-1352 521.5,-1346"/>
<polyline fill="none" stroke="black" points="521.5,-1346 521.5,-1210 "/>
<path fill="none" stroke="black" d="M521.5,-1210C521.5,-1204 527.5,-1198 533.5,-1198"/>
<text text-anchor="middle" x="604" y="-1341.4" font-family="Times Roman,serif" font-size="14.00">Transaction::Record</text>
<polyline fill="none" stroke="black" points="521.5,-1332 686.5,-1332 "/>
<text text-anchor="start" x="529.5" y="-1315.4" font-family="Times Roman,serif" font-size="14.00">creation_date :date</text>
<text text-anchor="start" x="529.5" y="-1297.4" font-family="Times Roman,serif" font-size="14.00">code :integer</text>
<text text-anchor="start" x="529.5" y="-1279.4" font-family="Times Roman,serif" font-size="14.00">remark :text</text>
<text text-anchor="start" x="529.5" y="-1261.4" font-family="Times Roman,serif" font-size="14.00">active :boolean</text>
<text text-anchor="start" x="529.5" y="-1243.4" font-family="Times Roman,serif" font-size="14.00">name :string</text>
<text text-anchor="start" x="529.5" y="-1225.4" font-family="Times Roman,serif" font-size="14.00">created_at :datetime</text>
<text text-anchor="start" x="529.5" y="-1207.4" font-family="Times Roman,serif" font-size="14.00">updated_at :datetime</text>
</g>
<!-- Transaction::Participant -->
<g id="node7" class="node"><title>Transaction::Participant</title>
<polyline fill="none" stroke="black" points="526.5,-1009 681.5,-1009 "/>
<path fill="none" stroke="black" d="M681.5,-1009C687.5,-1009 693.5,-1015 693.5,-1021"/>
<polyline fill="none" stroke="black" points="693.5,-1021 693.5,-1067 "/>
<path fill="none" stroke="black" d="M693.5,-1067C693.5,-1073 687.5,-1079 681.5,-1079"/>
<polyline fill="none" stroke="black" points="681.5,-1079 526.5,-1079 "/>
<path fill="none" stroke="black" d="M526.5,-1079C520.5,-1079 514.5,-1073 514.5,-1067"/>
<polyline fill="none" stroke="black" points="514.5,-1067 514.5,-1021 "/>
<path fill="none" stroke="black" d="M514.5,-1021C514.5,-1015 520.5,-1009 526.5,-1009"/>
<text text-anchor="middle" x="604" y="-1062.4" font-family="Times Roman,serif" font-size="14.00">Transaction::Participant</text>
<polyline fill="none" stroke="black" points="514.5,-1053 693.5,-1053 "/>
<text text-anchor="start" x="522.5" y="-1036.4" font-family="Times Roman,serif" font-size="14.00">created_at :datetime</text>
<text text-anchor="start" x="522.5" y="-1018.4" font-family="Times Roman,serif" font-size="14.00">updated_at :datetime</text>
</g>
<!-- Transaction::Record&#45;&gt;Transaction::Participant -->
<g id="edge6" class="edge"><title>Transaction::Record&#45;&gt;Transaction::Participant</title>
<path fill="none" stroke="black" d="M604,-1189.68C604,-1155.49 604,-1117.82 604,-1089.35"/>
<ellipse fill="none" stroke="black" cx="604" cy="-1193.8" rx="4" ry="4"/>
<polygon fill="black" stroke="black" points="604,-1089.3 608.5,-1079.3 604,-1084.3 604,-1079.3 604,-1079.3 604,-1079.3 604,-1084.3 599.5,-1079.3 604,-1089.3 604,-1089.3"/>
<text text-anchor="middle" x="641.5" y="-1157.4" font-family="Times Roman,serif" font-size="14.00">Participant</text>
</g>
<!-- Participant::Person -->
<g id="node20" class="node"><title>Participant::Person</title>
<polyline fill="none" stroke="black" points="533.5,-703 674.5,-703 "/>
<path fill="none" stroke="black" d="M674.5,-703C680.5,-703 686.5,-709 686.5,-715"/>
<polyline fill="none" stroke="black" points="686.5,-715 686.5,-887 "/>
<path fill="none" stroke="black" d="M686.5,-887C686.5,-893 680.5,-899 674.5,-899"/>
<polyline fill="none" stroke="black" points="674.5,-899 533.5,-899 "/>
<path fill="none" stroke="black" d="M533.5,-899C527.5,-899 521.5,-893 521.5,-887"/>
<polyline fill="none" stroke="black" points="521.5,-887 521.5,-715 "/>
<path fill="none" stroke="black" d="M521.5,-715C521.5,-709 527.5,-703 533.5,-703"/>
<text text-anchor="middle" x="604" y="-882.4" font-family="Times Roman,serif" font-size="14.00">Participant::Person</text>
<polyline fill="none" stroke="black" points="521.5,-873 686.5,-873 "/>
<text text-anchor="start" x="529.5" y="-856.4" font-family="Times Roman,serif" font-size="14.00">first_name :string</text>
<text text-anchor="start" x="529.5" y="-838.4" font-family="Times Roman,serif" font-size="14.00">last_name :string</text>
<text text-anchor="start" x="529.5" y="-820.4" font-family="Times Roman,serif" font-size="14.00">nickname :string</text>
<text text-anchor="start" x="529.5" y="-802.4" font-family="Times Roman,serif" font-size="14.00">birthday :date</text>
<text text-anchor="start" x="529.5" y="-784.4" font-family="Times Roman,serif" font-size="14.00">code :string</text>
<text text-anchor="start" x="529.5" y="-766.4" font-family="Times Roman,serif" font-size="14.00">remark :string</text>
<text text-anchor="start" x="529.5" y="-748.4" font-family="Times Roman,serif" font-size="14.00">active :boolean</text>
<text text-anchor="start" x="529.5" y="-730.4" font-family="Times Roman,serif" font-size="14.00">created_at :datetime</text>
<text text-anchor="start" x="529.5" y="-712.4" font-family="Times Roman,serif" font-size="14.00">updated_at :datetime</text>
</g>
<!-- Transaction::Participant&#45;&gt;Participant::Person -->
<g id="edge8" class="edge"><title>Transaction::Participant&#45;&gt;Participant::Person</title>
<path fill="none" stroke="black" d="M604,-1000.85C604,-974.794 604,-940.346 604,-907.402"/>
<ellipse fill="none" stroke="black" cx="604" cy="-1004.93" rx="4" ry="4"/>
<ellipse fill="black" stroke="black" cx="604" cy="-903.065" rx="4" ry="4"/>
<text text-anchor="middle" x="627.5" y="-923.4" font-family="Times Roman,serif" font-size="14.00">Person</text>
</g>
<!-- Address::Street -->
<g id="node8" class="node"><title>Address::Street</title>
<polyline fill="none" stroke="black" points="1103,-1 1249,-1 "/>
<path fill="none" stroke="black" d="M1249,-1C1255,-1 1261,-7 1261,-13"/>
<polyline fill="none" stroke="black" points="1261,-13 1261,-167 "/>
<path fill="none" stroke="black" d="M1261,-167C1261,-173 1255,-179 1249,-179"/>
<polyline fill="none" stroke="black" points="1249,-179 1103,-179 "/>
<path fill="none" stroke="black" d="M1103,-179C1097,-179 1091,-173 1091,-167"/>
<polyline fill="none" stroke="black" points="1091,-167 1091,-13 "/>
<path fill="none" stroke="black" d="M1091,-13C1091,-7 1097,-1 1103,-1"/>
<text text-anchor="middle" x="1176" y="-162.4" font-family="Times Roman,serif" font-size="14.00">Address::Street</text>
<polyline fill="none" stroke="black" points="1091,-153 1261,-153 "/>
<text text-anchor="start" x="1099" y="-136.4" font-family="Times Roman,serif" font-size="14.00">phone_number :string</text>
<text text-anchor="start" x="1099" y="-118.4" font-family="Times Roman,serif" font-size="14.00">adress_number :string</text>
<text text-anchor="start" x="1099" y="-100.4" font-family="Times Roman,serif" font-size="14.00">name :string</text>
<text text-anchor="start" x="1099" y="-82.4" font-family="Times Roman,serif" font-size="14.00">remark :string</text>
<text text-anchor="start" x="1099" y="-64.4" font-family="Times Roman,serif" font-size="14.00">active :boolean</text>
<text text-anchor="start" x="1099" y="-46.4" font-family="Times Roman,serif" font-size="14.00">acronym :string</text>
<text text-anchor="start" x="1099" y="-28.4" font-family="Times Roman,serif" font-size="14.00">created_at :datetime</text>
<text text-anchor="start" x="1099" y="-10.4" font-family="Times Roman,serif" font-size="14.00">updated_at :datetime</text>
</g>
<!-- Address::State -->
<g id="node9" class="node"><title>Address::State</title>
<polyline fill="none" stroke="black" points="1158,-712 1304,-712 "/>
<path fill="none" stroke="black" d="M1304,-712C1310,-712 1316,-718 1316,-724"/>
<polyline fill="none" stroke="black" points="1316,-724 1316,-878 "/>
<path fill="none" stroke="black" d="M1316,-878C1316,-884 1310,-890 1304,-890"/>
<polyline fill="none" stroke="black" points="1304,-890 1158,-890 "/>
<path fill="none" stroke="black" d="M1158,-890C1152,-890 1146,-884 1146,-878"/>
<polyline fill="none" stroke="black" points="1146,-878 1146,-724 "/>
<path fill="none" stroke="black" d="M1146,-724C1146,-718 1152,-712 1158,-712"/>
<text text-anchor="middle" x="1231" y="-873.4" font-family="Times Roman,serif" font-size="14.00">Address::State</text>
<polyline fill="none" stroke="black" points="1146,-864 1316,-864 "/>
<text text-anchor="start" x="1154" y="-847.4" font-family="Times Roman,serif" font-size="14.00">phone_number :string</text>
<text text-anchor="start" x="1154" y="-829.4" font-family="Times Roman,serif" font-size="14.00">adress_number :string</text>
<text text-anchor="start" x="1154" y="-811.4" font-family="Times Roman,serif" font-size="14.00">name :string</text>
<text text-anchor="start" x="1154" y="-793.4" font-family="Times Roman,serif" font-size="14.00">remark :string</text>
<text text-anchor="start" x="1154" y="-775.4" font-family="Times Roman,serif" font-size="14.00">active :boolean</text>
<text text-anchor="start" x="1154" y="-757.4" font-family="Times Roman,serif" font-size="14.00">acronym :string</text>
<text text-anchor="start" x="1154" y="-739.4" font-family="Times Roman,serif" font-size="14.00">created_at :datetime</text>
<text text-anchor="start" x="1154" y="-721.4" font-family="Times Roman,serif" font-size="14.00">updated_at :datetime</text>
</g>
<!-- Address::City -->
<g id="node10" class="node"><title>Address::City</title>
<polyline fill="none" stroke="black" points="1158,-469 1304,-469 "/>
<path fill="none" stroke="black" d="M1304,-469C1310,-469 1316,-475 1316,-481"/>
<polyline fill="none" stroke="black" points="1316,-481 1316,-635 "/>
<path fill="none" stroke="black" d="M1316,-635C1316,-641 1310,-647 1304,-647"/>
<polyline fill="none" stroke="black" points="1304,-647 1158,-647 "/>
<path fill="none" stroke="black" d="M1158,-647C1152,-647 1146,-641 1146,-635"/>
<polyline fill="none" stroke="black" points="1146,-635 1146,-481 "/>
<path fill="none" stroke="black" d="M1146,-481C1146,-475 1152,-469 1158,-469"/>
<text text-anchor="middle" x="1231" y="-630.4" font-family="Times Roman,serif" font-size="14.00">Address::City</text>
<polyline fill="none" stroke="black" points="1146,-621 1316,-621 "/>
<text text-anchor="start" x="1154" y="-604.4" font-family="Times Roman,serif" font-size="14.00">phone_number :string</text>
<text text-anchor="start" x="1154" y="-586.4" font-family="Times Roman,serif" font-size="14.00">adress_number :string</text>
<text text-anchor="start" x="1154" y="-568.4" font-family="Times Roman,serif" font-size="14.00">name :string</text>
<text text-anchor="start" x="1154" y="-550.4" font-family="Times Roman,serif" font-size="14.00">remark :string</text>
<text text-anchor="start" x="1154" y="-532.4" font-family="Times Roman,serif" font-size="14.00">active :boolean</text>
<text text-anchor="start" x="1154" y="-514.4" font-family="Times Roman,serif" font-size="14.00">acronym :string</text>
<text text-anchor="start" x="1154" y="-496.4" font-family="Times Roman,serif" font-size="14.00">created_at :datetime</text>
<text text-anchor="start" x="1154" y="-478.4" font-family="Times Roman,serif" font-size="14.00">updated_at :datetime</text>
</g>
<!-- Address::State&#45;&gt;Address::City -->
<g id="edge12" class="edge"><title>Address::State&#45;&gt;Address::City</title>
<path fill="none" stroke="black" d="M1231,-703.66C1231,-688.334 1231,-672.474 1231,-657.109"/>
<ellipse fill="none" stroke="black" cx="1231" cy="-707.896" rx="4" ry="4"/>
<polygon fill="black" stroke="black" points="1231,-657.094 1235.5,-647.094 1231,-652.094 1231,-647.094 1231,-647.094 1231,-647.094 1231,-652.094 1226.5,-647.094 1231,-657.094 1231,-657.094"/>
</g>
<!-- Address::Neighborhood -->
<g id="node13" class="node"><title>Address::Neighborhood</title>
<polyline fill="none" stroke="black" points="1100,-235 1252,-235 "/>
<path fill="none" stroke="black" d="M1252,-235C1258,-235 1264,-241 1264,-247"/>
<polyline fill="none" stroke="black" points="1264,-247 1264,-401 "/>
<path fill="none" stroke="black" d="M1264,-401C1264,-407 1258,-413 1252,-413"/>
<polyline fill="none" stroke="black" points="1252,-413 1100,-413 "/>
<path fill="none" stroke="black" d="M1100,-413C1094,-413 1088,-407 1088,-401"/>
<polyline fill="none" stroke="black" points="1088,-401 1088,-247 "/>
<path fill="none" stroke="black" d="M1088,-247C1088,-241 1094,-235 1100,-235"/>
<text text-anchor="middle" x="1176" y="-396.4" font-family="Times Roman,serif" font-size="14.00">Address::Neighborhood</text>
<polyline fill="none" stroke="black" points="1088,-387 1264,-387 "/>
<text text-anchor="start" x="1096" y="-370.4" font-family="Times Roman,serif" font-size="14.00">phone_number :string</text>
<text text-anchor="start" x="1096" y="-352.4" font-family="Times Roman,serif" font-size="14.00">adress_number :string</text>
<text text-anchor="start" x="1096" y="-334.4" font-family="Times Roman,serif" font-size="14.00">name :string</text>
<text text-anchor="start" x="1096" y="-316.4" font-family="Times Roman,serif" font-size="14.00">remark :string</text>
<text text-anchor="start" x="1096" y="-298.4" font-family="Times Roman,serif" font-size="14.00">active :boolean</text>
<text text-anchor="start" x="1096" y="-280.4" font-family="Times Roman,serif" font-size="14.00">acronym :string</text>
<text text-anchor="start" x="1096" y="-262.4" font-family="Times Roman,serif" font-size="14.00">created_at :datetime</text>
<text text-anchor="start" x="1096" y="-244.4" font-family="Times Roman,serif" font-size="14.00">updated_at :datetime</text>
</g>
<!-- Address::City&#45;&gt;Address::Neighborhood -->
<g id="edge16" class="edge"><title>Address::City&#45;&gt;Address::Neighborhood</title>
<path fill="none" stroke="black" d="M1208.13,-460.7C1205.22,-448.301 1202.23,-435.598 1199.31,-423.17"/>
<ellipse fill="none" stroke="black" cx="1209.13" cy="-464.973" rx="4.00001" ry="4.00001"/>
<polygon fill="black" stroke="black" points="1199.27,-423.007 1201.36,-412.243 1198.13,-418.14 1196.98,-413.273 1196.98,-413.273 1196.98,-413.273 1198.13,-418.14 1192.6,-414.302 1199.27,-423.007 1199.27,-423.007"/>
</g>
<!-- Address::Country -->
<g id="node11" class="node"><title>Address::Country</title>
<polyline fill="none" stroke="black" points="1176,-955 1322,-955 "/>
<path fill="none" stroke="black" d="M1322,-955C1328,-955 1334,-961 1334,-967"/>
<polyline fill="none" stroke="black" points="1334,-967 1334,-1121 "/>
<path fill="none" stroke="black" d="M1334,-1121C1334,-1127 1328,-1133 1322,-1133"/>
<polyline fill="none" stroke="black" points="1322,-1133 1176,-1133 "/>
<path fill="none" stroke="black" d="M1176,-1133C1170,-1133 1164,-1127 1164,-1121"/>
<polyline fill="none" stroke="black" points="1164,-1121 1164,-967 "/>
<path fill="none" stroke="black" d="M1164,-967C1164,-961 1170,-955 1176,-955"/>
<text text-anchor="middle" x="1249" y="-1116.4" font-family="Times Roman,serif" font-size="14.00">Address::Country</text>
<polyline fill="none" stroke="black" points="1164,-1107 1334,-1107 "/>
<text text-anchor="start" x="1172" y="-1090.4" font-family="Times Roman,serif" font-size="14.00">phone_number :string</text>
<text text-anchor="start" x="1172" y="-1072.4" font-family="Times Roman,serif" font-size="14.00">adress_number :string</text>
<text text-anchor="start" x="1172" y="-1054.4" font-family="Times Roman,serif" font-size="14.00">name :string</text>
<text text-anchor="start" x="1172" y="-1036.4" font-family="Times Roman,serif" font-size="14.00">remark :string</text>
<text text-anchor="start" x="1172" y="-1018.4" font-family="Times Roman,serif" font-size="14.00">active :boolean</text>
<text text-anchor="start" x="1172" y="-1000.4" font-family="Times Roman,serif" font-size="14.00">acronym :string</text>
<text text-anchor="start" x="1172" y="-982.4" font-family="Times Roman,serif" font-size="14.00">created_at :datetime</text>
<text text-anchor="start" x="1172" y="-964.4" font-family="Times Roman,serif" font-size="14.00">updated_at :datetime</text>
</g>
<!-- Address::Country&#45;&gt;Address::State -->
<g id="edge20" class="edge"><title>Address::Country&#45;&gt;Address::State</title>
<path fill="none" stroke="black" d="M1241.81,-946.911C1240.67,-931.522 1239.49,-915.589 1238.34,-900.154"/>
<ellipse fill="none" stroke="black" cx="1242.1" cy="-950.907" rx="4" ry="4"/>
<polygon fill="black" stroke="black" points="1238.34,-900.066 1242.09,-889.761 1237.97,-895.08 1237.6,-890.094 1237.6,-890.094 1237.6,-890.094 1237.97,-895.08 1233.11,-890.426 1238.34,-900.066 1238.34,-900.066"/>
</g>
<!-- Address::Place -->
<g id="node12" class="node"><title>Address::Place</title>
<polyline fill="none" stroke="black" points="1063,-1189 1209,-1189 "/>
<path fill="none" stroke="black" d="M1209,-1189C1215,-1189 1221,-1195 1221,-1201"/>
<polyline fill="none" stroke="black" points="1221,-1201 1221,-1355 "/>
<path fill="none" stroke="black" d="M1221,-1355C1221,-1361 1215,-1367 1209,-1367"/>
<polyline fill="none" stroke="black" points="1209,-1367 1063,-1367 "/>
<path fill="none" stroke="black" d="M1063,-1367C1057,-1367 1051,-1361 1051,-1355"/>
<polyline fill="none" stroke="black" points="1051,-1355 1051,-1201 "/>
<path fill="none" stroke="black" d="M1051,-1201C1051,-1195 1057,-1189 1063,-1189"/>
<text text-anchor="middle" x="1136" y="-1350.4" font-family="Times Roman,serif" font-size="14.00">Address::Place</text>
<polyline fill="none" stroke="black" points="1051,-1341 1221,-1341 "/>
<text text-anchor="start" x="1059" y="-1324.4" font-family="Times Roman,serif" font-size="14.00">phone_number :string</text>
<text text-anchor="start" x="1059" y="-1306.4" font-family="Times Roman,serif" font-size="14.00">adress_number :string</text>
<text text-anchor="start" x="1059" y="-1288.4" font-family="Times Roman,serif" font-size="14.00">name :string</text>
<text text-anchor="start" x="1059" y="-1270.4" font-family="Times Roman,serif" font-size="14.00">remark :string</text>
<text text-anchor="start" x="1059" y="-1252.4" font-family="Times Roman,serif" font-size="14.00">active :boolean</text>
<text text-anchor="start" x="1059" y="-1234.4" font-family="Times Roman,serif" font-size="14.00">acronym :string</text>
<text text-anchor="start" x="1059" y="-1216.4" font-family="Times Roman,serif" font-size="14.00">created_at :datetime</text>
<text text-anchor="start" x="1059" y="-1198.4" font-family="Times Roman,serif" font-size="14.00">updated_at :datetime</text>
</g>
<!-- Address::Place&#45;&gt;Address::Street -->
<g id="edge10" class="edge"><title>Address::Place&#45;&gt;Address::Street</title>
<path fill="none" stroke="black" d="M1092.56,-1188.77C1075.54,-1146.01 1060,-1093.44 1060,-1044 1060,-1044 1060,-1044 1060,-324 1060,-283.118 1063.06,-271.648 1079,-234 1086.87,-215.402 1097.27,-196.675 1108.33,-179.161"/>
</g>
<!-- Address::Place&#45;&gt;Address::State -->
<g id="edge14" class="edge"><title>Address::Place&#45;&gt;Address::State</title>
<path fill="none" stroke="black" d="M1131.72,-1188.82C1130.84,-1122.88 1134.41,-1031.46 1155,-954 1160.71,-932.502 1169.6,-910.469 1179.32,-890.059"/>
</g>
<!-- Address::Place&#45;&gt;Address::City -->
<g id="edge18" class="edge"><title>Address::Place&#45;&gt;Address::City</title>
<path fill="none" stroke="black" d="M1221.1,-1194.43C1224.06,-1192.21 1227.03,-1190.06 1230,-1188 1275.79,-1156.35 1313.32,-1181.09 1343,-1134 1369.09,-1092.61 1331.93,-722.565 1325,-702 1318.71,-683.326 1309.42,-664.71 1299.09,-647.362"/>
</g>
<!-- Address::Place&#45;&gt;Address::Country -->
<g id="edge22" class="edge"><title>Address::Place&#45;&gt;Address::Country</title>
<path fill="none" stroke="black" d="M1179.04,-1188.87C1187.84,-1170.66 1197.09,-1151.49 1205.89,-1133.27"/>
</g>
<!-- Address::Place&#45;&gt;Address::Neighborhood -->
<g id="edge26" class="edge"><title>Address::Place&#45;&gt;Address::Neighborhood</title>
<path fill="none" stroke="black" d="M1114.61,-1188.82C1105.97,-1145.4 1098,-1092.26 1098,-1044 1098,-1044 1098,-1044 1098,-558 1098,-508.433 1113.95,-455.851 1131.42,-413.113"/>
</g>
<!-- Address::Neighborhood&#45;&gt;Address::Street -->
<g id="edge24" class="edge"><title>Address::Neighborhood&#45;&gt;Address::Street</title>
<path fill="none" stroke="black" d="M1176,-226.7C1176,-214.424 1176,-201.85 1176,-189.539"/>
<ellipse fill="none" stroke="black" cx="1176" cy="-230.867" rx="4" ry="4"/>
<polygon fill="black" stroke="black" points="1176,-189.273 1180.5,-179.272 1176,-184.273 1176,-179.273 1176,-179.273 1176,-179.273 1176,-184.273 1171.5,-179.273 1176,-189.273 1176,-189.273"/>
</g>
<!-- Taxe -->
<g id="node14" class="node"><title>Taxe</title>
<polygon fill="none" stroke="black" stroke-dasharray="1,5" points="1293,-1296 1239,-1296 1239,-1260 1293,-1260 1293,-1296"/>
<text text-anchor="middle" x="1266" y="-1274.4" font-family="Times Roman,serif" font-size="14.00">Taxe</text>
</g>
<!-- Financier::Note -->
<g id="node15" class="node"><title>Financier::Note</title>
<polyline fill="none" stroke="black" points="1322.5,-1198 1469.5,-1198 "/>
<path fill="none" stroke="black" d="M1469.5,-1198C1475.5,-1198 1481.5,-1204 1481.5,-1210"/>
<polyline fill="none" stroke="black" points="1481.5,-1210 1481.5,-1346 "/>
<path fill="none" stroke="black" d="M1481.5,-1346C1481.5,-1352 1475.5,-1358 1469.5,-1358"/>
<polyline fill="none" stroke="black" points="1469.5,-1358 1322.5,-1358 "/>
<path fill="none" stroke="black" d="M1322.5,-1358C1316.5,-1358 1310.5,-1352 1310.5,-1346"/>
<polyline fill="none" stroke="black" points="1310.5,-1346 1310.5,-1210 "/>
<path fill="none" stroke="black" d="M1310.5,-1210C1310.5,-1204 1316.5,-1198 1322.5,-1198"/>
<text text-anchor="middle" x="1396" y="-1341.4" font-family="Times Roman,serif" font-size="14.00">Financier::Note</text>
<polyline fill="none" stroke="black" points="1310.5,-1332 1481.5,-1332 "/>
<text text-anchor="start" x="1318.5" y="-1315.4" font-family="Times Roman,serif" font-size="14.00">original_value :integer</text>
<text text-anchor="start" x="1318.5" y="-1297.4" font-family="Times Roman,serif" font-size="14.00">expiration_date :date</text>
<text text-anchor="start" x="1318.5" y="-1279.4" font-family="Times Roman,serif" font-size="14.00">creation_date :date</text>
<text text-anchor="start" x="1318.5" y="-1261.4" font-family="Times Roman,serif" font-size="14.00">name :string</text>
<text text-anchor="start" x="1318.5" y="-1243.4" font-family="Times Roman,serif" font-size="14.00">number :integer</text>
<text text-anchor="start" x="1318.5" y="-1225.4" font-family="Times Roman,serif" font-size="14.00">created_at :datetime</text>
<text text-anchor="start" x="1318.5" y="-1207.4" font-family="Times Roman,serif" font-size="14.00">updated_at :datetime</text>
</g>
<!-- Participant -->
<g id="node16" class="node"><title>Participant</title>
<polygon fill="none" stroke="black" stroke-dasharray="1,5" points="1589,-1296 1499,-1296 1499,-1260 1589,-1260 1589,-1296"/>
<text text-anchor="middle" x="1544" y="-1274.4" font-family="Times Roman,serif" font-size="14.00">Participant</text>
</g>
<!-- Financier -->
<g id="node17" class="node"><title>Financier</title>
<polygon fill="none" stroke="black" stroke-dasharray="1,5" points="1685,-1296 1607,-1296 1607,-1260 1685,-1260 1685,-1296"/>
<text text-anchor="middle" x="1646" y="-1274.4" font-family="Times Roman,serif" font-size="14.00">Financier</text>
</g>
<!-- Transaction -->
<g id="node18" class="node"><title>Transaction</title>
<polygon fill="none" stroke="black" stroke-dasharray="1,5" points="1797,-1296 1703,-1296 1703,-1260 1797,-1260 1797,-1296"/>
<text text-anchor="middle" x="1750" y="-1274.4" font-family="Times Roman,serif" font-size="14.00">Transaction</text>
</g>
<!-- Participant::Contact -->
<g id="node19" class="node"><title>Participant::Contact</title>
<polygon fill="none" stroke="black" stroke-dasharray="1,5" points="1969,-1296 1815,-1296 1815,-1260 1969,-1260 1969,-1296"/>
<text text-anchor="middle" x="1892" y="-1274.4" font-family="Times Roman,serif" font-size="14.00">Participant::Contact</text>
</g>
<!-- Participant::Contact::Email -->
<g id="node21" class="node"><title>Participant::Contact::Email</title>
<polyline fill="none" stroke="black" points="844,-505 1020,-505 "/>
<path fill="none" stroke="black" d="M1020,-505C1026,-505 1032,-511 1032,-517"/>
<polyline fill="none" stroke="black" points="1032,-517 1032,-599 "/>
<path fill="none" stroke="black" d="M1032,-599C1032,-605 1026,-611 1020,-611"/>
<polyline fill="none" stroke="black" points="1020,-611 844,-611 "/>
<path fill="none" stroke="black" d="M844,-611C838,-611 832,-605 832,-599"/>
<polyline fill="none" stroke="black" points="832,-599 832,-517 "/>
<path fill="none" stroke="black" d="M832,-517C832,-511 838,-505 844,-505"/>
<text text-anchor="middle" x="932" y="-594.4" font-family="Times Roman,serif" font-size="14.00">Participant::Contact::Email</text>
<polyline fill="none" stroke="black" points="832,-585 1032,-585 "/>
<text text-anchor="start" x="840" y="-568.4" font-family="Times Roman,serif" font-size="14.00">active :boolean</text>
<text text-anchor="start" x="840" y="-550.4" font-family="Times Roman,serif" font-size="14.00">remark :text</text>
<text text-anchor="start" x="840" y="-532.4" font-family="Times Roman,serif" font-size="14.00">created_at :datetime</text>
<text text-anchor="start" x="840" y="-514.4" font-family="Times Roman,serif" font-size="14.00">updated_at :datetime</text>
</g>
<!-- Participant::Person&#45;&gt;Participant::Contact::Email -->
<g id="edge30" class="edge"><title>Participant::Person&#45;&gt;Participant::Contact::Email</title>
<path fill="none" stroke="black" d="M648.191,-696.345C656.889,-684.628 667.096,-674.04 679,-666 732.449,-629.9 763.778,-673.549 823,-648 840.206,-640.577 856.846,-629.575 871.726,-617.79"/>
<ellipse fill="none" stroke="black" cx="645.822" cy="-699.696" rx="4.00002" ry="4.00002"/>
<polygon fill="black" stroke="black" points="872.065,-617.512 882.654,-614.662 875.934,-614.346 879.804,-611.179 879.804,-611.179 879.804,-611.179 875.934,-614.346 876.954,-607.697 872.065,-617.512 872.065,-617.512"/>
<text text-anchor="middle" x="698" y="-671.4" font-family="Times Roman,serif" font-size="14.00">Email</text>
</g>
<!-- Participant::Contact::Addres -->
<g id="node41" class="node"><title>Participant::Contact::Addres</title>
<ellipse fill="none" stroke="black" cx="484" cy="-558" rx="147.992" ry="18.3848"/>
<text text-anchor="middle" x="484" y="-554.4" font-family="Times Roman,serif" font-size="14.00">Participant::Contact::Addres</text>
</g>
<!-- Participant::Person&#45;&gt;Participant::Contact::Addres -->
<g id="edge28" class="edge"><title>Participant::Person&#45;&gt;Participant::Contact::Addres</title>
<path fill="none" stroke="black" d="M551.973,-695.645C532.111,-655.426 511.063,-612.803 497.743,-585.83"/>
<ellipse fill="none" stroke="black" cx="553.766" cy="-699.277" rx="4.00002" ry="4.00002"/>
<polygon fill="black" stroke="black" points="497.63,-585.601 497.237,-574.642 495.416,-581.118 493.202,-576.635 493.202,-576.635 493.202,-576.635 495.416,-581.118 489.167,-578.627 497.63,-585.601 497.63,-585.601"/>
<text text-anchor="middle" x="571.5" y="-671.4" font-family="Times Roman,serif" font-size="14.00">Address</text>
</g>
<!-- Email::User -->
<g id="node25" class="node"><title>Email::User</title>
<polyline fill="none" stroke="black" points="725.5,-253 866.5,-253 "/>
<path fill="none" stroke="black" d="M866.5,-253C872.5,-253 878.5,-259 878.5,-265"/>
<polyline fill="none" stroke="black" points="878.5,-265 878.5,-383 "/>
<path fill="none" stroke="black" d="M878.5,-383C878.5,-389 872.5,-395 866.5,-395"/>
<polyline fill="none" stroke="black" points="866.5,-395 725.5,-395 "/>
<path fill="none" stroke="black" d="M725.5,-395C719.5,-395 713.5,-389 713.5,-383"/>
<polyline fill="none" stroke="black" points="713.5,-383 713.5,-265 "/>
<path fill="none" stroke="black" d="M713.5,-265C713.5,-259 719.5,-253 725.5,-253"/>
<text text-anchor="middle" x="796" y="-378.4" font-family="Times Roman,serif" font-size="14.00">Email::User</text>
<polyline fill="none" stroke="black" points="713.5,-369 878.5,-369 "/>
<text text-anchor="start" x="721.5" y="-352.4" font-family="Times Roman,serif" font-size="14.00">name :string</text>
<text text-anchor="start" x="721.5" y="-334.4" font-family="Times Roman,serif" font-size="14.00">remark :text</text>
<text text-anchor="start" x="721.5" y="-316.4" font-family="Times Roman,serif" font-size="14.00">active :boolean</text>
<text text-anchor="start" x="721.5" y="-298.4" font-family="Times Roman,serif" font-size="14.00">password :string</text>
<text text-anchor="start" x="721.5" y="-280.4" font-family="Times Roman,serif" font-size="14.00">created_at :datetime</text>
<text text-anchor="start" x="721.5" y="-262.4" font-family="Times Roman,serif" font-size="14.00">updated_at :datetime</text>
</g>
<!-- Participant::Contact::Email&#45;&gt;Email::User -->
<g id="edge32" class="edge"><title>Participant::Contact::Email&#45;&gt;Email::User</title>
<path fill="none" stroke="black" d="M897.077,-497.912C880.122,-468.74 859.54,-433.327 841.386,-402.09"/>
<ellipse fill="none" stroke="black" cx="899.13" cy="-501.443" rx="4.00002" ry="4.00002"/>
<ellipse fill="black" stroke="black" cx="839.321" cy="-398.537" rx="4.00002" ry="4.00002"/>
<text text-anchor="middle" x="884" y="-437.4" font-family="Times Roman,serif" font-size="14.00">User</text>
</g>
<!-- Participant::Contact::Type -->
<g id="node22" class="node"><title>Participant::Contact::Type</title>
<polyline fill="none" stroke="black" points="739,-739 909,-739 "/>
<path fill="none" stroke="black" d="M909,-739C915,-739 921,-745 921,-751"/>
<polyline fill="none" stroke="black" points="921,-751 921,-851 "/>
<path fill="none" stroke="black" d="M921,-851C921,-857 915,-863 909,-863"/>
<polyline fill="none" stroke="black" points="909,-863 739,-863 "/>
<path fill="none" stroke="black" d="M739,-863C733,-863 727,-857 727,-851"/>
<polyline fill="none" stroke="black" points="727,-851 727,-751 "/>
<path fill="none" stroke="black" d="M727,-751C727,-745 733,-739 739,-739"/>
<text text-anchor="middle" x="824" y="-846.4" font-family="Times Roman,serif" font-size="14.00">Participant::Contact::Type</text>
<polyline fill="none" stroke="black" points="727,-837 921,-837 "/>
<text text-anchor="start" x="735" y="-820.4" font-family="Times Roman,serif" font-size="14.00">name :string</text>
<text text-anchor="start" x="735" y="-802.4" font-family="Times Roman,serif" font-size="14.00">remark :text</text>
<text text-anchor="start" x="735" y="-784.4" font-family="Times Roman,serif" font-size="14.00">active :boolean</text>
<text text-anchor="start" x="735" y="-766.4" font-family="Times Roman,serif" font-size="14.00">created_at :datetime</text>
<text text-anchor="start" x="735" y="-748.4" font-family="Times Roman,serif" font-size="14.00">updated_at :datetime</text>
</g>
<!-- Participant::Contact::Type&#45;&gt;Participant::Contact::Email -->
<g id="edge36" class="edge"><title>Participant::Contact::Type&#45;&gt;Participant::Contact::Email</title>
<path fill="none" stroke="black" d="M855.02,-731.204C870.561,-696.238 889.223,-654.249 904.28,-620.371"/>
<ellipse fill="none" stroke="black" cx="853.297" cy="-735.082" rx="4.00002" ry="4.00002"/>
<polygon fill="black" stroke="black" points="904.364,-620.181 912.538,-612.871 906.395,-615.612 908.425,-611.043 908.425,-611.043 908.425,-611.043 906.395,-615.612 904.313,-609.215 904.364,-620.181 904.364,-620.181"/>
<text text-anchor="middle" x="900" y="-671.4" font-family="Times Roman,serif" font-size="14.00">Email</text>
</g>
<!-- Participant::Contact::Type&#45;&gt;Participant::Contact::Addres -->
<g id="edge34" class="edge"><title>Participant::Contact::Type&#45;&gt;Participant::Contact::Addres</title>
<path fill="none" stroke="black" d="M783.023,-731.896C765.514,-707.758 743.063,-682.58 717,-666 687.712,-647.368 673.28,-660.764 641,-648 596.725,-630.493 549.853,-602.176 518.973,-581.981"/>
<ellipse fill="none" stroke="black" cx="785.515" cy="-735.407" rx="4.00002" ry="4.00002"/>
<polygon fill="black" stroke="black" points="518.655,-581.771 512.795,-572.503 514.484,-579.014 510.314,-576.257 510.314,-576.257 510.314,-576.257 514.484,-579.014 507.832,-580.01 518.655,-581.771 518.655,-581.771"/>
<text text-anchor="middle" x="766.5" y="-671.4" font-family="Times Roman,serif" font-size="14.00">Address</text>
</g>
<!-- Participant::Contact::Address -->
<g id="node23" class="node"><title>Participant::Contact::Address</title>
<polyline fill="none" stroke="black" points="1293.5,-271 1486.5,-271 "/>
<path fill="none" stroke="black" d="M1486.5,-271C1492.5,-271 1498.5,-277 1498.5,-283"/>
<polyline fill="none" stroke="black" points="1498.5,-283 1498.5,-365 "/>
<path fill="none" stroke="black" d="M1498.5,-365C1498.5,-371 1492.5,-377 1486.5,-377"/>
<polyline fill="none" stroke="black" points="1486.5,-377 1293.5,-377 "/>
<path fill="none" stroke="black" d="M1293.5,-377C1287.5,-377 1281.5,-371 1281.5,-365"/>
<polyline fill="none" stroke="black" points="1281.5,-365 1281.5,-283 "/>
<path fill="none" stroke="black" d="M1281.5,-283C1281.5,-277 1287.5,-271 1293.5,-271"/>
<text text-anchor="middle" x="1390" y="-360.4" font-family="Times Roman,serif" font-size="14.00">Participant::Contact::Address</text>
<polyline fill="none" stroke="black" points="1281.5,-351 1498.5,-351 "/>
<text text-anchor="start" x="1289.5" y="-334.4" font-family="Times Roman,serif" font-size="14.00">active :boolean</text>
<text text-anchor="start" x="1289.5" y="-316.4" font-family="Times Roman,serif" font-size="14.00">remark :text</text>
<text text-anchor="start" x="1289.5" y="-298.4" font-family="Times Roman,serif" font-size="14.00">created_at :datetime</text>
<text text-anchor="start" x="1289.5" y="-280.4" font-family="Times Roman,serif" font-size="14.00">updated_at :datetime</text>
</g>
<!-- Participant::Contact::Address&#45;&gt;Address::Street -->
<g id="edge38" class="edge"><title>Participant::Contact::Address&#45;&gt;Address::Street</title>
<path fill="none" stroke="black" d="M1335.82,-264.762C1313.76,-240.635 1287.7,-212.135 1263.09,-185.226"/>
<ellipse fill="none" stroke="black" cx="1338.74" cy="-267.95" rx="4.00002" ry="4.00002"/>
<ellipse fill="black" stroke="black" cx="1260.23" cy="-182.103" rx="4.00002" ry="4.00002"/>
<text text-anchor="middle" x="1311" y="-203.4" font-family="Times Roman,serif" font-size="14.00">Street</text>
</g>
<!-- Email::Domain -->
<g id="node24" class="node"><title>Email::Domain</title>
<polyline fill="none" stroke="black" points="661.5,-496 802.5,-496 "/>
<path fill="none" stroke="black" d="M802.5,-496C808.5,-496 814.5,-502 814.5,-508"/>
<polyline fill="none" stroke="black" points="814.5,-508 814.5,-608 "/>
<path fill="none" stroke="black" d="M814.5,-608C814.5,-614 808.5,-620 802.5,-620"/>
<polyline fill="none" stroke="black" points="802.5,-620 661.5,-620 "/>
<path fill="none" stroke="black" d="M661.5,-620C655.5,-620 649.5,-614 649.5,-608"/>
<polyline fill="none" stroke="black" points="649.5,-608 649.5,-508 "/>
<path fill="none" stroke="black" d="M649.5,-508C649.5,-502 655.5,-496 661.5,-496"/>
<text text-anchor="middle" x="732" y="-603.4" font-family="Times Roman,serif" font-size="14.00">Email::Domain</text>
<polyline fill="none" stroke="black" points="649.5,-594 814.5,-594 "/>
<text text-anchor="start" x="657.5" y="-577.4" font-family="Times Roman,serif" font-size="14.00">name :string</text>
<text text-anchor="start" x="657.5" y="-559.4" font-family="Times Roman,serif" font-size="14.00">remark :text</text>
<text text-anchor="start" x="657.5" y="-541.4" font-family="Times Roman,serif" font-size="14.00">active :boolean</text>
<text text-anchor="start" x="657.5" y="-523.4" font-family="Times Roman,serif" font-size="14.00">created_at :datetime</text>
<text text-anchor="start" x="657.5" y="-505.4" font-family="Times Roman,serif" font-size="14.00">updated_at :datetime</text>
</g>
<!-- Email::Domain&#45;&gt;Email::User -->
<g id="edge40" class="edge"><title>Email::Domain&#45;&gt;Email::User</title>
<path fill="none" stroke="black" d="M751.105,-488.149C758.264,-461.974 766.457,-432.018 773.867,-404.923"/>
<ellipse fill="none" stroke="black" cx="750.038" cy="-492.048" rx="4.00001" ry="4.00001"/>
<polygon fill="black" stroke="black" points="773.92,-404.728 780.899,-396.27 775.24,-399.905 776.559,-395.082 776.559,-395.082 776.559,-395.082 775.24,-399.905 772.218,-393.895 773.92,-404.728 773.92,-404.728"/>
<text text-anchor="middle" x="781" y="-437.4" font-family="Times Roman,serif" font-size="14.00">User</text>
</g>
<!-- Address -->
<g id="node26" class="node"><title>Address</title>
<polygon fill="none" stroke="black" stroke-dasharray="1,5" points="2057,-1296 1987,-1296 1987,-1260 2057,-1260 2057,-1296"/>
<text text-anchor="middle" x="2022" y="-1274.4" font-family="Times Roman,serif" font-size="14.00">Address</text>
</g>
</g>
</svg>
