<?xml version="1.0" encoding="UTF-8" standalone="no"?>
<!DOCTYPE svg PUBLIC "-//W3C//DTD SVG 1.1//EN"
 "http://www.w3.org/Graphics/SVG/1.1/DTD/svg11.dtd">
<!-- Generated by graphviz version 2.26.3 (20100126.1600)
 -->
<!-- Title: models_diagram Pages: 1 -->
<svg width="1788pt" height="498pt"
 viewBox="0.00 0.00 1788.00 498.00" xmlns="http://www.w3.org/2000/svg" xmlns:xlink="http://www.w3.org/1999/xlink">
<g id="graph1" class="graph" transform="scale(1 1) rotate(0) translate(4 494)">
<title>models_diagram</title>
<polygon fill="white" stroke="white" points="-4,5 -4,-494 1785,-494 1785,5 -4,5"/>
<!-- _diagram_info -->
<g id="node1" class="node"><title>_diagram_info</title>
<text text-anchor="start" x="8" y="-473.8" font-family="Times Roman,serif" font-size="13.00">Models diagram</text>
<text text-anchor="start" x="8" y="-456.8" font-family="Times Roman,serif" font-size="13.00">Date: Aug 04 2011 &#45; 23:50</text>
<text text-anchor="start" x="8" y="-439.8" font-family="Times Roman,serif" font-size="13.00">Migration version: 20110805024527</text>
<text text-anchor="start" x="8" y="-422.8" font-family="Times Roman,serif" font-size="13.00">Generated by RailRoady 1.0.2</text>
<text text-anchor="start" x="8" y="-405.8" font-family="Times Roman,serif" font-size="13.00">http://railroady.prestonlee.com</text>
</g>
<!-- Taxe::Group -->
<g id="node2" class="node"><title>Taxe::Group</title>
<ellipse fill="none" stroke="black" cx="338" cy="-443" rx="70.0036" ry="18.3848"/>
<text text-anchor="middle" x="338" y="-439.4" font-family="Times Roman,serif" font-size="14.00">Taxe::Group</text>
</g>
<!-- Taxe::Value -->
<g id="node3" class="node"><title>Taxe::Value</title>
<ellipse fill="none" stroke="black" cx="493" cy="-443" rx="67.1751" ry="18.3848"/>
<text text-anchor="middle" x="493" y="-439.4" font-family="Times Roman,serif" font-size="14.00">Taxe::Value</text>
</g>
<!-- Taxe::Type -->
<g id="node4" class="node"><title>Taxe::Type</title>
<ellipse fill="none" stroke="black" cx="640" cy="-443" rx="62.2254" ry="18.3848"/>
<text text-anchor="middle" x="640" y="-439.4" font-family="Times Roman,serif" font-size="14.00">Taxe::Type</text>
</g>
<!-- Phone -->
<g id="node5" class="node"><title>Phone</title>
<ellipse fill="none" stroke="black" cx="961" cy="-323" rx="41.9273" ry="18.3848"/>
<text text-anchor="middle" x="961" y="-319.4" font-family="Times Roman,serif" font-size="14.00">Phone</text>
</g>
<!-- Email -->
<g id="node6" class="node"><title>Email</title>
<ellipse fill="none" stroke="black" cx="759" cy="-323" rx="38.1838" ry="18.3848"/>
<text text-anchor="middle" x="759" y="-319.4" font-family="Times Roman,serif" font-size="14.00">Email</text>
</g>
<!-- ContactType -->
<g id="node7" class="node"><title>ContactType</title>
<ellipse fill="none" stroke="black" cx="792" cy="-443" rx="72.1249" ry="18.3848"/>
<text text-anchor="middle" x="792" y="-439.4" font-family="Times Roman,serif" font-size="14.00">ContactType</text>
</g>
<!-- ContactType&#45;&gt;Phone -->
<g id="edge4" class="edge"><title>ContactType&#45;&gt;Phone</title>
<path fill="none" stroke="black" d="M812.647,-418.56C828.773,-400.606 852.494,-376.557 877,-360 889.659,-351.447 904.618,-344.11 918.379,-338.279"/>
<ellipse fill="none" stroke="black" cx="809.712" cy="-421.878" rx="4.00002" ry="4.00002"/>
<polygon fill="black" stroke="black" points="918.412,-338.266 929.372,-338.653 923.042,-336.376 927.671,-334.486 927.671,-334.486 927.671,-334.486 923.042,-336.376 925.97,-330.32 918.412,-338.266 918.412,-338.266"/>
</g>
<!-- ContactType&#45;&gt;Email -->
<g id="edge6" class="edge"><title>ContactType&#45;&gt;Email</title>
<path fill="none" stroke="black" d="M784.035,-416.534C780.552,-404.762 776.476,-390.716 773,-378 770.636,-369.351 768.184,-359.901 766.004,-351.313"/>
<ellipse fill="none" stroke="black" cx="785.197" cy="-420.442" rx="4.00001" ry="4.00001"/>
<polygon fill="black" stroke="black" points="765.944,-351.074 767.87,-340.278 764.725,-346.225 763.506,-341.376 763.506,-341.376 763.506,-341.376 764.725,-346.225 759.142,-342.473 765.944,-351.074 765.944,-351.074"/>
</g>
<!-- Addre -->
<g id="node21" class="node"><title>Addre</title>
<ellipse fill="none" stroke="black" cx="859" cy="-323" rx="39.8075" ry="18.3848"/>
<text text-anchor="middle" x="859" y="-319.4" font-family="Times Roman,serif" font-size="14.00">Addre</text>
</g>
<!-- ContactType&#45;&gt;Addre -->
<g id="edge2" class="edge"><title>ContactType&#45;&gt;Addre</title>
<path fill="none" stroke="black" d="M785.844,-416.41C783.334,-399.15 783.008,-376.824 793,-360 798.49,-350.756 807.216,-343.641 816.547,-338.239"/>
<ellipse fill="none" stroke="black" cx="786.541" cy="-420.486" rx="4.00001" ry="4.00001"/>
<polygon fill="black" stroke="black" points="816.706,-338.156 827.657,-337.569 821.15,-335.863 825.593,-333.57 825.593,-333.57 825.593,-333.57 821.15,-335.863 823.529,-329.571 816.706,-338.156 816.706,-338.156"/>
<text text-anchor="middle" x="820.5" y="-365.4" font-family="Times Roman,serif" font-size="14.00">Address</text>
</g>
<!-- Address::Street -->
<g id="node8" class="node"><title>Address::Street</title>
<ellipse fill="none" stroke="black" cx="1076" cy="-19" rx="86.9741" ry="18.3848"/>
<text text-anchor="middle" x="1076" y="-15.4" font-family="Times Roman,serif" font-size="14.00">Address::Street</text>
</g>
<!-- Address::State -->
<g id="node9" class="node"><title>Address::State</title>
<ellipse fill="none" stroke="black" cx="1196" cy="-247" rx="82.2301" ry="18.3848"/>
<text text-anchor="middle" x="1196" y="-243.4" font-family="Times Roman,serif" font-size="14.00">Address::State</text>
</g>
<!-- Address::City -->
<g id="node10" class="node"><title>Address::City</title>
<ellipse fill="none" stroke="black" cx="1196" cy="-171" rx="75.1594" ry="18.3848"/>
<text text-anchor="middle" x="1196" y="-167.4" font-family="Times Roman,serif" font-size="14.00">Address::City</text>
</g>
<!-- Address::State&#45;&gt;Address::City -->
<g id="edge10" class="edge"><title>Address::State&#45;&gt;Address::City</title>
<path fill="none" stroke="black" d="M1196,-220.073C1196,-213.449 1196,-206.332 1196,-199.63"/>
<ellipse fill="none" stroke="black" cx="1196" cy="-224.213" rx="4" ry="4"/>
<polygon fill="black" stroke="black" points="1196,-199.57 1200.5,-189.57 1196,-194.57 1196,-189.57 1196,-189.57 1196,-189.57 1196,-194.57 1191.5,-189.57 1196,-199.57 1196,-199.57"/>
</g>
<!-- Address::Neighborhood -->
<g id="node13" class="node"><title>Address::Neighborhood</title>
<ellipse fill="none" stroke="black" cx="1184" cy="-95" rx="123.951" ry="18.3848"/>
<text text-anchor="middle" x="1184" y="-91.4" font-family="Times Roman,serif" font-size="14.00">Address::Neighborhood</text>
</g>
<!-- Address::City&#45;&gt;Address::Neighborhood -->
<g id="edge14" class="edge"><title>Address::City&#45;&gt;Address::Neighborhood</title>
<path fill="none" stroke="black" d="M1191.75,-144.073C1190.7,-137.449 1189.58,-130.332 1188.52,-123.63"/>
<ellipse fill="none" stroke="black" cx="1192.41" cy="-148.262" rx="4.00001" ry="4.00001"/>
<polygon fill="black" stroke="black" points="1188.49,-123.448 1191.38,-112.869 1187.71,-118.509 1186.93,-113.57 1186.93,-113.57 1186.93,-113.57 1187.71,-118.509 1182.49,-114.272 1188.49,-123.448 1188.49,-123.448"/>
</g>
<!-- Address::Country -->
<g id="node11" class="node"><title>Address::Country</title>
<ellipse fill="none" stroke="black" cx="1232" cy="-323" rx="96.1665" ry="18.3848"/>
<text text-anchor="middle" x="1232" y="-319.4" font-family="Times Roman,serif" font-size="14.00">Address::Country</text>
</g>
<!-- Address::Country&#45;&gt;Address::State -->
<g id="edge18" class="edge"><title>Address::Country&#45;&gt;Address::State</title>
<path fill="none" stroke="black" d="M1219.67,-296.978C1216.31,-289.881 1212.66,-282.162 1209.24,-274.961"/>
<ellipse fill="none" stroke="black" cx="1221.39" cy="-300.599" rx="4.00002" ry="4.00002"/>
<polygon fill="black" stroke="black" points="1209.08,-274.608 1208.86,-263.644 1206.94,-270.089 1204.8,-265.57 1204.8,-265.57 1204.8,-265.57 1206.94,-270.089 1200.73,-267.497 1209.08,-274.608 1209.08,-274.608"/>
</g>
<!-- Address::Place -->
<g id="node12" class="node"><title>Address::Place</title>
<ellipse fill="none" stroke="black" cx="1108" cy="-443" rx="82.0244" ry="18.3848"/>
<text text-anchor="middle" x="1108" y="-439.4" font-family="Times Roman,serif" font-size="14.00">Address::Place</text>
</g>
<!-- Address::Place&#45;&gt;Address::Street -->
<g id="edge8" class="edge"><title>Address::Place&#45;&gt;Address::Street</title>
<path fill="none" stroke="black" d="M1087.23,-424.896C1064.73,-403.162 1032,-364.429 1032,-323 1032,-323 1032,-323 1032,-95 1032,-73.0455 1045.92,-51.7429 1058.1,-37.3054"/>
</g>
<!-- Address::Place&#45;&gt;Address::State -->
<g id="edge12" class="edge"><title>Address::Place&#45;&gt;Address::State</title>
<path fill="none" stroke="black" d="M1106.41,-424.117C1104.93,-396.053 1105.55,-342.516 1127,-304 1136.07,-287.71 1151.8,-274.167 1165.95,-264.376"/>
</g>
<!-- Address::Place&#45;&gt;Address::City -->
<g id="edge16" class="edge"><title>Address::Place&#45;&gt;Address::City</title>
<path fill="none" stroke="black" d="M1139.19,-425.871C1156.58,-416.582 1178.75,-405.162 1199,-396 1259.01,-368.852 1299.87,-396.399 1337,-342 1377.89,-282.092 1282.12,-217.695 1228.77,-187.901"/>
</g>
<!-- Address::Place&#45;&gt;Address::Country -->
<g id="edge20" class="edge"><title>Address::Place&#45;&gt;Address::Country</title>
<path fill="none" stroke="black" d="M1126.83,-424.775C1150.14,-402.22 1189.6,-364.03 1212.99,-341.397"/>
</g>
<!-- Address::Place&#45;&gt;Address::Neighborhood -->
<g id="edge24" class="edge"><title>Address::Place&#45;&gt;Address::Neighborhood</title>
<path fill="none" stroke="black" d="M1098.21,-424.456C1086.95,-401.357 1070,-360.369 1070,-323 1070,-323 1070,-323 1070,-171 1070,-141.505 1096.75,-122.752 1124.33,-111.255"/>
</g>
<!-- Address::Neighborhood&#45;&gt;Address::Street -->
<g id="edge22" class="edge"><title>Address::Neighborhood&#45;&gt;Address::Street</title>
<path fill="none" stroke="black" d="M1151.45,-72.091C1138.25,-62.8071 1123.02,-52.0883 1109.71,-42.7232"/>
<ellipse fill="none" stroke="black" cx="1154.86" cy="-74.4941" rx="4.00002" ry="4.00002"/>
<polygon fill="black" stroke="black" points="1109.46,-42.5481 1103.87,-33.113 1105.37,-39.6706 1101.28,-36.7931 1101.28,-36.7931 1101.28,-36.7931 1105.37,-39.6706 1098.7,-40.4733 1109.46,-42.5481 1109.46,-42.5481"/>
</g>
<!-- Taxe -->
<g id="node14" class="node"><title>Taxe</title>
<polygon fill="none" stroke="black" stroke-dasharray="1,5" points="1262,-461 1208,-461 1208,-425 1262,-425 1262,-461"/>
<text text-anchor="middle" x="1235" y="-439.4" font-family="Times Roman,serif" font-size="14.00">Taxe</text>
</g>
<!-- Financier::Note -->
<g id="node15" class="node"><title>Financier::Note</title>
<ellipse fill="none" stroke="black" cx="1365" cy="-443" rx="85.0596" ry="18.3848"/>
<text text-anchor="middle" x="1365" y="-439.4" font-family="Times Roman,serif" font-size="14.00">Financier::Note</text>
</g>
<!-- Participant -->
<g id="node16" class="node"><title>Participant</title>
<ellipse fill="none" stroke="black" cx="1532" cy="-443" rx="63.8479" ry="18.3848"/>
<text text-anchor="middle" x="1532" y="-439.4" font-family="Times Roman,serif" font-size="14.00">Participant</text>
</g>
<!-- Person -->
<g id="node17" class="node"><title>Person</title>
<ellipse fill="none" stroke="black" cx="945" cy="-443" rx="44.0472" ry="18.3848"/>
<text text-anchor="middle" x="945" y="-439.4" font-family="Times Roman,serif" font-size="14.00">Person</text>
</g>
<!-- Person&#45;&gt;Phone -->
<g id="edge28" class="edge"><title>Person&#45;&gt;Phone</title>
<path fill="none" stroke="black" d="M948.556,-416.329C951.105,-397.213 954.535,-371.486 957.149,-351.884"/>
<ellipse fill="none" stroke="black" cx="947.994" cy="-420.548" rx="4.00001" ry="4.00001"/>
<polygon fill="black" stroke="black" points="957.184,-351.618 962.966,-342.301 957.845,-346.662 958.506,-341.706 958.506,-341.706 958.506,-341.706 957.845,-346.662 954.045,-341.111 957.184,-351.618 957.184,-351.618"/>
</g>
<!-- Person&#45;&gt;Addre -->
<g id="edge26" class="edge"><title>Person&#45;&gt;Addre</title>
<path fill="none" stroke="black" d="M925.281,-419.038C915.57,-406.948 903.86,-391.928 894,-378 887.624,-368.993 881.028,-358.869 875.304,-349.785"/>
<ellipse fill="none" stroke="black" cx="927.931" cy="-422.317" rx="4.00002" ry="4.00002"/>
<polygon fill="black" stroke="black" points="875.199,-349.616 873.731,-338.749 872.555,-345.372 869.912,-341.128 869.912,-341.128 869.912,-341.128 872.555,-345.372 866.092,-343.507 875.199,-349.616 875.199,-349.616"/>
<text text-anchor="middle" x="921.5" y="-365.4" font-family="Times Roman,serif" font-size="14.00">Address</text>
</g>
<!-- Financier -->
<g id="node18" class="node"><title>Financier</title>
<polygon fill="none" stroke="black" stroke-dasharray="1,5" points="1692,-461 1614,-461 1614,-425 1692,-425 1692,-461"/>
<text text-anchor="middle" x="1653" y="-439.4" font-family="Times Roman,serif" font-size="14.00">Financier</text>
</g>
<!-- Address -->
<g id="node19" class="node"><title>Address</title>
<polygon fill="none" stroke="black" stroke-dasharray="1,5" points="1780,-461 1710,-461 1710,-425 1780,-425 1780,-461"/>
<text text-anchor="middle" x="1745" y="-439.4" font-family="Times Roman,serif" font-size="14.00">Address</text>
</g>
</g>
</svg>
