<?xml version="1.0" encoding="UTF-8" standalone="no"?>
<!DOCTYPE svg PUBLIC "-//W3C//DTD SVG 1.1//EN"
 "http://www.w3.org/Graphics/SVG/1.1/DTD/svg11.dtd">
<!-- Generated by graphviz version 2.26.3 (20100126.1600)
 -->
<!-- Title: models_diagram Pages: 1 -->
<svg width="706pt" height="398pt"
 viewBox="0.00 0.00 705.67 398.00" xmlns="http://www.w3.org/2000/svg" xmlns:xlink="http://www.w3.org/1999/xlink">
<g id="graph1" class="graph" transform="scale(1 1) rotate(0) translate(4 394)">
<title>models_diagram</title>
<polygon fill="white" stroke="white" points="-4,5 -4,-394 702.675,-394 702.675,5 -4,5"/>
<!-- _diagram_info -->
<g id="node1" class="node"><title>_diagram_info</title>
<text text-anchor="start" x="61.6748" y="-373.8" font-family="Times Roman,serif" font-size="13.00">Models diagram</text>
<text text-anchor="start" x="61.6748" y="-356.8" font-family="Times Roman,serif" font-size="13.00">Date: Aug 02 2011 &#45; 13:18</text>
<text text-anchor="start" x="61.6748" y="-339.8" font-family="Times Roman,serif" font-size="13.00">Migration version: 20110802014239</text>
<text text-anchor="start" x="61.6748" y="-322.8" font-family="Times Roman,serif" font-size="13.00">Generated by RailRoady 1.0.2</text>
<text text-anchor="start" x="61.6748" y="-305.8" font-family="Times Roman,serif" font-size="13.00">http://railroady.prestonlee.com</text>
</g>
<!-- Street -->
<g id="node2" class="node"><title>Street</title>
<ellipse fill="none" stroke="black" cx="363.675" cy="-343" rx="41.9273" ry="18.3848"/>
<text text-anchor="middle" x="363.675" y="-339.4" font-family="Times Roman,serif" font-size="14.00">Street</text>
</g>
<!-- Place -->
<g id="node8" class="node"><title>Place</title>
<ellipse fill="none" stroke="black" cx="186.675" cy="-241" rx="36.977" ry="18.3848"/>
<text text-anchor="middle" x="186.675" y="-237.4" font-family="Times Roman,serif" font-size="14.00">Place</text>
</g>
<!-- Street&#45;&gt;Place -->
<g id="edge2" class="edge"><title>Street&#45;&gt;Place</title>
<path fill="none" stroke="black" d="M335.349,-321.619C325.728,-312.919 314.759,-303.232 303.675,-296 278.061,-279.289 246.522,-265.527 222.535,-255.95"/>
<ellipse fill="none" stroke="black" cx="338.499" cy="-324.473" rx="4.00002" ry="4.00002"/>
<ellipse fill="black" stroke="black" cx="218.75" cy="-254.457" rx="4.00001" ry="4.00001"/>
</g>
<!-- Neighborhood -->
<g id="node12" class="node"><title>Neighborhood</title>
<ellipse fill="none" stroke="black" cx="330.675" cy="-19" rx="79.9031" ry="18.3848"/>
<text text-anchor="middle" x="330.675" y="-15.4" font-family="Times Roman,serif" font-size="14.00">Neighborhood</text>
</g>
<!-- Street&#45;&gt;Neighborhood -->
<g id="edge4" class="edge"><title>Street&#45;&gt;Neighborhood</title>
<path fill="none" stroke="black" d="M360.774,-316.278C360.705,-267.452 365.32,-160.849 345.675,-74 343.47,-64.2546 339.549,-54.0918 335.98,-45.1922"/>
<ellipse fill="none" stroke="black" cx="360.81" cy="-320.431" rx="4" ry="4"/>
<ellipse fill="black" stroke="black" cx="334.477" cy="-41.4505" rx="4.00001" ry="4.00001"/>
</g>
<!-- State -->
<g id="node3" class="node"><title>State</title>
<ellipse fill="none" stroke="black" cx="63.6748" cy="-167" rx="38.1838" ry="18.3848"/>
<text text-anchor="middle" x="63.6748" y="-163.4" font-family="Times Roman,serif" font-size="14.00">State</text>
</g>
<!-- City -->
<g id="node5" class="node"><title>City</title>
<ellipse fill="none" stroke="black" cx="38.6748" cy="-93" rx="31.1127" ry="18.3848"/>
<text text-anchor="middle" x="38.6748" y="-89.4" font-family="Times Roman,serif" font-size="14.00">City</text>
</g>
<!-- State&#45;&gt;City -->
<g id="edge12" class="edge"><title>State&#45;&gt;City</title>
<path fill="none" stroke="black" d="M48.6104,-141.505C46.0797,-135.039 43.674,-128.052 41.699,-121.45"/>
<ellipse fill="none" stroke="black" cx="50.2165" cy="-145.39" rx="4.00001" ry="4.00001"/>
<polygon fill="black" stroke="black" points="41.6227,-121.17 43.3358,-110.338 40.3084,-116.345 38.994,-111.521 38.994,-111.521 38.994,-111.521 40.3084,-116.345 34.6523,-112.704 41.6227,-121.17 41.6227,-121.17"/>
</g>
<!-- Country -->
<g id="node7" class="node"><title>Country</title>
<ellipse fill="none" stroke="black" cx="138.675" cy="-93" rx="51.1176" ry="18.3848"/>
<text text-anchor="middle" x="138.675" y="-89.4" font-family="Times Roman,serif" font-size="14.00">Country</text>
</g>
<!-- State&#45;&gt;Country -->
<g id="edge10" class="edge"><title>State&#45;&gt;Country</title>
<path fill="none" stroke="black" d="M81.4128,-143.232C89.9266,-134.276 100.243,-124.129 109.809,-115.311"/>
<ellipse fill="none" stroke="black" cx="78.6804" cy="-146.162" rx="4.00002" ry="4.00002"/>
<ellipse fill="black" stroke="black" cx="112.997" cy="-112.421" rx="4.00002" ry="4.00002"/>
</g>
<!-- State&#45;&gt;Place -->
<g id="edge8" class="edge"><title>State&#45;&gt;Place</title>
<path fill="none" stroke="black" d="M98.2583,-184.307C117.705,-195.311 141.53,-209.595 159.617,-221.072"/>
<ellipse fill="none" stroke="black" cx="94.5303" cy="-182.218" rx="4.00002" ry="4.00002"/>
<ellipse fill="black" stroke="black" cx="163.137" cy="-223.328" rx="4.00002" ry="4.00002"/>
</g>
<!-- PersonType -->
<g id="node4" class="node"><title>PersonType</title>
<ellipse fill="none" stroke="black" cx="490.675" cy="-343" rx="67.1751" ry="18.3848"/>
<text text-anchor="middle" x="490.675" y="-339.4" font-family="Times Roman,serif" font-size="14.00">PersonType</text>
</g>
<!-- Person -->
<g id="node11" class="node"><title>Person</title>
<ellipse fill="none" stroke="black" cx="490.675" cy="-241" rx="44.0472" ry="18.3848"/>
<text text-anchor="middle" x="490.675" y="-237.4" font-family="Times Roman,serif" font-size="14.00">Person</text>
</g>
<!-- PersonType&#45;&gt;Person -->
<g id="edge16" class="edge"><title>PersonType&#45;&gt;Person</title>
<path fill="none" stroke="black" d="M490.675,-316.015C490.675,-301.835 490.675,-284.445 490.675,-269.98"/>
<ellipse fill="none" stroke="black" cx="490.675" cy="-320.292" rx="4" ry="4"/>
<polygon fill="black" stroke="black" points="490.675,-269.59 495.175,-259.59 490.675,-264.59 490.675,-259.59 490.675,-259.59 490.675,-259.59 490.675,-264.59 486.175,-259.59 490.675,-269.59 490.675,-269.59"/>
</g>
<!-- City&#45;&gt;State -->
<g id="edge22" class="edge"><title>City&#45;&gt;State</title>
<path fill="none" stroke="black" d="M53.5293,-117.961C56.3995,-125.242 59.1204,-133.22 61.2497,-140.588"/>
<ellipse fill="none" stroke="black" cx="51.9158" cy="-114.089" rx="4.00002" ry="4.00002"/>
<ellipse fill="black" stroke="black" cx="62.2855" cy="-144.462" rx="4.00001" ry="4.00001"/>
</g>
<!-- City&#45;&gt;Place -->
<g id="edge18" class="edge"><title>City&#45;&gt;Place</title>
<path fill="none" stroke="black" d="M29.356,-119.044C20.5418,-139.044 11.457,-166.457 25.6748,-186 40.1186,-205.854 101.701,-222.184 144.474,-231.757"/>
<ellipse fill="none" stroke="black" cx="31.1355" cy="-115.146" rx="4.00002" ry="4.00002"/>
<ellipse fill="black" stroke="black" cx="148.586" cy="-232.663" rx="4.00001" ry="4.00001"/>
</g>
<!-- City&#45;&gt;Neighborhood -->
<g id="edge20" class="edge"><title>City&#45;&gt;Neighborhood</title>
<path fill="none" stroke="black" d="M69.9872,-77.3065C72.8897,-76.102 75.8146,-74.977 78.6748,-74 136.18,-54.3566 203.53,-40.084 254.129,-31.0079"/>
<ellipse fill="none" stroke="black" cx="66.0788" cy="-79.0241" rx="4.00002" ry="4.00002"/>
<polygon fill="black" stroke="black" points="254.17,-31.0007 264.8,-33.6933 259.094,-30.1313 264.018,-29.2619 264.018,-29.2619 264.018,-29.2619 259.094,-30.1313 263.235,-24.8304 254.17,-31.0007 254.17,-31.0007"/>
</g>
<!-- Email -->
<g id="node6" class="node"><title>Email</title>
<ellipse fill="none" stroke="black" cx="636.675" cy="-241" rx="38.1838" ry="18.3848"/>
<text text-anchor="middle" x="636.675" y="-237.4" font-family="Times Roman,serif" font-size="14.00">Email</text>
</g>
<!-- Country&#45;&gt;State -->
<g id="edge28" class="edge"><title>Country&#45;&gt;State</title>
<path fill="none" stroke="black" d="M120.77,-116.943C112.326,-125.816 102.135,-135.839 92.6673,-144.572"/>
<ellipse fill="none" stroke="black" cx="123.576" cy="-113.937" rx="4.00002" ry="4.00002"/>
<polygon fill="black" stroke="black" points="92.6351,-144.601 82.1989,-147.968 88.9257,-147.954 85.2163,-151.307 85.2163,-151.307 85.2163,-151.307 88.9257,-147.954 88.2338,-154.645 92.6351,-144.601 92.6351,-144.601"/>
</g>
<!-- Country&#45;&gt;Place -->
<g id="edge26" class="edge"><title>Country&#45;&gt;Place</title>
<path fill="none" stroke="black" d="M153.528,-118.83C160.463,-137.562 168.189,-163.456 175.675,-186 178.764,-195.302 182.365,-205.404 185.171,-214.381"/>
<ellipse fill="none" stroke="black" cx="152.049" cy="-115.003" rx="4.00001" ry="4.00001"/>
<ellipse fill="black" stroke="black" cx="186.359" cy="-218.417" rx="4.00001" ry="4.00001"/>
</g>
<!-- Place&#45;&gt;Street -->
<g id="edge6" class="edge"><title>Place&#45;&gt;Street</title>
<path fill="none" stroke="black" d="M219.584,-249.512C248.211,-258.763 289.591,-275.067 321.675,-296 333.977,-304.027 346.137,-315.077 354.521,-324.447"/>
</g>
<!-- Place&#45;&gt;State -->
<g id="edge14" class="edge"><title>Place&#45;&gt;State</title>
<path fill="none" stroke="black" d="M159.983,-228.11C137.219,-215.522 105.205,-196.338 84.3339,-182.829"/>
</g>
<!-- Place&#45;&gt;City -->
<g id="edge24" class="edge"><title>Place&#45;&gt;City</title>
<path fill="none" stroke="black" d="M151.06,-235.663C103.633,-227.095 24.3269,-208.889 7.67475,-186 -9.21117,-162.789 6.77225,-128.478 21.6891,-108.669"/>
</g>
<!-- Place&#45;&gt;Country -->
<g id="edge30" class="edge"><title>Place&#45;&gt;Country</title>
<path fill="none" stroke="black" d="M172.352,-223.748C167.087,-212.953 161.901,-198.728 157.675,-186 149.173,-160.396 140.361,-130.469 137.145,-111.624"/>
</g>
<!-- PlaceType -->
<g id="node9" class="node"><title>PlaceType</title>
<ellipse fill="none" stroke="black" cx="234.675" cy="-167" rx="58.8978" ry="18.3848"/>
<text text-anchor="middle" x="234.675" y="-163.4" font-family="Times Roman,serif" font-size="14.00">PlaceType</text>
</g>
<!-- Place&#45;&gt;PlaceType -->
<g id="edge32" class="edge"><title>Place&#45;&gt;PlaceType</title>
<path fill="none" stroke="black" d="M196.699,-215.609C201.311,-207.851 206.849,-199.337 212.295,-191.631"/>
<ellipse fill="none" stroke="black" cx="194.616" cy="-219.239" rx="4.00002" ry="4.00002"/>
<ellipse fill="black" stroke="black" cx="214.89" cy="-188.062" rx="4.00002" ry="4.00002"/>
</g>
<!-- Place&#45;&gt;Neighborhood -->
<g id="edge42" class="edge"><title>Place&#45;&gt;Neighborhood</title>
<path fill="none" stroke="black" d="M219.281,-232.102C243.572,-224.298 275.334,-210.273 293.675,-186 327.348,-141.436 326.461,-71.0309 327.445,-37.6905"/>
</g>
<!-- PlaceType&#45;&gt;Place -->
<g id="edge34" class="edge"><title>PlaceType&#45;&gt;Place</title>
<path fill="none" stroke="black" d="M224.431,-192.76C219.96,-200.256 214.645,-208.431 209.395,-215.886"/>
<ellipse fill="none" stroke="black" cx="226.59" cy="-189.01" rx="4.00002" ry="4.00002"/>
<polygon fill="black" stroke="black" points="209.219,-216.128 199.691,-221.557 206.273,-220.168 203.328,-224.208 203.328,-224.208 203.328,-224.208 206.273,-220.168 206.964,-226.859 209.219,-216.128 209.219,-216.128"/>
</g>
<!-- EmailType -->
<g id="node10" class="node"><title>EmailType</title>
<ellipse fill="none" stroke="black" cx="636.675" cy="-343" rx="60.8112" ry="18.3848"/>
<text text-anchor="middle" x="636.675" y="-339.4" font-family="Times Roman,serif" font-size="14.00">EmailType</text>
</g>
<!-- EmailType&#45;&gt;Email -->
<g id="edge36" class="edge"><title>EmailType&#45;&gt;Email</title>
<path fill="none" stroke="black" d="M636.675,-316.015C636.675,-301.835 636.675,-284.445 636.675,-269.98"/>
<ellipse fill="none" stroke="black" cx="636.675" cy="-320.292" rx="4" ry="4"/>
<polygon fill="black" stroke="black" points="636.675,-269.59 641.175,-259.59 636.675,-264.59 636.675,-259.59 636.675,-259.59 636.675,-259.59 636.675,-264.59 632.175,-259.59 636.675,-269.59 636.675,-269.59"/>
</g>
<!-- Neighborhood&#45;&gt;Street -->
<g id="edge40" class="edge"><title>Neighborhood&#45;&gt;Street</title>
<path fill="none" stroke="black" d="M352.675,-44.4902C357.341,-53.5551 361.412,-63.9974 363.675,-74 383.075,-159.77 378.816,-264.806 371.623,-314.432"/>
<ellipse fill="none" stroke="black" cx="350.587" cy="-40.7352" rx="4.00002" ry="4.00002"/>
<polygon fill="black" stroke="black" points="371.602,-314.56 365.559,-323.711 370.801,-319.496 370,-324.431 370,-324.431 370,-324.431 370.801,-319.496 374.442,-325.152 371.602,-314.56 371.602,-314.56"/>
</g>
<!-- Neighborhood&#45;&gt;Place -->
<g id="edge38" class="edge"><title>Neighborhood&#45;&gt;Place</title>
<path fill="none" stroke="black" d="M339.363,-45.4199C344.41,-81.0055 342.931,-144.635 311.675,-186 292.352,-211.572 258.135,-225.769 230.258,-233.302"/>
<ellipse fill="none" stroke="black" cx="338.691" cy="-41.374" rx="4.00001" ry="4.00001"/>
<ellipse fill="black" stroke="black" cx="226.086" cy="-234.36" rx="4.00001" ry="4.00001"/>
</g>
</g>
</svg>
