<?xml version="1.0" encoding="UTF-8" standalone="no"?>
<!DOCTYPE svg PUBLIC "-//W3C//DTD SVG 1.1//EN"
 "http://www.w3.org/Graphics/SVG/1.1/DTD/svg11.dtd">
<!-- Generated by graphviz version 2.26.3 (20100126.1600)
 -->
<!-- Title: models_diagram Pages: 1 -->
<svg width="810pt" height="368pt"
 viewBox="0.00 0.00 810.00 368.00" xmlns="http://www.w3.org/2000/svg" xmlns:xlink="http://www.w3.org/1999/xlink">
<g id="graph1" class="graph" transform="scale(1 1) rotate(0) translate(4 364)">
<title>models_diagram</title>
<polygon fill="white" stroke="white" points="-4,5 -4,-364 807,-364 807,5 -4,5"/>
<!-- _diagram_info -->
<g id="node1" class="node"><title>_diagram_info</title>
<text text-anchor="start" x="8" y="-327.8" font-family="Times Roman,serif" font-size="13.00">Models diagram</text>
<text text-anchor="start" x="8" y="-310.8" font-family="Times Roman,serif" font-size="13.00">Date: Aug 01 2011 &#45; 19:22</text>
<text text-anchor="start" x="8" y="-293.8" font-family="Times Roman,serif" font-size="13.00">Migration version: 20110801160851</text>
<text text-anchor="start" x="8" y="-276.8" font-family="Times Roman,serif" font-size="13.00">Generated by RailRoady 1.0.2</text>
<text text-anchor="start" x="8" y="-259.8" font-family="Times Roman,serif" font-size="13.00">http://railroady.prestonlee.com</text>
</g>
<!-- PersonType -->
<g id="node2" class="node"><title>PersonType</title>
<polyline fill="none" stroke="black" points="279.5,-235 420.5,-235 "/>
<path fill="none" stroke="black" d="M420.5,-235C426.5,-235 432.5,-241 432.5,-247"/>
<polyline fill="none" stroke="black" points="432.5,-247 432.5,-347 "/>
<path fill="none" stroke="black" d="M432.5,-347C432.5,-353 426.5,-359 420.5,-359"/>
<polyline fill="none" stroke="black" points="420.5,-359 279.5,-359 "/>
<path fill="none" stroke="black" d="M279.5,-359C273.5,-359 267.5,-353 267.5,-347"/>
<polyline fill="none" stroke="black" points="267.5,-347 267.5,-247 "/>
<path fill="none" stroke="black" d="M267.5,-247C267.5,-241 273.5,-235 279.5,-235"/>
<text text-anchor="middle" x="350" y="-342.4" font-family="Times Roman,serif" font-size="14.00">PersonType</text>
<polyline fill="none" stroke="black" points="267.5,-333 432.5,-333 "/>
<text text-anchor="start" x="275.5" y="-316.4" font-family="Times Roman,serif" font-size="14.00">name :string</text>
<text text-anchor="start" x="275.5" y="-298.4" font-family="Times Roman,serif" font-size="14.00">active :boolean</text>
<text text-anchor="start" x="275.5" y="-280.4" font-family="Times Roman,serif" font-size="14.00">remark :text</text>
<text text-anchor="start" x="275.5" y="-262.4" font-family="Times Roman,serif" font-size="14.00">created_at :datetime</text>
<text text-anchor="start" x="275.5" y="-244.4" font-family="Times Roman,serif" font-size="14.00">updated_at :datetime</text>
</g>
<!-- Person -->
<g id="node7" class="node"><title>Person</title>
<polyline fill="none" stroke="black" points="279.5,-1 420.5,-1 "/>
<path fill="none" stroke="black" d="M420.5,-1C426.5,-1 432.5,-7 432.5,-13"/>
<polyline fill="none" stroke="black" points="432.5,-13 432.5,-185 "/>
<path fill="none" stroke="black" d="M432.5,-185C432.5,-191 426.5,-197 420.5,-197"/>
<polyline fill="none" stroke="black" points="420.5,-197 279.5,-197 "/>
<path fill="none" stroke="black" d="M279.5,-197C273.5,-197 267.5,-191 267.5,-185"/>
<polyline fill="none" stroke="black" points="267.5,-185 267.5,-13 "/>
<path fill="none" stroke="black" d="M267.5,-13C267.5,-7 273.5,-1 279.5,-1"/>
<text text-anchor="middle" x="350" y="-180.4" font-family="Times Roman,serif" font-size="14.00">Person</text>
<polyline fill="none" stroke="black" points="267.5,-171 432.5,-171 "/>
<text text-anchor="start" x="275.5" y="-154.4" font-family="Times Roman,serif" font-size="14.00">first_name :string</text>
<text text-anchor="start" x="275.5" y="-136.4" font-family="Times Roman,serif" font-size="14.00">last_name :string</text>
<text text-anchor="start" x="275.5" y="-118.4" font-family="Times Roman,serif" font-size="14.00">nickname :string</text>
<text text-anchor="start" x="275.5" y="-100.4" font-family="Times Roman,serif" font-size="14.00">birthday :date</text>
<text text-anchor="start" x="275.5" y="-82.4" font-family="Times Roman,serif" font-size="14.00">code :string</text>
<text text-anchor="start" x="275.5" y="-64.4" font-family="Times Roman,serif" font-size="14.00">remark :string</text>
<text text-anchor="start" x="275.5" y="-46.4" font-family="Times Roman,serif" font-size="14.00">active :boolean</text>
<text text-anchor="start" x="275.5" y="-28.4" font-family="Times Roman,serif" font-size="14.00">created_at :datetime</text>
<text text-anchor="start" x="275.5" y="-10.4" font-family="Times Roman,serif" font-size="14.00">updated_at :datetime</text>
</g>
<!-- PersonType&#45;&gt;Person -->
<g id="edge2" class="edge"><title>PersonType&#45;&gt;Person</title>
<path fill="none" stroke="black" d="M350,-226.893C350,-220.561 350,-214.056 350,-207.495"/>
<ellipse fill="none" stroke="black" cx="350" cy="-230.895" rx="4" ry="4"/>
<polygon fill="black" stroke="black" points="350,-207.155 354.5,-197.155 350,-202.155 350,-197.155 350,-197.155 350,-197.155 350,-202.155 345.5,-197.155 350,-207.155 350,-207.155"/>
</g>
<!-- Email -->
<g id="node3" class="node"><title>Email</title>
<polyline fill="none" stroke="black" points="461.5,-28 602.5,-28 "/>
<path fill="none" stroke="black" d="M602.5,-28C608.5,-28 614.5,-34 614.5,-40"/>
<polyline fill="none" stroke="black" points="614.5,-40 614.5,-158 "/>
<path fill="none" stroke="black" d="M614.5,-158C614.5,-164 608.5,-170 602.5,-170"/>
<polyline fill="none" stroke="black" points="602.5,-170 461.5,-170 "/>
<path fill="none" stroke="black" d="M461.5,-170C455.5,-170 449.5,-164 449.5,-158"/>
<polyline fill="none" stroke="black" points="449.5,-158 449.5,-40 "/>
<path fill="none" stroke="black" d="M449.5,-40C449.5,-34 455.5,-28 461.5,-28"/>
<text text-anchor="middle" x="532" y="-153.4" font-family="Times Roman,serif" font-size="14.00">Email</text>
<polyline fill="none" stroke="black" points="449.5,-144 614.5,-144 "/>
<text text-anchor="start" x="457.5" y="-127.4" font-family="Times Roman,serif" font-size="14.00">domain :string</text>
<text text-anchor="start" x="457.5" y="-109.4" font-family="Times Roman,serif" font-size="14.00">name :string</text>
<text text-anchor="start" x="457.5" y="-91.4" font-family="Times Roman,serif" font-size="14.00">active :boolean</text>
<text text-anchor="start" x="457.5" y="-73.4" font-family="Times Roman,serif" font-size="14.00">remark :text</text>
<text text-anchor="start" x="457.5" y="-55.4" font-family="Times Roman,serif" font-size="14.00">created_at :datetime</text>
<text text-anchor="start" x="457.5" y="-37.4" font-family="Times Roman,serif" font-size="14.00">updated_at :datetime</text>
</g>
<!-- Place -->
<g id="node4" class="node"><title>Place</title>
<polyline fill="none" stroke="black" points="644,-19 790,-19 "/>
<path fill="none" stroke="black" d="M790,-19C796,-19 802,-25 802,-31"/>
<polyline fill="none" stroke="black" points="802,-31 802,-167 "/>
<path fill="none" stroke="black" d="M802,-167C802,-173 796,-179 790,-179"/>
<polyline fill="none" stroke="black" points="790,-179 644,-179 "/>
<path fill="none" stroke="black" d="M644,-179C638,-179 632,-173 632,-167"/>
<polyline fill="none" stroke="black" points="632,-167 632,-31 "/>
<path fill="none" stroke="black" d="M632,-31C632,-25 638,-19 644,-19"/>
<text text-anchor="middle" x="717" y="-162.4" font-family="Times Roman,serif" font-size="14.00">Place</text>
<polyline fill="none" stroke="black" points="632,-153 802,-153 "/>
<text text-anchor="start" x="640" y="-136.4" font-family="Times Roman,serif" font-size="14.00">phone_number :string</text>
<text text-anchor="start" x="640" y="-118.4" font-family="Times Roman,serif" font-size="14.00">adress_number :string</text>
<text text-anchor="start" x="640" y="-100.4" font-family="Times Roman,serif" font-size="14.00">name :string</text>
<text text-anchor="start" x="640" y="-82.4" font-family="Times Roman,serif" font-size="14.00">remark :string</text>
<text text-anchor="start" x="640" y="-64.4" font-family="Times Roman,serif" font-size="14.00">active :boolean</text>
<text text-anchor="start" x="640" y="-46.4" font-family="Times Roman,serif" font-size="14.00">created_at :datetime</text>
<text text-anchor="start" x="640" y="-28.4" font-family="Times Roman,serif" font-size="14.00">updated_at :datetime</text>
</g>
<!-- PlaceType -->
<g id="node5" class="node"><title>PlaceType</title>
<polyline fill="none" stroke="black" points="646.5,-235 787.5,-235 "/>
<path fill="none" stroke="black" d="M787.5,-235C793.5,-235 799.5,-241 799.5,-247"/>
<polyline fill="none" stroke="black" points="799.5,-247 799.5,-347 "/>
<path fill="none" stroke="black" d="M799.5,-347C799.5,-353 793.5,-359 787.5,-359"/>
<polyline fill="none" stroke="black" points="787.5,-359 646.5,-359 "/>
<path fill="none" stroke="black" d="M646.5,-359C640.5,-359 634.5,-353 634.5,-347"/>
<polyline fill="none" stroke="black" points="634.5,-347 634.5,-247 "/>
<path fill="none" stroke="black" d="M634.5,-247C634.5,-241 640.5,-235 646.5,-235"/>
<text text-anchor="middle" x="717" y="-342.4" font-family="Times Roman,serif" font-size="14.00">PlaceType</text>
<polyline fill="none" stroke="black" points="634.5,-333 799.5,-333 "/>
<text text-anchor="start" x="642.5" y="-316.4" font-family="Times Roman,serif" font-size="14.00">name :string</text>
<text text-anchor="start" x="642.5" y="-298.4" font-family="Times Roman,serif" font-size="14.00">active :boolean</text>
<text text-anchor="start" x="642.5" y="-280.4" font-family="Times Roman,serif" font-size="14.00">remark :text</text>
<text text-anchor="start" x="642.5" y="-262.4" font-family="Times Roman,serif" font-size="14.00">created_at :datetime</text>
<text text-anchor="start" x="642.5" y="-244.4" font-family="Times Roman,serif" font-size="14.00">updated_at :datetime</text>
</g>
<!-- PlaceType&#45;&gt;Place -->
<g id="edge4" class="edge"><title>PlaceType&#45;&gt;Place</title>
<path fill="none" stroke="black" d="M717,-226.478C717,-214.362 717,-201.624 717,-189.079"/>
<ellipse fill="none" stroke="black" cx="717" cy="-230.895" rx="4" ry="4"/>
<polygon fill="black" stroke="black" points="717,-189.075 721.5,-179.075 717,-184.075 717,-179.075 717,-179.075 717,-179.075 717,-184.075 712.5,-179.075 717,-189.075 717,-189.075"/>
</g>
<!-- EmailType -->
<g id="node6" class="node"><title>EmailType</title>
<polyline fill="none" stroke="black" points="461.5,-235 602.5,-235 "/>
<path fill="none" stroke="black" d="M602.5,-235C608.5,-235 614.5,-241 614.5,-247"/>
<polyline fill="none" stroke="black" points="614.5,-247 614.5,-347 "/>
<path fill="none" stroke="black" d="M614.5,-347C614.5,-353 608.5,-359 602.5,-359"/>
<polyline fill="none" stroke="black" points="602.5,-359 461.5,-359 "/>
<path fill="none" stroke="black" d="M461.5,-359C455.5,-359 449.5,-353 449.5,-347"/>
<polyline fill="none" stroke="black" points="449.5,-347 449.5,-247 "/>
<path fill="none" stroke="black" d="M449.5,-247C449.5,-241 455.5,-235 461.5,-235"/>
<text text-anchor="middle" x="532" y="-342.4" font-family="Times Roman,serif" font-size="14.00">EmailType</text>
<polyline fill="none" stroke="black" points="449.5,-333 614.5,-333 "/>
<text text-anchor="start" x="457.5" y="-316.4" font-family="Times Roman,serif" font-size="14.00">name :string</text>
<text text-anchor="start" x="457.5" y="-298.4" font-family="Times Roman,serif" font-size="14.00">active :boolean</text>
<text text-anchor="start" x="457.5" y="-280.4" font-family="Times Roman,serif" font-size="14.00">remark :text</text>
<text text-anchor="start" x="457.5" y="-262.4" font-family="Times Roman,serif" font-size="14.00">created_at :datetime</text>
<text text-anchor="start" x="457.5" y="-244.4" font-family="Times Roman,serif" font-size="14.00">updated_at :datetime</text>
</g>
<!-- EmailType&#45;&gt;Email -->
<g id="edge6" class="edge"><title>EmailType&#45;&gt;Email</title>
<path fill="none" stroke="black" d="M532,-226.595C532,-211.58 532,-195.605 532,-180.222"/>
<ellipse fill="none" stroke="black" cx="532" cy="-230.895" rx="4" ry="4"/>
<polygon fill="black" stroke="black" points="532,-180.215 536.5,-170.215 532,-175.215 532,-170.215 532,-170.215 532,-170.215 532,-175.215 527.5,-170.215 532,-180.215 532,-180.215"/>
</g>
</g>
</svg>
