<?xml version="1.0" encoding="UTF-8" standalone="no"?>
<!DOCTYPE svg PUBLIC "-//W3C//DTD SVG 1.1//EN"
 "http://www.w3.org/Graphics/SVG/1.1/DTD/svg11.dtd">
<!-- Generated by graphviz version 2.26.3 (20100126.1600)
 -->
<!-- Title: models_diagram Pages: 1 -->
<svg width="686pt" height="176pt"
 viewBox="0.00 0.00 686.00 176.00" xmlns="http://www.w3.org/2000/svg" xmlns:xlink="http://www.w3.org/1999/xlink">
<g id="graph1" class="graph" transform="scale(1 1) rotate(0) translate(4 172)">
<title>models_diagram</title>
<polygon fill="white" stroke="white" points="-4,5 -4,-172 683,-172 683,5 -4,5"/>
<!-- _diagram_info -->
<g id="node1" class="node"><title>_diagram_info</title>
<text text-anchor="start" x="8" y="-151.8" font-family="Times Roman,serif" font-size="13.00">Models diagram</text>
<text text-anchor="start" x="8" y="-134.8" font-family="Times Roman,serif" font-size="13.00">Date: Aug 01 2011 &#45; 19:22</text>
<text text-anchor="start" x="8" y="-117.8" font-family="Times Roman,serif" font-size="13.00">Migration version: 20110801160851</text>
<text text-anchor="start" x="8" y="-100.8" font-family="Times Roman,serif" font-size="13.00">Generated by RailRoady 1.0.2</text>
<text text-anchor="start" x="8" y="-83.8" font-family="Times Roman,serif" font-size="13.00">http://railroady.prestonlee.com</text>
</g>
<!-- PersonType -->
<g id="node2" class="node"><title>PersonType</title>
<ellipse fill="none" stroke="black" cx="335" cy="-121" rx="67.1751" ry="18.3848"/>
<text text-anchor="middle" x="335" y="-117.4" font-family="Times Roman,serif" font-size="14.00">PersonType</text>
</g>
<!-- Person -->
<g id="node7" class="node"><title>Person</title>
<ellipse fill="none" stroke="black" cx="335" cy="-19" rx="44.0472" ry="18.3848"/>
<text text-anchor="middle" x="335" y="-15.4" font-family="Times Roman,serif" font-size="14.00">Person</text>
</g>
<!-- PersonType&#45;&gt;Person -->
<g id="edge2" class="edge"><title>PersonType&#45;&gt;Person</title>
<path fill="none" stroke="black" d="M335,-94.0151C335,-79.8348 335,-62.4446 335,-47.9795"/>
<ellipse fill="none" stroke="black" cx="335" cy="-98.2916" rx="4" ry="4"/>
<polygon fill="black" stroke="black" points="335,-47.5898 339.5,-37.5897 335,-42.5898 335,-37.5898 335,-37.5898 335,-37.5898 335,-42.5898 330.5,-37.5898 335,-47.5898 335,-47.5898"/>
</g>
<!-- Email -->
<g id="node3" class="node"><title>Email</title>
<ellipse fill="none" stroke="black" cx="481" cy="-19" rx="38.1838" ry="18.3848"/>
<text text-anchor="middle" x="481" y="-15.4" font-family="Times Roman,serif" font-size="14.00">Email</text>
</g>
<!-- Place -->
<g id="node4" class="node"><title>Place</title>
<ellipse fill="none" stroke="black" cx="619" cy="-19" rx="36.977" ry="18.3848"/>
<text text-anchor="middle" x="619" y="-15.4" font-family="Times Roman,serif" font-size="14.00">Place</text>
</g>
<!-- PlaceType -->
<g id="node5" class="node"><title>PlaceType</title>
<ellipse fill="none" stroke="black" cx="619" cy="-121" rx="58.8978" ry="18.3848"/>
<text text-anchor="middle" x="619" y="-117.4" font-family="Times Roman,serif" font-size="14.00">PlaceType</text>
</g>
<!-- PlaceType&#45;&gt;Place -->
<g id="edge4" class="edge"><title>PlaceType&#45;&gt;Place</title>
<path fill="none" stroke="black" d="M619,-94.0151C619,-79.8348 619,-62.4446 619,-47.9795"/>
<ellipse fill="none" stroke="black" cx="619" cy="-98.2916" rx="4" ry="4"/>
<polygon fill="black" stroke="black" points="619,-47.5898 623.5,-37.5897 619,-42.5898 619,-37.5898 619,-37.5898 619,-37.5898 619,-42.5898 614.5,-37.5898 619,-47.5898 619,-47.5898"/>
</g>
<!-- EmailType -->
<g id="node6" class="node"><title>EmailType</title>
<ellipse fill="none" stroke="black" cx="481" cy="-121" rx="60.8112" ry="18.3848"/>
<text text-anchor="middle" x="481" y="-117.4" font-family="Times Roman,serif" font-size="14.00">EmailType</text>
</g>
<!-- EmailType&#45;&gt;Email -->
<g id="edge6" class="edge"><title>EmailType&#45;&gt;Email</title>
<path fill="none" stroke="black" d="M481,-94.0151C481,-79.8348 481,-62.4446 481,-47.9795"/>
<ellipse fill="none" stroke="black" cx="481" cy="-98.2916" rx="4" ry="4"/>
<polygon fill="black" stroke="black" points="481,-47.5898 485.5,-37.5897 481,-42.5898 481,-37.5898 481,-37.5898 481,-37.5898 481,-42.5898 476.5,-37.5898 481,-47.5898 481,-47.5898"/>
</g>
</g>
</svg>
