<?xml version="1.0" encoding="UTF-8" standalone="no"?>
<!DOCTYPE svg PUBLIC "-//W3C//DTD SVG 1.1//EN"
 "http://www.w3.org/Graphics/SVG/1.1/DTD/svg11.dtd">
<!-- Generated by graphviz version 2.26.3 (20100126.1600)
 -->
<!-- Title: models_diagram Pages: 1 -->
<svg width="2120pt" height="562pt"
 viewBox="0.00 0.00 2120.00 562.00" xmlns="http://www.w3.org/2000/svg" xmlns:xlink="http://www.w3.org/1999/xlink">
<g id="graph1" class="graph" transform="scale(1 1) rotate(0) translate(4 558)">
<title>models_diagram</title>
<polygon fill="white" stroke="white" points="-4,5 -4,-558 2117,-558 2117,5 -4,5"/>
<!-- _diagram_info -->
<g id="node1" class="node"><title>_diagram_info</title>
<text text-anchor="start" x="8" y="-537.8" font-family="Times Roman,serif" font-size="13.00">Models diagram</text>
<text text-anchor="start" x="8" y="-520.8" font-family="Times Roman,serif" font-size="13.00">Date: Aug 12 2011 &#45; 23:38</text>
<text text-anchor="start" x="8" y="-503.8" font-family="Times Roman,serif" font-size="13.00">Migration version: 20110813022628</text>
<text text-anchor="start" x="8" y="-486.8" font-family="Times Roman,serif" font-size="13.00">Generated by RailRoady 1.0.2</text>
<text text-anchor="start" x="8" y="-469.8" font-family="Times Roman,serif" font-size="13.00">http://railroady.prestonlee.com</text>
</g>
<!-- Taxe::Group -->
<g id="node2" class="node"><title>Taxe::Group</title>
<ellipse fill="none" stroke="black" cx="338" cy="-507" rx="70.0036" ry="18.3848"/>
<text text-anchor="middle" x="338" y="-503.4" font-family="Times Roman,serif" font-size="14.00">Taxe::Group</text>
</g>
<!-- Taxe::Type -->
<g id="node4" class="node"><title>Taxe::Type</title>
<ellipse fill="none" stroke="black" cx="338" cy="-387" rx="62.2254" ry="18.3848"/>
<text text-anchor="middle" x="338" y="-383.4" font-family="Times Roman,serif" font-size="14.00">Taxe::Type</text>
</g>
<!-- Taxe::Group&#45;&gt;Taxe::Type -->
<g id="edge2" class="edge"><title>Taxe::Group&#45;&gt;Taxe::Type</title>
<path fill="none" stroke="black" d="M338,-480.053C338,-460.923 338,-435.278 338,-415.755"/>
<ellipse fill="none" stroke="black" cx="338" cy="-484.25" rx="4" ry="4"/>
<polygon fill="black" stroke="black" points="338,-415.618 342.5,-405.618 338,-410.618 338,-405.618 338,-405.618 338,-405.618 338,-410.618 333.5,-405.618 338,-415.618 338,-415.618"/>
</g>
<!-- Taxe::Value -->
<g id="node3" class="node"><title>Taxe::Value</title>
<ellipse fill="none" stroke="black" cx="338" cy="-295" rx="67.1751" ry="18.3848"/>
<text text-anchor="middle" x="338" y="-291.4" font-family="Times Roman,serif" font-size="14.00">Taxe::Value</text>
</g>
<!-- Taxe::Type&#45;&gt;Taxe::Value -->
<g id="edge4" class="edge"><title>Taxe::Type&#45;&gt;Taxe::Value</title>
<path fill="none" stroke="black" d="M338,-360.029C338,-348.599 338,-335.267 338,-323.66"/>
<ellipse fill="none" stroke="black" cx="338" cy="-364.382" rx="4" ry="4"/>
<polygon fill="black" stroke="black" points="338,-323.59 342.5,-313.59 338,-318.59 338,-313.59 338,-313.59 338,-313.59 338,-318.59 333.5,-313.59 338,-323.59 338,-323.59"/>
</g>
<!-- Email -->
<g id="node5" class="node"><title>Email</title>
<polygon fill="none" stroke="black" stroke-dasharray="1,5" points="480,-525 426,-525 426,-489 480,-489 480,-525"/>
<text text-anchor="middle" x="453" y="-503.4" font-family="Times Roman,serif" font-size="14.00">Email</text>
</g>
<!-- Transaction::Record -->
<g id="node6" class="node"><title>Transaction::Record</title>
<ellipse fill="none" stroke="black" cx="605" cy="-507" rx="106.773" ry="18.3848"/>
<text text-anchor="middle" x="605" y="-503.4" font-family="Times Roman,serif" font-size="14.00">Transaction::Record</text>
</g>
<!-- Transaction::Participant -->
<g id="node7" class="node"><title>Transaction::Participant</title>
<ellipse fill="none" stroke="black" cx="605" cy="-387" rx="126.072" ry="18.3848"/>
<text text-anchor="middle" x="605" y="-383.4" font-family="Times Roman,serif" font-size="14.00">Transaction::Participant</text>
</g>
<!-- Transaction::Record&#45;&gt;Transaction::Participant -->
<g id="edge6" class="edge"><title>Transaction::Record&#45;&gt;Transaction::Participant</title>
<path fill="none" stroke="black" d="M605,-480.053C605,-460.923 605,-435.278 605,-415.755"/>
<ellipse fill="none" stroke="black" cx="605" cy="-484.25" rx="4" ry="4"/>
<polygon fill="black" stroke="black" points="605,-415.618 609.5,-405.618 605,-410.618 605,-405.618 605,-405.618 605,-405.618 605,-410.618 600.5,-405.618 605,-415.618 605,-415.618"/>
<text text-anchor="middle" x="642.5" y="-429.4" font-family="Times Roman,serif" font-size="14.00">Participant</text>
</g>
<!-- Participant::Person -->
<g id="node20" class="node"><title>Participant::Person</title>
<ellipse fill="none" stroke="black" cx="605" cy="-295" rx="103.238" ry="18.3848"/>
<text text-anchor="middle" x="605" y="-291.4" font-family="Times Roman,serif" font-size="14.00">Participant::Person</text>
</g>
<!-- Transaction::Participant&#45;&gt;Participant::Person -->
<g id="edge8" class="edge"><title>Transaction::Participant&#45;&gt;Participant::Person</title>
<path fill="none" stroke="black" d="M605,-360.029C605,-348.016 605,-333.902 605,-321.898"/>
<ellipse fill="none" stroke="black" cx="605" cy="-364.382" rx="4" ry="4"/>
<ellipse fill="black" stroke="black" cx="605" cy="-317.59" rx="4" ry="4"/>
<text text-anchor="middle" x="628.5" y="-337.4" font-family="Times Roman,serif" font-size="14.00">Person</text>
</g>
<!-- Address::Street -->
<g id="node8" class="node"><title>Address::Street</title>
<ellipse fill="none" stroke="black" cx="1270" cy="-19" rx="86.9741" ry="18.3848"/>
<text text-anchor="middle" x="1270" y="-15.4" font-family="Times Roman,serif" font-size="14.00">Address::Street</text>
</g>
<!-- Address::State -->
<g id="node9" class="node"><title>Address::State</title>
<ellipse fill="none" stroke="black" cx="1306" cy="-295" rx="82.2301" ry="18.3848"/>
<text text-anchor="middle" x="1306" y="-291.4" font-family="Times Roman,serif" font-size="14.00">Address::State</text>
</g>
<!-- Address::City -->
<g id="node10" class="node"><title>Address::City</title>
<ellipse fill="none" stroke="black" cx="1306" cy="-203" rx="75.1594" ry="18.3848"/>
<text text-anchor="middle" x="1306" y="-199.4" font-family="Times Roman,serif" font-size="14.00">Address::City</text>
</g>
<!-- Address::State&#45;&gt;Address::City -->
<g id="edge12" class="edge"><title>Address::State&#45;&gt;Address::City</title>
<path fill="none" stroke="black" d="M1306,-268.029C1306,-256.599 1306,-243.267 1306,-231.66"/>
<ellipse fill="none" stroke="black" cx="1306" cy="-272.382" rx="4" ry="4"/>
<polygon fill="black" stroke="black" points="1306,-231.59 1310.5,-221.59 1306,-226.59 1306,-221.59 1306,-221.59 1306,-221.59 1306,-226.59 1301.5,-221.59 1306,-231.59 1306,-231.59"/>
</g>
<!-- Address::Neighborhood -->
<g id="node13" class="node"><title>Address::Neighborhood</title>
<ellipse fill="none" stroke="black" cx="1270" cy="-111" rx="123.951" ry="18.3848"/>
<text text-anchor="middle" x="1270" y="-107.4" font-family="Times Roman,serif" font-size="14.00">Address::Neighborhood</text>
</g>
<!-- Address::City&#45;&gt;Address::Neighborhood -->
<g id="edge16" class="edge"><title>Address::City&#45;&gt;Address::Neighborhood</title>
<path fill="none" stroke="black" d="M1295.77,-176.863C1291.16,-165.081 1285.71,-151.147 1281.01,-139.137"/>
<ellipse fill="none" stroke="black" cx="1297.26" cy="-180.657" rx="4.00001" ry="4.00001"/>
<polygon fill="black" stroke="black" points="1280.92,-138.902 1281.46,-127.95 1279.1,-134.246 1277.27,-129.59 1277.27,-129.59 1277.27,-129.59 1279.1,-134.246 1273.08,-131.23 1280.92,-138.902 1280.92,-138.902"/>
</g>
<!-- Address::Country -->
<g id="node11" class="node"><title>Address::Country</title>
<ellipse fill="none" stroke="black" cx="1318" cy="-387" rx="96.1665" ry="18.3848"/>
<text text-anchor="middle" x="1318" y="-383.4" font-family="Times Roman,serif" font-size="14.00">Address::Country</text>
</g>
<!-- Address::Country&#45;&gt;Address::State -->
<g id="edge20" class="edge"><title>Address::Country&#45;&gt;Address::State</title>
<path fill="none" stroke="black" d="M1314.54,-360.447C1313.04,-348.958 1311.28,-335.485 1309.75,-323.76"/>
<ellipse fill="none" stroke="black" cx="1315.05" cy="-364.416" rx="4.00001" ry="4.00001"/>
<polygon fill="black" stroke="black" points="1309.72,-323.506 1312.89,-313.008 1309.07,-318.548 1308.42,-313.59 1308.42,-313.59 1308.42,-313.59 1309.07,-318.548 1303.96,-314.172 1309.72,-323.506 1309.72,-323.506"/>
</g>
<!-- Address::Place -->
<g id="node12" class="node"><title>Address::Place</title>
<ellipse fill="none" stroke="black" cx="1194" cy="-507" rx="82.0244" ry="18.3848"/>
<text text-anchor="middle" x="1194" y="-503.4" font-family="Times Roman,serif" font-size="14.00">Address::Place</text>
</g>
<!-- Address::Place&#45;&gt;Address::Street -->
<g id="edge10" class="edge"><title>Address::Place&#45;&gt;Address::Street</title>
<path fill="none" stroke="black" d="M1173.23,-488.896C1150.73,-467.162 1118,-428.429 1118,-387 1118,-387 1118,-387 1118,-111 1118,-67.3527 1164.44,-43.8487 1205.98,-31.5552"/>
</g>
<!-- Address::Place&#45;&gt;Address::State -->
<g id="edge14" class="edge"><title>Address::Place&#45;&gt;Address::State</title>
<path fill="none" stroke="black" d="M1192.29,-488.047C1190.65,-459.894 1191.07,-406.245 1213,-368 1226.88,-343.783 1252.26,-324.694 1273.01,-312.119"/>
</g>
<!-- Address::Place&#45;&gt;Address::City -->
<g id="edge18" class="edge"><title>Address::Place&#45;&gt;Address::City</title>
<path fill="none" stroke="black" d="M1225.19,-489.871C1242.58,-480.582 1264.75,-469.162 1285,-460 1345.01,-432.852 1385.87,-460.399 1423,-406 1443.67,-375.711 1409.75,-295.249 1397,-276 1381.45,-252.53 1355.96,-233.025 1335.91,-220.099"/>
</g>
<!-- Address::Place&#45;&gt;Address::Country -->
<g id="edge22" class="edge"><title>Address::Place&#45;&gt;Address::Country</title>
<path fill="none" stroke="black" d="M1212.83,-488.775C1236.14,-466.22 1275.6,-428.03 1298.99,-405.397"/>
</g>
<!-- Address::Place&#45;&gt;Address::Neighborhood -->
<g id="edge26" class="edge"><title>Address::Place&#45;&gt;Address::Neighborhood</title>
<path fill="none" stroke="black" d="M1184.21,-488.456C1172.95,-465.357 1156,-424.369 1156,-387 1156,-387 1156,-387 1156,-203 1156,-167.013 1190.83,-142.701 1221.98,-128.152"/>
</g>
<!-- Address::Neighborhood&#45;&gt;Address::Street -->
<g id="edge24" class="edge"><title>Address::Neighborhood&#45;&gt;Address::Street</title>
<path fill="none" stroke="black" d="M1270,-84.029C1270,-72.5994 1270,-59.2671 1270,-47.6601"/>
<ellipse fill="none" stroke="black" cx="1270" cy="-88.3824" rx="4" ry="4"/>
<polygon fill="black" stroke="black" points="1270,-47.5899 1274.5,-37.5898 1270,-42.5899 1270,-37.5899 1270,-37.5899 1270,-37.5899 1270,-42.5899 1265.5,-37.5899 1270,-47.5899 1270,-47.5899"/>
</g>
<!-- Taxe -->
<g id="node14" class="node"><title>Taxe</title>
<polygon fill="none" stroke="black" stroke-dasharray="1,5" points="1348,-525 1294,-525 1294,-489 1348,-489 1348,-525"/>
<text text-anchor="middle" x="1321" y="-503.4" font-family="Times Roman,serif" font-size="14.00">Taxe</text>
</g>
<!-- Financier::Note -->
<g id="node15" class="node"><title>Financier::Note</title>
<ellipse fill="none" stroke="black" cx="1451" cy="-507" rx="85.0596" ry="18.3848"/>
<text text-anchor="middle" x="1451" y="-503.4" font-family="Times Roman,serif" font-size="14.00">Financier::Note</text>
</g>
<!-- Participant -->
<g id="node16" class="node"><title>Participant</title>
<polygon fill="none" stroke="black" stroke-dasharray="1,5" points="1644,-525 1554,-525 1554,-489 1644,-489 1644,-525"/>
<text text-anchor="middle" x="1599" y="-503.4" font-family="Times Roman,serif" font-size="14.00">Participant</text>
</g>
<!-- Financier -->
<g id="node17" class="node"><title>Financier</title>
<polygon fill="none" stroke="black" stroke-dasharray="1,5" points="1740,-525 1662,-525 1662,-489 1740,-489 1740,-525"/>
<text text-anchor="middle" x="1701" y="-503.4" font-family="Times Roman,serif" font-size="14.00">Financier</text>
</g>
<!-- Transaction -->
<g id="node18" class="node"><title>Transaction</title>
<polygon fill="none" stroke="black" stroke-dasharray="1,5" points="1852,-525 1758,-525 1758,-489 1852,-489 1852,-525"/>
<text text-anchor="middle" x="1805" y="-503.4" font-family="Times Roman,serif" font-size="14.00">Transaction</text>
</g>
<!-- Participant::Contact -->
<g id="node19" class="node"><title>Participant::Contact</title>
<polygon fill="none" stroke="black" stroke-dasharray="1,5" points="2024,-525 1870,-525 1870,-489 2024,-489 2024,-525"/>
<text text-anchor="middle" x="1947" y="-503.4" font-family="Times Roman,serif" font-size="14.00">Participant::Contact</text>
</g>
<!-- Participant::Contact::Email -->
<g id="node21" class="node"><title>Participant::Contact::Email</title>
<ellipse fill="none" stroke="black" cx="949" cy="-203" rx="140.922" ry="18.3848"/>
<text text-anchor="middle" x="949" y="-199.4" font-family="Times Roman,serif" font-size="14.00">Participant::Contact::Email</text>
</g>
<!-- Participant::Person&#45;&gt;Participant::Contact::Email -->
<g id="edge30" class="edge"><title>Participant::Person&#45;&gt;Participant::Contact::Email</title>
<path fill="none" stroke="black" d="M641.048,-273.228C661.723,-261.671 688.554,-248.2 714,-240 737.077,-232.563 788.418,-224.165 837.243,-217.252"/>
<ellipse fill="none" stroke="black" cx="637.484" cy="-275.251" rx="4.00002" ry="4.00002"/>
<polygon fill="black" stroke="black" points="837.385,-217.232 847.913,-220.302 842.337,-216.539 847.288,-215.845 847.288,-215.845 847.288,-215.845 842.337,-216.539 846.664,-211.389 837.385,-217.232 837.385,-217.232"/>
<text text-anchor="middle" x="733" y="-245.4" font-family="Times Roman,serif" font-size="14.00">Email</text>
</g>
<!-- Participant::Contact::Addres -->
<g id="node41" class="node"><title>Participant::Contact::Addres</title>
<ellipse fill="none" stroke="black" cx="460" cy="-203" rx="147.992" ry="18.3848"/>
<text text-anchor="middle" x="460" y="-199.4" font-family="Times Roman,serif" font-size="14.00">Participant::Contact::Addres</text>
</g>
<!-- Participant::Person&#45;&gt;Participant::Contact::Addres -->
<g id="edge28" class="edge"><title>Participant::Person&#45;&gt;Participant::Contact::Addres</title>
<path fill="none" stroke="black" d="M569.91,-272.736C547.943,-258.798 519.665,-240.857 497.294,-226.662"/>
<ellipse fill="none" stroke="black" cx="573.321" cy="-274.9" rx="4.00002" ry="4.00002"/>
<polygon fill="black" stroke="black" points="497.17,-226.584 491.137,-217.426 492.948,-223.905 488.726,-221.226 488.726,-221.226 488.726,-221.226 492.948,-223.905 486.315,-225.026 497.17,-226.584 497.17,-226.584"/>
<text text-anchor="middle" x="573.5" y="-245.4" font-family="Times Roman,serif" font-size="14.00">Address</text>
</g>
<!-- Email::User -->
<g id="node25" class="node"><title>Email::User</title>
<ellipse fill="none" stroke="black" cx="828" cy="-111" rx="67.1751" ry="18.3848"/>
<text text-anchor="middle" x="828" y="-107.4" font-family="Times Roman,serif" font-size="14.00">Email::User</text>
</g>
<!-- Participant::Contact::Email&#45;&gt;Email::User -->
<g id="edge32" class="edge"><title>Participant::Contact::Email&#45;&gt;Email::User</title>
<path fill="none" stroke="black" d="M918.241,-179.613C899.574,-165.42 875.88,-147.404 857.454,-133.395"/>
<ellipse fill="none" stroke="black" cx="921.621" cy="-182.183" rx="4.00002" ry="4.00002"/>
<ellipse fill="black" stroke="black" cx="854.108" cy="-130.851" rx="4.00002" ry="4.00002"/>
<text text-anchor="middle" x="915" y="-153.4" font-family="Times Roman,serif" font-size="14.00">User</text>
</g>
<!-- Participant::Contact::Type -->
<g id="node22" class="node"><title>Participant::Contact::Type</title>
<ellipse fill="none" stroke="black" cx="892" cy="-295" rx="137.179" ry="18.3848"/>
<text text-anchor="middle" x="892" y="-291.4" font-family="Times Roman,serif" font-size="14.00">Participant::Contact::Type</text>
</g>
<!-- Participant::Contact::Type&#45;&gt;Participant::Contact::Email -->
<g id="edge36" class="edge"><title>Participant::Contact::Type&#45;&gt;Participant::Contact::Email</title>
<path fill="none" stroke="black" d="M907.937,-269.277C915.492,-257.083 924.519,-242.513 932.183,-230.143"/>
<ellipse fill="none" stroke="black" cx="905.642" cy="-272.982" rx="4.00002" ry="4.00002"/>
<polygon fill="black" stroke="black" points="932.216,-230.091 941.308,-223.96 934.849,-225.84 937.482,-221.59 937.482,-221.59 937.482,-221.59 934.849,-225.84 933.657,-219.22 932.216,-230.091 932.216,-230.091"/>
<text text-anchor="middle" x="944" y="-245.4" font-family="Times Roman,serif" font-size="14.00">Email</text>
</g>
<!-- Participant::Contact::Type&#45;&gt;Participant::Contact::Addres -->
<g id="edge34" class="edge"><title>Participant::Contact::Type&#45;&gt;Participant::Contact::Addres</title>
<path fill="none" stroke="black" d="M846.844,-273.948C819.868,-262.216 784.608,-248.333 752,-240 743.22,-237.756 654.482,-226.635 577.111,-217.165"/>
<ellipse fill="none" stroke="black" cx="850.563" cy="-275.584" rx="4.00002" ry="4.00002"/>
<polygon fill="black" stroke="black" points="576.693,-217.114 567.313,-211.434 571.73,-216.507 566.767,-215.9 566.767,-215.9 566.767,-215.9 571.73,-216.507 566.22,-220.367 576.693,-217.114 576.693,-217.114"/>
<text text-anchor="middle" x="834.5" y="-245.4" font-family="Times Roman,serif" font-size="14.00">Address</text>
</g>
<!-- Participant::Contact::Address -->
<g id="node23" class="node"><title>Participant::Contact::Address</title>
<ellipse fill="none" stroke="black" cx="1565" cy="-111" rx="152.942" ry="18.3848"/>
<text text-anchor="middle" x="1565" y="-107.4" font-family="Times Roman,serif" font-size="14.00">Participant::Contact::Address</text>
</g>
<!-- Participant::Contact::Address&#45;&gt;Address::Street -->
<g id="edge38" class="edge"><title>Participant::Contact::Address&#45;&gt;Address::Street</title>
<path fill="none" stroke="black" d="M1501.63,-91.2386C1449.83,-75.0841 1377.24,-52.4428 1327.19,-36.8348"/>
<ellipse fill="none" stroke="black" cx="1505.69" cy="-92.5046" rx="4.00001" ry="4.00001"/>
<ellipse fill="black" stroke="black" cx="1323.17" cy="-35.5832" rx="4.00001" ry="4.00001"/>
<text text-anchor="middle" x="1465" y="-61.4" font-family="Times Roman,serif" font-size="14.00">Street</text>
</g>
<!-- Email::Domain -->
<g id="node24" class="node"><title>Email::Domain</title>
<ellipse fill="none" stroke="black" cx="708" cy="-203" rx="82.0244" ry="18.3848"/>
<text text-anchor="middle" x="708" y="-199.4" font-family="Times Roman,serif" font-size="14.00">Email::Domain</text>
</g>
<!-- Email::Domain&#45;&gt;Email::User -->
<g id="edge40" class="edge"><title>Email::Domain&#45;&gt;Email::User</title>
<path fill="none" stroke="black" d="M737.922,-180.06C755.942,-166.244 778.845,-148.686 797.047,-134.731"/>
<ellipse fill="none" stroke="black" cx="734.597" cy="-182.609" rx="4.00002" ry="4.00002"/>
<polygon fill="black" stroke="black" points="797.109,-134.683 807.783,-132.17 801.077,-131.641 805.045,-128.599 805.045,-128.599 805.045,-128.599 801.077,-131.641 802.307,-125.028 797.109,-134.683 797.109,-134.683"/>
<text text-anchor="middle" x="795" y="-153.4" font-family="Times Roman,serif" font-size="14.00">User</text>
</g>
<!-- Address -->
<g id="node26" class="node"><title>Address</title>
<polygon fill="none" stroke="black" stroke-dasharray="1,5" points="2112,-525 2042,-525 2042,-489 2112,-489 2112,-525"/>
<text text-anchor="middle" x="2077" y="-503.4" font-family="Times Roman,serif" font-size="14.00">Address</text>
</g>
</g>
</svg>
