<?xml version="1.0" encoding="UTF-8" standalone="no"?>
<!DOCTYPE svg PUBLIC "-//W3C//DTD SVG 1.1//EN"
 "http://www.w3.org/Graphics/SVG/1.1/DTD/svg11.dtd">
<!-- Generated by graphviz version 2.26.3 (20100126.1600)
 -->
<!-- Title: models_diagram Pages: 1 -->
<svg width="3833pt" height="750pt"
 viewBox="0.00 0.00 3833.00 750.00" xmlns="http://www.w3.org/2000/svg" xmlns:xlink="http://www.w3.org/1999/xlink">
<g id="graph1" class="graph" transform="scale(1 1) rotate(0) translate(4 746)">
<title>models_diagram</title>
<polygon fill="white" stroke="white" points="-4,5 -4,-746 3830,-746 3830,5 -4,5"/>
<!-- _diagram_info -->
<g id="node1" class="node"><title>_diagram_info</title>
<text text-anchor="start" x="1963" y="-725.8" font-family="Times Roman,serif" font-size="13.00">Models diagram</text>
<text text-anchor="start" x="1963" y="-708.8" font-family="Times Roman,serif" font-size="13.00">Date: Aug 24 2011 &#45; 18:42</text>
<text text-anchor="start" x="1963" y="-691.8" font-family="Times Roman,serif" font-size="13.00">Migration version: 20110823161326</text>
<text text-anchor="start" x="1963" y="-674.8" font-family="Times Roman,serif" font-size="13.00">Generated by RailRoady 1.0.2</text>
<text text-anchor="start" x="1963" y="-657.8" font-family="Times Roman,serif" font-size="13.00">http://railroady.prestonlee.com</text>
</g>
<!-- Taxe::Group -->
<g id="node2" class="node"><title>Taxe::Group</title>
<ellipse fill="none" stroke="black" cx="132" cy="-407" rx="70.0036" ry="18.3848"/>
<text text-anchor="middle" x="132" y="-403.4" font-family="Times Roman,serif" font-size="14.00">Taxe::Group</text>
</g>
<!-- Taxe::Type -->
<g id="node4" class="node"><title>Taxe::Type</title>
<ellipse fill="none" stroke="black" cx="132" cy="-315" rx="62.2254" ry="18.3848"/>
<text text-anchor="middle" x="132" y="-311.4" font-family="Times Roman,serif" font-size="14.00">Taxe::Type</text>
</g>
<!-- Taxe::Group&#45;&gt;Taxe::Type -->
<g id="edge2" class="edge"><title>Taxe::Group&#45;&gt;Taxe::Type</title>
<path fill="none" stroke="black" d="M132,-380.029C132,-368.599 132,-355.267 132,-343.66"/>
<ellipse fill="none" stroke="black" cx="132" cy="-384.382" rx="4" ry="4"/>
<polygon fill="black" stroke="black" points="132,-343.59 136.5,-333.59 132,-338.59 132,-333.59 132,-333.59 132,-333.59 132,-338.59 127.5,-333.59 132,-343.59 132,-343.59"/>
<text text-anchor="middle" x="148" y="-357.4" font-family="Times Roman,serif" font-size="14.00">Type</text>
</g>
<!-- Taxe::Value -->
<g id="node3" class="node"><title>Taxe::Value</title>
<ellipse fill="none" stroke="black" cx="132" cy="-223" rx="67.1751" ry="18.3848"/>
<text text-anchor="middle" x="132" y="-219.4" font-family="Times Roman,serif" font-size="14.00">Taxe::Value</text>
</g>
<!-- Transaction::Goods::Taxe -->
<g id="node15" class="node"><title>Transaction::Goods::Taxe</title>
<ellipse fill="none" stroke="black" cx="132" cy="-111" rx="132.229" ry="18.3848"/>
<text text-anchor="middle" x="132" y="-107.4" font-family="Times Roman,serif" font-size="14.00">Transaction::Goods::Taxe</text>
</g>
<!-- Taxe::Value&#45;&gt;Transaction::Goods::Taxe -->
<g id="edge4" class="edge"><title>Taxe::Value&#45;&gt;Transaction::Goods::Taxe</title>
<path fill="none" stroke="black" d="M132,-196.242C132,-178.632 132,-155.661 132,-138.003"/>
<ellipse fill="none" stroke="black" cx="132" cy="-200.254" rx="4" ry="4"/>
<ellipse fill="black" stroke="black" cx="132" cy="-133.807" rx="4" ry="4"/>
<text text-anchor="middle" x="147.5" y="-163.4" font-family="Times Roman,serif" font-size="14.00">Taxe</text>
</g>
<!-- Taxe::Type&#45;&gt;Taxe::Value -->
<g id="edge6" class="edge"><title>Taxe::Type&#45;&gt;Taxe::Value</title>
<path fill="none" stroke="black" d="M132,-288.029C132,-276.599 132,-263.267 132,-251.66"/>
<ellipse fill="none" stroke="black" cx="132" cy="-292.382" rx="4" ry="4"/>
<polygon fill="black" stroke="black" points="132,-251.59 136.5,-241.59 132,-246.59 132,-241.59 132,-241.59 132,-241.59 132,-246.59 127.5,-241.59 132,-251.59 132,-251.59"/>
<text text-anchor="middle" x="155" y="-265.4" font-family="Times Roman,serif" font-size="14.00">Values</text>
</g>
<!-- Goods -->
<g id="node5" class="node"><title>Goods</title>
<polygon fill="none" stroke="black" stroke-dasharray="1,5" points="2463,-713 2405,-713 2405,-677 2463,-677 2463,-713"/>
<text text-anchor="middle" x="2434" y="-691.4" font-family="Times Roman,serif" font-size="14.00">Goods</text>
</g>
<!-- Email -->
<g id="node6" class="node"><title>Email</title>
<polygon fill="none" stroke="black" stroke-dasharray="1,5" points="2535,-713 2481,-713 2481,-677 2535,-677 2535,-713"/>
<text text-anchor="middle" x="2508" y="-691.4" font-family="Times Roman,serif" font-size="14.00">Email</text>
</g>
<!-- Transaction::Goods -->
<g id="node7" class="node"><title>Transaction::Goods</title>
<polygon fill="none" stroke="black" stroke-dasharray="1,5" points="2699,-713 2553,-713 2553,-677 2699,-677 2699,-713"/>
<text text-anchor="middle" x="2626" y="-691.4" font-family="Times Roman,serif" font-size="14.00">Transaction::Goods</text>
</g>
<!-- Transaction::Xml -->
<g id="node8" class="node"><title>Transaction::Xml</title>
<ellipse fill="none" stroke="black" cx="927" cy="-223" rx="92.1303" ry="18.3848"/>
<text text-anchor="middle" x="927" y="-219.4" font-family="Times Roman,serif" font-size="14.00">Transaction::Xml</text>
</g>
<!-- Transaction::Record -->
<g id="node9" class="node"><title>Transaction::Record</title>
<ellipse fill="none" stroke="black" cx="927" cy="-315" rx="106.773" ry="18.3848"/>
<text text-anchor="middle" x="927" y="-311.4" font-family="Times Roman,serif" font-size="14.00">Transaction::Record</text>
</g>
<!-- Transaction::Record&#45;&gt;Transaction::Xml -->
<g id="edge8" class="edge"><title>Transaction::Record&#45;&gt;Transaction::Xml</title>
<path fill="none" stroke="black" d="M927,-288.029C927,-276.016 927,-261.902 927,-249.898"/>
<ellipse fill="none" stroke="black" cx="927" cy="-292.382" rx="4" ry="4"/>
<ellipse fill="black" stroke="black" cx="927" cy="-245.59" rx="4" ry="4"/>
<text text-anchor="middle" x="941" y="-265.4" font-family="Times Roman,serif" font-size="14.00">Xml</text>
</g>
<!-- Transaction::Taxe -->
<g id="node10" class="node"><title>Transaction::Taxe</title>
<ellipse fill="none" stroke="black" cx="1132" cy="-223" rx="94.9596" ry="18.3848"/>
<text text-anchor="middle" x="1132" y="-219.4" font-family="Times Roman,serif" font-size="14.00">Transaction::Taxe</text>
</g>
<!-- Transaction::Record&#45;&gt;Transaction::Taxe -->
<g id="edge14" class="edge"><title>Transaction::Record&#45;&gt;Transaction::Taxe</title>
<path fill="none" stroke="black" d="M973.115,-294.305C1006.42,-279.357 1051.26,-259.233 1084.82,-244.175"/>
<ellipse fill="none" stroke="black" cx="969.208" cy="-296.058" rx="4.00002" ry="4.00002"/>
<polygon fill="black" stroke="black" points="1084.84,-244.166 1095.8,-244.177 1089.4,-242.118 1093.96,-240.071 1093.96,-240.071 1093.96,-240.071 1089.4,-242.118 1092.12,-235.966 1084.84,-244.166 1084.84,-244.166"/>
<text text-anchor="middle" x="1062.5" y="-265.4" font-family="Times Roman,serif" font-size="14.00">Taxe</text>
</g>
<!-- Transaction::Participant -->
<g id="node11" class="node"><title>Transaction::Participant</title>
<ellipse fill="none" stroke="black" cx="1523" cy="-223" rx="126.072" ry="18.3848"/>
<text text-anchor="middle" x="1523" y="-219.4" font-family="Times Roman,serif" font-size="14.00">Transaction::Participant</text>
</g>
<!-- Transaction::Record&#45;&gt;Transaction::Participant -->
<g id="edge12" class="edge"><title>Transaction::Record&#45;&gt;Transaction::Participant</title>
<path fill="none" stroke="black" d="M1034.52,-307.404C1135.89,-299.745 1275.82,-287.7 1300,-278 1312.05,-273.168 1311.17,-265.334 1323,-260 1340.95,-251.907 1381.23,-243.842 1420.98,-237.317"/>
<ellipse fill="none" stroke="black" cx="1030.36" cy="-307.717" rx="4" ry="4"/>
<polygon fill="black" stroke="black" points="1421.18,-237.284 1431.77,-240.134 1426.12,-236.488 1431.05,-235.692 1431.05,-235.692 1431.05,-235.692 1426.12,-236.488 1430.34,-231.249 1421.18,-237.284 1421.18,-237.284"/>
<text text-anchor="middle" x="1360.5" y="-265.4" font-family="Times Roman,serif" font-size="14.00">Participant</text>
</g>
<!-- Transaction::Tot -->
<g id="node12" class="node"><title>Transaction::Tot</title>
<ellipse fill="none" stroke="black" cx="939" cy="-167" rx="87.889" ry="18.3848"/>
<text text-anchor="middle" x="939" y="-163.4" font-family="Times Roman,serif" font-size="14.00">Transaction::Tot</text>
</g>
<!-- Transaction::Record&#45;&gt;Transaction::Tot -->
<g id="edge18" class="edge"><title>Transaction::Record&#45;&gt;Transaction::Tot</title>
<path fill="none" stroke="black" d="M883.286,-293.295C845.959,-271.788 801.846,-237.325 826,-204 831.726,-196.1 848.631,-188.989 867.678,-183.162"/>
<ellipse fill="none" stroke="black" cx="887.15" cy="-295.463" rx="4.00002" ry="4.00002"/>
<polygon fill="black" stroke="black" points="867.868,-183.107 878.726,-184.643 872.67,-181.714 877.472,-180.321 877.472,-180.321 877.472,-180.321 872.67,-181.714 876.218,-175.999 867.868,-183.107 867.868,-183.107"/>
<text text-anchor="middle" x="870" y="-265.4" font-family="Times Roman,serif" font-size="14.00">Tot</text>
</g>
<!-- Transaction::Financier -->
<g id="node13" class="node"><title>Transaction::Financier</title>
<ellipse fill="none" stroke="black" cx="377" cy="-223" rx="118.087" ry="18.3848"/>
<text text-anchor="middle" x="377" y="-219.4" font-family="Times Roman,serif" font-size="14.00">Transaction::Financier</text>
</g>
<!-- Transaction::Record&#45;&gt;Transaction::Financier -->
<g id="edge10" class="edge"><title>Transaction::Record&#45;&gt;Transaction::Financier</title>
<path fill="none" stroke="black" d="M829.007,-303.823C774.902,-297.219 706.582,-288.169 646,-278 581.166,-267.118 508.115,-251.998 454.518,-240.365"/>
<ellipse fill="none" stroke="black" cx="833.253" cy="-304.338" rx="4.00001" ry="4.00001"/>
<polygon fill="black" stroke="black" points="454.514,-240.364 445.701,-233.838 449.629,-239.299 444.743,-238.235 444.743,-238.235 444.743,-238.235 449.629,-239.299 443.785,-242.632 454.514,-240.364 454.514,-240.364"/>
<text text-anchor="middle" x="677.5" y="-265.4" font-family="Times Roman,serif" font-size="14.00">Financier</text>
</g>
<!-- Transaction::Goods::Item -->
<g id="node16" class="node"><title>Transaction::Goods::Item</title>
<ellipse fill="none" stroke="black" cx="646" cy="-223" rx="132.936" ry="18.3848"/>
<text text-anchor="middle" x="646" y="-219.4" font-family="Times Roman,serif" font-size="14.00">Transaction::Goods::Item</text>
</g>
<!-- Transaction::Record&#45;&gt;Transaction::Goods::Item -->
<g id="edge16" class="edge"><title>Transaction::Record&#45;&gt;Transaction::Goods::Item</title>
<path fill="none" stroke="black" d="M838.779,-300.958C810.906,-295.275 780.274,-287.714 753,-278 729.453,-269.613 704.539,-257.049 684.681,-246.045"/>
<ellipse fill="none" stroke="black" cx="843.024" cy="-301.804" rx="4.00001" ry="4.00001"/>
<polygon fill="black" stroke="black" points="684.649,-246.027 678.145,-237.199 680.293,-243.573 675.936,-241.12 675.936,-241.12 675.936,-241.12 680.293,-243.573 673.728,-245.041 684.649,-246.027 684.649,-246.027"/>
<text text-anchor="middle" x="769" y="-265.4" font-family="Times Roman,serif" font-size="14.00">Item</text>
</g>
<!-- Transaction::Participant&#45;&gt;Transaction::Record -->
<g id="edge20" class="edge"><title>Transaction::Participant&#45;&gt;Transaction::Record</title>
<path fill="none" stroke="black" d="M1471.67,-243.623C1459.27,-248.804 1446.1,-254.469 1434,-260 1417.73,-267.438 1415.24,-273.211 1398,-278 1393.64,-279.213 1170.83,-296.385 1033.26,-306.903"/>
<ellipse fill="none" stroke="black" cx="1475.59" cy="-241.999" rx="4.00001" ry="4.00001"/>
<ellipse fill="black" stroke="black" cx="1029.13" cy="-307.218" rx="4" ry="4"/>
<text text-anchor="middle" x="1457.5" y="-265.4" font-family="Times Roman,serif" font-size="14.00">Record</text>
</g>
<!-- Goods::Additional::Value -->
<g id="node38" class="node"><title>Goods::Additional::Value</title>
<ellipse fill="none" stroke="black" cx="902" cy="-19" rx="130.815" ry="18.3848"/>
<text text-anchor="middle" x="902" y="-15.4" font-family="Times Roman,serif" font-size="14.00">Goods::Additional::Value</text>
</g>
<!-- Transaction::Tot&#45;&gt;Goods::Additional::Value -->
<g id="edge22" class="edge"><title>Transaction::Tot&#45;&gt;Goods::Additional::Value</title>
<path fill="none" stroke="black" d="M1001.18,-149.766C1017.61,-143.9 1032.13,-137.038 1037,-130 1046.6,-116.108 1045.65,-106.507 1037,-92 1022.36,-67.4377 996.267,-50.64 970.9,-39.4135"/>
<ellipse fill="none" stroke="black" cx="997.307" cy="-151.091" rx="4.00001" ry="4.00001"/>
<polygon fill="black" stroke="black" points="970.834,-39.3859 963.346,-31.3742 966.221,-37.4557 961.609,-35.5254 961.609,-35.5254 961.609,-35.5254 966.221,-37.4557 959.872,-39.6765 970.834,-39.3859 970.834,-39.3859"/>
<text text-anchor="middle" x="1062.5" y="-107.4" font-family="Times Roman,serif" font-size="14.00">Value</text>
</g>
<!-- Transaction::Goods::Additional -->
<g id="node14" class="node"><title>Transaction::Goods::Additional</title>
<ellipse fill="none" stroke="black" cx="441" cy="-111" rx="159.099" ry="18.3848"/>
<text text-anchor="middle" x="441" y="-107.4" font-family="Times Roman,serif" font-size="14.00">Transaction::Goods::Additional</text>
</g>
<!-- Transaction::Goods::Additional&#45;&gt;Goods::Additional::Value -->
<g id="edge24" class="edge"><title>Transaction::Goods::Additional&#45;&gt;Goods::Additional::Value</title>
<path fill="none" stroke="black" d="M529.222,-93.3938C611.755,-76.9231 734.255,-52.4762 816.045,-36.1537"/>
<ellipse fill="none" stroke="black" cx="525.223" cy="-94.192" rx="4.00001" ry="4.00001"/>
<polygon fill="black" stroke="black" points="816.254,-36.112 826.942,-38.5679 821.158,-35.1335 826.061,-34.1549 826.061,-34.1549 826.061,-34.1549 821.158,-35.1335 825.18,-29.7419 816.254,-36.112 816.254,-36.112"/>
<text text-anchor="middle" x="731.5" y="-61.4" font-family="Times Roman,serif" font-size="14.00">Value</text>
</g>
<!-- Transaction::Goods::Item&#45;&gt;Transaction::Goods::Additional -->
<g id="edge26" class="edge"><title>Transaction::Goods::Item&#45;&gt;Transaction::Goods::Additional</title>
<path fill="none" stroke="black" d="M605.638,-200.949C570.359,-181.674 519.306,-153.782 483.428,-134.18"/>
<ellipse fill="none" stroke="black" cx="609.553" cy="-203.087" rx="4.00002" ry="4.00002"/>
<polygon fill="black" stroke="black" points="482.971,-133.93 476.352,-125.187 478.583,-131.533 474.195,-129.136 474.195,-129.136 474.195,-129.136 478.583,-131.533 472.037,-133.085 482.971,-133.93 482.971,-133.93"/>
<text text-anchor="middle" x="609" y="-163.4" font-family="Times Roman,serif" font-size="14.00">Additional</text>
</g>
<!-- Transaction::Goods::Item&#45;&gt;Transaction::Goods::Taxe -->
<g id="edge30" class="edge"><title>Transaction::Goods::Item&#45;&gt;Transaction::Goods::Taxe</title>
<path fill="none" stroke="black" d="M566.351,-205.644C470.488,-184.756 310.372,-149.867 213.633,-128.788"/>
<ellipse fill="none" stroke="black" cx="570.352" cy="-206.516" rx="4.00001" ry="4.00001"/>
<polygon fill="black" stroke="black" points="213.377,-128.732 204.564,-122.206 208.492,-127.667 203.606,-126.603 203.606,-126.603 203.606,-126.603 208.492,-127.667 202.648,-131 213.377,-128.732 213.377,-128.732"/>
<text text-anchor="middle" x="481.5" y="-163.4" font-family="Times Roman,serif" font-size="14.00">Taxe</text>
</g>
<!-- Goods::Item -->
<g id="node40" class="node"><title>Goods::Item</title>
<ellipse fill="none" stroke="black" cx="688" cy="-111" rx="70.2092" ry="18.3848"/>
<text text-anchor="middle" x="688" y="-107.4" font-family="Times Roman,serif" font-size="14.00">Goods::Item</text>
</g>
<!-- Transaction::Goods::Item&#45;&gt;Goods::Item -->
<g id="edge28" class="edge"><title>Transaction::Goods::Item&#45;&gt;Goods::Item</title>
<path fill="none" stroke="black" d="M655.75,-197C662.47,-179.079 671.372,-155.341 678.121,-137.345"/>
<ellipse fill="none" stroke="black" cx="654.34" cy="-200.76" rx="4.00001" ry="4.00001"/>
<ellipse fill="black" stroke="black" cx="679.65" cy="-133.267" rx="4.00001" ry="4.00001"/>
<text text-anchor="middle" x="689" y="-163.4" font-family="Times Roman,serif" font-size="14.00">Item</text>
</g>
<!-- Address::Street -->
<g id="node17" class="node"><title>Address::Street</title>
<ellipse fill="none" stroke="black" cx="2270" cy="-223" rx="86.9741" ry="18.3848"/>
<text text-anchor="middle" x="2270" y="-219.4" font-family="Times Roman,serif" font-size="14.00">Address::Street</text>
</g>
<!-- Participant::Contact::Addres -->
<g id="node60" class="node"><title>Participant::Contact::Addres</title>
<ellipse fill="none" stroke="black" cx="2049" cy="-111" rx="147.992" ry="18.3848"/>
<text text-anchor="middle" x="2049" y="-107.4" font-family="Times Roman,serif" font-size="14.00">Participant::Contact::Addres</text>
</g>
<!-- Address::Street&#45;&gt;Participant::Contact::Addres -->
<g id="edge32" class="edge"><title>Address::Street&#45;&gt;Participant::Contact::Addres</title>
<path fill="none" stroke="black" d="M2228.72,-202.081C2189.65,-182.279 2131.24,-152.678 2091.7,-132.642"/>
<ellipse fill="none" stroke="black" cx="2232.39" cy="-203.937" rx="4.00002" ry="4.00002"/>
<ellipse fill="black" stroke="black" cx="2088.12" cy="-130.825" rx="4.00002" ry="4.00002"/>
<text text-anchor="middle" x="2219.5" y="-163.4" font-family="Times Roman,serif" font-size="14.00">Address</text>
</g>
<!-- Address::State -->
<g id="node18" class="node"><title>Address::State</title>
<ellipse fill="none" stroke="black" cx="2415" cy="-499" rx="82.2301" ry="18.3848"/>
<text text-anchor="middle" x="2415" y="-495.4" font-family="Times Roman,serif" font-size="14.00">Address::State</text>
</g>
<!-- Address::City -->
<g id="node19" class="node"><title>Address::City</title>
<ellipse fill="none" stroke="black" cx="2375" cy="-407" rx="75.1594" ry="18.3848"/>
<text text-anchor="middle" x="2375" y="-403.4" font-family="Times Roman,serif" font-size="14.00">Address::City</text>
</g>
<!-- Address::State&#45;&gt;Address::City -->
<g id="edge36" class="edge"><title>Address::State&#45;&gt;Address::City</title>
<path fill="none" stroke="black" d="M2403.64,-472.863C2398.46,-460.963 2392.33,-446.868 2387.08,-434.777"/>
<ellipse fill="none" stroke="black" cx="2405.31" cy="-476.714" rx="4.00002" ry="4.00002"/>
<polygon fill="black" stroke="black" points="2387.07,-434.761 2387.21,-423.796 2385.08,-430.175 2383.08,-425.59 2383.08,-425.59 2383.08,-425.59 2385.08,-430.175 2378.96,-427.384 2387.07,-434.761 2387.07,-434.761"/>
<text text-anchor="middle" x="2412" y="-449.4" font-family="Times Roman,serif" font-size="14.00">City</text>
</g>
<!-- Address::Neighborhood -->
<g id="node22" class="node"><title>Address::Neighborhood</title>
<ellipse fill="none" stroke="black" cx="2375" cy="-315" rx="123.951" ry="18.3848"/>
<text text-anchor="middle" x="2375" y="-311.4" font-family="Times Roman,serif" font-size="14.00">Address::Neighborhood</text>
</g>
<!-- Address::City&#45;&gt;Address::Neighborhood -->
<g id="edge40" class="edge"><title>Address::City&#45;&gt;Address::Neighborhood</title>
<path fill="none" stroke="black" d="M2375,-380.029C2375,-368.599 2375,-355.267 2375,-343.66"/>
<ellipse fill="none" stroke="black" cx="2375" cy="-384.382" rx="4" ry="4"/>
<polygon fill="black" stroke="black" points="2375,-343.59 2379.5,-333.59 2375,-338.59 2375,-333.59 2375,-333.59 2375,-333.59 2375,-338.59 2370.5,-333.59 2375,-343.59 2375,-343.59"/>
<text text-anchor="middle" x="2423.5" y="-357.4" font-family="Times Roman,serif" font-size="14.00">Neighborhood</text>
</g>
<!-- Address::Country -->
<g id="node20" class="node"><title>Address::Country</title>
<ellipse fill="none" stroke="black" cx="2467" cy="-591" rx="96.1665" ry="18.3848"/>
<text text-anchor="middle" x="2467" y="-587.4" font-family="Times Roman,serif" font-size="14.00">Address::Country</text>
</g>
<!-- Address::Country&#45;&gt;Address::State -->
<g id="edge44" class="edge"><title>Address::Country&#45;&gt;Address::State</title>
<path fill="none" stroke="black" d="M2452.46,-565.277C2445.64,-553.202 2437.49,-538.796 2430.55,-526.504"/>
<ellipse fill="none" stroke="black" cx="2454.51" cy="-568.9" rx="4.00002" ry="4.00002"/>
<polygon fill="black" stroke="black" points="2430.43,-526.296 2429.42,-515.376 2427.97,-521.943 2425.51,-517.59 2425.51,-517.59 2425.51,-517.59 2427.97,-521.943 2421.59,-519.804 2430.43,-526.296 2430.43,-526.296"/>
<text text-anchor="middle" x="2464" y="-541.4" font-family="Times Roman,serif" font-size="14.00">State</text>
</g>
<!-- Address::Place -->
<g id="node21" class="node"><title>Address::Place</title>
<ellipse fill="none" stroke="black" cx="2305" cy="-695" rx="82.0244" ry="18.3848"/>
<text text-anchor="middle" x="2305" y="-691.4" font-family="Times Roman,serif" font-size="14.00">Address::Place</text>
</g>
<!-- Address::Place&#45;&gt;Address::Street -->
<g id="edge34" class="edge"><title>Address::Place&#45;&gt;Address::Street</title>
<path fill="none" stroke="black" d="M2278.6,-677.267C2254.63,-658.823 2223,-627.559 2223,-591 2223,-591 2223,-591 2223,-315 2223,-287.02 2240.45,-258.978 2254.09,-241.339"/>
</g>
<!-- Address::Place&#45;&gt;Address::State -->
<g id="edge38" class="edge"><title>Address::Place&#45;&gt;Address::State</title>
<path fill="none" stroke="black" d="M2312.24,-676.518C2322.17,-651.953 2341.14,-607.517 2362,-572 2373.5,-552.417 2388.98,-531.599 2400.23,-517.226"/>
</g>
<!-- Address::Place&#45;&gt;Address::City -->
<g id="edge42" class="edge"><title>Address::Place&#45;&gt;Address::City</title>
<path fill="none" stroke="black" d="M2303.5,-676.479C2301.09,-638.381 2298.89,-549.018 2324,-480 2331.51,-459.37 2346.38,-439.166 2358.13,-425.263"/>
</g>
<!-- Address::Place&#45;&gt;Address::Country -->
<g id="edge46" class="edge"><title>Address::Place&#45;&gt;Address::Country</title>
<path fill="none" stroke="black" d="M2332.48,-677.358C2362.27,-658.234 2409.54,-627.887 2439.38,-608.729"/>
</g>
<!-- Address::Place&#45;&gt;Address::Neighborhood -->
<g id="edge50" class="edge"><title>Address::Place&#45;&gt;Address::Neighborhood</title>
<path fill="none" stroke="black" d="M2293.8,-676.574C2282.6,-656.341 2267,-622.526 2267,-591 2267,-591 2267,-591 2267,-407 2267,-371.778 2300.7,-347.199 2330.45,-332.363"/>
</g>
<!-- Address::Neighborhood&#45;&gt;Address::Street -->
<g id="edge48" class="edge"><title>Address::Neighborhood&#45;&gt;Address::Street</title>
<path fill="none" stroke="black" d="M2347.68,-291.065C2332.49,-277.752 2313.61,-261.208 2298.26,-247.765"/>
<ellipse fill="none" stroke="black" cx="2351" cy="-293.967" rx="4.00002" ry="4.00002"/>
<polygon fill="black" stroke="black" points="2298.12,-247.641 2293.57,-237.666 2294.36,-244.346 2290.6,-241.051 2290.6,-241.051 2290.6,-241.051 2294.36,-244.346 2287.64,-244.436 2298.12,-247.641 2298.12,-247.641"/>
<text text-anchor="middle" x="2353" y="-265.4" font-family="Times Roman,serif" font-size="14.00">Street</text>
</g>
<!-- Taxe -->
<g id="node23" class="node"><title>Taxe</title>
<polygon fill="none" stroke="black" stroke-dasharray="1,5" points="2771,-713 2717,-713 2717,-677 2771,-677 2771,-713"/>
<text text-anchor="middle" x="2744" y="-691.4" font-family="Times Roman,serif" font-size="14.00">Taxe</text>
</g>
<!-- Financier::Note -->
<g id="node24" class="node"><title>Financier::Note</title>
<ellipse fill="none" stroke="black" cx="377" cy="-315" rx="85.0596" ry="18.3848"/>
<text text-anchor="middle" x="377" y="-311.4" font-family="Times Roman,serif" font-size="14.00">Financier::Note</text>
</g>
<!-- Financier::Note&#45;&gt;Transaction::Financier -->
<g id="edge52" class="edge"><title>Financier::Note&#45;&gt;Transaction::Financier</title>
<path fill="none" stroke="black" d="M377,-288.029C377,-276.016 377,-261.902 377,-249.898"/>
<ellipse fill="none" stroke="black" cx="377" cy="-292.382" rx="4" ry="4"/>
<ellipse fill="black" stroke="black" cx="377" cy="-245.59" rx="4" ry="4"/>
<text text-anchor="middle" x="408.5" y="-265.4" font-family="Times Roman,serif" font-size="14.00">Financier</text>
</g>
<!-- Participant -->
<g id="node25" class="node"><title>Participant</title>
<polygon fill="none" stroke="black" stroke-dasharray="1,5" points="2879,-713 2789,-713 2789,-677 2879,-677 2879,-713"/>
<text text-anchor="middle" x="2834" y="-691.4" font-family="Times Roman,serif" font-size="14.00">Participant</text>
</g>
<!-- Financier -->
<g id="node26" class="node"><title>Financier</title>
<polygon fill="none" stroke="black" stroke-dasharray="1,5" points="2975,-713 2897,-713 2897,-677 2975,-677 2975,-713"/>
<text text-anchor="middle" x="2936" y="-691.4" font-family="Times Roman,serif" font-size="14.00">Financier</text>
</g>
<!-- Transaction -->
<g id="node27" class="node"><title>Transaction</title>
<polygon fill="none" stroke="black" stroke-dasharray="1,5" points="3087,-713 2993,-713 2993,-677 3087,-677 3087,-713"/>
<text text-anchor="middle" x="3040" y="-691.4" font-family="Times Roman,serif" font-size="14.00">Transaction</text>
</g>
<!-- Participant::Contact -->
<g id="node28" class="node"><title>Participant::Contact</title>
<polygon fill="none" stroke="black" stroke-dasharray="1,5" points="3259,-713 3105,-713 3105,-677 3259,-677 3259,-713"/>
<text text-anchor="middle" x="3182" y="-691.4" font-family="Times Roman,serif" font-size="14.00">Participant::Contact</text>
</g>
<!-- Participant::Sender -->
<g id="node29" class="node"><title>Participant::Sender</title>
<ellipse fill="none" stroke="black" cx="1481" cy="-315" rx="104.86" ry="18.3848"/>
<text text-anchor="middle" x="1481" y="-311.4" font-family="Times Roman,serif" font-size="14.00">Participant::Sender</text>
</g>
<!-- Participant::Sender&#45;&gt;Transaction::Participant -->
<g id="edge54" class="edge"><title>Participant::Sender&#45;&gt;Transaction::Participant</title>
<path fill="none" stroke="black" d="M1482.97,-288.241C1484.39,-278.965 1486.83,-268.713 1491,-260 1492.72,-256.397 1494.9,-252.869 1497.29,-249.511"/>
<ellipse fill="none" stroke="black" cx="1482.43" cy="-292.447" rx="4.00001" ry="4.00001"/>
<polygon fill="black" stroke="black" points="1497.37,-249.405 1507.11,-244.356 1500.48,-245.484 1503.58,-241.563 1503.58,-241.563 1503.58,-241.563 1500.48,-245.484 1500.05,-238.771 1497.37,-249.405 1497.37,-249.405"/>
<text text-anchor="middle" x="1514.5" y="-265.4" font-family="Times Roman,serif" font-size="14.00">Record</text>
</g>
<!-- Participant::Person -->
<g id="node33" class="node"><title>Participant::Person</title>
<ellipse fill="none" stroke="black" cx="1770" cy="-223" rx="103.238" ry="18.3848"/>
<text text-anchor="middle" x="1770" y="-219.4" font-family="Times Roman,serif" font-size="14.00">Participant::Person</text>
</g>
<!-- Participant::Sender&#45;&gt;Participant::Person -->
<g id="edge56" class="edge"><title>Participant::Sender&#45;&gt;Participant::Person</title>
<path fill="none" stroke="black" d="M1563.92,-300.52C1615.34,-291.358 1672.63,-280.741 1678,-278 1688.36,-272.711 1687.49,-266.699 1697,-260 1705.25,-254.189 1714.54,-248.754 1723.66,-243.935"/>
<ellipse fill="none" stroke="black" cx="1559.66" cy="-301.276" rx="4.00001" ry="4.00001"/>
<ellipse fill="black" stroke="black" cx="1727.35" cy="-242.035" rx="4.00002" ry="4.00002"/>
<text text-anchor="middle" x="1720.5" y="-265.4" font-family="Times Roman,serif" font-size="14.00">Person</text>
</g>
<!-- Participant::Issuer -->
<g id="node30" class="node"><title>Participant::Issuer</title>
<ellipse fill="none" stroke="black" cx="1943" cy="-315" rx="99.201" ry="18.3848"/>
<text text-anchor="middle" x="1943" y="-311.4" font-family="Times Roman,serif" font-size="14.00">Participant::Issuer</text>
</g>
<!-- Participant::Issuer&#45;&gt;Transaction::Participant -->
<g id="edge60" class="edge"><title>Participant::Issuer&#45;&gt;Transaction::Participant</title>
<path fill="none" stroke="black" d="M1865.3,-300.49C1855.13,-298.838 1844.83,-297.288 1835,-296 1789,-289.975 1669.32,-297.018 1627,-278 1616.39,-273.232 1617.7,-266.418 1608,-260 1599.25,-254.213 1589.45,-248.974 1579.7,-244.38"/>
<ellipse fill="none" stroke="black" cx="1869.48" cy="-301.181" rx="4.00001" ry="4.00001"/>
<polygon fill="black" stroke="black" points="1579.51,-244.295 1572.25,-236.075 1574.95,-242.235 1570.4,-240.175 1570.4,-240.175 1570.4,-240.175 1574.95,-242.235 1568.54,-244.276 1579.51,-244.295 1579.51,-244.295"/>
<text text-anchor="middle" x="1650.5" y="-265.4" font-family="Times Roman,serif" font-size="14.00">Record</text>
</g>
<!-- Participant::Issuer&#45;&gt;Participant::Person -->
<g id="edge62" class="edge"><title>Participant::Issuer&#45;&gt;Participant::Person</title>
<path fill="none" stroke="black" d="M1902.99,-293.722C1875.18,-278.933 1838.25,-259.295 1810.36,-244.466"/>
<ellipse fill="none" stroke="black" cx="1906.52" cy="-295.601" rx="4.00002" ry="4.00002"/>
<ellipse fill="black" stroke="black" cx="1806.65" cy="-242.49" rx="4.00002" ry="4.00002"/>
<text text-anchor="middle" x="1894.5" y="-265.4" font-family="Times Roman,serif" font-size="14.00">Person</text>
</g>
<!-- Participant::Delivery -->
<g id="node31" class="node"><title>Participant::Delivery</title>
<ellipse fill="none" stroke="black" cx="1715" cy="-315" rx="111.222" ry="18.3848"/>
<text text-anchor="middle" x="1715" y="-311.4" font-family="Times Roman,serif" font-size="14.00">Participant::Delivery</text>
</g>
<!-- Participant::Delivery&#45;&gt;Transaction::Participant -->
<g id="edge66" class="edge"><title>Participant::Delivery&#45;&gt;Transaction::Participant</title>
<path fill="none" stroke="black" d="M1629.24,-299.945C1600.53,-293.737 1572.82,-286.101 1561,-278 1550.89,-271.066 1542.65,-260.487 1536.46,-250.453"/>
<ellipse fill="none" stroke="black" cx="1633.44" cy="-300.831" rx="4.00001" ry="4.00001"/>
<polygon fill="black" stroke="black" points="1536.31,-250.197 1535.27,-239.281 1533.84,-245.854 1531.36,-241.511 1531.36,-241.511 1531.36,-241.511 1533.84,-245.854 1527.45,-243.741 1536.31,-250.197 1536.31,-250.197"/>
<text text-anchor="middle" x="1584.5" y="-265.4" font-family="Times Roman,serif" font-size="14.00">Record</text>
</g>
<!-- Participant::Delivery&#45;&gt;Participant::Person -->
<g id="edge68" class="edge"><title>Participant::Delivery&#45;&gt;Participant::Person</title>
<path fill="none" stroke="black" d="M1739.24,-290.118C1742.42,-286.228 1745.45,-282.126 1748,-278 1753.5,-269.12 1758.1,-258.629 1761.64,-249.203"/>
<ellipse fill="none" stroke="black" cx="1736.43" cy="-293.394" rx="4.00002" ry="4.00002"/>
<ellipse fill="black" stroke="black" cx="1763.02" cy="-245.36" rx="4.00001" ry="4.00001"/>
<text text-anchor="middle" x="1779.5" y="-265.4" font-family="Times Roman,serif" font-size="14.00">Person</text>
</g>
<!-- Participant::Type -->
<g id="node32" class="node"><title>Participant::Type</title>
<ellipse fill="none" stroke="black" cx="1715" cy="-407" rx="92.1303" ry="18.3848"/>
<text text-anchor="middle" x="1715" y="-403.4" font-family="Times Roman,serif" font-size="14.00">Participant::Type</text>
</g>
<!-- Participant::Type&#45;&gt;Participant::Sender -->
<g id="edge58" class="edge"><title>Participant::Type&#45;&gt;Participant::Sender</title>
<path fill="none" stroke="black" d="M1672.9,-390.446C1630.79,-373.891 1566.36,-348.559 1523.95,-331.888"/>
</g>
<!-- Participant::Type&#45;&gt;Participant::Issuer -->
<g id="edge64" class="edge"><title>Participant::Type&#45;&gt;Participant::Issuer</title>
<path fill="none" stroke="black" d="M1756.29,-390.339C1797.35,-373.77 1860.02,-348.483 1901.25,-331.847"/>
</g>
<!-- Participant::Type&#45;&gt;Participant::Delivery -->
<g id="edge70" class="edge"><title>Participant::Type&#45;&gt;Participant::Delivery</title>
<path fill="none" stroke="black" d="M1715,-388.382C1715,-372.421 1715,-349.543 1715,-333.59"/>
</g>
<!-- Participant::Contact::Email -->
<g id="node34" class="node"><title>Participant::Contact::Email</title>
<ellipse fill="none" stroke="black" cx="1742" cy="-111" rx="140.922" ry="18.3848"/>
<text text-anchor="middle" x="1742" y="-107.4" font-family="Times Roman,serif" font-size="14.00">Participant::Contact::Email</text>
</g>
<!-- Participant::Person&#45;&gt;Participant::Contact::Email -->
<g id="edge72" class="edge"><title>Participant::Person&#45;&gt;Participant::Contact::Email</title>
<path fill="none" stroke="black" d="M1763.43,-196.727C1759.12,-179.471 1753.48,-156.911 1749.07,-139.266"/>
<ellipse fill="none" stroke="black" cx="1764.41" cy="-200.625" rx="4.00001" ry="4.00001"/>
<polygon fill="black" stroke="black" points="1749.06,-139.223 1751,-128.431 1747.84,-134.373 1746.63,-129.522 1746.63,-129.522 1746.63,-129.522 1747.84,-134.373 1742.26,-130.613 1749.06,-139.223 1749.06,-139.223"/>
<text text-anchor="middle" x="1779" y="-163.4" font-family="Times Roman,serif" font-size="14.00">Email</text>
</g>
<!-- Participant::Person&#45;&gt;Participant::Contact::Addres -->
<g id="edge74" class="edge"><title>Participant::Person&#45;&gt;Participant::Contact::Addres</title>
<path fill="none" stroke="black" d="M1846.09,-207.073C1867.48,-201.518 1890.49,-194.499 1911,-186 1941.91,-173.19 1946.62,-164.016 1976,-148 1984.8,-143.206 1994.28,-138.246 2003.41,-133.575"/>
<ellipse fill="none" stroke="black" cx="1842.17" cy="-208.069" rx="4.00001" ry="4.00001"/>
<polygon fill="black" stroke="black" points="2003.47,-133.546 2014.42,-133.031 2007.93,-131.282 2012.39,-129.018 2012.39,-129.018 2012.39,-129.018 2007.93,-131.282 2010.35,-125.006 2003.47,-133.546 2003.47,-133.546"/>
<text text-anchor="middle" x="2003.5" y="-163.4" font-family="Times Roman,serif" font-size="14.00">Address</text>
</g>
<!-- Participant::Contact::Type -->
<g id="node35" class="node"><title>Participant::Contact::Type</title>
<ellipse fill="none" stroke="black" cx="2028" cy="-223" rx="137.179" ry="18.3848"/>
<text text-anchor="middle" x="2028" y="-219.4" font-family="Times Roman,serif" font-size="14.00">Participant::Contact::Type</text>
</g>
<!-- Participant::Contact::Type&#45;&gt;Participant::Contact::Email -->
<g id="edge76" class="edge"><title>Participant::Contact::Type&#45;&gt;Participant::Contact::Email</title>
<path fill="none" stroke="black" d="M1935.77,-206.55C1913.5,-201.217 1890.06,-194.438 1869,-186 1859.7,-182.274 1814.3,-155.07 1780.42,-134.489"/>
<ellipse fill="none" stroke="black" cx="1939.7" cy="-207.467" rx="4.00001" ry="4.00001"/>
<polygon fill="black" stroke="black" points="1780.19,-134.349 1773.98,-125.307 1775.92,-131.75 1771.65,-129.151 1771.65,-129.151 1771.65,-129.151 1775.92,-131.75 1769.31,-132.996 1780.19,-134.349 1780.19,-134.349"/>
<text text-anchor="middle" x="1888" y="-163.4" font-family="Times Roman,serif" font-size="14.00">Email</text>
</g>
<!-- Participant::Contact::Type&#45;&gt;Participant::Contact::Addres -->
<g id="edge78" class="edge"><title>Participant::Contact::Type&#45;&gt;Participant::Contact::Addres</title>
<path fill="none" stroke="black" d="M2032.98,-196.452C2036.18,-179.378 2040.34,-157.198 2043.62,-139.714"/>
<ellipse fill="none" stroke="black" cx="2032.2" cy="-200.574" rx="4.00001" ry="4.00001"/>
<polygon fill="black" stroke="black" points="2043.68,-139.351 2049.95,-130.351 2044.61,-134.436 2045.53,-129.522 2045.53,-129.522 2045.53,-129.522 2044.61,-134.436 2041.1,-128.693 2043.68,-139.351 2043.68,-139.351"/>
<text text-anchor="middle" x="2068.5" y="-163.4" font-family="Times Roman,serif" font-size="14.00">Address</text>
</g>
<!-- Participant::Contact::Address -->
<g id="node36" class="node"><title>Participant::Contact::Address</title>
<ellipse fill="none" stroke="black" cx="3430" cy="-695" rx="152.942" ry="18.3848"/>
<text text-anchor="middle" x="3430" y="-691.4" font-family="Times Roman,serif" font-size="14.00">Participant::Contact::Address</text>
</g>
<!-- Goods::Additional -->
<g id="node37" class="node"><title>Goods::Additional</title>
<polygon fill="none" stroke="black" stroke-dasharray="1,5" points="3737,-713 3601,-713 3601,-677 3737,-677 3737,-713"/>
<text text-anchor="middle" x="3669" y="-691.4" font-family="Times Roman,serif" font-size="14.00">Goods::Additional</text>
</g>
<!-- Goods::Additional::Type -->
<g id="node39" class="node"><title>Goods::Additional::Type</title>
<ellipse fill="none" stroke="black" cx="902" cy="-111" rx="125.865" ry="18.3848"/>
<text text-anchor="middle" x="902" y="-107.4" font-family="Times Roman,serif" font-size="14.00">Goods::Additional::Type</text>
</g>
<!-- Goods::Additional::Type&#45;&gt;Goods::Additional::Value -->
<g id="edge80" class="edge"><title>Goods::Additional::Type&#45;&gt;Goods::Additional::Value</title>
<path fill="none" stroke="black" d="M902,-84.029C902,-72.5994 902,-59.2671 902,-47.6601"/>
<ellipse fill="none" stroke="black" cx="902" cy="-88.3824" rx="4" ry="4"/>
<polygon fill="black" stroke="black" points="902,-47.5899 906.5,-37.5898 902,-42.5899 902,-37.5899 902,-37.5899 902,-37.5899 902,-42.5899 897.5,-37.5899 902,-47.5899 902,-47.5899"/>
<text text-anchor="middle" x="921.5" y="-61.4" font-family="Times Roman,serif" font-size="14.00">Value</text>
</g>
<!-- Email::Domain -->
<g id="node41" class="node"><title>Email::Domain</title>
<ellipse fill="none" stroke="black" cx="1267" cy="-315" rx="82.0244" ry="18.3848"/>
<text text-anchor="middle" x="1267" y="-311.4" font-family="Times Roman,serif" font-size="14.00">Email::Domain</text>
</g>
<!-- Email::User -->
<g id="node42" class="node"><title>Email::User</title>
<ellipse fill="none" stroke="black" cx="1312" cy="-223" rx="67.1751" ry="18.3848"/>
<text text-anchor="middle" x="1312" y="-219.4" font-family="Times Roman,serif" font-size="14.00">Email::User</text>
</g>
<!-- Email::Domain&#45;&gt;Email::User -->
<g id="edge82" class="edge"><title>Email::Domain&#45;&gt;Email::User</title>
<path fill="none" stroke="black" d="M1263.08,-288.093C1262.85,-278.802 1263.91,-268.58 1268,-260 1270.25,-255.279 1273.42,-250.94 1277.05,-247.025"/>
<ellipse fill="none" stroke="black" cx="1263.35" cy="-292.297" rx="4" ry="4"/>
<polygon fill="black" stroke="black" points="1277.18,-246.899 1287.54,-243.299 1280.81,-243.464 1284.45,-240.029 1284.45,-240.029 1284.45,-240.029 1280.81,-243.464 1281.36,-236.759 1277.18,-246.899 1277.18,-246.899"/>
<text text-anchor="middle" x="1284" y="-265.4" font-family="Times Roman,serif" font-size="14.00">User</text>
</g>
<!-- Email::User&#45;&gt;Participant::Contact::Email -->
<g id="edge84" class="edge"><title>Email::User&#45;&gt;Participant::Contact::Email</title>
<path fill="none" stroke="black" d="M1368.93,-208.171C1446.71,-187.913 1586.15,-151.595 1670.76,-129.556"/>
<ellipse fill="none" stroke="black" cx="1364.78" cy="-209.253" rx="4.00001" ry="4.00001"/>
<ellipse fill="black" stroke="black" cx="1674.65" cy="-128.543" rx="4.00001" ry="4.00001"/>
<text text-anchor="middle" x="1609" y="-163.4" font-family="Times Roman,serif" font-size="14.00">Email</text>
</g>
<!-- Address -->
<g id="node43" class="node"><title>Address</title>
<polygon fill="none" stroke="black" stroke-dasharray="1,5" points="3825,-713 3755,-713 3755,-677 3825,-677 3825,-713"/>
<text text-anchor="middle" x="3790" y="-691.4" font-family="Times Roman,serif" font-size="14.00">Address</text>
</g>
</g>
</svg>
