<?xml version="1.0" encoding="UTF-8" standalone="no"?>
<!DOCTYPE svg PUBLIC "-//W3C//DTD SVG 1.1//EN"
 "http://www.w3.org/Graphics/SVG/1.1/DTD/svg11.dtd">
<!-- Generated by graphviz version 2.26.3 (20100126.1600)
 -->
<!-- Title: models_diagram Pages: 1 -->
<svg width="766pt" height="472pt"
 viewBox="0.00 0.00 766.00 472.00" xmlns="http://www.w3.org/2000/svg" xmlns:xlink="http://www.w3.org/1999/xlink">
<g id="graph1" class="graph" transform="scale(1 1) rotate(0) translate(4 468)">
<title>models_diagram</title>
<polygon fill="white" stroke="white" points="-4,5 -4,-468 763,-468 763,5 -4,5"/>
<!-- _diagram_info -->
<g id="node1" class="node"><title>_diagram_info</title>
<text text-anchor="start" x="8" y="-447.8" font-family="Times Roman,serif" font-size="13.00">Models diagram</text>
<text text-anchor="start" x="8" y="-430.8" font-family="Times Roman,serif" font-size="13.00">Date: Aug 02 2011 &#45; 21:46</text>
<text text-anchor="start" x="8" y="-413.8" font-family="Times Roman,serif" font-size="13.00">Migration version: 20110802014239</text>
<text text-anchor="start" x="8" y="-396.8" font-family="Times Roman,serif" font-size="13.00">Generated by RailRoady 1.0.2</text>
<text text-anchor="start" x="8" y="-379.8" font-family="Times Roman,serif" font-size="13.00">http://railroady.prestonlee.com</text>
</g>
<!-- Street -->
<g id="node2" class="node"><title>Street</title>
<ellipse fill="none" stroke="black" cx="197" cy="-315" rx="41.9273" ry="18.3848"/>
<text text-anchor="middle" x="197" y="-311.4" font-family="Times Roman,serif" font-size="14.00">Street</text>
</g>
<!-- Neighborhood -->
<g id="node12" class="node"><title>Neighborhood</title>
<ellipse fill="none" stroke="black" cx="159" cy="-241" rx="79.9031" ry="18.3848"/>
<text text-anchor="middle" x="159" y="-237.4" font-family="Times Roman,serif" font-size="14.00">Neighborhood</text>
</g>
<!-- Street&#45;&gt;Neighborhood -->
<g id="edge2" class="edge"><title>Street&#45;&gt;Neighborhood</title>
<path fill="none" stroke="black" d="M178,-290.459C173.7,-282.942 169.414,-274.649 165.891,-267.036"/>
<ellipse fill="none" stroke="black" cx="180.114" cy="-294.023" rx="4.00002" ry="4.00002"/>
<ellipse fill="black" stroke="black" cx="164.267" cy="-263.363" rx="4.00002" ry="4.00002"/>
</g>
<!-- State -->
<g id="node3" class="node"><title>State</title>
<ellipse fill="none" stroke="black" cx="276" cy="-93" rx="38.1838" ry="18.3848"/>
<text text-anchor="middle" x="276" y="-89.4" font-family="Times Roman,serif" font-size="14.00">State</text>
</g>
<!-- City -->
<g id="node5" class="node"><title>City</title>
<ellipse fill="none" stroke="black" cx="246" cy="-167" rx="31.1127" ry="18.3848"/>
<text text-anchor="middle" x="246" y="-163.4" font-family="Times Roman,serif" font-size="14.00">City</text>
</g>
<!-- State&#45;&gt;City -->
<g id="edge6" class="edge"><title>State&#45;&gt;City</title>
<path fill="none" stroke="black" d="M271.785,-119.426C269.321,-126.337 266.299,-133.785 263.16,-140.689"/>
<ellipse fill="none" stroke="black" cx="273.127" cy="-115.419" rx="4.00001" ry="4.00001"/>
<polygon fill="black" stroke="black" points="263.094,-140.826 254.704,-147.886 260.926,-145.331 258.759,-149.837 258.759,-149.837 258.759,-149.837 260.926,-145.331 262.814,-151.788 263.094,-140.826 263.094,-140.826"/>
</g>
<!-- Country -->
<g id="node7" class="node"><title>Country</title>
<ellipse fill="none" stroke="black" cx="276" cy="-19" rx="51.1176" ry="18.3848"/>
<text text-anchor="middle" x="276" y="-15.4" font-family="Times Roman,serif" font-size="14.00">Country</text>
</g>
<!-- State&#45;&gt;Country -->
<g id="edge8" class="edge"><title>State&#45;&gt;Country</title>
<path fill="none" stroke="black" d="M269.503,-66.6144C269.173,-59.866 269.166,-52.6031 269.482,-45.8325"/>
<ellipse fill="none" stroke="black" cx="269.798" cy="-70.7181" rx="4" ry="4"/>
<ellipse fill="black" stroke="black" cx="269.777" cy="-41.5861" rx="4" ry="4"/>
</g>
<!-- PersonType -->
<g id="node4" class="node"><title>PersonType</title>
<ellipse fill="none" stroke="black" cx="551" cy="-417" rx="67.1751" ry="18.3848"/>
<text text-anchor="middle" x="551" y="-413.4" font-family="Times Roman,serif" font-size="14.00">PersonType</text>
</g>
<!-- Person -->
<g id="node11" class="node"><title>Person</title>
<ellipse fill="none" stroke="black" cx="551" cy="-315" rx="44.0472" ry="18.3848"/>
<text text-anchor="middle" x="551" y="-311.4" font-family="Times Roman,serif" font-size="14.00">Person</text>
</g>
<!-- PersonType&#45;&gt;Person -->
<g id="edge12" class="edge"><title>PersonType&#45;&gt;Person</title>
<path fill="none" stroke="black" d="M551,-390.015C551,-375.835 551,-358.445 551,-343.98"/>
<ellipse fill="none" stroke="black" cx="551" cy="-394.292" rx="4" ry="4"/>
<polygon fill="black" stroke="black" points="551,-343.59 555.5,-333.59 551,-338.59 551,-333.59 551,-333.59 551,-333.59 551,-338.59 546.5,-333.59 551,-343.59 551,-343.59"/>
</g>
<!-- City&#45;&gt;State -->
<g id="edge16" class="edge"><title>City&#45;&gt;State</title>
<path fill="none" stroke="black" d="M250.189,-140.647C252.793,-133.337 256.022,-125.421 259.358,-118.18"/>
<ellipse fill="none" stroke="black" cx="248.888" cy="-144.534" rx="4.00001" ry="4.00001"/>
<ellipse fill="black" stroke="black" cx="261.255" cy="-114.251" rx="4.00002" ry="4.00002"/>
</g>
<!-- City&#45;&gt;Neighborhood -->
<g id="edge14" class="edge"><title>City&#45;&gt;Neighborhood</title>
<path fill="none" stroke="black" d="M226.162,-189.185C216.5,-197.939 204.691,-208.019 193.647,-216.947"/>
<ellipse fill="none" stroke="black" cx="229.23" cy="-186.359" rx="4.00002" ry="4.00002"/>
<polygon fill="black" stroke="black" points="193.283,-217.237 182.656,-219.942 189.37,-220.35 185.458,-223.463 185.458,-223.463 185.458,-223.463 189.37,-220.35 188.26,-226.984 193.283,-217.237 193.283,-217.237"/>
</g>
<!-- Email -->
<g id="node6" class="node"><title>Email</title>
<ellipse fill="none" stroke="black" cx="697" cy="-315" rx="38.1838" ry="18.3848"/>
<text text-anchor="middle" x="697" y="-311.4" font-family="Times Roman,serif" font-size="14.00">Email</text>
</g>
<!-- Country&#45;&gt;State -->
<g id="edge20" class="edge"><title>Country&#45;&gt;State</title>
<path fill="none" stroke="black" d="M282.509,-45.6457C282.802,-51.7894 282.828,-58.3473 282.587,-64.5639"/>
<ellipse fill="none" stroke="black" cx="282.225" cy="-41.5859" rx="4" ry="4"/>
<polygon fill="black" stroke="black" points="282.576,-64.7297 277.426,-74.4108 282.246,-69.7188 281.916,-74.7079 281.916,-74.7079 281.916,-74.7079 282.246,-69.7188 286.406,-75.0049 282.576,-64.7297 282.576,-64.7297"/>
</g>
<!-- Place -->
<g id="node8" class="node"><title>Place</title>
<ellipse fill="none" stroke="black" cx="305" cy="-417" rx="36.977" ry="18.3848"/>
<text text-anchor="middle" x="305" y="-413.4" font-family="Times Roman,serif" font-size="14.00">Place</text>
</g>
<!-- Place&#45;&gt;Street -->
<g id="edge4" class="edge"><title>Place&#45;&gt;Street</title>
<path fill="none" stroke="black" d="M289.1,-400.186C280.366,-391.095 269.253,-379.763 259,-370 245.036,-356.704 228.704,-342.258 216.308,-331.509"/>
</g>
<!-- Place&#45;&gt;State -->
<g id="edge10" class="edge"><title>Place&#45;&gt;State</title>
<path fill="none" stroke="black" d="M304.385,-398.342C302.786,-354.509 297.779,-241.6 286,-148 284.461,-135.771 281.988,-122.139 279.886,-111.507"/>
</g>
<!-- Place&#45;&gt;City -->
<g id="edge18" class="edge"><title>Place&#45;&gt;City</title>
<path fill="none" stroke="black" d="M300.662,-398.617C289.751,-352.384 261.262,-231.672 250.345,-185.41"/>
</g>
<!-- Place&#45;&gt;Country -->
<g id="edge22" class="edge"><title>Place&#45;&gt;Country</title>
<path fill="none" stroke="black" d="M338.1,-408.404C373.878,-397.331 429.816,-374.51 460,-334 485.206,-300.171 479,-283.187 479,-241 479,-241 479,-241 479,-167 479,-88.2747 378.082,-46.9884 318.555,-29.4833"/>
</g>
<!-- PlaceType -->
<g id="node9" class="node"><title>PlaceType</title>
<ellipse fill="none" stroke="black" cx="392" cy="-315" rx="58.8978" ry="18.3848"/>
<text text-anchor="middle" x="392" y="-311.4" font-family="Times Roman,serif" font-size="14.00">PlaceType</text>
</g>
<!-- Place&#45;&gt;PlaceType -->
<g id="edge24" class="edge"><title>Place&#45;&gt;PlaceType</title>
<path fill="none" stroke="black" d="M320.191,-392.297C332.864,-376.053 350.92,-354.909 365.849,-338.843"/>
<ellipse fill="none" stroke="black" cx="317.67" cy="-395.589" rx="4.00002" ry="4.00002"/>
<ellipse fill="black" stroke="black" cx="368.864" cy="-335.646" rx="4.00002" ry="4.00002"/>
</g>
<!-- Place&#45;&gt;Neighborhood -->
<g id="edge34" class="edge"><title>Place&#45;&gt;Neighborhood</title>
<path fill="none" stroke="black" d="M291.722,-399.71C283.301,-389.785 271.636,-377.787 259,-370 214.127,-342.347 177.104,-376.554 146,-334 130.126,-312.283 140.115,-279.927 149.223,-259.667"/>
</g>
<!-- PlaceType&#45;&gt;Place -->
<g id="edge26" class="edge"><title>PlaceType&#45;&gt;Place</title>
<path fill="none" stroke="black" d="M376.538,-340.05C363.858,-356.275 345.913,-377.276 331.075,-393.239"/>
<ellipse fill="none" stroke="black" cx="379.191" cy="-336.592" rx="4.00002" ry="4.00002"/>
<polygon fill="black" stroke="black" points="330.969,-393.351 320.826,-397.518 327.531,-396.982 324.093,-400.612 324.093,-400.612 324.093,-400.612 327.531,-396.982 327.36,-403.706 330.969,-393.351 330.969,-393.351"/>
</g>
<!-- EmailType -->
<g id="node10" class="node"><title>EmailType</title>
<ellipse fill="none" stroke="black" cx="697" cy="-417" rx="60.8112" ry="18.3848"/>
<text text-anchor="middle" x="697" y="-413.4" font-family="Times Roman,serif" font-size="14.00">EmailType</text>
</g>
<!-- EmailType&#45;&gt;Email -->
<g id="edge28" class="edge"><title>EmailType&#45;&gt;Email</title>
<path fill="none" stroke="black" d="M697,-390.015C697,-375.835 697,-358.445 697,-343.98"/>
<ellipse fill="none" stroke="black" cx="697" cy="-394.292" rx="4" ry="4"/>
<polygon fill="black" stroke="black" points="697,-343.59 701.5,-333.59 697,-338.59 697,-333.59 697,-333.59 697,-333.59 697,-338.59 692.5,-333.59 697,-343.59 697,-343.59"/>
</g>
<!-- Neighborhood&#45;&gt;Street -->
<g id="edge32" class="edge"><title>Neighborhood&#45;&gt;Street</title>
<path fill="none" stroke="black" d="M178.479,-266.382C182.266,-273.053 186.02,-280.285 189.229,-287.081"/>
<ellipse fill="none" stroke="black" cx="176.409" cy="-262.859" rx="4.00002" ry="4.00002"/>
<polygon fill="black" stroke="black" points="189.281,-287.198 189.255,-298.164 191.322,-291.762 193.363,-296.327 193.363,-296.327 193.363,-296.327 191.322,-291.762 197.471,-294.49 189.281,-287.198 189.281,-287.198"/>
</g>
<!-- Neighborhood&#45;&gt;City -->
<g id="edge30" class="edge"><title>Neighborhood&#45;&gt;City</title>
<path fill="none" stroke="black" d="M180.855,-216.997C192.164,-206.845 205.994,-195.199 218.058,-185.702"/>
<ellipse fill="none" stroke="black" cx="177.546" cy="-220.013" rx="4.00002" ry="4.00002"/>
<ellipse fill="black" stroke="black" cx="221.39" cy="-183.12" rx="4.00002" ry="4.00002"/>
</g>
</g>
</svg>
