<?xml version="1.0" encoding="UTF-8" standalone="no"?>
<!DOCTYPE svg PUBLIC "-//W3C//DTD SVG 1.1//EN"
 "http://www.w3.org/Graphics/SVG/1.1/DTD/svg11.dtd">
<!-- Generated by graphviz version 2.26.3 (20100126.1600)
 -->
<!-- Title: models_diagram Pages: 1 -->
<svg width="3300pt" height="750pt"
 viewBox="0.00 0.00 3300.00 750.00" xmlns="http://www.w3.org/2000/svg" xmlns:xlink="http://www.w3.org/1999/xlink">
<g id="graph1" class="graph" transform="scale(1 1) rotate(0) translate(4 746)">
<title>models_diagram</title>
<polygon fill="white" stroke="white" points="-4,5 -4,-746 3297,-746 3297,5 -4,5"/>
<!-- _diagram_info -->
<g id="node1" class="node"><title>_diagram_info</title>
<text text-anchor="start" x="1430" y="-725.8" font-family="Times Roman,serif" font-size="13.00">Models diagram</text>
<text text-anchor="start" x="1430" y="-708.8" font-family="Times Roman,serif" font-size="13.00">Date: Sep 15 2011 &#45; 20:08</text>
<text text-anchor="start" x="1430" y="-691.8" font-family="Times Roman,serif" font-size="13.00">Migration version: 20110823161326</text>
<text text-anchor="start" x="1430" y="-674.8" font-family="Times Roman,serif" font-size="13.00">Generated by RailRoady 1.0.2</text>
<text text-anchor="start" x="1430" y="-657.8" font-family="Times Roman,serif" font-size="13.00">http://railroady.prestonlee.com</text>
</g>
<!-- Transaction -->
<g id="node2" class="node"><title>Transaction</title>
<polygon fill="none" stroke="black" stroke-dasharray="1,5" points="1784,-713 1690,-713 1690,-677 1784,-677 1784,-713"/>
<text text-anchor="middle" x="1737" y="-691.4" font-family="Times Roman,serif" font-size="14.00">Transaction</text>
</g>
<!-- Financier::Note -->
<g id="node3" class="node"><title>Financier::Note</title>
<ellipse fill="none" stroke="black" cx="118" cy="-315" rx="85.0596" ry="18.3848"/>
<text text-anchor="middle" x="118" y="-311.4" font-family="Times Roman,serif" font-size="14.00">Financier::Note</text>
</g>
<!-- Transaction::Financier -->
<g id="node11" class="node"><title>Transaction::Financier</title>
<ellipse fill="none" stroke="black" cx="118" cy="-223" rx="118.087" ry="18.3848"/>
<text text-anchor="middle" x="118" y="-219.4" font-family="Times Roman,serif" font-size="14.00">Transaction::Financier</text>
</g>
<!-- Financier::Note&#45;&gt;Transaction::Financier -->
<g id="edge2" class="edge"><title>Financier::Note&#45;&gt;Transaction::Financier</title>
<path fill="none" stroke="black" d="M118,-288.029C118,-276.016 118,-261.902 118,-249.898"/>
<ellipse fill="none" stroke="black" cx="118" cy="-292.382" rx="4" ry="4"/>
<ellipse fill="black" stroke="black" cx="118" cy="-245.59" rx="4" ry="4"/>
<text text-anchor="middle" x="149.5" y="-265.4" font-family="Times Roman,serif" font-size="14.00">Financier</text>
</g>
<!-- Email -->
<g id="node4" class="node"><title>Email</title>
<polygon fill="none" stroke="black" stroke-dasharray="1,5" points="2038,-713 1984,-713 1984,-677 2038,-677 2038,-713"/>
<text text-anchor="middle" x="2011" y="-691.4" font-family="Times Roman,serif" font-size="14.00">Email</text>
</g>
<!-- Transaction::Tot -->
<g id="node5" class="node"><title>Transaction::Tot</title>
<ellipse fill="none" stroke="black" cx="885" cy="-167" rx="87.889" ry="18.3848"/>
<text text-anchor="middle" x="885" y="-163.4" font-family="Times Roman,serif" font-size="14.00">Transaction::Tot</text>
</g>
<!-- Goods::Additional::Value -->
<g id="node33" class="node"><title>Goods::Additional::Value</title>
<ellipse fill="none" stroke="black" cx="879" cy="-19" rx="130.815" ry="18.3848"/>
<text text-anchor="middle" x="879" y="-15.4" font-family="Times Roman,serif" font-size="14.00">Goods::Additional::Value</text>
</g>
<!-- Transaction::Tot&#45;&gt;Goods::Additional::Value -->
<g id="edge4" class="edge"><title>Transaction::Tot&#45;&gt;Goods::Additional::Value</title>
<path fill="none" stroke="black" d="M883.906,-140.006C882.848,-113.917 881.251,-74.5269 880.169,-47.8341"/>
<ellipse fill="none" stroke="black" cx="884.078" cy="-144.259" rx="4" ry="4"/>
<polygon fill="black" stroke="black" points="880.159,-47.5839 884.25,-37.4098 879.956,-42.588 879.754,-37.5921 879.754,-37.5921 879.754,-37.5921 879.956,-42.588 875.257,-37.7744 880.159,-47.5839 880.159,-47.5839"/>
<text text-anchor="middle" x="903.5" y="-107.4" font-family="Times Roman,serif" font-size="14.00">Value</text>
</g>
<!-- Transaction::Participant -->
<g id="node6" class="node"><title>Transaction::Participant</title>
<ellipse fill="none" stroke="black" cx="1279" cy="-223" rx="126.072" ry="18.3848"/>
<text text-anchor="middle" x="1279" y="-219.4" font-family="Times Roman,serif" font-size="14.00">Transaction::Participant</text>
</g>
<!-- Transaction::Record -->
<g id="node12" class="node"><title>Transaction::Record</title>
<ellipse fill="none" stroke="black" cx="819" cy="-315" rx="106.773" ry="18.3848"/>
<text text-anchor="middle" x="819" y="-311.4" font-family="Times Roman,serif" font-size="14.00">Transaction::Record</text>
</g>
<!-- Transaction::Participant&#45;&gt;Transaction::Record -->
<g id="edge6" class="edge"><title>Transaction::Participant&#45;&gt;Transaction::Record</title>
<path fill="none" stroke="black" d="M1180.56,-237.036C1168.25,-238.737 1155.84,-240.427 1144,-242 1080.06,-250.495 1058.32,-232.448 1000,-260 989.483,-264.969 991.255,-272.511 981,-278 966.873,-285.562 934.502,-293.528 902.381,-300.124"/>
<ellipse fill="none" stroke="black" cx="1184.66" cy="-236.467" rx="4.00001" ry="4.00001"/>
<ellipse fill="black" stroke="black" cx="898.152" cy="-300.978" rx="4.00001" ry="4.00001"/>
<text text-anchor="middle" x="1023.5" y="-265.4" font-family="Times Roman,serif" font-size="14.00">Record</text>
</g>
<!-- Transaction::Goods::Additional -->
<g id="node7" class="node"><title>Transaction::Goods::Additional</title>
<ellipse fill="none" stroke="black" cx="659" cy="-111" rx="159.099" ry="18.3848"/>
<text text-anchor="middle" x="659" y="-107.4" font-family="Times Roman,serif" font-size="14.00">Transaction::Goods::Additional</text>
</g>
<!-- Transaction::Goods::Additional&#45;&gt;Goods::Additional::Value -->
<g id="edge8" class="edge"><title>Transaction::Goods::Additional&#45;&gt;Goods::Additional::Value</title>
<path fill="none" stroke="black" d="M709.195,-90.0094C744.594,-75.206 791.866,-55.4377 827.544,-40.5181"/>
<ellipse fill="none" stroke="black" cx="705.369" cy="-91.6091" rx="4.00002" ry="4.00002"/>
<polygon fill="black" stroke="black" points="827.588,-40.4997 838.55,-40.7932 832.201,-38.5706 836.814,-36.6416 836.814,-36.6416 836.814,-36.6416 832.201,-38.5706 835.077,-32.49 827.588,-40.4997 827.588,-40.4997"/>
<text text-anchor="middle" x="808.5" y="-61.4" font-family="Times Roman,serif" font-size="14.00">Value</text>
</g>
<!-- Transaction::Goods::Item -->
<g id="node8" class="node"><title>Transaction::Goods::Item</title>
<ellipse fill="none" stroke="black" cx="387" cy="-223" rx="132.936" ry="18.3848"/>
<text text-anchor="middle" x="387" y="-219.4" font-family="Times Roman,serif" font-size="14.00">Transaction::Goods::Item</text>
</g>
<!-- Transaction::Goods::Item&#45;&gt;Transaction::Goods::Additional -->
<g id="edge10" class="edge"><title>Transaction::Goods::Item&#45;&gt;Transaction::Goods::Additional</title>
<path fill="none" stroke="black" d="M437.459,-202.223C485.445,-182.464 557.349,-152.856 606.119,-132.774"/>
<ellipse fill="none" stroke="black" cx="433.498" cy="-203.854" rx="4.00001" ry="4.00001"/>
<polygon fill="black" stroke="black" points="606.304,-132.698 617.265,-133.052 610.928,-130.794 615.551,-128.891 615.551,-128.891 615.551,-128.891 610.928,-130.794 613.838,-124.73 606.304,-132.698 606.304,-132.698"/>
<text text-anchor="middle" x="599" y="-163.4" font-family="Times Roman,serif" font-size="14.00">Additional</text>
</g>
<!-- Transaction::Goods::Taxe -->
<g id="node9" class="node"><title>Transaction::Goods::Taxe</title>
<ellipse fill="none" stroke="black" cx="1068" cy="-111" rx="132.229" ry="18.3848"/>
<text text-anchor="middle" x="1068" y="-107.4" font-family="Times Roman,serif" font-size="14.00">Transaction::Goods::Taxe</text>
</g>
<!-- Transaction::Goods::Item&#45;&gt;Transaction::Goods::Taxe -->
<g id="edge14" class="edge"><title>Transaction::Goods::Item&#45;&gt;Transaction::Goods::Taxe</title>
<path fill="none" stroke="black" d="M486.095,-208.54C500.466,-206.793 515.096,-205.204 529,-204 579.185,-199.655 935.191,-204.612 982,-186 995.63,-180.58 1022.27,-156.336 1042.3,-136.858"/>
<ellipse fill="none" stroke="black" cx="482.114" cy="-209.033" rx="4.00001" ry="4.00001"/>
<polygon fill="black" stroke="black" points="1042.48,-136.682 1052.77,-132.886 1046.05,-133.179 1049.62,-129.676 1049.62,-129.676 1049.62,-129.676 1046.05,-133.179 1046.46,-126.465 1042.48,-136.682 1042.48,-136.682"/>
<text text-anchor="middle" x="1045.5" y="-163.4" font-family="Times Roman,serif" font-size="14.00">Taxe</text>
</g>
<!-- Goods::Item -->
<g id="node34" class="node"><title>Goods::Item</title>
<ellipse fill="none" stroke="black" cx="387" cy="-111" rx="70.2092" ry="18.3848"/>
<text text-anchor="middle" x="387" y="-107.4" font-family="Times Roman,serif" font-size="14.00">Goods::Item</text>
</g>
<!-- Transaction::Goods::Item&#45;&gt;Goods::Item -->
<g id="edge12" class="edge"><title>Transaction::Goods::Item&#45;&gt;Goods::Item</title>
<path fill="none" stroke="black" d="M387,-196.242C387,-178.632 387,-155.661 387,-138.003"/>
<ellipse fill="none" stroke="black" cx="387" cy="-200.254" rx="4" ry="4"/>
<ellipse fill="black" stroke="black" cx="387" cy="-133.807" rx="4" ry="4"/>
<text text-anchor="middle" x="403" y="-163.4" font-family="Times Roman,serif" font-size="14.00">Item</text>
</g>
<!-- Transaction::Xml -->
<g id="node10" class="node"><title>Transaction::Xml</title>
<ellipse fill="none" stroke="black" cx="630" cy="-223" rx="92.1303" ry="18.3848"/>
<text text-anchor="middle" x="630" y="-219.4" font-family="Times Roman,serif" font-size="14.00">Transaction::Xml</text>
</g>
<!-- Transaction::Record&#45;&gt;Transaction::Tot -->
<g id="edge16" class="edge"><title>Transaction::Record&#45;&gt;Transaction::Tot</title>
<path fill="none" stroke="black" d="M875.828,-295.097C899.806,-283.552 925.301,-266.369 939,-242 947.276,-227.278 946.874,-218.941 939,-204 936.351,-198.973 932.676,-194.498 928.478,-190.552"/>
<ellipse fill="none" stroke="black" cx="872.082" cy="-296.826" rx="4.00002" ry="4.00002"/>
<polygon fill="black" stroke="black" points="928.213,-190.336 923.31,-180.527 924.339,-187.175 920.465,-184.014 920.465,-184.014 920.465,-184.014 924.339,-187.175 917.62,-187.5 928.213,-190.336 928.213,-190.336"/>
<text text-anchor="middle" x="936" y="-265.4" font-family="Times Roman,serif" font-size="14.00">Tot</text>
</g>
<!-- Transaction::Record&#45;&gt;Transaction::Participant -->
<g id="edge26" class="edge"><title>Transaction::Record&#45;&gt;Transaction::Participant</title>
<path fill="none" stroke="black" d="M903.177,-300.611C913.874,-298.96 924.684,-297.377 935,-296 1012.06,-285.712 1034.13,-298.942 1109,-278 1127,-272.966 1129.5,-266.545 1147,-260 1165.22,-253.185 1185.27,-246.95 1204.12,-241.619"/>
<ellipse fill="none" stroke="black" cx="898.981" cy="-301.267" rx="4.00001" ry="4.00001"/>
<polygon fill="black" stroke="black" points="1204.21,-241.593 1215.05,-243.251 1209.03,-240.254 1213.84,-238.915 1213.84,-238.915 1213.84,-238.915 1209.03,-240.254 1212.64,-234.579 1204.21,-241.593 1204.21,-241.593"/>
<text text-anchor="middle" x="1184.5" y="-265.4" font-family="Times Roman,serif" font-size="14.00">Participant</text>
</g>
<!-- Transaction::Record&#45;&gt;Transaction::Goods::Item -->
<g id="edge22" class="edge"><title>Transaction::Record&#45;&gt;Transaction::Goods::Item</title>
<path fill="none" stroke="black" d="M743.438,-298.908C666.873,-282.603 548.751,-257.447 469.715,-240.615"/>
<ellipse fill="none" stroke="black" cx="747.588" cy="-299.792" rx="4.00001" ry="4.00001"/>
<polygon fill="black" stroke="black" points="469.575,-240.586 460.732,-234.101 464.685,-239.544 459.794,-238.503 459.794,-238.503 459.794,-238.503 464.685,-239.544 458.857,-242.904 469.575,-240.586 469.575,-240.586"/>
<text text-anchor="middle" x="658" y="-265.4" font-family="Times Roman,serif" font-size="14.00">Item</text>
</g>
<!-- Transaction::Record&#45;&gt;Transaction::Xml -->
<g id="edge20" class="edge"><title>Transaction::Record&#45;&gt;Transaction::Xml</title>
<path fill="none" stroke="black" d="M775.633,-293.89C744.778,-278.871 703.517,-258.786 672.792,-243.83"/>
<ellipse fill="none" stroke="black" cx="779.409" cy="-295.728" rx="4.00002" ry="4.00002"/>
<ellipse fill="black" stroke="black" cx="668.817" cy="-241.895" rx="4.00002" ry="4.00002"/>
<text text-anchor="middle" x="756" y="-265.4" font-family="Times Roman,serif" font-size="14.00">Xml</text>
</g>
<!-- Transaction::Record&#45;&gt;Transaction::Financier -->
<g id="edge18" class="edge"><title>Transaction::Record&#45;&gt;Transaction::Financier</title>
<path fill="none" stroke="black" d="M719.917,-304.267C656.43,-297.22 572.299,-287.566 498,-278 385.353,-263.496 357.386,-258.403 245,-242 234.802,-240.512 224.146,-238.941 213.53,-237.367"/>
<ellipse fill="none" stroke="black" cx="723.972" cy="-304.717" rx="4.00001" ry="4.00001"/>
<polygon fill="black" stroke="black" points="213.272,-237.329 204.042,-231.408 208.326,-236.594 203.381,-235.859 203.381,-235.859 203.381,-235.859 208.326,-236.594 202.719,-240.31 213.272,-237.329 213.272,-237.329"/>
<text text-anchor="middle" x="529.5" y="-265.4" font-family="Times Roman,serif" font-size="14.00">Financier</text>
</g>
<!-- Transaction::Taxe -->
<g id="node14" class="node"><title>Transaction::Taxe</title>
<ellipse fill="none" stroke="black" cx="835" cy="-223" rx="94.9596" ry="18.3848"/>
<text text-anchor="middle" x="835" y="-219.4" font-family="Times Roman,serif" font-size="14.00">Transaction::Taxe</text>
</g>
<!-- Transaction::Record&#45;&gt;Transaction::Taxe -->
<g id="edge24" class="edge"><title>Transaction::Record&#45;&gt;Transaction::Taxe</title>
<path fill="none" stroke="black" d="M823.618,-288.447C825.616,-276.958 827.959,-263.485 829.998,-251.76"/>
<ellipse fill="none" stroke="black" cx="822.923" cy="-292.442" rx="4.00001" ry="4.00001"/>
<polygon fill="black" stroke="black" points="830.053,-251.442 836.2,-242.361 830.91,-246.516 831.767,-241.59 831.767,-241.59 831.767,-241.59 830.91,-246.516 827.334,-240.819 830.053,-251.442 830.053,-251.442"/>
<text text-anchor="middle" x="844.5" y="-265.4" font-family="Times Roman,serif" font-size="14.00">Taxe</text>
</g>
<!-- Transaction::Goods -->
<g id="node13" class="node"><title>Transaction::Goods</title>
<polygon fill="none" stroke="black" stroke-dasharray="1,5" points="2202,-713 2056,-713 2056,-677 2202,-677 2202,-713"/>
<text text-anchor="middle" x="2129" y="-691.4" font-family="Times Roman,serif" font-size="14.00">Transaction::Goods</text>
</g>
<!-- Address::Neighborhood -->
<g id="node15" class="node"><title>Address::Neighborhood</title>
<ellipse fill="none" stroke="black" cx="1894" cy="-315" rx="123.951" ry="18.3848"/>
<text text-anchor="middle" x="1894" y="-311.4" font-family="Times Roman,serif" font-size="14.00">Address::Neighborhood</text>
</g>
<!-- Address::Street -->
<g id="node20" class="node"><title>Address::Street</title>
<ellipse fill="none" stroke="black" cx="1743" cy="-223" rx="86.9741" ry="18.3848"/>
<text text-anchor="middle" x="1743" y="-219.4" font-family="Times Roman,serif" font-size="14.00">Address::Street</text>
</g>
<!-- Address::Neighborhood&#45;&gt;Address::Street -->
<g id="edge28" class="edge"><title>Address::Neighborhood&#45;&gt;Address::Street</title>
<path fill="none" stroke="black" d="M1857.33,-292.66C1834,-278.442 1803.86,-260.082 1780.39,-245.78"/>
<ellipse fill="none" stroke="black" cx="1860.75" cy="-294.743" rx="4.00002" ry="4.00002"/>
<polygon fill="black" stroke="black" points="1780.29,-245.717 1774.09,-236.671 1776.02,-243.116 1771.75,-240.514 1771.75,-240.514 1771.75,-240.514 1776.02,-243.116 1769.4,-244.357 1780.29,-245.717 1780.29,-245.717"/>
<text text-anchor="middle" x="1854" y="-265.4" font-family="Times Roman,serif" font-size="14.00">Street</text>
</g>
<!-- Address::City -->
<g id="node16" class="node"><title>Address::City</title>
<ellipse fill="none" stroke="black" cx="1847" cy="-407" rx="75.1594" ry="18.3848"/>
<text text-anchor="middle" x="1847" y="-403.4" font-family="Times Roman,serif" font-size="14.00">Address::City</text>
</g>
<!-- Address::City&#45;&gt;Address::Neighborhood -->
<g id="edge32" class="edge"><title>Address::City&#45;&gt;Address::Neighborhood</title>
<path fill="none" stroke="black" d="M1860.35,-380.863C1866.43,-368.963 1873.63,-354.868 1879.81,-342.777"/>
<ellipse fill="none" stroke="black" cx="1858.33" cy="-384.82" rx="4.00002" ry="4.00002"/>
<polygon fill="black" stroke="black" points="1879.95,-342.495 1888.51,-335.637 1882.23,-338.042 1884.5,-333.59 1884.5,-333.59 1884.5,-333.59 1882.23,-338.042 1880.5,-331.543 1879.95,-342.495 1879.95,-342.495"/>
<text text-anchor="middle" x="1922.5" y="-357.4" font-family="Times Roman,serif" font-size="14.00">Neighborhood</text>
</g>
<!-- Address::State -->
<g id="node17" class="node"><title>Address::State</title>
<ellipse fill="none" stroke="black" cx="1847" cy="-499" rx="82.2301" ry="18.3848"/>
<text text-anchor="middle" x="1847" y="-495.4" font-family="Times Roman,serif" font-size="14.00">Address::State</text>
</g>
<!-- Address::State&#45;&gt;Address::City -->
<g id="edge36" class="edge"><title>Address::State&#45;&gt;Address::City</title>
<path fill="none" stroke="black" d="M1847,-472.029C1847,-460.599 1847,-447.267 1847,-435.66"/>
<ellipse fill="none" stroke="black" cx="1847" cy="-476.382" rx="4" ry="4"/>
<polygon fill="black" stroke="black" points="1847,-435.59 1851.5,-425.59 1847,-430.59 1847,-425.59 1847,-425.59 1847,-425.59 1847,-430.59 1842.5,-425.59 1847,-435.59 1847,-435.59"/>
<text text-anchor="middle" x="1861" y="-449.4" font-family="Times Roman,serif" font-size="14.00">City</text>
</g>
<!-- Address::Place -->
<g id="node18" class="node"><title>Address::Place</title>
<ellipse fill="none" stroke="black" cx="1884" cy="-695" rx="82.0244" ry="18.3848"/>
<text text-anchor="middle" x="1884" y="-691.4" font-family="Times Roman,serif" font-size="14.00">Address::Place</text>
</g>
<!-- Address::Place&#45;&gt;Address::Neighborhood -->
<g id="edge30" class="edge"><title>Address::Place&#45;&gt;Address::Neighborhood</title>
<path fill="none" stroke="black" d="M1913.7,-677.543C1950.39,-654.931 2008,-615.515 2008,-591 2008,-591 2008,-591 2008,-407 2008,-371.013 1973.17,-346.701 1942.02,-332.152"/>
</g>
<!-- Address::Place&#45;&gt;Address::City -->
<g id="edge34" class="edge"><title>Address::Place&#45;&gt;Address::City</title>
<path fill="none" stroke="black" d="M1852.65,-677.631C1832.48,-665.66 1806.34,-648.602 1786,-630 1747.97,-595.22 1759.89,-569.386 1756,-518 1754.73,-501.159 1748.69,-495.227 1756,-480 1767.92,-455.165 1792.85,-436.115 1813.61,-423.712"/>
</g>
<!-- Address::Place&#45;&gt;Address::State -->
<g id="edge38" class="edge"><title>Address::Place&#45;&gt;Address::State</title>
<path fill="none" stroke="black" d="M1849.9,-678.08C1825.17,-663.726 1793.59,-640.588 1779,-610 1762.55,-575.529 1797.46,-538.196 1823.08,-516.802"/>
</g>
<!-- Address::Country -->
<g id="node19" class="node"><title>Address::Country</title>
<ellipse fill="none" stroke="black" cx="1884" cy="-591" rx="96.1665" ry="18.3848"/>
<text text-anchor="middle" x="1884" y="-587.4" font-family="Times Roman,serif" font-size="14.00">Address::Country</text>
</g>
<!-- Address::Place&#45;&gt;Address::Country -->
<g id="edge42" class="edge"><title>Address::Place&#45;&gt;Address::Country</title>
<path fill="none" stroke="black" d="M1884,-676.407C1884,-657.594 1884,-628.664 1884,-609.783"/>
</g>
<!-- Address::Place&#45;&gt;Address::Street -->
<g id="edge46" class="edge"><title>Address::Place&#45;&gt;Address::Street</title>
<path fill="none" stroke="black" d="M1916.39,-677.975C1963.67,-652.61 2046,-606.249 2046,-591 2046,-591 2046,-591 2046,-315 2046,-303.058 2037.37,-301.918 2027,-296 1989.86,-274.808 1879.16,-249.992 1807.44,-235.435"/>
</g>
<!-- Address::Country&#45;&gt;Address::State -->
<g id="edge40" class="edge"><title>Address::Country&#45;&gt;Address::State</title>
<path fill="none" stroke="black" d="M1873.49,-564.863C1868.75,-553.081 1863.15,-539.147 1858.32,-527.137"/>
<ellipse fill="none" stroke="black" cx="1875.02" cy="-568.671" rx="4.00001" ry="4.00001"/>
<polygon fill="black" stroke="black" points="1858.21,-526.868 1858.65,-515.911 1856.34,-522.229 1854.48,-517.59 1854.48,-517.59 1854.48,-517.59 1856.34,-522.229 1850.3,-519.269 1858.21,-526.868 1858.21,-526.868"/>
<text text-anchor="middle" x="1887" y="-541.4" font-family="Times Roman,serif" font-size="14.00">State</text>
</g>
<!-- Participant::Contact::Addres -->
<g id="node66" class="node"><title>Participant::Contact::Addres</title>
<ellipse fill="none" stroke="black" cx="1678" cy="-111" rx="147.992" ry="18.3848"/>
<text text-anchor="middle" x="1678" y="-107.4" font-family="Times Roman,serif" font-size="14.00">Participant::Contact::Addres</text>
</g>
<!-- Address::Street&#45;&gt;Participant::Contact::Addres -->
<g id="edge44" class="edge"><title>Address::Street&#45;&gt;Participant::Contact::Addres</title>
<path fill="none" stroke="black" d="M1728.23,-197.545C1717.62,-179.262 1703.37,-154.721 1692.76,-136.441"/>
<ellipse fill="none" stroke="black" cx="1730.26" cy="-201.046" rx="4.00002" ry="4.00002"/>
<ellipse fill="black" stroke="black" cx="1690.76" cy="-132.982" rx="4.00002" ry="4.00002"/>
<text text-anchor="middle" x="1747.5" y="-163.4" font-family="Times Roman,serif" font-size="14.00">Address</text>
</g>
<!-- Participant -->
<g id="node21" class="node"><title>Participant</title>
<polygon fill="none" stroke="black" stroke-dasharray="1,5" points="2310,-713 2220,-713 2220,-677 2310,-677 2310,-713"/>
<text text-anchor="middle" x="2265" y="-691.4" font-family="Times Roman,serif" font-size="14.00">Participant</text>
</g>
<!-- Participant::Contact -->
<g id="node22" class="node"><title>Participant::Contact</title>
<polygon fill="none" stroke="black" stroke-dasharray="1,5" points="2482,-713 2328,-713 2328,-677 2482,-677 2482,-713"/>
<text text-anchor="middle" x="2405" y="-691.4" font-family="Times Roman,serif" font-size="14.00">Participant::Contact</text>
</g>
<!-- Participant::Contact::Email -->
<g id="node23" class="node"><title>Participant::Contact::Email</title>
<ellipse fill="none" stroke="black" cx="1985" cy="-111" rx="140.922" ry="18.3848"/>
<text text-anchor="middle" x="1985" y="-107.4" font-family="Times Roman,serif" font-size="14.00">Participant::Contact::Email</text>
</g>
<!-- Participant::Contact::Address -->
<g id="node24" class="node"><title>Participant::Contact::Address</title>
<ellipse fill="none" stroke="black" cx="2653" cy="-695" rx="152.942" ry="18.3848"/>
<text text-anchor="middle" x="2653" y="-691.4" font-family="Times Roman,serif" font-size="14.00">Participant::Contact::Address</text>
</g>
<!-- Participant::Contact::Type -->
<g id="node25" class="node"><title>Participant::Contact::Type</title>
<ellipse fill="none" stroke="black" cx="1985" cy="-223" rx="137.179" ry="18.3848"/>
<text text-anchor="middle" x="1985" y="-219.4" font-family="Times Roman,serif" font-size="14.00">Participant::Contact::Type</text>
</g>
<!-- Participant::Contact::Type&#45;&gt;Participant::Contact::Email -->
<g id="edge50" class="edge"><title>Participant::Contact::Type&#45;&gt;Participant::Contact::Email</title>
<path fill="none" stroke="black" d="M1985,-196.242C1985,-179.273 1985,-157.325 1985,-139.95"/>
<ellipse fill="none" stroke="black" cx="1985" cy="-200.254" rx="4" ry="4"/>
<polygon fill="black" stroke="black" points="1985,-139.807 1989.5,-129.807 1985,-134.807 1985,-129.807 1985,-129.807 1985,-129.807 1985,-134.807 1980.5,-129.807 1985,-139.807 1985,-139.807"/>
<text text-anchor="middle" x="2004" y="-163.4" font-family="Times Roman,serif" font-size="14.00">Email</text>
</g>
<!-- Participant::Contact::Type&#45;&gt;Participant::Contact::Addres -->
<g id="edge48" class="edge"><title>Participant::Contact::Type&#45;&gt;Participant::Contact::Addres</title>
<path fill="none" stroke="black" d="M1899.94,-205.627C1880.22,-200.377 1859.57,-193.866 1841,-186 1811.24,-173.394 1808.09,-162.072 1779,-148 1766.94,-142.168 1753.72,-136.7 1740.92,-131.85"/>
<ellipse fill="none" stroke="black" cx="1903.87" cy="-206.647" rx="4.00001" ry="4.00001"/>
<polygon fill="black" stroke="black" points="1740.62,-131.739 1732.81,-124.045 1735.93,-130.002 1731.24,-128.265 1731.24,-128.265 1731.24,-128.265 1735.93,-130.002 1729.68,-132.485 1740.62,-131.739 1740.62,-131.739"/>
<text text-anchor="middle" x="1868.5" y="-163.4" font-family="Times Roman,serif" font-size="14.00">Address</text>
</g>
<!-- Participant::Delivery -->
<g id="node26" class="node"><title>Participant::Delivery</title>
<ellipse fill="none" stroke="black" cx="1413" cy="-315" rx="111.222" ry="18.3848"/>
<text text-anchor="middle" x="1413" y="-311.4" font-family="Times Roman,serif" font-size="14.00">Participant::Delivery</text>
</g>
<!-- Participant::Delivery&#45;&gt;Transaction::Participant -->
<g id="edge52" class="edge"><title>Participant::Delivery&#45;&gt;Transaction::Participant</title>
<path fill="none" stroke="black" d="M1351.43,-295.617C1340.74,-290.783 1330.13,-284.946 1321,-278 1311.02,-270.403 1302.19,-259.854 1295.24,-250.024"/>
<ellipse fill="none" stroke="black" cx="1355.17" cy="-297.223" rx="4.00002" ry="4.00002"/>
<polygon fill="black" stroke="black" points="1295.2,-249.968 1293.37,-239.156 1292.41,-245.815 1289.63,-241.663 1289.63,-241.663 1289.63,-241.663 1292.41,-245.815 1285.89,-244.171 1295.2,-249.968 1295.2,-249.968"/>
<text text-anchor="middle" x="1344.5" y="-265.4" font-family="Times Roman,serif" font-size="14.00">Record</text>
</g>
<!-- Participant::Person -->
<g id="node27" class="node"><title>Participant::Person</title>
<ellipse fill="none" stroke="black" cx="1535" cy="-223" rx="103.238" ry="18.3848"/>
<text text-anchor="middle" x="1535" y="-219.4" font-family="Times Roman,serif" font-size="14.00">Participant::Person</text>
</g>
<!-- Participant::Delivery&#45;&gt;Participant::Person -->
<g id="edge54" class="edge"><title>Participant::Delivery&#45;&gt;Participant::Person</title>
<path fill="none" stroke="black" d="M1480.47,-296.051C1490.44,-291.258 1500.03,-285.322 1508,-278 1516.43,-270.259 1522.54,-259.312 1526.8,-249.22"/>
<ellipse fill="none" stroke="black" cx="1476.81" cy="-297.701" rx="4.00002" ry="4.00002"/>
<ellipse fill="black" stroke="black" cx="1528.25" cy="-245.466" rx="4.00001" ry="4.00001"/>
<text text-anchor="middle" x="1544.5" y="-265.4" font-family="Times Roman,serif" font-size="14.00">Person</text>
</g>
<!-- Participant::Person&#45;&gt;Participant::Contact::Email -->
<g id="edge60" class="edge"><title>Participant::Person&#45;&gt;Participant::Contact::Email</title>
<path fill="none" stroke="black" d="M1615.26,-208.43C1625.91,-206.777 1636.7,-205.243 1647,-204 1702.08,-197.353 1844.61,-206.897 1896,-186 1899.63,-184.523 1931.57,-157.271 1956.16,-136.039"/>
<ellipse fill="none" stroke="black" cx="1611.1" cy="-209.089" rx="4.00001" ry="4.00001"/>
<polygon fill="black" stroke="black" points="1956.28,-135.938 1966.78,-132.801 1960.06,-132.668 1963.84,-129.397 1963.84,-129.397 1963.84,-129.397 1960.06,-132.668 1960.9,-125.993 1956.28,-135.938 1956.28,-135.938"/>
<text text-anchor="middle" x="1959" y="-163.4" font-family="Times Roman,serif" font-size="14.00">Email</text>
</g>
<!-- Participant::Person&#45;&gt;Participant::Contact::Addres -->
<g id="edge58" class="edge"><title>Participant::Person&#45;&gt;Participant::Contact::Addres</title>
<path fill="none" stroke="black" d="M1564.77,-199.68C1588.63,-180.994 1622.02,-154.842 1646.36,-135.781"/>
<ellipse fill="none" stroke="black" cx="1561.44" cy="-202.29" rx="4.00002" ry="4.00002"/>
<polygon fill="black" stroke="black" points="1646.37,-135.776 1657.01,-133.152 1650.3,-132.692 1654.24,-129.609 1654.24,-129.609 1654.24,-129.609 1650.3,-132.692 1651.47,-126.067 1646.37,-135.776 1646.37,-135.776"/>
<text text-anchor="middle" x="1654.5" y="-163.4" font-family="Times Roman,serif" font-size="14.00">Address</text>
</g>
<!-- Participant::Sender -->
<g id="node28" class="node"><title>Participant::Sender</title>
<ellipse fill="none" stroke="black" cx="1647" cy="-315" rx="104.86" ry="18.3848"/>
<text text-anchor="middle" x="1647" y="-311.4" font-family="Times Roman,serif" font-size="14.00">Participant::Sender</text>
</g>
<!-- Participant::Sender&#45;&gt;Transaction::Participant -->
<g id="edge62" class="edge"><title>Participant::Sender&#45;&gt;Transaction::Participant</title>
<path fill="none" stroke="black" d="M1562.76,-300.827C1516.61,-292.666 1466.82,-283.052 1457,-278 1446.66,-272.676 1448.24,-265.51 1438,-260 1420.38,-250.524 1400.4,-243.461 1380.68,-238.201"/>
<ellipse fill="none" stroke="black" cx="1566.78" cy="-301.535" rx="4.00001" ry="4.00001"/>
<polygon fill="black" stroke="black" points="1380.42,-238.135 1371.83,-231.323 1375.58,-236.911 1370.73,-235.686 1370.73,-235.686 1370.73,-235.686 1375.58,-236.911 1369.63,-240.049 1380.42,-238.135 1380.42,-238.135"/>
<text text-anchor="middle" x="1480.5" y="-265.4" font-family="Times Roman,serif" font-size="14.00">Record</text>
</g>
<!-- Participant::Sender&#45;&gt;Participant::Person -->
<g id="edge64" class="edge"><title>Participant::Sender&#45;&gt;Participant::Person</title>
<path fill="none" stroke="black" d="M1619.1,-291.568C1607.37,-281.766 1593.56,-270.284 1581,-260 1575.64,-255.613 1569.91,-250.965 1564.37,-246.499"/>
<ellipse fill="none" stroke="black" cx="1622.31" cy="-294.255" rx="4.00002" ry="4.00002"/>
<ellipse fill="black" stroke="black" cx="1561.11" cy="-243.874" rx="4.00002" ry="4.00002"/>
<text text-anchor="middle" x="1624.5" y="-265.4" font-family="Times Roman,serif" font-size="14.00">Person</text>
</g>
<!-- Participant::Type -->
<g id="node29" class="node"><title>Participant::Type</title>
<ellipse fill="none" stroke="black" cx="1413" cy="-407" rx="92.1303" ry="18.3848"/>
<text text-anchor="middle" x="1413" y="-403.4" font-family="Times Roman,serif" font-size="14.00">Participant::Type</text>
</g>
<!-- Participant::Type&#45;&gt;Participant::Delivery -->
<g id="edge56" class="edge"><title>Participant::Type&#45;&gt;Participant::Delivery</title>
<path fill="none" stroke="black" d="M1413,-388.382C1413,-372.421 1413,-349.543 1413,-333.59"/>
</g>
<!-- Participant::Type&#45;&gt;Participant::Sender -->
<g id="edge66" class="edge"><title>Participant::Type&#45;&gt;Participant::Sender</title>
<path fill="none" stroke="black" d="M1455.1,-390.446C1497.21,-373.891 1561.64,-348.559 1604.05,-331.888"/>
</g>
<!-- Participant::Issuer -->
<g id="node30" class="node"><title>Participant::Issuer</title>
<ellipse fill="none" stroke="black" cx="1185" cy="-315" rx="99.201" ry="18.3848"/>
<text text-anchor="middle" x="1185" y="-311.4" font-family="Times Roman,serif" font-size="14.00">Participant::Issuer</text>
</g>
<!-- Participant::Type&#45;&gt;Participant::Issuer -->
<g id="edge72" class="edge"><title>Participant::Type&#45;&gt;Participant::Issuer</title>
<path fill="none" stroke="black" d="M1371.71,-390.339C1330.65,-373.77 1267.98,-348.483 1226.75,-331.847"/>
</g>
<!-- Participant::Issuer&#45;&gt;Transaction::Participant -->
<g id="edge68" class="edge"><title>Participant::Issuer&#45;&gt;Transaction::Participant</title>
<path fill="none" stroke="black" d="M1211.69,-291.401C1216.51,-287.005 1221.45,-282.407 1226,-278 1235.53,-268.778 1245.7,-258.368 1254.56,-249.106"/>
<ellipse fill="none" stroke="black" cx="1208.66" cy="-294.148" rx="4.00002" ry="4.00002"/>
<polygon fill="black" stroke="black" points="1254.76,-248.896 1264.91,-244.747 1258.2,-245.271 1261.65,-241.647 1261.65,-241.647 1261.65,-241.647 1258.2,-245.271 1258.39,-238.547 1254.76,-248.896 1254.76,-248.896"/>
<text text-anchor="middle" x="1266.5" y="-265.4" font-family="Times Roman,serif" font-size="14.00">Record</text>
</g>
<!-- Participant::Issuer&#45;&gt;Participant::Person -->
<g id="edge70" class="edge"><title>Participant::Issuer&#45;&gt;Participant::Person</title>
<path fill="none" stroke="black" d="M1264.83,-300.62C1309.54,-292.253 1358.25,-282.495 1368,-278 1379.79,-272.568 1379.36,-265.737 1391,-260 1410.2,-250.542 1432.06,-243.329 1452.86,-237.9"/>
<ellipse fill="none" stroke="black" cx="1260.76" cy="-301.378" rx="4.00001" ry="4.00001"/>
<ellipse fill="black" stroke="black" cx="1456.89" cy="-236.883" rx="4.00001" ry="4.00001"/>
<text text-anchor="middle" x="1414.5" y="-265.4" font-family="Times Roman,serif" font-size="14.00">Person</text>
</g>
<!-- Goods::Additional -->
<g id="node31" class="node"><title>Goods::Additional</title>
<polygon fill="none" stroke="black" stroke-dasharray="1,5" points="2960,-713 2824,-713 2824,-677 2960,-677 2960,-713"/>
<text text-anchor="middle" x="2892" y="-691.4" font-family="Times Roman,serif" font-size="14.00">Goods::Additional</text>
</g>
<!-- Goods::Additional::Type -->
<g id="node32" class="node"><title>Goods::Additional::Type</title>
<ellipse fill="none" stroke="black" cx="2270" cy="-111" rx="125.865" ry="18.3848"/>
<text text-anchor="middle" x="2270" y="-107.4" font-family="Times Roman,serif" font-size="14.00">Goods::Additional::Type</text>
</g>
<!-- Goods::Additional::Type&#45;&gt;Goods::Additional::Value -->
<g id="edge74" class="edge"><title>Goods::Additional::Type&#45;&gt;Goods::Additional::Value</title>
<path fill="none" stroke="black" d="M2174.42,-96.5605C2161.2,-94.8519 2147.78,-93.2681 2135,-92 1729.95,-51.7933 1249.05,-31.4401 1017.36,-23.3416"/>
<ellipse fill="none" stroke="black" cx="2178.65" cy="-97.1172" rx="4.00001" ry="4.00001"/>
<polygon fill="black" stroke="black" points="1017.19,-23.3357 1007.35,-18.4912 1012.19,-23.1621 1007.2,-22.9885 1007.2,-22.9885 1007.2,-22.9885 1012.19,-23.1621 1007.04,-27.4858 1017.19,-23.3357 1017.19,-23.3357"/>
<text text-anchor="middle" x="1948.5" y="-61.4" font-family="Times Roman,serif" font-size="14.00">Value</text>
</g>
<!-- Taxe::Group -->
<g id="node35" class="node"><title>Taxe::Group</title>
<ellipse fill="none" stroke="black" cx="1006" cy="-407" rx="70.0036" ry="18.3848"/>
<text text-anchor="middle" x="1006" y="-403.4" font-family="Times Roman,serif" font-size="14.00">Taxe::Group</text>
</g>
<!-- Taxe::Type -->
<g id="node36" class="node"><title>Taxe::Type</title>
<ellipse fill="none" stroke="black" cx="1006" cy="-315" rx="62.2254" ry="18.3848"/>
<text text-anchor="middle" x="1006" y="-311.4" font-family="Times Roman,serif" font-size="14.00">Taxe::Type</text>
</g>
<!-- Taxe::Group&#45;&gt;Taxe::Type -->
<g id="edge76" class="edge"><title>Taxe::Group&#45;&gt;Taxe::Type</title>
<path fill="none" stroke="black" d="M1006,-380.029C1006,-368.599 1006,-355.267 1006,-343.66"/>
<ellipse fill="none" stroke="black" cx="1006" cy="-384.382" rx="4" ry="4"/>
<polygon fill="black" stroke="black" points="1006,-343.59 1010.5,-333.59 1006,-338.59 1006,-333.59 1006,-333.59 1006,-333.59 1006,-338.59 1001.5,-333.59 1006,-343.59 1006,-343.59"/>
<text text-anchor="middle" x="1022" y="-357.4" font-family="Times Roman,serif" font-size="14.00">Type</text>
</g>
<!-- Taxe::Value -->
<g id="node37" class="node"><title>Taxe::Value</title>
<ellipse fill="none" stroke="black" cx="1068" cy="-223" rx="67.1751" ry="18.3848"/>
<text text-anchor="middle" x="1068" y="-219.4" font-family="Times Roman,serif" font-size="14.00">Taxe::Value</text>
</g>
<!-- Taxe::Type&#45;&gt;Taxe::Value -->
<g id="edge78" class="edge"><title>Taxe::Type&#45;&gt;Taxe::Value</title>
<path fill="none" stroke="black" d="M1038.05,-292.7C1042.88,-288.262 1047.43,-283.314 1051,-278 1056.34,-270.042 1060.07,-260.327 1062.64,-251.289"/>
<ellipse fill="none" stroke="black" cx="1034.86" cy="-295.432" rx="4.00002" ry="4.00002"/>
<polygon fill="black" stroke="black" points="1062.66,-251.206 1069.44,-242.589 1063.87,-246.354 1065.07,-241.502 1065.07,-241.502 1065.07,-241.502 1063.87,-246.354 1060.71,-240.415 1062.66,-251.206 1062.66,-251.206"/>
<text text-anchor="middle" x="1082" y="-265.4" font-family="Times Roman,serif" font-size="14.00">Values</text>
</g>
<!-- Taxe::Value&#45;&gt;Transaction::Goods::Taxe -->
<g id="edge80" class="edge"><title>Taxe::Value&#45;&gt;Transaction::Goods::Taxe</title>
<path fill="none" stroke="black" d="M1068,-196.242C1068,-178.632 1068,-155.661 1068,-138.003"/>
<ellipse fill="none" stroke="black" cx="1068" cy="-200.254" rx="4" ry="4"/>
<ellipse fill="black" stroke="black" cx="1068" cy="-133.807" rx="4" ry="4"/>
<text text-anchor="middle" x="1083.5" y="-163.4" font-family="Times Roman,serif" font-size="14.00">Taxe</text>
</g>
<!-- Email::Domain -->
<g id="node38" class="node"><title>Email::Domain</title>
<ellipse fill="none" stroke="black" cx="2207" cy="-315" rx="82.0244" ry="18.3848"/>
<text text-anchor="middle" x="2207" y="-311.4" font-family="Times Roman,serif" font-size="14.00">Email::Domain</text>
</g>
<!-- Email::User -->
<g id="node39" class="node"><title>Email::User</title>
<ellipse fill="none" stroke="black" cx="2207" cy="-223" rx="67.1751" ry="18.3848"/>
<text text-anchor="middle" x="2207" y="-219.4" font-family="Times Roman,serif" font-size="14.00">Email::User</text>
</g>
<!-- Email::Domain&#45;&gt;Email::User -->
<g id="edge82" class="edge"><title>Email::Domain&#45;&gt;Email::User</title>
<path fill="none" stroke="black" d="M2207,-288.029C2207,-276.599 2207,-263.267 2207,-251.66"/>
<ellipse fill="none" stroke="black" cx="2207" cy="-292.382" rx="4" ry="4"/>
<polygon fill="black" stroke="black" points="2207,-251.59 2211.5,-241.59 2207,-246.59 2207,-241.59 2207,-241.59 2207,-241.59 2207,-246.59 2202.5,-241.59 2207,-251.59 2207,-251.59"/>
<text text-anchor="middle" x="2223" y="-265.4" font-family="Times Roman,serif" font-size="14.00">User</text>
</g>
<!-- Email::User&#45;&gt;Participant::Contact::Email -->
<g id="edge84" class="edge"><title>Email::User&#45;&gt;Participant::Contact::Email</title>
<path fill="none" stroke="black" d="M2167.48,-203.061C2128.25,-183.271 2068.31,-153.028 2027.93,-132.659"/>
<ellipse fill="none" stroke="black" cx="2171.15" cy="-204.912" rx="4.00002" ry="4.00002"/>
<ellipse fill="black" stroke="black" cx="2024.2" cy="-130.777" rx="4.00002" ry="4.00002"/>
<text text-anchor="middle" x="2147" y="-163.4" font-family="Times Roman,serif" font-size="14.00">Email</text>
</g>
<!-- Financier -->
<g id="node40" class="node"><title>Financier</title>
<polygon fill="none" stroke="black" stroke-dasharray="1,5" points="3056,-713 2978,-713 2978,-677 3056,-677 3056,-713"/>
<text text-anchor="middle" x="3017" y="-691.4" font-family="Times Roman,serif" font-size="14.00">Financier</text>
</g>
<!-- Address -->
<g id="node41" class="node"><title>Address</title>
<polygon fill="none" stroke="black" stroke-dasharray="1,5" points="3144,-713 3074,-713 3074,-677 3144,-677 3144,-713"/>
<text text-anchor="middle" x="3109" y="-691.4" font-family="Times Roman,serif" font-size="14.00">Address</text>
</g>
<!-- Goods -->
<g id="node42" class="node"><title>Goods</title>
<polygon fill="none" stroke="black" stroke-dasharray="1,5" points="3220,-713 3162,-713 3162,-677 3220,-677 3220,-713"/>
<text text-anchor="middle" x="3191" y="-691.4" font-family="Times Roman,serif" font-size="14.00">Goods</text>
</g>
<!-- Taxe -->
<g id="node43" class="node"><title>Taxe</title>
<polygon fill="none" stroke="black" stroke-dasharray="1,5" points="3292,-713 3238,-713 3238,-677 3292,-677 3292,-713"/>
<text text-anchor="middle" x="3265" y="-691.4" font-family="Times Roman,serif" font-size="14.00">Taxe</text>
</g>
</g>
</svg>
