<?xml version="1.0" encoding="UTF-8" standalone="no"?>
<!DOCTYPE svg PUBLIC "-//W3C//DTD SVG 1.1//EN"
 "http://www.w3.org/Graphics/SVG/1.1/DTD/svg11.dtd">
<!-- Generated by graphviz version 2.26.3 (20100126.1600)
 -->
<!-- Title: models_diagram Pages: 1 -->
<svg width="655pt" height="1448pt"
 viewBox="0.00 0.00 655.00 1448.00" xmlns="http://www.w3.org/2000/svg" xmlns:xlink="http://www.w3.org/1999/xlink">
<g id="graph1" class="graph" transform="scale(1 1) rotate(0) translate(4 1444)">
<title>models_diagram</title>
<polygon fill="white" stroke="white" points="-4,5 -4,-1444 652,-1444 652,5 -4,5"/>
<!-- _diagram_info -->
<g id="node1" class="node"><title>_diagram_info</title>
<text text-anchor="start" x="35" y="-1380.8" font-family="Times Roman,serif" font-size="13.00">Models diagram</text>
<text text-anchor="start" x="35" y="-1363.8" font-family="Times Roman,serif" font-size="13.00">Date: Aug 03 2011 &#45; 21:48</text>
<text text-anchor="start" x="35" y="-1346.8" font-family="Times Roman,serif" font-size="13.00">Migration version: 20110803231238</text>
<text text-anchor="start" x="35" y="-1329.8" font-family="Times Roman,serif" font-size="13.00">Generated by RailRoady 1.0.2</text>
<text text-anchor="start" x="35" y="-1312.8" font-family="Times Roman,serif" font-size="13.00">http://railroady.prestonlee.com</text>
</g>
<!-- Street -->
<g id="node2" class="node"><title>Street</title>
<polyline fill="none" stroke="black" points="194,-172 340,-172 "/>
<path fill="none" stroke="black" d="M340,-172C346,-172 352,-178 352,-184"/>
<polyline fill="none" stroke="black" points="352,-184 352,-338 "/>
<path fill="none" stroke="black" d="M352,-338C352,-344 346,-350 340,-350"/>
<polyline fill="none" stroke="black" points="340,-350 194,-350 "/>
<path fill="none" stroke="black" d="M194,-350C188,-350 182,-344 182,-338"/>
<polyline fill="none" stroke="black" points="182,-338 182,-184 "/>
<path fill="none" stroke="black" d="M182,-184C182,-178 188,-172 194,-172"/>
<text text-anchor="middle" x="267" y="-333.4" font-family="Times Roman,serif" font-size="14.00">Street</text>
<polyline fill="none" stroke="black" points="182,-324 352,-324 "/>
<text text-anchor="start" x="190" y="-307.4" font-family="Times Roman,serif" font-size="14.00">phone_number :string</text>
<text text-anchor="start" x="190" y="-289.4" font-family="Times Roman,serif" font-size="14.00">adress_number :string</text>
<text text-anchor="start" x="190" y="-271.4" font-family="Times Roman,serif" font-size="14.00">name :string</text>
<text text-anchor="start" x="190" y="-253.4" font-family="Times Roman,serif" font-size="14.00">remark :string</text>
<text text-anchor="start" x="190" y="-235.4" font-family="Times Roman,serif" font-size="14.00">active :boolean</text>
<text text-anchor="start" x="190" y="-217.4" font-family="Times Roman,serif" font-size="14.00">acronym :string</text>
<text text-anchor="start" x="190" y="-199.4" font-family="Times Roman,serif" font-size="14.00">created_at :datetime</text>
<text text-anchor="start" x="190" y="-181.4" font-family="Times Roman,serif" font-size="14.00">updated_at :datetime</text>
</g>
<!-- Adres -->
<g id="node14" class="node"><title>Adres</title>
<ellipse fill="none" stroke="black" cx="244" cy="-63" rx="39.0967" ry="18.3848"/>
<text text-anchor="middle" x="244" y="-59.4" font-family="Times Roman,serif" font-size="14.00">Adres</text>
</g>
<!-- Street&#45;&gt;Adres -->
<g id="edge2" class="edge"><title>Street&#45;&gt;Adres</title>
<path fill="none" stroke="black" d="M255.488,-161.894C252.507,-136.23 249.527,-110.576 247.349,-91.8298"/>
<polygon fill="black" stroke="black" points="255.49,-161.914 252.174,-172.366 256.067,-166.88 256.644,-171.847 256.644,-171.847 256.644,-171.847 256.067,-166.88 261.114,-171.328 255.49,-161.914 255.49,-161.914"/>
<polygon fill="black" stroke="black" points="247.32,-91.5759 250.636,-81.1234 246.743,-86.6093 246.166,-81.6427 246.166,-81.6427 246.166,-81.6427 246.743,-86.6093 241.696,-82.1619 247.32,-91.5759 247.32,-91.5759"/>
</g>
<!-- State -->
<g id="node3" class="node"><title>State</title>
<polyline fill="none" stroke="black" points="307,-829 453,-829 "/>
<path fill="none" stroke="black" d="M453,-829C459,-829 465,-835 465,-841"/>
<polyline fill="none" stroke="black" points="465,-841 465,-995 "/>
<path fill="none" stroke="black" d="M465,-995C465,-1001 459,-1007 453,-1007"/>
<polyline fill="none" stroke="black" points="453,-1007 307,-1007 "/>
<path fill="none" stroke="black" d="M307,-1007C301,-1007 295,-1001 295,-995"/>
<polyline fill="none" stroke="black" points="295,-995 295,-841 "/>
<path fill="none" stroke="black" d="M295,-841C295,-835 301,-829 307,-829"/>
<text text-anchor="middle" x="380" y="-990.4" font-family="Times Roman,serif" font-size="14.00">State</text>
<polyline fill="none" stroke="black" points="295,-981 465,-981 "/>
<text text-anchor="start" x="303" y="-964.4" font-family="Times Roman,serif" font-size="14.00">phone_number :string</text>
<text text-anchor="start" x="303" y="-946.4" font-family="Times Roman,serif" font-size="14.00">adress_number :string</text>
<text text-anchor="start" x="303" y="-928.4" font-family="Times Roman,serif" font-size="14.00">name :string</text>
<text text-anchor="start" x="303" y="-910.4" font-family="Times Roman,serif" font-size="14.00">remark :string</text>
<text text-anchor="start" x="303" y="-892.4" font-family="Times Roman,serif" font-size="14.00">active :boolean</text>
<text text-anchor="start" x="303" y="-874.4" font-family="Times Roman,serif" font-size="14.00">acronym :string</text>
<text text-anchor="start" x="303" y="-856.4" font-family="Times Roman,serif" font-size="14.00">created_at :datetime</text>
<text text-anchor="start" x="303" y="-838.4" font-family="Times Roman,serif" font-size="14.00">updated_at :datetime</text>
</g>
<!-- City -->
<g id="node4" class="node"><title>City</title>
<polyline fill="none" stroke="black" points="326,-613 472,-613 "/>
<path fill="none" stroke="black" d="M472,-613C478,-613 484,-619 484,-625"/>
<polyline fill="none" stroke="black" points="484,-625 484,-779 "/>
<path fill="none" stroke="black" d="M484,-779C484,-785 478,-791 472,-791"/>
<polyline fill="none" stroke="black" points="472,-791 326,-791 "/>
<path fill="none" stroke="black" d="M326,-791C320,-791 314,-785 314,-779"/>
<polyline fill="none" stroke="black" points="314,-779 314,-625 "/>
<path fill="none" stroke="black" d="M314,-625C314,-619 320,-613 326,-613"/>
<text text-anchor="middle" x="399" y="-774.4" font-family="Times Roman,serif" font-size="14.00">City</text>
<polyline fill="none" stroke="black" points="314,-765 484,-765 "/>
<text text-anchor="start" x="322" y="-748.4" font-family="Times Roman,serif" font-size="14.00">phone_number :string</text>
<text text-anchor="start" x="322" y="-730.4" font-family="Times Roman,serif" font-size="14.00">adress_number :string</text>
<text text-anchor="start" x="322" y="-712.4" font-family="Times Roman,serif" font-size="14.00">name :string</text>
<text text-anchor="start" x="322" y="-694.4" font-family="Times Roman,serif" font-size="14.00">remark :string</text>
<text text-anchor="start" x="322" y="-676.4" font-family="Times Roman,serif" font-size="14.00">active :boolean</text>
<text text-anchor="start" x="322" y="-658.4" font-family="Times Roman,serif" font-size="14.00">acronym :string</text>
<text text-anchor="start" x="322" y="-640.4" font-family="Times Roman,serif" font-size="14.00">created_at :datetime</text>
<text text-anchor="start" x="322" y="-622.4" font-family="Times Roman,serif" font-size="14.00">updated_at :datetime</text>
</g>
<!-- State&#45;&gt;City -->
<g id="edge6" class="edge"><title>State&#45;&gt;City</title>
<path fill="none" stroke="black" d="M388.559,-820.695C389.125,-814.259 389.696,-807.773 390.263,-801.327"/>
<ellipse fill="none" stroke="black" cx="388.188" cy="-824.913" rx="4" ry="4"/>
<polygon fill="black" stroke="black" points="390.273,-801.208 395.632,-791.641 390.711,-796.227 391.15,-791.246 391.15,-791.246 391.15,-791.246 390.711,-796.227 386.667,-790.852 390.273,-801.208 390.273,-801.208"/>
</g>
<!-- Neighborhood -->
<g id="node12" class="node"><title>Neighborhood</title>
<polyline fill="none" stroke="black" points="326,-397 472,-397 "/>
<path fill="none" stroke="black" d="M472,-397C478,-397 484,-403 484,-409"/>
<polyline fill="none" stroke="black" points="484,-409 484,-563 "/>
<path fill="none" stroke="black" d="M484,-563C484,-569 478,-575 472,-575"/>
<polyline fill="none" stroke="black" points="472,-575 326,-575 "/>
<path fill="none" stroke="black" d="M326,-575C320,-575 314,-569 314,-563"/>
<polyline fill="none" stroke="black" points="314,-563 314,-409 "/>
<path fill="none" stroke="black" d="M314,-409C314,-403 320,-397 326,-397"/>
<text text-anchor="middle" x="399" y="-558.4" font-family="Times Roman,serif" font-size="14.00">Neighborhood</text>
<polyline fill="none" stroke="black" points="314,-549 484,-549 "/>
<text text-anchor="start" x="322" y="-532.4" font-family="Times Roman,serif" font-size="14.00">phone_number :string</text>
<text text-anchor="start" x="322" y="-514.4" font-family="Times Roman,serif" font-size="14.00">adress_number :string</text>
<text text-anchor="start" x="322" y="-496.4" font-family="Times Roman,serif" font-size="14.00">name :string</text>
<text text-anchor="start" x="322" y="-478.4" font-family="Times Roman,serif" font-size="14.00">remark :string</text>
<text text-anchor="start" x="322" y="-460.4" font-family="Times Roman,serif" font-size="14.00">active :boolean</text>
<text text-anchor="start" x="322" y="-442.4" font-family="Times Roman,serif" font-size="14.00">acronym :string</text>
<text text-anchor="start" x="322" y="-424.4" font-family="Times Roman,serif" font-size="14.00">created_at :datetime</text>
<text text-anchor="start" x="322" y="-406.4" font-family="Times Roman,serif" font-size="14.00">updated_at :datetime</text>
</g>
<!-- City&#45;&gt;Neighborhood -->
<g id="edge10" class="edge"><title>City&#45;&gt;Neighborhood</title>
<path fill="none" stroke="black" d="M399,-604.695C399,-598.259 399,-591.773 399,-585.327"/>
<ellipse fill="none" stroke="black" cx="399" cy="-608.897" rx="4" ry="4"/>
<polygon fill="black" stroke="black" points="399,-585.246 403.5,-575.246 399,-580.246 399,-575.246 399,-575.246 399,-575.246 399,-580.246 394.5,-575.246 399,-585.246 399,-585.246"/>
</g>
<!-- Phone -->
<g id="node5" class="node"><title>Phone</title>
<polyline fill="none" stroke="black" points="11.5,-1 152.5,-1 "/>
<path fill="none" stroke="black" d="M152.5,-1C158.5,-1 164.5,-7 164.5,-13"/>
<polyline fill="none" stroke="black" points="164.5,-13 164.5,-113 "/>
<path fill="none" stroke="black" d="M164.5,-113C164.5,-119 158.5,-125 152.5,-125"/>
<polyline fill="none" stroke="black" points="152.5,-125 11.5,-125 "/>
<path fill="none" stroke="black" d="M11.5,-125C5.5,-125 -0.5,-119 -0.5,-113"/>
<polyline fill="none" stroke="black" points="-0.5,-113 -0.5,-13 "/>
<path fill="none" stroke="black" d="M-0.5,-13C-0.5,-7 5.5,-1 11.5,-1"/>
<text text-anchor="middle" x="82" y="-108.4" font-family="Times Roman,serif" font-size="14.00">Phone</text>
<polyline fill="none" stroke="black" points="-0.5,-99 164.5,-99 "/>
<text text-anchor="start" x="7.5" y="-82.4" font-family="Times Roman,serif" font-size="14.00">number :integer</text>
<text text-anchor="start" x="7.5" y="-64.4" font-family="Times Roman,serif" font-size="14.00">remark :text</text>
<text text-anchor="start" x="7.5" y="-46.4" font-family="Times Roman,serif" font-size="14.00">extension :integer</text>
<text text-anchor="start" x="7.5" y="-28.4" font-family="Times Roman,serif" font-size="14.00">created_at :datetime</text>
<text text-anchor="start" x="7.5" y="-10.4" font-family="Times Roman,serif" font-size="14.00">updated_at :datetime</text>
</g>
<!-- Email -->
<g id="node6" class="node"><title>Email</title>
<polyline fill="none" stroke="black" points="11.5,-424 152.5,-424 "/>
<path fill="none" stroke="black" d="M152.5,-424C158.5,-424 164.5,-430 164.5,-436"/>
<polyline fill="none" stroke="black" points="164.5,-436 164.5,-536 "/>
<path fill="none" stroke="black" d="M164.5,-536C164.5,-542 158.5,-548 152.5,-548"/>
<polyline fill="none" stroke="black" points="152.5,-548 11.5,-548 "/>
<path fill="none" stroke="black" d="M11.5,-548C5.5,-548 -0.5,-542 -0.5,-536"/>
<polyline fill="none" stroke="black" points="-0.5,-536 -0.5,-436 "/>
<path fill="none" stroke="black" d="M-0.5,-436C-0.5,-430 5.5,-424 11.5,-424"/>
<text text-anchor="middle" x="82" y="-531.4" font-family="Times Roman,serif" font-size="14.00">Email</text>
<polyline fill="none" stroke="black" points="-0.5,-522 164.5,-522 "/>
<text text-anchor="start" x="7.5" y="-505.4" font-family="Times Roman,serif" font-size="14.00">domain :string</text>
<text text-anchor="start" x="7.5" y="-487.4" font-family="Times Roman,serif" font-size="14.00">name :string</text>
<text text-anchor="start" x="7.5" y="-469.4" font-family="Times Roman,serif" font-size="14.00">remark :text</text>
<text text-anchor="start" x="7.5" y="-451.4" font-family="Times Roman,serif" font-size="14.00">created_at :datetime</text>
<text text-anchor="start" x="7.5" y="-433.4" font-family="Times Roman,serif" font-size="14.00">updated_at :datetime</text>
</g>
<!-- Person -->
<g id="node11" class="node"><title>Person</title>
<polyline fill="none" stroke="black" points="11.5,-163 152.5,-163 "/>
<path fill="none" stroke="black" d="M152.5,-163C158.5,-163 164.5,-169 164.5,-175"/>
<polyline fill="none" stroke="black" points="164.5,-175 164.5,-347 "/>
<path fill="none" stroke="black" d="M164.5,-347C164.5,-353 158.5,-359 152.5,-359"/>
<polyline fill="none" stroke="black" points="152.5,-359 11.5,-359 "/>
<path fill="none" stroke="black" d="M11.5,-359C5.5,-359 -0.5,-353 -0.5,-347"/>
<polyline fill="none" stroke="black" points="-0.5,-347 -0.5,-175 "/>
<path fill="none" stroke="black" d="M-0.5,-175C-0.5,-169 5.5,-163 11.5,-163"/>
<text text-anchor="middle" x="82" y="-342.4" font-family="Times Roman,serif" font-size="14.00">Person</text>
<polyline fill="none" stroke="black" points="-0.5,-333 164.5,-333 "/>
<text text-anchor="start" x="7.5" y="-316.4" font-family="Times Roman,serif" font-size="14.00">first_name :string</text>
<text text-anchor="start" x="7.5" y="-298.4" font-family="Times Roman,serif" font-size="14.00">last_name :string</text>
<text text-anchor="start" x="7.5" y="-280.4" font-family="Times Roman,serif" font-size="14.00">nickname :string</text>
<text text-anchor="start" x="7.5" y="-262.4" font-family="Times Roman,serif" font-size="14.00">birthday :date</text>
<text text-anchor="start" x="7.5" y="-244.4" font-family="Times Roman,serif" font-size="14.00">code :string</text>
<text text-anchor="start" x="7.5" y="-226.4" font-family="Times Roman,serif" font-size="14.00">remark :string</text>
<text text-anchor="start" x="7.5" y="-208.4" font-family="Times Roman,serif" font-size="14.00">active :boolean</text>
<text text-anchor="start" x="7.5" y="-190.4" font-family="Times Roman,serif" font-size="14.00">created_at :datetime</text>
<text text-anchor="start" x="7.5" y="-172.4" font-family="Times Roman,serif" font-size="14.00">updated_at :datetime</text>
</g>
<!-- Email&#45;&gt;Person -->
<g id="edge14" class="edge"><title>Email&#45;&gt;Person</title>
<path fill="none" stroke="black" d="M82,-415.807C82,-400.391 82,-383.735 82,-367.258"/>
<ellipse fill="none" stroke="black" cx="82" cy="-419.922" rx="4" ry="4"/>
<ellipse fill="black" stroke="black" cx="82" cy="-363.19" rx="4" ry="4"/>
</g>
<!-- Country -->
<g id="node7" class="node"><title>Country</title>
<polyline fill="none" stroke="black" points="307,-1045 453,-1045 "/>
<path fill="none" stroke="black" d="M453,-1045C459,-1045 465,-1051 465,-1057"/>
<polyline fill="none" stroke="black" points="465,-1057 465,-1211 "/>
<path fill="none" stroke="black" d="M465,-1211C465,-1217 459,-1223 453,-1223"/>
<polyline fill="none" stroke="black" points="453,-1223 307,-1223 "/>
<path fill="none" stroke="black" d="M307,-1223C301,-1223 295,-1217 295,-1211"/>
<polyline fill="none" stroke="black" points="295,-1211 295,-1057 "/>
<path fill="none" stroke="black" d="M295,-1057C295,-1051 301,-1045 307,-1045"/>
<text text-anchor="middle" x="380" y="-1206.4" font-family="Times Roman,serif" font-size="14.00">Country</text>
<polyline fill="none" stroke="black" points="295,-1197 465,-1197 "/>
<text text-anchor="start" x="303" y="-1180.4" font-family="Times Roman,serif" font-size="14.00">phone_number :string</text>
<text text-anchor="start" x="303" y="-1162.4" font-family="Times Roman,serif" font-size="14.00">adress_number :string</text>
<text text-anchor="start" x="303" y="-1144.4" font-family="Times Roman,serif" font-size="14.00">name :string</text>
<text text-anchor="start" x="303" y="-1126.4" font-family="Times Roman,serif" font-size="14.00">remark :string</text>
<text text-anchor="start" x="303" y="-1108.4" font-family="Times Roman,serif" font-size="14.00">active :boolean</text>
<text text-anchor="start" x="303" y="-1090.4" font-family="Times Roman,serif" font-size="14.00">acronym :string</text>
<text text-anchor="start" x="303" y="-1072.4" font-family="Times Roman,serif" font-size="14.00">created_at :datetime</text>
<text text-anchor="start" x="303" y="-1054.4" font-family="Times Roman,serif" font-size="14.00">updated_at :datetime</text>
</g>
<!-- Country&#45;&gt;State -->
<g id="edge16" class="edge"><title>Country&#45;&gt;State</title>
<path fill="none" stroke="black" d="M380,-1036.7C380,-1030.26 380,-1023.77 380,-1017.33"/>
<ellipse fill="none" stroke="black" cx="380" cy="-1040.9" rx="4" ry="4"/>
<polygon fill="black" stroke="black" points="380,-1017.25 384.5,-1007.25 380,-1012.25 380,-1007.25 380,-1007.25 380,-1007.25 380,-1012.25 375.5,-1007.25 380,-1017.25 380,-1017.25"/>
</g>
<!-- Place -->
<g id="node8" class="node"><title>Place</title>
<polyline fill="none" stroke="black" points="307,-1261 453,-1261 "/>
<path fill="none" stroke="black" d="M453,-1261C459,-1261 465,-1267 465,-1273"/>
<polyline fill="none" stroke="black" points="465,-1273 465,-1427 "/>
<path fill="none" stroke="black" d="M465,-1427C465,-1433 459,-1439 453,-1439"/>
<polyline fill="none" stroke="black" points="453,-1439 307,-1439 "/>
<path fill="none" stroke="black" d="M307,-1439C301,-1439 295,-1433 295,-1427"/>
<polyline fill="none" stroke="black" points="295,-1427 295,-1273 "/>
<path fill="none" stroke="black" d="M295,-1273C295,-1267 301,-1261 307,-1261"/>
<text text-anchor="middle" x="380" y="-1422.4" font-family="Times Roman,serif" font-size="14.00">Place</text>
<polyline fill="none" stroke="black" points="295,-1413 465,-1413 "/>
<text text-anchor="start" x="303" y="-1396.4" font-family="Times Roman,serif" font-size="14.00">phone_number :string</text>
<text text-anchor="start" x="303" y="-1378.4" font-family="Times Roman,serif" font-size="14.00">adress_number :string</text>
<text text-anchor="start" x="303" y="-1360.4" font-family="Times Roman,serif" font-size="14.00">name :string</text>
<text text-anchor="start" x="303" y="-1342.4" font-family="Times Roman,serif" font-size="14.00">remark :string</text>
<text text-anchor="start" x="303" y="-1324.4" font-family="Times Roman,serif" font-size="14.00">active :boolean</text>
<text text-anchor="start" x="303" y="-1306.4" font-family="Times Roman,serif" font-size="14.00">acronym :string</text>
<text text-anchor="start" x="303" y="-1288.4" font-family="Times Roman,serif" font-size="14.00">created_at :datetime</text>
<text text-anchor="start" x="303" y="-1270.4" font-family="Times Roman,serif" font-size="14.00">updated_at :datetime</text>
</g>
<!-- Place&#45;&gt;Street -->
<g id="edge4" class="edge"><title>Place&#45;&gt;Street</title>
<path fill="none" stroke="black" d="M294.991,-1265.31C280.515,-1249.15 268.638,-1234.14 264,-1224 207.061,-1099.52 229,-1054.89 229,-918 229,-918 229,-918 229,-702 229,-579.815 243.659,-439.287 254.767,-350.336"/>
</g>
<!-- Place&#45;&gt;State -->
<g id="edge8" class="edge"><title>Place&#45;&gt;State</title>
<path fill="none" stroke="black" d="M303.276,-1260.98C296.257,-1249.14 290.213,-1236.69 286,-1224 260.798,-1148.07 260.798,-1119.93 286,-1044 290.213,-1031.31 296.257,-1018.86 303.276,-1007.02"/>
</g>
<!-- Place&#45;&gt;City -->
<g id="edge12" class="edge"><title>Place&#45;&gt;City</title>
<path fill="none" stroke="black" d="M456.724,-1260.98C463.743,-1249.14 469.787,-1236.69 474,-1224 529.444,-1056.96 520.683,-997.696 474,-828 470.59,-815.605 465.607,-803.197 459.804,-791.263"/>
</g>
<!-- Place&#45;&gt;Country -->
<g id="edge18" class="edge"><title>Place&#45;&gt;Country</title>
<path fill="none" stroke="black" d="M380,-1260.9C380,-1248.46 380,-1235.68 380,-1223.25"/>
</g>
<!-- Place&#45;&gt;Neighborhood -->
<g id="edge28" class="edge"><title>Place&#45;&gt;Neighborhood</title>
<path fill="none" stroke="black" d="M465.137,-1267.9C487.349,-1246.02 505.567,-1227.44 507,-1224 611.614,-972.845 586.429,-867.526 493,-612 488.408,-599.44 482.13,-587.072 474.979,-575.283"/>
</g>
<!-- Adress -->
<g id="node9" class="node"><title>Adress</title>
<polyline fill="none" stroke="black" points="494.5,-1315 635.5,-1315 "/>
<path fill="none" stroke="black" d="M635.5,-1315C641.5,-1315 647.5,-1321 647.5,-1327"/>
<polyline fill="none" stroke="black" points="647.5,-1327 647.5,-1373 "/>
<path fill="none" stroke="black" d="M647.5,-1373C647.5,-1379 641.5,-1385 635.5,-1385"/>
<polyline fill="none" stroke="black" points="635.5,-1385 494.5,-1385 "/>
<path fill="none" stroke="black" d="M494.5,-1385C488.5,-1385 482.5,-1379 482.5,-1373"/>
<polyline fill="none" stroke="black" points="482.5,-1373 482.5,-1327 "/>
<path fill="none" stroke="black" d="M482.5,-1327C482.5,-1321 488.5,-1315 494.5,-1315"/>
<text text-anchor="middle" x="565" y="-1368.4" font-family="Times Roman,serif" font-size="14.00">Adress</text>
<polyline fill="none" stroke="black" points="482.5,-1359 647.5,-1359 "/>
<text text-anchor="start" x="490.5" y="-1342.4" font-family="Times Roman,serif" font-size="14.00">created_at :datetime</text>
<text text-anchor="start" x="490.5" y="-1324.4" font-family="Times Roman,serif" font-size="14.00">updated_at :datetime</text>
</g>
<!-- EmailType -->
<g id="node10" class="node"><title>EmailType</title>
<polyline fill="none" stroke="black" points="11.5,-640 152.5,-640 "/>
<path fill="none" stroke="black" d="M152.5,-640C158.5,-640 164.5,-646 164.5,-652"/>
<polyline fill="none" stroke="black" points="164.5,-652 164.5,-752 "/>
<path fill="none" stroke="black" d="M164.5,-752C164.5,-758 158.5,-764 152.5,-764"/>
<polyline fill="none" stroke="black" points="152.5,-764 11.5,-764 "/>
<path fill="none" stroke="black" d="M11.5,-764C5.5,-764 -0.5,-758 -0.5,-752"/>
<polyline fill="none" stroke="black" points="-0.5,-752 -0.5,-652 "/>
<path fill="none" stroke="black" d="M-0.5,-652C-0.5,-646 5.5,-640 11.5,-640"/>
<text text-anchor="middle" x="82" y="-747.4" font-family="Times Roman,serif" font-size="14.00">EmailType</text>
<polyline fill="none" stroke="black" points="-0.5,-738 164.5,-738 "/>
<text text-anchor="start" x="7.5" y="-721.4" font-family="Times Roman,serif" font-size="14.00">name :string</text>
<text text-anchor="start" x="7.5" y="-703.4" font-family="Times Roman,serif" font-size="14.00">active :boolean</text>
<text text-anchor="start" x="7.5" y="-685.4" font-family="Times Roman,serif" font-size="14.00">remark :text</text>
<text text-anchor="start" x="7.5" y="-667.4" font-family="Times Roman,serif" font-size="14.00">created_at :datetime</text>
<text text-anchor="start" x="7.5" y="-649.4" font-family="Times Roman,serif" font-size="14.00">updated_at :datetime</text>
</g>
<!-- EmailType&#45;&gt;Email -->
<g id="edge20" class="edge"><title>EmailType&#45;&gt;Email</title>
<path fill="none" stroke="black" d="M82,-631.585C82,-608.142 82,-582.001 82,-558.41"/>
<ellipse fill="none" stroke="black" cx="82" cy="-635.814" rx="4" ry="4"/>
<polygon fill="black" stroke="black" points="82.0001,-558.121 86.5,-548.121 82,-553.121 82,-548.121 82,-548.121 82,-548.121 82,-553.121 77.5,-548.121 82.0001,-558.121 82.0001,-558.121"/>
</g>
<!-- Person&#45;&gt;Phone -->
<g id="edge22" class="edge"><title>Person&#45;&gt;Phone</title>
<path fill="none" stroke="black" d="M82,-154.753C82,-148.28 82,-141.848 82,-135.569"/>
<ellipse fill="none" stroke="black" cx="82" cy="-158.87" rx="4" ry="4"/>
<polygon fill="black" stroke="black" points="82.0001,-135.167 86.5,-125.167 82,-130.167 82,-125.167 82,-125.167 82,-125.167 82,-130.167 77.5,-125.167 82.0001,-135.167 82.0001,-135.167"/>
</g>
<!-- Person&#45;&gt;Adres -->
<g id="edge24" class="edge"><title>Person&#45;&gt;Adres</title>
<path fill="none" stroke="black" d="M168.667,-155.073C189.085,-130.119 209.02,-105.754 223.249,-88.3625"/>
<polygon fill="black" stroke="black" points="168.621,-155.131 158.805,-160.021 165.454,-159 162.288,-162.87 162.288,-162.87 162.288,-162.87 165.454,-159 165.771,-165.72 168.621,-155.131 168.621,-155.131"/>
<polygon fill="black" stroke="black" points="223.42,-88.1528 233.236,-83.2628 226.587,-84.283 229.753,-80.4132 229.753,-80.4132 229.753,-80.4132 226.587,-84.283 226.27,-77.5636 223.42,-88.1528 223.42,-88.1528"/>
</g>
<!-- Neighborhood&#45;&gt;Street -->
<g id="edge26" class="edge"><title>Neighborhood&#45;&gt;Street</title>
<path fill="none" stroke="black" d="M342.4,-389.522C336.467,-379.41 330.431,-369.122 324.489,-358.993"/>
<ellipse fill="none" stroke="black" cx="344.616" cy="-393.301" rx="4.00002" ry="4.00002"/>
<polygon fill="black" stroke="black" points="324.356,-358.766 323.178,-347.864 321.826,-354.454 319.296,-350.141 319.296,-350.141 319.296,-350.141 321.826,-354.454 315.415,-352.418 324.356,-358.766 324.356,-358.766"/>
</g>
</g>
</svg>
